<svg xmlns="http://www.w3.org/2000/svg" viewBox="0 0 48 48" width="50px" height="50px"><path fill="#bbdefb" d="M6,10c0-2.209,1.791-4,4-4h28c2.209,0,4,1.791,4,4v28c0,2.209-1.791,4-4,4H10c-2.209,0-4-1.791-4-4 V10z"/><path fill="#1976d2" d="M28.995 19c.828 0 1.1.266 1.306.538C30.758 20.14 31 21.195 31 22.59v2.832c0 1.402-.239 2.456-.688 3.045C30.105 28.737 29.836 29 29.014 29c-.837 0-1.11-.266-1.317-.539C27.241 27.861 27 26.811 27 25.422v-2.844c0-1.402.238-2.456.689-3.046C27.895 19.263 28.165 19 28.995 19M28.995 16c-1.59 0-2.819.57-3.69 1.711C24.434 18.852 24 20.475 24 22.578v2.844c0 2.09.436 3.707 1.309 4.855C26.183 31.426 27.418 32 29.014 32c1.583 0 2.809-.57 3.681-1.711C33.565 29.148 34 27.525 34 25.422V22.59c0-2.098-.438-3.719-1.31-4.867C31.816 16.574 30.584 16 28.995 16L28.995 16zM20 32h-3V20.082l-3 1.043v-2.75L19.667 16H20V32z"/></svg>