<svg fill="#000000" xmlns="http://www.w3.org/2000/svg" viewBox="0 0 24 24" width="50px" height="50px"><path d="M 12 0 C 10.894531 0 10 0.894531 10 2 C 10 2.300781 10.070313 2.585938 10.1875 2.84375 L 5.1875 10 C 5.125 9.996094 5.0625 10 5 10 C 3.894531 10 3 10.894531 3 12 C 3 12.519531 3.207031 12.988281 3.53125 13.34375 L 1.53125 20.0625 C 0.652344 20.273438 0 21.058594 0 22 C 0 23.105469 0.894531 24 2 24 C 3.105469 24 4 23.105469 4 22 C 4 21.480469 3.792969 21.011719 3.46875 20.65625 L 5 15.5 L 6.53125 20.65625 C 6.207031 21.011719 6 21.480469 6 22 C 6 23.105469 6.894531 24 8 24 C 9.105469 24 10 23.105469 10 22 C 10 21.058594 9.347656 20.273438 8.46875 20.0625 L 6.4375 13.375 C 6.78125 13.015625 7 12.535156 7 12 C 7 11.699219 6.929688 11.414063 6.8125 11.15625 L 11.8125 4 C 11.875 4.003906 11.9375 4 12 4 C 12.0625 4 12.125 4.003906 12.1875 4 L 17.1875 11.15625 C 17.070313 11.414063 17 11.699219 17 12 C 17 12.519531 17.207031 12.988281 17.53125 13.34375 L 15.53125 20.0625 C 14.652344 20.273438 14 21.058594 14 22 C 14 23.105469 14.894531 24 16 24 C 17.105469 24 18 23.105469 18 22 C 18 21.480469 17.792969 21.011719 17.46875 20.65625 L 19 15.46875 L 20.53125 20.65625 C 20.207031 21.011719 20 21.480469 20 22 C 20 23.105469 20.894531 24 22 24 C 23.105469 24 24 23.105469 24 22 C 24 21.058594 23.347656 20.273438 22.46875 20.0625 L 20.46875 13.34375 C 20.792969 12.988281 21 12.519531 21 12 C 21 10.894531 20.105469 10 19 10 C 18.9375 10 18.875 9.996094 18.8125 10 L 13.8125 2.84375 C 13.929688 2.585938 14 2.300781 14 2 C 14 0.894531 13.105469 0 12 0 Z"/></svg>