<svg xmlns="http://www.w3.org/2000/svg" viewBox="0 0 80 80" width="50px" height="50px"><path fill="#f78f8f" d="M13.132,66.161C6.271,59.12,2.5,49.85,2.5,40s3.771-19.12,10.632-26.161l10.811,10.811 c-3.974,4.152-6.156,9.583-6.156,15.351s2.183,11.198,6.156,15.351L13.132,66.161z"/><path fill="#c74343" d="M13.139,14.554l10.107,10.107c-3.852,4.198-5.961,9.606-5.961,15.339 c0,5.733,2.109,11.141,5.961,15.339L13.139,65.447C6.593,58.546,3,49.549,3,40C3,30.451,6.593,21.454,13.139,14.554 M13.13,13.13 C6.253,20.007,2,29.507,2,40c0,10.493,4.253,19.993,11.13,26.87l11.516-11.516c-3.93-3.929-6.36-9.358-6.36-15.354 c0-5.996,2.43-11.425,6.36-15.354L13.13,13.13L13.13,13.13z"/><path fill="#f78f8f" d="M56.058,55.351c3.974-4.152,6.156-9.583,6.156-15.351s-2.183-11.198-6.156-15.351l10.811-10.811 C73.729,20.88,77.5,30.15,77.5,40s-3.771,19.12-10.632,26.161L56.058,55.351z"/><path fill="#c74343" d="M66.861,14.554C73.407,21.454,77,30.451,77,40c0,9.549-3.593,18.546-10.139,25.446L56.753,55.339 c3.852-4.198,5.961-9.606,5.961-15.339c0-5.733-2.109-11.141-5.961-15.339L66.861,14.554 M66.87,13.13L55.354,24.646 c3.93,3.93,6.36,9.358,6.36,15.354c0,5.996-2.43,11.425-6.36,15.354L66.87,66.87C73.747,59.993,78,50.493,78,40 C78,29.507,73.747,20.007,66.87,13.13L66.87,13.13z"/><g><path fill="#f78f8f" d="M40,49.5c-5.238,0-9.5-4.262-9.5-9.5s4.262-9.5,9.5-9.5s9.5,4.262,9.5,9.5S45.238,49.5,40,49.5z"/><path fill="#c74343" d="M40,31c4.963,0,9,4.037,9,9s-4.037,9-9,9s-9-4.037-9-9S35.037,31,40,31 M40,30 c-5.523,0-10,4.477-10,10s4.477,10,10,10s10-4.477,10-10S45.523,30,40,30L40,30z"/></g><g><path fill="#f78f8f" d="M13.132,66.161C6.271,59.12,2.5,49.85,2.5,40c0-9.849,3.771-19.119,10.632-26.161L23.74,24.447 C19.712,28.654,17.5,34.157,17.5,40s2.212,11.346,6.24,15.553L13.132,66.161z"/><path fill="#c74343" d="M13.139,14.554l9.905,9.905C19.139,28.711,17,34.191,17,40s2.139,11.289,6.044,15.541l-9.905,9.905 C6.593,58.546,3,49.549,3,40C3,30.451,6.593,21.454,13.139,14.554 M13.13,13.13C6.253,20.007,2,29.507,2,40 s4.253,19.993,11.13,26.87l11.314-11.314C20.462,51.575,18,46.075,18,40c0-6.075,2.462-11.575,6.444-15.556L13.13,13.13 L13.13,13.13z"/><g><path fill="#f78f8f" d="M56.26,55.553c4.028-4.207,6.24-9.71,6.24-15.553s-2.212-11.346-6.24-15.553l10.608-10.608 C73.729,20.88,77.5,30.15,77.5,40s-3.771,19.12-10.632,26.161L56.26,55.553z"/><path fill="#c74343" d="M66.861,14.553C73.407,21.454,77,30.451,77,40s-3.593,18.546-10.139,25.446l-9.905-9.905 C60.861,51.289,63,45.809,63,40s-2.139-11.289-6.044-15.541L66.861,14.553 M66.87,13.13L55.556,24.444 C59.538,28.425,62,33.925,62,40c0,6.075-2.462,11.575-6.444,15.556L66.87,66.87C73.747,59.993,78,50.493,78,40 S73.747,20.007,66.87,13.13L66.87,13.13z"/></g></g></svg>