<svg fill="#e74c3c" xmlns="http://www.w3.org/2000/svg" viewBox="0 0 50 50" width="50px" height="50px"><path d="M 25 2 C 19.394531 2 14.328125 2.632813 10.578125 3.703125 C 8.703125 4.238281 7.160156 4.875 6.007813 5.664063 C 4.851563 6.449219 4 7.472656 4 8.742188 L 4 8.84375 L 4.132813 9.492188 L 7.011719 28.152344 C 7.070313 29.300781 7.777344 30.285156 8.757813 31.074219 C 8.984375 31.257813 9.234375 31.429688 9.5 31.601563 L 11.066406 42.757813 L 11.058594 42.617188 C 11.058594 43.632813 11.683594 44.476563 12.488281 45.109375 C 13.296875 45.738281 14.355469 46.238281 15.609375 46.660156 C 17.976563 47.453125 21.089844 47.910156 24.421875 47.960938 L 24.421875 48 L 25 48 L 25 47.960938 C 28.335938 47.910156 31.445313 47.453125 33.8125 46.660156 C 35.070313 46.238281 36.125 45.738281 36.933594 45.109375 C 37.703125 44.507813 38.296875 43.710938 38.355469 42.757813 L 39.875 31.96875 C 40.375 31.691406 40.84375 31.394531 41.246094 31.074219 C 42.222656 30.285156 42.929688 29.300781 42.988281 28.152344 L 42.988281 28.144531 L 45.867188 9.492188 L 46 8.84375 L 46 8.742188 C 46 7.472656 45.148438 6.449219 43.996094 5.664063 C 42.839844 4.875 41.296875 4.238281 39.421875 3.703125 C 35.671875 2.632813 30.605469 2 25 2 Z M 25 4 C 30.453125 4 35.386719 4.632813 38.875 5.625 C 40.617188 6.125 41.996094 6.722656 42.867188 7.3125 C 43.722656 7.898438 43.972656 8.378906 43.984375 8.71875 L 43.898438 9.140625 L 41 27.921875 L 41 28 C 41 28.390625 40.742188 28.910156 39.988281 29.515625 C 39.238281 30.121094 38.050781 30.738281 36.5625 31.261719 C 33.589844 32.308594 29.425781 33 25 33 C 20.574219 33 16.410156 32.308594 13.4375 31.261719 C 11.949219 30.738281 10.761719 30.121094 10.011719 29.515625 C 9.257813 28.910156 9 28.390625 9 28 L 9 27.921875 L 6.101563 9.140625 L 6.015625 8.71875 C 6.027344 8.378906 6.277344 7.898438 7.132813 7.3125 C 8.003906 6.722656 9.382813 6.125 11.125 5.625 C 14.613281 4.632813 19.546875 4 25 4 Z M 25 5 C 21.078125 5 17.519531 5.378906 14.867188 6.035156 C 13.539063 6.363281 12.441406 6.753906 11.59375 7.257813 C 10.746094 7.757813 10 8.476563 10 9.5 C 10 10.523438 10.746094 11.242188 11.59375 11.746094 C 12.441406 12.246094 13.539063 12.636719 14.867188 12.964844 C 17.519531 13.621094 21.078125 14 25 14 C 28.921875 14 32.480469 13.621094 35.132813 12.964844 C 36.460938 12.636719 37.558594 12.246094 38.40625 11.746094 C 39.253906 11.242188 40 10.523438 40 9.5 C 40 8.476563 39.253906 7.757813 38.40625 7.257813 C 37.558594 6.753906 36.460938 6.363281 35.132813 6.035156 C 32.480469 5.378906 28.921875 5 25 5 Z M 25 7 C 28.789063 7 32.234375 7.378906 34.652344 7.976563 C 35.863281 8.277344 36.816406 8.636719 37.386719 8.976563 C 37.957031 9.316406 38 9.53125 38 9.5 C 38 9.46875 37.957031 9.683594 37.386719 10.023438 C 36.816406 10.363281 35.863281 10.722656 34.652344 11.023438 C 32.234375 11.621094 28.789063 12 25 12 C 21.210938 12 17.765625 11.621094 15.347656 11.023438 C 14.136719 10.722656 13.183594 10.363281 12.613281 10.023438 C 12.042969 9.683594 12 9.46875 12 9.5 C 12 9.53125 12.042969 9.316406 12.613281 8.976563 C 13.183594 8.636719 14.136719 8.277344 15.347656 7.976563 C 17.765625 7.378906 21.210938 7 25 7 Z M 25 18 C 21.640625 18 19 20.640625 19 24 C 19 27.359375 21.640625 30 25 30 C 28.359375 30 31 27.359375 31 24 C 31 20.640625 28.359375 18 25 18 Z M 25 21 C 26.65625 21 28 22.34375 28 24 C 28 25.65625 26.65625 27 25 27 C 23.34375 27 22 25.65625 22 24 C 22 22.34375 23.34375 21 25 21 Z M 11.675781 32.726563 C 12.027344 32.871094 12.390625 33.015625 12.769531 33.148438 C 16.03125 34.296875 20.367188 35 25 35 C 29.632813 35 33.96875 34.296875 37.230469 33.148438 C 37.398438 33.089844 37.550781 33.023438 37.714844 32.960938 L 36.363281 42.546875 L 36.363281 42.617188 C 36.363281 42.804688 36.238281 43.113281 35.703125 43.53125 C 35.167969 43.949219 34.289063 44.390625 33.175781 44.765625 C 31.019531 45.488281 27.972656 45.953125 24.710938 45.980469 C 21.449219 45.953125 18.402344 45.488281 16.246094 44.765625 C 15.132813 44.390625 14.253906 43.949219 13.71875 43.53125 C 13.1875 43.113281 13.058594 42.804688 13.058594 42.617188 L 13.058594 42.546875 Z"/></svg>