<svg xmlns="http://www.w3.org/2000/svg" viewBox="0 0 40 40" width="50px" height="50px"><path fill="#98ccfd" d="M20,38.5C9.799,38.5,1.5,30.201,1.5,20S9.799,1.5,20,1.5S38.5,9.799,38.5,20S30.201,38.5,20,38.5z"/><path fill="#4788c7" d="M20,2c9.925,0,18,8.075,18,18s-8.075,18-18,18S2,29.925,2,20S10.075,2,20,2 M20,1 C9.507,1,1,9.507,1,20s8.507,19,19,19s19-8.507,19-19S30.493,1,20,1L20,1z"/><path fill="#fff" d="M18 10H22V22H18z"/><g><path fill="#fff" d="M20,26L20,26c1.105,0,2,0.895,2,2v0c0,1.105-0.895,2-2,2h0c-1.105,0-2-0.895-2-2v0 C18,26.895,18.895,26,20,26z"/></g></svg>