<svg fill="#e74c3c" xmlns="http://www.w3.org/2000/svg" viewBox="0 0 26 26" width="50px" height="50px"><path d="M 13 2 C 6.898438 2 2 6.898438 2 13 C 2 19.101563 6.898438 24 13 24 C 19.101563 24 24 19.101563 24 13 C 24 6.898438 19.101563 2 13 2 Z M 12.699219 17.601563 C 11.800781 17.601563 11.101563 17.5 10.601563 17.199219 L 10.601563 15.601563 C 11.199219 16 11.800781 16.199219 12.601563 16.199219 C 13 16.101563 14 16 14 15 C 14 14 12.699219 13.800781 12.199219 13.800781 L 11.398438 13.800781 L 11.398438 12.398438 L 12.101563 12.398438 C 13.199219 12.398438 13.699219 12 13.699219 11.300781 C 13.699219 10.601563 13.300781 10.300781 12.398438 10.300781 C 11.800781 10.300781 11.300781 10.5 10.800781 10.800781 L 10.800781 9.300781 C 11.398438 9 12.101563 8.898438 12.898438 8.898438 C 13.800781 8.898438 15.601563 9.199219 15.601563 11 C 15.601563 12.101563 15 12.800781 13.898438 13.101563 C 14.5 13.199219 15.800781 13.601563 15.800781 15.101563 C 15.898438 17.199219 13.699219 17.601563 12.699219 17.601563 Z"/></svg>