<?xml version="1.0"?><svg fill="#000000" xmlns="http://www.w3.org/2000/svg" viewBox="0 0 30 30" width="50px" height="50px">    <path d="M15,3C8.373,3,3,8.373,3,15c0,6.627,5.373,12,12,12s12-5.373,12-12C27,8.373,21.627,3,15,3z M14.952,20.185 c-2.201,0-3.691-1.217-3.78-3.076h1.976c0.062,0.834,0.766,1.36,1.825,1.36c1.032,0,1.75-0.581,1.75-1.422 c0-0.861-0.677-1.395-1.784-1.395h-1.224v-1.538h1.203c0.937,0,1.572-0.547,1.572-1.354c0-0.793-0.615-1.299-1.579-1.299 c-0.957,0-1.593,0.54-1.647,1.395h-1.907c0.068-1.866,1.456-3.042,3.609-3.042c2.023,0,3.479,1.107,3.479,2.659 c0,1.142-0.718,2.03-1.818,2.256v0.123c1.354,0.15,2.201,1.053,2.201,2.352C18.828,18.934,17.201,20.185,14.952,20.185z"/></svg>