<?xml version="1.0"?><svg fill="#e74c3c" xmlns="http://www.w3.org/2000/svg" viewBox="0 0 30 30" width="50px" height="50px">    <path d="M 15 3 C 8.373 3 3 8.373 3 15 C 3 21.627 8.373 27 15 27 C 21.627 27 27 21.627 27 15 C 27 8.373 21.627 3 15 3 z M 14.359375 10.068359 L 17.251953 10.068359 L 17.251953 16.494141 L 18.542969 16.494141 L 18.542969 18.208984 L 17.251953 18.208984 L 17.251953 19.931641 L 15.28125 19.931641 L 15.28125 18.208984 L 10.455078 18.208984 L 10.455078 16.384766 C 11.344078 14.709766 12.630375 12.672359 14.359375 10.068359 z M 15.220703 11.673828 C 14.318703 13.020828 13.436594 14.401312 12.308594 16.445312 L 12.308594 16.554688 L 15.330078 16.554688 L 15.330078 11.673828 L 15.220703 11.673828 z"/></svg>