<svg xmlns="http://www.w3.org/2000/svg" viewBox="0 0 48 48" width="50px" height="50px"><path fill="#2196f3" d="M44,24c0,11.044-8.956,20-20,20S4,35.044,4,24S12.956,4,24,4S44,12.956,44,24z"/><path fill="#fff" d="M30,32H19.316v-2.383l4.918-5.332c1.215-1.422,1.82-2.551,1.82-3.391c0-0.676-0.145-1.195-0.43-1.547c-0.289-0.355-0.703-0.531-1.254-0.531c-0.539,0-0.977,0.238-1.313,0.711s-0.504,1.063-0.504,1.77H19c0-0.969,0.234-1.859,0.703-2.68c0.473-0.82,1.121-1.461,1.957-1.926C22.492,16.23,23.426,16,24.457,16c1.652,0,2.93,0.395,3.824,1.184c0.895,0.785,1.34,1.914,1.34,3.391c0,0.621-0.113,1.227-0.336,1.813c-0.227,0.59-0.574,1.207-1.047,1.852c-0.473,0.648-1.234,1.512-2.289,2.598l-1.977,2.348H30V32z"/></svg>