<svg xmlns="http://www.w3.org/2000/svg" viewBox="0 0 48 48" width="50px" height="50px"><path fill="#2196f3" d="M44,24c0,11.044-8.956,20-20,20S4,35.044,4,24S12.956,4,24,4S44,12.956,44,24z"/><path fill="#fff" d="M19.305,24.074L20.266,16h9.203v2.816H23.23l-0.359,3.16c0.262-0.152,0.602-0.289,1.023-0.406c0.422-0.113,0.832-0.172,1.238-0.172c1.563,0,2.766,0.465,3.605,1.395c0.84,0.926,1.262,2.23,1.262,3.906c0,1.012-0.227,1.93-0.676,2.746c-0.453,0.82-1.086,1.453-1.898,1.895C26.609,31.777,25.648,32,24.539,32c-0.988,0-1.918-0.203-2.781-0.613c-0.863-0.406-1.543-0.965-2.035-1.676c-0.488-0.715-0.73-1.516-0.723-2.41h3.656c0.035,0.574,0.219,1.035,0.551,1.371c0.332,0.34,0.77,0.512,1.309,0.512c1.227,0,1.84-0.91,1.84-2.727c0-1.684-0.75-2.523-2.25-2.523c-0.852,0-1.484,0.277-1.902,0.824L19.305,24.074z"/></svg>