<svg fill="#e74c3c" xmlns="http://www.w3.org/2000/svg" viewBox="0 0 26 26" width="50px" height="50px"><path d="M 13 2 C 6.898438 2 2 6.898438 2 13 C 2 19.101563 6.898438 24 13 24 C 19.101563 24 24 19.101563 24 13 C 24 6.898438 19.101563 2 13 2 Z M 13.8125 8.8125 C 14.414063 8.8125 15.011719 8.898438 15.3125 9 L 15.3125 10.5 C 14.914063 10.300781 14.40625 10.09375 13.90625 10.09375 C 12.804688 10.09375 11.8125 10.988281 11.8125 12.6875 C 12.210938 12.085938 12.792969 11.90625 13.59375 11.90625 C 15.695313 11.90625 15.90625 14.101563 15.90625 14.5 C 15.90625 15.699219 15.101563 17.5 13 17.5 C 10.101563 17.5 10 14.394531 10 13.59375 C 10 9.394531 12.8125 8.8125 13.8125 8.8125 Z M 12.65625 13.3125 C 12.320313 13.375 11.8125 13.617188 11.8125 14.59375 C 11.8125 15.992188 12.804688 16.09375 12.90625 16.09375 C 13.40625 16.09375 14 15.6875 14 14.6875 C 14.101563 13.789063 13.707031 13.3125 12.90625 13.3125 C 12.855469 13.3125 12.769531 13.292969 12.65625 13.3125 Z"/></svg>