<svg xmlns="http://www.w3.org/2000/svg" viewBox="0 0 48 48" width="50px" height="50px"><path fill="#2196f3" d="M44,24c0,11.044-8.956,20-20,20S4,35.044,4,24S12.956,4,24,4S44,12.956,44,24z"/><path fill="#fff" d="M21.641,22.496h1.652c1.309,0,1.965-0.656,1.965-1.977c0-0.512-0.156-0.93-0.469-1.254s-0.754-0.488-1.32-0.488c-0.465,0-0.867,0.141-1.211,0.418s-0.516,0.621-0.516,1.035h-3.504c0-0.82,0.223-1.547,0.664-2.191c0.445-0.641,1.063-1.141,1.848-1.5S22.402,16,23.344,16c1.684,0,3.008,0.395,3.973,1.188c0.965,0.789,1.445,1.875,1.445,3.258c0,0.672-0.199,1.305-0.602,1.898c-0.395,0.594-0.977,1.078-1.738,1.449c0.805,0.297,1.434,0.754,1.891,1.359C28.77,25.766,29,26.516,29,27.414c0,1.391-0.52,2.5-1.559,3.336C26.398,31.582,25.035,32,23.344,32c-0.992,0-1.91-0.195-2.758-0.582c-0.852-0.391-1.492-0.93-1.93-1.613C18.219,29.113,18,28.332,18,27.457h3.523c0,0.477,0.188,0.891,0.563,1.238c0.375,0.352,0.836,0.523,1.383,0.523c0.617,0,1.109-0.176,1.477-0.527c0.367-0.352,0.551-0.805,0.551-1.352c0-0.785-0.188-1.34-0.57-1.668s-0.91-0.492-1.578-0.492h-1.707V22.496z"/></svg>