<svg fill="#e74c3c" xmlns="http://www.w3.org/2000/svg" viewBox="0 0 26 26" width="50px" height="50px"><path d="M 13 2 C 6.898438 2 2 6.898438 2 13 C 2 19.101563 6.898438 24 13 24 C 19.101563 24 24 19.101563 24 13 C 24 6.898438 19.101563 2 13 2 Z M 15.699219 15.898438 L 15.699219 17.398438 L 10.101563 17.398438 L 10.101563 16.800781 C 10.101563 14.101563 12.601563 13.898438 13.699219 12 C 13.898438 11.699219 14 10.398438 12.601563 10.398438 C 11.898438 10.398438 11.199219 10.699219 10.5 11.300781 L 10.5 9.601563 C 11.199219 9.101563 12.101563 8.898438 13 8.898438 C 13.800781 8.898438 15.699219 9.199219 15.699219 11.300781 C 15.699219 14 12.101563 14.898438 12.101563 15.898438 Z"/></svg>