<svg xmlns="http://www.w3.org/2000/svg" viewBox="0 0 48 48" width="50px" height="50px"><path fill="#2196f3" d="M44,24c0,11.044-8.956,20-20,20S4,35.044,4,24S12.956,4,24,4S44,12.956,44,24z"/><path fill="#fff" d="M25.297,25.77c-0.785,0.699-1.668,1.047-2.641,1.047c-1.43,0-2.563-0.477-3.398-1.43C18.418,24.43,18,23.152,18,21.559c0-0.996,0.234-1.922,0.703-2.777s1.129-1.535,1.977-2.031c0.848-0.5,1.785-0.75,2.809-0.75c1.039,0,1.98,0.262,2.82,0.773c0.84,0.52,1.496,1.25,1.965,2.191c0.469,0.945,0.711,2.031,0.727,3.266v1.379c0,1.719-0.344,3.207-1.023,4.469c-0.684,1.262-1.652,2.23-2.918,2.906C23.797,31.66,22.324,32,20.641,32h-0.227v-2.887l0.691-0.008C23.617,28.98,25.016,27.871,25.297,25.77z M23.641,24.219c0.793,0,1.363-0.336,1.711-1.016v-1.496c0-0.996-0.168-1.734-0.508-2.211s-0.801-0.719-1.375-0.719c-0.516,0-0.941,0.273-1.289,0.816c-0.348,0.539-0.52,1.195-0.52,1.965c0,0.813,0.176,1.457,0.531,1.941C22.543,23.98,23.027,24.219,23.641,24.219z"/></svg>