<svg fill="#e74c3c" xmlns="http://www.w3.org/2000/svg" viewBox="0 0 26 26" width="50px" height="50px"><path d="M 13 2 C 6.898438 2 2 6.898438 2 13 C 2 19.101563 6.898438 24 13 24 C 19.101563 24 24 19.101563 24 13 C 24 6.898438 19.101563 2 13 2 Z M 12.90625 8.90625 L 14.59375 8.90625 L 14.59375 14.1875 L 15.59375 14.1875 L 15.59375 15.5 L 14.59375 15.5 L 14.59375 17.1875 L 12.90625 17.1875 L 12.90625 15.5 L 9.3125 15.5 L 9.3125 14.09375 C 9.613281 13.695313 11.804688 11.207031 12.90625 8.90625 Z M 12.90625 11.1875 C 12.207031 12.585938 11.105469 13.894531 10.90625 14.09375 L 12.90625 14.09375 Z"/></svg>