<svg fill="#e74c3c" xmlns="http://www.w3.org/2000/svg" viewBox="0 0 26 26" width="50px" height="50px"><path d="M 13 2 C 6.898438 2 2 6.898438 2 13 C 2 19.101563 6.898438 24 13 24 C 19.101563 24 24 19.101563 24 13 C 24 6.898438 19.101563 2 13 2 Z M 13 9.09375 C 15.5 9.09375 15.6875 11.011719 15.6875 11.3125 C 15.6875 12.414063 14.710938 12.988281 14.3125 13.1875 C 14.613281 13.289063 16 13.804688 16 15.40625 C 16 17.40625 13.601563 17.6875 13 17.6875 C 12.601563 17.6875 10 17.613281 10 15.3125 C 10 13.8125 11.394531 13.289063 11.59375 13.1875 C 11.195313 12.988281 10.3125 12.414063 10.3125 11.3125 C 10.3125 10.710938 10.800781 9.09375 13 9.09375 Z M 13 10.3125 C 12.699219 10.3125 12 10.507813 12 11.40625 C 12 11.804688 12.300781 12.5 13 12.5 C 13.5 12.5 14 12.105469 14 11.40625 C 14 11.007813 13.699219 10.3125 13 10.3125 Z M 13 13.90625 C 12.199219 13.90625 11.8125 14.492188 11.8125 15.09375 C 11.8125 15.292969 11.800781 16.3125 13 16.3125 C 14.101563 16.3125 14.1875 15.292969 14.1875 15.09375 C 14.1875 14.992188 14.101563 13.90625 13 13.90625 Z"/></svg>