<svg xmlns="http://www.w3.org/2000/svg" viewBox="0 0 48 48" width="50px" height="50px"><path fill="#bbdefb" d="M44,24c0,11.044-8.956,20-20,20S4,35.044,4,24S12.956,4,24,4S44,12.956,44,24z"/><path fill="#1976d2" d="M27.621,16v2.832h-0.156c-1.324,0-2.41,0.324-3.266,0.969c-0.852,0.645-1.375,1.539-1.57,2.688c0.801-0.797,1.809-1.199,3.027-1.199c1.324,0,2.379,0.492,3.164,1.477S30,25.039,30,26.637c0,0.988-0.23,1.895-0.688,2.723c-0.461,0.828-1.102,1.477-1.926,1.941C26.562,31.77,25.648,32,24.645,32c-1.086,0-2.055-0.25-2.91-0.754c-0.855-0.5-1.52-1.219-2-2.152c-0.477-0.934-0.723-2.008-0.734-3.23v-1.441c0-1.602,0.34-3.043,1.016-4.32c0.676-1.281,1.641-2.285,2.895-3.012c1.258-0.727,2.648-1.09,4.18-1.09H27.621z M24.426,24.07c-0.469,0-0.859,0.109-1.18,0.328c-0.313,0.223-0.547,0.492-0.703,0.809v1.078c0,1.957,0.672,2.938,2.012,2.938c0.539,0,0.988-0.246,1.352-0.734c0.359-0.492,0.539-1.102,0.539-1.844c0-0.758-0.184-1.379-0.551-1.855C25.523,24.309,25.035,24.07,24.426,24.07z"/></svg>