<svg fill="#e74c3c" xmlns="http://www.w3.org/2000/svg" viewBox="0 0 26 26" width="50px" height="50px"><path d="M 13 2 C 6.898438 2 2 6.898438 2 13 C 2 19.101563 6.898438 24 13 24 C 19.101563 24 24 19.101563 24 13 C 24 6.898438 19.101563 2 13 2 Z M 12.5 17.699219 C 11.699219 17.699219 11 17.601563 10.5 17.300781 L 10.5 15.699219 C 11.101563 16.101563 11.699219 16.199219 12.300781 16.199219 C 12.800781 16.199219 13.898438 16 13.898438 14.898438 C 13.898438 14.101563 13.300781 13.699219 12.101563 13.699219 C 11.699219 13.699219 11.199219 13.699219 10.601563 13.800781 L 11 9.101563 L 15.398438 9.101563 L 15.398438 10.601563 L 12.398438 10.601563 L 12.300781 12.300781 C 12.601563 12.300781 12.898438 12.300781 13.101563 12.300781 C 14 12.300781 15.898438 12.699219 15.898438 14.800781 C 15.800781 17.199219 13.5 17.699219 12.5 17.699219 Z"/></svg>