<svg xmlns="http://www.w3.org/2000/svg" viewBox="0 0 48 48" width="50px" height="50px"><path fill="#bbdefb" d="M44,24c0,11.044-8.956,20-20,20S4,35.044,4,24S12.956,4,24,4S44,12.956,44,24z"/><path fill="#1976d2" d="M28.687,20.383c0,0.754-0.191,1.422-0.57,2c-0.379,0.574-0.898,1.039-1.563,1.387c0.75,0.367,1.344,0.863,1.785,1.492C28.781,25.895,29,26.641,29,27.5c0,1.391-0.484,2.488-1.453,3.293C26.57,31.598,25.234,32,23.531,32c-1.711,0-3.059-0.402-4.047-1.215C18.492,29.977,18,28.883,18,27.5c0-0.832,0.219-1.57,0.648-2.211c0.434-0.645,1.047-1.148,1.84-1.52c-0.672-0.348-1.195-0.813-1.578-1.391c-0.383-0.574-0.574-1.242-0.574-1.996c0-1.355,0.465-2.422,1.395-3.207C20.664,16.391,21.922,16,23.5,16c1.598,0,2.859,0.391,3.789,1.176C28.223,17.961,28.687,19.027,28.687,20.383z M25.34,27.215c0-0.645-0.168-1.137-0.504-1.484c-0.332-0.344-0.777-0.516-1.324-0.516c-0.551,0-0.992,0.172-1.332,0.516c-0.34,0.348-0.508,0.84-0.508,1.484c0,0.617,0.172,1.105,0.512,1.469c0.344,0.359,0.793,0.539,1.352,0.539c0.539,0,0.977-0.18,1.309-0.535C25.176,28.328,25.34,27.84,25.34,27.215z M23.5,18.777c-0.492,0-0.863,0.16-1.121,0.477s-0.383,0.758-0.383,1.32c0,0.559,0.129,1.004,0.391,1.348c0.258,0.344,0.641,0.512,1.145,0.512c0.5,0,0.871-0.168,1.121-0.512s0.375-0.789,0.375-1.348c0-0.555-0.129-0.992-0.387-1.313C24.387,18.938,24.004,18.777,23.5,18.777z"/></svg>