<svg xmlns="http://www.w3.org/2000/svg" viewBox="0 0 48 48" width="50px" height="50px"><path fill="#2196F3" d="M24 5A19 19 0 1 0 24 43A19 19 0 1 0 24 5Z"/><path fill="#FFF" d="M19.303,24.074L20.266,16h9.204v2.818h-6.241l-0.357,3.157c0.26-0.152,0.601-0.286,1.022-0.403c0.421-0.115,0.834-0.174,1.238-0.174c1.564,0,2.767,0.464,3.607,1.394C29.58,23.72,30,25.023,30,26.699c0,1.012-0.226,1.928-0.676,2.748c-0.451,0.82-1.084,1.451-1.898,1.892C26.61,31.779,25.648,32,24.538,32c-0.988,0-1.915-0.204-2.78-0.612c-0.865-0.407-1.543-0.968-2.034-1.679c-0.491-0.711-0.732-1.515-0.725-2.41h3.656c0.036,0.577,0.22,1.035,0.552,1.374c0.332,0.339,0.768,0.509,1.309,0.509c1.226,0,1.839-0.908,1.839-2.726c0-1.681-0.751-2.521-2.25-2.521c-0.851,0-1.485,0.274-1.903,0.822L19.303,24.074z"/></svg>