<svg fill="#e74c3c" xmlns="http://www.w3.org/2000/svg" viewBox="0 0 26 26" width="50px" height="50px"><path d="M 13 2 C 6.898438 2 2 6.898438 2 13 C 2 19.101563 6.898438 24 13 24 C 19.101563 24 24 19.101563 24 13 C 24 6.898438 19.101563 2 13 2 Z M 13.09375 8.90625 C 15.894531 8.90625 16 12.210938 16 12.8125 C 16 16.414063 14.207031 17.59375 12.40625 17.59375 C 11.707031 17.59375 11.09375 17.511719 10.59375 17.3125 L 10.59375 15.8125 C 10.992188 16.113281 11.585938 16.1875 12.1875 16.1875 C 13.988281 16.1875 14.1875 14.488281 14.1875 13.6875 C 13.789063 14.289063 13.300781 14.5 12.5 14.5 C 10.699219 14.5 10.09375 12.90625 10.09375 11.90625 C 10.09375 9.304688 12.292969 8.90625 13.09375 8.90625 Z M 13 10.40625 C 12.699219 10.40625 11.90625 10.613281 11.90625 11.8125 C 11.90625 12.414063 12.199219 13.1875 13 13.1875 C 13.398438 13.1875 14.09375 12.898438 14.09375 12 C 14.195313 11.300781 13.800781 10.40625 13 10.40625 Z"/></svg>