<svg fill="#000000" xmlns="http://www.w3.org/2000/svg" viewBox="0 0 50 50" width="50px" height="50px"><path d="M 25 2 C 12.318 2 2 12.317 2 25 C 2 37.683 12.318 48 25 48 C 26.063384 48 27.105208 47.909343 28.130859 47.767578 C 28.108709 47.866438 28.099609 47.978599 28.099609 48.099609 C 28.099609 49.099609 29 50 30 50 L 48.099609 50 C 49.099609 50 50 49.199609 50 48.099609 C 50 47.899609 50.000391 47.799609 49.900391 47.599609 L 44.246094 37.546875 C 46.609406 33.934292 48 29.630269 48 25 C 48 12.317 37.682 2 25 2 z M 25 7 C 25.552 7 26 7.447 26 8 L 26 22.183594 C 27.163 22.596594 28 23.696 28 25 C 28 26.657 26.657 28 25 28 C 24.538 28 24.105844 27.886219 23.714844 27.699219 L 17.707031 33.707031 C 17.512031 33.902031 17.256 34 17 34 C 16.744 34 16.487969 33.902031 16.292969 33.707031 C 15.901969 33.316031 15.901969 32.683969 16.292969 32.292969 L 22.300781 26.285156 C 22.113781 25.894156 22 25.462 22 25 C 22 23.696 22.837 22.596594 24 22.183594 L 24 8 C 24 7.447 24.448 7 25 7 z M 39 32.199219 C 39 32.299219 39.099609 32.400391 39.099609 32.400391 L 47.800781 48 L 30.300781 48 L 38.900391 32.400391 C 38.900391 32.400391 39 32.299219 39 32.199219 z M 38.199219 37 C 38.099219 37 38 37.099219 38 37.199219 L 38 42.800781 C 38 42.900781 38.099219 43 38.199219 43 L 39.800781 43 C 39.900781 43 40 42.900781 40 42.800781 L 40 37.199219 C 40 37.099219 39.900781 37 39.800781 37 L 38.199219 37 z M 38.199219 45 C 38.099219 45 38 45.099219 38 45.199219 L 38 46.800781 C 38 46.900781 38.099219 47 38.199219 47 L 39.800781 47 C 39.900781 47 40 46.900781 40 46.800781 L 40 45.199219 C 40 45.099219 39.900781 45 39.800781 45 L 38.199219 45 z"/></svg>