<svg xmlns="http://www.w3.org/2000/svg" viewBox="0 0 80 80" width="50px" height="50px"><path fill="#c2e8ff" d="M13,58.5h-0.3C5.8,58.3,0.5,52.8,0.5,46c0-5.1,3.1-9.7,7.8-11.6l0.4-0.1l-0.1-0.4 c-0.1-0.7-0.2-1.3-0.2-1.9c0-6.9,5.6-12.5,12.5-12.5c1.1,0,2.2,0.2,3.3,0.4l0.5,0.1l0.1-0.5c1.6-7.1,7.8-12.1,15.1-12.1 c5.6,0,10.7,3,13.5,7.9l0.2,0.3h0.3c0.8-0.1,1.4-0.1,2-0.1c7.8,0,14.4,5.9,15.4,13.6v0.3l0.2,0.1c4.9,2.8,7.9,7.9,7.9,13.5 c0,8.5-7,15.5-15.5,15.5H13z"/><path fill="#7496c4" d="M63.9,59H12.7C5.572,58.793,0,53.083,0,46c0-5.333,3.18-10.065,8.103-12.06l-0.035-0.229 C7.981,33.119,7.9,32.56,7.9,32c0-7.168,5.832-13,13-13c1.145,0,2.286,0.208,3.39,0.408l0.018,0.004l0.002-0.01 C25.969,12.036,32.379,6.9,39.9,6.9c5.808,0,11.018,3.047,13.934,8.151L53.9,15.1c0.77-0.1,1.395-0.1,2-0.1 c8.023,0,14.856,6.034,15.896,14.035l0.001,0.06C76.881,32.032,79.9,37.22,79.9,43C79.9,51.822,72.722,59,63.9,59z M20.9,20 c-6.617,0-12,5.383-12,12c0,0.487,0.073,0.987,0.157,1.567l0.128,0.611l0.122,0.484l-0.885,0.223C3.939,36.702,1,41.073,1,46 c0,6.538,5.146,11.81,11.715,12H63.9c8.271,0,15-6.729,15-15c0-5.445-2.859-10.329-7.648-13.065L70.8,29.71V29.1 C69.829,21.659,63.422,16,55.9,16c-0.601,0-1.169,0-1.938,0.096L53.333,16.1l-0.349-0.522C50.229,10.759,45.345,7.9,39.9,7.9 c-7.05,0-13.059,4.815-14.612,11.71l-0.195,0.978l-0.99-0.197C23.002,20.19,21.955,20,20.9,20z"/><path fill="#c2e8ff" d="M25,55h30v4H25V55z"/><path fill="#4e7ab5" d="M39,63l10,10l10-10H39z"/><path fill="#4e7ab5" d="M41,47L31,37L21,47H41z"/><rect width="4" height="30" x="29" y="43" fill="#4e7ab5"/><g><rect width="4" height="30" x="47" y="37" fill="#4e7ab5"/></g></svg>