<svg xmlns="http://www.w3.org/2000/svg" viewBox="0 0 80 80" width="50px" height="50px"><path fill="#c2e8ff" d="M12.956,59.5l-0.276-0.017C5.85,59.31,0.5,53.826,0.5,47c0-5.129,3.08-9.68,7.847-11.595l0.367-0.147	l-0.059-0.391C8.549,34.161,8.5,33.568,8.5,33c0-6.893,5.607-12.5,12.5-12.5c1.074,0,2.176,0.151,3.274,0.448l0.504,0.137	l0.115-0.509C26.498,13.466,32.71,8.5,40,8.5c5.575,0,10.746,3.025,13.497,7.895l0.166,0.293l0.334-0.043	C54.756,16.546,55.393,16.5,56,16.5c7.835,0,14.447,5.864,15.378,13.641l0.03,0.251l0.22,0.125C76.483,33.27,79.5,38.437,79.5,44	c0,8.547-6.953,15.5-15.5,15.5H12.956z"/><path fill="#7496c4" d="M40,9c5.395,0,10.4,2.928,13.062,7.64l0.331,0.586l0.668-0.086C54.8,17.045,55.416,17,56,17	c7.583,0,13.98,5.675,14.881,13.2l0.06,0.502l0.44,0.249C76.081,33.616,79,38.616,79,44c0,8.271-6.729,15-15,15H13.342l-0.65-0.017	C6.136,58.817,1,53.553,1,47c0-4.923,2.957-9.293,7.533-11.131l0.733-0.295l-0.117-0.782C9.047,34.113,9,33.544,9,33	c0-6.617,5.383-12,12-12c1.031,0,2.088,0.145,3.143,0.431l1.007,0.273l0.23-1.018C26.934,13.806,32.946,9,40,9 M40,8	c-7.62,0-13.985,5.332-15.595,12.466C23.318,20.171,22.18,20,21,20c-7.18,0-13,5.82-13,13c0,0.661,0.065,1.306,0.16,1.941	C3.38,36.862,0,41.532,0,47c0,7.067,5.643,12.805,12.667,12.983V60H64c8.837,0,16-7.163,16-16c0-5.971-3.278-11.169-8.126-13.918	C70.925,22.151,64.186,16,56,16c-0.702,0-1.389,0.061-2.068,0.148C51.187,11.288,45.981,8,40,8L40,8z"/><rect width="4" height="36.77" x="38" y="20.615" fill="#4e7ab5" transform="rotate(45.001 40 39)"/><rect width="36.77" height="4" x="21.615" y="37" fill="#4e7ab5" transform="rotate(45.001 40 39)"/></svg>