<svg fill="#e74c3c" xmlns="http://www.w3.org/2000/svg" viewBox="0 0 50 50" width="50px" height="50px"><path d="M 28.992188 9 C 23.927187 9 19.631328 11.6725 17.486328 16.0625 C 16.387328 15.3715 15.061625 15 13.640625 15 C 10.003625 15 7.2249531 17.765719 7.0019531 21.511719 C 2.5399531 23.020719 5.9211895e-16 26.561078 0 31.330078 C 0 36.662078 4.3379219 41 9.6699219 41 L 30.050781 41 C 30.556314 46.035422 34.837148 50 40 50 C 45.5 50 50 45.5 50 40 C 50 38.555011 49.68275 37.182922 49.125 35.939453 C 49.684675 34.775832 50 33.474035 50 32.099609 C 50 27.370609 46.386375 23.179125 41.984375 22.578125 C 41.995375 22.379125 42 22.188 42 22 C 42 14.71 36.286187 9 28.992188 9 z M 40 32 C 44.4 32 48 35.6 48 40 C 48 44.4 44.4 48 40 48 C 35.6 48 32 44.4 32 40 C 32 35.6 35.6 32 40 32 z M 39.199219 35 C 39.099219 35 39 35.099219 39 35.199219 L 39 40.800781 C 39 40.900781 39.099219 41 39.199219 41 L 40.800781 41 C 40.900781 41 41 40.900781 41 40.800781 L 41 35.199219 C 41 35.099219 40.900781 35 40.800781 35 L 39.199219 35 z M 39.199219 43 C 39.099219 43 39 43.099219 39 43.199219 L 39 44.800781 C 39 44.900781 39.099219 45 39.199219 45 L 40.800781 45 C 40.900781 45 41 44.900781 41 44.800781 L 41 43.199219 C 41 43.099219 40.900781 43 40.800781 43 L 39.199219 43 z"/></svg>