<svg xmlns="http://www.w3.org/2000/svg" viewBox="0 0 80 80" width="50px" height="50px"><path fill="#8bb7f0" d="M2.5 77.5L2.5 58 10.575 2.5 69.425 2.5 77.505 58.072 77.5 77.5z"/><path fill="#4e7ab5" d="M68.992,3L77,58.072V77H3V58.072L11.008,3H68.992 M69.857,2H10.143L2,58v20h76V58L69.857,2 L69.857,2z"/><path fill="#c2e8ff" d="M76.989 58L3.011 58 11 3 69 3z"/><path fill="#fff" d="M67 64A3 3 0 1 0 67 70 3 3 0 1 0 67 64zM21 64A3 3 0 1 0 21 70 3 3 0 1 0 21 64zM29 64A3 3 0 1 0 29 70 3 3 0 1 0 29 64zM13 64A3 3 0 1 0 13 70 3 3 0 1 0 13 64z"/><g><path fill="#fff" d="M23.672,45.5l-0.208-0.027C19.559,45.196,16.5,41.914,16.5,38c0-2.664,1.438-5.15,3.754-6.491 l0.25-0.144v-0.289C20.5,26.313,24.313,22.5,29,22.5c0.553,0,1.112,0.056,1.664,0.165l0.402,0.08l0.157-0.379 C32.7,18.803,36.146,16.5,40,16.5c3.794,0,7.218,2.253,8.724,5.74l0.146,0.336l0.364-0.037C49.485,22.513,49.741,22.5,50,22.5 c4.136,0,7.5,3.364,7.5,7.5l-0.026,0.644l0.39,0.1C61.182,31.593,63.5,34.577,63.5,38c0,4.136-3.364,7.5-7.5,7.5H23.672z"/><path fill="#7496c4" d="M40,17c3.594,0,6.838,2.134,8.264,5.438l0.29,0.672l0.729-0.074C49.52,23.012,49.761,23,50,23 c3.86,0,7,3.14,7,7c0,0.027-0.003,0.054-0.005,0.081c-0.003,0.048-0.006,0.097-0.008,0.145l-0.026,0.802l0.777,0.199 C60.837,32.021,63,34.806,63,38c0,3.86-3.14,7-7,7H23.871l-0.372-0.026C19.855,44.715,17,41.652,17,38 c0-2.486,1.343-4.807,3.505-6.058l0.505-0.292l-0.006-0.583C21.003,31.033,21.002,31,21,31l0,0c0-4.411,3.589-8,8-8 c0.519,0,1.046,0.052,1.567,0.156l0.804,0.16l0.314-0.758C33.085,19.182,36.348,17,40,17 M40,16c-4.167,0-7.736,2.551-9.239,6.175 C30.191,22.062,29.603,22,29,22c-4.971,0-9,4.029-9,9c0,0.026,0.004,0.051,0.004,0.077C17.613,32.46,16,35.039,16,38 c0,4.225,3.278,7.677,7.429,7.971V46H56c4.418,0,8-3.582,8-8c0-3.731-2.558-6.856-6.013-7.741C57.99,30.172,58,30.087,58,30 c0-4.418-3.582-8-8-8c-0.276,0-0.549,0.014-0.818,0.041C47.648,18.488,44.116,16,40,16L40,16z"/></g></svg>