<svg xmlns="http://www.w3.org/2000/svg" viewBox="0 0 128 128" width="50px" height="50px"><path fill="#fff" d="M99,54c11,0,20,9,20,20s-9,20-20,20H29C18,94,9,85,9,74s9-20,20-20h5v-5c0-16.6,13.4-30,30-30s30,13.4,30,30v5H99z"/><path fill="#ff5576" d="M106 82A20 20 0 1 0 106 122A20 20 0 1 0 106 82Z"/><path fill="#fff" d="M106 105c-1.7 0-3-1.3-3-3V92c0-1.7 1.3-3 3-3s3 1.3 3 3v10C109 103.7 107.7 105 106 105zM106 115c-.8 0-1.6-.3-2.1-.9-.1-.1-.3-.3-.4-.4-.1-.2-.2-.3-.3-.5-.1-.2-.1-.4-.2-.6 0-.2-.1-.4-.1-.6 0-.2 0-.4.1-.6 0-.2.1-.4.2-.6.1-.2.2-.3.3-.5.1-.2.2-.3.4-.5s.3-.3.4-.4c.2-.1.3-.2.5-.3.2-.1.4-.1.6-.2.4-.1.8-.1 1.2 0 .2 0 .4.1.6.2.2.1.4.2.5.3.2.1.3.2.4.4.6.6.9 1.3.9 2.1 0 .2 0 .4-.1.6 0 .2-.1.4-.2.6-.1.2-.2.4-.3.5-.1.2-.2.3-.4.4-.1.1-.3.3-.4.4-.2.1-.3.2-.5.3-.2.1-.4.1-.6.2C106.4 115 106.2 115 106 115z"/><g><path fill="#444b54" d="M76,97H29C16.3,97,6,86.7,6,74s10.3-23,23-23h2v-2c0-18.2,14.8-33,33-33s33,14.8,33,33v2h2c12.7,0,23,10.3,23,23c0,1.7-1.3,3-3,3s-3-1.3-3-3c0-9.4-7.6-17-17-17h-5c-1.7,0-3-1.3-3-3v-5c0-14.9-12.1-27-27-27S37,34.1,37,49v5c0,1.7-1.3,3-3,3h-5c-9.4,0-17,7.6-17,17s7.6,17,17,17h47c1.7,0,3,1.3,3,3S77.7,97,76,97z"/></g></svg>