<svg fill="#e74c3c" xmlns="http://www.w3.org/2000/svg" viewBox="0 0 50 50" width="50px" height="50px"><path d="M 25 20 C 22.242188 20 20 22.242188 20 25 C 20 27.757813 22.242188 30 25 30 C 27.757813 30 30 27.757813 30 25 C 30 22.242188 27.757813 20 25 20 Z M 2 24 L 2 26 L 18.09375 26 C 18.046875 25.671875 18 25.339844 18 25 C 18 24.660156 18.046875 24.328125 18.09375 24 Z M 31.90625 24 C 31.953125 24.328125 32 24.660156 32 25 C 32 25.339844 31.953125 25.671875 31.90625 26 L 48 26 L 48 24 Z"/></svg>