<svg xmlns="http://www.w3.org/2000/svg" viewBox="0 0 30 30" width="50px" height="50px"><path fill="#a3b7cc" d="M16,25h-5.1C7.6,25,5,22.4,5,19.1V5.5h1v13.6c0,2.7,2.2,4.9,4.9,4.9H16V25z"/><path fill="#8bb7f0" d="M5.5 2.5A3 3 0 1 0 5.5 8.5A3 3 0 1 0 5.5 2.5Z"/><path fill="#4e7ab5" d="M5.5,3C6.9,3,8,4.1,8,5.5S6.9,8,5.5,8S3,6.9,3,5.5S4.1,3,5.5,3 M5.5,2C3.6,2,2,3.6,2,5.5 S3.6,9,5.5,9S9,7.4,9,5.5S7.4,2,5.5,2L5.5,2z"/><path fill="#a3b7cc" d="M25,25.5h-1V10.9C24,8.2,21.8,6,19.1,6H13V5h6.1c3.2,0,5.9,2.6,5.9,5.9V25.5z"/><path fill="#8bb7f0" d="M24.5 21.5A3 3 0 1 0 24.5 27.5A3 3 0 1 0 24.5 21.5Z"/><path fill="#4e7ab5" d="M24.5,22c1.4,0,2.5,1.1,2.5,2.5S25.9,27,24.5,27S22,25.9,22,24.5S23.1,22,24.5,22 M24.5,21 c-1.9,0-3.5,1.6-3.5,3.5s1.6,3.5,3.5,3.5s3.5-1.6,3.5-3.5S26.4,21,24.5,21L24.5,21z"/><g><path fill="#e1ebf2" d="M11.8 5.5L14.5 3.1 14.5 7.9z"/><path fill="#a3b7cc" d="M14,4.2v2.6l-1.5-1.3L14,4.2 M15,2l-4,3.5L15,9V2L15,2z"/></g><g><path fill="#e1ebf2" d="M15.5 22.1L18.2 24.5 15.5 26.9z"/><path fill="#a3b7cc" d="M16,23.2l1.5,1.3L16,25.8V23.2 M15,21v7l4-3.5L15,21L15,21z"/></g></svg>