<svg xmlns="http://www.w3.org/2000/svg" viewBox="0 0 30 30" width="50px" height="50px"><path fill="#f2faff" d="M15,28.5C7.6,28.5,1.5,22.4,1.5,15S7.6,1.5,15,1.5S28.5,7.6,28.5,15S22.4,28.5,15,28.5z"/><path fill="#788b9c" d="M15,2c7.2,0,13,5.8,13,13s-5.8,13-13,13S2,22.2,2,15S7.8,2,15,2 M15,1C7.3,1,1,7.3,1,15 s6.3,14,14,14s14-6.3,14-14S22.7,1,15,1L15,1z"/><path fill="#f2faff" d="M15,26.5C8.7,26.5,3.5,21.3,3.5,15S8.7,3.5,15,3.5S26.5,8.7,26.5,15S21.3,26.5,15,26.5z"/><path fill="#788b9c" d="M15,4c6.1,0,11,4.9,11,11s-4.9,11-11,11S4,21.1,4,15S8.9,4,15,4 M15,3C8.4,3,3,8.4,3,15 s5.4,12,12,12s12-5.4,12-12S21.6,3,15,3L15,3z"/><path fill="#4e7ab5" d="M11.5 7.8H12.5V16.3H11.5z" transform="rotate(-45.001 12 12)"/><path fill="#8bb7f0" d="M15 13.5A1.5 1.5 0 1 0 15 16.5A1.5 1.5 0 1 0 15 13.5Z"/><path fill="#4e7ab5" d="M15,14c0.6,0,1,0.4,1,1s-0.4,1-1,1s-1-0.4-1-1S14.4,14,15,14 M15,13c-1.1,0-2,0.9-2,2s0.9,2,2,2 s2-0.9,2-2S16.1,13,15,13L15,13z"/><path fill="#788b9c" d="M12.4 3.5H13.4V5.7H12.4z" transform="rotate(-11.263 12.94 4.655)"/><path fill="#788b9c" d="M24.2 12.4H26.4V13.4H24.2z" transform="rotate(-11.275 25.338 12.944)"/><path fill="#788b9c" d="M3.5 16.6H5.7V17.6H3.5z" transform="rotate(-11.275 4.652 17.055)"/><path fill="#788b9c" d="M19.7 5.7H21.9V6.7H19.7z" transform="rotate(-56.262 20.86 6.23)"/><path fill="#788b9c" d="M23.3 19.7H24.3V21.9H23.3z" transform="rotate(-56.226 23.772 20.861)"/><path fill="#788b9c" d="M5.7 8H6.7V10.2H5.7z" transform="rotate(-56.226 6.23 9.14)"/><path fill="#788b9c" d="M8.6 5.1H9.6V7.3H8.6z" transform="rotate(-33.774 9.14 6.23)"/><path fill="#788b9c" d="M22.7 8.6H24.9V9.6H22.7z" transform="rotate(-33.816 23.77 9.14)"/><path fill="#788b9c" d="M5.1 20.4H7.3V21.4H5.1z" transform="rotate(-33.737 6.23 20.86)"/><path fill="#788b9c" d="M15.9 4.2H18.1V5.2H15.9z" transform="rotate(-78.732 17.058 4.656)"/><path fill="#788b9c" d="M24.8 15.9H25.8V18.1H24.8z" transform="rotate(-78.732 25.344 17.058)"/><path fill="#788b9c" d="M4.2 11.8H5.2V14H4.2z" transform="rotate(-78.737 4.656 12.943)"/></svg>