<svg xmlns="http://www.w3.org/2000/svg" viewBox="0 0 80 80" width="50px" height="50px"><path fill="#fff" d="M4.5 4.5H74.5V74.5H4.5z"/><path fill="#788b9c" d="M74,5v69H5V5H74 M75,4H4v71h71V4L75,4z"/><path fill="#c5d4de" d="M27.5 40.5H93.5V41.5H27.5z" transform="rotate(90 60.5 41)"/><path fill="#c5d4de" d="M13.5 40.5H79.5V41.5H13.5z" transform="rotate(90 46.5 41)"/><path fill="#c5d4de" d="M-0.5 40.5H65.5V41.5H-0.5z" transform="rotate(90 32.5 41)"/><path fill="#c5d4de" d="M8 32H74V33H8zM8 46H74V47H8zM8 60H74V61H8z"/><path fill="#c2e8ff" d="M4.5 4.5H18.5V18.5H4.5z"/><path fill="#7496c4" d="M18,5v13H5V5H18 M19,4H4v15h15V4L19,4z"/><path fill="#c2e8ff" d="M4.5 18.5H18.5V32.5H4.5z"/><path fill="#7496c4" d="M18,19v13H5V19H18 M19,18H4v15h15V18L19,18z"/><path fill="#c2e8ff" d="M4.5 32.5H18.5V46.5H4.5z"/><path fill="#7496c4" d="M18,33v13H5V33H18 M19,32H4v15h15V32L19,32z"/><path fill="#c2e8ff" d="M4.5 46.5H18.5V60.5H4.5z"/><path fill="#7496c4" d="M18,47v13H5V47H18 M19,46H4v15h15V46L19,46z"/><g><path fill="#c2e8ff" d="M4.5 60.5H18.5V74.5H4.5z"/><path fill="#7496c4" d="M18,61v13H5V61H18 M19,60H4v15h15V60L19,60z"/></g><g><path fill="#c2e8ff" d="M18.5 4.5H32.5V18.5H18.5z"/><path fill="#7496c4" d="M32,5v13H19V5H32 M33,4H18v15h15V4L33,4z"/></g><g><path fill="#c2e8ff" d="M32.5 4.5H46.5V18.5H32.5z"/><path fill="#7496c4" d="M46,5v13H33V5H46 M47,4H32v15h15V4L47,4z"/></g><g><path fill="#c2e8ff" d="M46.5 4.5H60.5V18.5H46.5z"/><path fill="#7496c4" d="M60,5v13H47V5H60 M61,4H46v15h15V4L61,4z"/></g><g><path fill="#c2e8ff" d="M60.5 4.5H74.5V18.5H60.5z"/><path fill="#7496c4" d="M74,5v13H61V5H74 M75,4H60v15h15V4L75,4z"/></g></svg>