<svg xmlns="http://www.w3.org/2000/svg" viewBox="0 0 64 64" width="50px" height="50px"><path fill="#ace3ff" d="M-4 30H32V42H-4z" transform="rotate(-90 14 36)"/><path fill="#faefde" d="M20 18H56V54H20z" transform="rotate(-90 38 36)"/><path fill="#85cbf8" d="M8 6H56V18H8z"/><path fill="#8d6c9f" d="M56,55H8c-0.552,0-1-0.447-1-1V6c0-0.553,0.448-1,1-1h48c0.552,0,1,0.447,1,1v48 C57,54.553,56.552,55,56,55z M9,53h46V7H9V53z"/><path fill="#8d6c9f" d="M8 17H56V19H8zM8 29H56V31H8zM8 41H56V43H8z"/><path fill="#8d6c9f" d="M19 5H21V55H19zM31 5H33V55H31zM43 5H45V55H43z"/><g><path fill="#8d6c9f" d="M9 61c-.552 0-1-.447-1-1v-2c0-.553.448-1 1-1s1 .447 1 1v2C10 60.553 9.552 61 9 61zM14 61c-.552 0-1-.447-1-1v-2c0-.553.448-1 1-1s1 .447 1 1v2C15 60.553 14.552 61 14 61zM19 61c-.552 0-1-.447-1-1v-2c0-.553.448-1 1-1s1 .447 1 1v2C20 60.553 19.552 61 19 61zM24 61c-.552 0-1-.447-1-1v-2c0-.553.448-1 1-1s1 .447 1 1v2C25 60.553 24.552 61 24 61zM29 61c-.552 0-1-.447-1-1v-2c0-.553.448-1 1-1s1 .447 1 1v2C30 60.553 29.552 61 29 61zM34 61c-.552 0-1-.447-1-1v-2c0-.553.448-1 1-1s1 .447 1 1v2C35 60.553 34.552 61 34 61zM39 61c-.552 0-1-.447-1-1v-2c0-.553.448-1 1-1s1 .447 1 1v2C40 60.553 39.552 61 39 61zM44 61c-.552 0-1-.447-1-1v-2c0-.553.448-1 1-1s1 .447 1 1v2C45 60.553 44.552 61 44 61zM49 61c-.552 0-1-.447-1-1v-2c0-.553.448-1 1-1s1 .447 1 1v2C50 60.553 49.552 61 49 61zM54 61c-.552 0-1-.447-1-1v-2c0-.553.448-1 1-1s1 .447 1 1v2C55 60.553 54.552 61 54 61z"/></g></svg>