<svg fill="#000000" xmlns="http://www.w3.org/2000/svg" viewBox="0 0 50 50" width="50px" height="50px"><path d="M 24.931641 0.001953125 C 24.853984 0.0074375 24.776922 0.022375 24.701172 0.046875 L 8.7011719 5.046875 C 8.2841719 5.176875 8 5.563 8 6 L 8 45 C 8 45.459 8.3138125 45.858703 8.7578125 45.970703 L 24.757812 49.970703 C 24.837813 49.990703 24.919 50 25 50 C 25.221 50 25.438234 49.926109 25.615234 49.787109 C 25.858234 49.598109 26 49.308 26 49 L 26 1 C 26 0.682 25.848797 0.38235938 25.591797 0.19335938 C 25.399047 0.051609375 25.164609 -0.0145 24.931641 0.001953125 z M 28 4 L 28 6 L 36 6 L 36 29.576172 C 36.436 29.029172 37.088 28.432203 38 28.158203 L 38 5 C 38 4.447 37.552 4 37 4 L 28 4 z M 22 23 C 22.552 23 23 23.672 23 24.5 C 23 25.328 22.552 26 22 26 C 21.448 26 21 25.328 21 24.5 C 21 23.672 21.448 23 22 23 z M 39 30 C 37.9 30 37.299609 31.2 37.099609 31.5 L 28.199219 47.599609 C 28.099219 47.699609 28.099609 47.899609 28.099609 48.099609 C 28.099609 49.099609 29 50 30 50 L 48.099609 50 C 49.099609 50 50 49.199609 50 48.099609 C 50 47.899609 50.000391 47.799609 49.900391 47.599609 L 40.900391 31.599609 C 40.700391 31.199609 40.1 30 39 30 z M 38.199219 37 L 39.800781 37 C 39.900781 37 40 37.099219 40 37.199219 L 40 42.800781 C 40 42.900781 39.900781 43 39.800781 43 L 38.199219 43 C 38.099219 43 38 42.900781 38 42.800781 L 38 37.199219 C 38 37.099219 38.099219 37 38.199219 37 z M 38.199219 45 L 39.800781 45 C 39.900781 45 40 45.099219 40 45.199219 L 40 46.800781 C 40 46.900781 39.900781 47 39.800781 47 L 38.199219 47 C 38.099219 47 38 46.900781 38 46.800781 L 38 45.199219 C 38 45.099219 38.099219 45 38.199219 45 z"/></svg>