<svg xmlns="http://www.w3.org/2000/svg" viewBox="0 0 512 512" width="50px" height="50px"><path fill="#E84849" d="M7.9,256C7.9,119,119,7.9,256,7.9C393,7.9,504.1,119,504.1,256c0,137-111.1,248.1-248.1,248.1C119,504.1,7.9,393,7.9,256z"/><path fill="#EDC92C" d="M436.4,357.5L266.2,83.2c-2-3.2-5.5-5.1-9.2-5.1c-3.8,0-7.3,1.9-9.2,5.1L77,358.2c-2.1,3.4-2.2,7.6-0.3,11c1.9,3.4,5.6,5.6,9.5,5.6h341.3h0c6,0,10.9-4.9,10.9-10.9C438.5,361.5,437.7,359.3,436.4,357.5z"/><path d="M244.3,261.4l-3.5-52.8c-0.7-10.3-1-17.7-1-22.2c0-6.1,1.6-10.9,4.8-14.3c3.2-3.4,7.4-5.1,12.6-5.1c6.3,0,10.6,2.2,12.7,6.6c2.1,4.4,3.2,10.7,3.2,18.9c0,4.9-0.3,9.8-0.8,14.8l-4.7,54.3c-0.5,6.5-1.6,11.4-3.3,14.9c-1.7,3.5-4.5,5.2-8.4,5.2c-4,0-6.7-1.7-8.3-5C246.1,273.3,245,268.2,244.3,261.4z M256.6,333.9c-4.5,0-8.4-1.4-11.7-4.3c-3.3-2.9-5-7-5-12.2c0-4.6,1.6-8.4,4.8-11.6c3.2-3.2,7.1-4.8,11.7-4.8c4.6,0,8.6,1.6,11.9,4.8c3.3,3.2,4.9,7.1,4.9,11.6c0,5.1-1.7,9.2-5,12.1C264.8,332.5,261,333.9,256.6,333.9z"/></svg>