<svg fill="#e74c3c" xmlns="http://www.w3.org/2000/svg" viewBox="0 0 32 32" width="50px" height="50px"><path d="M 7.2929688 10.292969 L 1.5859375 16 L 7.2929688 21.707031 L 8.7070312 20.292969 L 4.4140625 16 L 8.7070312 11.707031 L 7.2929688 10.292969 z M 24.707031 10.292969 L 23.292969 11.707031 L 27.585938 16 L 23.292969 20.292969 L 24.707031 21.707031 L 30.414062 16 L 24.707031 10.292969 z M 12 15 A 1 1 0 0 0 12 17 A 1 1 0 0 0 12 15 z M 16 15 A 1 1 0 0 0 16 17 A 1 1 0 0 0 16 15 z M 20 15 A 1 1 0 0 0 20 17 A 1 1 0 0 0 20 15 z"/></svg>