<svg fill="#e74c3c" xmlns="http://www.w3.org/2000/svg" viewBox="0 0 50 50" width="50px" height="50px"><path d="M 15 0 C 6.753906 0 0 6.753906 0 15 C 0 23.246094 6.753906 30 15 30 C 15.796875 30 16.628906 29.882813 17.34375 29.78125 C 17.726563 29.769531 18.066406 29.539063 18.222656 29.1875 C 18.378906 28.835938 18.320313 28.429688 18.074219 28.136719 C 17.824219 27.84375 17.433594 27.71875 17.0625 27.8125 C 16.375 27.910156 15.605469 28 15 28 C 7.84375 28 2 22.15625 2 15 C 2 7.84375 7.84375 2 15 2 C 20.855469 2 25.863281 5.90625 27.4375 11.28125 C 27.59375 11.816406 28.152344 12.125 28.6875 11.96875 C 29.222656 11.8125 29.53125 11.253906 29.375 10.71875 C 27.550781 4.496094 21.746094 0 15 0 Z M 14.90625 4.96875 C 14.863281 4.976563 14.820313 4.988281 14.78125 5 C 14.316406 5.105469 13.988281 5.523438 14 6 L 14 13.5 C 13.519531 13.824219 13.1875 14.378906 13.1875 15 C 13.1875 15.105469 13.234375 15.214844 13.25 15.3125 L 9.59375 19 C 9.296875 19.242188 9.160156 19.628906 9.246094 20.003906 C 9.332031 20.375 9.625 20.667969 9.996094 20.753906 C 10.371094 20.839844 10.757813 20.703125 11 20.40625 L 14.6875 16.75 C 14.785156 16.765625 14.894531 16.8125 15 16.8125 C 15.992188 16.8125 16.8125 15.992188 16.8125 15 C 16.8125 14.378906 16.480469 13.824219 16 13.5 L 16 6 C 16.011719 5.710938 15.894531 5.433594 15.6875 5.238281 C 15.476563 5.039063 15.191406 4.941406 14.90625 4.96875 Z M 29.5 14.25 C 29.15625 14.25 28.804688 14.378906 28.625 14.6875 L 9.125 48.5 C 8.945313 48.808594 8.945313 49.191406 9.125 49.5 C 9.304688 49.808594 9.644531 50 10 50 L 49 50 C 49.007813 50 49.023438 50 49.03125 50 C 49.585938 50 50.03125 49.554688 50.03125 49 C 50.03125 48.75 49.933594 48.519531 49.78125 48.34375 L 30.375 14.6875 C 30.195313 14.378906 29.84375 14.25 29.5 14.25 Z M 28.5 27 L 30.40625 27 C 30.605469 27 30.6875 27.113281 30.6875 27.3125 L 30.6875 38.6875 C 30.6875 38.886719 30.605469 39 30.40625 39 L 28.5 39 C 28.300781 39 28.1875 38.886719 28.1875 38.6875 L 28.1875 27.3125 C 28.1875 27.113281 28.300781 27 28.5 27 Z M 28.5 41.3125 L 30.5 41.3125 C 30.699219 41.3125 30.8125 41.394531 30.8125 41.59375 L 30.8125 43.6875 C 30.8125 43.886719 30.699219 44 30.5 44 L 28.5 44 C 28.300781 44 28.1875 43.886719 28.1875 43.6875 L 28.1875 41.59375 C 28.1875 41.394531 28.300781 41.3125 28.5 41.3125 Z"/></svg>