<svg xmlns="http://www.w3.org/2000/svg" viewBox="0 0 80 80" width="50px" height="50px"><path fill="#66798f" d="M13 13L70 13 70 67 13 67 13 68 71 68 71 12 13 12z"/><path fill="#8bb7f0" d="M62.5 30.5H78.5V47.5H62.5z"/><path fill="#4e7ab5" d="M78,31v16H63V31H78 M79,30H62v18h17V30L79,30z"/><path fill="#8bb7f0" d="M3.5 4.5H20.5V20.5H3.5z"/><path fill="#4e7ab5" d="M20,5v15H4V5H20 M21,4H3v17h18V4L21,4z"/><path fill="#8bb7f0" d="M35.5 4.5H52.5V20.5H35.5z"/><path fill="#4e7ab5" d="M52,5v15H36V5H52 M53,4H35v17h18V4L53,4z"/><g><path fill="#8bb7f0" d="M3.5 59.5H20.5V75.5H3.5z"/><path fill="#4e7ab5" d="M20,60v15H4V60H20 M21,59H3v17h18V59L21,59z"/></g><g><path fill="#8bb7f0" d="M35.5 59.5H52.5V75.5H35.5z"/><path fill="#4e7ab5" d="M52,60v15H36V60H52 M53,59H35v17h18V59L53,59z"/></g></svg>