<svg fill="#e74c3c" xmlns="http://www.w3.org/2000/svg" viewBox="0 0 50 50" width="50px" height="50px"><path d="M 25 2 C 12.309295 2 2 12.309295 2 25 C 2 37.690705 12.309295 48 25 48 C 37.690705 48 48 37.690705 48 25 C 48 12.309295 37.690705 2 25 2 z M 24 4.1171875 L 24 12.978516 L 16.84375 12.978516 C 17.221497 11.864277 17.648263 10.828475 18.117188 9.890625 C 19.762865 6.599269 21.848158 4.5956548 24 4.1171875 z M 26 4.1171875 C 28.151842 4.5956548 30.237135 6.599269 31.882812 9.890625 C 32.351737 10.828475 32.778503 11.864277 33.15625 12.978516 L 26 12.978516 L 26 4.1171875 z M 19.181641 4.8203125 C 18.103823 5.9520279 17.142748 7.3668464 16.328125 8.9960938 C 15.724465 10.203414 15.201215 11.546048 14.748047 12.978516 L 7.7890625 12.978516 C 10.50888 9.0892427 14.504559 6.163648 19.181641 4.8203125 z M 30.818359 4.8203125 C 35.495441 6.163648 39.49112 9.0892427 42.210938 12.978516 L 35.251953 12.978516 C 34.798785 11.546048 34.275535 10.203414 33.671875 8.9960938 C 32.857252 7.3668464 31.896177 5.9520279 30.818359 4.8203125 z M 6.5136719 15.021484 L 14.173828 15.021484 C 13.495237 17.759884 13.101146 20.795147 13.029297 24 L 4.03125 24 C 4.1831896 20.760748 5.0597208 17.712688 6.5136719 15.021484 z M 16.238281 15.021484 L 24 15.021484 L 24 24 L 15.03125 24 C 15.10789 20.762969 15.530429 17.710321 16.238281 15.021484 z M 26 15.021484 L 33.761719 15.021484 C 34.469571 17.710321 34.89211 20.762969 34.96875 24 L 26 24 L 26 15.021484 z M 35.826172 15.021484 L 43.486328 15.021484 C 44.94028 17.712688 45.81681 20.760748 45.96875 24 L 36.970703 24 C 36.898854 20.795147 36.504763 17.759884 35.826172 15.021484 z M 4.0410156 26 L 13.025391 26 C 13.095466 29.207802 13.495031 32.239286 14.173828 34.978516 L 6.515625 34.978516 C 5.061163 32.288374 4.1931714 29.239062 4.0410156 26 z M 15.025391 26 L 24 26 L 24 34.978516 L 16.238281 34.978516 C 15.530139 32.288576 15.100796 29.239588 15.025391 26 z M 26 26 L 34.974609 26 C 34.899204 29.239588 34.469861 32.288576 33.761719 34.978516 L 26 34.978516 L 26 26 z M 36.974609 26 L 45.958984 26 C 45.806829 29.239062 44.938837 32.288374 43.484375 34.978516 L 35.826172 34.978516 C 36.504969 32.239286 36.904534 29.207802 36.974609 26 z M 7.7949219 37.021484 L 14.748047 37.021484 C 15.201215 38.453952 15.724465 39.796586 16.328125 41.003906 C 17.142748 42.633154 18.103823 44.047972 19.181641 45.179688 C 14.506177 43.836817 10.515206 40.907316 7.7949219 37.021484 z M 16.84375 37.021484 L 24 37.021484 L 24 45.882812 C 21.848158 45.404345 19.762865 43.400731 18.117188 40.109375 C 17.648263 39.171525 17.221497 38.135723 16.84375 37.021484 z M 26 37.021484 L 33.15625 37.021484 C 32.778503 38.135723 32.351738 39.171525 31.882812 40.109375 C 30.237135 43.400731 28.151842 45.404345 26 45.882812 L 26 37.021484 z M 35.251953 37.021484 L 42.205078 37.021484 C 39.484794 40.907316 35.493823 43.836817 30.818359 45.179688 C 31.896177 44.047972 32.857252 42.633154 33.671875 41.003906 C 34.275535 39.796586 34.798785 38.453952 35.251953 37.021484 z"/></svg>