<svg xmlns="http://www.w3.org/2000/svg" viewBox="0 0 64 64" width="50px" height="50px"><path fill="#ced8ed" d="M5,9.057h54v10H5V9.057z"/><path fill="#c5e4fa" d="M5,19.057h54v36H5V19.057z"/><path fill="#e3f2ff" d="M39.762 55.057L59 35.818V19.135h-2.57L20.512 55.057H39.762zM8.898 55.057H14l36-35.922h-5.18L8.898 55.057zM5 53.256v.801h.48l34.918-34.922h-1.277L5 53.256z"/><path fill="#fff8f8" d="M13.5 24.057l1.238 2.262L17 27.557l-2.262 1.238L13.5 31.057l-1.238-2.262L10 27.557l2.262-1.238L13.5 24.057zM37.422 46.217l.848 1.57 1.57.848-1.57.863-.848 1.559-.863-1.559L35 48.635l1.559-.848L37.422 46.217zM23.648 24.756l.582 1.07 1.07.582-1.07.578-.582 1.07-.578-1.07L22 26.408l1.07-.582L23.648 24.756z"/><path fill="#8d6c9f" d="M55,18.057h-4c-0.551,0-1,0.449-1,1s0.449,1,1,1h4c0.551,0,1-0.449,1-1S55.551,18.057,55,18.057z"/><path fill="#8d6c9f" d="M57,8.057H7c-1.656,0-3,1.344-3,3v42c0,1.656,1.344,3,3,3h50c1.656,0,3-1.344,3-3v-42 C60,9.4,58.656,8.057,57,8.057z M58,53.057c0,0.551-0.449,1-1,1H7c-0.551,0-1-0.449-1-1v-33h41c0.551,0,1-0.449,1-1s-0.449-1-1-1H6 v-7c0-0.551,0.449-1,1-1h50c0.551,0,1,0.449,1,1V53.057z"/><path fill="#8d6c9f" d="M20 12.057c-.551 0-1 .449-1 1v2c0 .551.449 1 1 1s1-.449 1-1v-2C21 12.506 20.551 12.057 20 12.057zM15 12.057c-.551 0-1 .449-1 1v2c0 .551.449 1 1 1s1-.449 1-1v-2C16 12.506 15.551 12.057 15 12.057zM10 12.057c-.551 0-1 .449-1 1v2c0 .551.449 1 1 1s1-.449 1-1v-2C11 12.506 10.551 12.057 10 12.057zM35 12.057c-.551 0-1 .449-1 1v2c0 .551.449 1 1 1s1-.449 1-1v-2C36 12.506 35.551 12.057 35 12.057zM40 12.057c-.551 0-1 .449-1 1v2c0 .551.449 1 1 1s1-.449 1-1v-2C41 12.506 40.551 12.057 40 12.057zM45 12.057c-.551 0-1 .449-1 1v2c0 .551.449 1 1 1s1-.449 1-1v-2C46 12.506 45.551 12.057 45 12.057zM50 16.057c.551 0 1-.449 1-1v-2c0-.551-.449-1-1-1s-1 .449-1 1v2C49 15.607 49.449 16.057 50 16.057zM55 12.057c-.551 0-1 .449-1 1v2c0 .551.449 1 1 1s1-.449 1-1v-2C56 12.506 55.551 12.057 55 12.057zM25 12.057c-.551 0-1 .449-1 1v2c0 .551.449 1 1 1s1-.449 1-1v-2C26 12.506 25.551 12.057 25 12.057zM30 12.057c-.551 0-1 .449-1 1v2c0 .551.449 1 1 1s1-.449 1-1v-2C31 12.506 30.551 12.057 30 12.057z"/><path fill="#fff8f8" d="M15 37.057A2 2 0 1 0 15 41.057A2 2 0 1 0 15 37.057Z"/><path fill="#8d6c9f" d="M15,42.057c-1.654,0-3-1.346-3-3s1.346-3,3-3s3,1.346,3,3S16.654,42.057,15,42.057z M15,38.057 c-0.551,0-1,0.448-1,1s0.449,1,1,1s1-0.448,1-1S15.551,38.057,15,38.057z"/><path fill="#fff8f8" d="M26 41.057A2 2 0 1 0 26 45.057A2 2 0 1 0 26 41.057Z"/><path fill="#8d6c9f" d="M26,46.057c-1.654,0-3-1.346-3-3s1.346-3,3-3s3,1.346,3,3S27.654,46.057,26,46.057z M26,42.057 c-0.551,0-1,0.448-1,1s0.449,1,1,1s1-0.448,1-1S26.551,42.057,26,42.057z"/><path fill="#fff8f8" d="M36 32.057A2 2 0 1 0 36 36.057A2 2 0 1 0 36 32.057Z"/><path fill="#8d6c9f" d="M36,37.057c-1.654,0-3-1.346-3-3s1.346-3,3-3s3,1.346,3,3S37.654,37.057,36,37.057z M36,33.057 c-0.551,0-1,0.448-1,1s0.449,1,1,1s1-0.448,1-1S36.551,33.057,36,33.057z"/><path fill="#fff8f8" d="M46 38.057A2 2 0 1 0 46 42.057A2 2 0 1 0 46 38.057Z"/><path fill="#8d6c9f" d="M46 43.057c-1.654 0-3-1.346-3-3s1.346-3 3-3 3 1.346 3 3S47.654 43.057 46 43.057zM46 39.057c-.551 0-1 .448-1 1s.449 1 1 1 1-.448 1-1S46.551 39.057 46 39.057zM9 46.057c-.256 0-.512-.098-.707-.293-.391-.391-.391-1.023 0-1.414l4-4c.391-.391 1.023-.391 1.414 0s.391 1.023 0 1.414l-4 4C9.512 45.959 9.256 46.057 9 46.057zM23.805 43.259c-.114 0-.229-.02-.342-.061l-6.633-2.412c-.519-.188-.787-.762-.598-1.281.189-.52.766-.784 1.282-.598l6.633 2.412c.519.188.787.762.598 1.281C24.597 43.007 24.214 43.259 23.805 43.259zM27.778 42.457c-.274 0-.546-.111-.744-.331-.37-.41-.336-1.043.074-1.412l6.427-5.784c.411-.369 1.042-.336 1.412.074s.336 1.043-.074 1.412L28.446 42.2C28.255 42.372 28.016 42.457 27.778 42.457z"/><path fill="#8d6c9f" d="M43.814 39.745c-.175 0-.353-.046-.514-.143l-5.815-3.488c-.473-.284-.627-.898-.343-1.372.284-.475.897-.628 1.372-.343l5.815 3.488c.473.284.627.898.343 1.372C44.485 39.572 44.154 39.745 43.814 39.745zM47.708 39.349c-.256 0-.512-.098-.707-.293-.391-.391-.391-1.023 0-1.414l7.292-7.292c.391-.391 1.023-.391 1.414 0s.391 1.023 0 1.414l-7.292 7.292C48.22 39.251 47.964 39.349 47.708 39.349z"/></svg>