<svg xmlns="http://www.w3.org/2000/svg" viewBox="0 0 128 128" width="50px" height="50px"><path fill="#fff" d="M4 21H117V104H4z"/><path fill="#e9eef4" d="M113.9,71L100,71c-1.7,0-3-1.3-3-3V50c0-1.7,1.3-3,3-3l13.9,0c1.5,0,2.8-1,3.1-2.4c0.4-1.9-1.1-3.6-2.9-3.6h-14c-1.7,0-3-1.3-3-3l0-13.9c0-1.5-1-2.8-2.4-3.1C92.7,20.7,91,22.1,91,24v14c0,1.7-1.3,3-3,3H70c-1.7,0-3-1.3-3-3l0-13.9c0-1.5-1-2.8-2.4-3.1C62.7,20.7,61,22.1,61,24v14c0,1.7-1.3,3-3,3H40c-1.7,0-3-1.3-3-3l0-13.9c0-1.5-1-2.8-2.4-3.1C32.7,20.7,31,22.1,31,24v14c0,1.7-1.3,3-3,3L4.1,41c-1.5,0-2.8,1-3.1,2.4C0.7,45.3,2.1,47,4,47h24c1.7,0,3,1.3,3,3v18c0,1.7-1.3,3-3,3L4.1,71c-1.5,0-2.8,1-3.1,2.4C0.7,75.3,2.1,77,4,77h24c1.7,0,3,1.3,3,3l0,23.9c0,1.5,1,2.8,2.4,3.1c1.9,0.4,3.6-1.1,3.6-2.9V80c0-1.7,1.3-3,3-3h18c1.7,0,3,1.3,3,3l0,23.9c0,1.5,1,2.8,2.4,3.1c1.9,0.4,3.6-1.1,3.6-2.9V80c0-1.7,1.3-3,3-3h18c1.7,0,3,1.3,3,3l0,23.9c0,1.5,1,2.8,2.4,3.1c1.9,0.4,3.6-1.1,3.6-2.9V80c0-1.7,1.3-3,3-3h14c1.9,0,3.3-1.7,2.9-3.6C116.7,72,115.3,71,113.9,71z M37,68V50c0-1.7,1.3-3,3-3h18c1.7,0,3,1.3,3,3v18c0,1.7-1.3,3-3,3H40C38.3,71,37,69.7,37,68z M67,68V50c0-1.7,1.3-3,3-3h18c1.7,0,3,1.3,3,3v18c0,1.7-1.3,3-3,3H70C68.3,71,67,69.7,67,68z"/><path fill="#71c2ff" d="M94,37c-1.7,0-3-1.3-3-3V24c0-1.7,1.3-3,3-3s3,1.3,3,3v10C97,35.7,95.7,37,94,37z"/><path fill="#71c2ff" d="M64 77c-.8 0-1.6-.3-2.1-.9L34.8 49l-8.1 15.4c-.8 1.5-2.6 2-4.1 1.3-1.5-.8-2-2.6-1.3-4.1l10-19c.4-.8 1.3-1.4 2.2-1.6.9-.1 1.9.2 2.6.8l27.3 27.3L86.3 31c-1.2.1-2.4-.5-3-1.6-.7-1.5-.1-3.3 1.3-4l8-4c1.2-.6 2.6-.3 3.5.6.9 1 1.1 2.4.4 3.6l-30 50c-.5.8-1.3 1.3-2.2 1.4C64.2 77 64.1 77 64 77zM18 77c-.2 0-.4 0-.6-.1-.2 0-.4-.1-.6-.2-.2-.1-.3-.2-.5-.3-.2-.1-.3-.2-.4-.4C15.3 75.6 15 74.8 15 74c0-.2 0-.4.1-.6 0-.2.1-.4.2-.6.1-.2.2-.3.3-.5.1-.2.2-.3.4-.5s.3-.3.4-.4c.2-.1.3-.2.5-.3.2-.1.4-.1.6-.2.4-.1.8-.1 1.2 0 .2 0 .4.1.6.2.2.1.4.2.5.3.2.1.3.2.4.4.1.1.3.3.4.5.1.2.2.3.3.5.1.2.1.4.2.6 0 .2.1.4.1.6 0 .2 0 .4-.1.6 0 .2-.1.4-.2.6-.1.2-.2.4-.3.5-.1.2-.2.3-.4.4C19.6 76.7 18.8 77 18 77z"/><g><path fill="#444b54" d="M114,107H4c-1.7,0-3-1.3-3-3V24c0-1.7,1.3-3,3-3s3,1.3,3,3v77h107c1.7,0,3,1.3,3,3S115.7,107,114,107z"/></g></svg>