<svg xmlns="http://www.w3.org/2000/svg" viewBox="0 0 40 40" width="50px" height="50px"><path fill="#98ccfd" d="M36,12.5c0,0.276,0.224,0.5,0.5,0.5s0.5-0.224,0.5-0.5S36.776,12,36.5,12S36,12.224,36,12.5z M34,12.5c0,0.276,0.224,0.5,0.5,0.5s0.5-0.224,0.5-0.5S34.776,12,34.5,12S34,12.224,34,12.5z M32,12.5c0,0.276,0.224,0.5,0.5,0.5	s0.5-0.224,0.5-0.5S32.776,12,32.5,12S32,12.224,32,12.5z M30,12.5c0,0.276,0.224,0.5,0.5,0.5s0.5-0.224,0.5-0.5S30.776,12,30.5,12	S30,12.224,30,12.5z M28,12.5c0,0.276,0.224,0.5,0.5,0.5s0.5-0.224,0.5-0.5S28.776,12,28.5,12S28,12.224,28,12.5z M26,12.5	c0,0.276,0.224,0.5,0.5,0.5s0.5-0.224,0.5-0.5S26.776,12,26.5,12S26,12.224,26,12.5z M24,12.5c0,0.276,0.224,0.5,0.5,0.5	s0.5-0.224,0.5-0.5S24.776,12,24.5,12S24,12.224,24,12.5z M22,12.5c0,0.276,0.224,0.5,0.5,0.5s0.5-0.224,0.5-0.5S22.776,12,22.5,12	S22,12.224,22,12.5z M20,12.5c0,0.276,0.224,0.5,0.5,0.5s0.5-0.224,0.5-0.5S20.776,12,20.5,12S20,12.224,20,12.5z M18,12.5	c0,0.276,0.224,0.5,0.5,0.5s0.5-0.224,0.5-0.5S18.776,12,18.5,12S18,12.224,18,12.5z M16,12.5c0,0.276,0.224,0.5,0.5,0.5	s0.5-0.224,0.5-0.5S16.776,12,16.5,12S16,12.224,16,12.5z M14,12.5c0,0.276,0.224,0.5,0.5,0.5s0.5-0.224,0.5-0.5S14.776,12,14.5,12	S14,12.224,14,12.5z M12,12.5c0,0.276,0.224,0.5,0.5,0.5s0.5-0.224,0.5-0.5S12.776,12,12.5,12S12,12.224,12,12.5z M10,12.5	c0,0.276,0.224,0.5,0.5,0.5s0.5-0.224,0.5-0.5S10.776,12,10.5,12S10,12.224,10,12.5z M8,12.5C8,12.776,8.224,13,8.5,13	C8.776,13,9,12.776,9,12.5S8.776,12,8.5,12C8.224,12,8,12.224,8,12.5z M6,12.5C6,12.776,6.224,13,6.5,13S7,12.776,7,12.5	S6.776,12,6.5,12S6,12.224,6,12.5z M4,12.5C4,12.776,4.224,13,4.5,13C4.776,13,5,12.776,5,12.5S4.776,12,4.5,12	C4.224,12,4,12.224,4,12.5z M2,12.5C2,12.776,2.224,13,2.5,13S3,12.776,3,12.5S2.776,12,2.5,12S2,12.224,2,12.5z M38,26.5	c0,0.276,0.224,0.5,0.5,0.5s0.5-0.224,0.5-0.5S38.776,26,38.5,26S38,26.224,38,26.5z M36,26.5c0,0.276,0.224,0.5,0.5,0.5	s0.5-0.224,0.5-0.5S36.776,26,36.5,26S36,26.224,36,26.5z M34,26.5c0,0.276,0.224,0.5,0.5,0.5s0.5-0.224,0.5-0.5S34.776,26,34.5,26	S34,26.224,34,26.5z M32,26.5c0,0.276,0.224,0.5,0.5,0.5s0.5-0.224,0.5-0.5S32.776,26,32.5,26S32,26.224,32,26.5z M30,26.5	c0,0.276,0.224,0.5,0.5,0.5s0.5-0.224,0.5-0.5S30.776,26,30.5,26S30,26.224,30,26.5z M28,26.5c0,0.276,0.224,0.5,0.5,0.5	s0.5-0.224,0.5-0.5S28.776,26,28.5,26S28,26.224,28,26.5z M26,26.5c0,0.276,0.224,0.5,0.5,0.5s0.5-0.224,0.5-0.5S26.776,26,26.5,26	S26,26.224,26,26.5z M24,26.5c0,0.276,0.224,0.5,0.5,0.5s0.5-0.224,0.5-0.5S24.776,26,24.5,26S24,26.224,24,26.5z M22,26.5	c0,0.276,0.224,0.5,0.5,0.5s0.5-0.224,0.5-0.5S22.776,26,22.5,26S22,26.224,22,26.5z M20,26.5c0,0.276,0.224,0.5,0.5,0.5	s0.5-0.224,0.5-0.5S20.776,26,20.5,26S20,26.224,20,26.5z M18,26.5c0,0.276,0.224,0.5,0.5,0.5s0.5-0.224,0.5-0.5S18.776,26,18.5,26	S18,26.224,18,26.5z M16,26.5c0,0.276,0.224,0.5,0.5,0.5s0.5-0.224,0.5-0.5S16.776,26,16.5,26S16,26.224,16,26.5z M14,26.5	c0,0.276,0.224,0.5,0.5,0.5s0.5-0.224,0.5-0.5S14.776,26,14.5,26S14,26.224,14,26.5z M12,26.5c0,0.276,0.224,0.5,0.5,0.5	s0.5-0.224,0.5-0.5S12.776,26,12.5,26S12,26.224,12,26.5z M10,26.5c0,0.276,0.224,0.5,0.5,0.5s0.5-0.224,0.5-0.5S10.776,26,10.5,26	S10,26.224,10,26.5z M8,26.5C8,26.776,8.224,27,8.5,27C8.776,27,9,26.776,9,26.5S8.776,26,8.5,26C8.224,26,8,26.224,8,26.5z M6,26.5	C6,26.776,6.224,27,6.5,27S7,26.776,7,26.5S6.776,26,6.5,26S6,26.224,6,26.5z M4,26.5C4,26.776,4.224,27,4.5,27	C4.776,27,5,26.776,5,26.5S4.776,26,4.5,26C4.224,26,4,26.224,4,26.5z M2,26.5C2,26.776,2.224,27,2.5,27S3,26.776,3,26.5	S2.776,26,2.5,26S2,26.224,2,26.5z"/><polygon fill="#4788c7" points="7.207,27.207 5.793,25.793 16.264,15.322 24.889,21.411 35.837,10.463 37.251,11.877 25.111,24.017 16.486,17.928"/><path fill="#dff0fe" d="M16.5,14.5c-1.105,0-2,0.895-2,2s0.895,2,2,2s2-0.895,2-2S17.605,14.5,16.5,14.5z"/><path fill="#4788c7" d="M16.5,19c-1.378,0-2.5-1.121-2.5-2.5s1.122-2.5,2.5-2.5s2.5,1.121,2.5,2.5S17.878,19,16.5,19z M16.5,15c-0.827,0-1.5,0.673-1.5,1.5s0.673,1.5,1.5,1.5s1.5-0.673,1.5-1.5S17.327,15,16.5,15z"/><path fill="#dff0fe" d="M24.5,20.5c-1.105,0-2,0.895-2,2s0.895,2,2,2s2-0.895,2-2S25.605,20.5,24.5,20.5z"/><path fill="#4788c7" d="M24.5,25c-1.378,0-2.5-1.121-2.5-2.5s1.122-2.5,2.5-2.5s2.5,1.121,2.5,2.5S25.878,25,24.5,25z M24.5,21c-0.827,0-1.5,0.673-1.5,1.5s0.673,1.5,1.5,1.5s1.5-0.673,1.5-1.5S25.327,21,24.5,21z"/><path fill="#dff0fe" d="M6.5,24.5c-1.105,0-2,0.895-2,2s0.895,2,2,2s2-0.895,2-2S7.605,24.5,6.5,24.5z"/><path fill="#4788c7" d="M6.5,29C5.122,29,4,27.879,4,26.5S5.122,24,6.5,24S9,25.121,9,26.5S7.878,29,6.5,29z M6.5,25 C5.673,25,5,25.673,5,26.5S5.673,28,6.5,28S8,27.327,8,26.5S7.327,25,6.5,25z"/><g><path fill="#dff0fe" d="M36.5,9.5c-1.105,0-2,0.895-2,2s0.895,2,2,2s2-0.895,2-2S37.605,9.5,36.5,9.5z"/><path fill="#4788c7" d="M36.5,14c-1.378,0-2.5-1.121-2.5-2.5S35.122,9,36.5,9s2.5,1.121,2.5,2.5S37.878,14,36.5,14z M36.5,10c-0.827,0-1.5,0.673-1.5,1.5s0.673,1.5,1.5,1.5s1.5-0.673,1.5-1.5S37.327,10,36.5,10z"/></g><g><path fill="#4788c7" d="M38.5,39H1V1.5C1,1.224,1.224,1,1.5,1S2,1.224,2,1.5V38h36.5c0.276,0,0.5,0.224,0.5,0.5 S38.776,39,38.5,39z"/></g></svg>