<svg xmlns="http://www.w3.org/2000/svg" viewBox="0 0 80 80" width="50px" height="50px"><path fill="#b0c1d4" d="M8,77.5c-3.033,0-5.5-2.467-5.5-5.5V56l7.994-49.259c0.346-2.422,2.443-4.241,4.88-4.241h49.252 c2.437,0,4.535,1.819,4.879,4.231l8.001,49.349L77.5,72c0,3.033-2.467,5.5-5.5,5.5H8z"/><path fill="#66798f" d="M64.626,3c2.19,0,4.074,1.635,4.387,3.821L77,56.081V72c0,2.757-2.243,5-5,5H8 c-2.757,0-5-2.243-5-5V56.081l7.99-49.278C11.3,4.635,13.184,3,15.374,3H64.626 M64.626,2H15.374C12.672,2,10.382,3.986,10,6.661 L2,56v16c0,3.314,2.686,6,6,6h64c3.314,0,6-2.686,6-6V56L70,6.661C69.618,3.986,67.328,2,64.626,2L64.626,2z"/><path fill="#fff" d="M66 62A4 4 0 1 0 66 70A4 4 0 1 0 66 62Z"/><path fill="#e1ebf2" d="M15.374,3c-2.19,0-4.074,1.635-4.384,3.802L3.013,56h73.974L69.013,6.821	C68.7,4.635,66.816,3,64.626,3H15.374z"/><path fill="#b0c1d4" d="M40,45.5c-12.958,0-23.5-6.953-23.5-15.5S27.042,14.5,40,14.5S63.5,21.453,63.5,30 S52.958,45.5,40,45.5z"/><path fill="#66798f" d="M40,15c12.682,0,23,6.729,23,15S52.682,45,40,45s-23-6.729-23-15S27.318,15,40,15 M40,14 c-13.255,0-24,7.163-24,16s10.745,16,24,16s24-7.163,24-16S53.255,14,40,14L40,14z"/><path fill="#66798f" d="M40 28A6 2 0 1 0 40 32A6 2 0 1 0 40 28Z"/></svg>