<?xml version="1.0"?><svg fill="#000000" xmlns="http://www.w3.org/2000/svg" viewBox="0 0 100 100" width="50px" height="50px">    <path d="M 33.455078 18.992188 C 28.775078 18.992188 24.96875 22.799516 24.96875 27.478516 L 24.96875 72.503906 C 24.96875 77.183906 28.776078 80.990234 33.455078 80.990234 L 67.480469 80.990234 C 72.160469 80.990234 75.96875 77.182906 75.96875 72.503906 L 75.96875 27.478516 C 75.96975 22.799516 72.160469 18.992188 67.480469 18.992188 L 33.455078 18.992188 z M 33.455078 20.992188 L 67.480469 20.992188 C 71.057469 20.992188 73.96875 23.901516 73.96875 27.478516 L 73.96875 72.505859 C 73.96875 76.082859 71.059422 78.992188 67.482422 78.992188 L 33.455078 78.992188 C 29.878078 78.992188 26.96875 76.082859 26.96875 72.505859 L 26.96875 27.478516 C 26.96875 23.901516 29.878078 20.992187 33.455078 20.992188 z M 32.96875 23.992188 C 31.86575 23.992188 30.96875 24.889187 30.96875 25.992188 C 30.96875 27.095188 31.86475 27.992188 32.96875 27.992188 C 34.07175 27.992188 34.96875 27.095188 34.96875 25.992188 C 34.96875 24.889187 34.07175 23.992188 32.96875 23.992188 z M 67.96875 23.992188 C 66.86575 23.992188 65.96875 24.889187 65.96875 25.992188 C 65.96875 27.095188 66.86575 27.992188 67.96875 27.992188 C 69.07175 27.992188 69.96875 27.095188 69.96875 25.992188 C 69.96875 24.889187 69.07175 23.992188 67.96875 23.992188 z M 32.96875 24.992188 C 33.51975 24.992188 33.96875 25.441187 33.96875 25.992188 C 33.96875 26.543187 33.51975 26.992187 32.96875 26.992188 C 32.41775 26.992188 31.96875 26.543188 31.96875 25.992188 C 31.96875 25.441188 32.41675 24.992188 32.96875 24.992188 z M 67.96875 24.992188 C 68.51975 24.992188 68.96875 25.441187 68.96875 25.992188 C 68.96875 26.543187 68.51975 26.992187 67.96875 26.992188 C 67.41775 26.992188 66.96875 26.543188 66.96875 25.992188 C 66.96875 25.441188 67.41775 24.992188 67.96875 24.992188 z M 50.46875 26.992188 C 41.37075 26.992188 33.96875 34.394188 33.96875 43.492188 C 33.96875 49.315188 37.012078 54.425328 41.580078 57.361328 L 37.341797 59.84375 L 33.904297 54.230469 C 33.813297 54.082469 33.652516 53.992187 33.478516 53.992188 L 31.46875 53.992188 C 31.19275 53.992188 30.96875 54.216187 30.96875 54.492188 L 30.96875 66.693359 C 30.96875 66.872359 31.06375 67.037953 31.21875 67.126953 L 37.792969 70.925781 C 37.868969 70.969781 37.954969 70.992188 38.042969 70.992188 L 44.46875 70.992188 C 44.74475 70.992188 44.96875 70.768188 44.96875 70.492188 C 44.96875 70.216188 44.74475 69.992188 44.46875 69.992188 L 38.177734 69.992188 L 31.96875 66.404297 L 31.96875 54.992188 L 33.197266 54.992188 L 36.480469 60.347656 L 36.294922 60.457031 C 35.691922 60.864031 35.356609 61.618984 35.349609 62.583984 C 35.343609 63.399984 35.577609 64.240078 35.974609 64.830078 C 36.371609 65.420078 37.063266 65.950953 37.822266 66.251953 C 38.235266 66.414953 38.633906 66.497094 39.003906 66.496094 C 39.438906 66.496094 39.835781 66.383297 40.175781 66.154297 L 41.765625 64.927734 L 48.970703 64.988281 L 48.970703 69.992188 L 48.470703 69.992188 C 48.194703 69.992188 47.970703 70.216187 47.970703 70.492188 C 47.970703 70.768187 48.194703 70.992188 48.470703 70.992188 L 49.470703 70.992188 C 49.746703 70.992188 49.970703 70.768188 49.970703 70.492188 L 49.970703 64.492188 C 49.970703 64.218187 49.749609 63.994188 49.474609 63.992188 L 43.046875 63.9375 L 48.363281 59.833984 C 49.052281 59.925984 49.75175 59.992187 50.46875 59.992188 C 59.56675 59.992188 66.96875 52.590188 66.96875 43.492188 C 66.96875 34.394188 59.56675 26.992188 50.46875 26.992188 z M 50.46875 27.992188 C 59.01575 27.992188 65.96875 34.945188 65.96875 43.492188 C 65.96875 52.039187 59.01575 58.992188 50.46875 58.992188 C 50.14675 58.992188 49.832625 58.963359 49.515625 58.943359 L 58.412109 52.074219 C 58.969109 51.699219 59.360078 51.347469 59.455078 50.855469 C 59.550078 50.363469 59.320313 49.892938 58.945312 49.335938 C 58.570312 48.778937 58.218563 48.388969 57.726562 48.292969 C 57.236562 48.196969 56.762422 48.427156 56.232422 48.785156 L 42.544922 56.796875 C 38.015922 54.088875 34.96875 49.144187 34.96875 43.492188 C 34.96875 34.945187 41.92175 27.992187 50.46875 27.992188 z M 50.46875 40.992188 C 49.09075 40.992188 47.96875 42.114187 47.96875 43.492188 C 47.96875 44.870188 49.09075 45.992188 50.46875 45.992188 C 51.84675 45.992188 52.96875 44.870187 52.96875 43.492188 C 52.96875 42.114187 51.84675 40.992188 50.46875 40.992188 z M 50.46875 41.992188 C 51.29575 41.992188 51.96875 42.665188 51.96875 43.492188 C 51.96875 44.319187 51.29575 44.992188 50.46875 44.992188 C 49.64175 44.992188 48.96875 44.319187 48.96875 43.492188 C 48.96875 42.665188 49.64175 41.992188 50.46875 41.992188 z M 57.501953 49.271484 C 57.513953 49.271484 57.524156 49.271437 57.535156 49.273438 C 57.659156 49.297438 57.855188 49.506531 58.117188 49.894531 C 58.641188 50.671531 58.631125 50.722625 57.828125 51.265625 L 39.589844 65.34375 C 39.273844 65.55675 38.760453 65.548266 38.189453 65.322266 C 37.627453 65.100266 37.083734 64.687484 36.802734 64.271484 C 36.521734 63.855484 36.343656 63.19775 36.347656 62.59375 C 36.351656 61.97675 36.534219 61.501687 36.824219 61.304688 L 56.765625 49.632812 C 57.120625 49.392812 57.367953 49.271484 57.501953 49.271484 z M 57.46875 63.992188 C 57.19275 63.992188 56.96875 64.216188 56.96875 64.492188 C 56.96875 64.768187 57.19275 64.992188 57.46875 64.992188 L 58.46875 64.992188 C 58.74475 64.992188 58.96875 64.768187 58.96875 64.492188 C 58.96875 64.216188 58.74475 63.992188 58.46875 63.992188 L 57.46875 63.992188 z M 60.46875 63.992188 C 60.19275 63.992188 59.96875 64.216187 59.96875 64.492188 C 59.96875 64.768187 60.19275 64.992188 60.46875 64.992188 L 64.96875 64.992188 L 64.96875 67.267578 L 61.902344 69.992188 L 54.96875 69.992188 L 54.96875 65.492188 C 54.96875 65.216188 54.74475 64.992188 54.46875 64.992188 C 54.19275 64.992188 53.96875 65.216187 53.96875 65.492188 L 53.96875 70.492188 C 53.96875 70.768187 54.19275 70.992188 54.46875 70.992188 L 62.09375 70.992188 C 62.21675 70.992188 62.334781 70.946234 62.425781 70.865234 L 65.800781 67.865234 C 65.907781 67.770234 65.96875 67.636188 65.96875 67.492188 L 65.96875 64.492188 C 65.96875 64.216188 65.74475 63.992188 65.46875 63.992188 L 60.46875 63.992188 z M 45.912109 69.992188 C 45.636109 69.992188 45.412109 70.216187 45.412109 70.492188 C 45.412109 70.768187 45.636109 70.992188 45.912109 70.992188 L 46.912109 70.992188 C 47.188109 70.992188 47.412109 70.768188 47.412109 70.492188 C 47.412109 70.216188 47.189109 69.992188 46.912109 69.992188 L 45.912109 69.992188 z M 32.96875 70.992188 C 31.86575 70.992188 30.96875 71.889187 30.96875 72.992188 C 30.96875 74.095187 31.86575 74.992188 32.96875 74.992188 C 34.07175 74.992188 34.96875 74.095188 34.96875 72.992188 C 34.96875 71.889188 34.07175 70.992188 32.96875 70.992188 z M 67.96875 70.992188 C 66.86575 70.992188 65.96875 71.889187 65.96875 72.992188 C 65.96875 74.095187 66.86575 74.992188 67.96875 74.992188 C 69.07175 74.992188 69.96875 74.095188 69.96875 72.992188 C 69.96875 71.889188 69.07175 70.992188 67.96875 70.992188 z M 32.96875 71.992188 C 33.51975 71.992188 33.96875 72.441188 33.96875 72.992188 C 33.96875 73.543188 33.51975 73.992188 32.96875 73.992188 C 32.41775 73.992188 31.96875 73.543187 31.96875 72.992188 C 31.96875 72.441187 32.41775 71.992188 32.96875 71.992188 z M 67.96875 71.992188 C 68.51975 71.992188 68.96875 72.441188 68.96875 72.992188 C 68.96875 73.543188 68.51975 73.992188 67.96875 73.992188 C 67.41775 73.992188 66.96875 73.543187 66.96875 72.992188 C 66.96875 72.441187 67.41775 71.992188 67.96875 71.992188 z"/></svg>