<svg xmlns="http://www.w3.org/2000/svg" viewBox="0 0 80 80" width="50px" height="50px"><path fill="#f78f8f" d="M40,77.5c-1.318,0-2.558-0.514-3.49-1.446L3.946,43.49C3.014,42.558,2.5,41.318,2.5,40 s0.514-2.558,1.446-3.49L36.51,3.946C37.442,3.014,38.682,2.5,40,2.5s2.558,0.514,3.49,1.446L76.054,36.51 C76.986,37.442,77.5,38.682,77.5,40s-0.514,2.558-1.446,3.49L43.49,76.054C42.558,76.986,41.318,77.5,40,77.5z"/><path fill="#c74343" d="M40,3c1.185,0,2.299,0.461,3.137,1.299l32.564,32.564c1.73,1.73,1.73,4.544,0,6.274L43.137,75.701 C42.299,76.539,41.185,77,40,77s-2.299-0.461-3.137-1.299L4.299,43.137c-1.73-1.73-1.73-4.544,0-6.274L36.863,4.299 C37.701,3.461,38.815,3,40,3 M40,2c-1.391,0-2.783,0.531-3.844,1.592L3.592,36.156c-2.123,2.123-2.123,5.565,0,7.688 l32.564,32.564C37.217,77.469,38.609,78,40,78s2.783-0.531,3.844-1.592l32.564-32.564c2.123-2.123,2.123-5.565,0-7.688 L43.844,3.592C42.783,2.531,41.391,2,40,2L40,2z"/><path fill="#fff" d="M40 51A3 3 0 1 0 40 57 3 3 0 1 0 40 51zM38 20H42V46H38z"/></svg>