<svg xmlns="http://www.w3.org/2000/svg" viewBox="0 0 100 100" width="50px" height="50px"><path fill="#f27e97" d="M70,81.961H31c-6.6,0-12-5.4-12-12v-39c0-6.6,5.4-12,12-12h39c6.6,0,12,5.4,12,12v39C82,76.561,76.6,81.961,70,81.961z"/><path fill="#1f212b" d="M70,82.961H31c-7.168,0-13-5.832-13-13v-39c0-7.168,5.832-13,13-13h39c7.168,0,13,5.832,13,13v39C83,77.129,77.168,82.961,70,82.961z M31,19.961c-6.065,0-11,4.935-11,11v39c0,6.065,4.935,11,11,11h39c6.065,0,11-4.935,11-11v-39c0-6.065-4.935-11-11-11H31z"/><path fill="#f27e97" d="M77.5,48.461v18.663c0,5.685-4.652,10.337-10.337,10.337H33.837c-5.685,0-10.337-4.652-10.337-10.337V33.798c0-5.685,4.652-10.337,10.337-10.337H67.5"/><path fill="#1f212b" d="M67.163 77.961H33.837C27.861 77.961 23 73.099 23 67.124V33.798c0-5.976 4.861-10.837 10.837-10.837H67.5c.276 0 .5.224.5.5s-.224.5-.5.5H33.837c-5.424 0-9.837 4.413-9.837 9.837v33.326c0 5.424 4.413 9.837 9.837 9.837h33.326c5.424 0 9.837-4.413 9.837-9.837V48.461c0-.276.224-.5.5-.5s.5.224.5.5v18.663C78 73.099 73.139 77.961 67.163 77.961zM77.5 45.961c-.276 0-.5-.224-.5-.5v-4c0-.276.224-.5.5-.5s.5.224.5.5v4C78 45.737 77.776 45.961 77.5 45.961zM77.5 39.961c-.276 0-.5-.224-.5-.5v-2c0-.276.224-.5.5-.5s.5.224.5.5v2C78 39.737 77.776 39.961 77.5 39.961z"/><path fill="#fdfcee" d="M53.573,62.613c0,0.996-0.346,1.84-1.04,2.532c-0.694,0.694-1.524,1.042-2.488,1.042c-0.994,0-1.848-0.348-2.554-1.042c-0.709-0.692-1.064-1.537-1.064-2.532c0-0.964,0.355-1.802,1.064-2.51c0.707-0.709,1.561-1.062,2.554-1.062c0.964,0,1.794,0.353,2.488,1.062C53.227,60.812,53.573,61.649,53.573,62.613z M48.643,55.83c-0.151-3.287-0.339-6.046-0.565-8.278c-0.226-2.231-0.453-4.108-0.677-5.63c-0.226-1.524-0.423-2.766-0.589-3.732c-0.166-0.964-0.248-1.839-0.248-2.623c0-1.448,0.324-2.435,0.972-2.963c0.648-0.528,1.516-0.791,2.6-0.791c1.056,0,1.892,0.271,2.51,0.813s0.928,1.493,0.928,2.851c0,0.784-0.075,1.673-0.226,2.667c-0.151,0.996-0.339,2.254-0.565,3.778c-0.226,1.522-0.467,3.399-0.723,5.63c-0.258,2.232-0.491,4.991-0.701,8.278H48.643z"/><path fill="#1f212b" d="M50.045,66.688c-1.126,0-2.104-0.399-2.904-1.185c-0.805-0.786-1.214-1.759-1.214-2.889c0-1.097,0.407-2.061,1.21-2.864c0.799-0.802,1.778-1.208,2.908-1.208c1.101,0,2.058,0.408,2.846,1.212c0.785,0.801,1.183,1.764,1.183,2.86c0,1.13-0.399,2.101-1.187,2.886C52.098,66.288,51.142,66.688,50.045,66.688z M50.045,59.541c-0.866,0-1.586,0.299-2.2,0.915c-0.618,0.618-0.918,1.323-0.918,2.157c0,0.863,0.299,1.574,0.913,2.174c0.617,0.606,1.338,0.9,2.205,0.9c0.834,0,1.532-0.293,2.135-0.896c0.602-0.6,0.894-1.313,0.894-2.179c0-0.837-0.293-1.544-0.897-2.161C51.575,59.84,50.878,59.541,50.045,59.541z M51.357,56.33h-2.715c-0.267,0-0.487-0.21-0.5-0.477c-0.15-3.276-0.34-6.052-0.563-8.251c-0.223-2.196-0.449-4.083-0.674-5.607c-0.226-1.519-0.422-2.758-0.587-3.721c-0.17-0.989-0.256-1.899-0.256-2.707c0-1.621,0.378-2.717,1.156-3.351c0.736-0.6,1.717-0.903,2.917-0.903c1.176,0,2.132,0.315,2.84,0.938c0.728,0.639,1.098,1.724,1.098,3.226c0,0.804-0.078,1.727-0.232,2.742c-0.15,0.996-0.338,2.254-0.564,3.777c-0.223,1.498-0.466,3.387-0.721,5.613c-0.256,2.218-0.491,4.994-0.699,8.253C51.84,56.125,51.621,56.33,51.357,56.33z M49.12,55.33h1.769c0.201-3.074,0.428-5.708,0.673-7.835c0.256-2.237,0.5-4.137,0.725-5.646c0.227-1.524,0.414-2.784,0.565-3.78c0.146-0.966,0.221-1.837,0.221-2.592c0-1.201-0.255-2.034-0.757-2.475c-0.528-0.464-1.242-0.689-2.181-0.689c-0.963,0-1.732,0.229-2.285,0.679c-0.522,0.426-0.788,1.292-0.788,2.576c0,0.751,0.081,1.605,0.241,2.538c0.166,0.969,0.364,2.215,0.591,3.743c0.227,1.54,0.456,3.441,0.68,5.653C48.789,49.61,48.972,52.242,49.12,55.33z"/></svg>