<svg xmlns="http://www.w3.org/2000/svg" viewBox="0 0 80 80" width="50px" height="50px"><path fill="#bae0bd" d="M8,67.5c-1.93,0-3.5-1.57-3.5-3.5V16c0-1.93,1.57-3.5,3.5-3.5h64c1.93,0,3.5,1.57,3.5,3.5v48 c0,1.93-1.57,3.5-3.5,3.5H8z"/><path fill="#5e9c76" d="M72,13c1.654,0,3,1.346,3,3v48c0,1.654-1.346,3-3,3H8c-1.654,0-3-1.346-3-3V16c0-1.654,1.346-3,3-3 H72 M72,12H8c-2.209,0-4,1.791-4,4v48c0,2.209,1.791,4,4,4h64c2.209,0,4-1.791,4-4V16C76,13.791,74.209,12,72,12L72,12z"/><path fill="#44825d" d="M19.842 31.602v7.02h3.562v-7.02h3.406v17.524h-3.406v-7.332h-3.562v7.332h-3.406V31.602H19.842zM32.374 34.747H29.28v-3.146H38.9v3.146h-3.12v14.379h-3.406V34.747zM52.056 42.99c-.104-1.664-.208-3.927-.182-5.799h-.052c-.312 1.872-.78 4.03-1.118 5.383L49.17 48.84h-2.392l-1.456-6.162c-.338-1.404-.806-3.588-1.092-5.486h-.052c-.052 1.898-.182 4.108-.26 5.851l-.312 6.084h-2.912l1.248-17.524h3.614l1.404 6.344c.468 2.21.91 4.16 1.222 6.137h.078c.26-1.95.65-3.927 1.092-6.137l1.404-6.344h3.588l1.066 17.524h-3.042L52.056 42.99zM58.556 31.602h3.406V46.24h4.472v2.886h-7.878V31.602z"/></svg>