<svg fill="#000000" xmlns="http://www.w3.org/2000/svg" viewBox="0 0 50 50" width="50px" height="50px"><path d="M 25 1 C 18.383 1 13 6.383 13 13 L 13 18 L 9 18 C 7.346 18 6 19.346 6 21 L 6 45 C 6 46.654 7.346 48 9 48 L 28.103516 48 C 28.102516 48.034 28.099609 48.064609 28.099609 48.099609 C 28.099609 49.099609 29 50 30 50 L 48.099609 50 C 49.099609 50 50 49.199609 50 48.099609 C 50 47.899609 50.000391 47.799609 49.900391 47.599609 L 44 37.111328 L 44 21 C 44 19.346 42.654 18 41 18 L 37 18 L 37 13 C 37 6.383 31.617 1 25 1 z M 25 3 C 30.514 3 35 7.486 35 13 L 35 18 L 15 18 L 15 13 C 15 7.486 19.486 3 25 3 z M 25 28 C 26.7 28 28 29.3 28 31 C 28 31.9 27.6 32.699219 27 33.199219 L 27 36 C 27 37.1 26.1 38 25 38 C 23.9 38 23 37.1 23 36 L 23 33.199219 C 22.4 32.699219 22 31.9 22 31 C 22 29.3 23.3 28 25 28 z M 39 32.199219 C 39 32.299219 39.099609 32.400391 39.099609 32.400391 L 47.800781 48 L 30.300781 48 L 38.900391 32.400391 C 38.900391 32.400391 39 32.299219 39 32.199219 z M 38.199219 37 C 38.099219 37 38 37.099219 38 37.199219 L 38 42.800781 C 38 42.900781 38.099219 43 38.199219 43 L 39.800781 43 C 39.900781 43 40 42.900781 40 42.800781 L 40 37.199219 C 40 37.099219 39.900781 37 39.800781 37 L 38.199219 37 z M 38.199219 45 C 38.099219 45 38 45.099219 38 45.199219 L 38 46.800781 C 38 46.900781 38.099219 47 38.199219 47 L 39.800781 47 C 39.900781 47 40 46.900781 40 46.800781 L 40 45.199219 C 40 45.099219 39.900781 45 39.800781 45 L 38.199219 45 z"/></svg>