<svg fill="#000000" xmlns="http://www.w3.org/2000/svg" viewBox="0 0 64 64" width="50px" height="50px"><path d="M 61 6 C 59.347656 6 58 7.347656 58 9 L 58 9.226563 L 5.96875 22.714844 C 5.824219 21.195313 4.558594 20 3 20 C 1.347656 20 0 21.347656 0 23 L 0 41 C 0 42.652344 1.347656 44 3 44 C 4.558594 44 5.824219 42.804688 5.96875 41.285156 L 12.945313 43.09375 L 11.757813 47.527344 C 11.410156 48.816406 11.585938 50.164063 12.253906 51.320313 C 12.925781 52.476563 14.003906 53.304688 15.292969 53.652344 L 24.40625 56.09375 C 24.835938 56.210938 25.273438 56.265625 25.707031 56.265625 C 26.574219 56.265625 27.429688 56.039063 28.203125 55.59375 C 29.355469 54.925781 30.183594 53.847656 30.53125 52.558594 L 31.761719 47.96875 L 58 54.773438 L 58 55 C 58 56.652344 59.347656 58 61 58 C 62.652344 58 64 56.652344 64 55 L 64 9 C 64 7.347656 62.652344 6 61 6 Z M 61 8 C 61.550781 8 62 8.449219 62 9 L 62 55 C 62 55.550781 61.550781 56 61 56 C 60.449219 56 60 55.550781 60 55 L 60 9 C 60 8.449219 60.449219 8 61 8 Z M 58 11.292969 L 58 52.707031 L 55.933594 52.171875 C 55.9375 52.128906 55.957031 52.089844 55.957031 52.042969 C 55.957031 51.492188 55.511719 51.042969 54.957031 51.042969 L 52.957031 51.042969 C 52.734375 51.042969 52.542969 51.128906 52.375 51.25 L 6 39.226563 L 6 24.773438 L 18 21.660156 L 18 31 C 18 31.550781 18.445313 32 19 32 C 19.554688 32 20 31.550781 20 31 L 20 21.144531 L 52.285156 12.773438 C 52.464844 12.9375 52.695313 13.042969 52.957031 13.042969 L 54.957031 13.042969 C 55.511719 13.042969 55.957031 12.59375 55.957031 12.042969 C 55.957031 11.96875 55.929688 11.902344 55.917969 11.832031 Z M 52.957031 16.042969 C 52.402344 16.042969 51.957031 16.492188 51.957031 17.042969 C 51.957031 17.59375 52.402344 18.042969 52.957031 18.042969 L 54.957031 18.042969 C 55.511719 18.042969 55.957031 17.59375 55.957031 17.042969 C 55.957031 16.492188 55.511719 16.042969 54.957031 16.042969 Z M 52.957031 21.042969 C 52.402344 21.042969 51.957031 21.492188 51.957031 22.042969 C 51.957031 22.59375 52.402344 23.042969 52.957031 23.042969 L 54.957031 23.042969 C 55.511719 23.042969 55.957031 22.59375 55.957031 22.042969 C 55.957031 21.492188 55.511719 21.042969 54.957031 21.042969 Z M 3 22 C 3.550781 22 4 22.449219 4 23 L 4 41 C 4 41.550781 3.550781 42 3 42 C 2.449219 42 2 41.550781 2 41 L 2 23 C 2 22.449219 2.449219 22 3 22 Z M 52.957031 26.042969 C 52.402344 26.042969 51.957031 26.492188 51.957031 27.042969 C 51.957031 27.59375 52.402344 28.042969 52.957031 28.042969 L 54.957031 28.042969 C 55.511719 28.042969 55.957031 27.59375 55.957031 27.042969 C 55.957031 26.492188 55.511719 26.042969 54.957031 26.042969 Z M 52.957031 31.042969 C 52.402344 31.042969 51.957031 31.492188 51.957031 32.042969 C 51.957031 32.59375 52.402344 33.042969 52.957031 33.042969 L 54.957031 33.042969 C 55.511719 33.042969 55.957031 32.59375 55.957031 32.042969 C 55.957031 31.492188 55.511719 31.042969 54.957031 31.042969 Z M 19 34 C 18.445313 34 18 34.449219 18 35 L 18 39 C 18 39.550781 18.445313 40 19 40 C 19.554688 40 20 39.550781 20 39 L 20 35 C 20 34.449219 19.554688 34 19 34 Z M 52.957031 36.042969 C 52.402344 36.042969 51.957031 36.492188 51.957031 37.042969 C 51.957031 37.59375 52.402344 38.042969 52.957031 38.042969 L 54.957031 38.042969 C 55.511719 38.042969 55.957031 37.59375 55.957031 37.042969 C 55.957031 36.492188 55.511719 36.042969 54.957031 36.042969 Z M 52.957031 41.042969 C 52.402344 41.042969 51.957031 41.492188 51.957031 42.042969 C 51.957031 42.59375 52.402344 43.042969 52.957031 43.042969 L 54.957031 43.042969 C 55.511719 43.042969 55.957031 42.59375 55.957031 42.042969 C 55.957031 41.492188 55.511719 41.042969 54.957031 41.042969 Z M 14.882813 43.59375 L 29.824219 47.46875 L 28.597656 52.039063 C 28.394531 52.8125 27.894531 53.460938 27.203125 53.859375 C 26.507813 54.261719 25.699219 54.367188 24.925781 54.160156 L 15.8125 51.71875 C 15.035156 51.511719 14.390625 51.015625 13.988281 50.324219 C 13.589844 49.628906 13.484375 48.820313 13.6875 48.046875 Z M 52.957031 46.042969 C 52.402344 46.042969 51.957031 46.492188 51.957031 47.042969 C 51.957031 47.59375 52.402344 48.042969 52.957031 48.042969 L 54.957031 48.042969 C 55.511719 48.042969 55.957031 47.59375 55.957031 47.042969 C 55.957031 46.492188 55.511719 46.042969 54.957031 46.042969 Z"/></svg>