<svg fill="#e74c3c" xmlns="http://www.w3.org/2000/svg" viewBox="0 0 50 50" width="50px" height="50px"><path d="M 13 3 C 10.25 3 8 5.25 8 8 C 8 10.40625 9.726563 12.4375 12 12.90625 L 12 37.09375 C 9.726563 37.5625 8 39.59375 8 42 C 8 44.75 10.25 47 13 47 C 15.75 47 18 44.75 18 42 C 18 39.59375 16.273438 37.5625 14 37.09375 L 14 26.90625 C 16.304688 30.554688 20.375 33 25 33 L 32.09375 33 C 32.5625 35.273438 34.59375 37 37 37 C 39.75 37 42 34.75 42 32 C 42 29.25 39.75 27 37 27 C 34.59375 27 32.5625 28.726563 32.09375 31 L 25 31 C 18.914063 31 14 26.085938 14 20 L 14 12.90625 C 16.273438 12.4375 18 10.40625 18 8 C 18 5.25 15.75 3 13 3 Z M 13 5 C 14.667969 5 16 6.332031 16 8 C 16 9.667969 14.667969 11 13 11 C 11.332031 11 10 9.667969 10 8 C 10 6.332031 11.332031 5 13 5 Z M 37 29 C 38.667969 29 40 30.332031 40 32 C 40 33.667969 38.667969 35 37 35 C 35.332031 35 34 33.667969 34 32 C 34 30.332031 35.332031 29 37 29 Z M 13 39 C 14.667969 39 16 40.332031 16 42 C 16 43.667969 14.667969 45 13 45 C 11.332031 45 10 43.667969 10 42 C 10 40.332031 11.332031 39 13 39 Z"/></svg>