<?xml version="1.0"?><svg fill="#000000" xmlns="http://www.w3.org/2000/svg" viewBox="0 0 100 100" width="50px" height="50px">    <path d="M 15 21 C 14.448 21 14 21.448 14 22 L 14 78 C 14 78.552 14.448 79 15 79 L 85 79 C 85.553 79 86 78.552 86 78 L 86 22 C 86 21.448 85.553 21 85 21 L 15 21 z M 16 23 L 84 23 L 84 26 L 31.5 26 C 31.224 26 31 26.224 31 26.5 C 31 26.776 31.224 27 31.5 27 L 84 27 L 84 77 L 16 77 L 16 27 L 23.5 27 C 23.776 27 24 26.776 24 26.5 C 24 26.224 23.776 26 23.5 26 L 16 26 L 16 23 z M 26.5 26 C 26.224 26 26 26.224 26 26.5 C 26 26.776 26.224 27 26.5 27 L 28.5 27 C 28.776 27 29 26.776 29 26.5 C 29 26.224 28.776 26 28.5 26 L 26.5 26 z M 21 31 C 20.448 31 20 31.448 20 32 L 20 40 C 20 40.552 20.448 41 21 41 L 29 41 C 29.552 41 30 40.552 30 40 L 30 32 C 30 31.448 29.552 31 29 31 L 21 31 z M 54 31 C 53.447 31 53 31.448 53 32 L 53 40 C 53 40.552 53.447 41 54 41 L 62 41 C 62.553 41 63 40.552 63 40 L 63 32 C 63 31.448 62.553 31 62 31 L 54 31 z M 22 33 L 28 33 L 28 39 L 22 39 L 22 33 z M 55 33 L 61 33 L 61 39 L 55 39 L 55 33 z M 32.5 34 C 32.224 34 32 34.224 32 34.5 C 32 34.776 32.224 35 32.5 35 L 46.5 35 C 46.776 35 47 34.776 47 34.5 C 47 34.224 46.776 34 46.5 34 L 32.5 34 z M 65.5 34 C 65.224 34 65 34.224 65 34.5 C 65 34.776 65.224 35 65.5 35 L 78.5 35 C 78.776 35 79 34.776 79 34.5 C 79 34.224 78.776 34 78.5 34 L 65.5 34 z M 32.5 37 C 32.224 37 32 37.224 32 37.5 C 32 37.776 32.224 38 32.5 38 L 42.5 38 C 42.776 38 43 37.776 43 37.5 C 43 37.224 42.776 37 42.5 37 L 32.5 37 z M 65.5 37 C 65.224 37 65 37.224 65 37.5 C 65 37.776 65.224 38 65.5 38 L 72.5 38 C 72.776 38 73 37.776 73 37.5 C 73 37.224 72.776 37 72.5 37 L 65.5 37 z M 21 46 C 20.448 46 20 46.448 20 47 L 20 55 C 20 55.552 20.448 56 21 56 L 29 56 C 29.552 56 30 55.552 30 55 L 30 47 C 30 46.448 29.552 46 29 46 L 21 46 z M 54 46 C 53.447 46 53 46.448 53 47 L 53 55 C 53 55.552 53.447 56 54 56 L 62 56 C 62.553 56 63 55.552 63 55 L 63 47 C 63 46.448 62.553 46 62 46 L 54 46 z M 22 48 L 28 48 L 28 54 L 22 54 L 22 48 z M 55 48 L 61 48 L 61 54 L 55 54 L 55 48 z M 32.5 49 C 32.224 49 32 49.224 32 49.5 C 32 49.776 32.224 50 32.5 50 L 44.5 50 C 44.776 50 45 49.776 45 49.5 C 45 49.224 44.776 49 44.5 49 L 32.5 49 z M 65.5 49 C 65.224 49 65 49.224 65 49.5 C 65 49.776 65.224 50 65.5 50 L 78.5 50 C 78.776 50 79 49.776 79 49.5 C 79 49.224 78.776 49 78.5 49 L 65.5 49 z M 32.5 52 C 32.224 52 32 52.224 32 52.5 C 32 52.776 32.224 53 32.5 53 L 45.5 53 C 45.776 53 46 52.776 46 52.5 C 46 52.224 45.776 52 45.5 52 L 32.5 52 z M 65.5 52 C 65.224 52 65 52.224 65 52.5 C 65 52.776 65.224 53 65.5 53 L 75.5 53 C 75.776 53 76 52.776 76 52.5 C 76 52.224 75.776 52 75.5 52 L 65.5 52 z M 21 61 C 20.448 61 20 61.448 20 62 L 20 70 C 20 70.552 20.448 71 21 71 L 29 71 C 29.552 71 30 70.552 30 70 L 30 62 C 30 61.448 29.552 61 29 61 L 21 61 z M 54 61 C 53.447 61 53 61.448 53 62 L 53 70 C 53 70.552 53.447 71 54 71 L 62 71 C 62.553 71 63 70.552 63 70 L 63 62 C 63 61.448 62.553 61 62 61 L 54 61 z M 22 63 L 28 63 L 28 69 L 22 69 L 22 63 z M 55 63 L 61 63 L 61 69 L 55 69 L 55 63 z M 32.5 64 C 32.224 64 32 64.224 32 64.5 C 32 64.776 32.224 65 32.5 65 L 41.5 65 C 41.776 65 42 64.776 42 64.5 C 42 64.224 41.776 64 41.5 64 L 32.5 64 z M 65.5 64 C 65.224 64 65 64.224 65 64.5 C 65 64.776 65.224 65 65.5 65 L 76.5 65 C 76.776 65 77 64.776 77 64.5 C 77 64.224 76.776 64 76.5 64 L 65.5 64 z M 32.5 67 C 32.224 67 32 67.224 32 67.5 C 32 67.776 32.224 68 32.5 68 L 46.5 68 C 46.776 68 47 67.776 47 67.5 C 47 67.224 46.776 67 46.5 67 L 32.5 67 z M 65.5 67 C 65.224 67 65 67.224 65 67.5 C 65 67.776 65.224 68 65.5 68 L 79.5 68 C 79.776 68 80 67.776 80 67.5 C 80 67.224 79.776 67 79.5 67 L 65.5 67 z"/></svg>