<svg xmlns="http://www.w3.org/2000/svg" viewBox="0 0 80 80" width="50px" height="50px"><path fill="#fff" d="M2.5 6.5H77.5V73.5H2.5z"/><path fill="#788b9c" d="M77,7v66H3V7H77 M78,6H2v68h76V6L78,6z"/><path fill="#788b9c" d="M2 6.143H78V18H2z"/><path fill="#fff" d="M40 30.570999999999998A15.429 15.429 0 1 0 40 61.429A15.429 15.429 0 1 0 40 30.570999999999998Z"/><g><path fill="#f78f8f" d="M40,63.5c-9.649,0-17.5-7.851-17.5-17.5S30.351,28.5,40,28.5S57.5,36.351,57.5,46 S49.649,63.5,40,63.5z M33.104,56.432l0.556,0.328c1.928,1.138,4.12,1.74,6.341,1.74c6.893,0,12.5-5.607,12.5-12.5 c0-2.22-0.602-4.413-1.74-6.341l-0.328-0.555L33.104,56.432z M40,33.5c-6.893,0-12.5,5.607-12.5,12.5 c0,2.22,0.602,4.413,1.74,6.341l0.328,0.555l17.328-17.328l-0.556-0.328C44.413,34.102,42.221,33.5,40,33.5z"/><path fill="#c74343" d="M40,29c9.374,0,17,7.626,17,17s-7.626,17-17,17s-17-7.626-17-17S30.626,29,40,29 M29.466,53.706 l0.912-0.912l16.416-16.416l0.912-0.912l-1.111-0.656C44.59,33.626,42.31,33,40,33c-7.168,0-13,5.832-13,13 c0,2.31,0.626,4.59,1.81,6.595L29.466,53.706 M40,59c7.168,0,13-5.832,13-13c0-2.31-0.626-4.59-1.81-6.595l-0.656-1.111 l-0.912,0.912L33.206,55.622l-0.912,0.912l1.111,0.656C35.41,58.374,37.69,59,40,59 M40,28c-9.941,0-18,8.059-18,18 c0,9.941,8.059,18,18,18s18-8.059,18-18C58,36.059,49.941,28,40,28L40,28z M29.671,52.087C28.616,50.301,28,48.225,28,46 c0-6.627,5.372-12,12-12c2.225,0,4.301,0.616,6.087,1.671L29.671,52.087L29.671,52.087z M40,58c-2.225,0-4.301-0.616-6.087-1.671 l16.416-16.416C51.384,41.699,52,43.775,52,46C52,52.627,46.628,58,40,58L40,58z"/></g></svg>