<?xml version="1.0"?><svg fill="#000000" xmlns="http://www.w3.org/2000/svg" viewBox="0 0 50 50" width="50px" height="50px">    <path d="M25,2C12.317,2,2,12.318,2,25s10.317,23,23,23s23-10.318,23-23S37.683,2,25,2z M14.254,21.934 c0.37-0.412,1.001-0.447,1.412-0.08l7.415,6.624l11.081-17.023c0.301-0.463,0.918-0.595,1.384-0.292 c0.463,0.301,0.594,0.92,0.292,1.383l-11.717,18c-0.159,0.245-0.417,0.407-0.706,0.446C23.371,30.997,23.327,31,23.283,31 c-0.244,0-0.481-0.089-0.666-0.254l-8.283-7.4C13.922,22.978,13.887,22.346,14.254,21.934z M36,37H14c-0.553,0-1-0.448-1-1 s0.447-1,1-1h22c0.553,0,1,0.448,1,1S36.553,37,36,37z"/></svg>