<svg fill="#000000" xmlns="http://www.w3.org/2000/svg" viewBox="0 0 50 50" width="50px" height="50px"><path d="M 25 0 C 15.625 0 8 5.976563 8 13.3125 C 8 16.292969 8.769531 17.703125 9.5 19.09375 C 10.15625 20.34375 10.757813 21.550781 10.9375 24.0625 C 11.941406 22.421875 13 20.589844 13 18.40625 C 13 15.589844 12.039063 12.3125 12.03125 12.28125 C 11.875 11.75 12.1875 11.1875 12.71875 11.03125 C 13.25 10.878906 13.8125 11.1875 13.96875 11.71875 C 14.011719 11.863281 15 15.296875 15 18.40625 C 15 21.292969 13.601563 23.589844 12.46875 25.4375 C 12.074219 26.082031 11.703125 26.664063 11.4375 27.21875 C 12.046875 28.113281 13.300781 28.46875 15.3125 28.78125 C 17.398438 29.105469 20 29.484375 20 32.1875 C 20 32.734375 21.992188 34.09375 25 34.09375 C 28.007813 34.09375 30 32.734375 30 32.1875 C 30 29.421875 32.613281 29.035156 34.71875 28.71875 C 36.703125 28.417969 37.957031 28.09375 38.5625 27.21875 C 38.292969 26.667969 37.925781 26.082031 37.53125 25.4375 C 36.398438 23.589844 35 21.292969 35 18.40625 C 35 15.296875 35.988281 11.863281 36.03125 11.71875 C 36.1875 11.1875 36.75 10.878906 37.28125 11.03125 C 37.808594 11.1875 38.125 11.75 37.96875 12.28125 C 37.960938 12.3125 37 15.589844 37 18.40625 C 37 20.589844 38.058594 22.449219 39.0625 24.09375 C 39.242188 21.652344 39.855469 20.453125 40.5 19.21875 C 41.238281 17.8125 42 16.363281 42 13.3125 C 42 5.976563 34.375 0 25 0 Z M 19.8125 18 C 21.710938 18 23 19.988281 23 21.6875 C 23 24.289063 21.292969 26 18.59375 26 C 17.492188 26 16 24.988281 16 21.6875 C 16 19.585938 17.613281 18 19.8125 18 Z M 30.1875 18 C 32.386719 18 34 19.585938 34 21.6875 C 34 24.988281 32.507813 26 31.40625 26 C 28.707031 26 27 24.289063 27 21.6875 C 27 19.988281 28.289063 18 30.1875 18 Z M 4.5625 21.03125 C 3.445313 20.988281 2.425781 21.566406 1.84375 22.65625 C 1.347656 23.585938 1.242188 24.710938 1.53125 25.6875 C 0.519531 26.386719 0 27.246094 0 28.90625 C 0 30.878906 1.554688 32.59375 3.3125 32.59375 C 4.230469 32.59375 4.761719 32.328125 5.125 32.15625 C 5.355469 32.050781 5.4375 32.03125 5.53125 32.03125 C 5.671875 32.03125 5.964844 32.109375 6.625 32.4375 L 13.90625 35.40625 C 13.828125 33.605469 13.671875 31.5625 13.40625 30.46875 C 11.882813 30.128906 10.609375 29.5625 9.78125 28.34375 C 9.378906 27.753906 9.3125 27.019531 9.625 26.375 C 9.648438 26.328125 9.695313 26.265625 9.71875 26.21875 C 9.390625 26.09375 9.066406 25.957031 8.75 25.84375 C 8.113281 25.613281 8.027344 25.375 7.90625 24.5 C 7.773438 23.546875 7.574219 22.121094 5.6875 21.28125 C 5.3125 21.117188 4.933594 21.046875 4.5625 21.03125 Z M 45.4375 21.03125 C 45.0625 21.046875 44.664063 21.117188 44.28125 21.28125 C 42.402344 22.117188 42.199219 23.578125 42.0625 24.53125 C 41.941406 25.40625 41.902344 25.628906 41.21875 25.875 C 40.921875 25.996094 40.613281 26.121094 40.3125 26.25 C 40.328125 26.28125 40.359375 26.3125 40.375 26.34375 C 40.691406 26.992188 40.628906 27.78125 40.21875 28.375 C 39.367188 29.605469 37.984375 30.113281 36.4375 30.4375 C 36.214844 31.574219 36.121094 33.511719 36.0625 35.21875 L 43.4375 32.40625 C 44.03125 32.109375 44.328125 32.03125 44.46875 32.03125 C 44.5625 32.03125 44.644531 32.082031 44.875 32.1875 C 45.238281 32.359375 45.769531 32.59375 46.6875 32.59375 C 48.445313 32.59375 50 30.875 50 28.90625 C 50 27.324219 49.507813 26.519531 48.46875 25.75 C 48.773438 24.761719 48.660156 23.601563 48.15625 22.65625 C 47.574219 21.570313 46.558594 20.988281 45.4375 21.03125 Z M 24.90625 26 C 26.105469 26 28 30.210938 28 30.8125 C 28 31.511719 27.511719 31.90625 26.8125 31.90625 C 26.011719 31.90625 25.105469 29.699219 24.90625 29 L 24.8125 29 C 24.113281 31 23.492188 32 23.09375 32 C 22.292969 32 22 31.492188 22 30.59375 C 22 28.992188 23.707031 26 24.90625 26 Z M 15.53125 30.8125 C 15.804688 32.5625 15.898438 35.085938 15.96875 37.03125 C 15.996094 37.816406 16.027344 38.671875 16.0625 39.03125 C 16.847656 39.996094 21.578125 44 25 44 C 28.4375 44 33.214844 39.980469 33.9375 38.96875 C 33.964844 38.675781 34.011719 37.734375 34.03125 36.90625 C 34.089844 34.585938 34.160156 32.394531 34.375 30.8125 C 33.75 30.917969 33.261719 31.03125 32.90625 31.15625 C 32.777344 31.945313 32.683594 32.65625 32.59375 33.3125 C 31.964844 37.941406 31.410156 40 25 40 C 18.496094 40 17.945313 37.945313 17.34375 33.28125 C 17.261719 32.644531 17.179688 31.949219 17.0625 31.1875 C 16.6875 31.0625 16.191406 30.925781 15.53125 30.8125 Z M 19.5625 34.625 C 19.878906 36.578125 20.3125 37.46875 22 37.8125 L 22 35.71875 C 21.054688 35.460938 20.21875 35.078125 19.5625 34.625 Z M 30.375 34.6875 C 29.730469 35.121094 28.910156 35.46875 28 35.71875 L 28 37.78125 C 29.609375 37.433594 30.050781 36.585938 30.375 34.6875 Z M 24 36.0625 L 24 38 C 24.3125 38.007813 24.640625 38 25 38 C 25.359375 38 25.6875 38.007813 26 38 L 26 36.0625 C 25.671875 36.089844 25.339844 36.09375 25 36.09375 C 24.660156 36.09375 24.328125 36.089844 24 36.0625 Z M 36 37.4375 C 35.960938 38.945313 35.9375 39.347656 35.84375 39.625 C 35.683594 40.1875 34.476563 41.441406 32.8125 42.6875 C 34.332031 43.425781 37.511719 44.984375 38.5 45.6875 C 38.613281 45.8125 38.769531 46.367188 38.875 46.71875 C 39.238281 47.949219 39.839844 50 42.1875 50 C 43.746094 50 44.578125 49.316406 45 48.75 C 45.796875 47.671875 45.734375 46.246094 45.5625 45.28125 C 45.621094 45.257813 45.660156 45.210938 45.71875 45.1875 C 46.710938 44.785156 47.976563 44.285156 48.28125 42.53125 C 48.449219 41.859375 48.414063 40.855469 47.84375 40.03125 C 47.503906 39.546875 46.859375 38.949219 45.625 38.8125 C 44.300781 38.667969 43.421875 39.429688 42.8125 39.96875 C 42.625 40.136719 42.339844 40.433594 42.125 40.40625 C 40.929688 39.855469 36.582031 37.722656 36 37.4375 Z M 13.96875 37.53125 C 12.621094 38.164063 8.929688 39.894531 7.8125 40.375 C 7.792969 40.382813 7.738281 40.429688 7.71875 40.4375 C 7.609375 40.410156 7.339844 40.164063 7.15625 40 C 6.550781 39.449219 5.742188 38.664063 4.28125 38.8125 C 3.160156 38.9375 2.546875 39.457031 2.21875 39.875 C 1.53125 40.746094 1.523438 41.863281 1.59375 42.4375 C 1.597656 42.472656 1.617188 42.496094 1.625 42.53125 C 2.035156 44.28125 3.210938 44.757813 4.15625 45.15625 C 4.21875 45.183594 4.28125 45.226563 4.34375 45.25 C 4.183594 46.1875 4.125 47.648438 4.9375 48.75 C 5.355469 49.316406 6.164063 50 7.6875 50 C 10.035156 50 10.667969 47.949219 11.03125 46.71875 C 11.136719 46.367188 11.273438 45.8125 11.34375 45.71875 C 12.5625 44.90625 16.121094 43.167969 17.15625 42.65625 C 15.507813 41.421875 14.316406 40.195313 14.15625 39.71875 C 14.0625 39.390625 14.019531 38.867188 13.96875 37.53125 Z"/></svg>