<svg fill="#000000" xmlns="http://www.w3.org/2000/svg" viewBox="0 0 64 64" width="50px" height="50px"><path d="M 10.0625 1.835938 C 9.25 1.84375 8.4375 2.089844 7.765625 2.574219 C 6.605469 3.40625 5.980469 4.742188 6.148438 6.089844 C 4.761719 5.984375 3.40625 6.605469 2.570313 7.765625 C 1.601563 9.117188 1.59375 11.003906 2.546875 12.359375 C 3.753906 14.074219 6.019531 14.585938 7.867188 13.523438 L 12.730469 18.386719 C 11.386719 20.597656 10.476563 23.050781 10.148438 25.660156 C 9.574219 30.242188 10.667969 34.699219 13.3125 38.558594 C 14.175781 39.8125 14.421875 41.367188 13.972656 42.84375 C 13.8125 43.378906 13.785156 43.921875 13.84375 44.453125 L 7.824219 50.449219 C 6.019531 49.414063 3.753906 49.925781 2.546875 51.640625 C 1.59375 52.996094 1.605469 54.886719 2.574219 56.234375 C 3.40625 57.394531 4.738281 58.019531 6.089844 57.851563 C 5.980469 59.257813 6.605469 60.59375 7.765625 61.425781 C 8.445313 61.917969 9.261719 62.160156 10.078125 62.160156 C 10.882813 62.160156 11.6875 61.925781 12.359375 61.453125 C 14.074219 60.246094 14.585938 57.980469 13.519531 56.136719 L 20.671875 48.984375 C 20.671875 49.046875 20.691406 49.105469 20.679688 49.167969 L 19.792969 54.511719 C 19.648438 55.382813 19.894531 56.269531 20.464844 56.941406 C 21.035156 57.617188 21.871094 58 22.753906 58 L 41.246094 58 C 42.128906 58 42.964844 57.613281 43.535156 56.9375 C 44.105469 56.265625 44.347656 55.378906 44.203125 54.511719 L 43.316406 49.160156 C 43.308594 49.113281 43.328125 49.074219 43.328125 49.027344 L 50.449219 56.171875 C 49.414063 57.976563 49.925781 60.246094 51.640625 61.453125 C 52.3125 61.921875 53.117188 62.15625 53.921875 62.15625 C 54.726563 62.15625 55.527344 61.921875 56.199219 61.453125 C 57.382813 60.617188 58.019531 59.269531 57.847656 57.90625 C 59.28125 58.019531 60.621094 57.382813 61.453125 56.199219 C 62.394531 54.855469 62.394531 52.980469 61.449219 51.640625 C 60.246094 49.925781 57.980469 49.414063 56.136719 50.480469 L 50.152344 44.496094 C 50.21875 43.945313 50.1875 43.378906 50.019531 42.820313 C 49.582031 41.367188 49.820313 39.8125 50.683594 38.5625 C 52.851563 35.402344 54 31.75 54 28 C 54 24.589844 53.058594 21.316406 51.300781 18.40625 L 56.171875 13.550781 C 57.976563 14.585938 60.246094 14.074219 61.453125 12.359375 C 62.40625 11.003906 62.394531 9.113281 61.425781 7.765625 C 60.59375 6.605469 59.253906 5.976563 57.90625 6.148438 C 58.019531 4.746094 57.394531 3.40625 56.234375 2.570313 C 54.886719 1.601563 52.996094 1.59375 51.640625 2.546875 C 49.925781 3.753906 49.414063 6.023438 50.476563 7.867188 L 45.863281 12.476563 C 41.351563 9.140625 35.574219 7.554688 29.675781 8.109375 C 25.355469 8.511719 21.398438 10.089844 18.171875 12.464844 L 13.550781 7.824219 C 14.585938 6.023438 14.074219 3.753906 12.359375 2.546875 C 11.679688 2.070313 10.871094 1.832031 10.0625 1.835938 Z M 10.066406 3.835938 C 10.472656 3.835938 10.878906 3.949219 11.207031 4.183594 C 12.070313 4.792969 12.335938 5.929688 11.816406 6.828125 C 11.347656 7.648438 11.460938 8.636719 12.109375 9.28125 L 16.578125 13.75 C 15.570313 14.648438 14.671875 15.640625 13.871094 16.699219 L 9.28125 12.109375 C 8.898438 11.726563 8.398438 11.53125 7.882813 11.53125 C 7.527344 11.53125 7.164063 11.625 6.828125 11.816406 C 5.929688 12.332031 4.789063 12.074219 4.179688 11.207031 C 3.714844 10.546875 3.722656 9.589844 4.195313 8.933594 C 4.617188 8.347656 5.289063 8.023438 5.992188 8.085938 C 6.5625 8.132813 7.109375 7.917969 7.515625 7.515625 C 7.921875 7.109375 8.128906 6.554688 8.085938 5.992188 C 8.027344 5.292969 8.34375 4.621094 8.929688 4.195313 C 9.261719 3.960938 9.664063 3.839844 10.066406 3.835938 Z M 53.933594 3.835938 C 54.335938 3.839844 54.738281 3.957031 55.066406 4.195313 C 55.652344 4.617188 55.972656 5.289063 55.917969 5.992188 C 55.871094 6.554688 56.078125 7.109375 56.484375 7.515625 C 56.890625 7.917969 57.449219 8.132813 58.003906 8.085938 C 58.71875 8.023438 59.382813 8.347656 59.800781 8.929688 C 60.277344 9.589844 60.28125 10.546875 59.816406 11.207031 C 59.207031 12.070313 58.070313 12.332031 57.171875 11.816406 C 56.351563 11.347656 55.367188 11.460938 54.71875 12.109375 L 50.136719 16.691406 C 49.382813 15.695313 48.53125 14.75 47.574219 13.875 C 47.523438 13.828125 47.472656 13.789063 47.425781 13.746094 L 51.890625 9.28125 C 52.535156 8.632813 52.652344 7.648438 52.183594 6.828125 C 51.667969 5.929688 51.929688 4.792969 52.792969 4.183594 C 53.121094 3.949219 53.527344 3.835938 53.933594 3.835938 Z M 31.984375 10 C 37.332031 10 42.433594 11.898438 46.222656 15.351563 C 49.949219 18.742188 52 23.234375 52 28 C 52 31.34375 50.976563 34.605469 49.03125 37.425781 C 47.828125 39.183594 47.488281 41.359375 48.109375 43.421875 C 48.296875 44.035156 48.183594 44.679688 47.800781 45.191406 C 47.421875 45.707031 46.835938 46 46.199219 46 L 44.308594 46 C 43.421875 46 42.589844 46.386719 42.015625 47.0625 C 41.445313 47.734375 41.203125 48.621094 41.347656 49.488281 L 42.234375 54.839844 C 42.285156 55.132813 42.203125 55.417969 42.011719 55.644531 C 41.816406 55.875 41.546875 56 41.246094 56 L 22.753906 56 C 22.453125 56 22.183594 55.875 21.988281 55.644531 C 21.796875 55.417969 21.71875 55.128906 21.765625 54.835938 L 22.652344 49.488281 C 22.796875 48.621094 22.554688 47.734375 21.984375 47.058594 C 21.410156 46.382813 20.578125 46 19.691406 46 L 17.800781 46 C 17.164063 46 16.578125 45.707031 16.199219 45.191406 C 15.816406 44.675781 15.703125 44.035156 15.894531 43.398438 C 16.511719 41.359375 16.171875 39.183594 14.964844 37.421875 C 12.597656 33.980469 11.617188 29.996094 12.128906 25.90625 C 13.175781 17.609375 20.628906 10.960938 29.859375 10.097656 C 30.570313 10.035156 31.277344 10 31.984375 10 Z M 32.488281 12.578125 C 31.695313 12.558594 30.898438 12.585938 30.101563 12.660156 C 27.242188 12.925781 24.453125 13.847656 22.03125 15.316406 C 21.5625 15.605469 21.414063 16.222656 21.699219 16.691406 C 21.886719 17.003906 22.214844 17.171875 22.554688 17.171875 C 22.730469 17.171875 22.910156 17.125 23.074219 17.027344 C 25.234375 15.710938 27.726563 14.890625 30.285156 14.652344 C 31.722656 14.519531 33.160156 14.550781 34.5625 14.753906 C 35.105469 14.828125 35.617188 14.457031 35.691406 13.90625 C 35.773438 13.363281 35.394531 12.855469 34.847656 12.777344 C 34.070313 12.664063 33.28125 12.597656 32.488281 12.578125 Z M 38.828125 13.871094 C 38.4375 13.878906 38.070313 14.117188 37.917969 14.5 C 37.714844 15.015625 37.964844 15.597656 38.480469 15.800781 C 39.292969 16.125 40.085938 16.515625 40.832031 16.964844 C 40.996094 17.058594 41.171875 17.105469 41.34375 17.105469 C 41.6875 17.105469 42.019531 16.929688 42.203125 16.613281 C 42.488281 16.140625 42.332031 15.527344 41.859375 15.246094 C 41.019531 14.746094 40.128906 14.304688 39.21875 13.941406 C 39.089844 13.890625 38.957031 13.867188 38.828125 13.871094 Z M 21.101563 28.648438 C 20.578125 28.628906 20.046875 28.757813 19.558594 29.023438 C 18.582031 29.558594 18 30.542969 18 31.65625 L 18 34.957031 C 18 36.609375 19.347656 37.957031 21 37.957031 L 25.625 37.957031 C 27.0625 37.957031 28.25 37.066406 28.65625 35.6875 C 29.058594 34.304688 28.535156 32.914063 27.324219 32.140625 L 22.617188 29.125 C 22.148438 28.828125 21.625 28.667969 21.101563 28.648438 Z M 42.8125 28.648438 C 42.289063 28.667969 41.765625 28.828125 41.296875 29.125 L 36.589844 32.140625 C 35.375 32.914063 34.855469 34.304688 35.261719 35.6875 C 35.664063 37.066406 36.851563 37.953125 38.289063 37.953125 L 42.910156 37.953125 C 44.566406 37.953125 45.910156 36.609375 45.910156 34.953125 L 45.910156 31.652344 C 45.910156 30.539063 45.328125 29.554688 44.355469 29.019531 C 43.867188 28.753906 43.335938 28.628906 42.8125 28.648438 Z M 42.90625 30.648438 C 43.125 30.648438 43.300781 30.726563 43.390625 30.777344 C 43.546875 30.859375 43.910156 31.117188 43.910156 31.652344 L 43.910156 34.957031 C 43.910156 35.507813 43.464844 35.957031 42.910156 35.957031 L 38.289063 35.957031 C 37.484375 35.957031 37.234375 35.316406 37.179688 35.125 C 37.121094 34.929688 36.988281 34.257813 37.667969 33.824219 L 42.375 30.8125 C 42.5625 30.691406 42.746094 30.648438 42.90625 30.648438 Z M 21.007813 30.652344 C 21.167969 30.652344 21.351563 30.691406 21.539063 30.8125 L 26.246094 33.824219 C 26.925781 34.257813 26.792969 34.929688 26.734375 35.125 C 26.675781 35.316406 26.429688 35.957031 25.625 35.957031 L 21 35.957031 C 20.449219 35.957031 20 35.507813 20 34.957031 L 20 31.65625 C 20 31.121094 20.363281 30.863281 20.519531 30.777344 C 20.609375 30.726563 20.789063 30.652344 21.007813 30.652344 Z M 32 36 C 30.984375 36 30.066406 36.636719 29.714844 37.582031 L 28.078125 41.945313 C 27.730469 42.867188 27.859375 43.898438 28.421875 44.707031 C 28.980469 45.519531 29.902344 46 30.886719 46 L 33.113281 46 C 34.097656 46 35.019531 45.519531 35.578125 44.707031 C 36.140625 43.902344 36.269531 42.867188 35.921875 41.949219 L 34.285156 37.582031 C 33.933594 36.636719 33.015625 36 32 36 Z M 32 38 C 32.183594 38 32.351563 38.113281 32.414063 38.285156 L 34.050781 42.648438 C 34.167969 42.960938 34.125 43.296875 33.9375 43.570313 C 33.746094 43.84375 33.445313 44 33.113281 44 L 30.886719 44 C 30.550781 44 30.253906 43.84375 30.0625 43.570313 C 29.875 43.296875 29.832031 42.960938 29.949219 42.648438 L 31.585938 38.285156 C 31.648438 38.113281 31.816406 38 32 38 Z M 14.6875 46.484375 C 15.449219 47.441406 16.570313 48 17.800781 48 L 18.828125 48 L 12.109375 54.71875 C 11.464844 55.367188 11.347656 56.351563 11.816406 57.171875 C 12.332031 58.070313 12.070313 59.207031 11.207031 59.816406 C 10.546875 60.28125 9.589844 60.277344 8.933594 59.804688 C 8.347656 59.382813 8.027344 58.710938 8.085938 58.007813 C 8.128906 57.445313 7.921875 56.890625 7.515625 56.484375 C 7.144531 56.117188 6.652344 55.910156 6.140625 55.910156 C 6.09375 55.910156 6.042969 55.910156 5.992188 55.917969 C 5.28125 55.972656 4.617188 55.652344 4.195313 55.066406 C 3.722656 54.410156 3.71875 53.453125 4.183594 52.792969 C 4.792969 51.929688 5.929688 51.667969 6.828125 52.183594 C 7.648438 52.65625 8.632813 52.539063 9.28125 51.890625 Z M 49.3125 46.484375 L 54.71875 51.890625 C 55.367188 52.539063 56.351563 52.65625 57.171875 52.183594 C 58.070313 51.667969 59.207031 51.929688 59.816406 52.792969 C 60.277344 53.445313 60.277344 54.394531 59.816406 55.046875 C 59.394531 55.648438 58.714844 55.972656 58.003906 55.914063 C 57.4375 55.867188 56.890625 56.082031 56.484375 56.484375 C 56.078125 56.890625 55.871094 57.445313 55.917969 58.003906 C 55.972656 58.71875 55.648438 59.394531 55.050781 59.816406 C 54.398438 60.277344 53.445313 60.277344 52.792969 59.816406 C 51.929688 59.207031 51.664063 58.070313 52.183594 57.171875 C 52.652344 56.351563 52.539063 55.367188 51.890625 54.71875 L 45.171875 48 L 46.199219 48 C 47.429688 48 48.550781 47.441406 49.3125 46.484375 Z M 27 50.011719 C 26.445313 50.011719 26 50.457031 26 51.011719 L 26 53.011719 C 26 53.5625 26.445313 54.011719 27 54.011719 C 27.554688 54.011719 28 53.5625 28 53.011719 L 28 51.011719 C 28 50.457031 27.554688 50.011719 27 50.011719 Z M 32 50.011719 C 31.445313 50.011719 31 50.457031 31 51.011719 L 31 53.011719 C 31 53.5625 31.445313 54.011719 32 54.011719 C 32.554688 54.011719 33 53.5625 33 53.011719 L 33 51.011719 C 33 50.457031 32.554688 50.011719 32 50.011719 Z M 37 50.011719 C 36.445313 50.011719 36 50.457031 36 51.011719 L 36 53.011719 C 36 53.5625 36.445313 54.011719 37 54.011719 C 37.554688 54.011719 38 53.5625 38 53.011719 L 38 51.011719 C 38 50.457031 37.554688 50.011719 37 50.011719 Z"/></svg>