<svg xmlns="http://www.w3.org/2000/svg" viewBox="0 0 64 64" width="50px" height="50px"><g id="_x31_5_Presentation_Graph_Keynote_Chart_Screen_Whiteboard_Diagram"><path fill="#c5e4fa" d="M7 19H57V49H7z"/><path fill="#e3f2ff" d="M42 48L57 33 57 20 55 20 27 48zM17 48L23 48 51 20 45 20zM9 48L37 20 36 20 8 48z"/><path fill="#72caaf" d="M22 25A9 9 0 1 0 22 43A9 9 0 1 0 22 25Z"/><path fill="#ffeb9b" d="M29 40L31 34 23 34z"/><path fill="#ed7899" d="M29 28L31 34 22 34 22 25z"/><path fill="#ffefb8" d="M59,53H4c-0.6,0-1-0.4-1-1v-2c0-0.6,0.4-1,1-1h55c0.6,0,1,0.4,1,1v2C60,52.6,59.6,53,59,53z"/><path fill="#acb7d0" d="M59,19H5c-1.1,0-2-0.9-2-2v-6c0-1.1,0.9-2,2-2h54c1.1,0,2,0.9,2,2v6C61,18.1,60.1,19,59,19z"/><path fill="#8d6c9f" d="M59,20c1.7,0,3-1.3,3-3v-6c0-1.7-1.3-3-3-3H37.5l-3.2-3.8c-0.6-0.7-1.4-1.1-2.3-1.1c0,0,0,0,0,0 c-0.9,0-1.7,0.4-2.3,1.1L26.5,8H5c-1.7,0-3,1.3-3,3v6c0,1.7,1.3,3,3,3h1v28H5c-1.7,0-3,1.3-3,3s1.3,3,3,3h26v4c0,0.1,0,0.1,0,0.2 c-1.2,0.4-2,1.5-2,2.8c0,1.7,1.3,3,3,3s3-1.3,3-3c0-1.3-0.9-2.4-2-2.8c0-0.1,0-0.1,0-0.2v-4h26c1.7,0,3-1.3,3-3s-1.3-3-3-3h-1V20 H59z M32,62.3c-0.7,0-1.3-0.6-1.3-1.3c0-0.7,0.6-1.3,1.3-1.3s1.3,0.6,1.3,1.3C33.3,61.7,32.7,62.3,32,62.3z M31.2,5.5 c0.3-0.3,0.6-0.4,0.8-0.4c0.2,0,0.5,0,0.8,0.4L34.8,8h-5.7L31.2,5.5z M5,18c-0.6,0-1-0.4-1-1v-6c0-0.6,0.4-1,1-1h19.9h14.3H59 c0.6,0,1,0.4,1,1v6c0,0.6-0.4,1-1,1h-1H6H5z M59,50c0.6,0,1,0.4,1,1s-0.4,1-1,1H5c-0.6,0-1-0.4-1-1s0.4-1,1-1h1h52H59z M56,48H8 V20h48V48z"/><path fill="#8d6c9f" d="M22 44c5.5 0 10-4.5 10-10s-4.5-10-10-10-10 4.5-10 10S16.5 44 22 44zM28.5 39l-4-4h5.6C29.9 36.5 29.4 37.9 28.5 39zM30.1 33H23v-7c0 0 0-.1 0-.1C26.7 26.3 29.7 29.3 30.1 33zM21 25.9c0 0 0 .1 0 .1v7.8c0 .2.1.4.2.5 0 .1.1.3.2.4l5.7 5.7c-1.4 1.1-3.2 1.8-5.1 1.8-4.5 0-8.2-3.7-8.2-8.2C13.8 29.8 17 26.4 21 25.9zM47 32h5c.6 0 1-.4 1-1s-.4-1-1-1h-5c-.6 0-1 .4-1 1S46.4 32 47 32zM36 32h7c.6 0 1-.4 1-1s-.4-1-1-1h-7c-.6 0-1 .4-1 1S35.4 32 36 32zM36 36h4c.6 0 1-.4 1-1s-.4-1-1-1h-4c-.6 0-1 .4-1 1S35.4 36 36 36zM36 40h12c.6 0 1-.4 1-1s-.4-1-1-1H36c-.6 0-1 .4-1 1S35.4 40 36 40zM7 12c-.6 0-1 .4-1 1v2c0 .6.4 1 1 1s1-.4 1-1v-2C8 12.4 7.6 12 7 12zM12 12c-.6 0-1 .4-1 1v2c0 .6.4 1 1 1s1-.4 1-1v-2C13 12.4 12.6 12 12 12zM17 12c-.6 0-1 .4-1 1v2c0 .6.4 1 1 1s1-.4 1-1v-2C18 12.4 17.6 12 17 12zM22 12c-.6 0-1 .4-1 1v2c0 .6.4 1 1 1s1-.4 1-1v-2C23 12.4 22.6 12 22 12zM27 12c-.6 0-1 .4-1 1v2c0 .6.4 1 1 1s1-.4 1-1v-2C28 12.4 27.6 12 27 12zM32 12c-.6 0-1 .4-1 1v2c0 .6.4 1 1 1s1-.4 1-1v-2C33 12.4 32.6 12 32 12zM37 12c-.6 0-1 .4-1 1v2c0 .6.4 1 1 1s1-.4 1-1v-2C38 12.4 37.6 12 37 12zM42 12c-.6 0-1 .4-1 1v2c0 .6.4 1 1 1s1-.4 1-1v-2C43 12.4 42.6 12 42 12zM47 12c-.6 0-1 .4-1 1v2c0 .6.4 1 1 1s1-.4 1-1v-2C48 12.4 47.6 12 47 12zM52 12c-.6 0-1 .4-1 1v2c0 .6.4 1 1 1s1-.4 1-1v-2C53 12.4 52.6 12 52 12zM58 13c0-.6-.4-1-1-1s-1 .4-1 1v2c0 .6.4 1 1 1s1-.4 1-1V13z"/></g></svg>