<svg xmlns="http://www.w3.org/2000/svg" viewBox="0 0 64 64" width="50px" height="50px"><rect width="50" height="46" x="7" y="9" fill="#72caaf" rx="4" ry="4"/><rect width="38" height="34" x="13" y="15" fill="#8b8e98" rx="1" ry="1"/><path fill="#989ba3" d="M51 16v2.62L20.62 49 14 49.19 48.19 15H50A1 1 0 0 1 51 16zM51 22.92L51 38.97 40.93 49 24.86 49 51 22.92zM43.91 15L13.12 45.8 13.12 40.44 38.55 15 43.91 15z"/><path fill="#8d6c9f" d="M50,14H14a2,2,0,0,0-2,2V48a2,2,0,0,0,2,2H50a2,2,0,0,0,2-2V16A2,2,0,0,0,50,14Zm0,34H14V16H50Z"/><path fill="#8d6c9f" d="M61,24a1,1,0,0,0,0-2H58V18h3a1,1,0,0,0,0-2H58V13a5,5,0,0,0-5-5H48V5a1,1,0,0,0-2,0V8H42V5a1,1,0,0,0-2,0V8H36V5a1,1,0,0,0-2,0V8H30V5a1,1,0,0,0-2,0V8H24V5a1,1,0,0,0-2,0V8H18V5a1,1,0,0,0-2,0V8H11a5,5,0,0,0-5,5v3H3a1,1,0,0,0,0,2H6v4H3a1,1,0,0,0,0,2H6v4H3a1,1,0,0,0,0,2H6v4H3a1,1,0,0,0,0,2H6v4H3a1,1,0,0,0,0,2H6v4H3a1,1,0,0,0,0,2H6v3a5,5,0,0,0,5,5h5v3a1,1,0,0,0,2,0V56h4v3a1,1,0,0,0,2,0V56h4v3a1,1,0,0,0,2,0V56h4v3a1,1,0,0,0,2,0V56h4v3a1,1,0,0,0,2,0V56h4v3a1,1,0,0,0,2,0V56h5a5,5,0,0,0,5-5V48h3a1,1,0,0,0,0-2H58V42h3a1,1,0,0,0,0-2H58V36h3a1,1,0,0,0,0-2H58V30h3a1,1,0,0,0,0-2H58V24ZM56,51a3,3,0,0,1-3,3H11a3,3,0,0,1-3-3V13a3,3,0,0,1,3-3H53a3,3,0,0,1,3,3Z"/><path fill="#faefde" d="M27 42a1 1 0 0 0-1 1v2a1 1 0 0 0 2 0V43A1 1 0 0 0 27 42zM22 42a1 1 0 0 0-1 1v2a1 1 0 0 0 2 0V43A1 1 0 0 0 22 42zM32 42a1 1 0 0 0-1 1v2a1 1 0 0 0 2 0V43A1 1 0 0 0 32 42zM17 46a1 1 0 0 0 1-1V43a1 1 0 0 0-2 0v2A1 1 0 0 0 17 46zM47 46a1 1 0 0 0 1-1V43a1 1 0 0 0-2 0v2A1 1 0 0 0 47 46zM41 43v2a1 1 0 0 0 2 0V43a1 1 0 0 0-2 0zM37 42a1 1 0 0 0-1 1v2a1 1 0 0 0 2 0V43A1 1 0 0 0 37 42z"/><path fill="#ed7899" d="M21 21A2 2 0 1 0 21 25A2 2 0 1 0 21 21Z"/><path fill="#8d6c9f" d="M21,26a3,3,0,1,0-2.12-.88A3,3,0,0,0,21,26Zm-.71-3.71a1,1,0,1,1,0,1.41A1,1,0,0,1,20.29,22.29Z"/><path fill="#faefde" d="M25 36h5a1 1 0 0 0 0-2H25a1 1 0 0 0 0 2zM37 35a1 1 0 0 0-1-1H34a1 1 0 0 0 0 2h2A1 1 0 0 0 37 35zM25 32H41a1 1 0 0 0 0-2H25a1 1 0 0 0 0 2z"/><path fill="#ddd" d="M38.5 19L39.74 21.26 42 22.5 39.74 23.74 38.5 26 37.26 23.74 35 22.5 37.26 21.26 38.5 19zM19.42 30L20.27 31.56 21.84 32.42 20.27 33.27 19.42 34.84 18.56 33.27 17 32.42 18.56 31.56 19.42 30zM39.65 38L40.23 39.06 41.3 39.65 40.23 40.23 39.65 41.3 39.06 40.23 38 39.65 39.06 39.06 39.65 38z"/></svg>