<svg fill="#000000" xmlns="http://www.w3.org/2000/svg" viewBox="0 0 50 50" width="50px" height="50px"><path d="M 25 0 C 22.542969 0 20.472656 1.386719 17.40625 2.96875 C 14.339844 4.550781 10.230469 6.433594 3.78125 7.8125 L 3 8 L 3 8.8125 C 3 24.144531 8.371094 34.367188 13.75 40.71875 C 19.128906 47.070313 24.59375 49.59375 24.59375 49.59375 L 25.03125 49.8125 L 25.46875 49.59375 C 25.46875 49.59375 47 38.492188 47 8.8125 L 47 8 L 46.21875 7.8125 C 39.769531 6.433594 35.660156 4.550781 32.59375 2.96875 C 29.527344 1.386719 27.457031 0 25 0 Z M 25 2 C 26.644531 2 28.519531 3.132813 31.65625 4.75 C 34.632813 6.285156 38.84375 8.128906 44.9375 9.53125 C 44.585938 36.695313 26.253906 46.851563 24.96875 47.53125 C 24.347656 47.230469 20.019531 45.070313 15.25 39.4375 C 10.21875 33.496094 5.238281 23.960938 5.0625 9.53125 C 11.15625 8.128906 15.367188 6.285156 18.34375 4.75 C 21.480469 3.132813 23.355469 2 25 2 Z M 25.1875 12.5 C 21.488281 12.5 19 14.789063 18.5 18.1875 C 18.5 18.386719 18.613281 18.59375 18.8125 18.59375 L 21.09375 19 C 21.292969 19 21.5 18.886719 21.5 18.6875 C 21.898438 16.488281 23.1875 15.3125 25.1875 15.3125 C 27.289063 15.3125 28.6875 16.59375 28.6875 18.59375 C 28.6875 19.894531 28.300781 20.707031 27 22.40625 L 24.59375 25.6875 C 23.792969 26.6875 23.5 27.507813 23.5 28.90625 L 23.5 30.40625 C 23.5 30.605469 23.710938 30.8125 23.8125 30.8125 L 26.1875 30.8125 C 26.488281 30.8125 26.59375 30.605469 26.59375 30.40625 L 26.59375 29.3125 C 26.59375 28.113281 26.800781 27.59375 27.5 26.59375 L 29.90625 23.3125 C 31.105469 21.613281 31.6875 20.292969 31.6875 18.59375 C 31.6875 14.992188 29.085938 12.5 25.1875 12.5 Z M 23.8125 33.5 C 23.511719 33.5 23.40625 33.707031 23.40625 33.90625 L 23.40625 37 C 23.40625 37.300781 23.613281 37.40625 23.8125 37.40625 L 26.5 37.40625 C 26.800781 37.40625 26.90625 37.199219 26.90625 37 L 26.90625 33.90625 C 26.90625 33.605469 26.699219 33.5 26.5 33.5 Z"/></svg>