<svg fill="#e74c3c" xmlns="http://www.w3.org/2000/svg" viewBox="0 0 26 26" width="50px" height="50px"><path d="M 8.8125 0 C 8.347656 0.0507813 7.917969 0.261719 7.59375 0.59375 L 4.59375 3.59375 L 7.40625 6.40625 L 9.8125 4 L 17.1875 4 L 19 5.8125 L 19 10.75 L 12.09375 14.21875 C 11.421875 14.558594 11 15.246094 11 16 L 11 20 L 15 20 L 15 17.25 L 21.90625 13.78125 C 22.578125 13.441406 23 12.753906 23 12 L 23 5 C 22.996094 4.472656 22.78125 3.964844 22.40625 3.59375 L 19.40625 0.59375 C 19.035156 0.21875 18.527344 0.00390625 18 0 L 9 0 C 8.9375 -0.00390625 8.875 -0.00390625 8.8125 0 Z M 11 22 L 11 26 L 15 26 L 15 22 Z"/></svg>