<svg xmlns="http://www.w3.org/2000/svg" viewBox="0 0 80 80" width="50px" height="50px"><path fill="#fff" d="M4.5 73.5L4.5 6.5 75.5 6.5 75.5 49.8 50.8 73.5z"/><path fill="#788b9c" d="M75,7v42.6L50.6,73H5V7H75 M76,6H4v68h47l25-24V6L76,6z"/><path fill="#788b9c" d="M4 6H76V18H4z"/><path fill="#8bb7f0" d="M26 33H62V34H26zM18 33H21V34H18zM26 41H62V42H26zM18 41H21V42H18zM26 49H62V50H26zM18 49H21V50H18zM26 57H62V58H26zM18 57H21V58H18z"/><path fill="#b6c9d6" d="M46.8,79.5c-0.6,0-1.2-0.2-1.6-0.7c-0.9-0.9-0.9-2.4,0-3.3l11.3-10.7l2.9,2.7L48.5,78.8 C48,79.3,47.4,79.5,46.8,79.5z"/><path fill="#788b9c" d="M56.4,65.5l2.1,2l-10.5,11c-0.3,0.3-0.8,0.5-1.3,0.5s-0.9-0.2-1.3-0.5c-0.7-0.7-0.7-1.9,0-2.6 L56.4,65.5 M56.4,64.1L44.8,75.2c-1.1,1.1-1.1,2.9,0,4c0.6,0.6,1.3,0.8,2,0.8s1.4-0.3,2-0.8L60,67.5L56.4,64.1L56.4,64.1z"/><path fill="#d1edff" d="M66.5,70.5c-7.2,0-13-5.8-13-13s5.8-13,13-13s13,5.8,13,13S73.7,70.5,66.5,70.5z"/><path fill="#788b9c" d="M66.5,45C73.4,45,79,50.6,79,57.5S73.4,70,66.5,70S54,64.4,54,57.5S59.6,45,66.5,45 M66.5,44 C59,44,53,50,53,57.5S59,71,66.5,71S80,65,80,57.5S74,44,66.5,44L66.5,44z"/><g><path fill="#c8d1db" d="M40.8 74h5.3l1-1h-5.7C41.2 73.3 41 73.6 40.8 74zM76 42.9c-.3-.2-.7-.4-1-.6V47c.3.3.7.6 1 .9V42.9z"/></g><path fill="#c2e8ff" d="M52.9 57h-4c0 .2 0 .3 0 .5s0 .3 0 .5h4c0-.2 0-.3 0-.5S52.9 57.2 52.9 57zM51.2 49c-.2.3-.4.7-.5 1h4.6c.2-.3.5-.7.7-1H51.2z"/></svg>