<svg fill="#000000" xmlns="http://www.w3.org/2000/svg" viewBox="0 0 64 64" width="50px" height="50px"><path d="M 3 14 C 1.347656 14 0 15.347656 0 17 L 0 51 C 0 52.652344 1.347656 54 3 54 L 59 54 C 60.652344 54 62 52.652344 62 51 L 62 17 C 62 15.347656 60.652344 14 59 14 Z M 3 16 L 59 16 C 59.550781 16 60 16.449219 60 17 L 60 45 C 60 45.550781 59.550781 46 59 46 L 3 46 C 2.449219 46 2 45.550781 2 45 L 2 17 C 2 16.449219 2.449219 16 3 16 Z M 31 20 C 30.746094 20 30.488281 20.097656 30.292969 20.292969 L 24.292969 26.292969 C 23.902344 26.683594 23.902344 27.316406 24.292969 27.707031 C 24.683594 28.097656 25.316406 28.097656 25.707031 27.707031 L 30 23.414063 L 30 37 C 30 37.550781 30.445313 38 31 38 C 31.554688 38 32 37.550781 32 37 L 32 23.414063 L 36.292969 27.707031 C 36.488281 27.902344 36.742188 28 37 28 C 37.257813 28 37.511719 27.902344 37.707031 27.707031 C 38.097656 27.316406 38.097656 26.683594 37.707031 26.292969 L 31.707031 20.292969 C 31.511719 20.097656 31.253906 20 31 20 Z M 6 40 C 5.445313 40 5 40.449219 5 41 L 5 43 C 5 43.550781 5.445313 44 6 44 C 6.554688 44 7 43.550781 7 43 L 7 41 C 7 40.449219 6.554688 40 6 40 Z M 11 40 C 10.445313 40 10 40.449219 10 41 L 10 43 C 10 43.550781 10.445313 44 11 44 C 11.554688 44 12 43.550781 12 43 L 12 41 C 12 40.449219 11.554688 40 11 40 Z M 16 40 C 15.445313 40 15 40.449219 15 41 L 15 43 C 15 43.550781 15.445313 44 16 44 C 16.554688 44 17 43.550781 17 43 L 17 41 C 17 40.449219 16.554688 40 16 40 Z M 21 40 C 20.445313 40 20 40.449219 20 41 L 20 43 C 20 43.550781 20.445313 44 21 44 C 21.554688 44 22 43.550781 22 43 L 22 41 C 22 40.449219 21.554688 40 21 40 Z M 26 40 C 25.445313 40 25 40.449219 25 41 L 25 43 C 25 43.550781 25.445313 44 26 44 C 26.554688 44 27 43.550781 27 43 L 27 41 C 27 40.449219 26.554688 40 26 40 Z M 31 40 C 30.445313 40 30 40.449219 30 41 L 30 43 C 30 43.550781 30.445313 44 31 44 C 31.554688 44 32 43.550781 32 43 L 32 41 C 32 40.449219 31.554688 40 31 40 Z M 36 40 C 35.445313 40 35 40.449219 35 41 L 35 43 C 35 43.550781 35.445313 44 36 44 C 36.554688 44 37 43.550781 37 43 L 37 41 C 37 40.449219 36.554688 40 36 40 Z M 41 40 C 40.445313 40 40 40.449219 40 41 L 40 43 C 40 43.550781 40.445313 44 41 44 C 41.554688 44 42 43.550781 42 43 L 42 41 C 42 40.449219 41.554688 40 41 40 Z M 46 40 C 45.445313 40 45 40.449219 45 41 L 45 43 C 45 43.550781 45.445313 44 46 44 C 46.554688 44 47 43.550781 47 43 L 47 41 C 47 40.449219 46.554688 40 46 40 Z M 51 40 C 50.445313 40 50 40.449219 50 41 L 50 43 C 50 43.550781 50.445313 44 51 44 C 51.554688 44 52 43.550781 52 43 L 52 41 C 52 40.449219 51.554688 40 51 40 Z M 56 40 C 55.445313 40 55 40.449219 55 41 L 55 43 C 55 43.550781 55.445313 44 56 44 C 56.554688 44 57 43.550781 57 43 L 57 41 C 57 40.449219 56.554688 40 56 40 Z M 2 47.816406 C 2.3125 47.929688 2.648438 48 3 48 L 59 48 C 59.351563 48 59.6875 47.929688 60 47.816406 L 60 51 C 60 51.550781 59.550781 52 59 52 L 3 52 C 2.449219 52 2 51.550781 2 51 Z"/></svg>