<svg xmlns="http://www.w3.org/2000/svg" viewBox="0 0 80 80" width="50px" height="50px"><path fill="#bae0bd" d="M3,3h74v74H3V3z"/><path fill="#fff" d="M46,24v-6h18v6H46z"/><path fill="#fff" d="M58,30l10-9l-10-9V30z"/><path fill="#fff" d="M46,52v-6h18v6H46z"/><path fill="#fff" d="M58,58l10-9l-10-9V58z"/><path fill="#fff" d="M16,34v-6h18v6H16z"/><path fill="#fff" d="M22,40l-10-9l10-9V40z"/><path fill="#fff" d="M16,62v-6h18v6H16z"/><path fill="#fff" d="M22,68l-10-9l10-9V68z"/><path fill="#5e9c76" d="M77,3v74H3V3H77 M78,2H2v76h76V2L78,2z"/></svg>