<svg xmlns="http://www.w3.org/2000/svg" viewBox="0 0 40 40" width="50px" height="50px"><path fill="#98ccfd" d="M4.769,37.5c-1.251,0-2.269-1.018-2.269-2.269V4.769C2.5,3.518,3.518,2.5,4.769,2.5h30.462 c1.251,0,2.269,1.018,2.269,2.269v30.462c0,1.251-1.018,2.269-2.269,2.269H4.769z"/><path fill="#4788c7" d="M35.231,3C36.206,3,37,3.794,37,4.769v30.462C37,36.206,36.206,37,35.231,37H4.769 C3.794,37,3,36.206,3,35.231V4.769C3,3.794,3.794,3,4.769,3H35.231 M35.231,2H4.769C3.24,2,2,3.24,2,4.769v30.462 C2,36.76,3.24,38,4.769,38h30.462C36.76,38,38,36.76,38,35.231V4.769C38,3.24,36.76,2,35.231,2L35.231,2z"/><path fill="none" stroke="#fff" stroke-miterlimit="10" stroke-width="3" d="M11 20.053L16.964 26.018 30.385 12.598"/></svg>