<svg fill="#e74c3c" xmlns="http://www.w3.org/2000/svg" viewBox="0 0 64 64" width="50px" height="50px"><path d="M 7 8 C 5.347656 8 4 9.347656 4 11 L 4 53 C 4 54.652344 5.347656 56 7 56 L 57 56 C 58.652344 56 60 54.652344 60 53 L 60 11 C 60 9.347656 58.652344 8 57 8 Z M 7 10 L 57 10 C 57.550781 10 58 10.449219 58 11 L 58 53 C 58 53.550781 57.550781 54 57 54 L 7 54 C 6.449219 54 6 53.550781 6 53 L 6 11 C 6 10.449219 6.449219 10 7 10 Z M 19 20 C 18.746094 20 18.488281 20.097656 18.292969 20.292969 L 15 23.585938 L 13.707031 22.292969 C 13.316406 21.902344 12.683594 21.902344 12.292969 22.292969 C 11.902344 22.683594 11.902344 23.316406 12.292969 23.707031 L 14.292969 25.707031 C 14.488281 25.902344 14.742188 26 15 26 C 15.257813 26 15.511719 25.902344 15.707031 25.707031 L 19.707031 21.707031 C 20.097656 21.316406 20.097656 20.683594 19.707031 20.292969 C 19.511719 20.097656 19.253906 20 19 20 Z M 25 22 C 24.445313 22 24 22.449219 24 23 C 24 23.550781 24.445313 24 25 24 L 29 24 C 29.554688 24 30 23.550781 30 23 C 30 22.449219 29.554688 22 29 22 Z M 33 22 C 32.445313 22 32 22.449219 32 23 C 32 23.550781 32.445313 24 33 24 L 51 24 C 51.554688 24 52 23.550781 52 23 C 52 22.449219 51.554688 22 51 22 Z M 19 28 C 18.746094 28 18.488281 28.097656 18.292969 28.292969 L 15 31.585938 L 13.707031 30.292969 C 13.316406 29.902344 12.683594 29.902344 12.292969 30.292969 C 11.902344 30.683594 11.902344 31.316406 12.292969 31.707031 L 14.292969 33.707031 C 14.488281 33.902344 14.742188 34 15 34 C 15.257813 34 15.511719 33.902344 15.707031 33.707031 L 19.707031 29.707031 C 20.097656 29.316406 20.097656 28.683594 19.707031 28.292969 C 19.511719 28.097656 19.253906 28 19 28 Z M 25 30 C 24.445313 30 24 30.449219 24 31 C 24 31.550781 24.445313 32 25 32 L 51 32 C 51.554688 32 52 31.550781 52 31 C 52 30.449219 51.554688 30 51 30 Z M 19 36 C 18.746094 36 18.488281 36.097656 18.292969 36.292969 L 15 39.585938 L 13.707031 38.292969 C 13.316406 37.902344 12.683594 37.902344 12.292969 38.292969 C 11.902344 38.683594 11.902344 39.316406 12.292969 39.707031 L 14.292969 41.707031 C 14.488281 41.902344 14.742188 42 15 42 C 15.257813 42 15.511719 41.902344 15.707031 41.707031 L 19.707031 37.707031 C 20.097656 37.316406 20.097656 36.683594 19.707031 36.292969 C 19.511719 36.097656 19.253906 36 19 36 Z M 25 38 C 24.445313 38 24 38.449219 24 39 C 24 39.550781 24.445313 40 25 40 L 39 40 C 39.554688 40 40 39.550781 40 39 C 40 38.449219 39.554688 38 39 38 Z M 43 38 C 42.445313 38 42 38.449219 42 39 C 42 39.550781 42.445313 40 43 40 L 51 40 C 51.554688 40 52 39.550781 52 39 C 52 38.449219 51.554688 38 51 38 Z M 10 48 C 9.445313 48 9 48.449219 9 49 L 9 51 C 9 51.550781 9.445313 52 10 52 C 10.554688 52 11 51.550781 11 51 L 11 49 C 11 48.449219 10.554688 48 10 48 Z M 15 48 C 14.445313 48 14 48.449219 14 49 L 14 51 C 14 51.550781 14.445313 52 15 52 C 15.554688 52 16 51.550781 16 51 L 16 49 C 16 48.449219 15.554688 48 15 48 Z M 20 48 C 19.445313 48 19 48.449219 19 49 L 19 51 C 19 51.550781 19.445313 52 20 52 C 20.554688 52 21 51.550781 21 51 L 21 49 C 21 48.449219 20.554688 48 20 48 Z M 25 48 C 24.445313 48 24 48.449219 24 49 L 24 51 C 24 51.550781 24.445313 52 25 52 C 25.554688 52 26 51.550781 26 51 L 26 49 C 26 48.449219 25.554688 48 25 48 Z M 30 48 C 29.445313 48 29 48.449219 29 49 L 29 51 C 29 51.550781 29.445313 52 30 52 C 30.554688 52 31 51.550781 31 51 L 31 49 C 31 48.449219 30.554688 48 30 48 Z M 35 48 C 34.445313 48 34 48.449219 34 49 L 34 51 C 34 51.550781 34.445313 52 35 52 C 35.554688 52 36 51.550781 36 51 L 36 49 C 36 48.449219 35.554688 48 35 48 Z M 40 48 C 39.445313 48 39 48.449219 39 49 L 39 51 C 39 51.550781 39.445313 52 40 52 C 40.554688 52 41 51.550781 41 51 L 41 49 C 41 48.449219 40.554688 48 40 48 Z M 45 48 C 44.445313 48 44 48.449219 44 49 L 44 51 C 44 51.550781 44.445313 52 45 52 C 45.554688 52 46 51.550781 46 51 L 46 49 C 46 48.449219 45.554688 48 45 48 Z M 50 48 C 49.445313 48 49 48.449219 49 49 L 49 51 C 49 51.550781 49.445313 52 50 52 C 50.554688 52 51 51.550781 51 51 L 51 49 C 51 48.449219 50.554688 48 50 48 Z M 55 48 C 54.445313 48 54 48.449219 54 49 L 54 51 C 54 51.550781 54.445313 52 55 52 C 55.554688 52 56 51.550781 56 51 L 56 49 C 56 48.449219 55.554688 48 55 48 Z"/></svg>