<svg xmlns="http://www.w3.org/2000/svg" viewBox="0 0 80 80" width="50px" height="50px"><path fill="#f78f8f" d="M8.1,73.5c-2,0-3.8-1-4.8-2.8c-1-1.8-1-3.9,0-5.6L35.2,9.3c1-1.8,2.8-2.8,4.8-2.8s3.8,1,4.8,2.8 l31.9,55.8c1,1.8,1,3.9,0,5.6c-1,1.7-2.8,2.8-4.8,2.8H8.1z"/><path fill="#c74343" d="M40,7c1.8,0,3.5,1,4.4,2.6l31.9,55.8c0.9,1.6,0.9,3.5,0,5.1c-0.9,1.6-2.6,2.5-4.4,2.5H8.1 c-1.8,0-3.4-0.9-4.4-2.5c-0.9-1.6-0.9-3.5,0-5.1L35.6,9.6C36.5,8,38.2,7,40,7 M40,6c-2,0-4.1,1-5.2,3.1L2.8,64.8 C0.5,68.9,3.4,74,8.1,74h63.9c4.7,0,7.6-5.1,5.2-9.2L45.2,9.1C44.1,7,42,6,40,6L40,6z"/><path fill="#fff" d="M8.6,70.4c-0.9,0-1.7-0.5-2.2-1.2c-0.5-0.8-0.5-1.7,0-2.5l31.4-55c0.5-0.8,1.3-1.3,2.2-1.3 s1.7,0.5,2.2,1.3l31.4,55c0.4,0.8,0.4,1.7,0,2.5c-0.5,0.8-1.3,1.2-2.2,1.2L8.6,70.4L8.6,70.4z"/><path fill="#c74343" d="M40,10.9c0.7,0,1.4,0.3,1.7,1l31.4,55c0.8,1.3-0.2,3-1.7,3H8.6c-1.5,0-2.5-1.7-1.7-3l31.4-55 C38.6,11.2,39.3,10.9,40,10.9 M40,9.9c-1.1,0-2.1,0.6-2.6,1.5L6,66.4c-0.5,0.9-0.5,2.1,0,3c0.5,0.9,1.5,1.5,2.6,1.5h62.9 c1.1,0,2.1-0.6,2.6-1.5s0.5-2.1,0-3l-31.4-55C42.1,10.4,41.1,9.9,40,9.9L40,9.9z"/><path fill="#36404d" d="M40.2 35H41.6V64H40.2z" transform="rotate(-57.526 40.868 49.542)"/><path fill="#36404d" d="M41.6,44.4l1.5,7.6c0.1,0.7,0.9,1.2,1.6,1.1l0,0c0.8-0.1,1.3-0.9,1.1-1.6L44,41.7 c-0.1-0.6-0.4-1.1-0.9-1.4c-1.2-0.8-3.3-2.4-4.2-3.1c-0.3-0.2-0.5-0.3-0.8-0.4l-4.8-1.7c-1-0.2-1.9,0.1-2.5,1l-4.1,5.3 c-0.5,0.6-0.3,1.5,0.3,2l0,0c0.6,0.4,1.5,0.3,1.9-0.3l3.8-4.9l2.9,1.1l-4.8,6.8L26.4,64h2.8L34,50.6l3.6,5.1L39,64l3,0l-1.2-9.7 l-2.8-5L41.6,44.4z"/><g><path fill="#36404d" d="M44.2 30.7A3.3 3.3 0 1 0 44.2 37.3A3.3 3.3 0 1 0 44.2 30.7Z"/></g><g><path fill="#36404d" d="M44.2,64H62c-1.8-4.4-5.4-11.1-7.3-11.1c-1.8,0-3.6,7.3-5,7.3c-0.7,0-1.6-0.7-2.5-0.7 C46.2,59.5,44.2,62.5,44.2,64z"/></g></svg>