<svg fill="#000000" xmlns="http://www.w3.org/2000/svg" viewBox="0 0 50 50" width="50px" height="50px"><path d="M 25 3 C 23.96875 3 23.042969 3.527344 22.53125 4.40625 L 2.4375 39.3125 C 1.886719 40.277344 1.878906 41.476563 2.4375 42.4375 C 2.972656 43.363281 3.921875 43.90625 4.96875 43.90625 C 5.03125 43.90625 5.09375 43.910156 5.09375 43.90625 L 44.8125 43.90625 C 45.964844 43.90625 46.992188 43.296875 47.5625 42.3125 C 48.128906 41.332031 48.125 40.167969 47.5625 39.1875 L 27.46875 4.40625 C 26.957031 3.53125 26.03125 3 25 3 Z M 26.1875 18 C 27.238281 18 28.09375 18.855469 28.09375 19.90625 C 28.09375 20.957031 27.238281 21.8125 26.1875 21.8125 C 25.136719 21.8125 24.3125 20.957031 24.3125 19.90625 C 24.3125 18.855469 25.136719 18 26.1875 18 Z M 23.1875 21.8125 C 23.386719 21.8125 23.789063 21.992188 24.6875 22.59375 C 25.6875 23.195313 26 23.6875 26 23.6875 C 26.101563 23.886719 26.210938 24.105469 26.3125 24.40625 C 26.3125 24.40625 26.96875 28.277344 27.28125 29.78125 L 30.53125 31.40625 C 30.613281 31.445313 30.6875 31.503906 30.75 31.5625 C 31.46875 30.515625 31.671875 30.5 32 30.5 C 32.300781 30.5 32.699219 30.800781 33 31.5 C 33.199219 32.101563 36 38 36 38 L 26 38 L 27.90625 34.1875 C 28.007813 33.886719 28.414063 33.8125 28.8125 33.8125 C 29.058594 33.8125 29.324219 33.554688 29.625 33.1875 L 23.15625 29.96875 C 23.570313 30.738281 24.351563 32.207031 24.5 32.5 C 24.601563 32.699219 24.6875 32.988281 24.6875 33.1875 C 24.6875 33.386719 24.8125 36.210938 24.8125 36.8125 C 24.8125 37.511719 24.800781 38 24 38 C 23.199219 38 23.1875 37 23.1875 37 L 22.6875 32.90625 L 20.5 30.90625 L 18.09375 37.1875 C 18.09375 37.1875 17.804688 38.300781 16.90625 38 C 16.105469 37.699219 16.210938 36.699219 16.3125 36.5 C 16.414063 36.300781 18.585938 28.707031 18.6875 28.40625 C 18.726563 28.285156 18.804688 28.066406 18.875 27.84375 L 17.34375 27.09375 C 16.929688 26.890625 16.757813 26.433594 16.84375 26 C 16.734375 25.785156 16.699219 25.488281 17 25.1875 C 17 25.1875 19.710938 22.289063 19.8125 22.1875 C 19.914063 22.085938 20.011719 22 20.3125 22 C 20.511719 21.898438 23.1875 21.8125 23.1875 21.8125 Z M 20.40625 23.90625 L 18.75 25.5625 L 19.84375 26.09375 C 20.3125 25.421875 20.992188 24.5 21.40625 23.90625 Z M 24.8125 26.09375 L 23.5625 27.9375 L 25.46875 28.90625 C 25.230469 27.992188 24.984375 26.839844 24.8125 26.09375 Z"/></svg>