<svg xmlns="http://www.w3.org/2000/svg" viewBox="0 0 100 100" width="50px" height="50px"><path fill="#fefdef" d="M47.212,60.418H14.734c-3.954,0-7.189-3.235-7.189-7.189v-14.17c0-3.954,3.235-7.189,7.189-7.189h60.811"/><path fill="#8f9eb6" d="M66.546,40.541l22.948,21.418l-11.091,0.956l6.311,13.96l-4.207,1.912l-6.119-14.151l-7.84,7.458V40.541z"/><path fill="none" d="M71.31 51.741L71.505 52.196M66.756 41.101L70.737 50.033"/><path fill="#1f212b" d="M19.504 40.798v3.595c.577-.748 1.286-.971 2.021-.971 1.837 0 2.651 1.247 2.651 3.149v3.412h-1.602v-3.399c0-1.181-.616-1.68-1.47-1.68-.944 0-1.601.801-1.601 1.772v3.307h-1.602v-9.186H19.504zM27.781 41.69v1.837h1.784v1.377h-1.798V47.7c0 .617.342.918.84.918.25 0 .538-.079.774-.197l.446 1.365c-.459.184-.84.262-1.325.275-1.404.053-2.323-.748-2.323-2.362v-2.795h-1.207v-1.377h1.207V41.86L27.781 41.69zM33.016 41.69v1.837H34.8v1.377h-1.798V47.7c0 .617.342.918.84.918.25 0 .538-.079.774-.197l.446 1.365c-.459.184-.84.262-1.325.275-1.404.053-2.323-.748-2.323-2.362v-2.795h-1.207v-1.377h1.207V41.86L33.016 41.69zM35.992 52.686v-9.172h1.495l.105.892c.499-.722 1.364-1.037 2.1-1.037 1.994 0 3.32 1.483 3.32 3.386 0 1.89-1.194 3.385-3.268 3.385-.683 0-1.693-.21-2.152-.918v3.464H35.992zM41.411 46.755c0-1.011-.683-1.837-1.837-1.837-1.155 0-1.837.827-1.837 1.837 0 1.01.748 1.837 1.837 1.837S41.411 47.766 41.411 46.755zM46.119 45.351c0 1.22-1.863 1.22-1.863 0C44.256 44.118 46.119 44.118 46.119 45.351zM46.119 49.157c0 1.22-1.863 1.22-1.863 0C44.256 47.923 46.119 47.923 46.119 49.157zM52.666 39.932L48.283 51.06h-1.666l4.369-11.128H52.666zM58.634 39.932L54.251 51.06h-1.666l4.369-11.128H58.634z"/><g><path fill="#1f212b" d="M47.929,60H15.118c-3.412,0-6.188-2.776-6.188-6.189V39.189c0-3.413,2.776-6.189,6.188-6.189h61.812c0.553,0,1-0.448,1-1s-0.447-1-1-1H15.118c-4.516,0-8.188,3.673-8.188,8.189v14.622c0,4.516,3.673,8.189,8.188,8.189h32.812c0.553,0,1-0.448,1-1S48.482,60,47.929,60z"/><path fill="#1f212b" d="M90.56,61.69L67.612,40.273c-0.293-0.272-0.718-0.344-1.081-0.186c-0.365,0.159-0.602,0.519-0.602,0.917v31.553c0,0.4,0.238,0.761,0.605,0.919c0.367,0.158,0.794,0.081,1.084-0.194l6.803-6.47l5.55,12.836c0.106,0.246,0.308,0.439,0.559,0.536c0.115,0.044,0.237,0.067,0.359,0.067c0.142,0,0.282-0.03,0.414-0.09l4.207-1.912c0.502-0.228,0.725-0.819,0.497-1.322l-5.729-12.673l9.685-0.835c0.394-0.034,0.73-0.296,0.859-0.67C90.952,62.375,90.848,61.96,90.56,61.69z M78.7,62.382c-0.323,0.028-0.612,0.21-0.776,0.49c-0.164,0.28-0.183,0.622-0.049,0.918l5.899,13.05l-2.371,1.078l-5.715-13.216c-0.13-0.3-0.397-0.518-0.718-0.583c-0.066-0.013-0.134-0.02-0.2-0.02c-0.254,0-0.502,0.097-0.689,0.275l-6.151,5.851V45.312L70.33,50.7c0.083,0.186,0.266,0.296,0.457,0.296c0.068,0,0.138-0.014,0.203-0.043c0.253-0.112,0.366-0.408,0.254-0.66l-2.971-6.666l19.278,17.992L78.7,62.382z"/><path fill="#1f212b" d="M70.901 52.4l.195.456c.082.19.267.303.46.303.066 0 .133-.013.197-.041.254-.109.371-.403.263-.656l-.195-.456c-.11-.254-.405-.371-.657-.262C70.91 51.853 70.792 52.147 70.901 52.4zM24.203 50.174v-3.412c0-1.902-.814-3.149-2.651-3.149-.734 0-1.443.223-2.021.971v-3.595h-1.602v9.186h1.602v-3.307c0-.971.656-1.772 1.601-1.772.854 0 1.47.499 1.47 1.68v3.399H24.203zM28.53 50.253c.485-.013.866-.092 1.325-.275l-.446-1.365c-.236.118-.524.197-.774.197-.498 0-.84-.302-.84-.918v-2.795h1.798v-1.377h-1.784v-1.837l-1.602.17v1.667h-1.207v1.377h1.207v2.795C26.206 49.505 27.125 50.306 28.53 50.253zM33.764 50.253c.485-.013.866-.092 1.325-.275l-.446-1.365c-.236.118-.524.197-.774.197-.498 0-.84-.302-.84-.918v-2.795h1.798v-1.377h-1.784v-1.837l-1.602.17v1.667h-1.207v1.377h1.207v2.795C31.441 49.505 32.36 50.306 33.764 50.253zM37.62 44.597l-.105-.892h-1.495v9.172h1.601v-3.464c.459.708 1.47.918 2.152.918 2.073 0 3.268-1.496 3.268-3.385 0-1.903-1.326-3.386-3.32-3.386C38.984 43.561 38.119 43.875 37.62 44.597zM41.438 46.946c0 1.01-.748 1.837-1.837 1.837s-1.837-.827-1.837-1.837c0-1.011.682-1.837 1.837-1.837C40.755 45.109 41.438 45.936 41.438 46.946zM44.283 45.542c0 1.22 1.863 1.22 1.863 0C46.146 44.309 44.283 44.309 44.283 45.542zM44.283 49.348c0 1.22 1.863 1.22 1.863 0C46.146 48.114 44.283 48.114 44.283 49.348zM48.31 51.25L52.693 40.123 51.013 40.123 46.644 51.25zM52.612 51.25L54.278 51.25 58.661 40.123 56.981 40.123z"/></g></svg>