<?xml version="1.0" encoding="UTF-8" standalone="no"?>
<svg
   xmlns:dc="http://purl.org/dc/elements/1.1/"
   xmlns:cc="http://creativecommons.org/ns#"
   xmlns:rdf="http://www.w3.org/1999/02/22-rdf-syntax-ns#"
   xmlns:svg="http://www.w3.org/2000/svg"
   xmlns="http://www.w3.org/2000/svg"
   xmlns:sodipodi="http://sodipodi.sourceforge.net/DTD/sodipodi-0.dtd"
   xmlns:inkscape="http://www.inkscape.org/namespaces/inkscape"
   id="svg4"
   version="1.1"
   viewBox="0 0 512 512"
   fill="#f00"
   sodipodi:docname="git.svg"
   inkscape:version="0.92.4 (unknown)">
  <defs
     id="defs8" />
  <path
    
     d="M 223.43845,510.51741 C 138.41901,499.44001 65.434126,447.83521 26.889596,371.54525 8.0751057,334.30632 -0.06155426,299.73833 -0.06155426,257.04525 c 0,-42.78608 8.29388996,-78.13782 27.04262026,-115.26595 15.82301,-31.33433 38.69723,-60.112334 65.95738,-82.980817 C 130.35776,27.407495 179.67016,6.3643034 228.14904,1.0997654 c 12.49305,-1.35667702 43.08577,-1.35667702 55.57882,0 39.961,4.339544 78.92368,18.5956886 113.21059,41.4228826 56.19327,37.411792 96.42382,96.593492 110.00203,161.819982 6.84949,32.90335 6.82676,72.59475 -0.0605,105.70262 -7.18682,34.54769 -23.70147,70.86188 -45.24975,99.5 -7.95651,10.57436 -10.94612,13.98074 -23.55897,26.84318 -40.21202,41.00776 -92.94857,67.03715 -150.17348,74.12172 -15.13421,1.87365 -50.10441,1.87759 -64.45929,0.007 z m -42.5,-62.08057 v -19.60841 l -2.61418,0.65612 c -4.90725,1.23164 -21.79828,0.67827 -27.88582,-0.91358 -16.35135,-4.27576 -27.16232,-12.76774 -39.4982,-31.02572 -7.52052,-11.13091 -15.307764,-17.52877 -23.119004,-18.99416 l -3.54809,-0.66563 -1.18692,-14.60054 c -0.77582,-9.54344 -0.8472,-14.94026 -0.20609,-15.58137 1.66437,-1.66437 16.83502,1.04606 23.522114,4.20253 12.32359,5.81703 20.9902,13.91211 31.26228,29.20063 9.00466,13.40215 16.05638,17.93161 27.77391,17.83973 3.85,-0.0302 8.8,-0.59532 11,-1.25584 3.54043,-1.06296 4.09595,-1.65731 4.83516,-5.17314 0.7059,-3.35744 1.83191,-7.07008 6.20902,-20.47221 0.37338,-1.14325 -1.95192,-2.28578 -9.77714,-4.80394 -46.77402,-15.05189 -79.134144,-50.90917 -87.269274,-96.70044 -2.16052,-12.16119 -2.18256,-34.31547 -0.0463,-46.49562 3.02898,-17.26982 10.338944,-36.09171 19.015014,-48.96039 l 3.68139,-5.46039 -1.21666,-10.26611 c -1.49642,-12.62664 -0.67898,-34.5053 1.59798,-42.76994 4.69997,-17.059306 12.86315,-24.543171 26.77097,-24.543171 13.75471,0 29.07081,5.262035 49.67501,17.066461 l 12.09694,6.9305 12.21392,-2.4669 c 27.52965,-5.56029 56.16321,-5.55461 83.57119,0.0166 l 12.35726,2.51185 10.14274,-5.90639 c 17.33279,-10.09334 24.85761,-13.44214 37.28708,-16.594014 7.92755,-2.010272 19.32736,-2.013769 24.13778,-0.0074 7.68844,3.206751 13.40918,11.090874 16.69159,23.003764 2.27395,8.25287 3.09044,30.14066 1.59504,42.75866 l -1.21666,10.26611 3.68139,5.46039 c 8.56479,12.70363 15.999,31.69481 18.97012,48.46039 2.08644,11.77343 2.07703,35.0662 -0.019,46.99562 -4.94303,28.13334 -19.37888,53.35785 -40.70527,71.12649 -13.77358,11.47581 -32.20856,21.44307 -49.06632,26.52872 -5.88687,1.77595 -7.66468,2.71519 -7.28582,3.84917 0.27563,0.825 1.75242,4.875 3.28175,9 l 2.78061,7.5 0.31747,39.75 c 0.17462,21.8625 0.53993,39.75 0.81182,39.75 0.27189,0 4.40637,-1.61633 9.18774,-3.59184 75.48478,-31.18799 127.94946,-99.02932 138.74424,-179.40818 1.9001,-14.14833 1.83263,-41.8373 -0.13929,-57.15826 C 471.10948,163.86179 433.87278,104.49797 379.10829,68.078818 311.43187,23.07305 225.34103,18.488558 153.26861,56.052451 88.514416,89.802105 43.512026,152.97854 32.942016,224.97246 c -2.47832,16.88021 -2.6862,43.76299 -0.46918,60.67535 10.36336,79.05618 63.11988,147.31832 137.965614,178.51496 4.95,2.06323 9.3375,3.78083 9.75,3.8169 0.4125,0.0361 0.75,-8.7582 0.75,-19.54283 z"
     id="path843"
     inkscape:connector-curvature="0" />
</svg>
