<?xml version="1.0" encoding="UTF-8" standalone="no"?>
<svg
   xmlns:dc="http://purl.org/dc/elements/1.1/"
   xmlns:cc="http://creativecommons.org/ns#"
   xmlns:rdf="http://www.w3.org/1999/02/22-rdf-syntax-ns#"
   xmlns:svg="http://www.w3.org/2000/svg"
   xmlns="http://www.w3.org/2000/svg"
   xmlns:sodipodi="http://sodipodi.sourceforge.net/DTD/sodipodi-0.dtd"
   xmlns:inkscape="http://www.inkscape.org/namespaces/inkscape"
   id="svg1756"
   version="1.1"
   viewBox="0 0 190.5 190.49998"
   height="720"
   width="720"
   sodipodi:docname="idea.svg"
   inkscape:version="0.92.4 (unknown)">
  <sodipodi:namedview
     pagecolor="#ffffff"
     bordercolor="#666666"
     borderopacity="1"
     objecttolerance="10"
     gridtolerance="10"
     guidetolerance="10"
     inkscape:pageopacity="0"
     inkscape:pageshadow="2"
     inkscape:window-width="1366"
     inkscape:window-height="744"
     id="namedview122"
     showgrid="false"
     inkscape:zoom="0.42679344"
     inkscape:cx="12.256244"
     inkscape:cy="150.59784"
     inkscape:window-x="0"
     inkscape:window-y="0"
     inkscape:window-maximized="1"
     inkscape:current-layer="svg1756"
     units="px" />
  <defs
     id="defs1750" />
  <metadata
     id="metadata1753">
    <rdf:RDF>
      <cc:Work
         rdf:about="">
        <dc:format>image/svg+xml</dc:format>
        <dc:type
           rdf:resource="http://purl.org/dc/dcmitype/StillImage" />
        <dc:title></dc:title>
      </cc:Work>
    </rdf:RDF>
  </metadata>
  <path
     style="fill:#000000;stroke-width:0.25531119"
     d="m 132.84079,183.30707 c -0.46875,-0.46821 -0.59672,-0.7963 -0.47337,-1.2124 0.34321,-1.1555 0.64656,-1.20857 6.89271,-1.20857 5.49667,0 5.94272,0.0266 6.35324,0.48816 0.62202,0.68809 0.43546,1.84484 -0.36275,2.24664 -0.45367,0.22819 -2.24601,0.32296 -6.20277,0.3258 l -5.56429,0.003 z m -3.55838,-5.85639 c -0.34477,-0.34375 -0.6267,-0.75147 -0.6267,-0.90475 0,-0.15337 0.28193,-0.56078 0.6267,-0.9055 l 0.62666,-0.62638 h 9.27367 c 10.24188,0 10.4082,0.0168 10.4082,1.53188 0,1.50688 -0.16632,1.53162 -10.4082,1.53162 h -9.27367 z m -1.90339,-5.75586 c -0.28088,-0.28092 -0.51063,-0.61953 -0.51063,-0.75333 0,-0.59891 0.6207,-1.514 1.11622,-1.647 0.29891,-0.0792 5.36895,-0.14573 11.26625,-0.14573 8.10837,1.9e-4 10.87882,0.0769 11.36163,0.32144 0.79829,0.40193 0.98508,1.55947 0.36257,2.24742 -0.42247,0.46698 -0.94077,0.48783 -11.76382,0.48783 -10.98079,0 -11.33708,-0.0104 -11.83222,-0.51069 z m -2.15178,-5.76237 c -0.49888,-0.499 -0.52279,-1.73358 -0.0395,-2.13345 0.26558,-0.22001 3.92809,-0.29405 13.96441,-0.28066 12.2122,0.0108 13.65198,0.0562 14.06499,0.43465 0.5662,0.51192 0.58537,1.068 0.0588,1.81317 l -0.39746,0.56732 h -13.6262 c -12.0473,0 -13.67298,-0.0406 -14.02763,-0.40103 z m 2.6129,-6.08042 c -0.65927,-0.17901 -1.40621,-0.48281 -1.65925,-0.67419 -1.36156,-1.03082 -2.24673,-2.04196 -2.78788,-3.18478 -0.59235,-1.25059 -0.60499,-1.43028 -0.62506,-8.93552 -0.008,-4.21271 -0.0971,-7.84873 -0.19387,-8.08009 -0.0949,-0.23135 -0.86832,-0.94167 -1.71746,-1.5784 -0.84918,-0.63678 -2.48824,-2.14121 -3.64186,-3.34328 -11.25845,-11.72676 -10.95947,-30.70963 0.66402,-42.183746 5.79695,-5.722432 13.2193,-8.770632 21.3535,-8.769667 8.22691,9.92e-4 15.56882,3.062445 21.34639,8.900955 4.39099,4.438281 6.98803,9.241718 8.3275,15.405338 0.63362,2.91561 0.62493,8.94346 -0.0112,11.94754 -1.52163,7.12009 -5.40941,13.38532 -11.02999,17.77418 l -2.1085,1.64667 -0.0783,8.09752 -0.0782,8.09776 -0.76632,1.39507 c -0.42294,0.77117 -1.25614,1.76728 -1.86199,2.22721 -1.75748,1.33401 -3.13633,1.61146 -8.01322,1.61146 h -4.29687 v -22.95448 -22.95436 l 5.27751,-2.58468 c 2.90186,-1.42156 5.37015,-2.49085 5.48477,-2.37624 0.26127,0.26136 0.72646,2.66892 0.72646,3.76004 0,1.42653 1.73939,2.26198 2.58595,1.24198 0.44027,-0.53065 0.36079,-2.92778 -0.16398,-4.95381 -0.2086,-0.80482 -0.37916,-1.53097 -0.37916,-1.61368 0,-0.0825 0.56999,-0.43932 1.26742,-0.79256 1.49325,-0.75671 1.90111,-1.3559 1.54994,-2.2786 -0.37983,-0.99918 -1.36619,-1.10942 -2.95488,-0.33023 l -1.34569,0.65978 -0.7061,-1.01942 c -1.82336,-2.63101 -5.42812,-5.088187 -8.78921,-5.991647 -2.00474,-0.538836 -5.693,-0.598386 -7.65934,-0.123657 -3.34551,0.807727 -6.7977,3.019654 -8.82554,5.654804 l -1.15816,1.5048 -1.25488,-0.63592 c -1.49513,-0.75761 -2.0706,-0.79447 -2.63651,-0.16901 -0.93143,1.02895 -0.41867,1.98055 1.53143,2.84322 0.92409,0.40874 1.12897,0.60873 0.98845,0.96439 -0.35153,0.8881 -0.89125,3.78921 -0.89556,4.81328 -0.003,1.20228 0.57013,1.89057 1.57986,1.89057 0.87647,0 1.19596,-0.45324 1.36838,-1.94059 0.2453,-2.11129 0.65793,-3.67683 0.96637,-3.66439 0.16131,0.005 2.5914,1.18413 5.40002,2.61692 l 5.10577,2.60511 v 22.85032 22.85061 l -4.34001,0.044 c -2.87018,0.0257 -4.74621,-0.0556 -5.53892,-0.27589 z M 37.04755,140.28535 c -9.726877,-2.54812 -14.231281,-14.17251 -8.767572,-22.62598 1.099545,-1.70124 3.668581,-4.13148 5.386779,-5.09583 0.639154,-0.35872 1.879356,-0.88871 2.755996,-1.17776 1.565774,-0.51628 1.61541,-0.51722 2.80842,-0.0551 3.265223,1.2654 6.882002,-0.13669 8.569235,-3.32251 0.717123,-1.35402 0.773338,-4.45068 0.103494,-5.69073 -1.744515,-3.228437 -5.092108,-4.628588 -8.384266,-3.506887 -3.288194,1.12044 -5.178176,4.766957 -4.205209,8.113677 0.499134,1.71714 0.49905,1.70871 0.01876,1.70871 -0.214149,0 -1.162063,0.38909 -2.106448,0.86472 -4.656479,2.34487 -7.702668,5.82662 -9.407204,10.75191 -0.616283,1.78075 -0.712613,2.46787 -0.751687,5.36155 l -0.04486,3.31904 -0.990548,-0.0851 c -2.691847,-0.2319 -6.549521,-2.07092 -9.039036,-4.30924 -5.7210804,-5.14375 -8.0950188,-14.76166 -5.5841334,-22.62402 0.5820782,-1.82263 2.1684415,-5.130409 2.6536164,-5.533086 0.249867,-0.207359 0.746221,0.03909 2.01705,1.000791 3.711064,2.808915 9.391131,3.274465 15.799827,1.295058 1.760487,-0.5438 2.159209,-1.000282 1.927048,-2.205983 -0.187754,-0.97499 -1.08775,-1.079713 -3.34194,-0.388954 -1.818429,0.557203 -2.605965,0.647094 -5.80582,0.663047 -3.562338,0.01746 -3.757327,-0.006 -5.16839,-0.701637 -1.38318,-0.679268 -3.001564,-2.006741 -3.001564,-2.462012 0,-0.113816 0.775505,-0.83794 1.723368,-1.609393 2.920213,-2.376955 7.053624,-4.1417 10.394418,-4.437943 0.988149,-0.08751 2.004262,-0.265992 2.257866,-0.396366 1.093437,-0.562106 0.920932,-2.369216 -0.254286,-2.664136 -0.800282,-0.20087 -3.049006,0.09612 -5.411508,0.715101 C 14.720759,86.883168 9.089334,91.437293 6.1029496,97.394588 L 5.2734342,99.049273 4.2738719,97.922933 C 2.9266794,96.404804 1.112606,92.645712 0.45515956,90.009791 -0.00811914,88.152353 -0.06396634,87.357474 0.05149407,84.26528 0.19202815,80.501542 0.48600647,79.185151 1.8685601,76.128481 3.2098559,73.16294 6.3054156,69.570559 9.0786233,67.761204 c 1.6308417,-1.064069 5.0020777,-2.590621 6.3983717,-2.897301 0.974598,-0.214033 1.416217,-0.696936 1.416217,-1.548501 0,-0.921615 -0.514715,-1.404255 -1.497544,-1.404255 -1.24036,0 -5.13283,1.630905 -7.6212124,3.193158 L 5.6334738,66.448427 5.1013369,65.211487 C 3.9526511,62.541255 3.6815047,60.946328 3.6939026,56.932613 3.7056103,53.353597 3.7570508,52.949742 4.4892618,50.762435 5.709782,47.116551 6.8736334,45.271253 9.776314,42.379834 l 2.56304,-2.5531 0.175004,2.680763 c 0.220082,3.370808 0.545224,4.767633 1.640809,7.048977 1.728218,3.598688 4.851416,6.820999 8.216318,8.477001 1.245171,0.612867 1.34678,0.735135 1.602631,1.927958 0.651864,3.039443 3.02704,5.019482 6.512634,5.429125 1.213059,0.142479 1.50901,0.07302 2.766326,-0.645905 2.749658,-1.573172 4.150012,-3.892377 3.938883,-6.523223 -0.157602,-1.962816 -0.866992,-3.365244 -2.37277,-4.690663 -1.663042,-1.463866 -3.279384,-1.959392 -5.255849,-1.611225 -1.870062,0.32941 -2.957296,0.971853 -4.301521,2.541859 l -1.022858,1.194649 -1.343115,-0.735908 c -2.683185,-1.470043 -5.839295,-5.30311 -6.72594,-8.168484 -0.549123,-1.774632 -0.774454,-6.668386 -0.379294,-8.237817 0.79307,-3.149513 2.846871,-6.364463 5.30404,-8.302815 1.333694,-1.052097 1.594165,-0.962589 1.606143,0.552164 0.003,0.491475 0.277669,1.871554 0.608403,3.06691 1.724428,6.23204 6.407625,11.899797 12.285561,14.868267 2.345227,1.184328 5.690326,2.217946 7.728424,2.387943 l 1.97505,0.164726 1.020414,1.808642 c 1.636835,2.901301 5.390607,6.586612 8.602299,8.44539 1.03035,0.596297 1.281853,0.650378 1.787164,0.384125 1.544205,-0.813504 1.340346,-1.72159 -0.722448,-3.217711 -3.125358,-2.266735 -4.719831,-3.693835 -5.893054,-5.274579 -2.603745,-3.508251 -3.586213,-7.014349 -2.780762,-9.923931 0.538614,-1.945672 1.493679,-3.485353 3.206145,-5.16849 0.708921,-0.696838 1.28903,-1.472384 1.28903,-1.723361 0,-0.633178 -0.906363,-1.47765 -1.586007,-1.47765 -0.972637,0 -3.904771,3.256506 -4.994708,5.547131 -0.87313,1.834909 -0.951498,2.191493 -1.039718,4.72918 -0.109943,3.154737 0.004,3.055074 -2.729917,2.355408 -3.953865,-1.011216 -7.270353,-2.903615 -9.989821,-5.700224 -2.464693,-2.534621 -3.867184,-4.825913 -4.987214,-8.148117 -0.931006,-2.761354 -0.969708,-3.012468 -0.969708,-6.290391 0,-2.887588 0.0984,-3.75519 0.640585,-5.624828 C 27.619018,16.904338 30.79026,12.540392 34.965247,9.8420165 38.357866,7.649267 42.613084,6.42019 46.32382,6.561233 l 1.974581,0.07487 -1.889529,1.195446 c -5.188834,3.28268 -8.707322,8.988681 -9.078839,14.723474 -0.171628,2.649031 0.121474,3.181612 1.679293,3.051443 l 0.925706,-0.07721 0.181249,-2.042489 c 0.249019,-2.806066 0.572989,-3.988408 1.783806,-6.51042 2.10716,-4.388983 6.615047,-7.8348405 11.566455,-8.8415405 3.805505,-0.7737345 8.172173,-0.01995 11.550256,1.9939475 3.220787,1.920102 6.130595,5.622863 7.287144,9.273035 l 0.566212,1.787188 v 52.594086 52.594117 l -0.726774,2.11749 c -0.507537,1.4787 -1.170462,2.71113 -2.197329,4.085 -2.124134,2.84206 -3.250846,3.78393 -6.267084,5.23894 -2.856744,1.37802 -3.587158,1.54298 -6.893399,1.55681 -2.524245,0.007 -3.411818,-0.0938 -5.040394,-0.59337 l -1.976752,-0.60612 -1.517494,0.80881 c -3.293456,1.75538 -7.571362,2.25195 -11.203353,1.30052 z m 68.3748,0.35575 c -1.28378,-0.2464 -2.46616,-0.67649 -4.28301,-1.55794 l -1.857472,-0.90116 -2.099836,0.60808 c -3.034931,0.87887 -6.940854,0.8396 -9.65613,-0.0972 -5.184642,-1.7886 -9.040901,-5.60443 -10.768995,-10.65612 l -0.56773,-1.65955 -0.0707,-51.955827 c -0.0789,-58.084265 -0.206773,-53.860755 1.744033,-57.630646 3.051092,-5.896014 9.233893,-9.410146 15.684055,-8.91438 4.241739,0.3260495 7.385685,1.7858765 10.499935,4.875429 2.93603,2.912681 4.37577,5.99305 4.83864,10.352067 0.0964,0.912728 0.3518,1.860555 0.56641,2.106309 0.44802,0.512956 1.59592,0.591732 2.04717,0.140292 0.47292,-0.47296 0.36667,-3.461174 -0.20216,-5.685329 -1.31003,-5.121977 -4.76236,-9.7216505 -9.17295,-12.221432 L 100.69898,6.6362 102.73374,6.56079 c 3.69872,-0.137376 7.99918,1.108961 11.39117,3.3012115 7.96829,5.1501015 11.43095,15.1537935 8.39647,24.2576495 -1.75982,5.279876 -5.8187,9.784691 -10.97215,12.177505 -2.20051,1.021713 -5.15314,1.827986 -6.68798,1.826235 -0.75703,-7.16e-4 -0.8907,-0.116682 -1.30911,-1.133941 -1.72228,-4.188234 -7.656483,-5.224667 -10.806039,-1.887374 -1.370583,1.452211 -1.876565,2.688097 -1.876565,4.583026 0,2.107613 0.458149,3.238385 1.964851,4.849099 1.245452,1.331495 2.831647,2.015462 4.674115,2.015462 2.412387,0 5.118238,-1.797585 6.083608,-4.041585 l 0.53875,-1.252288 1.56432,-0.176976 c 8.2105,-0.928946 16.0331,-6.917087 19.07978,-14.605555 0.89987,-2.272171 1.58114,-4.793012 1.58655,-5.874522 0.005,-1.338194 0.30427,-1.412529 1.58674,-0.397184 3.58982,2.842059 5.63234,7.11977 5.63234,11.795374 0,3.58953 -0.9458,6.342246 -3.18028,9.256101 -2.60821,3.401654 -7.26833,5.785549 -11.34309,5.802834 -1.26821,0.0044 -1.96715,0.648837 -1.84593,1.699277 0.11711,1.012724 1.01381,1.409655 2.76373,1.222956 9.36952,-0.999576 16.06279,-7.992211 16.52923,-17.26893 0.16216,-3.228339 0.0949,-3.216776 2.81122,-0.501576 4.37299,4.376371 6.39426,9.60745 6.12136,15.845162 -0.13441,3.07247 -0.57456,5.150353 -1.5392,7.254769 l -0.56149,1.226167 -1.0211,-0.751585 c -2.46341,-1.812827 -7.15391,-3.870892 -8.82194,-3.870892 -0.83086,0 -1.32677,0.533449 -1.32677,1.427778 0,0.901749 0.44346,1.253192 2.21852,1.757891 5.86669,1.667905 11.15424,6.554979 13.4036,12.387815 0.42112,1.093463 0.83953,2.442657 0.92779,2.998288 l 0.16181,1.010171 -1.79146,-0.455005 c -5.54675,-1.408655 -12.09322,-1.199794 -17.8694,0.570072 -1.80206,0.552213 -7.00609,2.87642 -7.69095,3.435001 -0.22123,0.180496 -1.14901,0.872451 -2.0618,1.53771 -3.87823,2.826619 -7.81528,7.536646 -10.06529,12.041102 -5.03278,10.075967 -4.43933,22.559727 1.52756,32.133317 1.29456,2.077 4.63785,6.21562 5.52034,6.83387 0.50114,0.35097 0.48541,0.38356 -0.50396,1.03816 -1.88934,1.25039 -4.509,1.9889 -7.32943,2.06619 -1.40428,0.0386 -2.84032,0.0148 -3.19135,-0.0527 z m 78.13466,-25.8805 -5.22468,-0.12776 -0.37716,-0.67268 c -0.3385,-0.60329 -0.33186,-0.7416 0.0559,-1.34039 l 0.43772,-0.66771 h 5.56173 c 6.04291,0 6.48949,0.0935 6.48949,1.35951 0,0.83784 -0.40903,1.36299 -1.1565,1.4845 -0.31188,0.0507 -2.91803,0.0346 -5.79108,-0.0356 z m -49.66085,-5.64145 c -2.80476,-1.39744 -5.20503,-2.64609 -5.33361,-2.77479 -0.14152,-0.14153 0.40301,-0.89718 1.38134,-1.91607 3.99353,-4.15887 9.85551,-5.117487 15.2576,-2.49503 1.49269,0.72464 4.64515,3.56357 4.64515,4.18326 0,0.31118 -10.15836,5.61077 -10.66093,5.5619 -0.10297,-0.007 -2.48485,-1.16182 -5.28955,-2.55927 z m -93.837462,-0.70344 c -3.443352,-1.8298 -2.242931,-6.94914 1.649672,-7.03512 0.793603,-0.0173 1.353216,0.1666 2.118596,0.69685 2.461722,1.70578 2.138531,5.10733 -0.619955,6.52451 -0.82827,0.42554 -2.143467,0.34774 -3.148313,-0.18624 z M 172.82461,94.335722 c -1.15877,-1.158558 -0.56189,-1.77575 4.52275,-4.677728 2.35705,-1.344961 4.48743,-2.521185 4.73438,-2.613838 0.71516,-0.268716 1.72122,0.546038 1.72122,1.39402 0,0.400839 -0.14906,0.852338 -0.33077,1.003242 -0.83011,0.688794 -9.27916,5.404944 -9.68288,5.404944 -0.25002,0 -0.6839,-0.229795 -0.9647,-0.51064 z M 158.78228,80.116426 c -0.53887,-0.192524 -1.02081,-0.857664 -1.02081,-1.407774 0,-0.455279 4.56174,-8.559541 5.33012,-9.469649 0.57125,-0.675913 1.83435,-0.478289 2.30261,0.360255 0.35871,0.643027 0.27857,0.831198 -2.24324,5.233916 -2.35284,4.107203 -3.33191,5.500863 -3.82235,5.440256 -0.0867,-0.0079 -0.33564,-0.08156 -0.54633,-0.157004 z M 29.273378,62.04675 c -1.737677,-0.60165 -2.486926,-1.665719 -2.486926,-3.531798 0,-3.645443 4.786544,-5.042047 6.824547,-1.991322 1.951523,2.921249 -0.999625,6.678917 -4.337621,5.52312 z m 66.191665,-9.13529 c -1.649544,-1.125952 -2.196275,-3.077324 -1.339819,-4.781985 0.965273,-1.92125 3.535246,-2.65299 5.375953,-1.530733 0.853583,0.520455 1.824943,2.215765 1.824943,3.185154 0,0.969419 -0.97136,2.664762 -1.824943,3.18519 -1.168085,0.712144 -2.945535,0.686794 -4.036134,-0.0576 z"
     id="path940"
     inkscape:connector-curvature="0" />
</svg>
