<?xml version="1.0" encoding="UTF-8" standalone="no"?>
<svg
   xmlns:dc="http://purl.org/dc/elements/1.1/"
   xmlns:cc="http://creativecommons.org/ns#"
   xmlns:rdf="http://www.w3.org/1999/02/22-rdf-syntax-ns#"
   xmlns:svg="http://www.w3.org/2000/svg"
   xmlns="http://www.w3.org/2000/svg"
   xmlns:sodipodi="http://sodipodi.sourceforge.net/DTD/sodipodi-0.dtd"
   xmlns:inkscape="http://www.inkscape.org/namespaces/inkscape"
   viewBox="0 0 40 40"
   width="50px"
   height="50px"
   version="1.1"
   id="svg8"
   sodipodi:docname="approval-50.svg"
   inkscape:export-filename="/code/flanksource/karina-ui/src/assets/svg/webfont-icon-source/approval-50.png"
   inkscape:export-xdpi="984.61536"
   inkscape:export-ydpi="984.61536"
   inkscape:version="1.0.1 (1.0.1+r75)">
  <metadata
     id="metadata14">
    <rdf:RDF>
      <cc:Work
         rdf:about="">
        <dc:format>image/svg+xml</dc:format>
        <dc:type
           rdf:resource="http://purl.org/dc/dcmitype/StillImage" />
      </cc:Work>
    </rdf:RDF>
  </metadata>
  <defs
     id="defs12" />
  <sodipodi:namedview
     pagecolor="#ffffff"
     bordercolor="#666666"
     borderopacity="1"
     objecttolerance="10"
     gridtolerance="10"
     guidetolerance="10"
     inkscape:pageopacity="0"
     inkscape:pageshadow="2"
     inkscape:window-width="1920"
     inkscape:window-height="1025"
     id="namedview10"
     showgrid="false"
     inkscape:zoom="12.416795"
     inkscape:cx="22.192972"
     inkscape:cy="29.764871"
     inkscape:window-x="0"
     inkscape:window-y="27"
     inkscape:window-maximized="1"
     inkscape:current-layer="svg8" />
  <path
     style="fill:#000000;stroke-width:0.0779695"
     d="m 19.35564,39.153392 c -0.257299,-0.144634 -1.236735,-0.705613 -2.176524,-1.24662 L 15.470409,36.923121 H 12.876608 10.282807 L 10.135083,36.708705 C 10.053835,36.590776 9.4720711,35.595847 8.8422736,34.49775 8.2124766,33.399654 7.6362383,32.448045 7.561744,32.383064 7.4872497,32.318083 6.5842289,31.781035 5.5550309,31.189623 4.5258329,30.598212 3.5521882,30.031899 3.391376,29.931149 L 3.0989902,29.747967 v -2.575888 c 0,-2.240217 -0.016754,-2.608407 -0.1285664,-2.825419 -0.070711,-0.137241 -0.574612,-1.021427 -1.1197789,-1.964859 -1.03655438,-1.793795 -1.31849876,-2.313569 -1.18422039,-2.183147 0.0441513,0.04288 0.62689059,1.0253 1.29497609,2.183147 l 1.2147011,2.105178 4.289e-4,2.582941 c 3.586e-4,2.181378 0.018314,2.597784 0.1154711,2.678417 0.063273,0.05251 1.054461,0.636834 2.2026397,1.298493 1.1481786,0.661659 2.1411262,1.266252 2.2065503,1.343541 0.065424,0.07729 0.6411691,1.049831 1.2794333,2.161205 0.6382649,1.111376 1.212956,2.082083 1.277091,2.157129 0.106691,0.12484 0.336107,0.136472 2.697014,0.136741 l 2.580402,3.12e-4 2.105178,1.214155 c 1.889838,1.089959 2.331539,1.360241 2.218234,1.357358 -0.0193,-4.68e-4 -0.245604,-0.119228 -0.502904,-0.263862 z m 0.857665,0.203192 c 0.04288,-0.04366 1.027328,-0.62659 2.187656,-1.295405 l 2.109686,-1.216027 h 2.575895 c 2.357061,0 2.585749,-0.01159 2.6919,-0.136447 0.0638,-0.07505 0.650862,-1.066233 1.304577,-2.202639 0.653714,-1.136407 1.229731,-2.107488 1.280038,-2.157957 0.05031,-0.05047 1.021253,-0.625973 2.157659,-1.278895 1.136407,-0.652922 2.127594,-1.239847 2.20264,-1.304279 0.124828,-0.107174 0.136447,-0.336323 0.136447,-2.691019 v -2.57387 l 1.214441,-2.111711 c 0.667942,-1.161441 1.250875,-2.146798 1.295405,-2.189681 0.134506,-0.129531 -0.143976,0.384158 -1.183531,2.183147 -0.545167,0.943432 -1.049068,1.827618 -1.119779,1.964859 -0.1118,0.216987 -0.128567,0.584895 -0.128567,2.821087 v 2.571558 l -0.214416,0.147958 c -0.117929,0.08138 -1.115045,0.665556 -2.215812,1.298177 -1.100768,0.63262 -2.051436,1.208753 -2.112595,1.280295 -0.06116,0.07154 -0.594208,0.972148 -1.18455,2.001346 -0.590344,1.029198 -1.157656,2.002842 -1.260695,2.163655 l -0.187342,0.292385 h -2.575761 c -2.240097,0 -2.608279,0.01675 -2.82529,0.128567 -0.137241,0.07071 -1.021427,0.574612 -1.964859,1.119779 -1.786903,1.032571 -2.31478,1.319128 -2.183147,1.185117 z m -2.326178,-2.239653 -2.092269,-1.207414 h -2.450426 -2.450424 l -0.258239,-0.40934 C 10.493737,35.27504 9.9304135,34.311995 9.3839382,33.360078 L 8.3903466,31.629318 6.4658868,30.522432 C 5.4074338,29.913645 4.4449395,29.348046 4.3270106,29.265547 L 4.1125943,29.115548 v -2.443839 -2.44384 L 2.8990504,22.120047 c -1.106054,-1.921122 -1.2050761,-2.123739 -1.1179438,-2.287501 0.05258,-0.09882 0.5986748,-1.049851 1.2135439,-2.113394 l 1.1179438,-1.933717 v -2.446761 -2.446762 l 0.2144163,-0.149998 c 0.1179289,-0.0825 1.0804232,-0.648098 2.1388762,-1.2568863 l 1.9244598,-1.106886 0.9935916,-1.730759 c 0.5464753,-0.951918 1.1097988,-1.914963 1.2518308,-2.1401 l 0.258239,-0.40934 h 2.450117 2.450117 l 2.107823,-1.213544 c 1.920047,-1.105435 2.123829,-1.205047 2.287501,-1.11817 0.09882,0.05246 1.050693,0.59855 2.115267,1.213543 l 1.935591,1.118171 h 2.438113 c 2.225707,0 2.448249,0.01189 2.554467,0.136447 0.06399,0.07505 0.632938,1.037795 1.264317,2.139442 l 1.147962,2.002996 2.002996,1.147962 c 1.101648,0.6313803 2.064397,1.2003233 2.139443,1.2643183 0.124563,0.106221 0.136446,0.32885 0.136446,2.556341 v 2.439986 l 1.117944,1.933717 c 0.614869,1.063543 1.160964,2.014571 1.213544,2.113394 0.08713,0.163762 -0.01189,0.366379 -1.117944,2.287501 l -1.213544,2.107822 v 2.437065 c 0,2.224915 -0.01188,2.447146 -0.136446,2.552877 -0.07505,0.0637 -1.038961,0.634404 -2.142034,1.268239 l -2.005587,1.152427 -1.104952,1.921104 c -0.607724,1.056607 -1.172452,2.017591 -1.254951,2.13552 l -0.149999,0.214416 h -2.444463 -2.444463 l -2.018917,1.166404 c -1.110405,0.641521 -2.069327,1.184858 -2.130938,1.207414 -0.06161,0.02256 -1.053543,-0.502326 -2.204291,-1.166404 z m 6.321957,-16.196897 c 3.870301,-3.870124 7.036912,-7.068734 7.036912,-7.10802 0,-0.12444 -1.975012,-2.073055 -2.101137,-2.073055 -0.06634,0 -2.813234,2.692446 -6.104209,5.983212 l -5.98359,5.983212 -2.362293,-2.357628 c -1.299261,-1.296696 -2.393035,-2.357629 -2.430609,-2.357629 -0.122223,0 -2.069939,1.976938 -2.069939,2.100993 0,0.155314 6.705615,6.865505 6.860823,6.865505 0.06442,0 3.28374,-3.166466 7.154042,-7.03659 z M 0.72279082,19.613883 C 0.79794382,19.463791 1.305478,18.569091 1.8506449,17.625659 2.3958118,16.682228 2.8997123,15.798041 2.9704238,15.6608 3.0822363,15.443788 3.0989902,15.075598 3.0989902,12.835382 V 10.259494 L 3.391376,10.076092 C 3.5521882,9.9752206 4.5468328,9.3957197 5.6016974,8.7883127 c 1.0548646,-0.607406 1.9704461,-1.16564 2.0346257,-1.24052 0.06418,-0.07488 0.5996981,-0.978215 1.1900408,-2.007413 0.5903433,-1.029198 1.1576564,-2.002843 1.2606941,-2.163655 l 0.187343,-0.292386 h 2.598004 2.598004 l 1.708707,-0.983979 c 2.049085,-1.17999096 2.7488,-1.56421297 2.644341,-1.45203897 -0.04288,0.04605 -1.025299,0.63034297 -2.183147,1.29842897 l -2.105177,1.214701 -2.580403,4.28e-4 c -2.361039,3.9e-4 -2.590266,0.01203 -2.696409,0.136876 -0.0638,0.07505 -0.6508628,1.066234 -1.3045774,2.20264 -0.6537141,1.136406 -1.2297314,2.107979 -1.280038,2.159051 -0.050307,0.05107 -1.0308854,0.635185 -2.1790641,1.29803 -1.1481786,0.662844 -2.1393665,1.2481363 -2.2026396,1.3006483 -0.097162,0.08064 -0.1150421,0.495896 -0.1150421,2.671884 v 2.576407 l -1.2144412,2.111711 c -1.09609268,1.905923 -1.60631189,2.72688 -1.23972778,1.994757 z M 39.101163,19.399466 c -0.143625,-0.246578 -0.706686,-1.223037 -1.251248,-2.169907 l -0.990112,-1.721583 v -2.57415 c 0,-2.3554 -0.01159,-2.584009 -0.136447,-2.690156 -0.07505,-0.0638 -1.066233,-0.6508633 -2.20264,-1.3045783 -1.136406,-0.653714 -2.107353,-1.229731 -2.157659,-1.280037 -0.05031,-0.05031 -0.626324,-1.021254 -1.280038,-2.15766 -0.653715,-1.136406 -1.240775,-2.127594 -1.304577,-2.20264 -0.106151,-0.124855 -0.334839,-0.136446 -2.6919,-0.136446 h -2.575895 l -2.109686,-1.216027 c -1.160328,-0.668815 -2.144773,-1.25174697 -2.187656,-1.29540497 -0.131633,-0.134012 0.396244,0.15254501 2.183147,1.18511697 0.943432,0.545167 1.827618,1.049067 1.964859,1.119779 0.217011,0.111812 0.585193,0.128566 2.82529,0.128566 h 2.575761 l 0.187342,0.292386 c 0.103039,0.160812 0.670351,1.134457 1.260695,2.163655 0.590342,1.029198 1.12339,1.929803 1.18455,2.001346 0.06116,0.07154 1.011827,0.647675 2.112595,1.280294 1.100767,0.632621 2.097883,1.2168003 2.215812,1.2981783 l 0.214416,0.147958 v 2.571557 c 0,2.236192 0.01677,2.6041 0.128567,2.821087 0.07071,0.137241 0.574612,1.021428 1.119779,1.964859 0.545167,0.943432 1.049594,1.829361 1.120948,1.968731 0.214251,0.418476 0.07411,0.285804 -0.205903,-0.194924 z"
     id="path204" />
</svg>
