<?xml version="1.0" encoding="UTF-8" standalone="no"?>
<svg
   xmlns:dc="http://purl.org/dc/elements/1.1/"
   xmlns:cc="http://creativecommons.org/ns#"
   xmlns:rdf="http://www.w3.org/1999/02/22-rdf-syntax-ns#"
   xmlns:svg="http://www.w3.org/2000/svg"
   xmlns="http://www.w3.org/2000/svg"
   width="720"
   height="720"
   viewBox="0 0 190.5 190.49999"
   version="1.1"
   id="svg1756">
  <metadata
     id="metadata8">
    <rdf:RDF>
      <cc:Work
         rdf:about="">
        <dc:format>image/svg+xml</dc:format>
        <dc:type
           rdf:resource="http://purl.org/dc/dcmitype/StillImage" />
        <dc:title></dc:title>
      </cc:Work>
    </rdf:RDF>
  </metadata>
  <defs
     id="defs6" />
  <path
     style="fill:#ffd815;fill-opacity:1"
     id="path929"
     d="m 146.67222,162.85806 c 0,-0.15378 -0.13326,-0.27961 -0.29612,-0.27961 -0.16287,0 -0.21835,0.12583 -0.12331,0.27961 0.095,0.15379 0.2283,0.27963 0.29612,0.27963 0.0678,0 0.12331,-0.12584 0.12331,-0.27963 z m 0.78433,-1.25826 c -0.006,-0.46137 -0.0684,-0.61626 -0.13926,-0.3442 -0.0709,0.27205 -0.0662,0.64954 0.0104,0.83884 0.0766,0.18931 0.1346,-0.0333 0.1289,-0.49464 z m -1.34357,0.35287 c 0,-0.23807 -0.20674,-0.51218 -0.45944,-0.60916 -0.68853,-0.26421 -0.73185,-0.0361 -0.10149,0.53435 0.47413,0.42909 0.56094,0.44066 0.56094,0.0748 z m -1.57038,-1.17559 c -0.22172,-0.5778 0.61359,-1.83362 1.21963,-1.83362 0.38038,0 0.34861,-0.0887 -0.15923,-0.44436 -0.34892,-0.2444 -0.81732,-0.37418 -1.04086,-0.2884 -0.22355,0.0858 -0.40646,0.0267 -0.40646,-0.13137 0,-0.15803 -0.11713,-0.21495 -0.26029,-0.12647 -0.14317,0.0885 -0.3406,0.0309 -0.43875,-0.12786 -0.0982,-0.15881 -0.28248,-0.22444 -0.40964,-0.14586 -0.12715,0.0786 -0.59031,-0.0444 -1.02923,-0.27333 -0.43893,-0.22892 -0.95003,-0.41699 -1.13579,-0.41793 -0.52058,-0.003 -2.59821,-2.09353 -2.59821,-2.61477 0,-0.63321 0.48003,-0.58195 0.90373,0.0965 0.19209,0.30757 0.44481,0.55923 0.5616,0.55923 0.1168,0 0.45142,0.23906 0.74361,0.53125 0.2922,0.2922 1.26735,0.73662 2.16702,0.98762 3.72136,1.03822 5.10943,1.84531 5.54752,3.2256 0.25545,0.80486 1.1104,0.72909 4.42965,-0.39259 3.64906,-1.23314 4.578,-1.41322 5.09156,-0.987 0.22438,0.18622 0.40797,0.24486 0.40797,0.1303 0,-0.11455 0.18344,-0.056 0.40766,0.13005 0.32962,0.27357 0.54046,0.20552 1.10151,-0.35553 0.38162,-0.38162 0.78457,-0.61283 0.89543,-0.5138 0.11088,0.099 0.0893,-0.009 -0.0478,-0.23937 -0.13716,-0.23068 -0.26877,-0.77203 -0.29245,-1.20298 -0.0237,-0.43096 -0.12071,-0.8612 -0.21561,-0.95609 -0.0949,-0.0949 -0.8957,-0.1614 -1.77958,-0.14777 -2.39315,0.0369 -2.86531,0.10208 -2.86531,0.39562 0,0.14659 -0.12582,0.18877 -0.27961,0.0937 -0.15379,-0.095 -0.27962,-0.42753 -0.27962,-0.73885 0,-0.31895 -0.14786,-0.51674 -0.33875,-0.45311 -0.18631,0.0621 -0.34359,0.48153 -0.34952,0.93205 -0.009,0.68969 -0.20961,0.91574 -1.26903,1.43043 -1.86029,0.90378 -3.81268,1.07655 -5.77223,0.51079 -1.77692,-0.51304 -3.45506,-1.60819 -3.45506,-2.25477 0,-0.58104 0.66692,-0.4994 1.25826,0.15403 0.65306,0.72162 0.71517,0.71401 2.28196,-0.27961 1.07964,-0.68469 1.62207,-0.83885 2.95166,-0.83885 1.45299,0 1.66233,-0.0733 1.93805,-0.67842 0.37392,-0.82066 0.10506,-2.07904 -0.49324,-2.30863 -0.57706,-0.22144 -3.46285,0.43415 -3.46285,0.78669 0,0.15183 -0.12583,0.1983 -0.27962,0.10325 -0.15379,-0.095 -0.27961,-0.0396 -0.27961,0.1233 0,0.16287 -0.15729,0.30124 -0.34952,0.30748 -0.19224,0.006 -0.78516,0.38373 -1.31761,0.83885 -0.53245,0.45511 -1.09867,0.82826 -1.25827,0.8292 -0.15959,8.4e-4 -0.63935,0.18387 -1.06613,0.40648 -0.69534,0.36272 -0.90414,0.34982 -2.00985,-0.12415 -0.67864,-0.2909 -2.11941,-1.11228 -3.20169,-1.8253 -1.08229,-0.71301 -2.09983,-1.21478 -2.2612,-1.11505 -0.16138,0.0997 -0.25884,0.0455 -0.21658,-0.12047 0.11829,-0.46466 -4.07287,-2.82777 -4.32282,-2.43736 -0.13036,0.20362 -0.207,0.13603 -0.20971,-0.18495 -0.002,-0.27821 -0.13011,-0.42807 -0.2839,-0.33302 -0.15379,0.095 -0.27961,0.0428 -0.27961,-0.11612 0,-0.30028 -1.54907,-1.2106 -1.83424,-1.07791 -0.0893,0.0416 -0.28712,-0.14727 -0.43954,-0.41964 -0.15242,-0.27236 -0.39522,-0.42222 -0.53956,-0.33301 -0.14434,0.0892 -0.26243,0.029 -0.26243,-0.13393 0,-0.16286 -0.13114,-0.29612 -0.29142,-0.29612 -0.16027,0 -0.44339,-0.13372 -0.62913,-0.29715 -0.29681,-0.26116 -5.26307,-3.41799 -6.76886,-4.30266 -2.45037,-1.43962 -2.3731,-1.35584 -2.37496,-2.57536 -0.002,-1.42354 -0.90642,-4.42818 -1.54507,-5.13387 -0.51899,-0.57348 -0.30457,-1.23761 0.32196,-0.99719 0.21988,0.0844 -0.0131,-0.39688 -0.51761,-1.06945 -0.50456,-0.67257 -1.05024,-1.44593 -1.21262,-1.71857 -0.27125,-0.45546 -0.35597,-0.43021 -1.0432,0.31094 -0.96559,1.04135 -1.41602,0.6504 -1.27619,-1.10767 0.11764,-1.47915 0.10355,-1.48425 -2.69806,-0.97698 -0.92273,0.16707 -1.90001,0.29983 -2.17173,0.29502 -0.82313,-0.0146 -1.29956,1.10479 -1.41313,3.32009 -0.0589,1.14928 -0.27343,2.43925 -0.4767,2.86659 -0.34012,0.71507 -0.28214,0.946 0.72753,2.89792 1.58327,3.06079 2.88261,4.05224 8.22729,6.27779 1.15341,0.48029 3.04081,1.39191 4.19422,2.02583 1.15342,0.63392 2.19149,1.12355 2.30683,1.08808 0.11534,-0.0355 0.20988,0.0299 0.21008,0.1452 2.1e-4,0.11534 0.84954,0.6501 1.8874,1.18836 1.03787,0.53826 1.96617,1.08726 2.06289,1.22 0.0967,0.13275 0.24408,0.0698 0.32745,-0.13981 0.11593,-0.29152 0.15677,-0.27919 0.17365,0.0525 0.0205,0.4034 2.42113,1.82862 2.88813,1.71468 0.11534,-0.0281 0.20971,0.0956 0.20971,0.27505 0,0.17941 0.0748,0.25145 0.16614,0.16007 0.0914,-0.0914 0.54852,0.26936 1.01587,0.80163 0.46734,0.53228 0.80152,0.99501 0.7426,1.02829 -1.00093,0.56546 -1.40011,0.61514 -3.47826,0.43293 -1.69499,-0.14861 -2.97923,-0.47544 -4.75244,-1.20946 -1.33639,-0.5532 -2.49843,-0.9372 -2.5823,-0.85333 -0.0839,0.0839 -0.0135,0.15249 0.15635,0.15249 0.16986,0 0.28988,0.25166 0.26671,0.55923 -0.0402,0.53337 -0.28585,0.6893 -0.90177,0.57237 -0.15379,-0.0292 -0.13586,0.0934 0.0398,0.27235 0.18462,0.18809 0.25915,0.77495 0.17659,1.39049 -0.11376,0.84816 -0.0365,1.11979 0.3796,1.33387 0.86038,0.44272 5.81766,0.76897 10.68332,0.70311 l 4.56857,-0.0618 0.71202,0.84619 c 0.40989,0.48712 0.88011,0.78168 1.10815,0.69417 0.22498,-0.0863 0.32022,-0.0292 0.22044,0.13226 -0.2325,0.37619 3.14263,1.89292 4.98688,2.24102 0.7981,0.15065 1.6705,0.34292 1.93866,0.42727 0.35837,0.11273 0.44284,0.0368 0.31878,-0.28649 z m 18.56631,-1.41782 c -0.57158,-0.59778 -1.08455,-1.03026 -1.13995,-0.96105 -0.0554,0.0692 0.41226,0.5583 1.03923,1.08688 l 1.13996,0.96106 z m 0.0606,-1.91945 c 0,-0.0581 -0.2202,-0.27826 -0.48933,-0.48932 -0.44348,-0.34781 -0.45337,-0.33792 -0.10557,0.10557 0.36529,0.46577 0.5949,0.61389 0.5949,0.38375 z M 154.22179,154.19 c 0,-0.15378 -0.12582,-0.27961 -0.27961,-0.27961 -0.15379,0 -0.27962,0.12583 -0.27962,0.27961 0,0.15379 0.12583,0.27962 0.27962,0.27962 0.15379,0 0.27961,-0.12583 0.27961,-0.27962 z m -40.11324,-0.85744 c 0.32789,-0.53053 -0.15033,-0.66144 -0.6373,-0.17447 -0.43591,0.43591 -0.43667,0.47268 -0.01,0.47268 0.25456,0 0.54577,-0.13419 0.64714,-0.29821 z M 6.4453142,152.9673 c 2.27809,-0.74309 3.7747998,-1.4772 3.7747998,-1.85147 0,-0.14501 0.17252,-0.19745 0.38337,-0.11654 0.21085,0.0809 0.58833,-0.0579 0.83884,-0.30837 0.25052,-0.25051 0.45548,-0.37698 0.45548,-0.28105 0,0.17221 4.76233,-2.32304 5.03306,-2.63711 0.0769,-0.0892 0.67314,-0.41193 1.32497,-0.71717 0.65183,-0.30525 1.19654,-0.74374 1.21044,-0.97442 0.0149,-0.24786 0.0794,-0.28713 0.15762,-0.096 0.13473,0.32928 6.39946,-2.96674 6.95369,-3.65851 0.15379,-0.19194 0.4223,-0.30088 0.59668,-0.24207 0.17439,0.0588 0.51142,-0.0874 0.74897,-0.32497 0.23754,-0.23755 0.56672,-0.43191 0.73149,-0.43191 0.16478,0 0.29959,-0.12582 0.29959,-0.27961 0,-0.15379 0.0944,-0.2497 0.20971,-0.21313 0.37447,0.11871 2.0272,-0.68504 2.0272,-0.98586 0,-0.16076 0.0703,-0.22203 0.15616,-0.13615 0.0859,0.0859 1.06103,-0.34621 2.16701,-0.96019 1.10598,-0.61399 4.59032,-2.5331 7.74298,-4.2647 3.15265,-1.73159 6.22151,-3.4805 6.81968,-3.88646 0.59816,-0.40596 1.19555,-0.73811 1.32752,-0.73811 0.23472,0 3.04072,-1.90909 3.31701,-2.25675 0.0769,-0.0968 0.27135,-0.22626 0.43213,-0.28776 0.44113,-0.16876 8.6343,-5.09514 8.79516,-5.28834 0.0769,-0.0924 0.54874,-0.33333 1.04855,-0.53549 0.49981,-0.20216 0.91068,-0.5725 0.91303,-0.82297 0.004,-0.39618 0.0395,-0.40085 0.27534,-0.036 0.19695,0.30478 0.27222,0.31937 0.27533,0.0534 0.002,-0.20132 0.12237,-0.29304 0.26671,-0.20383 0.14434,0.0892 0.38714,-0.0607 0.53956,-0.33302 0.15243,-0.27237 0.38036,-0.46853 0.50652,-0.43592 0.36442,0.0942 2.32649,-0.84045 2.32649,-1.10825 0,-0.13327 0.10326,-0.17849 0.22946,-0.1005 0.12621,0.078 0.66097,-0.12879 1.18837,-0.45953 0.52739,-0.33074 1.02181,-0.60878 1.0987,-0.61787 0.50017,-0.0591 1.9573,-0.82044 1.9573,-1.02264 0,-0.13513 0.14156,-0.21423 0.31457,-0.17579 0.17301,0.0384 0.37227,-0.0875 0.44279,-0.2798 0.0738,-0.2013 -0.03,-0.2927 -0.24466,-0.21538 -0.20509,0.0739 -2.53159,0.38585 -5.17,0.69326 -4.45562,0.51915 -6.13271,0.90216 -6.55855,1.49781 -0.0941,0.1316 -0.28283,0.22254 -0.41943,0.20209 -0.44945,-0.0673 -2.62508,0.93702 -2.62508,1.21181 0,0.14789 -0.0757,0.19324 -0.16812,0.10077 -0.19731,-0.1973 -10.22034,4.77942 -10.52287,5.22491 -0.11298,0.16638 -0.20735,0.19618 -0.20971,0.0662 -0.002,-0.12996 -0.53904,0.075 -1.19264,0.45541 -0.6536,0.38043 -2.19498,1.23178 -3.42528,1.89188 -1.23031,0.6601 -2.33204,1.35757 -2.4483,1.54994 -0.11625,0.19237 -0.5881,0.43251 -1.04856,0.53364 -0.46044,0.10112 -0.83717,0.2997 -0.83717,0.44127 0,0.14157 -0.0944,0.23473 -0.20972,0.20702 -0.43385,-0.10422 -2.27566,0.99303 -2.11184,1.25812 0.0941,0.1522 0.0357,0.19312 -0.12961,0.0909 -0.46011,-0.28436 -7.61413,3.9642 -7.61925,4.52485 -0.003,0.40423 -0.0411,0.41081 -0.27533,0.0484 -0.14909,-0.23069 -0.27299,-0.28311 -0.27534,-0.11651 -0.002,0.1666 -0.16156,0.30392 -0.3538,0.30514 -0.19224,0.001 -1.10448,0.48799 -2.0272,1.08171 -0.92274,0.59371 -2.21639,1.36719 -2.87481,1.71885 -0.6584,0.35165 -1.95702,1.14412 -2.88582,1.76104 -0.92879,0.61692 -1.75505,1.12168 -1.83613,1.12168 -0.28315,0 -5.26634,3.15706 -5.35874,3.39499 -0.0513,0.132 -0.25308,0.24 -0.4485,0.24 -0.1954,0 -0.71968,0.33771 -1.16506,0.75047 -0.44537,0.41276 -0.84122,0.72733 -0.87967,0.69904 -0.2618598,-0.19267 -0.6291398,0.017 -0.6291398,0.35922 0,0.22893 -0.16627,0.34684 -0.37576,0.26645 -0.20667,-0.0793 -0.79295,0.24552 -1.30285,0.72183 -0.50988,0.47632 -1.15866,0.98997 -1.44172,1.14146 -0.28306,0.15149 -0.51465,0.45974 -0.51465,0.68502 0,0.22527 -0.2334,0.40958 -0.51868,0.40958 -0.28527,0 -0.83957,0.38736 -1.23179,0.86079 -0.39221,0.47343 -0.75956,0.81945 -0.81633,0.76894 -0.13934,-0.12399 -1.62743,1.05837 -1.62743,1.29307 0,0.10229 0.11714,0.11358 0.26029,0.0251 0.14317,-0.0885 0.33934,-0.033 0.43593,0.1233 0.28801,0.46601 2.11053,0.30131 4.19704,-0.3793 z m 112.2653758,0.13685 c 0,-0.13585 -0.25165,-0.31281 -0.55923,-0.39324 -0.66033,-0.17268 -0.75895,0.22416 -0.11693,0.47053 0.58697,0.22524 0.67616,0.21504 0.67616,-0.0773 z m -1.8874,-0.49741 c -0.19223,-0.0776 -0.5068,-0.0776 -0.69903,0 -0.19224,0.0776 -0.035,0.14104 0.34951,0.14104 0.38447,0 0.54176,-0.0635 0.34952,-0.14104 z m 2.21945,-1.12428 c -0.20185,-0.0808 -0.44302,-0.0708 -0.53593,0.0221 -0.0929,0.0929 0.0722,0.159 0.36699,0.14686 0.32574,-0.0134 0.39199,-0.0797 0.16894,-0.16893 z M 9.8006942,145.50897 c 0.7689398,-0.49106 1.4400098,-1.00359 1.4912798,-1.13897 0.0513,-0.13537 0.27146,-0.24613 0.48932,-0.24613 0.21788,0 0.39613,-0.1468 0.39613,-0.32622 0,-0.17942 0.0781,-0.24816 0.17346,-0.15275 0.18914,0.18913 3.19384,-1.63784 3.52716,-2.14464 0.11298,-0.17179 0.20735,-0.21954 0.2097,-0.10611 0.005,0.2326 3.12584,-1.69423 3.39092,-2.09347 0.0941,-0.14171 0.28283,-0.26393 0.41943,-0.27161 0.47612,-0.0268 1.50662,-0.589 1.50662,-0.822 0,-0.1291 0.14672,-0.23473 0.32605,-0.23473 0.17933,0 1.21739,-0.54823 2.30682,-1.21828 1.08942,-0.67005 2.64124,-1.58229 3.44846,-2.02721 0.80724,-0.44491 1.46783,-0.9033 1.46799,-1.01864 1.6e-4,-0.11534 0.15757,-0.20978 0.3498,-0.20987 0.59287,-2.6e-4 3.85349,-2.13345 3.63298,-2.3768 -0.11424,-0.12608 -0.0314,-0.12693 0.18424,-0.002 0.25549,0.14821 0.52737,0.0421 0.78097,-0.30469 0.21398,-0.29262 0.44366,-0.51161 0.51041,-0.48664 0.36803,0.13768 1.21899,-0.29305 1.06648,-0.53982 -0.10092,-0.16326 -0.0455,-0.208 0.12614,-0.1019 0.37227,0.23007 2.09732,-0.76836 1.81513,-1.05055 -0.1101,-0.11011 0.0162,-0.11716 0.28062,-0.0157 0.28525,0.10946 0.4808,0.0519 0.4808,-0.14153 0,-0.17932 0.1101,-0.25798 0.24469,-0.17481 0.13457,0.0832 0.74093,-0.20826 1.34746,-0.64763 0.60654,-0.43937 1.37905,-0.88653 1.71669,-0.9937 0.33764,-0.10716 0.54262,-0.31017 0.4555,-0.45112 -0.0873,-0.14126 0.057,-0.17365 0.32143,-0.0722 0.3513,0.13481 0.41851,0.0849 0.25093,-0.18621 -0.15356,-0.24847 -0.12097,-0.30364 0.099,-0.16767 0.18035,0.11146 0.73456,-0.0428 1.23157,-0.34278 1.66791,-1.00675 12.90642,-6.66631 14.81449,-7.46036 1.03807,-0.43201 1.8874,-0.86555 1.8874,-0.96344 0,-0.1515 -1.97498,-0.15285 -3.35538,-0.002 -1.13733,0.12404 -2.79615,0.63949 -2.79615,0.86885 0,0.14227 -0.15728,0.22707 -0.34952,0.18844 -0.68538,-0.13774 -1.91381,0.336 -1.71316,0.66067 0.1302,0.21067 0.0392,0.25832 -0.26818,0.14038 -0.26559,-0.10192 -0.46529,-0.0423 -0.46529,0.13889 0,0.1746 -0.0732,0.24428 -0.16259,0.15485 -0.0894,-0.0894 -1.19041,0.32372 -2.44663,0.9181 -1.41038,0.66732 -2.76534,1.10413 -3.54231,1.14197 -1.3283,0.0647 -5.70228,2.1443 -6.33766,3.01323 -0.18006,0.24623 -0.40995,0.36512 -0.51088,0.26419 -0.30839,-0.30839 -8.06769,3.60606 -8.56154,4.31917 -0.0941,0.13586 -0.25778,0.22406 -0.36378,0.19599 -0.33711,-0.0892 -4.07879,1.97976 -4.07879,2.25543 0,0.1454 -0.0944,0.23943 -0.20971,0.20897 -0.38161,-0.10081 -1.46798,0.36798 -1.46798,0.63347 0,0.14342 -0.0944,0.23203 -0.20971,0.19691 -0.40438,-0.12315 -7.57415,3.82566 -7.41467,4.08369 0.0887,0.14344 0.0303,0.17995 -0.12951,0.0811 -0.15989,-0.0988 -2.34985,0.80752 -4.86657,2.01408 -5.0786798,2.43482 -10.40608983,4.78997 -10.83498983,4.78997 -0.15335,0 -0.35828,0.1286 -0.45544,0.28578 -0.19326,0.31271 2.37361003,1.58402 3.49900003,1.73297 0.38448,0.0509 0.8647,0.1963 1.06716,0.32315 0.20248,0.12685 0.44255,0.15621 0.53351,0.0652 0.091,-0.091 0.31548,-0.0408 0.49893,0.11144 0.18346,0.15226 0.88708,0.34913 1.56361,0.43751 1.05763,0.13816 1.42602,0.0355 2.62813,-0.73215 z M 137.03216,136.83281 c 0.10129,-0.31917 0.10977,-0.65471 0.0188,-0.74564 -0.0909,-0.0909 -0.16534,0.0518 -0.16534,0.31718 0,0.2654 -0.12583,0.40477 -0.27962,0.30972 -0.15378,-0.0951 -0.27961,0.0233 -0.27961,0.26311 0,0.63423 0.49045,0.53389 0.70572,-0.14437 z m -7.13731,-0.58938 c 0.53802,-0.15421 1.04133,-0.36306 1.11846,-0.4641 0.15538,-0.20355 0.58148,-0.28455 2.69471,-0.51232 1.21345,-0.13078 1.52763,-0.0631 2.02721,0.43643 0.69632,0.69633 0.74066,0.57284 0.18212,-0.50725 -0.42049,-0.81314 -0.93913,-1.13846 -1.81497,-1.13846 -0.36091,0 -0.54956,-0.29263 -0.67599,-1.04856 -0.25445,-1.5214 -0.57833,-1.94605 -1.13306,-1.48566 -0.24241,0.20118 -0.44074,0.28576 -0.44074,0.18797 0,-0.0978 -0.47185,0.0295 -1.04855,0.28276 -0.57671,0.2533 -1.7142,0.7411 -2.52777,1.08399 l -1.47922,0.62346 -2.19563,-0.51126 c -2.46744,-0.57454 -5.3315,-1.74921 -5.3315,-2.18667 0,-0.15988 0.48611,-0.26028 1.08996,-0.2251 0.59949,0.0349 1.04637,0.13535 0.99309,0.22316 -0.16103,0.26537 2.52698,1.12716 4.26049,1.36593 1.63288,0.22491 3.7226,-0.25613 3.7226,-0.85692 0,-0.13709 0.0944,-0.22186 0.20971,-0.1884 0.46404,0.13466 2.05294,-0.62485 2.00852,-0.96009 -0.10488,-0.79149 0.0449,-1.05807 0.59442,-1.05807 0.31665,0 0.50527,-0.11401 0.41914,-0.25336 -0.21677,-0.35075 -1.34204,-0.0227 -1.75492,0.5116 -0.18734,0.24244 -0.34463,0.33103 -0.34952,0.19685 -0.005,-0.13417 -0.19625,-0.0884 -0.42523,0.10159 -0.22899,0.19004 -0.33538,0.47654 -0.23642,0.63667 0.10488,0.1697 0.0445,0.20741 -0.14486,0.0904 -0.17863,-0.11041 -0.39274,-0.0236 -0.47579,0.19277 -0.10398,0.27097 -0.69108,0.41019 -1.88543,0.4471 -1.73695,0.0537 -4.50343,-0.68532 -6.57414,-1.75613 -0.49081,-0.25381 -0.89239,-0.38567 -0.89239,-0.29303 0,0.12959 -1.28995,-1.33757 -1.56302,-1.77774 -0.12431,-0.20039 -2.69406,1.18251 -2.82332,1.51936 -0.28663,0.74695 1.41556,2.8582 3.16052,3.92005 0.63148,0.38426 0.25028,0.94063 -0.69318,1.0117 -0.33236,0.025 -0.57069,0.113 -0.52962,0.19548 0.0411,0.0825 0.25029,0.6043 0.46492,1.15962 l 0.39024,1.00968 2.51737,0.17869 c 3.55241,0.25215 7.98889,0.17832 9.14179,-0.15214 z m 7.22628,-1.34686 c 0,-0.38447 -0.0635,-0.54175 -0.14104,-0.34952 -0.0776,0.19224 -0.0776,0.50681 0,0.69904 0.0776,0.19224 0.14104,0.035 0.14104,-0.34952 z m -31.83195,-0.55045 c 0,-0.14896 -0.18874,-0.19841 -0.41942,-0.10989 -0.23069,0.0885 -0.41943,0.0217 -0.41943,-0.14859 0,-0.35991 -2.36508,-0.3898 -3.21557,-0.0406 -0.33234,0.13644 0.13424,0.17085 1.15001,0.0848 1.11255,-0.0942 1.7772,-0.0348 1.9039,0.17018 0.23808,0.38521 1.00051,0.41884 1.00051,0.0441 z m 31.59648,-0.46796 c 0,-0.15003 -0.19568,-0.51702 -0.43485,-0.81554 -0.41002,-0.51179 -0.41584,-0.50286 -0.10193,0.15626 0.40763,0.85591 0.53678,1.01454 0.53678,0.65928 z m 1.08375,-1.31649 c 0.18854,-0.22717 0.91401,-0.68154 1.61215,-1.00971 0.98756,-0.46421 1.54653,-0.5551 2.5179,-0.40944 1.05323,0.15795 1.35013,0.0918 1.89798,-0.42289 0.58152,-0.54631 0.6202,-0.72533 0.36982,-1.71177 l -0.27964,-1.10166 h -1.46214 c -1.6174,0 -3.30809,0.47541 -3.06862,0.86288 0.0847,0.13705 -0.0252,0.18041 -0.24422,0.0964 -0.29999,-0.11512 -2.55011,1.48943 -3.0634,2.18449 -0.0344,0.0466 0.26138,0.49879 0.65738,1.00478 0.61617,0.78732 0.76944,0.86043 1.06279,0.50695 z m -34.58511,-0.093 c -0.20184,-0.0808 -0.44302,-0.0708 -0.53593,0.0221 -0.0929,0.0929 0.0722,0.159 0.367,0.14686 0.32573,-0.0134 0.39199,-0.0797 0.16893,-0.16893 z m 44.66388,-0.81095 c -0.0134,-0.32574 -0.0797,-0.39199 -0.16893,-0.16893 -0.0808,0.20184 -0.0708,0.44301 0.0221,0.53592 0.0929,0.0929 0.159,-0.0722 0.14686,-0.36699 z m -0.53715,-1.23497 c -0.16461,-0.30757 -0.36221,-0.55923 -0.4391,-0.55923 -0.0769,0 -0.005,0.25166 0.15948,0.55923 0.16461,0.30758 0.36221,0.55923 0.4391,0.55923 0.0769,0 0.005,-0.25165 -0.15948,-0.55923 z m -13.85892,-0.64119 c -0.105,-0.27576 -0.26135,-0.43095 -0.34744,-0.34486 -0.0861,0.0861 -1.8e-4,0.31172 0.19092,0.50139 0.27615,0.2741 0.30827,0.24198 0.15652,-0.15653 z m 12.46084,-0.87701 c 0,-0.0769 -0.25165,-0.27449 -0.55923,-0.4391 -0.30757,-0.16461 -0.55923,-0.23638 -0.55923,-0.15948 0,0.0769 0.25166,0.27449 0.55923,0.43909 0.30758,0.16461 0.55923,0.23638 0.55923,0.15949 z M 114.236,128.42531 c 0.96115,-0.79948 3.34547,-1.97461 6.76473,-3.33403 2.98832,-1.18809 5.60997,-2.48194 5.77277,-2.849 0.0516,-0.1163 0.19873,-0.1466 0.32698,-0.0673 0.12825,0.0793 0.40062,-0.0143 0.60525,-0.20797 0.20463,-0.19365 1.15848,-0.72125 2.11966,-1.17244 0.96117,-0.4512 1.74759,-0.95918 1.74759,-1.12886 0,-0.16968 0.26056,-0.32814 0.57901,-0.35213 0.56067,-0.0422 7.35681,-3.98065 8.33266,-4.82885 0.2654,-0.23068 0.85393,-0.61973 1.30783,-0.86456 0.45391,-0.24484 0.79071,-0.60021 0.74846,-0.78973 -0.0422,-0.18952 0.0575,-0.26152 0.22179,-0.16001 0.3053,0.18868 1.96482,-0.93607 2.8822,-1.95344 0.28085,-0.31146 0.4288,-0.37755 0.32878,-0.14686 -0.15054,0.34722 -0.11811,0.34424 0.18841,-0.0173 0.20364,-0.24022 0.59045,-0.51938 0.85958,-0.62036 0.26913,-0.10098 0.48933,-0.31338 0.48933,-0.47199 0,-0.15862 0.1644,-0.28839 0.36534,-0.28839 0.20094,0 0.97337,-0.56622 1.71651,-1.25827 0.74314,-0.69205 1.45105,-1.25827 1.57312,-1.25827 0.12208,0 0.30471,-0.26075 0.40586,-0.57945 0.10561,-0.33273 0.34396,-0.51803 0.5598,-0.43521 0.21031,0.0807 0.84305,-0.37228 1.43639,-1.02833 0.58328,-0.64492 1.151,-1.14336 1.26162,-1.10765 0.22669,0.0732 5.62518,-5.631614 5.78905,-6.117534 0.0581,-0.17223 0.53059,-0.7637 1.05002,-1.31439 3.11263,-3.29996 7.67502,-11.842146 8.31139,-15.561428 0.0526,-0.307575 0.17008,-0.747969 0.26099,-0.97865 0.52184,-1.32407 0.76309,-3.970264 0.66451,-7.288972 -0.0935,-3.147578 -0.23084,-4.098846 -0.84811,-5.873953 -0.95816,-2.7555 -0.98926,-5.344215 -0.0905,-7.528688 0.34805,-0.845894 1.48247,-2.733296 2.52092,-4.194224 1.03845,-1.460937 1.85169,-2.722179 1.80717,-2.802761 -0.0445,-0.08064 0.2651,-0.519698 0.68803,-0.975797 0.42292,-0.456099 0.76894,-0.974381 0.76894,-1.151735 0,-0.177344 0.19671,-0.397943 0.43714,-0.490202 0.85789,-0.329197 0.0875,-0.693417 -1.29189,-0.610785 -1.13914,0.06827 -1.47603,-0.01976 -1.7898,-0.467777 -0.23926,-0.341593 -0.5282,-0.471401 -0.75839,-0.340695 -0.28858,0.163848 -0.29836,0.131584 -0.0436,-0.144107 0.5922,-0.640988 -0.175,-1.062614 -1.67694,-0.921625 -1.12783,0.105872 -1.47003,0.02124 -2.02579,-0.500844 -0.50602,-0.475386 -0.62559,-0.80472 -0.49145,-1.353681 0.0975,-0.398989 0.29985,-0.805746 0.44966,-0.903892 0.14982,-0.09818 0.18682,-0.316906 0.0822,-0.486123 -0.11989,-0.193999 -0.0285,-0.245646 0.24735,-0.139795 0.24064,0.09237 0.59319,0.04344 0.78347,-0.108788 0.19028,-0.152171 0.66053,-0.369124 1.04499,-0.482118 1.01217,-0.297461 2.22777,-1.518809 2.0285,-2.038084 -0.10587,-0.275891 -0.0525,-0.36292 0.14688,-0.239674 0.17221,0.106421 0.43759,-0.0391 0.58975,-0.323427 0.15216,-0.284314 0.81906,-0.756213 1.48201,-1.048675 0.66294,-0.292452 1.28234,-0.640322 1.37643,-0.773047 0.0941,-0.132715 0.28282,-0.218465 0.41941,-0.190544 0.1366,0.0279 0.46599,-0.338814 0.73201,-0.814961 0.26599,-0.476157 0.41885,-0.86573 0.33968,-0.86573 -0.0792,0 -0.01,-0.251648 0.15532,-0.559233 0.21453,-0.400849 0.21265,-0.559223 -0.006,-0.559223 -0.16827,0 -0.22819,-0.125834 -0.13314,-0.279622 0.095,-0.153787 -0.0234,-0.279611 -0.26312,-0.279611 -0.23976,0 -0.43592,-0.107879 -0.43592,-0.239738 0,-0.599255 -6.11401,-3.812408 -9.57903,-5.034167 -5.53215,-1.950622 -9.22051,-2.471132 -14.10878,-1.991077 -3.11763,0.306169 -8.06538,1.574999 -8.95723,2.297034 -0.19224,0.155637 -0.34952,0.190174 -0.34952,0.07672 0,-0.113417 -0.31457,-9.5e-5 -0.69904,0.251828 -0.38447,0.251912 -0.69903,0.390629 -0.69903,0.308251 0,-0.259109 -3.95296,1.827947 -5.93348,3.132719 -1.07581,0.708751 -1.8175,1.378379 -1.71336,1.546888 0.10966,0.177428 0.0505,0.214818 -0.14698,0.09279 -0.31649,-0.195606 -4.50924,3.58179 -4.50924,4.062534 0,0.11831 -0.38096,0.631805 -0.84658,1.141104 -0.94407,1.032653 -3.35162,5.690342 -3.42161,6.619512 -0.0248,0.328806 -0.16506,0.597829 -0.31175,0.597829 -0.1467,0 -0.18392,0.08285 -0.0827,0.183991 0.10119,0.101242 0.0781,0.321387 -0.0513,0.489325 -0.21805,0.282908 -1.01449,3.587761 -1.01698,4.219946 -5.6e-4,0.153788 -0.064,0.342534 -0.14091,0.419428 -0.0769,0.07694 -0.27935,0.391464 -0.4499,0.699039 -0.17055,0.307575 -0.42729,0.559223 -0.57054,0.559223 -0.14325,0 -1.13615,0.636032 -2.20644,1.413402 -1.0703,0.777369 -3.07844,2.218227 -4.46253,3.201908 -3.50647,2.492059 -7.93987,6.0348 -8.99236,7.185816 -0.48594,0.531429 -0.92633,0.92674 -0.97865,0.878475 -0.0523,-0.0483 -0.59844,0.406281 -1.21359,1.010112 -0.61515,0.603831 -0.89826,0.932383 -0.62913,0.73012 0.43377,-0.326005 0.48932,-0.287981 0.48932,0.334936 0,0.592987 -0.15062,0.72027 -0.96496,0.81533 -0.82381,0.09617 -0.91584,0.0521 -0.62913,-0.301318 0.1847,-0.22769 -0.82807,0.580296 -2.25061,1.795513 -1.42254,1.215218 -2.586438,2.308279 -2.586438,2.42902 0,0.120751 -0.188741,0.219542 -0.419423,0.219542 -0.230683,0 -0.419422,0.188736 -0.419422,0.419417 0,0.230692 -0.134814,0.419428 -0.299588,0.419428 -0.314405,0 -1.098487,0.684286 -1.098487,0.958677 0,0.308208 0.52356,0.155509 0.958679,-0.279612 0.241669,-0.241672 0.439396,-0.304584 0.439396,-0.139806 0,0.164768 0.188739,0.299586 0.419422,0.299586 0.230682,0 0.419671,-0.09437 0.419979,-0.209714 2.8e-4,-0.115421 0.408352,-0.238582 0.906772,-0.273763 0.49842,-0.03519 0.94669,-0.185407 0.99616,-0.333815 0.0495,-0.148408 0.27056,-0.20053 0.4913,-0.115816 0.22075,0.08476 0.40136,0.0074 0.40136,-0.172018 0,-0.17932 0.1164,-0.2541 0.25866,-0.166173 0.27855,0.172155 1.73045,-0.384278 2.00625,-0.768894 0.0923,-0.128688 0.36451,-0.262861 0.60494,-0.298148 0.62561,-0.09184 2.44283,-1.103766 2.44283,-1.360318 0,-0.118818 0.15729,-0.217334 0.34952,-0.218919 0.35923,-0.0032 1.53331,-0.920409 3.843,-3.002974 1.20264,-1.084374 1.95901,-1.473355 1.95901,-1.007449 0,0.09945 -0.44039,0.718358 -0.97865,1.37523 -0.53826,0.656872 -0.97865,1.316957 -0.97865,1.466856 0,0.149908 -0.20302,0.35046 -0.45115,0.445668 -0.27871,0.106949 -0.39768,0.377578 -0.31126,0.708032 0.10376,0.39677 0.0279,0.491946 -0.29376,0.368511 -0.28523,-0.109454 -0.36445,-0.05443 -0.23147,0.16073 0.1112,0.179923 0.0722,0.327126 -0.0867,0.327126 -0.24767,0 -2.5403,4.218087 -2.5403,4.673773 0,0.281683 5.54114,-0.166067 9.64672,-0.779494 2.24248,-0.335062 8.22718,-1.611089 8.58062,-1.829532 0.13006,-0.08042 0.58042,-0.205508 1.0008,-0.278068 0.7607,-0.131299 5.13776,-1.385069 5.93721,-1.700665 0.23067,-0.0911 1.98003,-0.706141 3.88745,-1.366839 1.90742,-0.660687 3.54317,-1.308714 3.635,-1.440054 0.0918,-0.13133 0.51297,-0.263506 0.93589,-0.29371 0.60639,-0.04333 0.76894,0.06616 0.76894,0.51769 0,0.31493 -0.12582,0.494832 -0.27961,0.399782 -0.15379,-0.09501 -0.27962,-0.05358 -0.27962,0.09226 0,0.145776 -0.15728,0.250221 -0.34952,0.232086 -0.53488,-0.05041 -3.28547,1.034302 -3.28547,1.295694 0,0.126765 -0.11713,0.158099 -0.26029,0.06964 -0.14317,-0.08846 -0.3406,-0.03096 -0.43875,0.127864 -0.0982,0.158807 -0.29558,0.216351 -0.43874,0.127864 -0.14316,-0.08846 -0.2603,-0.02018 -0.2603,0.151758 0,0.171933 -0.11551,0.241217 -0.2567,0.153956 -0.20752,-0.128244 -4.10032,1.008115 -5.89482,1.720787 -0.23068,0.09163 -0.60817,0.205264 -0.83885,0.252546 -0.23068,0.04724 -1.5223,0.405869 -2.87028,0.796836 -1.34797,0.390979 -2.69318,0.710865 -2.98935,0.710865 -0.29618,0 -0.62157,0.134406 -0.7231,0.298676 -0.10153,0.164271 -0.39206,0.219733 -0.64563,0.123246 -0.36954,-0.14062 -0.39167,-0.105576 -0.11153,0.176667 0.27185,0.273863 0.42408,0.27754 0.68506,0.01659 0.18454,-0.184551 0.59348,-0.332674 0.90875,-0.329176 0.45174,0.0053 0.39545,0.08666 -0.26564,0.385293 -1.67789,0.757946 -3.1906,1.050788 -3.708,0.71784 -0.45485,-0.292695 -0.45371,-0.302703 0.0176,-0.155162 0.30553,0.09564 0.43384,0.04449 0.32598,-0.130072 -0.0978,-0.158279 -0.40231,-0.216541 -0.67664,-0.12947 -0.27433,0.08708 -0.97238,0.176107 -1.55123,0.197867 -0.94899,0.03572 -1.00233,0.0762 -0.5427,0.412294 0.28036,0.205 0.67443,0.388463 0.87572,0.407687 0.36661,0.03498 0.7423,0.115393 1.13492,0.242823 0.11534,0.03741 0.30408,0.05316 0.41943,0.03498 0.11534,-0.01818 0.20971,0.09828 0.20971,0.25876 0,0.16053 0.15728,0.26618 0.34951,0.234771 0.19224,-0.03139 0.66409,0.07049 1.04856,0.226422 1.37916,0.55935 2.30177,0.696608 2.06145,0.306698 -0.1395,-0.226348 0.0368,-0.191315 0.47318,0.09406 1.56825,1.025372 9.92331,1.477719 18.63885,1.009118 2.18744,-0.117612 4.29394,-0.33428 4.68112,-0.481483 0.38718,-0.147214 0.89526,-0.194243 1.12908,-0.104519 0.53034,0.20351 3.57672,-2.335862 3.31339,-2.761937 -0.10232,-0.16556 -0.0549,-0.218992 0.10607,-0.119515 0.16013,0.09892 0.44791,-0.0085 0.63953,-0.239854 0.2601,-0.313408 0.44284,-0.341414 0.72104,-0.110532 0.29999,0.248975 0.21084,0.445404 -0.45728,1.007586 -0.45644,0.384077 -0.74721,0.832124 -0.64614,0.995655 0.10106,0.163531 0.0546,0.217523 -0.1032,0.11999 -0.15783,-0.09754 -0.5862,0.16853 -0.95195,0.591266 -0.36575,0.422746 -1.13685,1.118646 -1.71356,1.546454 -0.58697,0.435417 -1.04855,1.017742 -1.04855,1.322822 0,0.299755 -0.1045,0.544999 -0.23222,0.544999 -0.34214,0 -2.04205,2.449299 -1.79551,2.587046 0.11563,0.0646 0.0648,0.08365 -0.11301,0.04233 -0.17779,-0.04131 -0.55527,0.189674 -0.83885,0.513315 -0.28358,0.32364 -0.33887,0.484455 -0.12288,0.357364 0.26506,-0.155958 0.32787,-0.126134 0.19321,0.09174 -0.10973,0.177549 -0.35975,0.322818 -0.55561,0.322818 -0.19585,0 -1.06958,0.723504 -1.94162,1.607785 -2.05396,2.082793 -2.1274,2.142913 -5.08392,4.161473 -6.28227,4.2892 -12.4403,7.135952 -23.46262,10.846354 -1.68058,0.56573 -3.1905,1.11292 -3.35538,1.21598 -0.16489,0.10307 -0.53588,0.22413 -0.82442,0.26902 -0.28855,0.0449 -0.9806,0.2992 -1.53789,0.56513 -0.55729,0.26593 -1.10762,0.50022 -1.22296,0.52065 -0.11534,0.0204 -0.24117,0.0622 -0.27962,0.0929 -0.0384,0.0306 -0.33586,0.10588 -0.66092,0.16718 -0.32506,0.0613 -0.95419,0.26003 -1.39807,0.44161 -0.44388,0.18159 -0.95684,0.3615 -1.1399,0.39981 -0.58249,0.1219 -2.45269,0.75042 -2.74292,0.92182 -0.15379,0.0908 -0.44673,0.19044 -0.65097,0.22137 -0.20425,0.0309 -0.581728,0.14942 -0.838847,0.26332 -0.25712,0.11391 -0.561862,0.2337 -0.677202,0.2662 -0.115342,0.0325 -0.272625,0.0906 -0.349519,0.12901 -0.07689,0.0384 -0.234178,0.0887 -0.349519,0.11159 -1.049078,0.20852 -3.037581,0.87241 -3.161904,1.05564 -0.08582,0.1265 -0.903699,0.36763 -1.817497,0.53586 -0.913798,0.16824 -1.826179,0.44167 -2.027514,0.60763 -0.20133,0.16596 -0.641724,0.33145 -0.978644,0.36776 -0.61135,0.0659 -5.54978,1.40498 -6.3447,1.72043 -0.23068,0.0915 -0.51379,0.19303 -0.62913,0.22554 -0.11534,0.0325 -0.30408,0.0897 -0.41942,0.12716 -0.11535,0.0374 -0.31182,0.0506 -0.43661,0.0292 -0.78666,-0.13466 -6.60958,2.20217 -7.41515,2.97582 -0.20464,0.19652 -0.48775,0.28582 -0.62914,0.19844 -0.14139,-0.0874 -0.25707,-0.0256 -0.25707,0.13724 0,0.16286 -0.0944,0.26619 -0.20971,0.22963 -0.37446,-0.11871 -2.02721,0.68503 -2.02721,0.98585 0,0.16077 -0.0834,0.20887 -0.18539,0.10691 -0.19563,-0.19564 -6.54285,3.06727 -6.83624,3.51429 -0.0941,0.14336 -0.25931,0.2359 -0.36715,0.20564 -0.21366,-0.0599 -6.77693,3.60329 -7.27493,4.06044 -0.16826,0.15446 -0.74402,0.51918 -1.27946,0.8105 -0.53544,0.29131 -1.22519,0.74441 -1.53276,1.00689 -0.30758,0.26247 -0.81089,0.59035 -1.11846,0.72861 -0.90348,0.40611 5.19445,0.47861 8.52821,0.1014 1.61478,-0.18271 3.08773,-0.45474 3.27323,-0.60451 0.1855,-0.14977 0.4441,-0.20629 0.57466,-0.12559 0.13057,0.0807 0.73376,0.0288 1.34043,-0.11537 0.60666,-0.14415 1.5401,-0.3374 2.0743,-0.42945 0.5342,-0.0921 2.01457,-0.46969 3.2897,-0.83921 1.27512,-0.3695 2.44233,-0.67184 2.5938,-0.67184 0.42387,0 0.32658,0.92094 -0.17256,1.63356 -0.24637,0.35174 -0.37347,0.71399 -0.28246,0.80501 0.29408,0.29408 4.34337,-0.74029 5.81256,-1.48479 1.38655,-0.70261 1.47827,-0.71239 3.27514,-0.34899 1.19171,0.24101 3.8608,0.37098 7.510844,0.36573 3.114214,-0.004 5.662205,0.0537 5.662205,0.1293 0,0.0756 -0.345495,0.41293 -0.76777,0.74964 l -0.767769,0.6122 1.257095,0.18151 c 0.691404,0.0998 2.641189,0.0439 4.332861,-0.12429 2.70242,-0.26868 4.06407,-0.45917 6.85056,-0.95838 1.09962,-0.197 4.24896,-0.53875 5.17288,-0.56134 0.80054,-0.0196 0.8351,0.0274 0.75684,1.02805 -0.0451,0.57671 -0.0451,1.04437 0,1.03926 0.0451,-0.005 0.39619,-0.27065 0.78019,-0.59007 z m 34.62603,-46.999934 c 0.2075,-0.207495 0.24389,-0.09828 0.12226,0.366777 -0.0989,0.378096 -0.22562,0.504839 -0.29542,0.295421 -0.0672,-0.201724 0.0107,-0.499713 0.17316,-0.662198 z m 2.63937,-5.13726 c 0.0929,-0.09289 0.33408,-0.102828 0.53593,-0.02209 0.22305,0.0893 0.1568,0.15552 -0.16894,0.168931 -0.29476,0.01215 -0.45991,-0.054 -0.36699,-0.146854 z M 161.63322,42.30654 c -1.0753,-0.388833 -1.58936,-1.454248 -1.50335,-3.115768 0.0551,-1.06384 0.19974,-1.331583 1.02508,-1.897115 1.25711,-0.861387 1.6193,-0.891897 2.89035,-0.243448 1.18054,0.602267 1.54358,1.114874 1.66989,2.357865 0.23732,2.33547 -1.74544,3.743366 -4.08197,2.898466 z M 49.785654,118.76847 c 0.76894,-0.39778 1.49052,-0.86377 1.60351,-1.03554 0.11298,-0.17176 0.20735,-0.21469 0.20971,-0.0954 0.002,0.11929 0.40428,0.01 0.89318,-0.24278 1.27842,-0.6611 3.7384,-2.66466 3.64791,-2.97109 -0.0422,-0.14309 0.0306,-0.19378 0.16186,-0.11264 0.13128,0.0811 0.67875,-0.21522 1.21659,-0.65855 0.53785,-0.44334 1.75474,-1.26136 2.7042,-1.81782 0.94946,-0.55647 1.72629,-1.19447 1.72629,-1.41778 0,-0.22332 0.49687,-0.9029 1.10416,-1.51019 0.98046,-0.98046 1.04465,-1.12304 0.57303,-1.27273 -0.37077,-0.11767 -0.99854,0.21215 -2.07932,1.09245 -0.8515,0.69357 -1.80494,1.39843 -2.11874,1.56638 -0.31381,0.16794 -0.48468,0.4443 -0.37972,0.61414 0.11571,0.18722 0.0627,0.22958 -0.13467,0.1076 -0.32386,-0.20015 -1.8175,0.76112 -1.56891,1.00971 0.0717,0.0717 -0.0431,0.13032 -0.25502,0.13032 -1.26661,0 -9.12156,6.04426 -9.12156,7.0189 0,0.47334 0.21018,0.4265 1.8175,-0.40498 z m 7.7171,-2.72699 c 0.17538,-0.17537 3.59094,-0.40643 6.82288,-0.46156 3.52495,-0.0601 8.06105,-0.63407 12.02344,-1.52131 1.69167,-0.37879 3.39033,-0.75799 3.7748,-0.84265 2.32481,-0.51196 7.18484,-1.90848 7.4797,-2.1493 0.19223,-0.15699 0.34952,-0.21732 0.34952,-0.13405 0,0.0833 1.03807,-0.15977 2.30682,-0.54008 2.644919,-0.79283 15.960396,-5.166 16.101796,-5.28828 0.0516,-0.0446 -0.13774,-0.20511 -0.4208,-0.3566 -0.38752,-0.20739 -1.10145,-0.0385 -2.89,0.68352 -2.79516,1.12844 -11.862232,4.29131 -12.837376,4.47806 -0.37153,0.0712 -2.00728,0.48686 -3.63499,0.92378 -5.05145,1.35594 -14.11641,2.84254 -14.79098,2.42563 -0.1285,-0.0794 -0.97922,0.0336 -1.89048,0.25125 -0.91127,0.2176 -2.60054,0.40162 -3.75396,0.40892 -1.15341,0.007 -2.78916,0.20297 -3.63499,0.43481 -0.84584,0.23183 -2.2394,0.39806 -3.09681,0.3694 -1.5706,-0.0525 -2.3446,0.16601 -2.08364,0.58826 0.0778,0.1258 -0.064,0.21148 -0.31486,0.19039 -0.25092,-0.0211 -0.51171,0.11895 -0.57952,0.31119 -0.11371,0.32233 0.78386,0.51421 1.06945,0.22862 z m 17.02882,-0.43834 c 0.25202,-0.16286 0.2865,-0.27276 0.0864,-0.27533 -0.18316,-0.002 -0.41078,0.12155 -0.50583,0.27533 -0.21455,0.34716 -0.11775,0.34716 0.41943,0 z m -11.3244,-2.42117 c 1.53788,-0.39305 2.83835,-0.82774 2.88993,-0.96597 0.0516,-0.13823 0.19716,-0.18744 0.32352,-0.10935 0.27225,0.16826 3.42095,-0.97937 3.66837,-1.33705 0.0941,-0.13601 0.28283,-0.24204 0.41943,-0.23562 0.57754,0.0271 1.50662,-0.32434 1.50662,-0.56995 0,-0.14619 0.12582,-0.18804 0.27961,-0.093 0.15379,0.0951 0.27962,0.0186 0.27962,-0.16991 0,-0.1885 0.0779,-0.26482 0.1731,-0.16961 0.0952,0.0952 1.25911,-0.36881 2.58644,-1.03116 1.32733,-0.66235 2.82227,-1.36367 3.32208,-1.5585 0.49981,-0.19483 0.90875,-0.44383 0.90875,-0.55333 0,-0.1095 0.15728,-0.20151 0.34952,-0.20448 0.19223,-0.003 2.33468,-0.96764 4.76098,-2.14372 2.42631,-1.17607 4.45526,-2.13832 4.50879,-2.13832 0.0535,0 2.094815,-0.96471 4.536205,-2.143812 2.441388,-1.179102 4.53326,-2.122802 4.6486,-2.097112 0.115342,0.0257 0.209712,-0.10009 0.209712,-0.27952 0,-0.17941 0.07215,-0.25406 0.160339,-0.16587 0.08819,0.0882 1.56665,-0.49796 3.28548,-1.30253 1.71882,-0.80458 3.53407,-1.64144 4.03388,-1.85969 0.49981,-0.21824 0.90875,-0.49935 0.90875,-0.62467 0,-0.12533 0.0944,-0.16997 0.20971,-0.0992 0.11534,0.0707 0.77593,-0.16779 1.46798,-0.5301 0.87547,-0.45832 1.08289,-0.66257 0.68179,-0.67136 -0.88895,-0.0195 -4.57054,-1.03414 -6.17781,-1.70261 l -1.44161,-0.59958 -2.053577,1.37841 c -1.129471,0.75812 -2.651289,1.72564 -3.381814,2.15003 -0.746236,0.43352 -1.248016,0.90142 -1.145159,1.06784 0.102627,0.16606 0.05117,0.2147 -0.117123,0.11069 -0.403246,-0.24922 -3.175656,1.49548 -2.951844,1.85762 0.09877,0.15981 0.03902,0.20039 -0.135899,0.0923 -0.36313,-0.22443 -4.8073,2.278462 -4.8073,2.707402 0,0.15866 -0.0816,0.2069 -0.18128,0.10719 -0.0997,-0.0997 -0.79176,0.15097 -1.53789,0.55707 -0.91722,0.499212 -1.3671,0.927722 -1.38903,1.323042 -0.0264,0.47697 -0.0561,0.49393 -0.16095,0.0921 -0.1221,-0.46805 -0.16933,-0.46853 -0.94621,-0.01 -0.44974,0.26567 -0.81771,0.58915 -0.81771,0.71886 0,0.12971 -0.12582,0.15807 -0.27961,0.063 -0.15379,-0.0951 -0.27962,-0.0186 -0.27962,0.16991 0,0.18849 -0.0843,0.25839 -0.18739,0.15533 -0.10306,-0.10307 -0.44909,-0.0213 -0.76894,0.18181 -0.31985,0.20306 -1.30505,0.65851 -2.18933,1.01211 -0.88429,0.3536 -1.60779,0.81703 -1.60779,1.02985 0,0.21282 -0.10481,0.35549 -0.23293,0.31704 -0.12811,-0.0384 -0.7887,0.41837 -1.46798,1.01514 -0.67928,0.59678 -1.7069,1.39992 -2.2836,1.78475 -0.57671,0.38484 -1.04856,0.81193 -1.04856,0.94909 0,0.13716 -0.28311,0.35893 -0.62913,0.49283 -0.34603,0.1339 -1.43332,0.70021 -2.4162,1.25848 -0.98289,0.55826 -1.8482,0.95388 -1.92292,0.87917 -0.0747,-0.0747 -0.57562,0.0479 -1.11313,0.27248 -0.53751,0.22459 -1.65397,0.40834 -2.48102,0.40834 -0.9593,0 -1.50374,0.11811 -1.50374,0.32622 0,0.17941 -0.0815,0.24472 -0.18109,0.14512 -0.21485,-0.21485 -2.33544,0.92728 -2.33544,1.25784 0,0.37797 1.11226,0.2366 4.05442,-0.51536 z m 6.15153,-0.65459 c -0.0951,-0.15379 -0.2283,-0.27961 -0.29612,-0.27961 -0.0678,0 -0.12331,0.12582 -0.12331,0.27961 0,0.15379 0.13326,0.27962 0.29612,0.27962 0.16286,0 0.21835,-0.12583 0.12331,-0.27962 z m 3.08524,-0.53519 c 1.08174,-0.26239 2.21418,-0.58814 2.51654,-0.7239 0.30236,-0.13576 0.67557,-0.27097 0.82936,-0.30046 0.15379,-0.0295 0.34253,-0.0786 0.41942,-0.10919 0.0769,-0.0305 0.39146,-0.0995 0.69904,-0.1531 0.71525,-0.12475 1.65722,-0.3558 1.74759,-0.42864 0.0384,-0.031 0.19573,-0.0878 0.34952,-0.12625 0.15379,-0.0384 0.37398,-0.10014 0.48933,-0.13711 0.11534,-0.037 0.33553,-0.0863 0.48932,-0.10961 1.08166,-0.16408 3.21557,-0.88138 3.21557,-1.08091 0,-0.13379 0.13134,-0.16208 0.29187,-0.0629 0.16052,0.0992 0.46958,0.0329 0.68679,-0.14737 0.2172,-0.18027 0.4948,-0.26879 0.61688,-0.19671 0.12208,0.0721 0.53653,0.001 0.921,-0.1573 0.38447,-0.15859 0.82486,-0.31799 0.97865,-0.35423 1.37596,-0.32418 2.89509,-0.80155 3.35538,-1.05436 0.30757,-0.16895 0.809934,-0.34865 1.116364,-0.39934 0.926887,-0.15334 5.844012,-1.77534 6.148796,-2.02829 0.156439,-0.12983 0.410262,-0.23866 0.56405,-0.24183 1.007136,-0.0208 2.115989,-0.39972 2.01021,-0.68695 -0.06754,-0.18342 -0.273718,-0.29891 -0.458161,-0.25665 -0.184442,0.0422 -0.265703,-0.0359 -0.180577,-0.1736 0.08513,-0.13773 0.554968,-0.33046 1.044094,-0.42829 0.48913,-0.0978 0.8307,-0.2365 0.75904,-0.30815 -0.24449,-0.24449 -2.316915,0.47249 -2.697116,0.9331 -0.208534,0.25263 -0.296367,0.29701 -0.195183,0.0986 0.227364,-0.44581 -0.838926,-0.23226 -2.58913,0.51854 -0.6536,0.28037 -1.188364,0.42877 -1.188364,0.32977 0,-0.099 -0.141158,-0.0388 -0.313688,0.13368 -0.172529,0.17253 -0.487095,0.24714 -0.699038,0.16581 -0.211939,-0.0813 -0.385348,-0.036 -0.385348,0.10067 0,0.1367 -0.299358,0.27333 -0.66524,0.30361 -0.365881,0.0303 -1.026471,0.20446 -1.467975,0.38707 -0.441504,0.18261 -0.865654,0.34826 -0.942544,0.36811 -2.23363,0.57656 -3.07576,0.84918 -3.07576,0.99568 0,0.0991 -0.15729,0.18316 -0.34952,0.18683 -0.61645,0.0118 -4.53097,1.25293 -4.90002,1.55362 -0.19595,0.15966 -0.4321,0.21446 -0.52478,0.12178 -0.0927,-0.0927 -0.51407,0.0102 -0.93644,0.22862 -0.42237,0.21842 -0.84681,0.31826 -0.9432,0.22186 -0.0964,-0.0964 -0.17526,-0.0363 -0.17526,0.13358 0,0.16987 -0.2202,0.29742 -0.48933,0.28345 -0.63283,-0.0328 -5.41493,1.43686 -5.87191,1.80464 -0.19224,0.15471 -0.34952,0.18756 -0.34952,0.073 0,-0.11456 -0.15728,-0.0835 -0.34952,0.0691 -0.19223,0.15256 -0.82486,0.36307 -1.40584,0.46779 -0.58098,0.10471 -0.98249,0.30986 -0.89225,0.45588 0.20561,0.33267 0.38462,0.31541 2.7969,-0.26971 z m 7.40031,-0.6163 c 0.53826,-0.14047 1.33714,-0.31193 1.77529,-0.38102 4.3952,-0.69307 14.119415,-3.70547 22.247216,-6.89184 0.44992,-0.17638 0.58149,-0.35767 0.39497,-0.54419 -0.18653,-0.18653 -1.20303,0.0464 -3.0514,0.69919 -3.703869,1.30812 -15.026406,4.88158 -19.548576,6.16965 -1.99925,0.56945 -3.68742,1.0861 -3.7515,1.14811 -0.19118,0.18501 0.88557,0.0737 1.934,-0.1999 z m -15.30874,-0.46749 c 0.35967,-0.0733 0.44607,-0.27283 0.32574,-0.75224 -0.0901,-0.35885 -0.0228,-0.91583 0.14947,-1.23773 0.17228,-0.3219 0.19762,-0.58527 0.0563,-0.58527 -0.32997,0 -2.27929,2.15022 -2.27929,2.5142 0,0.2608 0.65557,0.28369 1.74777,0.061 z m 2.59051,-0.85519 c 0.10019,-0.1002 0.29751,-0.1979 0.43848,-0.21712 0.14097,-0.0192 0.37315,-0.0507 0.51596,-0.0699 0.1428,-0.0192 0.43206,-0.20738 0.6428,-0.41812 0.21074,-0.21074 0.78162,-0.58921 1.26862,-0.84105 0.63133,-0.32647 0.84052,-0.59769 0.72889,-0.94501 -0.12646,-0.39345 -0.10182,-0.40993 0.12812,-0.0857 0.23496,0.33133 0.36112,0.33801 0.72233,0.0382 0.24072,-0.19977 0.35549,-0.49617 0.25506,-0.65867 -0.11208,-0.18135 -0.0108,-0.22952 0.26225,-0.12474 0.46495,0.17841 1.25724,-0.51583 0.945,-0.82807 -0.0988,-0.0988 -0.17965,-0.0603 -0.17965,0.0856 0,0.14588 -0.32123,0.29182 -0.71386,0.32431 -0.39262,0.0325 -0.9903,0.21152 -1.32817,0.39783 -0.33787,0.18631 -0.92888,0.38364 -1.31335,0.43851 -0.38447,0.0549 -0.7409,0.21764 -0.79208,0.36171 -0.0512,0.14408 -0.3972,0.18562 -0.76894,0.0923 -0.64467,-0.1618 -0.83978,0.0766 -0.69323,0.84707 0.0269,0.14137 -0.14695,0.0945 -0.38631,-0.10414 -0.36344,-0.30163 -0.4352,-0.28638 -0.4352,0.0925 0,0.24951 -0.13458,0.45366 -0.29906,0.45366 -0.49043,0 -0.16068,1.20185 0.3499,1.27532 0.25864,0.0372 0.55224,-0.0143 0.65244,-0.1145 z m 14.74544,-2.96346 c 0.42292,-0.22061 0.76894,-0.33026 0.76894,-0.24366 0,0.0866 0.16886,0.0173 0.37525,-0.15396 0.20638,-0.17128 0.4368,-0.24987 0.51202,-0.17465 0.11807,0.11806 3.48763,-0.91777 4.70503,-1.44637 0.23068,-0.10016 0.51379,-0.16214 0.62913,-0.13772 0.11535,0.0244 0.20972,-0.0623 0.20972,-0.19267 0,-0.13039 0.3862,-0.24805 0.85822,-0.26147 0.47203,-0.0134 1.038244,-0.1738 1.258264,-0.3564 0.220025,-0.18261 0.400041,-0.23828 0.400041,-0.12372 0,0.11455 0.157283,0.0778 0.349518,-0.0818 0.192236,-0.15954 0.443889,-0.30078 0.55923,-0.31386 0.115341,-0.0131 0.241168,-0.0331 0.279615,-0.0446 0.03845,-0.0114 0.355986,-0.074 0.705642,-0.13906 0.349655,-0.0651 1.356268,-0.35391 2.236918,-0.6419 0.880651,-0.28799 3.236929,-1.04306 5.236178,-1.67794 3.34846,-1.06333 3.6901,-1.235792 4.33403,-2.187772 0.38447,-0.568402 0.66446,-1.144192 0.6222,-1.279552 -0.0423,-0.13535 0.0322,-0.17872 0.16541,-0.0964 0.33858,0.20926 2.06688,-1.62942 1.80374,-1.91895 -0.11804,-0.12988 -0.0813,-0.16043 0.0817,-0.0679 0.16298,0.0926 1.04377,-0.53 1.95731,-1.38343 0.91353,-0.85344 1.47222,-1.42299 1.24154,-1.26568 -0.41668,0.28416 -0.58239,0.33358 -1.11846,0.33358 -0.15379,0 -0.53127,0.25166 -0.83884,0.55923 -0.30758,0.30758 -0.55923,0.44305 -0.55923,0.30105 0,-0.30269 -1.72187,0.49343 -2.02293,0.93532 -0.11299,0.16583 -0.20736,0.21356 -0.20971,0.10607 -0.005,-0.24289 -1.14279,0.22945 -5.22635,2.17024 -1.759463,0.83621 -3.292339,1.520392 -3.406392,1.520392 -0.114055,0 -0.357088,0.14972 -0.540078,0.33271 -0.182989,0.18299 -0.495227,0.35656 -0.69386,0.38571 -0.198632,0.0292 -2.181676,0.931842 -4.406764,2.005972 -4.418282,2.13286 -8.997602,4.32405 -9.218492,4.41103 -1.56458,0.61607 -2.51653,1.10611 -2.51653,1.29544 0,0.35324 0.60144,0.28467 1.46798,-0.16736 z m -13.6755,-0.6199 c 0.89838,-0.20476 1.77917,-0.46332 1.95731,-0.57457 0.17814,-0.11126 0.55997,-0.23902 0.84851,-0.28391 0.28855,-0.0449 0.91768,-0.26301 1.39808,-0.4847 0.48039,-0.22169 1.56549,-0.66883 2.41133,-0.99363 1.9412,-0.74545 10.14191,-4.976982 10.3744,-5.353162 0.0955,-0.15456 0.2553,-0.267712 0.35506,-0.251462 0.63029,0.102682 6.64473,-3.60857 6.424782,-3.96446 -0.110896,-0.17943 -0.05111,-0.21573 0.150309,-0.0913 0.28299,0.1749 3.911866,-1.92116 7.421077,-4.28646 l 0.818568,-0.55173 -0.734057,-0.18423 c -0.588074,-0.1476 -1.334702,0.1754 -3.754517,1.62426 -10.096212,6.0451 -20.423752,11.272194 -25.529462,12.921284 -0.84584,0.27319 -1.66371,0.58531 -1.8175,0.69359 -0.15379,0.10828 -0.84097,0.22413 -1.52708,0.25743 -1.32964,0.0645 -1.96811,0.40852 -1.96811,1.06032 0,0.22093 -0.11157,0.33273 -0.24793,0.24846 -0.13636,-0.0843 -0.39304,0.0216 -0.57039,0.2353 -0.26788,0.32278 -0.0958,0.38538 1.01688,0.36987 0.73663,-0.0102 2.07436,-0.18619 2.97274,-0.39095 z m 41.502006,-2.47064 c 0.50246,-0.21811 0.94285,-0.39463 0.97865,-0.39227 0.13145,0.009 9.62902,-3.33958 11.38948,-4.015222 3.63156,-1.393742 10.04486,-4.516332 10.41138,-5.069232 0.11299,-0.17043 0.20735,-0.21834 0.20971,-0.10646 0.005,0.24099 4.27039,-2.47756 6.36552,-4.05713 0.80739,-0.60871 1.46798,-1.28037 1.46798,-1.49258 0,-0.2122 0.21042,-0.385823 0.46759,-0.385823 0.46881,0 4.84509,-4.322624 4.84509,-4.785676 0,-0.201672 -2.58872,1.465967 -3.07576,1.981382 -0.38122,0.403431 -7.08075,3.665447 -8.66807,4.220497 -0.99962,0.34955 -1.97478,0.75553 -2.16701,0.90218 -0.19224,0.14664 -0.34952,0.18562 -0.34952,0.0866 0,-0.099 -0.7235,0.1921 -1.60778,0.64691 -2.06148,1.06025 -4.46198,1.85316 -6.89097,2.27615 -2.27353,0.39592 -6.6551,0.21123 -8.76985,-0.36966 l -1.47036,-0.40388 -2.59885,2.16923 c -3.38077,2.82186 -4.87896,4.770242 -4.7884,6.227204 0.0365,0.58703 0.1407,1.14167 0.23157,1.23254 0.0909,0.0909 0.0384,0.31797 -0.1165,0.50467 -0.62158,0.74895 2.75984,1.42796 4.1361,0.83055 z m -42.170116,-0.12572 c 0.22334,-0.14129 0.50645,-0.19485 0.62913,-0.11903 0.12268,0.0758 0.22306,-0.009 0.22306,-0.18817 0,-0.17932 0.17644,-0.25833 0.39209,-0.17558 0.21565,0.0828 0.47054,0.072 0.56643,-0.0239 0.0959,-0.0959 0.42577,-0.21271 0.73306,-0.25961 1.59363,-0.24321 12.90437,-5.641874 12.65742,-6.041444 -0.10114,-0.16365 -0.0356,-0.19703 0.15529,-0.0791 0.32037,0.198 4.47374,-1.8864 4.8204,-2.41915 0.0941,-0.1446 0.25138,-0.25216 0.34952,-0.23902 0.48559,0.065 0.67864,-0.0194 1.23875,-0.54118 0.33359,-0.31078 0.68231,-0.54439 0.77494,-0.51913 0.31041,0.0847 4.845251,-2.65317 4.722794,-2.85131 -0.06648,-0.10757 0.09797,-0.17833 0.365439,-0.15725 0.26897,0.0212 0.451981,-0.12716 0.409485,-0.33197 -0.04225,-0.20366 0.04269,-0.29643 0.188759,-0.20616 0.146074,0.0903 0.584071,0.019 0.973326,-0.15832 l 0.707739,-0.32247 -0.660985,-0.51993 c -0.74765,-0.588101 -1.122664,-0.677625 -0.825692,-0.19711 0.123091,0.19916 0.07676,0.24695 -0.120955,0.12476 -0.176255,-0.108936 -0.856287,0.16494 -1.511181,0.6086 -0.654892,0.44367 -3.119345,1.91543 -5.476559,3.27059 -3.13105,1.80004 -4.18583,2.53561 -3.91461,2.72995 0.27783,0.19909 0.24988,0.22709 -0.11109,0.1113 -0.28929,-0.0928 -2.30375,0.78442 -5.03307,2.1917 -2.5029,1.290532 -5.24278,2.619384 -6.08861,2.953004 -0.84584,0.33363 -1.85245,0.7399 -2.23692,0.90285 -0.38447,0.16294 -0.79341,0.27594 -0.90875,0.2511 -0.11534,-0.0248 -0.21028,0.0492 -0.21097,0.16456 -5.5e-4,0.11534 -0.46698,0.23403 -1.03621,0.26375 -1.49205,0.0779 -2.36619,0.34066 -2.17304,0.6532 0.0923,0.14927 0.0135,0.27141 -0.17497,0.27141 -0.1885,0 -0.26079,0.0819 -0.16066,0.18207 0.10013,0.10013 -0.0362,0.34778 -0.30291,0.55033 -0.45248,0.34359 -0.4475,0.36859 0.0743,0.37289 0.30757,0.002 0.74196,-0.11099 0.9653,-0.25227 z m 8.4018,-3.928782 c 0,-0.15379 0.0555,-0.27962 0.1233,-0.27962 0.0678,0 0.20107,0.12583 0.29612,0.27962 0.0951,0.153792 0.0396,0.279612 -0.12331,0.279612 -0.16286,0 -0.29611,-0.12582 -0.29611,-0.279612 z m 27.394156,2.527462 c 0.22623,-0.14308 0.33853,-0.33293 0.24955,-0.4219 -0.089,-0.089 -0.32093,0.03 -0.51546,0.26441 -0.40337,0.48603 -0.32603,0.53184 0.26591,0.15749 z m -32.986456,-1.65652 c 2.03458,-0.65761 6.99037,-2.856184 6.99037,-3.101194 0,-0.1062 0.15728,-0.19666 0.34952,-0.20104 0.35631,-0.008 7.2251,-3.6504 7.4797,-3.96623 0.0769,-0.0954 0.28095,-0.19951 0.45345,-0.23138 0.37666,-0.0696 9.741054,-5.715015 10.148742,-6.118283 0.06416,-0.06345 0.135588,-0.335514 0.158743,-0.604568 0.02315,-0.269054 0.257008,-0.898125 0.519672,-1.397941 0.262666,-0.499808 0.402377,-0.908742 0.310471,-0.908742 -0.268022,0 -2.766398,1.486744 -2.954285,1.758049 -0.09409,0.135858 -0.219918,0.217666 -0.279615,0.181791 -0.186275,-0.111935 -2.614124,1.194412 -2.830514,1.523001 -0.11298,0.171577 -0.207344,0.224141 -0.209704,0.116815 -0.002,-0.107331 -1.28098,0.436053 -2.84138,1.207518 -4.80006,2.37316 -8.89979,3.88603 -12.04756,4.44575 -1.62442,0.28885 -1.88929,0.44656 -3.62615,2.15912 -1.03055,1.01614 -1.80899,1.95226 -1.72987,2.08028 0.0791,0.12801 -0.0496,0.30698 -0.28599,0.3977 -0.51506,0.19765 -2.15472,2.781084 -1.91637,3.019424 0.2464,0.2464 0.60934,0.18985 2.31077,-0.36007 z m 52.707406,-7.977134 c 2.27977,-0.38327 5.45424,-1.43361 5.76336,-1.90693 0.0941,-0.14407 0.25355,-0.24626 0.35436,-0.22711 0.10081,0.0191 0.76333,-0.22175 1.47226,-0.53535 0.70894,-0.3136 1.45273,-0.57017 1.65288,-0.57017 0.20015,0 0.56067,-0.19677 0.80115,-0.43725 0.24049,-0.24049 0.54842,-0.36855 0.68428,-0.28458 0.32726,0.20226 6.67285,-2.818263 7.30687,-3.478088 0.0769,-0.08002 0.49292,-0.300754 0.92451,-0.490515 0.47543,-0.209037 0.70637,-0.471782 0.58593,-0.666648 -0.12676,-0.205095 -0.0751,-0.24518 0.14265,-0.110616 0.20007,0.123647 0.50368,-0.0032 0.73334,-0.306317 0.21557,-0.284526 0.39593,-0.398905 0.40082,-0.254174 0.005,0.144741 0.16618,0.05992 0.35841,-0.188419 0.19224,-0.248362 0.78146,-0.687435 1.30939,-0.975723 1.26975,-0.693385 1.51422,-1.347689 0.4048,-1.083381 -1.61016,0.383591 -13.97328,0.515873 -17.20364,0.184065 -4.15625,-0.426899 -4.35844,-0.456458 -5.81229,-0.849561 -0.68166,-0.184318 -1.56245,-0.378328 -1.95731,-0.431147 -0.39486,-0.05284 -0.74938,-0.120424 -0.78783,-0.150247 -0.0385,-0.0298 -0.16427,-0.0782 -0.27961,-0.107615 -0.3111,-0.07926 -2.29625,-0.994133 -3.49949,-1.612844 -0.97318,-0.500422 -2.40794,-0.549954 -5.19465,-0.179351 -0.10099,0.01342 -1.2237,0.0095 -2.4949,-0.0085 l -2.31127,-0.03308 0.0639,-0.838845 c 0.0352,-0.461362 0.18396,-0.838845 0.33066,-0.838845 0.14671,0 0.1927,-0.07408 0.10219,-0.164556 -0.0905,-0.09046 0.20308,-0.788097 0.65243,-1.550196 0.44935,-0.762088 0.817,-1.568827 0.817,-1.792744 0,-0.223907 0.14679,-0.407116 0.32621,-0.407116 0.17942,0 0.25422,-0.07197 0.16623,-0.159991 -0.17932,-0.17932 -2.53706,1.227942 -2.68334,1.601599 -0.0516,0.131764 -0.20887,0.168446 -0.34952,0.08148 -0.14065,-0.08687 -0.25573,-0.01733 -0.25573,0.15457 0,0.171943 -0.12583,0.234855 -0.27962,0.139806 -0.15379,-0.09501 -0.27961,-0.03213 -0.27961,0.139805 0,0.171944 -0.12583,0.234856 -0.27962,0.139816 -0.15379,-0.09501 -0.27961,-0.06637 -0.27961,0.06383 0,0.130136 -0.27179,0.25708 -0.60398,0.282105 -0.33218,0.02505 -0.70774,0.20908 -0.83456,0.409018 -0.12683,0.199949 -0.23252,0.286058 -0.23487,0.191368 -0.002,-0.09469 -0.85361,0.07049 -1.89168,0.366978 -1.9273,0.550546 -2.176082,0.604941 -4.124323,0.901905 -2.05154,0.3127 -2.237372,0.373678 -2.160086,0.708804 0.04225,0.18323 -0.03333,0.265069 -0.167982,0.181856 -0.282884,-0.174839 -2.0183,1.040136 -2.361401,1.653224 -0.127367,0.227595 -0.409642,0.413816 -0.627271,0.413816 -0.217635,0 -0.536135,0.262428 -0.707795,0.58317 -0.17166,0.320753 -0.379808,0.515482 -0.462548,0.432744 -0.0827,-0.08275 -0.33918,0.03826 -0.56986,0.26898 -0.8436,0.84359 -0.0917,0.665242 2.197382,-0.521231 1.288663,-0.667926 2.31308,-1.360128 2.276479,-1.538211 -0.03994,-0.194316 0.118171,-0.252906 0.395386,-0.146527 0.281541,0.108038 0.392281,0.06457 0.283572,-0.111346 -0.103071,-0.166775 0.07435,-0.275352 0.420295,-0.257228 0.928791,0.04872 0.879534,0.52234 -0.177934,1.710958 -0.534595,0.600903 -0.916116,1.148427 -0.847823,1.216719 0.06829,0.06827 -0.09408,0.284314 -0.360811,0.480046 -0.405077,0.297239 -0.16597,0.336901 1.4512,0.240721 1.064899,-0.0633 2.178407,-0.192044 2.474466,-0.286005 1.936235,-0.614537 2.921274,-0.01733 1.592167,0.965345 -1.150168,0.850353 -2.215999,2.540044 -2.372304,3.760879 -0.115622,0.903089 -0.03763,1.066353 0.688799,1.442007 0.450552,0.232989 1.110029,0.413237 1.465509,0.400551 1.260343,-0.04499 2.900743,0.363072 4.215123,1.048532 0.73254,0.38202 1.61332,0.7321 1.95731,0.77795 0.34398,0.0458 0.81416,0.15548 1.04484,0.24363 0.93344,0.35668 3.69607,0.78892 4.08601,0.63928 0.22928,-0.088 0.34871,-0.0497 0.2654,0.0851 -0.0833,0.13481 0.19326,0.31563 0.61461,0.40184 0.42135,0.0862 1.70628,0.41628 2.8554,0.7335 2.72702,0.75279 6.02928,0.9231 8.81567,0.45465 z m -45.017996,-0.85945 c 3.23385,-0.96266 6.52606,-2.34638 10.76135,-4.523031 4.9983,-2.568785 5.146112,-2.651259 5.382122,-3.00322 0.112987,-0.168498 0.207356,-0.201724 0.20971,-0.07387 0.0042,0.231991 1.85083,-0.77383 2.381008,-1.296941 0.185379,-0.182903 0.165278,-0.211521 -0.05965,-0.08486 -0.186592,0.105047 -1.067379,0.230258 -1.957304,0.278258 -1.281461,0.06912 -2.257854,0.399962 -4.693796,1.590524 -1.69167,0.826794 -3.17014,1.475002 -3.28548,1.440458 -0.11534,-0.03455 -0.20971,0.06302 -0.20971,0.216809 0,0.153788 -0.0944,0.249531 -0.20971,0.212761 -0.11534,-0.03677 -1.34215,0.289891 -2.72625,0.725914 -3.05177,0.961381 -3.03182,0.955785 -3.25612,0.913125 -0.35961,-0.0684 -1.33979,1.026443 -1.16792,1.304533 0.10119,0.16374 0.0385,0.2002 -0.14709,0.0855 -0.1878,-0.11606 -1.09228,0.45227 -2.15622,1.35488 -1.008,0.85514 -1.66828,1.54811 -1.4673,1.53992 0.20099,-0.008 1.37205,-0.31453 2.60236,-0.68077 z m 7.13018,-5.983511 c 1.46099,-0.570999 2.97091,-1.21591 3.35538,-1.433138 0.38447,-0.217228 0.76624,-0.377282 0.84838,-0.35567 0.3599,0.09469 2.910706,-1.514835 3.266107,-2.060847 0.639603,-0.982624 0.06815,-0.931718 -2.235507,0.199135 -1.19649,0.587355 -2.26601,1.075866 -2.37673,1.085589 -1.11395,0.09786 -2.01879,0.428728 -2.01879,0.738183 0,0.208742 -0.16406,0.316569 -0.36458,0.239622 -0.20052,-0.07694 -0.89787,0.367401 -1.54966,0.987428 -0.65179,0.620032 -1.29817,1.127332 -1.43641,1.127332 -0.13823,0 -0.3291,0.125827 -0.42415,0.279614 -0.25263,0.408765 0.008,0.337135 2.93596,-0.807248 z M 179.00543,47.071484 c 2.51026,-0.539386 5.42484,-1.635311 8.37627,-3.149585 l 1.93179,-0.991132 -1.25827,-0.04745 c -5.977,-0.225291 -13.1257,0.275649 -15.09921,1.058081 -0.23068,0.09141 -0.73399,0.217587 -1.11846,0.280277 -0.38446,0.06267 -0.74123,0.232879 -0.79282,0.37818 -0.0516,0.145291 -0.19831,0.199579 -0.32605,0.120625 -0.12775,-0.07894 -0.57919,-0.01163 -1.00319,0.14956 -0.67761,0.257619 -0.72128,0.342766 -0.36069,0.703351 0.31784,0.317836 0.69644,0.356779 1.68075,0.172894 1.02944,-0.192319 1.38297,-0.146294 1.86321,0.242581 0.32599,0.26397 0.5321,0.540549 0.45803,0.614621 -0.0741,0.07408 0.0742,0.307986 0.3294,0.519824 0.65114,0.540391 2.65392,0.520872 5.31924,-0.05189 z m -4.23191,-4.482522 c 1.32119,-0.419322 2.66591,-0.515756 9.07913,-0.651081 4.41208,-0.0931 6.05716,-0.03963 6.20623,0.201545 0.11157,0.180525 0.30072,0.230364 0.42031,0.110754 0.1196,-0.119599 -0.28861,-0.698997 -0.90715,-1.287535 -1.24065,-1.18047 -4.31049,-3.236393 -4.31725,-2.891333 -0.002,0.120064 -0.0967,0.09247 -0.20971,-0.0613 -0.32178,-0.437975 -4.87156,-2.376729 -5.57762,-2.376729 -0.0615,0 -0.35626,0.534768 -0.6551,1.188365 -0.80291,1.756041 -1.14117,2.091061 -2.89394,2.866212 -1.01698,0.449758 -1.52214,0.820551 -1.39599,1.024664 0.11532,0.186591 0.0745,0.243743 -0.0979,0.137174 -0.32656,-0.201819 -1.51206,1.477307 -1.29312,1.831561 0.1691,0.273609 0.5581,0.251754 1.64209,-0.09226 z" />
</svg>
