<?xml version="1.0" encoding="UTF-8" standalone="no"?>
<svg
   xmlns:dc="http://purl.org/dc/elements/1.1/"
   xmlns:cc="http://creativecommons.org/ns#"
   xmlns:rdf="http://www.w3.org/1999/02/22-rdf-syntax-ns#"
   xmlns:svg="http://www.w3.org/2000/svg"
   xmlns="http://www.w3.org/2000/svg"
   xmlns:sodipodi="http://sodipodi.sourceforge.net/DTD/sodipodi-0.dtd"
   xmlns:inkscape="http://www.inkscape.org/namespaces/inkscape"
   viewBox="0 0 40 40"
   width="50px"
   height="50px"
   version="1.1"
   id="svg12"
   sodipodi:docname="calendar-50.svg"
   inkscape:export-filename="/code/flanksource/karina-ui/src/assets/svg/webfont-icon-source/calendar-50.png"
   inkscape:export-xdpi="960"
   inkscape:export-ydpi="960"
   inkscape:version="1.0.1 (1.0.1+r75)">
  <metadata
     id="metadata18">
    <rdf:RDF>
      <cc:Work
         rdf:about="">
        <dc:format>image/svg+xml</dc:format>
        <dc:type
           rdf:resource="http://purl.org/dc/dcmitype/StillImage" />
      </cc:Work>
    </rdf:RDF>
  </metadata>
  <defs
     id="defs16" />
  <sodipodi:namedview
     pagecolor="#ffffff"
     bordercolor="#666666"
     borderopacity="1"
     objecttolerance="10"
     gridtolerance="10"
     guidetolerance="10"
     inkscape:pageopacity="0"
     inkscape:pageshadow="2"
     inkscape:window-width="1920"
     inkscape:window-height="1025"
     id="namedview14"
     showgrid="false"
     inkscape:zoom="8.78"
     inkscape:cx="52.944575"
     inkscape:cy="21.725845"
     inkscape:window-x="0"
     inkscape:window-y="27"
     inkscape:window-maximized="1"
     inkscape:current-layer="svg12" />
  <path
     style="fill:#000000;stroke-width:0.08"
     d="m 2.0727199,37.942785 c -0.02093,-0.0551 -0.02883,-8.182174 -0.01756,-18.060174 l 0.02051,-17.9600002 h 18.0399991 18.04 v 18.0400002 18.04 l -18.022444,0.02017 c -14.3759691,0.01609 -18.0301441,-8e-5 -18.0605051,-0.08 z M 37.995669,19.962611 V 2.0826108 h -17.88 -17.8799991 l -0.02051,17.8000002 c -0.01128,9.79 -0.0034,17.845079 0.01756,17.900176 0.03036,0.0799 3.652539,0.09609 17.9005061,0.08 l 17.862443,-0.02018 z M 3.1213839,36.956896 c -0.113353,-0.113352 -0.125714,-1.539497 -0.125714,-14.504 0,-11.076444 0.02204,-14.4003311 0.096,-14.4742851 0.139727,-0.139727 33.9082721,-0.139727 34.0479991,0 0.07395,0.07395 0.096,3.3978411 0.096,14.4742851 0,12.964503 -0.01236,14.390648 -0.125714,14.504 -0.11349,0.113492 -1.765887,0.125715 -16.994286,0.125715 -15.2283971,0 -16.8807941,-0.01222 -16.9942851,-0.125715 z M 36.995669,21.002611 V 8.0426109 h -16.88 -16.8799991 v 12.9600001 12.96 h 16.8799991 16.88 z M 9.1913119,27.860104 c -0.02275,-0.05928 -0.03107,-0.501462 -0.0185,-0.982635 l 0.02286,-0.874858 h 0.9199991 0.92 v 0.96 0.96 l -0.9015,0.02263 c -0.6981411,0.01753 -0.9108281,-0.0017 -0.9428561,-0.08514 z m 4.0000001,0 c -0.02275,-0.05928 -0.03107,-0.501462 -0.0185,-0.982635 l 0.02286,-0.874858 h 0.92 0.92 v 0.96 0.96 l -0.9015,0.02263 c -0.698142,0.01753 -0.910828,-0.0017 -0.942857,-0.08514 z m 4,0 c -0.02275,-0.05928 -0.03107,-0.501462 -0.0185,-0.982635 l 0.02286,-0.874858 h 0.92 0.92 v 0.96 0.96 l -0.9015,0.02263 c -0.698142,0.01753 -0.910828,-0.0017 -0.942857,-0.08514 z m 4,0 c -0.02275,-0.05928 -0.03107,-0.501462 -0.0185,-0.982635 l 0.02286,-0.874858 h 0.92 0.92 v 0.96 0.96 l -0.9015,0.02263 c -0.698142,0.01753 -0.910828,-0.0017 -0.942857,-0.08514 z m 4,0 c -0.02275,-0.05928 -0.03107,-0.501462 -0.0185,-0.982635 l 0.02286,-0.874858 h 0.92 0.92 v 0.96 0.96 l -0.9015,0.02263 c -0.698142,0.01753 -0.910828,-0.0017 -0.942857,-0.08514 z m -16.0000001,-4 c -0.02275,-0.05928 -0.03107,-0.501462 -0.0185,-0.982635 l 0.02286,-0.874858 h 0.9199991 0.92 v 0.96 0.96 l -0.9015,0.02263 c -0.6981411,0.01753 -0.9108281,-0.0017 -0.9428561,-0.08514 z m 4.0000001,0 c -0.02275,-0.05928 -0.03107,-0.501462 -0.0185,-0.982635 l 0.02286,-0.874858 h 0.92 0.92 v 0.96 0.96 l -0.9015,0.02263 c -0.698142,0.01753 -0.910828,-0.0017 -0.942857,-0.08514 z m 4,0 c -0.02275,-0.05928 -0.03107,-0.501462 -0.0185,-0.982635 l 0.02286,-0.874858 h 0.92 0.92 v 0.96 0.96 l -0.9015,0.02263 c -0.698142,0.01753 -0.910828,-0.0017 -0.942857,-0.08514 z m 4,0 c -0.02275,-0.05928 -0.03107,-0.501462 -0.0185,-0.982635 l 0.02286,-0.874858 h 0.92 0.92 v 0.96 0.96 l -0.9015,0.02263 c -0.698142,0.01753 -0.910828,-0.0017 -0.942857,-0.08514 z m 4,0 c -0.02275,-0.05928 -0.03107,-0.501462 -0.0185,-0.982635 l 0.02286,-0.874858 h 0.92 0.92 v 0.96 0.96 l -0.9015,0.02263 c -0.698142,0.01753 -0.910828,-0.0017 -0.942857,-0.08514 z m 4,0 c -0.02275,-0.05928 -0.03107,-0.501462 -0.0185,-0.982635 l 0.02286,-0.874858 h 0.92 0.92 v 0.96 0.96 l -0.9015,0.02263 c -0.698142,0.01753 -0.910828,-0.0017 -0.942857,-0.08514 z m -20.0000001,-4 c -0.02275,-0.05928 -0.03107,-0.501462 -0.0185,-0.982635 l 0.02286,-0.874858 h 0.9199991 0.92 v 0.96 0.96 l -0.9015,0.02263 c -0.6981411,0.01753 -0.9108281,-0.0017 -0.9428561,-0.08514 z m 4.0000001,0 c -0.02275,-0.05928 -0.03107,-0.501462 -0.0185,-0.982635 l 0.02286,-0.874858 h 0.92 0.92 v 0.96 0.96 l -0.9015,0.02263 c -0.698142,0.01753 -0.910828,-0.0017 -0.942857,-0.08514 z m 4,0 c -0.02275,-0.05928 -0.03107,-0.501462 -0.0185,-0.982635 l 0.02286,-0.874858 h 0.92 0.92 v 0.96 0.96 l -0.9015,0.02263 c -0.698142,0.01753 -0.910828,-0.0017 -0.942857,-0.08514 z m 4,0 c -0.02275,-0.05928 -0.03107,-0.501462 -0.0185,-0.982635 l 0.02286,-0.874858 h 0.92 0.92 v 0.96 0.96 l -0.9015,0.02263 c -0.698142,0.01753 -0.910828,-0.0017 -0.942857,-0.08514 z m 4,0 c -0.02275,-0.05928 -0.03107,-0.501462 -0.0185,-0.982635 l 0.02286,-0.874858 h 0.92 0.92 v 0.96 0.96 l -0.9015,0.02263 c -0.698142,0.01753 -0.910828,-0.0017 -0.942857,-0.08514 z m 4,0 c -0.02275,-0.05928 -0.03107,-0.501462 -0.0185,-0.982635 l 0.02286,-0.874858 h 0.92 0.92 v 0.96 0.96 l -0.9015,0.02263 c -0.698142,0.01753 -0.910828,-0.0017 -0.942857,-0.08514 z m -16,-4 c -0.02275,-0.05928 -0.03107,-0.501462 -0.0185,-0.982635 l 0.02286,-0.874858 h 0.92 0.92 v 0.96 0.96 l -0.9015,0.02263 c -0.698142,0.01753 -0.910828,-0.0017 -0.942857,-0.08514 z m 4,0 c -0.02275,-0.05928 -0.03107,-0.501462 -0.0185,-0.982635 l 0.02286,-0.874858 h 0.92 0.92 v 0.96 0.96 l -0.9015,0.02263 c -0.698142,0.01753 -0.910828,-0.0017 -0.942857,-0.08514 z m 4,0 c -0.02275,-0.05928 -0.03107,-0.501462 -0.0185,-0.982635 l 0.02286,-0.874858 h 0.92 0.92 v 0.96 0.96 l -0.9015,0.02263 c -0.698142,0.01753 -0.910828,-0.0017 -0.942857,-0.08514 z m 4,0 c -0.02275,-0.05928 -0.03107,-0.501462 -0.0185,-0.982635 l 0.02286,-0.874858 h 0.92 0.92 v 0.96 0.96 l -0.9015,0.02263 c -0.698142,0.01753 -0.910828,-0.0017 -0.942857,-0.08514 z m 4,0 c -0.02275,-0.05928 -0.03107,-0.501462 -0.0185,-0.982635 l 0.02286,-0.874858 h 0.92 0.92 v 0.96 0.96 l -0.9015,0.02263 c -0.698142,0.01753 -0.910828,-0.0017 -0.942857,-0.08514 z M 3.1117389,6.9012139 c -0.02148,-0.05597 -0.02938,-0.9650549 -0.01756,-2.0201849 l 0.02149,-1.9184182 h 17.0000001 17 v 2 2.0000001 l -16.98244,0.02018 c -13.6840831,0.01627 -16.9900231,4.2e-4 -17.0214901,-0.08158 z"
     id="path270" />
</svg>
