<?xml version="1.0" standalone="no"?>
<!DOCTYPE svg PUBLIC "-//W3C//DTD SVG 20010904//EN"
 "http://www.w3.org/TR/2001/REC-SVG-20010904/DTD/svg10.dtd">
<svg version="1.0" xmlns="http://www.w3.org/2000/svg"
 width="523.000000pt" height="490.000000pt" viewBox="0 0 523.000000 490.000000"
 preserveAspectRatio="xMidYMid meet">

<g transform="translate(0.000000,490.000000) scale(0.100000,-0.100000)"
fill="#000000" stroke="none">
<path d="M2352 4800 c-64 -39 -72 -93 -47 -295 20 -156 19 -219 -2 -280 -28
-78 -48 -90 -205 -119 -310 -59 -541 -169 -828 -395 -127 -100 -154 -114 -203
-100 -46 13 -134 78 -249 185 -122 114 -169 144 -226 144 -47 0 -102 -30 -102
-56 0 -8 -4 -14 -10 -14 -13 0 -13 -51 1 -87 16 -43 45 -69 159 -145 210 -140
280 -212 280 -288 0 -18 -29 -89 -71 -171 -39 -78 -86 -187 -104 -243 -52
-154 -85 -372 -85 -566 0 -129 -15 -238 -36 -261 -8 -9 -26 -20 -40 -23 -34
-9 -31 -29 4 -22 133 26 458 55 742 65 161 6 235 13 260 23 46 20 338 222 368
254 12 14 22 33 22 44 0 46 44 156 75 187 18 18 29 34 26 36 -3 2 0 2 7 0 8
-1 27 -3 43 -3 21 0 43 -12 74 -41 41 -38 44 -39 54 -20 6 11 11 27 11 36 0
23 34 87 59 109 15 13 18 23 11 31 -8 9 -4 11 15 7 14 -2 23 -7 20 -10 -2 -3
5 -10 17 -16 20 -10 62 -62 70 -87 2 -6 61 4 145 25 183 45 249 54 471 62 162
6 185 9 190 25 9 23 277 262 324 289 l37 21 27 -43 c68 -107 141 -328 151
-455 3 -45 9 -87 13 -93 6 -10 37 -9 134 4 69 9 132 16 141 16 20 0 20 43 0
60 -16 13 -20 30 -7 30 4 0 20 -12 36 -27 27 -25 28 -27 10 -40 -21 -15 -15
-17 20 -3 16 6 26 17 26 29 0 35 -77 325 -105 396 -15 39 -52 122 -82 185 -31
63 -61 134 -69 157 -12 40 -11 45 17 102 17 34 44 70 62 83 18 12 37 27 42 34
6 6 62 45 125 87 141 93 180 131 187 184 14 106 -83 167 -182 116 -22 -12 -87
-65 -145 -118 -136 -126 -228 -190 -281 -199 -49 -8 -68 3 -194 108 -164 138
-354 247 -550 316 -49 18 -166 49 -259 70 -139 31 -173 42 -187 61 -9 13 -15
29 -12 36 3 7 1 13 -4 13 -12 0 -13 6 -20 99 -3 43 2 136 12 218 18 148 15
198 -12 240 -35 53 -113 68 -171 33z m-112 -1069 c0 -9 -5 -23 -10 -31 -9 -13
-11 -13 -20 0 -11 18 -13 63 -3 74 9 9 33 -23 33 -43z m516 13 c107 -27 251
-85 354 -142 149 -82 280 -183 280 -216 0 -8 -26 -36 -57 -61 -90 -71 -366
-266 -436 -307 -34 -21 -67 -41 -72 -45 -12 -9 -24 -12 -72 -20 -34 -6 -84 22
-103 57 -20 36 -31 168 -56 642 l-7 118 36 0 c19 0 79 -12 133 -26z m-609 -28
c-2 -27 1 -31 20 -29 17 2 21 -1 16 -14 -4 -11 -3 -14 5 -9 7 4 12 3 12 -3 0
-5 -5 -11 -10 -13 -6 -2 -13 -21 -17 -42 -6 -36 -5 -38 14 -28 11 6 30 34 42
62 12 28 26 48 31 45 6 -4 5 -15 -2 -28 -7 -12 -11 -26 -9 -32 1 -5 -8 -29
-20 -52 -20 -36 -21 -45 -10 -55 11 -11 12 -10 6 1 -5 9 -4 12 3 7 17 -10 15
-61 -3 -76 -16 -14 -35 -6 -35 16 0 8 -5 14 -10 14 -22 0 -90 -41 -100 -59 -5
-11 -10 -59 -10 -108 1 -98 14 -95 24 5 6 66 19 102 37 102 6 0 29 -14 50 -31
l39 -31 -4 -136 c-2 -76 -9 -154 -15 -174 -13 -40 -91 -139 -91 -114 0 8 5 17
10 19 6 3 5 4 -2 3 -14 -3 -14 -9 0 -163 7 -81 6 -93 -8 -93 -8 0 -21 9 -28
21 -8 12 -9 18 -3 15 7 -4 8 -1 5 8 -3 9 -10 16 -16 16 -5 0 -6 5 -3 10 6 9
-9 170 -21 233 -6 31 -24 37 -24 8 0 -11 -5 -23 -10 -26 -18 -11 -463 292
-537 365 -18 18 -33 37 -33 43 0 63 526 360 593 334 29 -11 -5 -195 -48 -257
-34 -49 -59 -62 -132 -68 -58 -4 -62 -6 -52 -24 16 -30 70 -58 112 -58 43 0
50 16 11 26 l-26 7 33 14 c39 16 99 71 99 90 0 7 5 13 11 13 5 0 7 5 4 10 -3
6 -1 10 5 10 6 0 8 5 4 11 -3 6 0 15 7 20 11 7 11 9 1 9 -8 0 -10 5 -5 13 4 6
13 37 18 67 l11 55 15 -60 c15 -55 17 -58 26 -35 6 14 7 39 2 59 -5 22 -4 40
3 48 8 10 6 13 -6 13 -20 0 -34 49 -16 60 23 14 40 -1 37 -34z m343 -32 c11
-25 20 -56 20 -68 0 -23 -67 -101 -115 -132 l-27 -18 7 -296 c4 -163 4 -306 1
-317 -4 -12 -14 -20 -23 -19 -17 3 -16 -9 -32 311 -6 121 -14 228 -17 239 -5
15 -13 17 -42 13 -34 -6 -34 -6 -15 11 10 9 27 22 37 27 10 6 30 31 44 55 20
36 25 57 23 105 -1 46 1 57 10 45 9 -12 10 -11 4 5 -17 47 -17 55 -2 55 18 0
27 -21 27 -61 0 -18 5 -29 14 -29 20 0 37 25 30 43 -3 8 -1 18 5 22 6 3 11 17
11 31 0 38 19 28 40 -22z m-60 -50 c0 -2 -7 -4 -15 -4 -8 0 -15 4 -15 10 0 5
7 7 15 4 8 -4 15 -8 15 -10z m-1165 -568 c104 -78 422 -374 488 -453 55 -67
48 -119 -25 -166 -47 -30 -269 -104 -520 -172 -225 -62 -213 -69 -205 115 9
224 60 435 153 628 30 62 49 90 57 86 7 -4 30 -21 52 -38z"/>
<path d="M2135 3670 c-8 -13 -1 -24 14 -19 6 3 7 10 2 18 -6 10 -10 10 -16 1z"/>
<path d="M2007 3213 c-10 -10 -8 -66 3 -83 7 -11 10 0 10 38 0 53 -1 57 -13
45z"/>
<path d="M2090 3065 c0 -30 5 -55 10 -55 6 0 10 25 10 55 0 30 -4 55 -10 55
-5 0 -10 -25 -10 -55z"/>
<path d="M4353 2733 c-89 -102 -98 -113 -98 -125 0 -6 -6 -13 -14 -16 -9 -3
-11 0 -6 8 4 7 -4 4 -19 -5 -24 -16 -39 -44 -15 -30 6 4 13 -2 16 -13 4 -16
16 -22 53 -27 28 -4 56 -2 68 4 11 6 21 8 24 6 3 -3 12 23 22 56 21 77 16 88
-7 15 -15 -45 -23 -56 -49 -65 -47 -17 -61 -14 -40 7 9 10 37 45 62 79 25 35
47 57 49 51 5 -15 31 68 31 100 0 12 -4 22 -9 22 -5 0 -36 -30 -68 -67z m-123
-153 c0 -5 -5 -10 -11 -10 -5 0 -7 5 -4 10 3 6 8 10 11 10 2 0 4 -4 4 -10z"/>
<path d="M3680 2580 c0 -12 40 -33 48 -25 4 4 -2 13 -12 21 -23 16 -36 18 -36
4z"/>
<path d="M4410 2478 c0 -7 12 -22 27 -32 l26 -19 -23 31 c-26 35 -30 38 -30
20z"/>
<path d="M4128 2383 c6 -2 9 -10 6 -15 -5 -7 -2 -8 6 -3 10 6 12 4 7 -8 -3
-10 -2 -17 3 -17 5 0 14 -10 21 -21 9 -17 8 -20 -3 -14 -10 6 -11 5 0 -6 20
-22 14 -41 -24 -76 -21 -18 -34 -36 -31 -39 10 -11 51 4 75 26 l22 21 42 -40
c23 -22 46 -37 50 -35 12 8 9 34 -4 34 -6 0 -8 3 -5 7 4 3 -2 16 -13 28 -25
26 -19 45 20 69 33 19 35 24 19 46 -9 13 -10 12 -5 -2 3 -10 0 -20 -6 -24 -6
-4 -8 -3 -4 4 11 19 -10 22 -34 5 -21 -15 -68 -27 -56 -16 6 6 -79 83 -90 82
-5 0 -3 -3 4 -6z"/>
<path d="M4580 2292 c0 -5 7 -15 15 -22 8 -7 15 -8 15 -2 0 5 -7 15 -15 22 -8
7 -15 8 -15 2z"/>
<path d="M4640 2079 c0 -11 4 -18 10 -14 5 3 7 12 3 20 -7 21 -13 19 -13 -6z"/>
<path d="M380 2030 c-13 -8 -12 -10 3 -10 9 0 17 5 17 10 0 12 -1 12 -20 0z"/>
<path d="M189 1990 c-105 -22 -133 -39 -155 -95 -18 -49 -10 -92 27 -139 25
-32 40 -32 87 -1 44 29 140 65 174 65 27 0 54 15 42 22 -5 3 -30 9 -56 12 -26
4 -50 11 -53 17 -4 5 -18 7 -33 4 -19 -4 -22 -3 -9 3 17 7 17 9 4 21 -21 17
-13 34 34 67 21 14 39 31 39 35 0 11 5 11 -101 -11z"/>
<path d="M4639 1993 c-1 -5 -1 -11 0 -15 0 -5 -3 -8 -8 -8 -4 0 -18 -27 -30
-60 -52 -143 -239 -307 -416 -364 -165 -53 -330 -64 -632 -43 l-212 15 -143
-33 c-340 -80 -623 -114 -853 -104 -175 9 -275 17 -329 29 -21 5 -49 5 -61 0
-12 -5 -28 -4 -36 1 -11 7 -10 9 6 10 14 1 10 4 -12 11 -18 6 -33 15 -33 20 0
10 82 171 107 210 9 15 15 29 13 31 -3 2 -84 25 -180 50 l-175 46 -170 -55
c-555 -179 -864 -241 -1045 -209 -106 18 -100 19 -100 -4 0 -13 13 -24 42 -36
52 -20 267 -21 405 -2 l92 14 24 -26 c14 -14 36 -44 49 -66 85 -137 309 -366
480 -493 81 -60 92 -79 86 -155 -6 -72 -34 -132 -139 -301 -86 -138 -97 -174
-72 -230 20 -46 56 -82 91 -91 31 -8 74 17 115 67 44 55 48 64 87 178 47 135
94 225 151 285 l50 53 92 -29 c124 -39 266 -66 427 -79 199 -18 280 -8 658 75
71 15 75 15 107 -5 63 -39 109 -118 180 -311 62 -167 84 -200 159 -229 19 -7
30 -5 48 9 13 10 26 18 30 17 9 -2 46 47 57 77 15 40 -3 86 -100 250 -93 157
-119 222 -119 291 0 51 20 77 120 150 96 72 301 275 397 394 43 53 89 100 107
108 17 7 76 23 130 33 64 13 130 35 185 61 72 34 99 54 162 121 85 90 109 101
194 87 72 -12 120 -1 155 34 37 37 45 67 30 112 -19 60 -82 104 -137 97 -7 -1
-13 3 -13 9 0 11 -19 14 -21 3z m-3079 -251 c0 -11 -80 -36 -87 -28 -6 5 24
19 62 29 11 2 21 5 23 6 1 0 2 -3 2 -7z m158 -27 c37 -9 82 -24 99 -35 30 -18
31 -20 21 -57 -26 -95 -167 -425 -187 -437 -18 -12 -122 76 -241 203 -120 128
-160 178 -160 198 0 7 12 19 28 27 61 32 317 114 360 115 7 1 43 -6 80 -14z
m-916 -197 c-9 -9 -15 -9 -24 0 -9 9 -7 12 12 12 19 0 21 -3 12 -12z m2678
-86 c0 -19 -50 -71 -147 -150 -74 -60 -159 -120 -149 -104 3 5 1 12 -4 14 -6
2 -26 41 -44 86 -40 100 -38 131 13 144 60 16 146 26 239 27 82 1 92 -1 92
-17z m-693 -232 c40 -74 73 -145 73 -157 0 -23 -15 -30 -130 -58 -88 -22 -407
-31 -523 -16 -83 11 -214 45 -229 59 -9 9 20 73 90 199 l56 102 136 3 c74 2
207 3 295 3 l160 0 72 -135z"/>
<path d="M89 1648 c6 -18 25 -28 82 -45 89 -26 155 -28 209 -7 47 19 51 28 13
31 -114 8 -233 23 -256 32 -45 18 -58 15 -48 -11z"/>
<path d="M400 1643 c8 -3 21 -11 29 -17 11 -8 13 -8 8 1 -4 7 0 13 10 16 10 3
0 5 -22 5 -22 0 -33 -2 -25 -5z"/>
</g>
</svg>
