<?xml version="1.0" encoding="UTF-8" standalone="no"?>
<svg
   xmlns:dc="http://purl.org/dc/elements/1.1/"
   xmlns:cc="http://creativecommons.org/ns#"
   xmlns:rdf="http://www.w3.org/1999/02/22-rdf-syntax-ns#"
   xmlns:svg="http://www.w3.org/2000/svg"
   xmlns="http://www.w3.org/2000/svg"
   xmlns:sodipodi="http://sodipodi.sourceforge.net/DTD/sodipodi-0.dtd"
   xmlns:inkscape="http://www.inkscape.org/namespaces/inkscape"
   viewBox="0 0 40 40"
   width="50px"
   height="50px"
   version="1.1"
   id="svg14"
   sodipodi:docname="cancel-50.svg"
   inkscape:export-filename="/code/flanksource/karina-ui/src/assets/svg/webfont-icon-source/cancel-50.png"
   inkscape:export-xdpi="960"
   inkscape:export-ydpi="960"
   inkscape:version="1.0.1 (1.0.1+r75)">
  <metadata
     id="metadata20">
    <rdf:RDF>
      <cc:Work
         rdf:about="">
        <dc:format>image/svg+xml</dc:format>
        <dc:type
           rdf:resource="http://purl.org/dc/dcmitype/StillImage" />
      </cc:Work>
    </rdf:RDF>
  </metadata>
  <defs
     id="defs18" />
  <sodipodi:namedview
     pagecolor="#ffffff"
     bordercolor="#666666"
     borderopacity="1"
     objecttolerance="10"
     gridtolerance="10"
     guidetolerance="10"
     inkscape:pageopacity="0"
     inkscape:pageshadow="2"
     inkscape:window-width="1920"
     inkscape:window-height="1025"
     id="namedview16"
     showgrid="false"
     inkscape:zoom="8.78"
     inkscape:cx="15.706808"
     inkscape:cy="25.180802"
     inkscape:window-x="0"
     inkscape:window-y="27"
     inkscape:window-maximized="1"
     inkscape:current-layer="svg14" />
  <path
     style="fill:#000000;stroke-width:0.08"
     d="m 19.436324,39.194088 c 0.319,-0.01518 0.841,-0.01518 1.16,0 0.319,0.01519 0.058,0.02761 -0.58,0.02761 -0.638,0 -0.899,-0.01242 -0.58,-0.02761 z M 18.14086,39.078715 c 0.129504,-0.03012 -0.01654,-0.03896 -0.324536,-0.01963 -0.402626,0.02527 -0.515036,0.013 -0.4,-0.04367 0.118888,-0.05857 0.05722,-0.06878 -0.24,-0.03974 -0.306408,0.02994 -0.362564,0.01986 -0.24,-0.04308 0.128886,-0.06619 0.105551,-0.07366 -0.12,-0.03844 -0.364543,0.05692 -1.569945,-0.196662 -1.424444,-0.299666 0.07062,-0.04999 0.03889,-0.05983 -0.09797,-0.03036 -0.283769,0.0611 -0.606343,-0.02797 -0.464351,-0.128209 0.07302,-0.05155 0.03946,-0.06076 -0.106194,-0.02915 -0.515307,0.11186 -3.502411,-1.19332 -5.0270431,-2.196506 -1.295528,-0.852436 -2.00009,-1.427345 -3.127483,-2.551966 -1.686105,-1.681959 -2.679506,-3.056693 -3.706898,-5.129851 -0.670415,-1.352821 -1.356635,-3.308074 -1.281538,-3.651503 0.039,-0.178369 0.03044,-0.199243 -0.04246,-0.103455 -0.07168,0.09418 -0.08063,0.05977 -0.04162,-0.16 0.03209,-0.18074 0.02363,-0.242263 -0.02385,-0.173547 -0.09808,0.141932 -0.186759,-0.290333 -0.132616,-0.646453 0.02876,-0.189189 0.02085,-0.217216 -0.02904,-0.102908 -0.05617,0.128689 -0.07854,0.09475 -0.123707,-0.187711 -0.03032,-0.189642 -0.03577,-0.476333 -0.0121,-0.637092 0.03417,-0.232065 0.0263,-0.259323 -0.0382,-0.132289 -0.05983,0.11785 -0.07197,0.01248 -0.04609,-0.4 0.01933,-0.308 0.0105,-0.454065 -0.01963,-0.324589 -0.04614,0.198303 -0.06035,-3.325254 -0.01741,-4.315411 0.01149,-0.264987 0.02681,-0.292494 0.08912,-0.16 0.05662,0.120407 0.06459,0.08767 0.0322,-0.132289 -0.02367,-0.160759 -0.01823,-0.44745 0.0121,-0.637092 0.04517,-0.282463 0.06753,-0.316401 0.123707,-0.187711 0.0499,0.114308 0.05781,0.08628 0.02904,-0.102908 -0.05414,-0.35612 0.03453,-0.788386 0.132616,-0.646453 0.04749,0.06872 0.05594,0.0072 0.02386,-0.173547 -0.03901,-0.219767 -0.03006,-0.254186 0.04162,-0.16 0.0729,0.09579 0.08147,0.07491 0.04246,-0.103455 -0.0751,-0.343429 0.611122,-2.298683 1.281537,-3.651504 1.017999,-2.0542038 2.016463,-3.4402568 3.667814,-5.0916088 1.651352,-1.651352 3.037406,-2.649815 5.0916101,-3.667814 1.352821,-0.670415 3.308075,-1.356635 3.651503,-1.281539 0.143328,0.03134 0.186947,0.02293 0.121643,-0.02345 -0.139378,-0.09899 0.615664,-0.269879 0.960441,-0.217374 0.189567,0.02887 0.218215,0.02097 0.10428,-0.02877 -0.12869,-0.05617 -0.09475,-0.07854 0.187711,-0.123708 0.189641,-0.03032 0.476333,-0.03577 0.637092,-0.0121 0.198816,0.02928 0.242096,0.02134 0.135337,-0.02482 -0.251417,-0.108691 0.496857,-0.143834 2.716952,-0.1276 2.582299,0.01888 2.684921,0.02386 2.48,0.120216 -0.120408,0.05662 -0.08767,0.06459 0.132288,0.0322 0.16076,-0.02367 0.447451,-0.01823 0.637092,0.0121 0.282464,0.04517 0.316401,0.06753 0.187712,0.123708 -0.114308,0.0499 -0.08628,0.05781 0.102908,0.02904 0.358941,-0.05457 0.787724,0.03446 0.646452,0.134232 -0.07197,0.05083 -0.0349,0.05956 0.114438,0.02696 0.252237,-0.05506 1.437398,0.260963 1.372497,0.365977 -0.02293,0.03711 0.0099,0.04768 0.0729,0.02349 0.330662,-0.126887 3.134912,1.181209 4.594513,2.143199 1.237507,0.815613 1.853468,1.323736 3.025772,2.496039 1.651351,1.651352 2.649815,3.037406 3.667813,5.0916098 0.670415,1.352821 1.356635,3.308075 1.281539,3.651504 -0.03227,0.147555 -0.02375,0.187979 0.02508,0.119011 0.103004,-0.145501 0.35659,1.059901 0.299667,1.424444 -0.03522,0.225551 -0.02774,0.248886 0.03844,0.12 0.06294,-0.122563 0.07302,-0.06641 0.04308,0.24 -0.02904,0.29722 -0.01883,0.358888 0.03974,0.24 0.05667,-0.115036 0.06894,-0.0026 0.04367,0.4 -0.01933,0.308 -0.0105,0.454041 0.01963,0.324536 0.03013,-0.129506 0.05477,0.714453 0.05477,1.875464 0,1.16101 -0.02465,2.004969 -0.05477,1.875464 -0.03012,-0.129505 -0.03896,0.01654 -0.01963,0.324536 0.02527,0.402625 0.013,0.515036 -0.04367,0.4 -0.05857,-0.118888 -0.06878,-0.05722 -0.03974,0.24 0.02994,0.306408 0.01986,0.362563 -0.04308,0.24 -0.06619,-0.128887 -0.07366,-0.105551 -0.03844,0.12 0.05692,0.364542 -0.196663,1.569945 -0.299667,1.424444 -0.04882,-0.06897 -0.05734,-0.02854 -0.02508,0.119011 0.08402,0.38425 -0.620081,2.330652 -1.395091,3.856545 -0.40659,0.800525 -0.732294,1.350957 -0.791737,1.338017 -0.05554,-0.01209 -0.07856,0.01431 -0.05115,0.05866 0.05402,0.0874 -0.347693,0.71258 -1.107328,1.723324 -0.57174,0.760738 -2.41949,2.633357 -3.215753,3.259031 -0.976679,0.76744 -2.27238,1.576939 -3.489581,2.180142 -1.394795,0.691214 -3.549919,1.435591 -3.936859,1.359787 -0.162388,-0.03181 -0.211556,-0.02319 -0.141972,0.0249 0.141933,0.09808 -0.290332,0.186758 -0.646452,0.132616 -0.215143,-0.03271 -0.232396,-0.02535 -0.1,0.04263 0.122563,0.06294 0.06641,0.07302 -0.24,0.04308 -0.297975,-0.02911 -0.35919,-0.01891 -0.24,0.04 0.119189,0.05891 0.05797,0.06911 -0.24,0.04 -0.29722,-0.02904 -0.358888,-0.01883 -0.24,0.03974 0.115036,0.05667 0.0026,0.06894 -0.4,0.04367 -0.308,-0.01933 -0.454041,-0.0105 -0.324536,0.01963 0.129505,0.03013 -0.714454,0.05477 -1.875464,0.05477 -1.161011,0 -2.00497,-0.02465 -1.875464,-0.05477 z m 4.955464,-0.297754 c 2.378585,-0.422303 4.67155,-1.256622 6.530464,-2.376175 0.484389,-0.291728 0.591864,-0.328444 0.501431,-0.171297 -0.03344,0.0581 -0.02703,0.07207 0.01528,0.03333 0.04005,-0.03667 0.07283,-0.105667 0.07283,-0.153333 0,-0.04767 0.05001,-0.103337 0.111136,-0.123712 0.07601,-0.02534 0.09092,-0.0022 0.04717,0.07333 -0.03776,0.06517 -0.03413,0.08307 0.0089,0.04371 0.04005,-0.03667 0.07283,-0.105667 0.07283,-0.153333 0,-0.04767 0.05001,-0.103337 0.111136,-0.123712 0.07601,-0.02534 0.09092,-0.0022 0.04717,0.07333 -0.03776,0.06517 -0.03413,0.08307 0.0089,0.04371 0.04005,-0.03667 0.07283,-0.105667 0.07283,-0.153333 0,-0.04767 0.05001,-0.103337 0.111136,-0.123712 0.07601,-0.02534 0.09092,-0.0022 0.04717,0.07333 -0.03776,0.06517 -0.03413,0.08307 0.0089,0.04371 0.04006,-0.03667 0.07338,-0.09067 0.07405,-0.12 0.0024,-0.102861 0.129052,-0.253333 0.213292,-0.253333 0.05068,0 0.04069,0.0566 -0.02472,0.14 -0.09984,0.127302 -0.09692,0.129897 0.03214,0.0286 0.07806,-0.06127 0.123375,-0.129958 0.100694,-0.152639 -0.05491,-0.05491 0.115508,-0.255961 0.216964,-0.255961 0.044,0 0.03059,0.063 -0.0298,0.14 -0.09984,0.127302 -0.09692,0.129897 0.03214,0.0286 0.07806,-0.06127 0.123375,-0.129958 0.100694,-0.152639 -0.05491,-0.05491 0.115508,-0.255961 0.216964,-0.255961 0.044,0 0.03121,0.063 -0.02842,0.14 -0.08776,0.113326 -0.07429,0.11088 0.07069,-0.01284 0.09851,-0.08406 0.160813,-0.171142 0.138448,-0.193508 -0.05368,-0.05368 0.201816,-0.333649 0.304482,-0.333649 0.044,0 0.01168,0.081 -0.07183,0.18 -0.137155,0.162606 -0.130653,0.161287 0.06728,-0.01365 0.120512,-0.106507 0.200523,-0.212239 0.177801,-0.234961 -0.05322,-0.05322 0.528867,-0.65139 0.633871,-0.65139 0.0437,0 -0.04267,0.126 -0.191928,0.28 -0.149263,0.154 -0.25465,0.28 -0.234193,0.28 0.02046,0 0.396519,-0.368362 0.835693,-0.818583 0.439175,-0.45022 0.6635,-0.695157 0.4985,-0.544306 -0.165,0.150851 -0.3,0.23852 -0.3,0.194818 0,-0.105005 0.598172,-0.68709 0.65139,-0.633872 0.02272,0.02272 0.128454,-0.05729 0.234961,-0.1778 0.174936,-0.197939 0.176255,-0.204441 0.01365,-0.06729 -0.099,0.0835 -0.18,0.115827 -0.18,0.07183 0,-0.102666 0.279969,-0.358161 0.333649,-0.304482 0.02237,0.02236 0.109444,-0.03993 0.193507,-0.138447 0.123724,-0.144987 0.12617,-0.158456 0.01284,-0.07069 -0.077,0.05963 -0.14,0.07242 -0.14,0.02842 0,-0.101456 0.201049,-0.271875 0.25596,-0.216964 0.02268,0.02268 0.09137,-0.02263 0.15264,-0.100694 0.101296,-0.12906 0.0987,-0.131975 -0.0286,-0.03214 -0.077,0.06039 -0.14,0.0738 -0.14,0.0298 0,-0.101456 0.201049,-0.271875 0.25596,-0.216964 0.02268,0.02268 0.09137,-0.02263 0.15264,-0.100694 0.101296,-0.12906 0.0987,-0.131975 -0.0286,-0.03214 -0.077,0.06039 -0.14,0.0738 -0.14,0.0298 0,-0.104794 0.201881,-0.271043 0.259349,-0.213574 0.02455,0.02454 0.0718,6.4e-4 0.105,-0.05306 0.04076,-0.06594 0.02699,-0.07705 -0.04237,-0.03419 -0.06849,0.04233 -0.09039,0.02644 -0.06569,-0.04764 0.02038,-0.06113 0.07605,-0.111136 0.123712,-0.111136 0.04767,0 0.116666,-0.03277 0.153333,-0.07283 0.03936,-0.043 0.02145,-0.04663 -0.04371,-0.0089 -0.0755,0.04375 -0.09867,0.02884 -0.07333,-0.04717 0.02037,-0.06112 0.07604,-0.111136 0.123712,-0.111136 0.04767,0 0.116666,-0.03277 0.153333,-0.07283 0.03936,-0.043 0.02146,-0.04663 -0.04371,-0.0089 -0.0755,0.04375 -0.09867,0.02884 -0.07333,-0.04717 0.02038,-0.06113 0.07605,-0.111136 0.123712,-0.111136 0.04767,0 0.116666,-0.03277 0.153333,-0.07283 0.03873,-0.04231 0.02477,-0.04871 -0.03333,-0.01528 -0.122066,0.07025 -0.127047,0.0081 -0.01599,-0.199395 0.04621,-0.08634 0.11572,-0.137386 0.154472,-0.113436 0.03875,0.02395 0.09651,0.0014 0.128347,-0.05012 0.03824,-0.06188 0.02302,-0.07212 -0.04485,-0.03017 -0.127826,0.079 -0.142038,0.11181 0.450794,-1.040744 0.935873,-1.819477 1.5054,-3.519481 1.879897,-5.611382 0.160079,-0.894183 0.183794,-1.289866 0.183794,-3.066649 0,-1.776783 -0.02372,-2.172467 -0.183794,-3.06665 -0.428976,-2.396216 -1.261909,-4.685045 -2.381376,-6.543815 -0.291729,-0.484389 -0.328444,-0.5918638 -0.171297,-0.501431 0.0581,0.03343 0.07207,0.02703 0.03333,-0.01528 -0.03667,-0.04005 -0.105667,-0.07283 -0.153333,-0.07283 -0.04767,0 -0.103337,-0.05001 -0.123712,-0.111136 -0.02534,-0.07601 -0.0022,-0.09092 0.07333,-0.04717 0.06517,0.03776 0.08307,0.03413 0.04371,-0.0089 -0.03667,-0.04005 -0.105667,-0.07283 -0.153333,-0.07283 -0.04767,0 -0.103337,-0.05001 -0.123712,-0.111136 -0.02534,-0.07601 -0.0022,-0.09092 0.07333,-0.04717 0.06517,0.03776 0.08307,0.03413 0.04371,-0.0089 -0.03667,-0.04005 -0.105667,-0.07283 -0.153333,-0.07283 -0.04767,0 -0.103337,-0.05001 -0.123712,-0.111136 -0.02534,-0.07601 -0.0022,-0.09092 0.07333,-0.04717 0.06517,0.03776 0.08307,0.03413 0.04371,-0.0089 -0.03667,-0.04005 -0.07613,-0.05483 -0.0877,-0.03283 -0.03229,0.06139 -0.285628,-0.168858 -0.285628,-0.259591 0,-0.044 0.063,-0.03059 0.14,0.0298 0.127302,0.09984 0.129896,0.09692 0.0286,-0.03214 -0.06127,-0.07806 -0.129958,-0.123375 -0.15264,-0.100693 -0.05491,0.05491 -0.25596,-0.115508 -0.25596,-0.216964 0,-0.044 0.063,-0.03059 0.14,0.0298 0.127302,0.09984 0.129896,0.09692 0.0286,-0.03214 -0.06127,-0.07806 -0.129958,-0.123376 -0.15264,-0.100694 -0.05491,0.05491 -0.25596,-0.115508 -0.25596,-0.216964 0,-0.044 0.063,-0.03121 0.14,0.02842 0.113326,0.08776 0.11088,0.07429 -0.01284,-0.07069 -0.08406,-0.09851 -0.171141,-0.160813 -0.193507,-0.138447 -0.05368,0.05368 -0.333649,-0.201816 -0.333649,-0.304482 0,-0.044 0.081,-0.01168 0.18,0.07183 0.162606,0.137155 0.161287,0.130653 -0.01365,-0.06728 -0.106507,-0.120512 -0.21214,-0.200621 -0.23474,-0.178021 -0.05309,0.05309 -0.571611,-0.447997 -0.571611,-0.552383 0,-0.0436 0.108,0.0242 0.24,0.150661 0.132,0.126464 0.24,0.213524 0.24,0.193466 0,-0.02006 -0.368186,-0.395793 -0.818191,-0.834967 -0.450004,-0.439175 -0.713269,-0.681499 -0.585033,-0.538499 0.128237,0.143 0.197485,0.26 0.153884,0.26 -0.104385,0 -0.605468,-0.518526 -0.552383,-0.571611 0.0226,-0.0226 -0.05751,-0.128234 -0.178021,-0.23474 -0.197938,-0.174936 -0.20444,-0.176255 -0.06728,-0.01365 0.08351,0.099 0.115827,0.18 0.07183,0.18 -0.102666,0 -0.358162,-0.27997 -0.304482,-0.33365 0.02237,-0.02237 -0.03994,-0.109444 -0.138448,-0.193508 -0.144986,-0.123722 -0.158455,-0.126169 -0.07069,-0.01284 0.15659,0.202208 -0.01778,0.1726 -0.198775,-0.03375 -0.08382,-0.09556 -0.107399,-0.147438 -0.0524,-0.115278 0.145291,0.08496 0.12251,0.0069 -0.03536,-0.121174 -0.114855,-0.09316 -0.125285,-0.09308 -0.06886,5.84e-4 0.04623,0.07674 0.03262,0.09807 -0.04464,0.07 -0.06113,-0.02221 -0.103288,-0.07743 -0.09369,-0.122706 0.0096,-0.04528 -0.04441,-0.13078 -0.12,-0.19 -0.124007,-0.09715 -0.12671,-0.09399 -0.02765,0.03233 0.06039,0.077 0.0738,0.14 0.0298,0.14 -0.104794,0 -0.271043,-0.201881 -0.213575,-0.25935 0.02455,-0.02455 6.4e-4,-0.0718 -0.05306,-0.105 -0.06594,-0.04076 -0.07705,-0.02699 -0.03419,0.04237 0.04233,0.06849 0.02644,0.09039 -0.04764,0.06569 -0.06112,-0.02038 -0.111136,-0.07605 -0.111136,-0.123713 0,-0.04767 -0.03277,-0.116666 -0.07283,-0.153333 -0.043,-0.03936 -0.04663,-0.02146 -0.0089,0.04371 0.04375,0.0755 0.02884,0.09867 -0.04717,0.07333 -0.06113,-0.02037 -0.111136,-0.07604 -0.111136,-0.123712 0,-0.04767 -0.03277,-0.116667 -0.07283,-0.153333 -0.043,-0.03936 -0.04663,-0.02146 -0.0089,0.04371 0.04375,0.0755 0.02884,0.09867 -0.04717,0.07333 -0.06113,-0.02037 -0.111136,-0.07604 -0.111136,-0.123712 0,-0.04767 -0.03277,-0.116667 -0.07283,-0.153334 -0.04231,-0.03873 -0.04871,-0.02477 -0.01528,0.03333 0.09043,0.157147 -0.01704,0.120431 -0.501431,-0.171297 -1.858796,-1.119388 -4.147625,-1.952322 -6.543841,-2.381298 -0.894183,-0.160079 -1.289866,-0.183793 -3.066649,-0.183793 -1.776784,0 -2.172467,0.02371 -3.06665,0.183793 -2.396216,0.428976 -4.685045,1.26191 -6.543815,2.381376 -0.4843891,0.291729 -0.5918641,0.328444 -0.5014311,0.171298 0.03343,-0.0581 0.02703,-0.07207 -0.01528,-0.03333 -0.04005,0.03667 -0.07283,0.105666 -0.07283,0.153333 0,0.04767 -0.05001,0.103337 -0.111136,0.123712 -0.07601,0.02534 -0.09092,0.0022 -0.04717,-0.07333 0.03776,-0.06517 0.03413,-0.08307 -0.0089,-0.04371 -0.04005,0.03667 -0.07283,0.105667 -0.07283,0.153333 0,0.04767 -0.05001,0.103337 -0.111136,0.123712 -0.07601,0.02534 -0.09092,0.0022 -0.04717,-0.07333 0.03776,-0.06517 0.03413,-0.08307 -0.0089,-0.04371 -0.04005,0.03667 -0.07283,0.105667 -0.07283,0.153334 0,0.04767 -0.05001,0.103337 -0.111136,0.123712 -0.07601,0.02534 -0.09092,0.0022 -0.04717,-0.07333 0.03518,-0.06071 0.04319,-0.09238 0.0178,-0.07038 -0.02539,0.022 -0.05222,0.076 -0.05963,0.12 -0.02017,0.11981 -0.168609,0.28 -0.259456,0.28 -0.044,0 -0.03059,-0.063 0.0298,-0.14 0.09984,-0.127303 0.09692,-0.129897 -0.03214,-0.0286 -0.07806,0.06127 -0.123375,0.129957 -0.100693,0.152639 0.05491,0.05491 -0.115508,0.255961 -0.216964,0.255961 -0.044,0 -0.03059,-0.063 0.0298,-0.14 0.09984,-0.127303 0.09692,-0.129897 -0.03214,-0.0286 -0.07806,0.06127 -0.123375,0.129957 -0.100694,0.152639 0.05491,0.05491 -0.115508,0.255961 -0.216964,0.255961 -0.044,0 -0.03121,-0.063 0.02842,-0.14 0.08776,-0.113327 0.07429,-0.11088 -0.07069,0.01284 -0.09851,0.08406 -0.160813,0.171142 -0.138447,0.193507 0.05368,0.05368 -0.201816,0.33365 -0.304482,0.33365 -0.044,0 -0.01168,-0.081 0.07183,-0.18 0.137155,-0.162606 0.130653,-0.161287 -0.06729,0.01365 -0.120512,0.106507 -0.200522,0.212239 -0.1778,0.23496 0.05322,0.05322 -0.528867,0.651391 -0.633872,0.651391 -0.0437,0 0.04267,-0.126 0.191929,-0.28 0.149262,-0.154 0.254649,-0.28 0.234192,-0.28 -0.02046,0 -0.396519,0.368362 -0.835693,0.818582 -0.439141,0.450218 -0.663466,0.695156 -0.498466,0.544304 0.165,-0.150851 0.3,-0.238519 0.3,-0.194818 0,0.105006 -0.598172,0.68709 -0.65139,0.633872 -0.02272,-0.02272 -0.128454,0.05729 -0.234961,0.177801 -0.174936,0.197938 -0.176255,0.20444 -0.01365,0.06728 0.099,-0.0835 0.18,-0.115827 0.18,-0.07183 0,0.102666 -0.27997,0.358161 -0.333649,0.304482 -0.02237,-0.02237 -0.109444,0.03994 -0.193508,0.138448 -0.123723,0.144986 -0.12617,0.158455 -0.01284,0.07069 0.202208,-0.15659 0.172599,0.01778 -0.03375,0.198775 -0.108591,0.09525 -0.147835,0.107397 -0.104644,0.0324 0.05959,-0.103467 0.05046,-0.104873 -0.06625,-0.01021 -0.152308,0.123546 -0.183504,0.209404 -0.04498,0.12379 0.05535,-0.03421 0.07473,-0.01279 0.05,0.05528 -0.02221,0.06113 -0.07743,0.103287 -0.122706,0.09369 -0.04528,-0.0096 -0.13078,0.04441 -0.19,0.12 -0.09715,0.124007 -0.09399,0.12671 0.03233,0.02765 0.077,-0.06039 0.14,-0.0738 0.14,-0.0298 0,0.104794 -0.201881,0.271043 -0.25935,0.213575 -0.02455,-0.02455 -0.0718,-6.4e-4 -0.105,0.05306 -0.04075,0.06594 -0.02699,0.07705 0.04237,0.03419 0.06849,-0.04233 0.09039,-0.02644 0.06569,0.04764 -0.02038,0.06112 -0.07605,0.111136 -0.123712,0.111136 -0.04767,0 -0.116666,0.03277 -0.153333,0.07283 -0.03936,0.043 -0.02146,0.04663 0.04371,0.0089 0.0755,-0.04375 0.09867,-0.02884 0.07333,0.04717 -0.02038,0.06113 -0.07605,0.111136 -0.123712,0.111136 -0.04767,0 -0.116666,0.03277 -0.153333,0.07283 -0.03936,0.043 -0.02146,0.04663 0.04371,0.0089 0.0755,-0.04375 0.09867,-0.02884 0.07333,0.04717 -0.02038,0.06113 -0.07605,0.111136 -0.123712,0.111136 -0.04767,0 -0.116667,0.03277 -0.153333,0.07283 -0.03873,0.04231 -0.02477,0.04871 0.03333,0.01528 0.147486,-0.08487 0.12373,0.0029 -0.107612,0.397666 -0.114186,0.194845 -0.237699,0.335668 -0.274472,0.312941 -0.03677,-0.02273 -0.09291,8.24e-4 -0.124749,0.05234 -0.03615,0.0585 -0.02321,0.07223 0.03447,0.03658 0.145264,-0.08978 0.117712,-0.01525 -0.307938,0.832955 -0.853943,1.70168 -1.414458,3.413468 -1.772375,5.412756 -0.160079,0.894183 -0.183793,1.289867 -0.183793,3.06665 0,1.776783 0.02371,2.172466 0.183793,3.066649 0.428976,2.396216 1.26191,4.685045 2.381376,6.543816 0.291729,0.484388 0.328444,0.591864 0.171298,0.50143 -0.0581,-0.03343 -0.07207,-0.02703 -0.03333,0.01528 0.03667,0.04005 0.105666,0.07283 0.153333,0.07283 0.04767,0 0.103337,0.05001 0.123712,0.111136 0.02534,0.07601 0.0022,0.09092 -0.07333,0.04717 -0.06517,-0.03776 -0.08307,-0.03413 -0.04371,0.0089 0.03667,0.04005 0.105666,0.07283 0.153333,0.07283 0.04767,0 0.103337,0.05001 0.123712,0.111136 0.02534,0.07601 0.0022,0.09092 -0.07333,0.04717 -0.06517,-0.03776 -0.08307,-0.03413 -0.04371,0.0089 0.03667,0.04006 0.105667,0.07283 0.153333,0.07283 0.04767,0 0.103337,0.05001 0.123712,0.111136 0.02534,0.07601 0.0022,0.09092 -0.07333,0.04717 -0.06517,-0.03776 -0.08307,-0.03413 -0.04371,0.0089 0.03667,0.04005 0.07613,0.05483 0.0877,0.03283 0.03229,-0.06139 0.285629,0.168858 0.285629,0.259591 0,0.044 -0.063,0.03059 -0.14,-0.0298 -0.127302,-0.09984 -0.129896,-0.09692 -0.0286,0.03214 0.06127,0.07806 0.129958,0.123376 0.152639,0.100694 0.05491,-0.05491 0.255961,0.115508 0.255961,0.216964 0,0.044 -0.063,0.03059 -0.14,-0.0298 -0.127303,-0.09984 -0.129897,-0.09692 -0.0286,0.03214 0.06127,0.07806 0.129958,0.123376 0.152639,0.100694 0.05491,-0.05491 0.255961,0.115508 0.255961,0.216964 0,0.044 -0.063,0.03121 -0.14,-0.02842 -0.113327,-0.08776 -0.11088,-0.07429 0.01284,0.07069 0.08406,0.09851 0.171142,0.160812 0.193508,0.138447 0.05368,-0.05368 0.333649,0.201816 0.333649,0.304482 0,0.044 -0.081,0.01168 -0.18,-0.07183 -0.162606,-0.137155 -0.161287,-0.130653 0.01365,0.06729 0.106507,0.120512 0.212239,0.200522 0.234961,0.1778 0.05322,-0.05322 0.65139,0.528867 0.65139,0.633872 0,0.0437 -0.126,-0.04267 -0.28,-0.191929 -0.154,-0.149263 -0.28,-0.25465 -0.28,-0.234193 0,0.02046 0.368362,0.396519 0.818582,0.835694 0.45022,0.439174 0.695158,0.663499 0.544307,0.498499 -0.399747,-0.437239 -0.180745,-0.36804 0.240455,0.07598 0.196161,0.206788 0.293656,0.32838 0.216656,0.270205 -0.230971,-0.174504 -0.158196,-0.05264 0.11875,0.198851 0.142312,0.129232 0.190732,0.153967 0.107601,0.05497 -0.08313,-0.099 -0.115149,-0.18 -0.07115,-0.18 0.102665,0 0.358161,0.279969 0.304482,0.333649 -0.02237,0.02237 0.03993,0.109444 0.138447,0.193508 0.144986,0.123723 0.158455,0.126169 0.07069,0.01284 -0.05963,-0.077 -0.07242,-0.14 -0.02842,-0.14 0.101456,0 0.271875,0.201049 0.216964,0.255961 -0.02268,0.02268 0.02263,0.09137 0.100693,0.152639 0.129061,0.101297 0.131976,0.0987 0.03214,-0.0286 -0.06039,-0.077 -0.0738,-0.14 -0.0298,-0.14 0.101456,0 0.271876,0.201049 0.216964,0.255961 -0.02268,0.02268 0.02263,0.09137 0.100694,0.152639 0.129061,0.101297 0.131975,0.0987 0.03214,-0.0286 -0.06039,-0.077 -0.0738,-0.14 -0.0298,-0.14 0.104794,0 0.271043,0.201881 0.213574,0.259349 -0.02455,0.02455 -6.4e-4,0.0718 0.05306,0.105 0.06594,0.04076 0.07705,0.02699 0.03419,-0.04237 -0.04233,-0.06849 -0.02644,-0.09039 0.04764,-0.06569 0.06113,0.02038 0.111136,0.07605 0.111136,0.123712 0,0.04767 0.03277,0.116666 0.07283,0.153333 0.043,0.03936 0.04663,0.02146 0.0089,-0.04371 -0.04375,-0.0755 -0.02884,-0.09867 0.04717,-0.07333 0.06112,0.02038 0.111136,0.07605 0.111136,0.123712 0,0.04767 0.03277,0.116666 0.07283,0.153333 0.043,0.03936 0.04663,0.02146 0.0089,-0.04371 -0.04375,-0.0755 -0.02884,-0.09867 0.04717,-0.07333 0.06112,0.02038 0.111136,0.07605 0.111136,0.123712 0,0.04767 0.03277,0.116666 0.07283,0.153333 0.04231,0.03873 0.04871,0.02477 0.01528,-0.03333 -0.09043,-0.157147 0.01704,-0.120431 0.5014311,0.171297 1.908951,1.149688 4.466544,2.061748 6.730465,2.40014 1.302299,0.194657 1.29306,0.194167 3.2,0.169634 1.403583,-0.01806 2.011422,-0.06069 2.76,-0.193599 z m -4.373768,-0.653892 c -3.402017,-0.230501 -6.678585,-1.459367 -9.5342341,-3.575785 -1.041745,-0.772073 -2.817721,-2.548049 -3.589794,-3.589794 -2.173535,-2.932716 -3.33554,-6.080517 -3.578506,-9.693958 -0.286792,-4.265221 0.957995,-8.426231 3.578506,-11.9620438 0.707104,-0.954084 2.506357,-2.778474 3.419533,-3.467307 3.5806671,-2.700991 7.8112461,-3.99154 12.1323061,-3.700994 3.67171,0.246884 6.881833,1.451303 9.864219,3.700994 0.913176,0.688833 2.712429,2.513223 3.419533,3.467307 2.621805,3.5375598 3.864401,7.6932978 3.578518,11.9680008 -0.300501,4.493285 -2.073559,8.393241 -5.268316,11.587997 -3.206681,3.206681 -7.0716,4.960724 -11.613954,5.270841 -0.634724,0.04333 -1.226043,0.07411 -1.314043,0.0684 -0.088,-0.0057 -0.580196,-0.03886 -1.093768,-0.07366 z m -1.746232,-12.67358 c 1.605548,-1.606 2.973548,-2.92 3.04,-2.92 0.06645,0 1.434452,1.314 3.04,2.92 1.605548,1.606 2.952152,2.92 2.992455,2.92 0.09406,0 2.033658,-1.910893 2.142644,-2.110932 0.07158,-0.131383 -0.297107,-0.530375 -2.846434,-3.0804 -1.610766,-1.611207 -2.928665,-2.983108 -2.928665,-3.048668 0,-0.06556 1.317899,-1.437461 2.928665,-3.048668 2.549327,-2.550026 2.918015,-2.949018 2.846434,-3.0804 -0.108986,-0.200039 -2.048586,-2.110932 -2.142644,-2.110932 -0.0403,0 -1.386907,1.314 -2.992455,2.92 -1.605548,1.606 -2.973548,2.92 -3.04,2.92 -0.06645,0 -1.434452,-1.314 -3.04,-2.92 -1.605548,-1.606 -2.952153,-2.92 -2.992456,-2.92 -0.09406,0 -2.033658,1.910893 -2.142644,2.110932 -0.07158,0.131382 0.297107,0.530374 2.846434,3.0804 1.610766,1.611207 2.928666,2.983108 2.928666,3.048668 0,0.06556 -1.3179,1.437461 -2.928666,3.048668 -2.549327,2.550025 -2.918014,2.949017 -2.846434,3.0804 0.108986,0.200039 2.048586,2.110932 2.142644,2.110932 0.0403,0 1.386908,-1.314 2.992456,-2.92 z m -4.061201,1.778845 c -0.538339,-0.539636 -0.978799,-1.034456 -0.978799,-1.0996 0,-0.06515 1.322817,-1.441625 2.939594,-3.058845 l 2.939594,-2.9404 -2.939594,-2.9404 c -1.616777,-1.61722 -2.939594,-2.99476 -2.939594,-3.061201 0,-0.156009 1.924568,-2.078399 2.080755,-2.078399 0.06514,0 1.441625,1.322817 3.058845,2.939594 l 2.9404,2.939595 2.9404,-2.939595 c 1.61722,-1.616777 2.99476,-2.939594 3.0612,-2.939594 0.156009,0 2.0784,1.924569 2.0784,2.080755 0,0.06514 -1.322818,1.441625 -2.939595,3.058845 l -2.939594,2.9404 2.939594,2.9404 c 1.616777,1.61722 2.939595,2.99476 2.939595,3.061201 0,0.156008 -1.924569,2.078399 -2.080756,2.078399 -0.06514,0 -1.441624,-1.322818 -3.058844,-2.939595 l -2.9404,-2.939594 -2.9404,2.939594 c -1.61722,1.616777 -2.99476,2.939595 -3.061201,2.939595 -0.06644,0 -0.56126,-0.44152 -1.0996,-0.981155 z m 4.061201,-2.018845 c 1.605548,-1.606 2.973183,-2.92 3.039188,-2.92 0.06601,0 1.443195,1.322821 3.060418,2.939601 l 2.940407,2.939601 1.019595,-1.019594 1.019594,-1.019595 -2.939601,-2.940407 c -1.616781,-1.617223 -2.939601,-2.994046 -2.939601,-3.059606 0,-0.06556 1.32282,-1.442383 2.939601,-3.059607 l 2.939601,-2.940407 -1.019594,-1.019594 -1.019595,-1.019595 -2.940407,2.939601 c -1.617223,1.616781 -2.994046,2.939602 -3.059606,2.939602 -0.06556,0 -1.442384,-1.322821 -3.059607,-2.939602 l -2.940407,-2.939601 -1.019594,1.019595 -1.019595,1.019594 2.939601,2.940407 c 1.616781,1.617224 2.939602,2.994047 2.939602,3.059607 0,0.06556 -1.322639,1.442201 -2.939197,3.059201 l -2.939197,2.940003 0.997997,1.000397 c 0.548897,0.55022 1.016721,1.000399 1.039607,1.000399 0.02289,0 1.355242,-1.314 2.96079,-2.92 z m -10.4043071,8.3 -0.275694,-0.3 0.3,0.275693 c 0.279234,0.256609 0.336783,0.324307 0.275694,0.324307 -0.01337,0 -0.148369,-0.135 -0.3,-0.3 z m 26.8043071,0.02 c 0.149262,-0.154 0.289386,-0.28 0.311386,-0.28 0.022,0 -0.08212,0.126 -0.231386,0.28 -0.149263,0.154 -0.289387,0.28 -0.311387,0.28 -0.022,0 0.08212,-0.126 0.231387,-0.28 z m 0,-26.7999998 c -0.194323,-0.198 -0.335314,-0.36 -0.313314,-0.36 0.022,0 0.198991,0.162 0.393314,0.36 0.194322,0.198 0.335313,0.36 0.313313,0.36 -0.022,0 -0.198991,-0.162 -0.393313,-0.36 z m -26.8000011,0 c 0.149263,-0.154 0.289387,-0.28 0.311387,-0.28 0.022,0 -0.08212,0.126 -0.231387,0.28 -0.149262,0.154 -0.289387,0.28 -0.311387,0.28 -0.022,0 0.08212,-0.126 0.231387,-0.28 z M 16.554657,38.805155 c -0.02658,-0.02658 -0.09558,-0.02942 -0.153333,-0.0063 -0.06382,0.02554 -0.04486,0.04449 0.04833,0.04833 0.08433,0.0035 0.131583,-0.01543 0.105,-0.04202 z m -0.4,-0.08 c -0.02658,-0.02658 -0.09558,-0.02942 -0.153333,-0.0063 -0.06382,0.02554 -0.04486,0.0445 0.04833,0.04833 0.08433,0.0035 0.131583,-0.01543 0.105,-0.04202 z m 7.92,0 c -0.02658,-0.02658 -0.09558,-0.02942 -0.153333,-0.0063 -0.06382,0.02554 -0.04486,0.0445 0.04833,0.04833 0.08433,0.0035 0.131583,-0.01543 0.105,-0.04202 z m 0.72,-0.16 c -0.02658,-0.02658 -0.09558,-0.02943 -0.153333,-0.0063 -0.06382,0.02554 -0.04486,0.04449 0.04833,0.04833 0.08433,0.0035 0.131583,-0.01543 0.105,-0.04202 z M 12.416324,37.533489 c -0.11,-0.06288 -0.236,-0.114331 -0.28,-0.114331 -0.044,0 0.01,0.05145 0.12,0.114331 0.11,0.06288 0.236,0.11433 0.28,0.11433 0.044,0 -0.01,-0.05145 -0.12,-0.11433 z m 15.28,0.04 c 0.066,-0.04265 0.084,-0.07755 0.04,-0.07755 -0.044,0 -0.134,0.0349 -0.2,0.07755 -0.066,0.04265 -0.084,0.07755 -0.04,0.07755 0.044,0 0.134,-0.0349 0.2,-0.07755 z m -16.8,-0.757186 c 0,-0.02045 -0.081,-0.07644 -0.18,-0.124413 -0.172851,-0.08376 -0.173832,-0.08229 -0.02471,0.03719 0.163221,0.130767 0.20471,0.148446 0.20471,0.08723 z m 18.56,-0.168444 c 0,-0.022 -0.072,-0.0015 -0.16,0.04563 -0.088,0.0471 -0.16,0.103629 -0.16,0.125629 0,0.022 0.072,0.0015 0.16,-0.04563 0.088,-0.0471 0.16,-0.10363 0.16,-0.125629 z m -19.12,-0.151556 c 0,-0.02045 -0.081,-0.07644 -0.18,-0.124413 -0.1728511,-0.08376 -0.1738321,-0.08229 -0.02471,0.03719 0.163221,0.130767 0.20471,0.148446 0.20471,0.08723 z m 19.68,-0.168444 c 0,-0.022 -0.072,-0.0015 -0.16,0.04563 -0.088,0.0471 -0.16,0.103629 -0.16,0.125629 0,0.022 0.072,0.0015 0.16,-0.04563 0.088,-0.0471 0.16,-0.10363 0.16,-0.125629 z M 3.7763229,29.973489 c -0.0471,-0.088 -0.103629,-0.16 -0.125629,-0.16 -0.022,0 -0.0015,0.072 0.04563,0.16 0.0471,0.088 0.103629,0.16 0.125629,0.16 0.022,0 0.0015,-0.072 -0.04563,-0.16 z m -0.32,-0.56 c -0.0471,-0.088 -0.103629,-0.16 -0.125629,-0.16 -0.022,0 -0.0015,0.072 0.04563,0.16 0.0471,0.088 0.103629,0.16 0.125629,0.16 0.022,0 0.0015,-0.072 -0.04563,-0.16 z m 33.2000011,0 c 0.0471,-0.088 0.06763,-0.16 0.04563,-0.16 -0.022,0 -0.07853,0.072 -0.125629,0.16 -0.0471,0.088 -0.06763,0.16 -0.04563,0.16 0.022,0 0.07853,-0.072 0.125629,-0.16 z m -34.0702351,-1.734 c -0.09431,-0.162177 -0.117081,-0.110268 -0.03988,0.09091 0.02744,0.0715 0.06674,0.113141 0.08733,0.09254 0.0206,-0.0206 -7.52e-4,-0.10315 -0.04745,-0.18345 z m 34.9477841,-0.066 c 0,-0.044 -0.0349,-0.026 -0.07755,0.04 -0.04265,0.066 -0.07755,0.156 -0.07755,0.2 0,0.044 0.0349,0.026 0.07755,-0.04 0.04265,-0.066 0.07755,-0.156 0.07755,-0.2 z m -36.1029011,-3.575 c -0.02554,-0.06382 -0.04449,-0.04486 -0.04833,0.04833 -0.0035,0.08433 0.01543,0.131584 0.04202,0.105 0.02658,-0.02658 0.02942,-0.09558 0.0063,-0.153333 z m 37.2000001,0 c -0.02554,-0.06382 -0.04449,-0.04486 -0.04833,0.04833 -0.0035,0.08433 0.01543,0.131584 0.04202,0.105 0.02658,-0.02658 0.02942,-0.09558 0.0063,-0.153333 z m 0.08,-0.4 c -0.02554,-0.06382 -0.04449,-0.04486 -0.04833,0.04833 -0.0035,0.08433 0.01543,0.131584 0.04202,0.105 0.02658,-0.02658 0.02942,-0.09558 0.0063,-0.153333 z m -37.4400001,-0.4 c -0.02554,-0.06382 -0.04449,-0.04486 -0.04833,0.04833 -0.0035,0.08433 0.01543,0.131584 0.04202,0.105 0.02658,-0.02658 0.02943,-0.09558 0.0063,-0.153333 z m -0.15921,-5.163478 c -0.02028,-0.07784 -0.03821,-0.03352 -0.03984,0.09848 -0.0016,0.132 0.01497,0.195685 0.03688,0.141522 0.02191,-0.05416 0.02325,-0.162162 0.003,-0.24 z m 0.15921,-1.156522 c -0.02554,-0.06382 -0.04449,-0.04486 -0.04833,0.04833 -0.0035,0.08433 0.01543,0.131584 0.04202,0.105 0.02658,-0.02658 0.02943,-0.09558 0.0063,-0.153333 z m 37.4400001,-0.4 c -0.02554,-0.06382 -0.04449,-0.04486 -0.04833,0.04833 -0.0035,0.08433 0.01543,0.131584 0.04202,0.105 0.02658,-0.02658 0.02942,-0.09558 0.0063,-0.153333 z m -0.08,-0.4 c -0.02554,-0.06382 -0.04449,-0.04486 -0.04833,0.04833 -0.0035,0.08433 0.01543,0.131584 0.04202,0.105 0.02658,-0.02658 0.02942,-0.09558 0.0063,-0.153333 z m -35.9770991,-3.705 c 0,-0.044 -0.0349,-0.026 -0.07755,0.04 -0.04265,0.066 -0.07755,0.156 -0.07755,0.2 0,0.044 0.0349,0.026 0.07755,-0.04 0.04265,-0.066 0.07755,-0.156 0.07755,-0.2 z m 34.8122161,0.066 c -0.09431,-0.162177 -0.117081,-0.110268 -0.03988,0.09091 0.02743,0.0715 0.06674,0.113141 0.08733,0.09254 0.0206,-0.0206 -7.2e-4,-0.10315 -0.04745,-0.18345 z m -0.809765,-1.626 c -0.0471,-0.088 -0.10363,-0.16 -0.12563,-0.16 -0.022,0 -0.0015,0.072 0.04563,0.16 0.0471,0.088 0.103629,0.16 0.125629,0.16 0.022,0 0.0015,-0.072 -0.04563,-0.16 z m -32.8800011,-0.56 c 0.0471,-0.088 0.06763,-0.16 0.04563,-0.16 -0.022,0 -0.07853,0.072 -0.125629,0.16 -0.0471,0.088 -0.06763,0.16 -0.04563,0.16 0.022,0 0.07853,-0.072 0.125629,-0.16 z m 32.5600011,0 c -0.0471,-0.088 -0.10363,-0.16 -0.12563,-0.16 -0.022,0 -0.0015,0.072 0.04563,0.16 0.0471,0.088 0.103629,0.16 0.125629,0.16 0.022,0 0.0015,-0.072 -0.04563,-0.16 z m -26,-6.5256298 c 0,-0.022 -0.072,-0.0015 -0.16,0.04563 -0.088,0.0471 -0.16,0.10363 -0.16,0.12563 0,0.022 0.072,0.0015 0.16,-0.04563 0.088,-0.0471 0.16,-0.10363 0.16,-0.12563 z m 19.68,0.168444 c 0,-0.02045 -0.081,-0.07644 -0.18,-0.124413 -0.172851,-0.08376 -0.173832,-0.08229 -0.02471,0.03719 0.163221,0.130767 0.20471,0.148446 0.20471,0.08723 z m -19.12,-0.488444 c 0,-0.022 -0.072,-0.0015 -0.16,0.04563 -0.088,0.0471 -0.16,0.10363 -0.16,0.12563 0,0.022 0.072,0.0015 0.16,-0.04563 0.088,-0.0471 0.16,-0.10363 0.16,-0.12563 z m 18.56,0.168444 c 0,-0.02045 -0.081,-0.07644 -0.18,-0.124413 -0.172851,-0.08376 -0.173832,-0.08229 -0.02471,0.03719 0.163221,0.130767 0.20471,0.148446 0.20471,0.08723 z m -16.96,-0.922814 c 0.066,-0.04265 0.084,-0.07755 0.04,-0.07755 -0.044,0 -0.134,0.0349 -0.2,0.07755 -0.066,0.04265 -0.084,0.07755 -0.04,0.07755 0.044,0 0.134,-0.0349 0.2,-0.07755 z m 15.2,0 c -0.066,-0.04265 -0.156,-0.07755 -0.2,-0.07755 -0.044,0 -0.026,0.0349 0.04,0.07755 0.066,0.04265 0.156,0.07755 0.2,0.07755 0.044,0 0.026,-0.0349 -0.04,-0.07755 z m -2.901667,-1.008334 c -0.02658,-0.02658 -0.09558,-0.02942 -0.153333,-0.0063 -0.06382,0.02554 -0.04486,0.0445 0.04833,0.04833 0.08433,0.0035 0.131583,-0.01543 0.105,-0.04202 z m -8.64,-0.16 c -0.02658,-0.02658 -0.09558,-0.02942 -0.153333,-0.0063 -0.06382,0.02554 -0.04486,0.04449 0.04833,0.04833 0.08433,0.0035 0.131583,-0.01543 0.105,-0.04202 z m 7.92,0 c -0.02658,-0.02658 -0.09558,-0.02942 -0.153333,-0.0063 -0.06382,0.02554 -0.04486,0.04449 0.04833,0.04833 0.08433,0.0035 0.131583,-0.01543 0.105,-0.04202 z m -7.12,-0.16 c -0.02658,-0.02658 -0.09558,-0.02942 -0.153333,-0.0063 -0.06382,0.02554 -0.04486,0.04449 0.04833,0.04833 0.08433,0.0035 0.131583,-0.01543 0.105,-0.04202 z m 6.32,0 c -0.02658,-0.02658 -0.09558,-0.02942 -0.153333,-0.0063 -0.06382,0.02554 -0.04486,0.04449 0.04833,0.04833 0.08433,0.0035 0.131583,-0.01543 0.105,-0.04202 z m -5.076811,-0.164141 c -0.05416,-0.02191 -0.162162,-0.02325 -0.24,-0.003 -0.07784,0.02028 -0.03352,0.03821 0.09848,0.03984 0.132,0.0016 0.195684,-0.01497 0.141522,-0.03688 z m 3.92,0 c -0.05416,-0.02191 -0.162162,-0.02325 -0.24,-0.003 -0.07784,0.02028 -0.03352,0.03821 0.09848,0.03984 0.132,0.0016 0.195684,-0.01497 0.141522,-0.03688 z M 0.92852188,20.133489 c 0,-0.682 0.01227,-0.961 0.02727,-0.62 0.015,0.341 0.015,0.899 0,1.24 -0.015,0.341 -0.02727,0.062 -0.02727,-0.62 z m 38.15959312,0 c 0,-0.638 0.01242,-0.899 0.02761,-0.58 0.01518,0.319 0.01518,0.841 0,1.16 -0.01519,0.319 -0.02761,0.058 -0.02761,-0.58 z M 19.396324,1.0340242 c 0.341,-0.015 0.899,-0.015 1.24,0 0.341,0.015 0.062,0.02727 -0.62,0.02727 -0.682,0 -0.961,-0.01227 -0.62,-0.02727 z"
     id="path118" />
</svg>
