<svg xmlns="http://www.w3.org/2000/svg" viewBox="0 0 40 40" width="50px" height="50px"><path fill="#4788c7" d="M5.5,8L5.5,8C5.225,8,5,7.775,5,7.5v-6C5,1.225,5.225,1,5.5,1h0C5.775,1,6,1.225,6,1.5v6 C6,7.775,5.775,8,5.5,8z"/><path fill="#b6dcfe" d="M16.5 7.5H22.5V13.5H16.5z"/><path fill="#4788c7" d="M22,8v5h-5V8H22 M23,7h-7v7h7V7L23,7z"/><path fill="#b6dcfe" d="M22.5 7.5H28.5V13.5H22.5z"/><path fill="#4788c7" d="M28,8v5h-5V8H28 M29,7h-7v7h7V7L29,7z"/><path fill="#b6dcfe" d="M28.5 7.5H34.5V13.5H28.5z"/><path fill="#4788c7" d="M34,8v5h-5V8H34 M35,7h-7v7h7V7L35,7z"/><path fill="#b6dcfe" d="M16.5 13.5H22.5V19.5H16.5z"/><path fill="#4788c7" d="M22,14v5h-5v-5H22 M23,13h-7v7h7V13L23,13z"/><path fill="#b6dcfe" d="M22.5 13.5H28.5V19.5H22.5z"/><path fill="#4788c7" d="M28,14v5h-5v-5H28 M29,13h-7v7h7V13L29,13z"/><path fill="#b6dcfe" d="M28.5 13.5H34.5V19.5H28.5z"/><path fill="#4788c7" d="M34,14v5h-5v-5H34 M35,13h-7v7h7V13L35,13z"/><path fill="#dff0fe" d="M1.5 19.5L1.5 6.5 12.39 6.5 11.51 10.902 11.501 19.5z"/><path fill="#4788c7" d="M11.78,7l-0.761,3.804L11,10.901V11v8H2V7H11.78 M13,6H1v14h11v-9L13,6L13,6z"/><g><path fill="#98ccfd" d="M4.208,34.557c-0.058-2.056-0.513-3.296-1.034-4.718C2.448,27.861,1.55,25.412,1.502,19.5 c0,0,22.503,0,22.506,0c0.665,0,3.604-0.157,6.215-3h8.274c-0.078,7.803-1.993,10.833-3.539,13.277 c-0.944,1.494-1.769,2.798-1.875,4.783l-13.877,1.834L4.208,34.557z"/><path fill="#4788c7" d="M37.99,17c-0.153,7.288-1.976,10.173-3.454,12.51c-0.88,1.391-1.717,2.716-1.918,4.607 L19.203,35.89L4.689,34.112c-0.11-1.895-0.566-3.138-1.046-4.445C2.916,27.684,2.097,25.452,2.008,20l21.943-0.001 c0,0,0.043,0.002,0.124,0.002c0.6,0,3.638-0.149,6.364-3.001H37.99 M39,16c0,0-6.445,0-9,0c-2.531,2.872-5.424,3.001-5.924,3.001 C24.026,19.001,24,19,24,19H1c0,10.857,2.714,10.592,2.714,16l15.493,1.898L33.571,35C33.571,29.592,39,29.571,39,16L39,16z"/></g><path fill="#98ccfd" d="M5 9H7V12H5z"/><g><path fill="#dff0fe" d="M1.69,23.5c-0.128-1.16-0.181-2.299-0.189-4h22.801l0.142-0.269 C24.502,19.12,25.922,16.5,29.5,16.5h8.998c-0.026,2.755-0.268,5.002-0.753,7H1.69z"/><path fill="#4788c7" d="M37.99,17c-0.045,2.316-0.253,4.259-0.642,6H2.142c-0.082-0.88-0.123-1.793-0.137-3H24l0.602-0.007 l0.283-0.528C24.939,19.365,26.244,17,29.5,17H37.99 M39,16c0,0-6.945,0-9.5,0c-3.947,0-5.5,3-5.5,3H1 c0,2.223,0.064,3.546,0.245,5h36.889C38.659,22,39,19.516,39,16L39,16z"/></g><path fill="#98ccfd" d="M30,23c0-1.105,0.895-2,2-2h1c1.105,0,2,0.895,2,2H30z"/><g><path fill="#b6dcfe" d="M1,39h38v-6.123C37.692,32.614,36.148,32,35,32c-1.458,0-3.563,1-5,1c-1.438,0-3.542-1-5-1 s-3.563,1-5,1c-1.438,0-3.542-1-5-1s-3.563,1-5,1c-1.438,0-3.542-1-5-1c-1.148,0-2.692,0.614-4,0.877V39z"/><path fill="none" stroke="#4788c7" stroke-linecap="round" stroke-miterlimit="10" d="M1.5,33.278 c0.363-0.087,0.738-0.191,1.113-0.297C3.459,32.745,4.335,32.5,5,32.5c0.663,0,1.537,0.246,2.382,0.484 C8.283,33.237,9.215,33.5,10,33.5s1.717-0.263,2.618-0.516C13.463,32.746,14.337,32.5,15,32.5s1.537,0.246,2.382,0.484 C18.283,33.237,19.215,33.5,20,33.5s1.717-0.263,2.618-0.516C23.463,32.746,24.337,32.5,25,32.5s1.537,0.246,2.382,0.484 C28.283,33.237,29.215,33.5,30,33.5s1.717-0.263,2.618-0.516C33.463,32.746,34.337,32.5,35,32.5c0.665,0,1.541,0.245,2.387,0.481 c0.375,0.105,0.75,0.21,1.113,0.297"/></g><path fill="#98ccfd" d="M9 12L11 12 11 12 11 11 11 10.901 11.019 10.804 11.38 9 9 9z"/></svg>