<svg xmlns="http://www.w3.org/2000/svg" viewBox="0 0 40 40" width="50px" height="50px"><path fill="#98ccfd" d="M20,37.5c-9.649,0-17.5-7.851-17.5-17.5S10.351,2.5,20,2.5S37.5,10.351,37.5,20 S29.649,37.5,20,37.5z M20,16.73c-1.803,0-3.269,1.467-3.269,3.27s1.466,3.27,3.269,3.27s3.269-1.467,3.269-3.27 S21.803,16.73,20,16.73z"/><path fill="#4788c7" d="M20,3c9.374,0,17,7.626,17,17s-7.626,17-17,17S3,29.374,3,20S10.626,3,20,3 M20,23.769 c2.078,0,3.769-1.691,3.769-3.769S22.078,16.231,20,16.231S16.231,17.922,16.231,20S17.922,23.769,20,23.769 M20,2 C10.059,2,2,10.059,2,20s8.059,18,18,18c9.941,0,18-8.059,18-18S29.941,2,20,2L20,2z M20,22.769c-1.529,0-2.769-1.24-2.769-2.769 c0-1.529,1.24-2.769,2.769-2.769s2.769,1.24,2.769,2.769C22.769,21.529,21.529,22.769,20,22.769L20,22.769z"/><path fill="#dff0fe" d="M25.898,4.077l-4.593,12.401c0.948,0.352,1.715,1.067,2.128,1.984l12.066-5.409 C33.638,8.916,30.173,5.666,25.898,4.077z"/><path fill="#fff" d="M25.898,4.077l-4.593,12.401c0.32,0.119,0.619,0.276,0.891,0.472L29.92,6.223 C28.691,5.335,27.341,4.613,25.898,4.077z"/><path fill="#dff0fe" d="M14.102,35.923l4.593-12.401c-0.948-0.352-1.715-1.067-2.128-1.984L4.501,26.948 C6.362,31.084,9.827,34.334,14.102,35.923z"/><path fill="#fff" d="M14.102,35.923l4.593-12.401c-0.32-0.119-0.619-0.276-0.891-0.472L10.08,33.777 C11.309,34.665,12.659,35.387,14.102,35.923z"/><g><path fill="#4788c7" d="M20,17.5c1.378,0,2.5,1.121,2.5,2.5s-1.122,2.5-2.5,2.5s-2.5-1.121-2.5-2.5S18.622,17.5,20,17.5 M20,15c-2.761,0-5,2.239-5,5s2.239,5,5,5s5-2.239,5-5S22.761,15,20,15L20,15z"/></g></svg>