<?xml version="1.0" encoding="UTF-8" standalone="no"?>
<svg
   xmlns:dc="http://purl.org/dc/elements/1.1/"
   xmlns:cc="http://creativecommons.org/ns#"
   xmlns:rdf="http://www.w3.org/1999/02/22-rdf-syntax-ns#"
   xmlns:svg="http://www.w3.org/2000/svg"
   xmlns="http://www.w3.org/2000/svg"
   xmlns:sodipodi="http://sodipodi.sourceforge.net/DTD/sodipodi-0.dtd"
   xmlns:inkscape="http://www.inkscape.org/namespaces/inkscape"
   id="svg1756"
   version="1.1"
   viewBox="0 0 130.00001 129.99999"
   height="130mm"
   width="130mm"
   sodipodi:docname="commit.svg"
   inkscape:version="1.0.1 (1.0.1+r75)"
   inkscape:export-filename="/code/flanksource/karina-ui/src/assets/svg/conversion-issues/commit.png"
   inkscape:export-xdpi="97.881699"
   inkscape:export-ydpi="97.881699">
  <sodipodi:namedview
     pagecolor="#ffffff"
     bordercolor="#666666"
     borderopacity="1"
     objecttolerance="10"
     gridtolerance="10"
     guidetolerance="10"
     inkscape:pageopacity="0"
     inkscape:pageshadow="2"
     inkscape:window-width="1920"
     inkscape:window-height="1025"
     id="namedview51"
     showgrid="false"
     inkscape:zoom="1.2375024"
     inkscape:cx="159.69813"
     inkscape:cy="271.49614"
     inkscape:window-x="0"
     inkscape:window-y="27"
     inkscape:window-maximized="1"
     inkscape:current-layer="g883"
     fit-margin-right="0.6"
     inkscape:document-rotation="0" />
  <defs
     id="defs1750" />
  <metadata
     id="metadata1753">
    <rdf:RDF>
      <cc:Work
         rdf:about="">
        <dc:format>image/svg+xml</dc:format>
        <dc:type
           rdf:resource="http://purl.org/dc/dcmitype/StillImage" />
        <dc:title></dc:title>
      </cc:Work>
    </rdf:RDF>
  </metadata>
  <g
     id="g883">
    <path
       style="fill:#000000;stroke-width:0.259184"
       d="m 60.530809,87.798103 c -7.087495,-1.32413 -13.105152,-4.97227 -17.297092,-10.48617 -1.539432,-2.0249 -3.374551,-5.72161 -3.988581,-8.03469 -0.24597,-0.92659 -0.572521,-1.84863 -0.72567,-2.049 -0.23658,-0.30952 -3.113929,-0.34161 -19.134067,-0.21337 l -18.85561197,0.15094 v -4.38547 -4.38548 l 19.08821697,-0.0665 19.088217,-0.0665 0.491858,-1.81428 c 2.032293,-7.49638 8.363323,-14.2715 16.025379,-17.149484 3.77721,-1.418777 5.834738,-1.771687 10.23184,-1.754978 4.370408,0.01661 6.194304,0.335771 9.923488,1.736509 4.627699,1.738234 9.018239,5.021271 12.040974,9.003663 1.560501,2.05593 3.371163,5.72088 4.033556,8.16429 l 0.491843,1.81428 19.023441,0.1296 19.02343,0.12959 0.0712,4.21173 0.0712,4.21174 -17.95489,0.0192 c -9.87519,0.0106 -18.468033,0.098 -19.0952,0.19438 l -1.140307,0.17518 -0.491301,1.81429 c -2.038205,7.52676 -8.347075,14.2656 -16.07177,17.16712 -1.309738,0.49196 -3.145762,1.06517 -4.080054,1.27381 -2.53944,0.56708 -8.260511,0.67838 -10.770139,0.20952 z m 9.848979,-9.069 c 0.855307,-0.22648 2.54648,-0.89529 3.758164,-1.48625 2.991112,-1.45882 6.209346,-4.6107 7.604019,-7.44725 2.244784,-4.56554 2.247532,-9.40276 0.0079,-13.99592 -1.373513,-2.81695 -4.598388,-5.97121 -7.61195,-7.44529 -3.25916,-1.5942 -5.000713,-1.98686 -8.812245,-1.98686 -3.808733,0 -5.548913,0.39185 -8.812245,1.98431 -3.039689,1.48333 -6.237932,4.63276 -7.617715,7.50145 -2.232403,4.64135 -2.235322,9.24129 -0.0088,13.87042 0.716197,1.48903 1.459945,2.48481 3.055444,4.09083 2.892326,2.91141 6.06432,4.58024 10.075496,5.30086 1.846414,0.33172 6.454213,0.11885 8.3619,-0.3863 z"
       id="path511" />
  </g>
</svg>
