<?xml version="1.0" encoding="UTF-8" standalone="no"?>
<svg
   xmlns:dc="http://purl.org/dc/elements/1.1/"
   xmlns:cc="http://creativecommons.org/ns#"
   xmlns:rdf="http://www.w3.org/1999/02/22-rdf-syntax-ns#"
   xmlns:svg="http://www.w3.org/2000/svg"
   xmlns="http://www.w3.org/2000/svg"
   width="130mm"
   height="130mm"
   viewBox="0 0 130 129.99999"
   version="1.1"
   id="svg1756">
  <defs
     id="defs1750">
    <filter
       id="filter858"
       style="color-interpolation-filters:sRGB;">
      <feConvolveMatrix
         id="feConvolveMatrix856"
         targetY="1"
         targetX="1"
         in="SourceGraphic"
         divisor="1"
         kernelMatrix="0 -0.15 0 -0.15 1.6 -0.15 0 -0.15 0"
         order="3 3" />
    </filter>
  </defs>
  <metadata
     id="metadata1753">
    <rdf:RDF>
      <cc:Work
         rdf:about="">
        <dc:format>image/svg+xml</dc:format>
        <dc:type
           rdf:resource="http://purl.org/dc/dcmitype/StillImage" />
        <dc:title></dc:title>
      </cc:Work>
    </rdf:RDF>
  </metadata>
  <g
     transform="matrix(0.94886778,0,0,0.94886778,118.21509,18.090037)"
     id="g812">
    <path
       id="path854"
       d="m -80.344333,117.46148 c -2.855896,-1.02057 -4.637217,-3.11213 -5.147854,-6.04441 -0.161084,-0.92501 -0.292879,-4.35121 -0.292879,-7.61377 v -5.931931 h -0.626168 c -1.236551,0 -4.896315,-1.088057 -6.800193,-2.021714 -3.877097,-1.901322 -7.381813,-5.406032 -9.283133,-9.283129 -0.93366,-1.903877 -2.02171,-5.563642 -2.02171,-6.800192 v -0.626169 h -5.93193 c -3.26256,0 -6.68876,-0.131795 -7.61377,-0.292878 -7.37249,-1.283864 -8.81683,-10.93683 -2.16803,-14.489583 1.07162,-0.572611 1.50433,-0.610817 8.35504,-0.73768 l 7.22489,-0.133795 0.0752,-3.128148 0.0752,-3.128146 -7.16635,-0.08291 c -6.95361,-0.08046 -7.20362,-0.101965 -8.4218,-0.72463 -1.53604,-0.78514 -2.90976,-2.173098 -3.7348,-3.773498 -0.48708,-0.944823 -0.62076,-1.636355 -0.62076,-3.211063 0,-1.574709 0.13368,-2.266241 0.62076,-3.211064 0.82504,-1.6004 2.19876,-2.988358 3.7348,-3.773498 1.21818,-0.622665 1.46819,-0.644177 8.4218,-0.724629 l 7.16635,-0.08291 -0.0752,-3.128145 -0.0752,-3.128149 -7.22489,-0.133795 -7.22489,-0.133794 -1.43943,-0.797221 c -2.33606,-1.293819 -4.04614,-4.123534 -4.04614,-6.695261 0,-2.402665 1.57444,-5.236124 3.63595,-6.5435 1.72093,-1.091376 3.73498,-1.350365 10.50127,-1.350365 h 5.93193 v -0.626178 c 0,-1.236551 1.08805,-4.896315 2.02171,-6.800193 1.91246,-3.8998036 5.461001,-7.4356222 9.329983,-9.2965278 1.944882,-0.9354511 5.552595,-2.0083149 6.753343,-2.0083149 h 0.626168 v -5.9319291 c 0,-6.7662822 0.258989,-8.7803432 1.350365,-10.5012622 1.307376,-2.061519 4.140835,-3.635958 6.5435,-3.635958 2.571727,0 5.401442,1.710079 6.695261,4.046137 l 0.797222,1.439431 0.133793,7.2248932 0.133795,7.22489334 3.128149,0.075246 3.128145,0.075246 0.08291,-7.1663502 c 0.08046,-6.9536043 0.101964,-7.2036193 0.724629,-8.4217983 0.78514,-1.536041 2.173099,-2.909764 3.773498,-3.734799 1.704272,-0.878583 4.717855,-0.878583 6.422127,0 1.6004,0.825035 2.988358,2.198758 3.773498,3.734799 0.622665,1.218179 0.644177,1.468194 0.72463,8.4217983 l 0.08291,7.1663502 3.128146,-0.075246 3.128148,-0.075246 0.133795,-7.22489334 c 0.126863,-6.8507082 0.16507,-7.2834252 0.737681,-8.3550382 2.858336,-5.349231 10.245069,-5.744888 13.432095,-0.719465 1.091377,1.720919 1.350365,3.73498 1.350365,10.5012622 v 5.9319291 h 0.626169 c 1.200747,0 4.80846,1.0728638 6.753342,2.0083149 3.868982,1.8609056 7.417523,5.3967242 9.3299795,9.2965278 0.933666,1.903878 2.021724,5.563642 2.021724,6.800193 v 0.626169 H -1.71726 c 6.7662811,0 8.7803433,0.258988 10.5012627,1.350364 2.0615183,1.307376 3.6359563,4.140835 3.6359563,6.5435 0,2.571728 -1.710079,5.401443 -4.0461377,6.695261 l -1.4394294,0.797222 -7.22489335,0.133794 -7.22489305,0.133794 -0.07525,3.128149 -0.07525,3.128146 7.16634805,0.08291 c 6.95360405,0.08046 7.20362055,0.101964 8.42179885,0.724629 1.5360425,0.78514 2.9097646,2.173099 3.7347986,3.773498 0.881448,1.709828 0.871689,4.703345 -0.02108,6.473428 -0.771012,1.528645 -2.1557198,2.90378 -3.7649976,3.738975 -1.160163,0.60211 -1.4659339,0.627966 -8.37050015,0.707852 l -7.16634675,0.08291 0.07525,3.128146 0.07524,3.128148 7.22489235,0.133795 c 6.85070835,0.126863 7.28342605,0.16507 8.35503865,0.737681 2.7475085,1.46812 4.2071485,3.858065 4.2071485,6.888596 0,3.16101 -1.530883,5.628031 -4.3521395,7.013474 l -1.5203314,0.746596 -7.02420215,0.0929 -7.02420145,0.0929 v 0.600163 c 0,1.213405 -1.096549,4.887628 -2.021715,6.774189 -2.9853665,6.08764 -8.7197805,10.170884 -15.7060355,11.183635 l -1.003458,0.14546 v 5.919811 c 0,6.75422 -0.259352,8.76879 -1.350364,10.48913 -1.307376,2.06152 -4.140835,3.63596 -6.5435,3.63596 -2.571728,0 -5.401443,-1.71008 -6.695261,-4.04614 l -0.797222,-1.43943 -0.133794,-7.22489 -0.133794,-7.224891 -3.128149,-0.0753 -3.128145,-0.0752 -0.08291,7.166351 c -0.08046,6.9536 -0.101964,7.20362 -0.724629,8.42181 -0.78514,1.53603 -2.173099,2.90976 -3.773498,3.73479 -1.704272,0.87859 -4.717855,0.87859 -6.422128,0 -1.600399,-0.82503 -2.988357,-2.19876 -3.773497,-3.73479 -0.622666,-1.21819 -0.644177,-1.46821 -0.72463,-8.42181 l -0.08291,-7.166351 -3.128146,0.0752 -3.128148,0.0753 -0.133795,7.224891 c -0.126863,6.85071 -0.16507,7.28342 -0.737681,8.35503 -1.854903,3.47136 -5.843582,5.12648 -9.341728,3.87639 z m 47.524722,-35.006898 c 4.891135,-1.2025 8.551141,-4.862505 9.753641,-9.753641 0.37925,-1.542584 0.431823,-4.379067 0.431823,-23.298308 0,-20.105801 -0.03302,-21.667651 -0.495293,-23.428424 -1.265269,-4.819306 -4.863273,-8.366432 -9.690171,-9.55314 -1.542585,-0.37925 -4.379067,-0.431823 -23.298309,-0.431823 -20.272435,0 -21.655499,0.02983 -23.46983,0.506165 -4.645516,1.21964 -8.217752,4.791876 -9.437391,9.437391 -0.476338,1.814331 -0.506166,3.197396 -0.506166,23.469831 0,23.707612 -0.02084,23.373325 1.656051,26.561092 0.977144,1.857544 3.284848,4.205704 5.10894,5.198498 3.165065,1.722644 2.663246,1.690338 26.532699,1.708082 19.062035,0.01418 21.868082,-0.03565 23.414006,-0.415723 z m -43.982122,-12.29775 c -0.374878,-0.374879 -0.420496,-2.622599 -0.420496,-20.719006 0,-18.096407 0.04562,-20.344128 0.420496,-20.719006 0.374879,-0.374878 2.6226,-0.420497 20.719006,-0.420497 18.096407,0 20.344128,0.04562 20.719007,0.420497 0.374878,0.374878 0.420496,2.622599 0.420496,20.719006 0,18.096407 -0.04562,20.344127 -0.420496,20.719006 -0.374879,0.374878 -2.6226,0.420497 -20.719007,0.420497 -18.096406,0 -20.344127,-0.04562 -20.719006,-0.420497 z"
       style="fill:#990000;stroke-width:0.26758865;fill-opacity:1" />
  </g>
</svg>
