<?xml version="1.0" encoding="UTF-8" standalone="no"?>
<svg
   xmlns:dc="http://purl.org/dc/elements/1.1/"
   xmlns:cc="http://creativecommons.org/ns#"
   xmlns:rdf="http://www.w3.org/1999/02/22-rdf-syntax-ns#"
   xmlns:svg="http://www.w3.org/2000/svg"
   xmlns="http://www.w3.org/2000/svg"
   xmlns:sodipodi="http://sodipodi.sourceforge.net/DTD/sodipodi-0.dtd"
   xmlns:inkscape="http://www.inkscape.org/namespaces/inkscape"
   viewBox="0 0 82.067772 70.560242"
   width="41.033886"
   height="35.280121"
   version="1.1"
   id="svg66"
   sodipodi:docname="dashboard-50-2.svg"
   inkscape:version="1.0.2 (1.0.2+r75+1)">
  <metadata
     id="metadata72">
    <rdf:RDF>
      <cc:Work
         rdf:about="">
        <dc:format>image/svg+xml</dc:format>
        <dc:type
           rdf:resource="http://purl.org/dc/dcmitype/StillImage" />
      </cc:Work>
    </rdf:RDF>
  </metadata>
  <defs
     id="defs70" />
  <sodipodi:namedview
     pagecolor="#ffffff"
     bordercolor="#666666"
     borderopacity="1"
     objecttolerance="10"
     gridtolerance="10"
     guidetolerance="10"
     inkscape:pageopacity="0"
     inkscape:pageshadow="2"
     inkscape:window-width="1920"
     inkscape:window-height="1025"
     id="namedview68"
     showgrid="false"
     inkscape:zoom="8.78"
     inkscape:cx="41.472557"
     inkscape:cy="21.235355"
     inkscape:window-x="0"
     inkscape:window-y="27"
     inkscape:window-maximized="1"
     inkscape:current-layer="svg66" />
  <path
     fill="#c8ede6"
     d="m 78.498898,42.112053 c 0.3,-0.616 0.566,-1.264 0.796,-1.943 2.633,-7.77 -1.349,-17.078 -9.733,-19.325 -0.907,-11.3830004 -8.907,-19.1920004 -17.942,-20.5250004 -10.341,-1.525 -19.814,5.044 -22.966,15.4850004 -3.799,-1.346 -7.501,-1.182 -10.99,0.857 -1.583,0.732 -3.031,1.812 -4.33,3.233 -1.907,2.086 -3.147,4.719 -3.6519999,7.495 -0.748,0.118 -1.483,0.236 -2.176,0.484 -4.04,1.449 -6.58900003,4.431 -7.28800003,8.923 -0.435,2.797 0.443,5.587 0.93300003,6.714 1.935,4.455 6.422,6.98 10.9809999,6.312 0.227,-0.033 0.557,0.069 0.752,0.233 0.241,7.12 3.698,13.417 8.884,17.014 8.321,5.772 19.027,3.994 25.781,-3.921 2.894,2.96 6.338,4.398 10.384,3.876 4.023,-0.519 7.147,-2.739 9.426,-6.349 1.053,0.283 2.051,0.691 3.083,0.804 4.042,0.442 7.297,-1.184 9.732,-4.8 0.083,-0.124 0.203,-0.219 0.306,-0.328 0.348,-0.798 0.696,-1.596 1.044,-2.394 0.155,-1.211 0.429,-2.423 0.443,-3.632 0.04,-3.256 -1.292,-6.223 -3.468,-8.213 z"
     id="path2"
     inkscape:export-xdpi="4800"
     inkscape:export-ydpi="4800"
     style="fill:none;fill-opacity:1;stroke:#000000;stroke-width:0.2;stroke-miterlimit:4;stroke-dasharray:none;stroke-opacity:1" />
  <path
     fill="#fff"
     d="M 18.144898,20.209053 H 8.1148981 c -0.276,0 -0.5,-0.224 -0.5,-0.5 0,-0.276 0.224,-0.5 0.5,-0.5 H 18.144898 c 0.276,0 0.5,0.224 0.5,0.5 0,0.276 -0.224,0.5 -0.5,0.5 z m 2.882,0 h -1.446 c -0.276,0 -0.5,-0.224 -0.5,-0.5 0,-0.276 0.224,-0.5 0.5,-0.5 h 1.446 c 0.276,0 0.5,0.224 0.5,0.5 0,0.276 -0.224,0.5 -0.5,0.5 z m 4.054,0 h -2.546 c -0.276,0 -0.5,-0.224 -0.5,-0.5 0,-0.276 0.224,-0.5 0.5,-0.5 h 2.546 c 0.276,0 0.5,0.224 0.5,0.5 0,0.276 -0.223,0.5 -0.5,0.5 z m 0,1.865 h -9.616 c -0.276,0 -0.5,-0.224 -0.5,-0.5 0,-0.276 0.224,-0.5 0.5,-0.5 h 9.616 c 0.276,0 0.5,0.224 0.5,0.5 0,0.276 -0.223,0.5 -0.5,0.5 z m -11.348,0 h -0.58 c -0.276,0 -0.5,-0.224 -0.5,-0.5 0,-0.276 0.224,-0.5 0.5,-0.5 h 0.58 c 0.276,0 0.5,0.224 0.5,0.5 0,0.276 -0.224,0.5 -0.5,0.5 z m -2.376,0 H 9.8998981 c -0.276,0 -0.5,-0.224 -0.5,-0.5 0,-0.276 0.224,-0.5 0.5,-0.5 h 1.4569999 c 0.276,0 0.5,0.224 0.5,0.5 0,0.276 -0.224,0.5 -0.5,0.5 z m 9.136,-3.73 h -5.028 c -0.276,0 -0.5,-0.224 -0.5,-0.5 0,-0.276 0.224,-0.5 0.5,-0.5 h 5.027 c 0.276,0 0.5,0.224 0.5,0.5 0,0.276 -0.223,0.5 -0.499,0.5 z m 0,-1.864 h -1.258 c -0.276,0 -0.5,-0.224 -0.5,-0.5 0,-0.276 0.224,-0.5 0.5,-0.5 h 1.258 c 0.276,0 0.5,0.224 0.5,0.5 0,0.276 -0.224,0.5 -0.5,0.5 z m -3.27,7.459 h -1.758 c -0.276,0 -0.5,-0.224 -0.5,-0.5 0,-0.276 0.224,-0.5 0.5,-0.5 h 1.758 c 0.276,0 0.5,0.224 0.5,0.5 0,0.276 -0.224,0.5 -0.5,0.5 z"
     id="path4"
     inkscape:export-xdpi="4800"
     inkscape:export-ydpi="4800"
     style="fill:none;stroke:#000000;stroke-width:0.2;stroke-miterlimit:4;stroke-dasharray:none;stroke-opacity:1" />
  <path
     fill="#fff"
     d="m 63.954898,16.275053 h -10.031 c -0.276,0 -0.5,-0.224 -0.5,-0.5 0,-0.276 0.224,-0.5 0.5,-0.5 h 10.031 c 0.276,0 0.5,0.224 0.5,0.5 0,0.276 -0.223,0.5 -0.5,0.5 z m 2.881,0 h -1.446 c -0.276,0 -0.5,-0.224 -0.5,-0.5 0,-0.276 0.224,-0.5 0.5,-0.5 h 1.446 c 0.276,0 0.5,0.224 0.5,0.5 0,0.276 -0.223,0.5 -0.5,0.5 z m 4.055,0 h -2.546 c -0.276,0 -0.5,-0.224 -0.5,-0.5 0,-0.276 0.224,-0.5 0.5,-0.5 h 2.546 c 0.276,0 0.5,0.224 0.5,0.5 0,0.276 -0.224,0.5 -0.5,0.5 z m -2.026,-3.729 h -9.616 c -0.276,0 -0.5,-0.224 -0.5,-0.5 0,-0.276 0.224,-0.5 0.5,-0.5 h 9.616 c 0.276,0 0.5,0.224 0.5,0.5 0,0.276 -0.224,0.5 -0.5,0.5 z m -11.348,0 h -0.58 c -0.276,0 -0.5,-0.224 -0.5,-0.5 0,-0.276 0.224,-0.5 0.5,-0.5 h 0.58 c 0.276,0 0.5,0.224 0.5,0.5 0,0.276 -0.224,0.5 -0.5,0.5 z m -2.377,0 h -1.456 c -0.276,0 -0.5,-0.224 -0.5,-0.5 0,-0.276 0.224,-0.5 0.5,-0.5 h 1.456 c 0.276,0 0.5,0.224 0.5,0.5 0,0.276 -0.224,0.5 -0.5,0.5 z m 11.162,1.865 h -5.027 c -0.276,0 -0.5,-0.224 -0.5,-0.5 0,-0.276 0.224,-0.5 0.5,-0.5 h 5.027 c 0.276,0 0.5,0.224 0.5,0.5 0,0.276 -0.223,0.5 -0.5,0.5 z"
     id="path12"
     inkscape:export-xdpi="4800"
     inkscape:export-ydpi="4800"
     style="fill:none;stroke:#000000;stroke-width:0.2;stroke-miterlimit:4;stroke-dasharray:none;stroke-opacity:1" />
  <path
     fill="#fff"
     d="m 66.301898,12.546053 h -1.258 c -0.276,0 -0.5,-0.224 -0.5,-0.5 0,-0.276 0.224,-0.5 0.5,-0.5 h 1.258 c 0.276,0 0.5,0.224 0.5,0.5 0,0.276 -0.223,0.5 -0.5,0.5 z m -6.483,1.865 h -1.758 c -0.276,0 -0.5,-0.224 -0.5,-0.5 0,-0.276 0.224,-0.5 0.5,-0.5 h 1.758 c 0.276,0 0.5,0.224 0.5,0.5 0,0.276 -0.224,0.5 -0.5,0.5 z"
     id="path14"
     inkscape:export-xdpi="4800"
     inkscape:export-ydpi="4800"
     style="fill:none;stroke:#000000;stroke-width:0.2;stroke-miterlimit:4;stroke-dasharray:none;stroke-opacity:1" />
  <path
     style="fill:#000000;stroke-width:0.04"
     d="m 49.853185,63.036218 c -0.41052,-0.42042 -0.76952,-0.807476 -0.79775,-0.860124 -0.0683,-0.12742 -0.0803,-0.10794 0.72014,-1.173992 l 0.67687,-0.901484 -0.61284,-0.02649 c -1.15498,-0.04992 -2.00695,-0.315112 -2.88039,-0.896584 -1.13915,-0.75836 -1.95901,-1.92988 -2.26583,-3.237668 -0.21023,-0.896092 -0.18321,-1.87764 0.0756,-2.746704 0.47775,-1.60418 1.71338,-2.925264 3.28779,-3.515168 0.28634,-0.107288 0.34989,-0.146256 0.34939,-0.214264 -4e-4,-0.04572 -0.0145,-0.104916 -0.0314,-0.131552 -0.0597,-0.09388 -1.65323,-0.409088 -2.768,-0.547508 -2.77012,-0.34396 -5.74673,-0.1814 -8.4,0.458736 -2.68116,0.646868 -5.07137,1.680516 -7.34,3.174184 -1.34507,0.885592 -2.41795,1.7583 -3.72,3.02594 -0.242,0.235604 -0.47932,0.448328 -0.52737,0.472724 -0.12923,0.0656 -0.45443,0.05079 -0.59968,-0.02732 -0.23697,-0.127432 -1.37621,-1.425792 -2.1467,-2.446528 -0.52709,-0.698296 -1.19434,-1.70716 -1.64472,-2.486808 l -0.35848,-0.620544 -0.14152,0.147404 c -0.10924,0.113776 -0.18487,0.153752 -0.33153,0.175228 -0.49025,0.0718 -0.83,-0.120592 -0.83,-0.470008 0,-0.350736 0.29651,-0.5412 0.76667,-0.49248 l 0.22667,0.02349 -0.29191,-0.609036 c -0.85108,-1.775728 -1.54507,-3.92914 -1.9172,-5.94904 -0.35499,-1.92686 -0.4919,-3.983668 -0.38607,-5.8 0.0186,-0.319 0.0276,-0.586537 0.02,-0.594526 -0.0284,-0.02978 -0.63943,0.296597 -0.87443,0.46704 -0.72223,0.523833 -1.27379,1.319946 -1.48781,2.147486 -0.0795,0.307452 -0.1039,1.25384 -0.0428,1.66 0.0295,0.196048 0.0228,0.23524 -0.0613,0.36 -0.0612,0.09075 -0.15318,0.160472 -0.26146,0.198196 -0.15072,0.05251 -0.17991,0.05149 -0.2987,-0.01042 -0.0724,-0.03774 -0.23965,-0.159436 -0.37165,-0.270444 -0.43674,-0.36728 -0.88119,-0.524196 -1.48,-0.522516 -1.03248,0.0029 -1.89926,0.663512 -2.16099,1.646992 -0.0319,0.120004 -0.0583,0.272188 -0.0587,0.338188 -9.1e-4,0.175056 -0.13981,0.375512 -0.30925,0.446312 -0.12065,0.05041 -0.1866,0.05358 -0.3658,0.01759 -0.3537299,-0.07104 -1.0206599,-0.05404 -1.3943099,0.03554 -0.64057,0.153572 -1.21987,0.48826 -1.66877,0.96412 -0.6111,0.647796 -0.90213,1.3571 -0.90122,2.196436 7.3e-4,0.666844 0.16743,1.214572 0.54324,1.784904 0.45489,0.690348 1.15622,1.176548 1.98307,1.374772 0.32239,0.07729 0.47613,0.07978 4.9527199,0.08027 3.02701,4e-4 4.67083,0.01462 4.76743,0.04145 0.21503,0.05972 0.35257,0.241384 0.35257,0.465676 0,0.152432 -0.0214,0.202356 -0.136,0.316932 l -0.136,0.136 h -4.73958 c -5.2004999,0 -5.0385799,0.0068 -5.7187199,-0.241384 -1.35647,-0.495052 -2.33056,-1.552116 -2.71991,-2.9516 -0.0724,-0.26032 -0.0853,-0.413484 -0.0848,-1.007016 5.6e-4,-0.646812 0.009,-0.727052 0.10938,-1.056016 0.36433,-1.192428 1.10748,-2.098392 2.17754,-2.654584 0.67087,-0.348704 1.25917,-0.496124 1.97215,-0.49418 l 0.4306299,0.0012 0.0832,-0.248196 c 0.19629,-0.585644 0.69429,-1.243464 1.20214,-1.587908 0.87607,-0.594192 1.88973,-0.733148 2.89556,-0.396936 0.19557,0.06537 0.35877,0.113856 0.36268,0.107748 0.004,-0.0061 0.0279,-0.18276 0.0533,-0.392568 0.12517,-1.034644 0.5817,-1.970327 1.32682,-2.719393 0.5357,-0.538539 1.07585,-0.886813 1.79834,-1.159525 l 0.37738,-0.142444 0.0892,-0.618586 c 0.54995,-3.813269 1.98424,-7.430073 4.2104,-10.617169 1.29532,-1.854461 3.06839,-3.742561 4.84635,-5.160743 1.44187,-1.150105 2.86058,-2.052143 4.5,-2.861176 2.79536,-1.379474 5.50019,-2.142808 8.74,-2.466526 0.98299,-0.09822 3.3665,-0.09782 4.38,7.28e-4 3.24114,0.31517 6.03165,1.110645 8.85705,2.524835 7.50124,3.754574 12.6144,11.073379 13.54055,19.381479 0.18411,1.651571 0.19295,3.871112 0.0211,5.29692 -0.021,0.174308 -0.0317,0.323432 -0.0237,0.331388 0.008,0.008 0.86492,-0.80966 1.90435,-1.81692 1.03943,-1.007264 2.01197,-1.923614 2.1612,-2.036333 0.76719,-0.579511 1.59329,-0.864693 2.49948,-0.862856 0.8861,0.0018 1.51303,0.254002 2.10074,0.845098 0.38586,0.388091 0.58081,0.716871 0.72604,1.224507 0.13328,0.465836 0.1256,1.205408 -0.0181,1.746428 -0.18941,0.712924 -0.54435,1.354796 -1.07256,1.93958 -0.16285,0.180296 -1.06552,1.069868 -2.00593,1.976828 -0.94041,0.90696 -1.70405,1.654808 -1.69697,1.661888 0.007,0.0071 0.17122,0.04048 0.36476,0.07423 0.72568,0.126548 1.45888,0.488996 2.0025,0.989904 0.5267,0.48532 0.86512,1.011488 1.09941,1.709336 l 0.14101,0.42 0.67956,8.4e-4 c 0.51364,6.4e-4 0.7577,0.01876 0.99957,0.07422 2.07362,0.47542 3.67031,2.033384 4.18779,4.086232 0.12409,0.492264 0.13386,1.780772 0.0173,2.278692 -0.25965,1.108972 -0.77869,2.026488 -1.57435,2.78298 -0.72416,0.688504 -1.50626,1.105028 -2.57073,1.369088 -0.3371,0.08362 -0.39184,0.08446 -6.40984,0.09725 -5.41177,0.0115 -6.0828,0.0062 -6.18933,-0.04888 -0.31494,-0.16286 -0.31625,-0.677324 -0.002,-0.839756 0.10331,-0.05342 0.8154,-0.06068 5.95643,-0.06068 3.9372,0 5.93955,-0.01397 6.14751,-0.0429 1.86258,-0.259064 3.37354,-1.698772 3.72003,-3.544624 0.092,-0.489884 0.0609,-1.45892 -0.0613,-1.91248 -0.12056,-0.447412 -0.46313,-1.140272 -0.75393,-1.524884 -0.66936,-0.88528 -1.66584,-1.511364 -2.72541,-1.71236 -0.39527,-0.07498 -1.13841,-0.07877 -1.5701,-0.008 -0.22484,0.03686 -0.34339,0.03898 -0.43861,0.0079 -0.14754,-0.0482 -0.31327,-0.26522 -0.31327,-0.410228 0,-0.05268 -0.0286,-0.234476 -0.0637,-0.404004 -0.32526,-1.57472 -1.82888,-2.615344 -3.42107,-2.36766 l -0.33445,0.05203 -0.3404,0.32254 c -0.18722,0.1774 -0.86378,0.830884 -1.50345,1.452192 l -1.16304,1.129644 0.15334,0.311432 c 0.16159,0.328164 0.31274,0.85072 0.31274,1.08116 0,0.07531 0.0135,0.129996 0.03,0.121512 0.56267,-0.289276 0.86459,-0.370208 1.37,-0.367244 0.87349,0.0051 1.63416,0.47572 2.00412,1.239872 l 0.1568,0.323872 0.22954,-0.03764 c 0.12625,-0.0207 0.39154,-0.0274 0.58954,-0.01488 1.35621,0.08576 2.48245,0.972332 2.79874,2.203172 0.0938,0.364864 0.0823,0.565984 -0.0368,0.643992 -0.11076,0.07257 -0.24324,0.04802 -0.29735,-0.0551 -0.0194,-0.03701 -0.0476,-0.148292 -0.0627,-0.247292 -0.18329,-1.20502 -1.25586,-2.075656 -2.56191,-2.079568 -0.176,-5.2e-4 -0.45857,0.02013 -0.62794,0.04591 -0.37038,0.05638 -0.40457,0.03772 -0.47339,-0.25832 -0.0669,-0.287676 -0.22535,-0.570012 -0.44101,-0.785676 -0.68907,-0.689072 -1.91133,-0.697868 -2.63712,-0.01898 -0.20152,0.188504 -0.34989,0.225864 -0.44445,0.11192 -0.0376,-0.04533 -0.0555,-0.210092 -0.0596,-0.55 -0.006,-0.512668 -0.0533,-0.731152 -0.24543,-1.139396 l -0.10078,-0.214116 -0.27531,0.273204 c -0.25113,0.249204 -0.28986,0.273204 -0.44078,0.273204 -0.1619,0 -0.1794,-0.01456 -0.8144,-0.677772 l -0.64895,-0.677776 -0.40351,0.378684 c -0.22194,0.208276 -2.41926,2.331684 -4.88294,4.718684 l -4.47942,4.34 3.18929,0.02 c 3.57386,0.02241 3.34329,0.0016 3.47409,0.313112 0.0836,0.199084 0.008,0.426244 -0.18428,0.555584 l -0.13592,0.0913 h -3.45408 -3.45409 v 0.38182 c 0,0.34314 -0.009,0.390756 -0.09,0.470076 -0.16895,0.165692 -4.05836,2.868104 -4.12787,2.868104 -0.0381,0 -0.40518,-0.34398 -0.81571,-0.7644 z m 2.74359,-1.094148 1.81,-1.270372 v -0.52952 -0.529516 l -0.56368,-0.586024 -0.56368,-0.58602 h -0.50667 -0.50667 l -1.33965,1.785516 c -0.73681,0.982032 -1.34623,1.802772 -1.35428,1.823868 -0.0222,0.05815 1.08576,1.182576 1.15463,1.171816 0.033,-0.0052 0.8745,-0.581044 1.87,-1.279748 z m 6.95067,-7.441452 c 2.65641,-2.574 4.94526,-4.788 5.08633,-4.92 l 0.25649,-0.24 -0.47175,-0.492172 -0.47174,-0.492168 -5.11055,4.949844 -5.11056,4.949844 0.45056,0.467244 c 0.2478,0.256984 0.47098,0.465032 0.49596,0.462328 0.025,-0.0027 2.21884,-2.11092 4.87526,-4.68492 z m -7.9913,4.127876 c 0.2018,-0.270668 0.40559,-0.527168 0.45285,-0.57 0.0755,-0.06845 0.16481,-0.0803 0.73741,-0.09788 l 0.65149,-0.02 5.10384,-4.94 c 2.80711,-2.717 5.10411,-4.952256 5.10444,-4.967232 4e-4,-0.01498 -0.2964,-0.334112 -0.6594,-0.70918 -0.69261,-0.71564 -0.73147,-0.778548 -0.60859,-0.985348 0.0267,-0.04497 0.93059,-0.935972 2.00859,-1.98 1.078,-1.044032 1.96,-1.915116 1.96,-1.935744 0,-0.05727 -0.40033,-0.285684 -0.78,-0.44504 -2.89657,-1.215768 -6.19229,0.432344 -6.93489,3.467976 -0.0558,0.228012 -0.11328,0.522568 -0.12777,0.654568 -0.0334,0.303844 -0.10771,0.465244 -0.25416,0.551756 -0.2519,0.1488 -0.49932,0.06602 -0.73599,-0.246228 -0.36139,-0.476804 -0.95306,-0.938596 -1.59619,-1.245812 -2.04269,-0.975772 -4.50413,-0.285432 -5.77099,1.61854 -0.52929,0.795468 -0.75693,1.610556 -0.73223,2.621744 l 0.0122,0.5 0.38,0.02618 c 0.43174,0.02975 0.64362,0.0729 1.00871,0.205412 0.78775,0.28594 1.41786,0.849232 1.75444,1.568404 0.21573,0.460972 0.25798,0.641784 0.17836,0.763308 -0.0698,0.1065 -0.26183,0.13348 -0.33234,0.04669 -0.0223,-0.0275 -0.0863,-0.182024 -0.14206,-0.343384 -0.13811,-0.399404 -0.32068,-0.692032 -0.61291,-0.982392 -0.29732,-0.295412 -0.59698,-0.481288 -1.01352,-0.628692 -0.85993,-0.304308 -1.76294,-0.236004 -2.62959,0.198904 -1.27082,0.637728 -2.13534,1.776484 -2.39375,3.153084 -0.0995,0.529968 -0.0624,1.46316 0.0781,1.964736 0.33737,1.204656 1.17554,2.22144 2.29403,2.782892 0.70054,0.35166 1.24366,0.455468 2.41178,0.460976 l 0.82122,0.0039 0.36693,-0.492124 z m -25.66349,-4.812668 c 3.63643,-3.40084 8.28653,-5.612928 13.31412,-6.333612 2.7943,-0.400552 6.02386,-0.282 8.7497,0.321188 0.29134,0.06447 0.54572,0.117216 0.56529,0.117216 0.0196,0 0.0821,-0.1485 0.13884,-0.33 0.13072,-0.417704 0.36965,-0.91158 0.64171,-1.326428 1.37347,-2.094296 3.98709,-3.00978 6.34977,-2.224172 0.68792,0.228736 1.19958,0.505764 1.72412,0.933508 0.12619,0.1029 0.24319,0.186596 0.26,0.185988 0.0168,-6e-4 0.0897,-0.185108 0.16186,-0.41 0.58114,-1.80982 2.10094,-3.296468 3.94932,-3.863188 0.65774,-0.201664 1.04791,-0.259012 1.75939,-0.2586 0.76361,4.4e-4 1.23194,0.07306 1.91652,0.297176 0.26209,0.0858 0.48279,0.149744 0.49044,0.142088 0.0962,-0.0962 0.16563,-2.875671 0.0971,-3.886372 -0.22781,-3.359205 -1.0904,-6.46711 -2.59228,-9.340001 -3.49369,-6.682979 -9.97141,-11.285755 -17.39176,-12.357804 -1.18609,-0.171359 -1.90017,-0.217687 -3.36,-0.217987 -2.17181,-4.48e-4 -3.6861,0.183141 -5.74,0.695902 -7.64232,1.907922 -13.94374,7.765471 -16.43777,15.279889 -1.88029,5.665257 -1.52576,11.853673 0.98882,17.260001 0.90222,1.939752 2.04451,3.697672 3.52865,5.430364 l 0.33437,0.390364 0.10226,-0.09036 c 0.0562,-0.0497 0.25854,-0.23652 0.44955,-0.415156 z m 15.9461,-9.794564 c -0.87897,-0.223148 -1.6831,-1.020752 -1.77598,-1.761564 -0.0137,-0.109492 -0.65438,-4.29408 -1.42366,-9.299081 -1.51968,-9.88717 -1.46159,-9.435485 -1.27563,-9.92 0.41294,-1.075883 1.62762,-1.334091 2.4425,-0.51921 0.12143,0.121435 0.26992,0.322046 0.32997,0.445803 0.13429,0.276789 -0.0958,-0.559753 2.65505,9.653407 l 2.30556,8.560001 -10e-4,0.42 c -0.002,0.69602 -0.22721,1.258644 -0.68872,1.72 -0.30252,0.302408 -0.52464,0.430808 -1.04385,0.603412 -0.31261,0.103916 -0.45368,0.127552 -0.83606,0.140068 -0.3151,0.01031 -0.53183,-0.0032 -0.68802,-0.04284 z m 1.22722,-0.7001 c 0.15356,-0.04409 0.37016,-0.124664 0.48133,-0.179056 0.38402,-0.18788 0.72208,-0.618836 0.84367,-1.075496 0.1263,-0.474348 0.13605,-0.429368 -1.04649,-4.826902 -0.60626,-2.2545 -1.58831,-5.908091 -2.18234,-8.119091 -1.65552,-6.16187 -1.53941,-5.752455 -1.69585,-5.98 -0.42195,-0.613739 -1.13089,-0.594393 -1.44094,0.03932 -0.0874,0.17861 -0.10994,0.280491 -0.10912,0.492913 5.7e-4,0.147271 0.51526,3.606766 1.14376,7.687766 0.62849,4.081001 1.26207,8.203001 1.40796,9.160001 0.29964,1.96566 0.31771,2.02916 0.67709,2.380032 0.50519,0.49322 1.16478,0.637612 1.92093,0.420513 z m -21.03295,-4.325844 c -0.14728,-0.08562 -0.17432,-0.256736 -0.14136,-0.8947 0.35269,-6.825875 3.6963,-12.984847 9.12165,-16.802179 1.07919,-0.759329 2.70498,-1.649267 3.93346,-2.153128 1.95306,-0.801047 4.08963,-1.301812 6.24,-1.462517 0.71913,-0.05374 2.29017,-0.05406 2.982,-6.04e-4 4.98451,0.385152 9.46957,2.461198 13.02049,6.026916 3.68795,3.703339 5.90552,8.719205 6.25623,14.15083 0.0601,0.930591 0.0603,0.927835 -0.0756,1.063759 l -0.11692,0.116924 h -8.34615 -8.34615 l -0.11693,-0.116924 c -0.12623,-0.126232 -0.13856,-0.180944 -0.0772,-0.342407 0.0889,-0.233729 -0.40698,-0.22067 8.37897,-0.22067 h 8.06129 l -4e-4,-0.15 c -4e-4,-0.201221 -0.11658,-1.536829 -0.13929,-1.6 -0.014,-0.03896 -0.40124,-0.05 -1.75303,-0.05 -1.63009,0 -1.73906,-0.0044 -1.80125,-0.07315 -0.0868,-0.09597 -0.084,-0.218325 0.007,-0.300651 0.0657,-0.05942 0.24793,-0.0662 1.78048,-0.0662 h 1.70732 l -0.025,-0.17 c -0.19072,-1.296504 -0.59446,-2.890666 -1.05317,-4.158358 -0.23927,-0.661255 -0.52231,-1.346635 -0.56771,-1.374691 -0.0188,-0.01164 -0.21569,0.10838 -0.43745,0.266713 -0.3797,0.271085 -0.40713,0.283881 -0.47041,0.219378 -0.0631,-0.06428 -0.0598,-0.0745 0.0528,-0.165871 0.066,-0.05355 0.2589,-0.191826 0.42868,-0.307271 0.16978,-0.115445 0.30928,-0.237247 0.31,-0.270671 0.002,-0.07728 -0.54476,-1.162502 -0.87574,-1.73923 -0.48942,-0.852819 -1.25511,-1.958704 -1.994,-2.879949 l -0.0911,-0.11353 -0.10894,0.0803 c -1.06661,0.786366 -1.4518,1.053174 -1.52028,1.053174 -0.11544,0 -0.20849,-0.105289 -0.20849,-0.235901 0,-0.09687 0.0918,-0.177365 0.76,-0.666197 0.418,-0.305806 0.76,-0.56975 0.76,-0.586543 0,-0.05703 -1.3777,-1.439904 -1.84,-1.846921 -1.08483,-0.955096 -2.31014,-1.816632 -3.60474,-2.534554 l -0.22474,-0.124628 -0.17125,0.407372 c -0.2045,0.486462 -0.25232,0.55147 -0.34066,0.463125 -0.0552,-0.05519 -0.0431,-0.104298 0.12,-0.486031 0.0998,-0.233552 0.18139,-0.440876 0.18139,-0.460718 0,-0.03762 -0.694,-0.379294 -1.28,-0.630172 -1.69652,-0.726311 -3.53445,-1.213153 -5.42,-1.435678 -0.48447,-0.05718 -1.68899,-0.141887 -2.03,-0.142767 l -0.15,-3.87e-4 v 1.72 c 0,1.666667 -0.002,1.722481 -0.08,1.8 -0.10557,0.105569 -0.18272,0.100922 -0.30182,-0.01818 l -0.0982,-0.09818 v -1.701819 c 0,-1.334994 -0.0108,-1.701734 -0.05,-1.701431 -0.0275,2e-4 -0.356,0.01841 -0.73,0.04043 -1.76702,0.104048 -3.49887,0.435403 -5.12189,0.979968 -0.57709,0.193628 -1.40185,0.509622 -1.44639,0.55416 -0.009,0.0095 0.0656,0.211227 0.16691,0.448327 0.16554,0.387533 0.17795,0.437296 0.12276,0.492483 -0.0869,0.08692 -0.13608,0.02293 -0.31945,-0.415753 -0.0828,-0.198 -0.16588,-0.376424 -0.18471,-0.396498 -0.0681,-0.07259 -1.51784,0.664236 -2.47723,1.259027 -0.8398,0.520646 -1.92484,1.326133 -2.67633,1.986785 l -0.17634,0.155019 0.46498,0.537833 c 0.48726,0.563607 0.54267,0.677582 0.39454,0.811635 -0.15249,0.138003 -0.22426,0.08843 -0.71492,-0.493875 l -0.47193,-0.560073 -0.59019,0.603565 c -0.94441,0.965815 -1.78181,2.008227 -2.52078,3.137932 -0.3156,0.482471 -0.91122,1.492618 -0.90725,1.53865 9.4e-4,0.011 0.16293,0.133262 0.35997,0.271692 0.19704,0.138431 0.35825,0.278496 0.35825,0.311256 0,0.136136 -0.13172,0.09644 -0.4606,-0.138805 -0.18773,-0.134279 -0.35119,-0.244143 -0.36325,-0.244143 -0.0324,0 -0.53388,1.058886 -0.79559,1.68 -0.25832,0.613052 -0.72008,1.964334 -0.8953,2.62 -0.23398,0.875521 -0.52526,2.303162 -0.52526,2.574444 v 0.08556 h 1.6538 c 1.55138,0 1.6579,0.0045 1.72,0.07315 0.088,0.09721 0.0835,0.189517 -0.0138,0.286851 -0.0775,0.07745 -0.13333,0.08 -1.75648,0.08 h -1.67649 l -0.0228,0.15 c -0.0206,0.13612 -0.0671,0.66589 -0.12091,1.38 l -0.0204,0.27 h 7.23978 c 7.88953,0 7.4689,-0.01228 7.55746,0.220669 0.0614,0.161463 0.0491,0.216175 -0.0772,0.342407 l -0.11693,0.116924 -7.51307,-0.0012 c -5.26927,-8.4e-4 -7.53511,-0.01402 -7.58683,-0.04408 z m 44.84928,10.998964 c 0.10146,-0.09148 0.47247,-0.447108 0.82447,-0.79028 0.352,-0.343168 1.189,-1.154448 1.86,-1.80284 0.671,-0.648392 1.517,-1.467672 1.88,-1.820624 0.363,-0.352948 1.218,-1.180856 1.9,-1.8398 0.682,-0.65894 1.37998,-1.340844 1.55108,-1.51534 0.87855,-0.896032 1.30095,-2.081156 1.09238,-3.064916 -0.17718,-0.835668 -0.81825,-1.453978 -1.68346,-1.623682 -0.79369,-0.155675 -1.79631,0.109938 -2.547,0.674754 -0.28198,0.212161 -8.6011,8.2658 -8.58482,8.31086 0.0135,0.03746 3.48371,3.636404 3.50735,3.637488 0.009,4e-4 0.0985,-0.07414 0.2,-0.16562 z m 0.0137,-1.558272 c -0.0939,-0.0465 -0.2337,-0.158028 -0.31058,-0.247844 -0.18057,-0.21096 -0.23635,-0.4124 -0.17655,-0.637548 0.0512,-0.192592 0.0566,-0.19822 2.05793,-2.130228 0.682,-0.658376 1.51,-1.460248 1.84,-1.781936 1.75107,-1.706976 2.71268,-2.622244 2.80683,-2.671576 0.16478,-0.08634 0.49806,-0.04253 0.66913,0.08795 0.32421,0.247284 0.44984,0.5652 0.34677,0.877496 -0.0417,0.126432 -2.11523,2.164676 -6.21503,6.109328 -0.50291,0.48388 -0.69073,0.556604 -1.0185,0.39436 z m 0.53376,-0.17646 c 0.0456,-0.02835 1.53432,-1.457248 3.3082,-3.175324 3.44461,-3.33624 3.32645,-3.2086 3.25046,-3.511388 -0.0351,-0.139852 -0.33399,-0.43874 -0.47384,-0.47384 -0.28092,-0.07051 -0.22561,-0.118124 -3.16915,2.728564 -1.53924,1.488604 -3.01913,2.924812 -3.28863,3.191572 l -0.49,0.485012 v 0.202604 c 0,0.180052 0.0181,0.223232 0.1631,0.387896 0.22425,0.254772 0.46424,0.311316 0.69986,0.164904 z m -1.99033,-1.388012 c -0.0973,-0.02483 -0.21521,-0.10936 -0.34694,-0.248644 -0.23614,-0.249684 -0.30539,-0.445992 -0.24112,-0.683536 0.0514,-0.189856 -0.0294,-0.108488 3.41543,-3.440564 1.94621,-1.882508 1.85499,-1.799184 1.90973,-1.744444 0.0327,0.0327 0.0358,0.06667 0.009,0.104436 -0.0215,0.03078 -1.18445,1.163692 -2.58432,2.51758 -1.39987,1.353892 -2.55637,2.490684 -2.57,2.526208 -0.0605,0.157684 -0.023,0.36852 0.0944,0.530608 0.14471,0.199768 0.30322,0.287436 0.5197,0.287436 0.20021,0 -0.0863,0.263928 3.78992,-3.49094 3.16466,-3.065584 3.06074,-2.95228 2.99255,-3.262784 -0.0154,-0.06994 -0.10803,-0.196372 -0.22215,-0.303128 -0.17297,-0.161788 -0.21695,-0.183148 -0.3771,-0.183148 -0.16143,0 -0.20547,0.0219 -0.40213,0.2 -0.21701,0.19652 -0.34,0.25024 -0.34,0.148496 0,-0.06072 0.34132,-0.399496 0.46737,-0.463872 0.11269,-0.05756 0.43275,-0.05749 0.54526,0 0.12785,0.06546 0.38521,0.318596 0.45066,0.443284 0.0682,0.129824 0.0741,0.43 0.0113,0.5679 -0.037,0.0812 -2.03764,2.03512 -6.10848,5.965816 -0.24964,0.241048 -0.49264,0.458236 -0.54,0.482636 -0.13572,0.06993 -0.31345,0.08741 -0.47347,0.04656 z m -28.53263,16.704636 c -1.70382,-0.250756 -3.04424,-1.02838 -4.02569,-2.335436 -0.76956,-1.024864 -1.16289,-2.208732 -1.16289,-3.50012 0,-0.685076 0.0811,-1.197736 0.28857,-1.824852 0.71822,-2.170556 2.57617,-3.699144 4.86001,-3.998464 0.4872,-0.06385 1.45681,-0.02394 1.90357,0.07836 1.18864,0.27216 2.08319,0.765896 2.93901,1.62214 0.71537,0.715724 1.12283,1.371876 1.43611,2.312628 0.20684,0.621132 0.27536,1.06972 0.27646,1.810192 0.001,0.973 -0.17596,1.744028 -0.59659,2.592736 -0.29119,0.587524 -0.60169,1.012724 -1.11734,1.530084 -0.85959,0.862444 -1.78402,1.369648 -2.96122,1.624732 -0.34946,0.07572 -1.53739,0.13254 -1.84,0.088 z m 1.44686,-0.99538 c 2.03175,-0.329524 3.59842,-1.846304 4.03805,-3.909448 0.0968,-0.45448 0.0968,-1.406976 0,-1.861456 -0.50114,-2.351804 -2.46801,-3.968216 -4.82967,-3.969112 -1.26975,-4.8e-4 -2.44137,0.473232 -3.37283,1.363712 -0.99881,0.954868 -1.50729,2.147772 -1.50729,3.536128 0,1.308812 0.44787,2.43888 1.33427,3.366644 0.74375,0.778456 1.7083,1.300192 2.71604,1.469124 0.44895,0.07526 1.17244,0.07723 1.62143,0.0044 z m -2.5776,-1.810176 c -0.11992,-0.105448 -1.72926,-2.925332 -1.72926,-3.03 0,-0.104668 1.60934,-2.924552 1.72926,-3.03 0.0732,-0.06436 0.21895,-0.07 1.80897,-0.07 1.61717,0 1.73362,0.0047 1.7948,0.0723 0.14265,0.157628 1.74925,2.99116 1.73274,3.056 -0.0227,0.08922 -1.56696,2.772372 -1.69304,2.9417 l -0.0968,0.13 h -1.73354 c -1.59399,0 -1.73994,-0.0056 -1.81313,-0.07 z m 4.0828,-1.704216 c 0.41137,-0.71182 0.74794,-1.308552 0.74794,-1.326072 0,-0.01752 -0.33637,-0.61412 -0.74749,-1.325784 l -0.74749,-1.293928 -1.54251,8.4e-4 -1.54251,8.4e-4 -0.74,1.28682 c -0.407,0.707752 -0.74,1.306252 -0.74,1.33 0,0.02375 0.333,0.622956 0.74,1.331564 l 0.74,1.288384 1.54206,7.6e-4 1.54206,7.6e-4 0.74794,-1.294216 z"
     id="path122" />
</svg>
