<?xml version="1.0" encoding="UTF-8" standalone="no"?>
<svg
   xmlns:dc="http://purl.org/dc/elements/1.1/"
   xmlns:cc="http://creativecommons.org/ns#"
   xmlns:rdf="http://www.w3.org/1999/02/22-rdf-syntax-ns#"
   xmlns:svg="http://www.w3.org/2000/svg"
   xmlns="http://www.w3.org/2000/svg"
   xmlns:sodipodi="http://sodipodi.sourceforge.net/DTD/sodipodi-0.dtd"
   xmlns:inkscape="http://www.inkscape.org/namespaces/inkscape"
   viewBox="0 0 27.950631 27.947049"
   width="46.584385"
   height="46.578415"
   version="1.1"
   id="svg40"
   sodipodi:docname="dashboard-50.svg"
   inkscape:export-filename="/code/flanksource/karina-ui/src/assets/svg/webfont-icon-source/dashboard-50.png"
   inkscape:export-xdpi="4800"
   inkscape:export-ydpi="4800"
   inkscape:version="1.0.1 (1.0.1+r75)">
  <metadata
     id="metadata46">
    <rdf:RDF>
      <cc:Work
         rdf:about="">
        <dc:format>image/svg+xml</dc:format>
        <dc:type
           rdf:resource="http://purl.org/dc/dcmitype/StillImage" />
      </cc:Work>
    </rdf:RDF>
  </metadata>
  <defs
     id="defs44" />
  <sodipodi:namedview
     pagecolor="#ffffff"
     bordercolor="#666666"
     borderopacity="1"
     objecttolerance="10"
     gridtolerance="10"
     guidetolerance="10"
     inkscape:pageopacity="0"
     inkscape:pageshadow="2"
     inkscape:window-width="1920"
     inkscape:window-height="1025"
     id="namedview42"
     showgrid="false"
     inkscape:zoom="8.78"
     inkscape:cx="53.188212"
     inkscape:cy="2.4591377"
     inkscape:window-x="0"
     inkscape:window-y="27"
     inkscape:window-maximized="1"
     inkscape:current-layer="svg40" />
  <path
     style="fill:#000000;stroke-width:0.012"
     d="M 13.261315,27.935728 C 10.39382,27.783419 7.6853395,26.770625 5.4073155,24.998849 c -1.914772,-1.489251 -3.429157,-3.47656 -4.357916,-5.718841 -0.547447,-1.321689 -0.889927,-2.742307 -1.005502,-4.170858 -0.05853,-0.723434 -0.05853,-1.544565 0,-2.268 0.321875,-3.9784986 2.359931,-7.6467946 5.591418,-10.0639906 2.12627,-1.590478 4.6412725,-2.53718104 7.2779995,-2.73959904 0.679801,-0.05219 1.503263,-0.04987 2.196,0.0062 4.477591,0.362254 8.546293,2.90463604 10.868645,6.79141804 1.100295,1.8415 1.757053,3.8865986 1.92875,6.0059996 0.05856,0.722863 0.05856,1.545137 0,2.268 -0.3143,3.879673 -2.262058,7.470969 -5.364251,9.890664 -1.143843,0.892193 -2.453766,1.619917 -3.797144,2.109497 -1.327999,0.483974 -2.656948,0.75242 -4.098,0.827791 -0.264918,0.01386 -1.115137,0.01301 -1.386,-0.0014 z m 1.56,-0.969967 c 0.653981,-0.04752 1.222085,-0.123763 1.794,-0.240756 2.969454,-0.607439 5.637767,-2.242848 7.537699,-4.619855 1.580676,-1.977585 2.551657,-4.388264 2.781622,-6.906 0.04116,-0.450633 0.04856,-0.637302 0.04851,-1.224 0,-0.586514 -0.008,-0.788018 -0.0483,-1.224 -0.16133,-1.745088 -0.672692,-3.4377916 -1.502137,-4.9723486 -1.112996,-2.059156 -2.761603,-3.780678 -4.773396,-4.984512 -0.713563,-0.426989 -1.500529,-0.797842 -2.298001,-1.08292 -0.99832,-0.356878 -2.090263,-0.59711 -3.162,-0.695656 -0.45729,-0.04205 -0.612925,-0.04817 -1.224,-0.04817 -0.611075,0 -0.76671,0.0061 -1.224,0.04817 -3.6442495,0.335086 -6.9818635,2.197921 -9.1795885,5.123437 -0.31424,0.418303 -0.523754,0.729032 -0.776755,1.152 -0.990637,1.656151 -1.601387,3.5289316 -1.778655,5.4539996 -0.04242,0.460708 -0.04861,0.617278 -0.04861,1.23 0,0.611075 0.0061,0.76671 0.04817,1.224 0.336041,3.654633 2.200515,6.986883 5.147438,9.199674 2.020068,1.516834 4.4830495,2.420289 6.9959995,2.566229 0.1188,0.0069 0.2484,0.01448 0.288,0.01685 0.144257,0.0086 1.204735,-0.0038 1.374,-0.01614 z m -1.218,-1.015786 c -2.086609,-0.07963 -4.0014815,-0.644528 -5.7659995,-1.701003 -1.085356,-0.64984 -2.102484,-1.508743 -2.943751,-2.485822 -1.133791,-1.316826 -1.981016,-2.891425 -2.450312,-4.554 -0.594864,-2.107418 -0.594864,-4.360581 0,-6.468 0.772541,-2.7368756 2.5271,-5.1430026 4.908063,-6.7307066 1.555686,-1.037383 3.2881955,-1.685921 5.1300005,-1.920338 1.556468,-0.1981 3.178991,-0.0797 4.691999,0.342399 1.059602,0.295605 2.095694,0.749081 3.047453,1.333804 2.96534,1.821791 5.011896,4.858437 5.574154,8.2708416 0.111078,0.674139 0.154572,1.219469 0.154572,1.938 0,0.595605 -0.02375,0.97917 -0.09473,1.53 -0.168565,1.308039 -0.564289,2.607833 -1.149978,3.777221 -0.94733,1.891441 -2.348545,3.481883 -4.099466,4.653078 -1.645466,1.100656 -3.496565,1.765595 -5.46,1.961304 -0.408464,0.04072 -1.17577,0.0672 -1.542,0.05322 z m 0.996,-0.977751 c 2.161199,-0.112935 4.249781,-0.870101 5.987901,-2.170774 0.441419,-0.330323 0.752972,-0.602071 1.182844,-1.031725 0.329622,-0.329453 0.487967,-0.502564 0.730459,-0.798575 0.147969,-0.180624 0.372882,-0.472923 0.372613,-0.484251 -4.68e-4,-0.0199 -0.05795,-0.06021 -0.668816,-0.469047 -0.35805,-0.239634 -0.651,-0.439958 -0.651,-0.445165 0,-0.0071 0.500072,-0.761453 0.524222,-0.79082 0.0024,-0.0029 0.301416,0.194041 0.664503,0.43766 0.523321,0.351132 0.664119,0.440446 0.679273,0.430886 0.05049,-0.03185 0.472069,-0.833882 0.636683,-1.211263 0.204194,-0.468119 0.365795,-0.915114 0.500277,-1.383795 0.09543,-0.332585 0.110222,-0.395825 0.09592,-0.410122 -0.0068,-0.0068 -0.354904,-0.08057 -0.773605,-0.163984 -0.418703,-0.08341 -0.765752,-0.155598 -0.771218,-0.160417 -0.0082,-0.0073 0.166106,-0.921175 0.178118,-0.933696 0.0021,-0.0022 0.352544,0.06507 0.778724,0.149513 0.498236,0.09872 0.77901,0.149389 0.786461,0.141938 0.01434,-0.01434 0.06492,-0.385603 0.08984,-0.659437 0.06223,-0.683762 0.06223,-1.404237 0,-2.088 -0.02515,-0.276293 -0.07555,-0.645146 -0.09015,-0.659751 -0.0079,-0.0079 -0.270768,0.03984 -0.775989,0.14081 -0.420249,0.08399 -0.76789,0.148714 -0.772537,0.143827 -0.01431,-0.01505 -0.191025,-0.919193 -0.181485,-0.928564 0.0049,-0.0048 0.348096,-0.07585 0.762593,-0.157794 0.414497,-0.08194 0.759919,-0.155277 0.767605,-0.162963 0.01627,-0.01627 0.0049,-0.06591 -0.09524,-0.415565 C 24.37509,10.254911 24.15129,9.6802704 23.844598,9.0611514 23.655599,8.6796204 23.4142,8.2493404 23.382277,8.2370904 c -0.008,-0.0031 -0.2919,0.179714 -0.630791,0.406224 -0.338892,0.22651 -0.621566,0.4133 -0.628166,0.415089 -0.01169,0.0032 -0.534,-0.765771 -0.534,-0.786146 0,-0.0056 0.278078,-0.196284 0.617953,-0.423673 0.440769,-0.29489 0.617967,-0.419749 0.618,-0.435459 1.2e-4,-0.03754 -0.360369,-0.490046 -0.643829,-0.80826 -0.1747,-0.196121 -0.719553,-0.735018 -0.916124,-0.906111 -0.326629,-0.284294 -0.753397,-0.621604 -0.786461,-0.621604 -0.0088,0 -0.214452,0.297001 -0.457062,0.66 -0.242612,0.363001 -0.445483,0.66 -0.450825,0.66 -0.02454,0 -0.789982,-0.521835 -0.784893,-0.535097 0.0031,-0.008 0.201074,-0.307744 0.439965,-0.66599 0.320141,-0.480087 0.431474,-0.655915 0.423414,-0.668692 -0.03108,-0.04927 -0.833262,-0.470141 -1.210139,-0.634906 -0.361508,-0.158047 -0.762442,-0.309807 -1.098,-0.415613 -0.222762,-0.07024 -0.644532,-0.187701 -0.673978,-0.187701 -0.01255,0 -0.02697,0.01201 -0.0324,0.027 -0.0054,0.01485 -0.07624,0.361799 -0.157459,0.771 -0.08122,0.4092 -0.151041,0.747887 -0.155156,0.752637 -0.0062,0.0072 -0.923407,-0.166106 -0.934743,-0.176638 -0.0021,-0.0019 0.06435,-0.347665 0.14757,-0.768348 0.08322,-0.420682 0.14969,-0.77326 0.147717,-0.783506 -0.0047,-0.02436 -0.03702,-0.03159 -0.273551,-0.06112 -0.809652,-0.101088 -1.669612,-0.115739 -2.478,-0.04222 -0.266425,0.02423 -0.644957,0.07535 -0.658536,0.08892 -0.0062,0.0062 0.04753,0.305523 0.129511,0.720714 0.07711,0.390515 0.138195,0.71604 0.135745,0.723389 -0.0038,0.01137 -0.920877,0.203531 -0.929909,0.194849 -0.0018,-0.0017 -0.06718,-0.322841 -0.1454,-0.713677 -0.07822,-0.390837 -0.148423,-0.716824 -0.156016,-0.724416 -0.01606,-0.01606 -0.06801,-0.0041 -0.4116,0.09445 -0.656128,0.188267 -1.2509695,0.42139 -1.8863035,0.739254 -0.350217,0.175217 -0.760263,0.407329 -0.771552,0.436747 -0.0031,0.008 0.178728,0.291054 0.404032,0.628913 0.225304,0.337859 0.412173,0.62088 0.415264,0.628935 0.0051,0.01323 -0.760289,0.535109 -0.784771,0.535109 -0.0053,0 -0.195641,-0.278079 -0.42303,-0.617954 -0.294774,-0.440593 -0.419753,-0.617966 -0.43545,-0.618 -0.03456,-7.2e-5 -0.418396,0.302817 -0.745984,0.588671 -0.201206,0.175573 -0.777709,0.752076 -0.953282,0.953283 -0.242786,0.278232 -0.636718,0.772192 -0.636718,0.798394 0,0.01906 0.03656,0.04464 0.63388,0.443606 0.418102,0.279259 0.60062,0.407637 0.597781,0.420462 -0.0065,0.02945 -0.51057,0.779538 -0.523843,0.779538 -0.0066,0 -0.288353,-0.184293 -0.626125,-0.409539 -0.452574,-0.301803 -0.618693,-0.406662 -0.63147,-0.398602 -0.04918,0.03102 -0.469193,0.831424 -0.635025,1.210141 -0.219516,0.5013156 -0.385914,0.9697056 -0.53669,1.5107146 -0.06879,0.246823 -0.07451,0.276925 -0.0549,0.289041 0.0064,0.0039 0.333903,0.07168 0.727821,0.150529 0.393918,0.07885 0.71801,0.145151 0.720204,0.147345 0.0022,0.0022 -0.03771,0.212875 -0.08868,0.468179 -0.07265,0.363925 -0.09658,0.464289 -0.11081,0.464644 -0.01,2.52e-4 -0.337951,-0.06307 -0.728826,-0.140718 -0.470222,-0.09341 -0.714713,-0.137141 -0.722593,-0.129261 -0.02088,0.02088 -0.07617,0.466282 -0.109435,0.881525 -0.03278,0.409229 -0.03276,1.233383 3.6e-5,1.644 0.03231,0.404477 0.08843,0.860555 0.108339,0.880465 0.0065,0.0065 0.301802,-0.04654 0.731167,-0.131233 0.396174,-0.07815 0.722466,-0.139641 0.725093,-0.136657 0.0063,0.0072 0.187025,0.928474 0.182902,0.932598 -0.0018,0.0018 -0.32298,0.0672 -0.713817,0.145416 -0.390836,0.07822 -0.716925,0.148525 -0.724641,0.156242 -0.01712,0.01712 0.01782,0.158458 0.136744,0.553169 0.177338,0.588567 0.383615,1.109926 0.661561,1.672073 0.18967,0.38361 0.440275,0.831673 0.471962,0.843832 0.0083,0.0032 0.291461,-0.178572 0.62932,-0.403876 0.337859,-0.225304 0.62088,-0.412172 0.628935,-0.415264 0.0132,-0.0051 0.535108,0.760259 0.535108,0.784683 0,0.0052 -0.277898,0.195594 -0.617551,0.42303 -0.4707,0.315188 -0.617575,0.419229 -0.617651,0.437522 -1.93e-4,0.0466 0.467442,0.618301 0.775438,0.948 1.856741,1.987572 4.3245745,3.200523 7.0297645,3.455159 0.534503,0.05031 1.087767,0.06023 1.668,0.02991 z m -0.816,-9.018556 c -0.106567,-0.01138 -0.3125,-0.05532 -0.417065,-0.089 -0.17186,-0.05535 -0.428329,-0.188516 -0.572935,-0.297474 -0.15057,-0.11345 -0.337302,-0.304531 -0.442228,-0.452527 -0.154062,-0.217301 -0.282382,-0.525279 -0.333859,-0.801282 -0.02855,-0.153109 -0.02855,-0.523362 0,-0.676471 0.03311,-0.177548 0.08836,-0.347282 0.164741,-0.506175 0.03924,-0.08163 0.07135,-0.15723 0.07135,-0.168012 0,-0.01078 -1.0287,-1.048291 -2.2859995,-2.305578 -1.2573,-1.2572866 -2.286,-2.2914166 -2.286,-2.2980676 0,-0.0157 0.66239,-0.677932 0.678091,-0.677932 0.0066,0 1.040622,1.028701 2.2979085,2.286 1.317137,1.3171506 2.294974,2.2859996 2.307206,2.2859996 0.01168,0 0.07426,-0.02661 0.139066,-0.05913 0.500082,-0.250954 1.118918,-0.27072 1.633728,-0.05219 0.614939,0.261041 1.057964,0.807711 1.189844,1.468207 0.03938,0.197229 0.03938,0.532994 0,0.730222 -0.121237,0.607196 -0.504696,1.119455 -1.046875,1.398511 -0.282025,0.145156 -0.537541,0.209591 -0.856969,0.216105 -0.1056,0.0022 -0.2136,0.0016 -0.24,-0.0012 z m 0.474,-1.012531 c 0.0561,-0.01354 0.1533,-0.04983 0.216,-0.08065 0.0959,-0.04715 0.13125,-0.07329 0.222646,-0.16469 0.09137,-0.09137 0.117562,-0.126774 0.164715,-0.222646 0.08191,-0.166535 0.109237,-0.291127 0.109237,-0.498 0,-0.206873 -0.02733,-0.331465 -0.109237,-0.498 -0.04715,-0.09587 -0.07335,-0.131277 -0.164715,-0.222645 -0.09137,-0.09137 -0.126774,-0.117563 -0.222646,-0.164716 -0.166535,-0.08191 -0.291127,-0.109237 -0.498,-0.109237 -0.206873,0 -0.331465,0.02733 -0.498,0.109237 -0.09587,0.04715 -0.131278,0.07335 -0.222646,0.164716 -0.09137,0.09137 -0.117562,0.126774 -0.164715,0.222645 -0.08191,0.166535 -0.109237,0.291127 -0.109237,0.498 0,0.206873 0.02733,0.331465 0.109237,0.498 0.04715,0.09587 0.07335,0.131278 0.164715,0.222646 0.09172,0.09172 0.126407,0.11733 0.222646,0.164383 0.181346,0.08866 0.326944,0.118498 0.54,0.110648 0.08052,-0.003 0.180485,-0.01533 0.24,-0.02969 z"
     id="path925" />
</svg>
