<?xml version="1.0" encoding="UTF-8" standalone="no"?>
<svg
   xmlns:dc="http://purl.org/dc/elements/1.1/"
   xmlns:cc="http://creativecommons.org/ns#"
   xmlns:rdf="http://www.w3.org/1999/02/22-rdf-syntax-ns#"
   xmlns:svg="http://www.w3.org/2000/svg"
   xmlns="http://www.w3.org/2000/svg"
   width="34.39579mm"
   height="43.55986mm"
   viewBox="0 0 34.395792 43.559858"
   version="1.1"
   id="svg1756">
  <defs
     id="defs1750" />
  <metadata
     id="metadata1753">
    <rdf:RDF>
      <cc:Work
         rdf:about="">
        <dc:format>image/svg+xml</dc:format>
        <dc:type
           rdf:resource="http://purl.org/dc/dcmitype/StillImage" />
        <dc:title></dc:title>
      </cc:Work>
    </rdf:RDF>
  </metadata>
  <path
     id="path852"
     d="m 1.0277806,43.515258 c -0.27244002,-0.0659 -0.50484002,-0.207321 -0.69416002,-0.422391 -0.36471,-0.41434 -0.33292000327,1.623661 -0.33292000327,-21.340789 0,-18.6621863 0.007000003,-20.6649823 0.0752000033,-20.86461528 0.0982,-0.288267 0.39063,-0.615989 0.67618,-0.757834 0.22777,-0.113148 0.22888,-0.11321 2.25815002,-0.124339 1.77432,-0.0097 2.0074,-0.0028 1.84887,0.05486 -0.46685,0.16985 -0.7921,0.531584 -0.8905,0.99040298 -0.0714,0.332939 -0.0714,41.1181943 0,41.4511343 0.0985,0.45942 0.42636,0.82355 0.8905,0.989121 0.15776,0.0563 -0.0707,0.0643 -1.75332,0.0619 -1.0641,-0.002 -1.99922,-0.0184 -2.07804,-0.0375 z m 4.24832,-0.0424 c -0.40574,-0.14027 -0.71869,-0.45894 -0.82954,-0.8447 -0.0411,-0.14297 -0.0514,-5.41758 -0.041,-20.94759 0.0137,-20.4198483 0.0154,-20.75952628 0.10646,-20.94297328 0.1256,-0.253143 0.37945,-0.497568 0.64366,-0.619774 l 0.21924,-0.101405 13.9238604,-0.01226 c 12.266289,-0.0108 13.953239,-0.0037 14.170609,0.05947 0.34924,0.101526 0.70059,0.427646 0.8282,0.768718 l 0.0982,0.26251298 V 21.745358 c 0,18.75776 -0.007,20.67428 -0.0761,20.90997 -0.0584,0.19888 -0.13547,0.31729 -0.33018,0.50716 -0.44912,0.43792 1.04711,0.397421 -14.614379,0.39565 -13.0780004,-9.99e-4 -13.8704804,-0.006 -14.0990204,-0.0853 z m 1.31775,-1.19589 c 0.27296,-0.14505 0.39326,-0.36471 0.37136,-0.67805 -0.0305,-0.43667 -0.29651,-0.68746 -0.72231,-0.68103 -0.71989,0.0109 -0.96412,0.98002 -0.33751,1.33926 0.22737,0.13036 0.46744,0.13727 0.68846,0.0198 z m 26.2494294,-0.007 c 0.48117,-0.23293 0.54062,-0.93091 0.10368,-1.21721 -0.42697,-0.27976 -0.93309,-0.12826 -1.10883,0.33191 -0.10073,0.26377 -0.0651,0.49225 0.10897,0.69915 0.23833,0.28324 0.55832,0.34971 0.89618,0.18615 z m -2.408699,-2.11499 c 0.0887,-0.0598 0.21054,-0.18188 0.27088,-0.2714 l 0.10969,-0.16278 -0.013,-2.87802 c -0.0128,-2.81925 -0.015,-2.88077 -0.11136,-3.01285 -0.0541,-0.0742 -0.19314,-0.18329 -0.30902,-0.24249 l -0.21068,-0.107651 -6.780791,0.0121 -6.780789,0.0121 -0.22983,0.83599 c -0.12641,0.4598 -0.27303,1.04022 -0.32584,1.28982 -0.2637,1.24655 -1.08952,2.18256 -2.30989,2.6181 -0.30641,0.10936 -0.41822,0.12292 -1.03615,0.12566 -0.76101,0.003 -1.06955,-0.065 -1.62506,-0.36001 -1.4859504,-0.7892 -2.1819304,-2.62007 -1.5938304,-4.19279 0.0626,-0.16734 0.11377,-0.31245 0.11377,-0.32246 0,-0.01 -0.22116,-0.0182 -0.49147,-0.0182 -0.57088,0 -0.83997,0.0991 -1.02487,0.37729 l -0.10787,0.16233 v 2.85213 2.85213 l 0.10862,0.16118 c 0.0597,0.0887 0.18115,0.21006 0.26981,0.26981 l 0.16118,0.10862 h 10.8776604 10.87766 z m -16.98634,-2.118551 c 0.62135,-0.14971 1.2879,-0.57056 1.67197,-1.05564 0.32367,-0.40879 0.53363,-0.87289 0.66523,-1.47041 0.0987,-0.44819 1.11571,-4.21311 3.23896,-11.99052 0.27716,-1.015209 0.48312,-1.861109 0.4839,-1.987379 0.002,-0.33734 -0.13385,-0.63125 -0.40444,-0.87453 -0.3051,-0.27431 -0.62707,-0.35961 -1.02293,-0.27102 -0.53306,0.11929 -0.4275,-0.0348 -3.0458,4.446629 -1.31248,2.24643 -2.48315,4.2564 -2.60148,4.46659 -0.11833,0.21019 -0.47298,0.82286 -0.78812,1.36147 -0.31513,0.53862 -0.6941,1.19026 -0.84215,1.4481 -0.14804,0.25783 -0.3836,0.64312 -0.52345,0.85619 -0.5061204,0.77111 -0.6642004,1.19019 -0.7074904,1.87568 -0.0359,0.56935 0.061,1.01979 0.34215,1.58924 0.6385804,1.2935 2.0906404,1.95328 3.5336504,1.6056 z m -1.25916,-2.07725 c -0.3781,-0.1918 -0.6196,-0.66086 -0.56087,-1.08934 0.0838,-0.61165 0.66249,-1.03331 1.25052,-0.91124 0.20015,0.0416 0.29665,0.10125 0.53523,0.33111 0.31975,0.30806 0.37382,0.44797 0.33385,0.8639 -0.0279,0.29083 -0.20598,0.57203 -0.47481,0.74993 -0.2777,0.18377 -0.78045,0.20958 -1.08392,0.0556 z m 7.919539,-8.02295 c 1.76664,-0.11208 3.19774,-0.49203 4.75689,-1.26293 1.30677,-0.64611 2.32395,-1.37789 3.3309,-2.39633 1.927491,-1.949509 3.145,-4.439629 3.5,-7.158429 0.0997,-0.76348 0.0996,-2.34368 -1.8e-4,-3.10323 -0.44363,-3.37647 -2.145079,-6.3080733 -4.85007,-8.3567373 -1.75584,-1.329815 -3.80618,-2.144682 -6.0889,-2.419913 -0.60836,-0.07335 -2.102089,-0.07432 -2.722939,-0.0018 -3.91708,0.457732 -7.25268,2.604264 -9.2957804,5.982021 -0.72171,1.1931793 -1.24927,2.5832993 -1.52044,4.0062993 -0.30373,1.59388 -0.28597,3.31603 0.051,4.94323 0.64047,3.0931 2.62402,5.993529 5.2954704,7.743259 0.62941,0.41225 1.09751,0.66229 1.14576,0.61202 0.0222,-0.0231 0.6042,-1.00941 1.29335,-2.19175 0.68914,-1.182329 1.33201,-2.267919 1.42859,-2.412429 0.0966,-0.14451 0.28887,-0.47771 0.42732,-0.74045 0.42785,-0.81194 0.81795,-1.09959 1.485,-1.09502 1.05301,0.007 1.66863,0.94423 1.34737,2.05081 -0.37346,1.28642 -1.54305,5.719349 -1.51614,5.746449 0.0183,0.0184 0.2519,0.0457 0.51914,0.0607 0.26725,0.015 0.51815,0.031 0.55756,0.0356 0.0394,0.005 0.4247,-0.014 0.856199,-0.0414 z M 18.679171,17.912218 c -0.41165,-0.13309 -0.64164,-0.26995 -0.9703,-0.57739 -1.01404,-0.94859 -1.02052,-2.56147 -0.0142,-3.52782 0.48936,-0.4699 1.01032,-0.67735 1.70103,-0.67735 0.711479,0 1.224939,0.21186 1.724699,0.71162 0.50072,0.50073 0.71163,1.01295 0.71163,1.72834 0,0.87828 -0.41574,1.62259 -1.17039,2.09538 -0.52983,0.33194 -1.389049,0.43909 -1.982499,0.24722 z m -12.0870204,4.49689 c 0.45571,-0.22896 0.51831,-0.83501 0.12426,-1.20315 -0.17599,-0.16442 -0.60755,-0.19247 -0.82837,-0.0538 -0.44956,0.28222 -0.45873,0.92431 -0.0175,1.22415 0.20639,0.14024 0.48277,0.15282 0.72158,0.0328 z m 26.2567894,0.006 c 0.48778,-0.23146 0.52814,-0.94167 0.0709,-1.24714 -0.22998,-0.15364 -0.59122,-0.1494 -0.82534,0.01 -0.32725,0.22237 -0.41053,0.70404 -0.17377,1.00503 0.2344,0.29799 0.59813,0.38907 0.92824,0.23242 z M 6.6293606,2.5246317 c 0.3323,-0.202606 0.44937,-0.665966 0.25062,-0.991943 -0.29141,-0.477953 -1.00599,-0.456747 -1.25417,0.03722 -0.24788,0.493385 0.0875,1.049653 0.63289,1.049653 0.13043,0 0.2762,-0.03733 0.37066,-0.09493 z M 32.8377,2.5536617 c 0.33674,-0.140699 0.50344,-0.609585 0.33953,-0.955004 -0.11537,-0.243128 -0.3228,-0.377633 -0.61621,-0.399568 -0.31855,-0.02382 -0.53839,0.09527 -0.68392,0.370463 -0.13693,0.258944 -0.13693,0.408645 0,0.667588 0.18197,0.344109 0.58038,0.475386 0.9606,0.316521 z"
     style="fill:#808080;stroke-width:0.04777101;fill-opacity:1" />
</svg>
