<?xml version="1.0" encoding="UTF-8" standalone="no"?>
<svg
   xmlns:dc="http://purl.org/dc/elements/1.1/"
   xmlns:cc="http://creativecommons.org/ns#"
   xmlns:rdf="http://www.w3.org/1999/02/22-rdf-syntax-ns#"
   xmlns:svg="http://www.w3.org/2000/svg"
   xmlns="http://www.w3.org/2000/svg"
   xmlns:sodipodi="http://sodipodi.sourceforge.net/DTD/sodipodi-0.dtd"
   xmlns:inkscape="http://www.inkscape.org/namespaces/inkscape"
   viewBox="0 0 37.996436 37.987411"
   width="47.495544"
   height="47.484264"
   version="1.1"
   id="svg8"
   sodipodi:docname="do-not-disturb-50.svg"
   inkscape:version="1.0.1 (1.0.1+r75)">
  <metadata
     id="metadata14">
    <rdf:RDF>
      <cc:Work
         rdf:about="">
        <dc:format>image/svg+xml</dc:format>
        <dc:type
           rdf:resource="http://purl.org/dc/dcmitype/StillImage" />
      </cc:Work>
    </rdf:RDF>
  </metadata>
  <defs
     id="defs12" />
  <sodipodi:namedview
     pagecolor="#ffffff"
     bordercolor="#666666"
     borderopacity="1"
     objecttolerance="10"
     gridtolerance="10"
     guidetolerance="10"
     inkscape:pageopacity="0"
     inkscape:pageshadow="2"
     inkscape:window-width="1920"
     inkscape:window-height="1025"
     id="namedview10"
     showgrid="false"
     inkscape:zoom="8.78"
     inkscape:cx="62.010217"
     inkscape:cy="-2.4509054"
     inkscape:window-x="0"
     inkscape:window-y="27"
     inkscape:window-maximized="1"
     inkscape:current-layer="svg8" />
  <path
     style="fill:#000000;stroke-width:0.016"
     d="m 17.908911,37.966514 c -1.618,-0.07432 -3.309098,-0.396727 -4.944111,-0.942594 -3.3215569,-1.108934 -6.2899389,-3.134217 -8.5459499,-5.830773 -0.480174,-0.57394 -0.839176,-1.054764 -1.261818,-1.690001 -0.463969,-0.697351 -0.800804,-1.278221 -1.173678,-2.024 -1.04081204,-2.081709 -1.66770404,-4.251523 -1.90672504,-6.599605 -0.102473,-1.006659 -0.102121,-2.771365 7.54e-4,-3.784395 0.236492,-2.328787 0.865395,-4.507454 1.89825704,-6.576 0.671129,-1.3440911 1.45833,-2.5487601 2.419074,-3.7019531 0.710035,-0.852263 1.575981,-1.718209 2.428244,-2.428244 1.683165,-1.402272 3.5841129,-2.500928 5.6299529,-3.253842 1.696775,-0.62444897 3.620461,-1.02561497 5.352,-1.11610697 0.483784,-0.02528 1.898112,-0.02535 2.384894,-1.09e-4 1.518584,0.07873 3.210151,0.401384 4.735106,0.903173 0.900866,0.29643097 1.629677,0.59599897 2.504,1.02923397 0.782245,0.387609 1.384938,0.735446 2.096,1.209678 1.086509,0.724632 1.981779,1.459283 2.912333,2.389837 1.277695,1.277693 2.321304,2.660357 3.206568,4.248333 0.171714,0.3080181 0.598181,1.1635581 0.72977,1.4640001 0.781046,1.783271 1.266368,3.536685 1.494649,5.4 0.05651,0.461238 0.08101,0.762305 0.104804,1.288 0.05298,1.17028 0.01517,2.383875 -0.10493,3.368 -0.441456,3.617504 -1.918939,7.02515 -4.268997,9.845952 -0.710035,0.852264 -1.575981,1.718209 -2.428245,2.428245 -0.92232,0.7684 -1.921442,1.453491 -2.981952,2.044704 -0.308019,0.171713 -1.163558,0.59818 -1.464,0.729769 -1.947896,0.853151 -3.852504,1.352338 -5.92,1.551602 -0.693382,0.06683 -2.002824,0.08812 -2.896,0.0471 z m 12.08,-18.975368 v -2.992 h -10.992 -10.9919999 l -0.0041,2.976 c -0.0023,1.6368 -6.82e-4,2.985005 0.0035,2.996011 0.0061,0.016 2.2136829,0.01921 10.9961049,0.016 l 10.988498,-0.004 z"
     id="path905" />
</svg>
