<?xml version="1.0" encoding="UTF-8" standalone="no"?>
<svg
   xmlns:dc="http://purl.org/dc/elements/1.1/"
   xmlns:cc="http://creativecommons.org/ns#"
   xmlns:rdf="http://www.w3.org/1999/02/22-rdf-syntax-ns#"
   xmlns:svg="http://www.w3.org/2000/svg"
   xmlns="http://www.w3.org/2000/svg"
   xmlns:sodipodi="http://sodipodi.sourceforge.net/DTD/sodipodi-0.dtd"
   xmlns:inkscape="http://www.inkscape.org/namespaces/inkscape"
   viewBox="0 0 172.00278 153.16017"
   width="50.000809"
   height="44.523304"
   version="1.1"
   id="svg10"
   sodipodi:docname="docker-50-2.svg"
   inkscape:version="1.0.1 (1.0.1+r75)">
  <metadata
     id="metadata16">
    <rdf:RDF>
      <cc:Work
         rdf:about="">
        <dc:format>image/svg+xml</dc:format>
        <dc:type
           rdf:resource="http://purl.org/dc/dcmitype/StillImage" />
      </cc:Work>
    </rdf:RDF>
  </metadata>
  <defs
     id="defs14" />
  <sodipodi:namedview
     pagecolor="#ffffff"
     bordercolor="#666666"
     borderopacity="1"
     objecttolerance="10"
     gridtolerance="10"
     guidetolerance="10"
     inkscape:pageopacity="0"
     inkscape:pageshadow="2"
     inkscape:window-width="1920"
     inkscape:window-height="1025"
     id="namedview12"
     showgrid="false"
     inkscape:zoom="8.78"
     inkscape:cx="18.130974"
     inkscape:cy="31.9043"
     inkscape:window-x="0"
     inkscape:window-y="27"
     inkscape:window-maximized="1"
     inkscape:current-layer="svg10" />
  <path
     style="fill:#000000;stroke-width:0.0688"
     d="m 131.16633,153.10884 c -0.77619,-0.15415 -1.54647,-0.75541 -1.90577,-1.48757 l -0.19574,-0.39886 -0.0177,-17.1627 c -0.0118,-11.38155 -0.041,-17.18599 -0.0869,-17.23183 -0.0463,-0.0463 -1.11929,0.97806 -3.25027,3.10302 -2.40773,2.40095 -3.26476,3.21379 -3.52512,3.34339 -0.80432,0.40037 -1.64847,0.40401 -2.43075,0.0105 -0.41644,-0.20948 -0.98132,-0.75411 -6.11121,-5.89219 -4.41701,-4.42407 -5.68996,-5.73708 -5.82441,-6.00768 -0.26077,-0.52488 -0.35434,-1.10402 -0.26257,-1.62502 0.1725,-0.97931 -0.90271,0.14859 15.5147,-16.275069 14.55721,-14.56274 15.0924,-15.08937 15.55744,-15.308 0.43913,-0.20645 0.53937,-0.22642 1.13664,-0.22642 0.60295,0 0.69324,0.0184 1.1352,0.23185 0.45853,0.2214 1.15928,0.91071 15.56201,15.308 13.49256,13.487449 15.10051,15.117239 15.25884,15.466049 0.25177,0.55469 0.3377,1.11317 0.24687,1.60452 -0.17593,0.95171 0.0678,0.6784 -6.11483,6.85717 -4.44214,4.43939 -5.76579,5.72417 -6.03433,5.85716 -0.78079,0.38667 -1.61717,0.40023 -2.3866,0.0387 -0.38803,-0.18233 -0.77083,-0.54013 -3.59999,-3.36494 -1.74118,-1.7385 -3.2038,-3.16091 -3.25026,-3.16091 -0.0665,0 -0.0883,3.65748 -0.10222,17.18425 l -0.0177,17.18426 -0.22482,0.45666 c -0.28477,0.57845 -0.8839,1.15006 -1.4412,1.375 l -0.39798,0.16063 -8.4624,0.0104 c -4.67881,0.006 -8.59943,-0.0168 -8.76888,-0.0504 z m 13.85446,-5.33379 c 0.0989,-0.0379 0.10883,-1.77697 0.10883,-19.01071 0,-17.12705 0.0106,-19.00524 0.10927,-19.34264 0.47374,-1.6201 2.27282,-2.41572 3.77359,-1.66881 0.27091,0.13483 1.36918,1.19233 4.94146,4.75805 l 4.59313,4.5847 3.43927,-3.43876 c 1.89161,-1.89131 3.43928,-3.46986 3.43928,-3.50788 0,-0.038 -5.77404,-5.84311 -12.8312,-12.90019 l -12.8312,-12.831059 -12.8312,12.831059 c -7.05716,7.05708 -12.8312,12.87796 -12.8312,12.93527 0,0.0573 1.53251,1.63557 3.40557,3.50721 l 3.40559,3.40301 4.59241,-4.58121 c 3.86809,-3.85864 4.65267,-4.61006 4.97435,-4.76412 1.64042,-0.78568 3.50955,0.16127 3.84875,1.94987 0.0455,0.23996 0.0693,6.83661 0.0693,19.20163 0,15.00448 0.0175,18.84313 0.086,18.87077 0.12395,0.05 10.40787,0.0537 10.53797,0.004 z M 61.124813,128.89409 c -4.58237,-0.21677 -9.29976,-0.72659 -13.6568,-1.47592 -18.36258,-3.15801 -31.6444,-10.80354 -39.5619204,-22.77336 -4.16124,-6.29103 -6.75806,-13.748389 -7.59458997,-21.809599 -0.40309,-3.88428 -0.41535,-8.07279 -0.0346,-11.8336 0.21532002,-2.12706 0.55246002,-4.17719 0.79237997,-4.81844 0.26695,-0.71349 0.8298,-1.266693 1.584,-1.55685 0.29856,-0.114855 0.59577,-0.150748 1.53958,-0.185925 l 1.1696,-0.04359 0.0344,-9.7008 0.0344,-9.7008 0.2184,-0.461009 c 0.27786,-0.586521 0.72927,-1.037935 1.31579,-1.315792 l 0.46101,-0.218399 9.7008004,-0.0344 9.7008,-0.0344 0.0344,-9.6664 0.0344,-9.6664 0.1598,-0.395744 c 0.30004,-0.743072 0.83292,-1.270132 1.60302,-1.585532 l 0.36998,-0.151524 20.4164,-0.01788 20.4164,-0.01788 v -9.412287 c 0,-6.5220166 0.0231,-9.537646 0.0753,-9.820523 0.1609,-0.872304 0.75001,-1.632666 1.55852,-2.011559 L 71.892063,0 h 11.4208 11.4208 l 0.461008,0.218399 c 0.58652,0.277857 1.037938,0.729271 1.315793,1.315792 l 0.218399,0.461009 0.0344,20.468 0.0344,20.468 9.700807,0.0344 c 8.94245,0.03171 9.72371,0.04359 9.99395,0.152015 0.67507,0.270837 1.22036,0.781816 1.52309,1.427246 l 0.17896,0.381539 0.0353,9.7352 c 0.0194,5.35436 0.0427,9.74744 0.0516,9.762397 0.0362,0.06052 2.092,-0.06283 2.73386,-0.16404 1.66634,-0.262747 3.27315,-0.72648 4.66059,-1.345081 0.8187,-0.365026 2.06874,-1.08618 2.44191,-1.408763 l 0.24141,-0.208684 -0.38164,-0.760963 c -1.35391,-2.699643 -2.1888,-5.52327 -2.56094,-8.661266 -0.1549,-1.306127 -0.20492,-3.580412 -0.10818,-4.9192 0.33858,-4.686066 1.6529,-9.159325 4.09346,-13.932 1.2175,-2.380907 2.9025,-5.127236 3.39764,-5.537708 0.82571,-0.684521 1.99516,-0.83218 2.93726,-0.370874 1.1021,0.539641 4.38782,3.342209 6.10726,5.209202 4.78472,5.19532 7.20723,10.44965 7.20723,15.632209 0,0.428918 0.0232,0.794184 0.0516,0.811701 0.0284,0.01752 0.45408,-0.07083 0.946,-0.196328 4.19111,-1.069236 8.57727,-0.807768 12.7624,0.760794 0.9749,0.365393 2.51913,1.088563 3.45933,1.620043 1.46235,0.826625 3.58573,2.333861 4.73119,3.3583 0.81668,0.730415 1.13666,1.629996 0.93086,2.617015 -0.1955,0.937627 -1.50905,3.364787 -2.76278,5.10507 -1.25193,1.737757 -3.2524,3.852437 -4.84715,5.123877 -3.67246,2.92793 -7.88422,4.70897 -12.73585,5.38566 -1.70245,0.23745 -2.98116,0.30282 -5.17355,0.26445 l -2.05316,-0.0359 -0.19716,0.43946 c -0.10845,0.2417 -0.2098,0.43945 -0.22524,0.43945 -0.0154,0 -0.31859,-0.13741 -0.67368,-0.30535 -1.21342,-0.57389 -2.37557,-0.81805 -3.75287,-0.78847 -0.42853,0.009 -0.79623,0 -0.81711,-0.0212 -0.0209,-0.0209 0.16239,-0.52932 0.40724,-1.12987 0.24486,-0.60054 0.58608,-1.47057 0.75827,-1.93338 0.17219,-0.46282 0.38684,-0.95835 0.47701,-1.10118 0.37162,-0.58868 1.11744,-1.06823 1.8387,-1.18225 0.24321,-0.0385 0.73415,-0.0125 1.5682,0.083 1.49289,0.17092 5.08396,0.20693 6.30535,0.0632 5.51135,-0.64845 9.91262,-2.799612 13.28623,-6.493745 1.05551,-1.155799 2.57217,-3.300102 2.57217,-3.636637 0,-0.239411 -2.48876,-1.76924 -3.9318,-2.416862 -4.13125,-1.85405 -8.49894,-1.98144 -12.46074,-0.363422 -0.88551,0.361647 -1.71389,0.798101 -2.37715,1.25247 -0.815,0.558325 -1.12384,0.668915 -1.87031,0.669726 -0.59231,6.88e-4 -0.69683,-0.01977 -1.11461,-0.21769 -0.91811,-0.434946 -1.49715,-1.287805 -1.5531,-2.287531 -0.027,-0.482598 -0.003,-0.59836 0.31831,-1.560411 0.58439,-1.747555 0.65842,-2.205006 0.66131,-4.086459 0.003,-1.733103 -0.0466,-2.141904 -0.42285,-3.5088 -0.8142,-2.957918 -2.78282,-6.140459 -5.58281,-9.025363 -1.05853,-1.090615 -2.1654,-2.120237 -2.27933,-2.120237 -0.13763,0 -1.47468,2.580854 -2.12075,4.0936 -1.41111,3.30407 -2.16598,6.220019 -2.42917,9.383529 -0.10003,1.202442 -0.0452,3.56117 0.109,4.686071 0.41995,3.064084 1.40147,5.808708 2.84079,7.943648 0.64074,0.950417 0.73904,1.145217 0.84201,1.668551 0.10353,0.5263 0.0139,1.117312 -0.25321,1.668607 -0.34674,0.715788 -2.14741,2.348215 -3.73879,3.389475 -0.82989,0.543 -2.55357,1.43037 -3.5088,1.80637 -1.88931,0.74367 -3.71839,1.19951 -6.1232,1.52602 -0.8011,0.10877 -4.77074,0.11944 -57.963057,0.15585 l -57.1030604,0.0391 -0.0507,0.35265 c -0.13428,0.93309 -0.26664,2.65175 -0.34241,4.44599 -0.20285,4.80353 0.32201,9.9025 1.49151,14.49 3.4946804,13.708179 12.7130904,23.558709 27.2797604,29.150399 9.88595,3.7949 23.92539,5.81436 35.59344,5.11981 11.80478,-0.70268 22.47181,-3.71844 32.103677,-9.07629 0.54753,-0.30457 1.01672,-0.55376 1.04263,-0.55376 0.0259,0 0.13928,0.16254 0.25191,0.3612 0.38781,0.68403 0.86733,1.25889 2.05622,2.46502 0.65568,0.66519 1.19213,1.23881 1.19213,1.27472 0,0.21508 -5.62114,3.14763 -8.256003,4.30716 -8.576381,3.77424 -17.305154,5.86558 -27.382404,6.56059 -1.83221,0.12637 -7.80729,0.18537 -9.7008,0.0958 z m -34.27931,-72.495279 -0.0175,-8.0324 h -8.0152 -8.0152 l -0.0177,7.9464 c -0.01,4.37052 -0.003,7.9851 0.015,8.0324 0.0259,0.06812 1.69961,0.086 8.0504,0.086 h 8.01764 z m 21.51691,-0.0172 v -8.0152 l -8.01096,-0.01749 c -6.36332,-0.01389 -8.02223,2.75e-4 -8.06575,0.0688 -0.0633,0.09967 -0.0781,15.740682 -0.015,15.904942 0.0379,0.09889 0.79354,0.10748 8.0668,0.09163 l 8.02493,-0.01748 z m 21.48308,0.0172 -0.0175,-8.0324 h -8.0152 -8.0152 l -0.0177,7.9464 c -0.01,4.37052 -0.003,7.9851 0.015,8.0324 0.0259,0.06812 1.69961,0.086 8.0504,0.086 h 8.01764 z m 21.534244,-10.7084 c 0.01275,-13.770927 -0.0031,-18.730989 -0.06002,-18.7996 -0.06425,-0.07741 -1.415574,-0.0932 -7.976014,-0.0932 -7.08887,0 -7.90975,0.01108 -8.00678,0.108114 -0.097,0.09703 -0.10811,0.917908 -0.10811,8.006776 0,6.424331 0.0168,7.912611 0.09,7.973394 0.0621,0.05154 1.42317,0.08084 4.386,0.09442 l 4.29595,0.01969 0.39578,0.185477 c 1.115475,0.52275 1.788731,1.766925 1.566734,2.895321 -0.207824,1.056331 -0.913064,1.841175 -1.923404,2.140495 -0.32547,0.09642 -0.91259,0.110707 -4.55064,0.110707 -3.74536,0 -4.18126,0.01124 -4.21871,0.108827 -0.0546,0.142426 -0.0545,15.739397 0,15.881827 0.0379,0.09889 0.79354,0.10748 8.0668,0.09163 l 8.025041,-0.01748 z m 21.465763,10.7084 -0.0175,-8.0324 h -8.0152 -8.015205 l -0.01771,7.9464 c -0.0097,4.37052 -0.003,7.9851 0.01504,8.0324 0.02594,0.06812 1.699614,0.086 8.050405,0.086 h 8.01764 z m -64.448687,-17.8364 0.0344,-4.3688 0.17885,-0.3784 c 0.26539,-0.561504 0.74742,-1.05706 1.28619,-1.322297 0.43006,-0.211718 0.50332,-0.225703 1.18231,-0.225703 0.65106,0 0.76274,0.0191 1.11059,0.189923 0.60362,0.296437 0.98478,0.67544 1.28012,1.27288 l 0.25954,0.525015 0.0344,4.338091 0.0344,4.338091 h 8.0152 8.0152 l 0.0175,-8.010962 c 0.0139,-6.363322 0,-8.022229 -0.0688,-8.065746 -0.0475,-0.03013 -8.4665,-0.05526 -18.70898,-0.05584 -16.83888,-9.49e-4 -18.63304,0.0093 -18.7308,0.107061 -0.097,0.09703 -0.10811,0.917423 -0.10811,8.00144 0,6.06261 0.0192,7.91254 0.0828,7.976171 0.0639,0.06384 1.91401,0.07883 8.0668,0.06536 l 7.98396,-0.01748 z m 42.9656,-25.1808 v -8.0152 l -8.01096,-0.01749 c -6.36333,-0.01389 -8.02223,2.75e-4 -8.06575,0.0688 -0.0633,0.09967 -0.0781,15.740684 -0.015,15.904946 0.0379,0.09889 0.79354,0.107474 8.0668,0.09163 l 8.02493,-0.01749 z M 68.495473,118.02107 c -0.93469,-0.18369 -1.7938,-0.99285 -2.03833,-1.91981 -0.0531,-0.20138 -0.15479,-1.59127 -0.24455,-3.34337 -0.14644,-2.85853 -0.14813,-3.01854 -0.0361,-3.42309 0.21742,-0.7855 0.74572,-1.41422 1.47611,-1.75669 0.34082,-0.15981 0.4723,-0.1813 1.10906,-0.1813 0.64967,0 0.76135,0.0191 1.10933,0.19009 0.74405,0.36555 1.295,1.03094 1.49463,1.80511 0.0974,0.3776 0.37855,5.89493 0.32429,6.36339 -0.12546,1.08336 -1.06296,2.06079 -2.17971,2.27258 -0.40656,0.0771 -0.5937,0.0758 -1.01468,-0.007 z m 13.57894,-2.17947 c -0.66787,-0.23819 -1.20918,-0.71873 -1.5302,-1.35839 -0.076,-0.15136 -0.47026,-1.56004 -0.87623,-3.1304 -0.70276,-2.7184 -0.73675,-2.88208 -0.70932,-3.41623 0.0233,-0.45458 0.0703,-0.64524 0.24727,-1.00482 0.26386,-0.53597 0.76005,-1.02132 1.30547,-1.27696 0.3445,-0.16147 0.47894,-0.18439 1.08141,-0.18439 0.63066,0 0.72656,0.0183 1.15067,0.21918 0.54597,0.25863 1.00669,0.70479 1.25017,1.21065 0.095,0.19743 0.50285,1.6434 0.90627,3.21325 0.683579,2.66007 0.731443,2.88956 0.703483,3.37257 -0.05566,0.9615 -0.608353,1.78439 -1.490363,2.21895 -0.39397,0.1941 -0.53307,0.22535 -1.07362,0.24114 -0.45844,0.0134 -0.71106,-0.014 -0.96501,-0.10455 z m 13.3472,-4.92925 c -0.480774,-0.15246 -0.873767,-0.39007 -1.198386,-0.72458 -0.254381,-0.26213 -0.587414,-0.86369 -1.725607,-3.11696 l -1.410393,-2.79215 -0.0241,-0.58683 c -0.01749,-0.42592 0.0088,-0.68698 0.09571,-0.95212 0.63695,-1.94209 3.041827,-2.51927 4.456031,-1.06946 0.308733,0.31651 0.547352,0.74342 1.760393,3.14955 l 1.403251,2.78341 0.03333,0.53211 c 0.07897,1.26089 -0.644904,2.34354 -1.826475,2.73174 -0.488741,0.16057 -1.140621,0.17945 -1.563755,0.0453 z m 10.201137,-8.90105 c -1.74602,-2.10749 -3.28087,-4.06314 -3.45382,-4.40073 -0.23847,-0.46546 -0.3154,-1.24903 -0.18141,-1.84776 0.1694,-0.756919 0.86747,-1.520519 1.67501,-1.832239 0.45289,-0.17482 1.32081,-0.18634 1.76655,-0.0235 0.70592,0.25796 0.91193,0.46217 2.73127,2.707359 0.96508,1.19097 1.77217,2.21096 1.79353,2.26664 0.0487,0.12682 -3.53672,3.7341 -3.71144,3.7341 -0.0662,0 -0.34215,-0.26892 -0.61969,-0.60391 z M 32.228813,96.56517 c -2.55596,-0.54002 -4.54297,-2.490229 -5.17018,-5.074439 -0.18962,-0.78124 -0.20227,-2.07305 -0.0282,-2.87632 0.27478,-1.2678 0.88852,-2.40245 1.78964,-3.30859 0.91184,-0.91691 1.97174,-1.52814 3.17637,-1.83178 0.87087,-0.21951 2.34581,-0.21951 3.21668,0 1.50295,0.37883 2.85322,1.28004 3.77285,2.51809 2.04689,2.75561 1.70087,6.55801 -0.81041,8.90547 -1.58558,1.482159 -3.83667,2.113399 -5.94678,1.667569 z m 81.837337,-5.545789 c -1.09722,-0.92874 -2.08354,-1.78788 -2.19183,-1.9092 -0.10829,-0.12131 -0.29405,-0.42181 -0.4128,-0.66777 -0.19789,-0.40989 -0.2159,-0.50472 -0.2159,-1.13664 0,-0.63843 0.0165,-0.72298 0.223,-1.14243 0.26856,-0.54553 0.76065,-1.02867 1.30999,-1.28614 0.3445,-0.16147 0.47894,-0.18439 1.08141,-0.18439 1.04582,0 1.15529,0.0665 3.784,2.29808 1.21088,1.02796 2.21245,1.9188 2.22572,1.97966 0.0288,0.13178 -3.54534,3.73746 -3.7047,3.73746 -0.0572,0 -1.00168,-0.75988 -2.09889,-1.68863 z"
     id="path905" />
</svg>
