<?xml version="1.0" encoding="UTF-8" standalone="no"?>
<svg
   xmlns:dc="http://purl.org/dc/elements/1.1/"
   xmlns:cc="http://creativecommons.org/ns#"
   xmlns:rdf="http://www.w3.org/1999/02/22-rdf-syntax-ns#"
   xmlns:svg="http://www.w3.org/2000/svg"
   xmlns="http://www.w3.org/2000/svg"
   xmlns:sodipodi="http://sodipodi.sourceforge.net/DTD/sodipodi-0.dtd"
   xmlns:inkscape="http://www.inkscape.org/namespaces/inkscape"
   viewBox="0 0 171.95319 153.20243"
   width="49.986393"
   height="44.535591"
   version="1.1"
   id="svg10"
   sodipodi:docname="docker-50-3.svg"
   inkscape:export-filename="/code/flanksource/karina-ui/src/assets/svg/webfont-icon-source/docker-50-3.png"
   inkscape:export-xdpi="4800"
   inkscape:export-ydpi="4800"
   inkscape:version="1.0.1 (1.0.1+r75)">
  <metadata
     id="metadata16">
    <rdf:RDF>
      <cc:Work
         rdf:about="">
        <dc:format>image/svg+xml</dc:format>
        <dc:type
           rdf:resource="http://purl.org/dc/dcmitype/StillImage" />
      </cc:Work>
    </rdf:RDF>
  </metadata>
  <defs
     id="defs14" />
  <sodipodi:namedview
     pagecolor="#ffffff"
     bordercolor="#666666"
     borderopacity="1"
     objecttolerance="10"
     gridtolerance="10"
     guidetolerance="10"
     inkscape:pageopacity="0"
     inkscape:pageshadow="2"
     inkscape:window-width="1920"
     inkscape:window-height="1025"
     id="namedview12"
     showgrid="false"
     inkscape:zoom="8.78"
     inkscape:cx="14.845282"
     inkscape:cy="28.01002"
     inkscape:window-x="0"
     inkscape:window-y="27"
     inkscape:window-maximized="1"
     inkscape:current-layer="svg10" />
  <path
     style="fill:#000000;stroke-width:0.0688"
     d="m 138.92838,153.08879 c -0.21431,-0.071 -0.49295,-0.19381 -0.6192,-0.27289 -0.12625,-0.0791 -7.02841,-6.94862 -15.33813,-15.26568 -17.05154,-17.0666 -15.43535,-15.33218 -15.43745,-16.56672 -0.001,-0.63624 0.0159,-0.72424 0.22568,-1.1696 0.21578,-0.4581 0.50281,-0.75729 5.8824,-6.13158 6.14337,-6.13733 5.90174,-5.9225 6.84904,-6.08936 0.52129,-0.0918 1.10062,0.002 1.62502,0.26286 0.26342,0.13109 1.10393,0.92812 3.51208,3.33041 1.74118,1.73694 3.20404,3.15807 3.2508,3.15807 0.0673,0 0.085,-3.55521 0.085,-17.020759 0,-16.78072 0.002,-17.02692 0.13647,-17.458 0.23983,-0.76843 0.84041,-1.40158 1.63291,-1.72147 l 0.39782,-0.16057 8.1872,-0.0206 c 5.35119,-0.0135 8.37245,0.004 8.72201,0.0503 0.29414,0.039 0.70024,0.14922 0.90243,0.24487 0.4715,0.22306 0.99415,0.7469 1.25072,1.25358 l 0.20164,0.39822 0.0344,17.17707 c 0.0189,9.447389 0.0584,17.201039 0.0877,17.230349 0.0293,0.0293 1.48442,-1.37228 3.2336,-3.11461 3.44658,-3.43312 3.46706,-3.45003 4.3738,-3.60975 0.5442,-0.0959 1.12551,0.006 1.66467,0.29222 0.30379,0.16115 1.53657,1.36002 6.06024,5.89351 5.35342,5.36504 5.69025,5.71684 5.87722,6.13841 0.26649,0.60084 0.28223,1.46732 0.0381,2.0984 -0.15391,0.39792 -0.70558,0.95887 -15.3055,15.56312 -14.4839,14.48819 -15.16613,15.15975 -15.61029,15.3661 -0.60641,0.28175 -1.33904,0.33671 -1.9204,0.14407 z m 13.58843,-19.1444 c 7.02727,-7.00476 12.81015,-12.79813 12.85084,-12.87417 0.0664,-0.12401 -0.27567,-0.48818 -3.32047,-3.53529 -1.86696,-1.86836 -3.4408,-3.39703 -3.49742,-3.39703 -0.0566,0 -2.14685,2.03923 -4.64494,4.53163 -4.90625,4.89507 -4.79747,4.80035 -5.70509,4.96762 -1.39473,0.25704 -2.79115,-0.74611 -3.06757,-2.20368 -0.0455,-0.23997 -0.0693,-6.83863 -0.0693,-19.20778 V 83.383451 l -5.3492,0.0176 -5.3492,0.0176 -0.0344,19.091999 -0.0344,19.092 -0.16063,0.39798 c -0.45201,1.11989 -1.77098,1.85942 -2.91493,1.63436 -0.87093,-0.17134 -0.74324,-0.0594 -5.62881,-4.9325 -2.51702,-2.51056 -4.62218,-4.56464 -4.67815,-4.56464 -0.11184,0 -6.87908,6.73398 -6.87908,6.84527 0,0.0707 25.59632,25.69713 25.6669,25.69713 0.0215,0 5.78862,-5.73116 12.81588,-12.73591 z m -91.217978,-4.9914 c -10.97934,-0.52382 -20.9454,-2.42234 -29.004183,-5.52527 -2.980452,-1.14759 -6.396963,-2.76619 -8.801413,-4.16975 -9.445818,-5.51382 -16.2554298,-13.37853 -20.0664438,-23.175569 -1.781776,-4.58044 -2.80725797,-9.20701 -3.30252997,-14.8997 -0.147719,-1.6979 -0.168928,-6.63916 -0.03558,-8.2904 0.195758,-2.42415 0.523952,-4.92637 0.805462,-6.14101 0.21485197,-0.92704 0.72799997,-1.58487 1.53248697,-1.96459 0.449672,-0.21225 0.490619,-0.21846 1.665009,-0.2528 l 1.204,-0.0352 0.0344,-9.632 0.0344,-9.632 0.150192,-0.39731 c 0.203987,-0.53961 0.566434,-1.01377 1.006693,-1.31699 0.7599,-0.52336 -0.06811,-0.48292 10.6767148,-0.52151 l 9.632,-0.0346 0.0344,-9.7008 0.0344,-9.700801 0.219173,-0.462664 c 0.273974,-0.578347 0.738525,-1.039876 1.328827,-1.320182 l 0.4472,-0.212354 20.467992,-0.0344 20.468,-0.0344 0.0344,-9.7352 0.0344,-9.7351999 0.18439,-0.393403 c 0.38934,-0.83067797 1.19858,-1.43557797 2.09362,-1.56495497 0.64485,-0.09321 21.562036,-0.09326 22.206846,-4.7e-5 0.26052,0.03766 0.63204,0.147375 0.8256,0.243815 0.49653,0.247386 1.02667,0.79266797 1.25864,1.29459497 l 0.1941,0.419995 0.0348,20.4679999 c 0.0191,11.257401 0.0424,20.474911 0.0516,20.483361 0.009,0.008 4.358942,0.0239 9.666002,0.0344 l 9.6492,0.019 0.40205,0.16215 c 0.74328,0.29979 1.38309,0.97227 1.64491,1.72891 0.0634,0.18335 0.0922,2.5766 0.11915,9.90814 l 0.0355,9.6664 0.8256,-0.0131 c 2.17728,-0.0346 4.88136,-0.69759 6.9488,-1.70369 0.94766,-0.46117 2.14539,-1.20789 2.21078,-1.3783 0.0215,-0.056 -0.11522,-0.40426 -0.30385,-0.7738 -2.56931,-5.03361 -3.34313,-10.92733 -2.24263,-17.08069 0.53644,-2.99947 1.65838,-6.35855 3.17682,-9.51141 1.26705,-2.63086 3.31434,-6.026875 3.92478,-6.510356 0.91869,-0.727619 2.15274,-0.808676 3.1326,-0.205762 0.47403,0.291677 1.5585,1.118929 2.51343,1.917295 4.80819,4.019863 8.3303,8.928983 9.7332,13.566123 0.53534,1.76955 0.79967,3.43119 0.79967,5.02701 0,0.72887 0.0214,0.95843 0.0918,0.98545 0.0505,0.0194 0.46073,-0.0573 0.9116,-0.17043 1.84864,-0.46382 3.18351,-0.62592 5.15417,-0.62592 2.44314,0 4.31065,0.29383 6.6392,1.0446 2.82206,0.90989 5.67045,2.48245 8.2981,4.58126 1.0394,0.83022 1.37714,1.18405 1.61464,1.69158 0.41583,0.88861 0.3431,1.59863 -0.30299,2.95785 -1.17725,2.47669 -2.95266,4.95265 -5.06587,7.06482 -2.83163,2.83023 -5.96677,4.78348 -9.75786,6.07931 -1.76598,0.60362 -4.05918,1.09547 -6.00446,1.28784 -0.71148,0.0704 -0.94836,0.069 -1.3416,-0.008 -0.3668,-0.0716 -1.6463,-0.0994 -5.51716,-0.11961 -3.84302,-0.0201 -5.0396,-0.0458 -5.0396,-0.10843 0,-0.0451 0.15076,-0.43806 0.33501,-0.87315 0.18426,-0.43508 0.5142,-1.27094 0.73321,-1.85746 0.21901,-0.58652 0.46639,-1.17476 0.54973,-1.3072 0.22753,-0.36159 0.75528,-0.8173 1.16232,-1.00364 0.50449,-0.23096 1.02565,-0.26525 2.10453,-0.13843 5.18759,0.60976 9.90032,-0.0657 13.84656,-1.98462 3.30863,-1.60886 6.23166,-4.26454 8.13254,-7.38872 0.46728,-0.768 0.51053,-0.66948 -0.62414,-1.42193 -2.56427,-1.70047 -5.26055,-2.7401 -7.93116,-3.05807 -0.82003,-0.0976 -2.70831,-0.097 -3.53508,10e-4 -2.18965,0.25995 -4.50329,1.08579 -6.25218,2.23167 -0.8007,0.52463 -1.03368,0.63054 -1.58103,0.71868 -1.39235,0.22424 -2.72229,-0.72664 -3.01797,-2.15776 -0.11294,-0.54664 -0.0586,-0.87597 0.34395,-2.08579 0.4947,-1.48661 0.63814,-2.37215 0.63814,-3.93969 0,-1.41392 -0.12595,-2.32422 -0.50131,-3.62324 -0.84925,-2.9391 -2.73462,-5.97119 -5.50784,-8.85784 -1.02512,-1.06704 -2.18837,-2.11666 -2.31703,-2.09066 -0.12524,0.0253 -1.10075,1.81576 -1.698,3.11654 -1.51641,3.30263 -2.37982,6.25509 -2.76648,9.46 -0.16257,1.34746 -0.16349,4.0152 -0.002,5.2632 0.41946,3.23805 1.45177,6.17187 2.91557,8.28604 0.70471,1.0178 0.8101,1.28709 0.8101,2.06985 0,0.60722 -0.0173,0.69016 -0.23618,1.13479 -0.18028,0.36617 -0.39655,0.63884 -0.91385,1.15217 -2.41259,2.3941 -5.56026,4.10615 -9.25313,5.03287 -0.93737,0.23522 -1.49647,0.34345 -2.95436,0.57189 -0.69676,0.10918 -4.56115,0.11943 -58.018108,0.15388 l -57.2716238,0.0369 -0.05179,0.2064 c -0.02849,0.11352 -0.09962,0.70176 -0.15807,1.3072 -0.375747,3.89194 -0.313755,8.27726 0.169717,12.0056 1.237455,9.54277 5.0001818,17.677729 11.0392518,23.866669 1.365896,1.39979 2.462108,2.40593 3.736035,3.42903 8.238722,6.61664 19.50247,10.69769 33.93212,12.29419 7.26105,0.80337 14.29103,0.79177 20.8808,-0.0345 8.27417,-1.03742 16.220196,-3.41063 23.495196,-7.01721 4.163422,-2.06402 8.192382,-4.55387 11.902402,-7.35554 0.60169,-0.45438 0.688,-0.50961 0.688,-0.44026 0,0.0282 -1.72847,1.78704 -3.84103,3.90846 -2.78692,2.7986 -3.92704,3.98929 -4.15445,4.33873 -0.69859,1.07347 -1.08233,2.04803 -1.28028,3.25138 l -0.12157,0.73902 -0.85694,0.42787 c -9.604442,4.7955 -20.281838,7.49506 -31.913018,8.06854 -1.23106,0.0607 -6.89474,0.0773 -8.02231,0.0235 z M 26.830036,56.483501 v -8.0152 l -8.0324,-0.0175 -8.0324,-0.0175 v 8.00402 c 0,4.40221 0.02077,8.02478 0.04615,8.05017 0.02538,0.0254 3.639963,0.0383 8.0324,0.0287 l 7.986248,-0.0175 z m 21.483086,-0.0175 0.0175,-8.03269 -8.03269,0.0175 -8.032686,0.0175 -0.01771,7.9464 c -0.0097,4.37052 -0.0029,7.98523 0.01515,8.03269 0.02614,0.0686 1.669144,0.0827 8.032906,0.0688 l 8.00005,-0.0175 z m 21.51691,0.0175 v -8.0152 l -8.01096,-0.0175 c -6.36332,-0.0139 -8.02223,2.8e-4 -8.06574,0.0688 -0.0854,0.13446 -0.0712,15.72069 0.0145,15.8807 0.0701,0.13093 0.21715,0.13304 8.0668,0.11588 l 7.99542,-0.0175 z m 21.465596,-10.7672 V 26.9339 h -8.015196 -8.0152 l -0.0175,8.032401 -0.0175,8.0324 3.97349,0.001 c 2.18541,7.7e-4 4.17239,0.0301 4.4155,0.0653 0.91497,0.13225 1.73684,0.73922 2.12523,1.56954 0.161,0.34418 0.18402,0.47947 0.18402,1.0814 0,0.60193 -0.023,0.73722 -0.18402,1.0814 -0.38839,0.83032 -1.21026,1.43729 -2.12523,1.56954 -0.24311,0.0351 -2.22996,0.0645 -4.41522,0.0653 l -3.9732,10e-4 v 8.00373 c 0,4.40206 0.0208,8.0245 0.0462,8.04989 0.0254,0.0254 3.63996,0.0383 8.0324,0.0287 l 7.986236,-0.0175 z m 21.534402,10.7672 v -8.0152 l -8.01096,-0.0175 c -6.363322,-0.0139 -8.022232,2.8e-4 -8.065752,0.0688 -0.0633,0.0997 -0.078,15.74068 -0.015,15.90494 0.0379,0.0989 0.79353,0.10748 8.066802,0.0916 l 8.02492,-0.0175 z m -64.499598,-17.4924 c 2.1e-4,-2.21275 0.0298,-4.18696 0.066,-4.40807 0.19148,-1.1692 1.02484,-2.02464 2.19453,-2.25272 1.13261,-0.22085 2.33773,0.40274 2.86884,1.48447 l 0.20224,0.41192 0.0364,4.3688 c 0.02,2.40284 0.0432,4.37667 0.0516,4.38628 0.008,0.01 3.62978,0.01 8.0476,0 l 8.0324,-0.0175 v -8.0152 -8.015201 h -18.7824 -18.782396 l -0.01771,7.946401 c -0.0097,4.37052 -0.003,7.9851 0.01504,8.0324 0.02594,0.0681 1.699556,0.086 8.050116,0.086 h 8.01735 l 4.2e-4,-4.0076 z M 91.313118,13.4663 l 0.0175,-8.0323999 h -8.049886 -8.04989 v 8.0037329 c 0,4.402054 0.0208,8.024502 0.0462,8.049886 0.0254,0.02538 3.63996,0.03828 8.0324,0.02867 l 7.986236,-0.01749 z M 68.370202,118.06557 c -1.04914,-0.26821 -1.8595,-1.18978 -2.01544,-2.29206 -0.09,-0.63646 -0.29408,-5.15408 -0.26345,-5.833 0.0314,-0.69589 0.23296,-1.19518 0.67691,-1.67681 1.11202,-1.20639 3.03414,-1.12506 4.05923,0.17177 0.52145,0.65969 0.54187,0.77651 0.71681,4.10176 0.10679,2.02975 0.13717,3.10275 0.0954,3.36913 -0.13219,0.84291 -0.8347,1.71846 -1.62065,2.01983 -0.42837,0.16424 -1.27244,0.2356 -1.64881,0.13938 z m 13.91263,-2.09388 c -0.7813,-0.20344 -1.45095,-0.74245 -1.76726,-1.42249 -0.0964,-0.2073 -0.4958,-1.6153 -0.8875,-3.1289 -0.62409,-2.41155 -0.71172,-2.82009 -0.70837,-3.3024 0.006,-0.79858 0.19714,-1.24979 0.77684,-1.8295 0.50491,-0.5049 0.95829,-0.72268 1.65646,-0.79565 1.02004,-0.10662 2.11028,0.49217 2.57852,1.41617 0.16051,0.31677 1.53633,5.45782 1.65148,6.17116 0.0654,0.40511 -0.0778,1.09609 -0.32272,1.55676 -0.55363,1.04149 -1.85813,1.62633 -2.97745,1.33485 z m 12.915276,-5.06542 c -0.47017,-0.16919 -0.96137,-0.53281 -1.22641,-0.90785 -0.33504,-0.47412 -2.75345,-5.27785 -2.88459,-5.72973 -0.34728,-1.19669 0.28524,-2.52751 1.46752,-3.08759 0.42226,-0.20005 0.51883,-0.2184 1.149,-0.21839 0.6217,2e-5 0.72778,0.0195 1.1008,0.20218 0.80955,0.39645 0.9616,0.61615 2.45515,3.54741 0.7423,1.45684 1.38724,2.78812 1.43321,2.9584 0.1159,0.42935 0.10544,1.07318 -0.0247,1.52087 -0.22289,0.76674 -0.96841,1.52111 -1.72966,1.75021 -0.46992,0.14143 -1.2954,0.12458 -1.74031,-0.0355 z m 12.162322,-7.59525 c -0.47589,-0.10381 -1.01489,-0.39628 -1.32956,-0.72144 -0.64626,-0.66778 -3.71441,-4.553729 -3.91794,-4.962239 -0.20375,-0.40893 -0.2221,-0.50015 -0.2221,-1.10436 0,-0.62326 0.014,-0.68685 0.25992,-1.18453 0.30226,-0.61156 0.6336,-0.93237 1.28808,-1.2471 0.40425,-0.1944 0.50998,-0.21505 1.1008,-0.21505 0.59175,0 0.69592,0.0204 1.1008,0.21591 0.24596,0.11874 0.54694,0.3045 0.66885,0.4128 0.12191,0.10829 1.05854,1.2325 2.08141,2.49825 2.13556,2.64266 2.16403,2.69154 2.16552,3.718639 8.2e-4,0.56457 -0.024,0.70718 -0.18221,1.047 -0.36788,0.79023 -1.16053,1.40555 -2.0114,1.56141 -0.48198,0.0883 -0.51158,0.0877 -1.00217,-0.0193 z m 10.4576,-0.6463 c 0,-0.0376 0.20503,-0.24842 0.45563,-0.46843 0.58172,-0.51073 2.99901,-3.043179 4.24571,-4.447999 0.52792,-0.59488 0.98642,-1.06518 1.01887,-1.04514 0.0785,0.0485 0.0766,5.788569 -0.002,5.837079 -0.0335,0.0207 -0.30441,-0.0255 -0.602,-0.10263 -1.35149,-0.35044 -2.86993,-0.33444 -4.18747,0.0441 -0.85959,0.24698 -0.9288,0.26062 -0.9288,0.18301 z M 32.77255,96.732771 c -2.310369,-0.28915 -4.292799,-1.74267 -5.292265,-3.8803 -0.445275,-0.95233 -0.574425,-1.57007 -0.577075,-2.76017 -0.0019,-0.84793 0.02527,-1.14094 0.152249,-1.64274 0.300814,-1.18875 0.914279,-2.26044 1.798948,-3.14264 1.286939,-1.28334 2.882671,-1.93923 4.718029,-1.93923 1.334176,0 2.41951,0.30046 3.5094,0.97153 1.100686,0.67772 1.923606,1.59139 2.517086,2.79468 0.52566,1.06578 0.63519,1.56836 0.63727,2.924 0.002,1.33229 -0.10268,1.825 -0.61341,2.88616 -1.08465,2.2536 -3.221841,3.68053 -5.706346,3.80994 -0.3784,0.0197 -0.893149,0.0102 -1.143886,-0.0212 z m 84.52948,-3.25881 c -0.1892,-0.0492 -0.46784,-0.1537 -0.6192,-0.23223 -0.30407,-0.15778 -4.47364,-3.65947 -4.83966,-4.06447 -0.68044,-0.75287 -0.86034,-1.79889 -0.48327,-2.80987 0.20988,-0.56271 0.89771,-1.25054 1.46043,-1.46042 0.80504,-0.30027 1.66589,-0.24197 2.3472,0.15897 0.44122,0.25964 4.58466,3.79167 4.86912,4.15062 0.667,0.84168 0.75818,1.94492 0.24156,2.92268 -0.54734,1.03591 -1.86046,1.6248 -2.97618,1.33472 z"
     id="path937" />
</svg>
