<?xml version="1.0" encoding="UTF-8" standalone="no"?>
<svg
   xmlns:dc="http://purl.org/dc/elements/1.1/"
   xmlns:cc="http://creativecommons.org/ns#"
   xmlns:rdf="http://www.w3.org/1999/02/22-rdf-syntax-ns#"
   xmlns:svg="http://www.w3.org/2000/svg"
   xmlns="http://www.w3.org/2000/svg"
   xmlns:sodipodi="http://sodipodi.sourceforge.net/DTD/sodipodi-0.dtd"
   xmlns:inkscape="http://www.inkscape.org/namespaces/inkscape"
   viewBox="0 0 33.997455 37.999988"
   width="42.496819"
   height="47.499985"
   version="1.1"
   id="svg20"
   sodipodi:docname="fires-50-2.svg"
   inkscape:export-filename="/code/flanksource/karina-ui/src/assets/svg/webfont-icon-source/fires-50-2.png"
   inkscape:export-xdpi="4800"
   inkscape:export-ydpi="4800"
   inkscape:version="1.0.1 (1.0.1+r75)">
  <metadata
     id="metadata26">
    <rdf:RDF>
      <cc:Work
         rdf:about="">
        <dc:format>image/svg+xml</dc:format>
        <dc:type
           rdf:resource="http://purl.org/dc/dcmitype/StillImage" />
      </cc:Work>
    </rdf:RDF>
  </metadata>
  <defs
     id="defs24" />
  <sodipodi:namedview
     pagecolor="#ffffff"
     bordercolor="#666666"
     borderopacity="1"
     objecttolerance="10"
     gridtolerance="10"
     guidetolerance="10"
     inkscape:pageopacity="0"
     inkscape:pageshadow="2"
     inkscape:window-width="1920"
     inkscape:window-height="1025"
     id="namedview22"
     showgrid="false"
     inkscape:zoom="12.416795"
     inkscape:cx="62.206825"
     inkscape:cy="16.491283"
     inkscape:window-x="0"
     inkscape:window-y="27"
     inkscape:window-maximized="1"
     inkscape:current-layer="svg20" />
  <path
     style="fill:#000000;stroke-width:0.016"
     d="M 1e-5,20.496038 V 2.99208 L 2.98801,2.98804 5.97601,2.984 5.98421,1.496 C 5.98871,0.6776 5.99411,0.0062 5.99621,0.004 5.99831,0.0018 9.600002,0 14.000003,0 c 4.4,0 8.001707,0.0018 8.003792,0.004 0.0021,0.0022 0.0075,0.6736 0.012,1.492 l 0.0082,1.488 2.983082,0.00404 c 2.362108,0.0032 2.98572,0.0082 2.995755,0.024 0.007,0.010977 0.01278,2.7560291 0.01292,6.1001161 l 2.4e-4,6.0801589 0.162146,0.231842 c 1.034766,1.479547 1.627025,2.806111 1.800059,4.031841 0.03404,0.241142 0.03801,0.938069 0.0076,1.328 -0.06942,0.888958 -0.17098,1.493803 -0.527925,3.144 -0.251181,1.161235 -0.34601,1.697061 -0.409168,2.312 -0.09148,0.890728 -0.05799,1.979357 0.08137,2.645043 0.127051,0.606866 0.364162,0.980288 0.682467,1.074816 0.09536,0.02832 0.286485,0.03137 0.419903,0.0067 0.50979,-0.09424 0.694965,-0.64913 0.743576,-2.228198 0.0084,-0.274104 0.01549,-0.53617 0.01568,-0.58237 2.4e-4,-0.05969 0.0066,-0.084 0.02193,-0.084 0.03512,0 0.561475,0.54711 0.792736,0.824 1.129287,1.352096 1.87368,2.803208 2.113482,4.12 0.10688,0.586901 0.102945,1.424339 -0.0092,1.955434 -0.191413,0.906577 -0.614294,1.738336 -1.316075,2.588566 -0.198631,0.240646 -0.775127,0.8166 -1.018554,1.017595 -0.191937,0.158482 -0.464475,0.36469 -0.531841,0.402405 -0.02851,0.01596 -3.166287,0.02 -15.539942,0.02 H 0 Z m 29.709338,16.48227 c 0.02458,-0.0069 -0.04105,-0.02306 -0.192,-0.04726 -0.745717,-0.119535 -1.366727,-0.353066 -1.941338,-0.730043 -1.541974,-1.01162 -2.422354,-3.00044 -2.560821,-5.78501 -0.0059,-0.1188 -0.01223,-0.5544 -0.01405,-0.968 l -0.0033,-0.752 -0.04264,-0.163904 c -0.153024,-0.588178 -0.505035,-1.156614 -1.115828,-1.801875 -0.224213,-0.236866 -0.769149,-0.714221 -0.815335,-0.714221 -0.02416,0 -0.01886,0.04223 0.0381,0.304 0.104931,0.48215 0.149427,1.088317 0.106795,1.454851 -0.07595,0.653034 -0.353841,1.048763 -0.82011,1.167887 -0.324838,0.08299 -0.69795,0.04367 -0.993408,-0.104684 -0.307395,-0.154352 -0.602829,-0.485096 -0.809576,-0.906337 -0.480312,-0.978623 -0.67476,-2.645279 -0.551582,-4.727717 0.0093,-0.157405 0.0075,-0.18 -0.01447,-0.18 -0.02791,0 -0.256584,0.241277 -0.464414,0.490008 -0.42944,0.513957 -0.777374,1.045594 -1.042136,1.59236 -0.248075,0.512307 -0.380814,0.936053 -0.460368,1.469632 -0.01503,0.10079 -0.01902,0.372112 -0.01542,1.048 0.0078,1.456622 -0.0345,2.432562 -0.150707,3.48 -0.272031,2.451987 -0.942947,4.194546 -1.966733,5.108154 -0.412501,0.368108 -0.903956,0.614096 -1.44,0.720761 -0.108473,0.02158 -0.178079,0.04194 -0.16,0.04679 0.04649,0.01247 15.384955,0.01109 15.429338,-0.0014 z M 8.73601,36.967538 c 0,-0.0047 -0.0213,-0.05065 -0.04733,-0.102224 C 8.66265,36.813744 8.5987,36.671746 8.546579,36.54977 8.232047,35.813688 8.01944,34.93994 7.986668,34.248706 l -0.01065,-0.224712 -2.488,-0.0081 c -1.3684,-0.0045 -2.489837,-0.0099 -2.492083,-0.012 -0.0023,-0.0021 -0.0023,-0.678874 0,-1.503874 l 0.0041,-1.5 2.894413,-0.004 c 2.053376,-0.0029 2.900497,-0.0091 2.91535,-0.02142 0.01151,-0.0096 0.07228,-0.114967 0.135024,-0.234244 0.46316,-0.880414 1.178083,-1.877504 1.811131,-2.525948 l 0.235916,-0.241656 0.0041,-1.486344 0.0041,-1.486346 1.48,-0.008 1.48,-0.008 0.0034,-0.056 c 0.0019,-0.0308 0.01103,-0.3656 0.02037,-0.744 0.02042,-0.826728 0.06068,-1.611891 0.106033,-2.068 l 0.0099,-0.1 -1.533864,-2.4e-4 c -0.843625,-1.6e-4 -1.542901,-0.006 -1.553947,-0.013 -0.01592,-0.01011 -0.01924,-0.322328 -0.016,-1.507755 l 0.0041,-1.49501 1.782709,-0.008 1.782708,-0.008 0.09119,-0.36 c 0.210647,-0.83157 0.438506,-1.533574 0.737278,-2.271462 0.06936,-0.171304 0.126112,-0.317104 0.126112,-0.324 0,-0.0069 -1.0098,-0.01265 -2.244,-0.01278 -1.2342,-1.6e-4 -2.253037,-0.006 -2.264083,-0.013 -0.01592,-0.01011 -0.01924,-0.322328 -0.016,-1.507756 l 0.0041,-1.495004 h 3 3 l 0.008,0.168 0.008,0.168 0.06511,-0.088 c 0.608845,-0.82292 0.929274,-1.210065 1.495533,-1.806921 0.378928,-0.399403 1.072688,-1.045203 1.427782,-1.329079 0.04953,-0.0396 0.09041,-0.0774 0.09082,-0.084 4.16e-4,-0.0066 -0.238643,-0.01211 -0.531243,-0.01225 -0.2926,-1.28e-4 -0.541037,-0.006 -0.552083,-0.013 -0.01592,-0.01011 -0.01924,-0.3223279 -0.016,-1.5077559 l 0.0041,-1.495004 h 3 3 l 0.0041,1.495004 c 0.0032,1.185428 0,1.497645 -0.016,1.5077559 -0.01105,0.007 -0.601206,0.01286 -1.311467,0.013 l -1.291382,2.45e-4 -0.01594,0.06 c -0.05834,0.21966 -0.178266,0.96424 -0.23257,1.444 -0.05651,0.499235 -0.118374,1.397355 -0.09962,1.446226 0.0089,0.02318 0.149841,0.02599 1.48636,0.02969 l 1.476534,0.0041 0.0041,1.495004 c 0.0032,1.185428 0,1.497645 -0.016,1.507756 -0.01105,0.007 -0.673057,0.01286 -1.471139,0.013 -0.79808,1.6e-4 -1.453694,0.0056 -1.456918,0.01225 -0.0072,0.01479 0.01214,0.554878 0.03572,0.996 0.07187,1.344579 0.227272,2.020302 0.561037,2.439462 0.269274,0.33817 0.686671,0.503895 1.275432,0.506407 0.316616,0.0013 0.480816,-0.04979 0.701016,-0.218343 0.596221,-0.456368 1.002351,-1.639467 1.205426,-3.511526 0.07517,-0.692914 0.10859,-1.304001 0.1304,-2.384 0.0093,-0.462 0.02339,-0.846521 0.03125,-0.854492 0.02538,-0.02575 0.188984,0.116157 0.583571,0.506192 0.211271,0.208836 0.385941,0.379836 0.388156,0.38 0.0022,1.65e-4 0.0022,-2.2191 0,-4.9316999 l -0.004,-4.932 H 14.000132 1.032131 l -0.004,16.4759999 -0.004,16.476 h 3.855887 c 2.120804,0 3.856008,-0.0038 3.856008,-0.0085 z M 3.011927,28.002754 c -0.01592,-0.01011 -0.01924,-0.322328 -0.016,-1.507755 l 0.0041,-1.495005 h 3 3 l 0.0041,1.495005 c 0.0032,1.185427 -8e-5,1.497645 -0.016,1.507755 -0.01105,0.007 -1.355683,0.01275 -2.988083,0.01275 -1.6324,0 -2.977037,-0.0057 -2.988083,-0.01275 z m 0,-6 c -0.01592,-0.01011 -0.01924,-0.322328 -0.016,-1.507755 l 0.0041,-1.495005 h 3 3 l 0.0041,1.495005 c 0.0032,1.185427 -8e-5,1.497645 -0.016,1.507755 -0.01105,0.007 -1.355683,0.01275 -2.988083,0.01275 -1.6324,0 -2.977037,-0.0057 -2.988083,-0.01275 z m 0,-6 c -0.01592,-0.01011 -0.01924,-0.322328 -0.016,-1.507756 l 0.0041,-1.495004 h 3 3 l 0.0041,1.495004 c 0.0032,1.185428 -8e-5,1.497645 -0.016,1.507756 -0.01105,0.007 -1.355683,0.01275 -2.988083,0.01275 -1.6324,0 -2.977037,-0.0057 -2.988083,-0.01275 z m 0,-6 c -0.01592,-0.01011 -0.01924,-0.3223279 -0.016,-1.5077559 l 0.0041,-1.495004 h 3 3 l 0.0041,1.495004 c 0.0032,1.185428 -8e-5,1.497645 -0.016,1.5077559 -0.01105,0.007 -1.355683,0.01275 -2.988083,0.01275 -1.6324,0 -2.977038,-0.0057 -2.988083,-0.01275 z m 8,0 c -0.01592,-0.01011 -0.01924,-0.3223279 -0.016,-1.5077559 l 0.0041,-1.495004 h 3 3 l 0.0041,1.495004 c 0.0032,1.185428 0,1.497645 -0.016,1.5077559 -0.01105,0.007 -1.355683,0.01275 -2.988083,0.01275 -1.6324,0 -2.977037,-0.0057 -2.988083,-0.01275 z m 1.622728,21.925357 c 0.609421,-0.190607 1.037995,-1.10073 1.228154,-2.608117 0.05027,-0.398488 0.113932,-1.260928 0.0953,-1.29107 -0.0044,-0.0071 -0.667515,-0.01293 -1.473601,-0.01293 h -1.46561 l 0.01044,0.612 c 0.01466,0.859982 0.04809,1.320014 0.13049,1.796 0.122245,0.706138 0.337235,1.16345 0.650324,1.383325 0.239109,0.167918 0.535153,0.211289 0.824505,0.120792 z M 20.97601,1.999994 v -0.976 h -6.976 -6.976 v 0.976 0.976 h 6.976 6.976 z"
     id="path899" />
</svg>
