<?xml version="1.0" encoding="UTF-8" standalone="no"?>
<svg
   xmlns:osb="http://www.openswatchbook.org/uri/2009/osb"
   xmlns:dc="http://purl.org/dc/elements/1.1/"
   xmlns:cc="http://creativecommons.org/ns#"
   xmlns:rdf="http://www.w3.org/1999/02/22-rdf-syntax-ns#"
   xmlns:svg="http://www.w3.org/2000/svg"
   xmlns="http://www.w3.org/2000/svg"
   xmlns:sodipodi="http://sodipodi.sourceforge.net/DTD/sodipodi-0.dtd"
   xmlns:inkscape="http://www.inkscape.org/namespaces/inkscape"
   width="117.39565mm"
   height="127.76204mm"
   viewBox="0 0 117.39565 127.76204"
   version="1.1"
   id="svg277"
   inkscape:version="1.0.1 (1.0.1+r75)"
   sodipodi:docname="grafana.svg">
  <defs
     id="defs271">
    <linearGradient
       id="linearGradient1188"
       osb:paint="solid">
      <stop
         style="stop-color:#000000;stop-opacity:1;"
         offset="0"
         id="stop1186" />
    </linearGradient>
  </defs>
  <sodipodi:namedview
     id="base"
     pagecolor="#ffffff"
     bordercolor="#666666"
     borderopacity="1.0"
     inkscape:pageopacity="0.0"
     inkscape:pageshadow="2"
     inkscape:zoom="0.35"
     inkscape:cx="690.081"
     inkscape:cy="341.73196"
     inkscape:document-units="mm"
     inkscape:current-layer="layer1"
     inkscape:document-rotation="0"
     showgrid="false"
     fit-margin-top="0"
     fit-margin-left="0"
     fit-margin-right="0"
     fit-margin-bottom="0"
     inkscape:window-width="1920"
     inkscape:window-height="1025"
     inkscape:window-x="0"
     inkscape:window-y="27"
     inkscape:window-maximized="1" />
  <metadata
     id="metadata274">
    <rdf:RDF>
      <cc:Work
         rdf:about="">
        <dc:format>image/svg+xml</dc:format>
        <dc:type
           rdf:resource="http://purl.org/dc/dcmitype/StillImage" />
        <dc:title></dc:title>
      </cc:Work>
    </rdf:RDF>
  </metadata>
  <g
     inkscape:label="Layer 1"
     inkscape:groupmode="layer"
     id="layer1"
     transform="translate(205.64048,-57.750086)">
    <path
       style="fill:#f38121;fill-opacity:1;stroke-width:0.259184"
       d="m -123.42814,185.17871 c -4.01894,-1.08167 -7.41054,-3.0381 -10.54808,-6.0846 l -2.07347,-2.01331 -3.36939,-0.17004 c -4.6229,-0.23329 -8.69661,-0.80077 -12.10179,-1.6858 -1.5777,-0.41005 -3.05752,-0.66743 -3.28848,-0.57196 -0.23097,0.0955 -1.25109,0.674 -2.26694,1.2856 -4.66884,2.81094 -9.20379,4.1091 -15.98598,4.57612 l -2.02279,0.13928 -0.38134,-0.91269 c -0.20975,-0.50198 -0.63687,-1.92978 -0.94918,-3.17289 -0.78539,-3.12621 -0.79317,-10.3038 -0.0144,-13.31667 0.59036,-2.28404 0.65899,-2.07606 -1.614,-4.89145 -0.89731,-1.11143 -2.52368,-3.31117 -3.61415,-4.88831 -1.80939,-2.6169 -2.07761,-2.89224 -3.06874,-3.15014 -6.06296,-1.57765 -10.67636,-3.64347 -14.73314,-6.5973 -2.85972,-2.08223 -6.18047,-5.36261 -6.18047,-6.10535 0,-0.86979 2.15119,-5.22723 3.81868,-7.7351 2.03894,-3.06653 5.81171,-6.78539 9.07784,-8.94814 1.68556,-1.11613 2.70373,-1.96371 2.78163,-2.31557 0.0676,-0.30526 0.46905,-2.30451 0.89216,-4.44278 0.42311,-2.13826 1.09078,-4.92315 1.4837,-6.18864 l 0.71441,-2.30089 -0.73177,-1.32768 c -4.00343,-7.263648 -5.14019,-11.069078 -5.6359,-18.866888 -0.20683,-3.25361 -0.2021,-4.45879 0.0185,-4.72465 0.51645,-0.62229 5.74002,-2.18063 8.83377,-2.63537 4.18579,-0.61527 9.27266,-0.397 12.82959,0.5505 3.96477,1.05613 3.8104,1.05499 5.49353,0.0407 2.18806,-1.31862 7.41938,-3.87734 9.66872,-4.72911 1.06913,-0.40485 2.07601,-0.83391 2.2375,-0.95345 0.1615,-0.11955 0.99868,-1.64316 1.8604,-3.38581 2.30192,-4.655146 5.72332,-8.642752 9.63875,-11.233858 l 1.01603,-0.672378 0.98233,0.592475 c 3.98877,2.405749 7.83844,6.667231 9.66799,10.702211 0.39684,0.87521 0.93756,1.7787 1.20161,2.00775 0.26405,0.22904 1.64641,0.67911 3.07192,1.00013 1.42551,0.32103 3.99143,1.0437 5.70204,1.60595 1.71061,0.56225 3.40179,0.97053 3.75816,0.9073 0.35638,-0.0632 1.58102,-0.52836 2.72143,-1.03363 2.83057,-1.25411 6.11197,-1.88211 9.22745,-1.76595 0.8907,0.0332 0.97055,0.11514 1.73902,1.7843 1.22901,2.66951 1.6537,4.90418 1.63781,8.61786 l -0.0139,3.23979 1.51457,1.7295 c 7.586527,8.66313 11.440007,17.831878 12.112277,28.819248 0.19184,3.13535 0.0366,4.05227 -0.68596,4.05227 -0.63049,0 -1.05661,-0.80519 -2.23541,-4.22402 -3.9554,-11.4717 -11.861687,-20.905968 -21.843947,-26.065548 -7.20791,-3.72559 -12.74559,-4.90647 -21.66827,-4.62064 -6.73413,0.21572 -11.44952,1.3336 -17.19991,4.0776 -3.46185,1.65195 -5.56507,3.16552 -8.49254,6.11166 -5.34266,5.376708 -9.22987,13.097908 -11.01033,21.869928 -0.51616,2.54299 -0.60411,3.74168 -0.59908,8.16428 0.005,4.45887 0.0855,5.50331 0.57525,7.46962 3.02181,12.13254 11.9067,21.86421 23.46674,25.70325 4.23082,1.40504 6.26427,1.72315 11.1864,1.74998 5.37895,0.0293 7.38914,-0.40725 11.66326,-2.53307 5.37042,-2.67108 9.7143,-6.97 12.30076,-12.17345 2.03883,-4.1017 2.4692,-6.11415 2.46652,-11.53367 -0.002,-4.29341 -0.0409,-4.64649 -0.72575,-6.60919 -1.90019,-5.44563 -5.77201,-9.75846 -10.98496,-12.23616 -2.90266,-1.37964 -5.12253,-1.87892 -8.38017,-1.88485 -4.74017,-0.009 -8.23511,1.43971 -11.56303,4.79181 -2.96283,2.98436 -4.42911,6.09265 -4.88994,10.36594 -0.48039,4.4546 1.97183,9.40096 6.01263,12.12806 3.52543,2.37928 7.48665,2.99346 11.43844,1.7735 2.50988,-0.77483 3.26327,-0.6867 3.36817,0.394 0.0653,0.67305 -0.0777,0.93784 -0.80698,1.4941 -2.41434,1.8415 -6.72175,2.77013 -10.43785,2.25028 -7.20197,-1.00751 -13.12938,-5.89924 -15.5782,-12.85627 -0.69881,-1.98529 -0.72936,-2.27187 -0.71859,-6.73878 0.0106,-4.40164 0.0524,-4.78981 0.73933,-6.86836 2.20733,-6.67915 6.76296,-11.9551 12.98615,-15.0395 1.42551,-0.70652 3.5249,-1.52456 4.66531,-1.81786 4.48099,-1.15246 11.60336,-0.86416 16.45816,0.6662 10.47263,3.30123 18.920997,12.23308 21.688757,22.92993 0.51814,2.00251 0.67515,3.44185 0.8409,7.70871 l 0.20381,5.24646 1.19734,1.28005 c 2.33906,2.50065 4.32099,6.18751 5.2355,9.73927 l 0.4004,1.55511 -1.0282,0.926 c -2.11827,1.90776 -5.83507,3.44239 -9.42854,3.89298 -1.155207,0.14485 -2.242717,0.34448 -2.416687,0.44362 -0.17398,0.0991 -1.24397,1.34658 -2.37775,2.77209 -2.46211,3.0956 -4.31271,5.00138 -7.07865,7.2897 -1.13051,0.93529 -2.10759,1.95207 -2.17129,2.2595 -0.0637,0.30743 -0.30555,1.54851 -0.53743,2.75795 -0.78293,4.08359 -3.15657,8.99177 -5.67375,11.73214 -1.22649,1.33523 -1.41427,1.38 -3.46857,0.82711 z"
       id="path361" />
  </g>
</svg>
