<?xml version="1.0" encoding="UTF-8" standalone="no"?>
<svg
   xmlns:dc="http://purl.org/dc/elements/1.1/"
   xmlns:cc="http://creativecommons.org/ns#"
   xmlns:rdf="http://www.w3.org/1999/02/22-rdf-syntax-ns#"
   xmlns:svg="http://www.w3.org/2000/svg"
   xmlns="http://www.w3.org/2000/svg"
   xmlns:sodipodi="http://sodipodi.sourceforge.net/DTD/sodipodi-0.dtd"
   xmlns:inkscape="http://www.inkscape.org/namespaces/inkscape"
   viewBox="0 0 36.598145 36.320425"
   width="45.747681"
   height="45.400532"
   version="1.1"
   id="svg47"
   sodipodi:docname="guarantee-50.svg"
   inkscape:export-filename="/code/flanksource/karina-ui/src/assets/svg/webfont-icon-source/guarantee-50.png"
   inkscape:export-xdpi="4800"
   inkscape:export-ydpi="4800"
   inkscape:version="1.0.2 (1.0.2+r75+1)">
  <metadata
     id="metadata53">
    <rdf:RDF>
      <cc:Work
         rdf:about="">
        <dc:format>image/svg+xml</dc:format>
        <dc:type
           rdf:resource="http://purl.org/dc/dcmitype/StillImage" />
      </cc:Work>
    </rdf:RDF>
  </metadata>
  <defs
     id="defs51" />
  <sodipodi:namedview
     pagecolor="#ffffff"
     bordercolor="#666666"
     borderopacity="1"
     objecttolerance="10"
     gridtolerance="10"
     guidetolerance="10"
     inkscape:pageopacity="0"
     inkscape:pageshadow="2"
     inkscape:window-width="1920"
     inkscape:window-height="1025"
     id="namedview49"
     showgrid="false"
     inkscape:zoom="12.416795"
     inkscape:cx="17.344989"
     inkscape:cy="25.56847"
     inkscape:window-x="0"
     inkscape:window-y="27"
     inkscape:window-maximized="1"
     inkscape:current-layer="svg47" />
  <path
     id="path979"
     style="fill:#000000;stroke-width:0.02"
     d="M 18.451172 0.15820312 C 18.431375 0.15973222 18.395529 0.16142105 18.378906 0.1640625 C 18.402526 0.15873372 18.427297 0.16227411 18.451172 0.15820312 z M 26.810547 0.171875 C 26.790323 0.17635297 26.761541 0.17135329 26.738281 0.17773438 C 26.735087 0.1786108 26.676453 0.20743126 26.671875 0.20898438 C 26.717755 0.19400103 26.763818 0.18155218 26.810547 0.171875 z M 18.304688 0.18554688 C 18.275725 0.19416471 18.250598 0.19775293 18.210938 0.21289062 C 18.173744 0.22708674 18.151787 0.25097384 18.119141 0.265625 C 18.180805 0.23749524 18.239518 0.20423138 18.304688 0.18554688 z M 18.994141 0.18554688 C 19.042044 0.19774467 19.090149 0.20661996 19.136719 0.22460938 C 19.132548 0.22288126 19.07458 0.19420036 19.072266 0.19335938 C 19.052642 0.18622694 19.012116 0.19057294 18.994141 0.18554688 z M 27.541016 0.22460938 C 27.609893 0.25005478 27.678404 0.27623701 27.742188 0.3125 C 27.729239 0.30592522 27.719267 0.29601034 27.705078 0.2890625 C 27.639249 0.25682906 27.59241 0.24393037 27.541016 0.22460938 z M 27.845703 0.37304688 C 27.886562 0.40155841 27.917661 0.4414669 27.955078 0.47460938 C 27.919458 0.43968535 27.874972 0.39404882 27.845703 0.37304688 z M 17.871094 0.40820312 C 17.843773 0.42790407 17.811847 0.4357081 17.783203 0.45898438 C 17.779872 0.46169166 17.707812 0.55725214 17.701172 0.56445312 C 17.75356 0.50722409 17.8097 0.45457829 17.871094 0.40820312 z M 18.689453 1.3769531 L 15.837891 5.1015625 L 11.205078 5.2851562 L 10.412109 9.9101562 L 6.3964844 12.226562 L 7.8417969 16.691406 L 5.359375 20.605469 L 8.7128906 23.888672 L 8.3378906 28.507812 L 12.832031 29.855469 L 14.644531 34.119141 L 19.255859 33.228516 L 22.876953 36.175781 C 22.891953 36.175781 22.902813 36.172812 22.914062 36.164062 L 26.5 33.226562 L 31.046875 34.158203 L 32.921875 29.855469 L 37.375 28.572266 L 37.041016 23.890625 L 40.384766 20.681641 L 37.914062 16.691406 L 39.386719 12.296875 L 35.34375 9.9101562 L 34.605469 5.3378906 L 29.916016 5.1015625 L 27.136719 1.3945312 L 22.876953 3.3671875 L 18.689453 1.3769531 z M 16.730469 1.8242188 C 16.588695 2.011614 16.608467 1.9778408 16.439453 2.203125 L 15.183594 3.8769531 L 15.193359 3.8769531 L 16.730469 1.8242188 z M 22.8125 1.9550781 L 22.875 1.984375 L 22.876953 1.9824219 L 22.8125 1.9550781 z M 11.068359 4.0566406 C 11.063999 4.0570757 11.006558 4.0582202 11.003906 4.0585938 C 10.952165 4.0658851 10.905396 4.0880477 10.855469 4.1015625 C 10.925201 4.081618 10.994763 4.0646422 11.068359 4.0566406 z M 34.740234 4.0664062 C 34.79014 4.0742497 34.838692 4.0862336 34.886719 4.0996094 C 34.857507 4.0916585 34.830591 4.076067 34.800781 4.0703125 C 34.797643 4.0697066 34.744376 4.0670349 34.740234 4.0664062 z M 10.681641 4.1523438 C 10.558496 4.2053157 10.444955 4.2779415 10.34375 4.3652344 C 10.443519 4.2772287 10.559216 4.2068652 10.681641 4.1523438 z M 35.101562 4.1738281 C 35.14934 4.1967381 35.191838 4.2275229 35.236328 4.2558594 C 35.191535 4.2272661 35.149426 4.1967399 35.101562 4.1738281 z M 10.328125 4.3808594 C 10.227467 4.4706571 10.145416 4.576222 10.076172 4.6933594 C 10.144044 4.5763531 10.229222 4.471114 10.328125 4.3808594 z M 35.552734 4.5371094 C 35.584382 4.5762388 35.619381 4.6116102 35.646484 4.6542969 C 35.619118 4.6117789 35.584637 4.5761715 35.552734 4.5371094 z M 10.048828 4.7480469 C 10.01553 4.8109974 9.9776759 4.8708524 9.9550781 4.9394531 C 9.9526145 4.9469322 9.9312125 5.0871823 9.9277344 5.1015625 C 9.9518955 4.9763052 9.9920716 4.8574455 10.048828 4.7480469 z M 35.732422 4.828125 C 35.76243 4.8960213 35.788347 4.965542 35.806641 5.0390625 C 35.804996 5.0327436 35.792289 4.9511238 35.791016 4.9472656 C 35.777005 4.9048815 35.750675 4.8685715 35.732422 4.828125 z M 9.8242188 5.7011719 C 9.7611936 6.0490939 9.7210196 6.2326477 9.5800781 7.109375 C 9.4014744 8.220375 9.2552812 9.1313125 9.2539062 9.1328125 C 9.2525913 9.1343177 8.4815169 9.5777306 7.5410156 10.119141 C 6.9669141 10.449629 6.7642436 10.570337 6.421875 10.769531 L 9.2714844 9.1269531 L 9.8242188 5.7011719 z M 36.097656 6.734375 L 36.482422 9.1230469 L 36.488281 9.125 C 36.48604 9.1189413 36.339968 8.2172364 36.162109 7.109375 C 36.126084 6.8849915 36.129066 6.9268061 36.097656 6.734375 z M 5.7578125 11.154297 C 5.7547763 11.156169 5.7089237 11.182379 5.7070312 11.183594 C 5.6127381 11.244113 5.518701 11.329624 5.4355469 11.423828 C 5.5259314 11.318794 5.633968 11.227603 5.7578125 11.154297 z M 40.097656 11.236328 C 40.151332 11.2761 40.203803 11.316512 40.25 11.363281 C 40.222751 11.33613 40.201808 11.304252 40.171875 11.279297 C 40.16956 11.277367 40.102343 11.239615 40.097656 11.236328 z M 5.3984375 11.476562 C 5.3401423 11.548798 5.2831988 11.623131 5.2460938 11.697266 C 5.227536 11.734341 5.2217137 11.768854 5.2070312 11.804688 C 5.2530494 11.686619 5.3201598 11.577329 5.3984375 11.476562 z M 40.357422 11.478516 C 40.429957 11.572633 40.492472 11.673869 40.537109 11.783203 C 40.492293 11.673444 40.430825 11.572127 40.357422 11.478516 z M 5.1992188 11.828125 C 5.1328724 11.998806 5.0958012 12.163672 5.1054688 12.367188 L 5.1152344 12.570312 L 5.78125 14.554688 L 6.4453125 16.537109 L 5.34375 18.275391 C 4.9724099 18.860964 4.8511788 19.064366 4.6386719 19.408203 L 6.4667969 16.525391 L 5.1816406 12.695312 C 5.0856616 12.404914 5.09913 12.100057 5.1992188 11.828125 z M 40.568359 11.890625 C 40.596763 11.981738 40.616801 12.074125 40.625 12.169922 C 40.616452 12.073405 40.596401 11.980725 40.568359 11.890625 z M 29.03125 11.998047 C 29.038296 11.998581 29.641543 12.580988 30.373047 13.292969 L 31.703125 14.587891 L 31.574219 14.71875 C 31.503519 14.791017 29.1855 17.171766 26.421875 20.009766 C 23.658251 22.847766 21.389109 25.172656 21.380859 25.175781 C 21.361649 25.183229 15.258375 18.918225 15.265625 18.898438 C 15.2686 18.890249 15.869229 18.300952 16.599609 17.589844 L 17.927734 16.296875 L 17.970703 16.34375 C 18.026897 16.40293 21.083743 19.547158 21.25 19.716797 L 21.375 19.84375 L 24.263672 16.876953 C 25.853019 15.245424 27.573474 13.479406 28.085938 12.953125 C 28.5984 12.426842 29.02425 11.997516 29.03125 11.998047 z M 40.630859 12.291016 C 40.630036 12.388407 40.613064 12.486855 40.589844 12.583984 C 40.602167 12.523393 40.633894 12.419549 40.636719 12.369141 C 40.638138 12.342559 40.630909 12.31732 40.630859 12.291016 z M 40.550781 12.761719 L 39.289062 16.521484 L 39.298828 16.535156 L 39.960938 14.552734 C 40.317936 13.485746 40.472986 13.021347 40.550781 12.761719 z M 4.2910156 19.966797 C 4.2819214 19.98266 4.1956652 20.117832 4.1933594 20.123047 C 4.1741335 20.166525 4.1741647 20.231427 4.1582031 20.289062 C 4.1889295 20.177996 4.2297105 20.06912 4.2910156 19.966797 z M 41.490234 20.027344 C 41.546225 20.133411 41.600276 20.239719 41.625 20.353516 C 41.606081 20.270662 41.578668 20.190055 41.542969 20.111328 C 41.541596 20.1083 41.493589 20.033483 41.490234 20.027344 z M 41.625 20.353516 C 41.654976 20.491487 41.657204 20.632647 41.642578 20.771484 C 41.656657 20.629695 41.655966 20.489128 41.625 20.353516 z M 4.1269531 20.4375 C 4.1130113 20.51456 4.0820312 20.590325 4.0820312 20.650391 C 4.0820312 20.6951 4.1029879 20.74686 4.109375 20.794922 C 4.0951255 20.676601 4.1087759 20.556129 4.1269531 20.4375 z M 4.1113281 20.802734 C 4.1461758 21.052815 4.2424055 21.326447 4.3847656 21.488281 C 4.4485144 21.560749 7.2867563 24.295697 7.3867188 24.380859 C 7.398365 24.390782 7.1307437 27.868351 7.0742188 28.439453 C 7.05042 28.679899 7.1467319 29.038996 7.2949219 29.259766 C 7.4511094 29.492449 7.7158519 29.696275 7.9628906 29.773438 L 8.0800781 29.810547 L 4.0742188 33.820312 C 0.37331744 37.523792 0.063103125 37.836709 0.033203125 37.927734 C -0.019584375 38.088418 -0.00920625 38.288328 0.05859375 38.431641 C 0.12552625 38.573119 0.26041 38.700244 0.3984375 38.753906 C 0.48764375 38.788594 0.64426744 38.789922 3.546875 38.794922 L 6.6015625 38.800781 L 6.6015625 41.787109 C 6.6015625 43.697196 6.6082938 44.813347 6.6210938 44.880859 C 6.6628287 45.100931 6.7849813 45.2569 6.9882812 45.351562 C 7.1132525 45.40975 7.322885 45.416362 7.4726562 45.367188 C 7.5638412 45.337249 7.9678025 44.939314 12.871094 40.041016 L 18.171875 34.746094 L 18.537109 34.671875 C 18.743016 34.630225 18.914288 34.606359 18.929688 34.615234 C 18.944705 34.623953 19.660206 35.206156 20.519531 35.910156 C 21.378855 36.614156 22.133819 37.222044 22.199219 37.261719 C 22.408799 37.388847 22.572394 37.429688 22.871094 37.429688 C 23.169962 37.429688 23.332724 37.388677 23.541016 37.261719 C 23.547347 37.25786 23.686201 37.145046 23.705078 37.130859 C 23.467996 37.32349 23.182291 37.425781 22.876953 37.425781 C 22.571953 37.425781 22.286328 37.324062 22.048828 37.132812 L 18.923828 34.574219 L 14.960938 35.382812 C 14.882188 35.401562 14.789609 35.412109 14.693359 35.412109 C 14.173359 35.412109 13.702891 35.097578 13.494141 34.611328 L 11.912109 30.892578 L 8.0332031 29.773438 C 7.4382031 29.599688 7.0430469 29.025703 7.0917969 28.408203 L 7.4199219 24.380859 L 4.5019531 21.583984 C 4.2797708 21.370491 4.1480599 21.092707 4.1113281 20.802734 z M 41.640625 20.808594 C 41.602025 21.096144 41.47077 21.371716 41.25 21.582031 C 41.456819 21.362874 41.516203 21.26752 41.5625 21.144531 C 41.604646 21.032598 41.626448 20.920381 41.640625 20.808594 z M 41.25 21.582031 L 38.335938 24.378906 L 38.535156 26.826172 C 38.517797 26.61041 38.535259 26.762404 38.511719 26.474609 L 38.341797 24.40625 L 38.585938 24.166016 C 38.72045 24.034226 39.399638 23.380965 40.09375 22.714844 C 40.727824 22.106337 41.054209 21.789503 41.25 21.582031 z M 38.650391 28.550781 C 38.647474 28.638387 38.644715 28.725103 38.625 28.808594 C 38.633833 28.769177 38.65439 28.736762 38.660156 28.695312 C 38.661366 28.686612 38.649516 28.561018 38.650391 28.550781 z M 38.591797 28.919922 C 38.556251 29.026498 38.511788 29.129129 38.451172 29.222656 C 38.511513 29.128921 38.557928 29.026794 38.591797 28.919922 z M 38.400391 29.292969 C 38.234008 29.51576 38.003424 29.692038 37.722656 29.773438 L 33.841797 30.892578 L 32.263672 34.611328 C 32.024922 35.172578 31.416721 35.516562 30.792969 35.382812 L 26.832031 34.572266 L 23.75 37.09375 C 23.949575 36.941604 24.469753 36.526666 25.222656 35.910156 C 26.082406 35.206156 26.799028 34.622281 26.814453 34.613281 C 26.830923 34.603656 26.993179 34.626809 27.207031 34.669922 L 27.572266 34.744141 L 32.871094 40.039062 C 37.774781 44.938655 38.178406 45.33725 38.269531 45.367188 C 38.323744 45.384975 38.432016 45.400398 38.509766 45.400391 C 38.624428 45.400378 38.674234 45.388459 38.771484 45.341797 C 38.965197 45.248889 39.080094 45.09913 39.121094 44.882812 C 39.133969 44.813113 39.140625 43.728133 39.140625 41.787109 L 39.140625 38.800781 L 42.207031 38.794922 L 45.271484 38.791016 L 45.365234 38.746094 C 45.503347 38.681615 45.619219 38.565644 45.683594 38.429688 C 45.730469 38.331005 45.742188 38.283506 45.742188 38.160156 C 45.742188 37.862766 46.088956 38.233181 41.644531 33.791016 L 37.664062 29.814453 L 37.794922 29.767578 C 37.984934 29.701182 38.13335 29.608251 38.28125 29.458984 C 38.331942 29.407829 38.359888 29.34763 38.400391 29.292969 z "
     transform="scale(0.8)" />
</svg>
