<?xml version="1.0" encoding="UTF-8" standalone="no"?>
<svg
   xmlns:dc="http://purl.org/dc/elements/1.1/"
   xmlns:cc="http://creativecommons.org/ns#"
   xmlns:rdf="http://www.w3.org/1999/02/22-rdf-syntax-ns#"
   xmlns:svg="http://www.w3.org/2000/svg"
   xmlns="http://www.w3.org/2000/svg"
   xmlns:sodipodi="http://sodipodi.sourceforge.net/DTD/sodipodi-0.dtd"
   xmlns:inkscape="http://www.inkscape.org/namespaces/inkscape"
   viewBox="0 0 40 40"
   width="50px"
   height="50px"
   version="1.1"
   id="svg20"
   sodipodi:docname="guarantee-50.svg"
   inkscape:version="1.0.1 (1.0.1+r75)">
  <metadata
     id="metadata26">
    <rdf:RDF>
      <cc:Work
         rdf:about="">
        <dc:format>image/svg+xml</dc:format>
        <dc:type
           rdf:resource="http://purl.org/dc/dcmitype/StillImage" />
      </cc:Work>
    </rdf:RDF>
  </metadata>
  <defs
     id="defs24" />
  <sodipodi:namedview
     pagecolor="#ffffff"
     bordercolor="#666666"
     borderopacity="1"
     objecttolerance="10"
     gridtolerance="10"
     guidetolerance="10"
     inkscape:pageopacity="0"
     inkscape:pageshadow="2"
     inkscape:window-width="1920"
     inkscape:window-height="1025"
     id="namedview22"
     showgrid="false"
     inkscape:zoom="17.56"
     inkscape:cx="25"
     inkscape:cy="25"
     inkscape:window-x="0"
     inkscape:window-y="27"
     inkscape:window-maximized="1"
     inkscape:current-layer="svg20" />
  <g
     id="g888"
     style="opacity:1">
    <path
       style="color:#000000;font-style:normal;font-variant:normal;font-weight:normal;font-stretch:normal;font-size:medium;line-height:normal;font-family:sans-serif;font-variant-ligatures:normal;font-variant-position:normal;font-variant-caps:normal;font-variant-numeric:normal;font-variant-alternates:normal;font-variant-east-asian:normal;font-feature-settings:normal;font-variation-settings:normal;text-indent:0;text-align:start;text-decoration:none;text-decoration-line:none;text-decoration-style:solid;text-decoration-color:#000000;letter-spacing:normal;word-spacing:normal;text-transform:none;writing-mode:lr-tb;direction:ltr;text-orientation:mixed;dominant-baseline:auto;baseline-shift:baseline;text-anchor:start;white-space:normal;shape-padding:0;shape-margin:0;inline-size:0;clip-rule:nonzero;display:inline;overflow:visible;visibility:visible;isolation:auto;mix-blend-mode:normal;color-interpolation:sRGB;color-interpolation-filters:linearRGB;solid-color:#000000;solid-opacity:1;vector-effect:none;fill:#dff0fe;fill-opacity:1;fill-rule:nonzero;stroke-width:1;stroke-linecap:butt;stroke-linejoin:miter;stroke-miterlimit:4;stroke-dasharray:none;stroke-dashoffset:0;stroke-opacity:1.0;color-rendering:auto;image-rendering:auto;shape-rendering:auto;text-rendering:auto;enable-background:accumulate;stop-color:#000000;stop-opacity:1;stroke:none;"
       d="M 19.707,24.815 25,19.522 37.793,32.315 H 32.5 v 5.293 z"
       id="path890" />
    <path
       style="color:#000000;font-style:normal;font-variant:normal;font-weight:normal;font-stretch:normal;font-size:medium;line-height:normal;font-family:sans-serif;font-variant-ligatures:normal;font-variant-position:normal;font-variant-caps:normal;font-variant-numeric:normal;font-variant-alternates:normal;font-variant-east-asian:normal;font-feature-settings:normal;font-variation-settings:normal;text-indent:0;text-align:start;text-decoration:none;text-decoration-line:none;text-decoration-style:solid;text-decoration-color:#000000;letter-spacing:normal;word-spacing:normal;text-transform:none;writing-mode:lr-tb;direction:ltr;text-orientation:mixed;dominant-baseline:auto;baseline-shift:baseline;text-anchor:start;white-space:normal;shape-padding:0;shape-margin:0;inline-size:0;clip-rule:nonzero;display:inline;overflow:visible;visibility:visible;isolation:auto;mix-blend-mode:normal;color-interpolation:sRGB;color-interpolation-filters:linearRGB;solid-color:#000000;solid-opacity:1;vector-effect:none;fill-opacity:1;fill-rule:nonzero;stroke-width:1;stroke-linecap:butt;stroke-linejoin:miter;stroke-miterlimit:4;stroke-dasharray:none;stroke-dashoffset:0;stroke-opacity:1.0;color-rendering:auto;image-rendering:auto;shape-rendering:auto;text-rendering:auto;enable-background:accumulate;stop-color:#000000;stop-opacity:1;stroke:none;"
       d="M 25 18.814453 L 19 24.814453 L 19.353516 25.167969 L 33 38.814453 L 33 32.814453 L 39 32.814453 L 25 18.814453 z M 25 20.228516 L 36.585938 31.814453 L 32 31.814453 L 32 36.400391 L 20.414062 24.814453 L 25 20.228516 z "
       id="path892" />
  </g>
  <g
     id="g882"
     style="opacity:1">
    <path
       style="color:#000000;font-style:normal;font-variant:normal;font-weight:normal;font-stretch:normal;font-size:medium;line-height:normal;font-family:sans-serif;font-variant-ligatures:normal;font-variant-position:normal;font-variant-caps:normal;font-variant-numeric:normal;font-variant-alternates:normal;font-variant-east-asian:normal;font-feature-settings:normal;font-variation-settings:normal;text-indent:0;text-align:start;text-decoration:none;text-decoration-line:none;text-decoration-style:solid;text-decoration-color:#000000;letter-spacing:normal;word-spacing:normal;text-transform:none;writing-mode:lr-tb;direction:ltr;text-orientation:mixed;dominant-baseline:auto;baseline-shift:baseline;text-anchor:start;white-space:normal;shape-padding:0;shape-margin:0;inline-size:0;clip-rule:nonzero;display:inline;overflow:visible;visibility:visible;isolation:auto;mix-blend-mode:normal;color-interpolation:sRGB;color-interpolation-filters:linearRGB;solid-color:#000000;solid-opacity:1;vector-effect:none;fill:#4788c7;fill-opacity:1;fill-rule:nonzero;stroke-width:1;stroke-linecap:butt;stroke-linejoin:miter;stroke-miterlimit:4;stroke-dasharray:none;stroke-dashoffset:0;stroke-opacity:1.0;color-rendering:auto;image-rendering:auto;shape-rendering:auto;text-rendering:auto;enable-background:accumulate;stop-color:#000000;stop-opacity:1;stroke:none;"
       d="m 32.5,38.107 c -0.13,0 -0.258,-0.051 -0.354,-0.146 L 19.354,25.168 c -0.195,-0.195 -0.195,-0.512 0,-0.707 l 5.293,-5.293 c 0.195,-0.195 0.512,-0.195 0.707,0 l 12.793,12.793 c 0.143,0.143 0.186,0.358 0.108,0.545 -0.077,0.187 -0.26,0.309 -0.462,0.309 H 33 v 4.793 c 0,0.202 -0.122,0.385 -0.309,0.462 -0.062,0.025 -0.127,0.037 -0.191,0.037 z M 20.414,24.814 32,36.4 v -4.086 c 0,-0.276 0.224,-0.5 0.5,-0.5 h 4.086 L 25,20.229 Z"
       id="path884" />
    <path
       style="color:#000000;font-style:normal;font-variant:normal;font-weight:normal;font-stretch:normal;font-size:medium;line-height:normal;font-family:sans-serif;font-variant-ligatures:normal;font-variant-position:normal;font-variant-caps:normal;font-variant-numeric:normal;font-variant-alternates:normal;font-variant-east-asian:normal;font-feature-settings:normal;font-variation-settings:normal;text-indent:0;text-align:start;text-decoration:none;text-decoration-line:none;text-decoration-style:solid;text-decoration-color:#000000;letter-spacing:normal;word-spacing:normal;text-transform:none;writing-mode:lr-tb;direction:ltr;text-orientation:mixed;dominant-baseline:auto;baseline-shift:baseline;text-anchor:start;white-space:normal;shape-padding:0;shape-margin:0;inline-size:0;clip-rule:nonzero;display:inline;overflow:visible;visibility:visible;isolation:auto;mix-blend-mode:normal;color-interpolation:sRGB;color-interpolation-filters:linearRGB;solid-color:#000000;solid-opacity:1;vector-effect:none;fill-opacity:1;fill-rule:nonzero;stroke-width:1;stroke-linecap:butt;stroke-linejoin:miter;stroke-miterlimit:4;stroke-dasharray:none;stroke-dashoffset:0;stroke-opacity:1.0;color-rendering:auto;image-rendering:auto;shape-rendering:auto;text-rendering:auto;enable-background:accumulate;stop-color:#000000;stop-opacity:1;stroke:none;"
       d="M 25 18.525391 C 24.743119 18.525391 24.486261 18.621161 24.292969 18.814453 L 19 24.107422 C 18.613416 24.494006 18.613416 25.134901 19 25.521484 L 31.792969 38.316406 L 31.794922 38.316406 C 31.985274 38.504776 32.239231 38.607422 32.5 38.607422 C 32.6265 38.607422 32.755962 38.582777 32.878906 38.533203 L 32.880859 38.533203 C 33.254967 38.379159 33.5 38.010742 33.5 37.607422 L 33.5 33.314453 L 37.792969 33.314453 C 38.196289 33.314453 38.562753 33.071373 38.716797 32.697266 C 38.87125 32.324771 38.784261 31.891683 38.5 31.607422 L 25.707031 18.814453 C 25.513739 18.621161 25.256881 18.525391 25 18.525391 z M 25 20.935547 L 35.378906 31.314453 L 32.5 31.314453 C 31.953469 31.314453 31.5 31.767922 31.5 32.314453 L 31.5 35.193359 L 21.121094 24.814453 L 25 20.935547 z "
       id="path886" />
  </g>
  <g
     id="g876"
     style="opacity:1">
    <path
       style="color:#000000;font-style:normal;font-variant:normal;font-weight:normal;font-stretch:normal;font-size:medium;line-height:normal;font-family:sans-serif;font-variant-ligatures:normal;font-variant-position:normal;font-variant-caps:normal;font-variant-numeric:normal;font-variant-alternates:normal;font-variant-east-asian:normal;font-feature-settings:normal;font-variation-settings:normal;text-indent:0;text-align:start;text-decoration:none;text-decoration-line:none;text-decoration-style:solid;text-decoration-color:#000000;letter-spacing:normal;word-spacing:normal;text-transform:none;writing-mode:lr-tb;direction:ltr;text-orientation:mixed;dominant-baseline:auto;baseline-shift:baseline;text-anchor:start;white-space:normal;shape-padding:0;shape-margin:0;inline-size:0;clip-rule:nonzero;display:inline;overflow:visible;visibility:visible;isolation:auto;mix-blend-mode:normal;color-interpolation:sRGB;color-interpolation-filters:linearRGB;solid-color:#000000;solid-opacity:1;vector-effect:none;fill:#dff0fe;fill-opacity:1;fill-rule:nonzero;stroke-width:1;stroke-linecap:butt;stroke-linejoin:miter;stroke-miterlimit:4;stroke-dasharray:none;stroke-dashoffset:0;stroke-opacity:1.0;color-rendering:auto;image-rendering:auto;shape-rendering:auto;text-rendering:auto;enable-background:accumulate;stop-color:#000000;stop-opacity:1;stroke:none;"
       d="M 7.5,32.315 H 2.207 L 15,19.522 20.293,24.815 7.5,37.608 Z"
       id="path878" />
    <path
       style="color:#000000;font-style:normal;font-variant:normal;font-weight:normal;font-stretch:normal;font-size:medium;line-height:normal;font-family:sans-serif;font-variant-ligatures:normal;font-variant-position:normal;font-variant-caps:normal;font-variant-numeric:normal;font-variant-alternates:normal;font-variant-east-asian:normal;font-feature-settings:normal;font-variation-settings:normal;text-indent:0;text-align:start;text-decoration:none;text-decoration-line:none;text-decoration-style:solid;text-decoration-color:#000000;letter-spacing:normal;word-spacing:normal;text-transform:none;writing-mode:lr-tb;direction:ltr;text-orientation:mixed;dominant-baseline:auto;baseline-shift:baseline;text-anchor:start;white-space:normal;shape-padding:0;shape-margin:0;inline-size:0;clip-rule:nonzero;display:inline;overflow:visible;visibility:visible;isolation:auto;mix-blend-mode:normal;color-interpolation:sRGB;color-interpolation-filters:linearRGB;solid-color:#000000;solid-opacity:1;vector-effect:none;fill-opacity:1;fill-rule:nonzero;stroke-width:1;stroke-linecap:butt;stroke-linejoin:miter;stroke-miterlimit:4;stroke-dasharray:none;stroke-dashoffset:0;stroke-opacity:1.0;color-rendering:auto;image-rendering:auto;shape-rendering:auto;text-rendering:auto;enable-background:accumulate;stop-color:#000000;stop-opacity:1;stroke:none;"
       d="M 15 18.814453 L 1 32.814453 L 7 32.814453 L 7 38.814453 L 21 24.814453 L 15 18.814453 z M 15 20.228516 L 19.585938 24.814453 L 8 36.400391 L 8 31.814453 L 7.5 31.814453 L 3.4140625 31.814453 L 15 20.228516 z "
       id="path880" />
  </g>
  <g
     id="g870"
     style="opacity:1">
    <path
       style="color:#000000;font-style:normal;font-variant:normal;font-weight:normal;font-stretch:normal;font-size:medium;line-height:normal;font-family:sans-serif;font-variant-ligatures:normal;font-variant-position:normal;font-variant-caps:normal;font-variant-numeric:normal;font-variant-alternates:normal;font-variant-east-asian:normal;font-feature-settings:normal;font-variation-settings:normal;text-indent:0;text-align:start;text-decoration:none;text-decoration-line:none;text-decoration-style:solid;text-decoration-color:#000000;letter-spacing:normal;word-spacing:normal;text-transform:none;writing-mode:lr-tb;direction:ltr;text-orientation:mixed;dominant-baseline:auto;baseline-shift:baseline;text-anchor:start;white-space:normal;shape-padding:0;shape-margin:0;inline-size:0;clip-rule:nonzero;display:inline;overflow:visible;visibility:visible;isolation:auto;mix-blend-mode:normal;color-interpolation:sRGB;color-interpolation-filters:linearRGB;solid-color:#000000;solid-opacity:1;vector-effect:none;fill:#4788c7;fill-opacity:1;fill-rule:nonzero;stroke-width:1;stroke-linecap:butt;stroke-linejoin:miter;stroke-miterlimit:4;stroke-dasharray:none;stroke-dashoffset:0;stroke-opacity:1.0;color-rendering:auto;image-rendering:auto;shape-rendering:auto;text-rendering:auto;enable-background:accumulate;stop-color:#000000;stop-opacity:1;stroke:none;"
       d="M 7.5,38.107 C 7.436,38.107 7.371,38.095 7.309,38.069 7.122,37.992 7,37.81 7,37.607 V 32.814 H 2.207 C 2.005,32.814 1.822,32.692 1.745,32.505 1.667,32.318 1.71,32.103 1.853,31.96 L 14.646,19.167 c 0.195,-0.195 0.512,-0.195 0.707,0 l 5.293,5.293 c 0.195,0.195 0.195,0.512 0,0.707 L 7.854,37.961 C 7.758,38.057 7.63,38.107 7.5,38.107 Z M 3.414,31.814 H 7.5 c 0.276,0 0.5,0.224 0.5,0.5 V 36.4 L 19.586,24.814 15,20.229 Z"
       id="path872" />
    <path
       style="color:#000000;font-style:normal;font-variant:normal;font-weight:normal;font-stretch:normal;font-size:medium;line-height:normal;font-family:sans-serif;font-variant-ligatures:normal;font-variant-position:normal;font-variant-caps:normal;font-variant-numeric:normal;font-variant-alternates:normal;font-variant-east-asian:normal;font-feature-settings:normal;font-variation-settings:normal;text-indent:0;text-align:start;text-decoration:none;text-decoration-line:none;text-decoration-style:solid;text-decoration-color:#000000;letter-spacing:normal;word-spacing:normal;text-transform:none;writing-mode:lr-tb;direction:ltr;text-orientation:mixed;dominant-baseline:auto;baseline-shift:baseline;text-anchor:start;white-space:normal;shape-padding:0;shape-margin:0;inline-size:0;clip-rule:nonzero;display:inline;overflow:visible;visibility:visible;isolation:auto;mix-blend-mode:normal;color-interpolation:sRGB;color-interpolation-filters:linearRGB;solid-color:#000000;solid-opacity:1;vector-effect:none;fill-opacity:1;fill-rule:nonzero;stroke-width:1;stroke-linecap:butt;stroke-linejoin:miter;stroke-miterlimit:4;stroke-dasharray:none;stroke-dashoffset:0;stroke-opacity:1.0;color-rendering:auto;image-rendering:auto;shape-rendering:auto;text-rendering:auto;enable-background:accumulate;stop-color:#000000;stop-opacity:1;stroke:none;"
       d="M 15 18.523438 C 14.743119 18.523438 14.486261 18.619208 14.292969 18.8125 L 1.5 31.607422 C 1.2157399 31.891682 1.1287517 32.322819 1.2832031 32.695312 C 1.4372474 33.06942 1.8037111 33.314453 2.2070312 33.314453 L 6.5 33.314453 L 6.5 37.607422 C 6.5 38.010162 6.7473556 38.375433 7.1191406 38.529297 C 7.1196838 38.529522 7.1185969 38.531026 7.1191406 38.53125 C 7.2442289 38.583044 7.3748586 38.607422 7.5 38.607422 C 7.7582051 38.607422 8.0152772 38.506207 8.2070312 38.314453 L 21 25.521484 C 21.386584 25.134901 21.386584 24.494006 21 24.107422 L 15.707031 18.8125 C 15.513739 18.619208 15.256881 18.523438 15 18.523438 z M 15 20.935547 L 18.878906 24.814453 L 8.5 35.193359 L 8.5 32.314453 C 8.5 31.767922 8.0465314 31.314453 7.5 31.314453 L 4.6210938 31.314453 L 15 20.935547 z "
       id="path874" />
  </g>
  <g
     id="g18">
    <g
       id="g852"
       style="opacity:1">
      <path
         style="color:#000000;font-style:normal;font-variant:normal;font-weight:normal;font-stretch:normal;font-size:medium;line-height:normal;font-family:sans-serif;font-variant-ligatures:normal;font-variant-position:normal;font-variant-caps:normal;font-variant-numeric:normal;font-variant-alternates:normal;font-variant-east-asian:normal;font-feature-settings:normal;font-variation-settings:normal;text-indent:0;text-align:start;text-decoration:none;text-decoration-line:none;text-decoration-style:solid;text-decoration-color:#000000;letter-spacing:normal;word-spacing:normal;text-transform:none;writing-mode:lr-tb;direction:ltr;text-orientation:mixed;dominant-baseline:auto;baseline-shift:baseline;text-anchor:start;white-space:normal;shape-padding:0;shape-margin:0;inline-size:0;clip-rule:nonzero;display:inline;overflow:visible;visibility:visible;isolation:auto;mix-blend-mode:normal;color-interpolation:sRGB;color-interpolation-filters:linearRGB;solid-color:#000000;solid-opacity:1;vector-effect:none;fill:#98ccfd;fill-opacity:1;fill-rule:nonzero;stroke-width:1;stroke-linecap:butt;stroke-linejoin:miter;stroke-miterlimit:4;stroke-dasharray:none;stroke-dashoffset:0;stroke-opacity:1.0;color-rendering:auto;image-rendering:auto;shape-rendering:auto;text-rendering:auto;enable-background:accumulate;stop-color:#000000;stop-opacity:1;stroke:none;"
         d="m 20,31.237 c -0.128,0 -0.249,-0.043 -0.349,-0.124 l -2.682,-2.196 -3.403,0.696 c -0.04,0.009 -0.077,0.013 -0.114,0.013 -0.217,0 -0.413,-0.133 -0.501,-0.338 L 11.595,26.096 8.262,25.134 C 8.014,25.062 7.848,24.821 7.869,24.562 L 8.152,21.104 5.647,18.702 C 5.459,18.522 5.424,18.233 5.563,18.014 L 7.422,15.084 6.318,11.793 C 6.236,11.547 6.34,11.275 6.565,11.145 L 9.572,9.411 10.125,5.987 c 0.042,-0.257 0.26,-0.451 0.519,-0.462 l 3.467,-0.137 2.081,-2.777 c 0.103,-0.137 0.268,-0.219 0.44,-0.219 0.082,0 0.16,0.018 0.234,0.053 l 3.135,1.491 3.134,-1.491 C 23.21,2.41 23.288,2.392 23.37,2.392 c 0.172,0 0.337,0.082 0.44,0.22 l 2.08,2.776 3.467,0.137 c 0.259,0.01 0.478,0.204 0.521,0.462 l 0.552,3.423 3.007,1.734 c 0.225,0.129 0.328,0.403 0.246,0.649 l -1.102,3.289 1.857,2.93 c 0.139,0.22 0.104,0.509 -0.085,0.689 l -2.504,2.402 0.283,3.459 c 0.02,0.258 -0.145,0.499 -0.395,0.571 l -3.333,0.962 -1.356,3.193 c -0.086,0.201 -0.287,0.336 -0.502,0.336 -0.037,0 -0.074,-0.005 -0.111,-0.013 L 23.03,28.914 20.345,31.111 C 20.248,31.194 20.128,31.237 20,31.237 Z"
         id="path854" />
      <path
         style="color:#000000;font-style:normal;font-variant:normal;font-weight:normal;font-stretch:normal;font-size:medium;line-height:normal;font-family:sans-serif;font-variant-ligatures:normal;font-variant-position:normal;font-variant-caps:normal;font-variant-numeric:normal;font-variant-alternates:normal;font-variant-east-asian:normal;font-feature-settings:normal;font-variation-settings:normal;text-indent:0;text-align:start;text-decoration:none;text-decoration-line:none;text-decoration-style:solid;text-decoration-color:#000000;letter-spacing:normal;word-spacing:normal;text-transform:none;writing-mode:lr-tb;direction:ltr;text-orientation:mixed;dominant-baseline:auto;baseline-shift:baseline;text-anchor:start;white-space:normal;shape-padding:0;shape-margin:0;inline-size:0;clip-rule:nonzero;display:inline;overflow:visible;visibility:visible;isolation:auto;mix-blend-mode:normal;color-interpolation:sRGB;color-interpolation-filters:linearRGB;solid-color:#000000;solid-opacity:1;vector-effect:none;fill-opacity:1;fill-rule:nonzero;stroke-width:1;stroke-linecap:butt;stroke-linejoin:miter;stroke-miterlimit:4;stroke-dasharray:none;stroke-dashoffset:0;stroke-opacity:1.0;color-rendering:auto;image-rendering:auto;shape-rendering:auto;text-rendering:auto;enable-background:accumulate;stop-color:#000000;stop-opacity:1;stroke:none;"
         d="M 16.632812 1.8925781 C 16.301898 1.8925781 15.992511 2.045137 15.792969 2.3105469 L 13.853516 4.8984375 L 10.623047 5.0253906 C 10.126926 5.0464614 9.7108166 5.4169879 9.6308594 5.90625 L 9.1171875 9.0957031 L 6.3144531 10.712891 C 5.8856548 10.960641 5.686678 11.479956 5.84375 11.951172 L 6.8730469 15.017578 L 5.140625 17.746094 C 4.8746261 18.165186 4.9420704 18.719053 5.3007812 19.0625 L 7.6347656 21.300781 L 7.3710938 24.521484 C 7.3309217 25.01694 7.6455207 25.474645 8.1230469 25.613281 L 8.1230469 25.615234 L 11.228516 26.509766 L 12.490234 29.484375 L 12.492188 29.484375 C 12.655419 29.864631 13.029871 30.126953 13.451172 30.126953 C 13.521002 30.126953 13.59547 30.118659 13.666016 30.103516 L 13.675781 30.101562 L 16.835938 29.455078 L 19.335938 31.5 L 19.335938 31.501953 C 19.521976 31.652644 19.760021 31.736328 20 31.736328 C 20.239979 31.736328 20.482961 31.650211 20.669922 31.490234 L 23.162109 29.451172 L 26.330078 30.099609 C 26.392315 30.113066 26.46483 30.123047 26.546875 30.123047 C 26.971177 30.123047 27.34283 29.869975 27.507812 29.484375 L 28.771484 26.509766 L 31.875 25.613281 C 32.353911 25.475355 32.669091 25.01663 32.630859 24.523438 L 32.630859 24.521484 L 32.367188 21.298828 L 34.697266 19.0625 C 35.057486 18.719433 35.126186 18.16334 34.861328 17.744141 L 33.130859 15.015625 L 34.15625 11.951172 L 34.158203 11.951172 C 34.315147 11.480342 34.11846 10.959141 33.685547 10.710938 L 30.886719 9.0957031 L 30.371094 5.90625 L 30.371094 5.9042969 C 30.289517 5.4148363 29.874216 5.04459 29.376953 5.0253906 L 26.148438 4.8984375 L 24.210938 2.3125 C 24.011626 2.0454615 23.700055 1.8925781 23.369141 1.8925781 C 23.21397 1.8925781 23.059681 1.9287894 22.923828 1.9921875 L 22.921875 1.9921875 L 20 3.3828125 L 17.080078 1.9941406 L 17.080078 1.9921875 C 16.943213 1.9274541 16.787983 1.8925781 16.632812 1.8925781 z M 16.632812 2.8925781 C 16.640793 2.8925781 16.642055 2.8926385 16.650391 2.8964844 L 20.001953 4.4902344 L 23.345703 2.8984375 L 23.349609 2.8964844 C 23.357876 2.8929193 23.361869 2.8925781 23.369141 2.8925781 C 23.382226 2.8925781 23.403468 2.9011947 23.410156 2.9101562 L 23.410156 2.9121094 L 25.632812 5.8789062 L 29.337891 6.0253906 C 29.358628 6.0261913 29.380342 6.0418199 29.384766 6.0683594 L 29.974609 9.7246094 L 33.1875 11.578125 C 33.204587 11.587922 33.216041 11.613596 33.208984 11.634766 L 32.03125 15.148438 L 34.015625 18.279297 C 34.028767 18.300097 34.025592 18.322911 34.007812 18.339844 L 31.332031 20.90625 L 31.632812 24.601562 C 31.634581 24.62437 31.618746 24.64627 31.597656 24.652344 L 28.037109 25.679688 L 26.587891 29.091797 C 26.580874 29.108197 26.552573 29.123047 26.546875 29.123047 C 26.55492 29.123047 26.552779 29.12559 26.541016 29.123047 L 26.537109 29.121094 L 22.896484 28.376953 L 20.023438 30.726562 L 20.019531 30.730469 C 20.012492 30.736492 20.016021 30.736328 20 30.736328 C 19.985047 30.736328 19.978715 30.735899 19.966797 30.726562 L 19.964844 30.724609 L 17.101562 28.378906 L 13.460938 29.125 L 13.457031 29.125 C 13.4505 29.12647 13.452136 29.126953 13.451172 29.126953 C 13.438473 29.126953 13.422924 29.119588 13.410156 29.089844 L 11.962891 25.681641 L 8.4023438 24.654297 C 8.3843436 24.649071 8.3663553 24.625518 8.3671875 24.603516 L 8.3671875 24.601562 L 8.6699219 20.908203 L 5.9921875 18.341797 C 5.9748983 18.325243 5.9723739 18.300158 5.984375 18.28125 L 7.9726562 15.150391 L 6.7929688 11.634766 C 6.7860407 11.613981 6.7932515 11.590375 6.8144531 11.578125 L 10.027344 9.7246094 L 10.619141 6.0683594 C 10.623092 6.0441816 10.642732 6.0270243 10.664062 6.0253906 L 14.369141 5.8789062 L 16.591797 2.9121094 C 16.598255 2.9035193 16.619727 2.8925781 16.632812 2.8925781 z "
         id="path856" />
    </g>
    <g
       id="g858"
       style="opacity:1">
      <path
         style="color:#000000;font-style:normal;font-variant:normal;font-weight:normal;font-stretch:normal;font-size:medium;line-height:normal;font-family:sans-serif;font-variant-ligatures:normal;font-variant-position:normal;font-variant-caps:normal;font-variant-numeric:normal;font-variant-alternates:normal;font-variant-east-asian:normal;font-feature-settings:normal;font-variation-settings:normal;text-indent:0;text-align:start;text-decoration:none;text-decoration-line:none;text-decoration-style:solid;text-decoration-color:#000000;letter-spacing:normal;word-spacing:normal;text-transform:none;writing-mode:lr-tb;direction:ltr;text-orientation:mixed;dominant-baseline:auto;baseline-shift:baseline;text-anchor:start;white-space:normal;shape-padding:0;shape-margin:0;inline-size:0;clip-rule:nonzero;display:inline;overflow:visible;visibility:visible;isolation:auto;mix-blend-mode:normal;color-interpolation:sRGB;color-interpolation-filters:linearRGB;solid-color:#000000;solid-opacity:1;vector-effect:none;fill:#4788c7;fill-opacity:1;fill-rule:nonzero;stroke-width:1;stroke-linecap:butt;stroke-linejoin:miter;stroke-miterlimit:4;stroke-dasharray:none;stroke-dashoffset:0;stroke-opacity:1.0;color-rendering:auto;image-rendering:auto;shape-rendering:auto;text-rendering:auto;enable-background:accumulate;stop-color:#000000;stop-opacity:1;stroke:none;"
         d="m 20,31.737 c -0.244,0 -0.473,-0.082 -0.663,-0.235 l -2.5,-2.047 -3.17,0.648 c -0.063,0.015 -0.137,0.023 -0.214,0.023 -0.416,0 -0.793,-0.251 -0.96,-0.64 L 11.228,26.511 8.124,25.615 C 7.648,25.476 7.332,25.017 7.371,24.523 L 7.634,21.301 5.3,19.063 C 4.942,18.719 4.874,18.166 5.14,17.746 L 6.871,15.016 5.843,11.952 C 5.687,11.48 5.885,10.959 6.314,10.712 L 9.115,9.097 9.63,5.907 C 9.709,5.416 10.127,5.045 10.622,5.026 l 3.23,-0.128 1.938,-2.586 c 0.291,-0.387 0.847,-0.528 1.289,-0.317 l 2.919,1.388 2.919,-1.389 c 0.451,-0.211 1.001,-0.067 1.291,0.318 l 1.937,2.585 3.23,0.128 c 0.495,0.02 0.913,0.389 0.995,0.878 l 0.514,3.191 2.801,1.615 c 0.429,0.246 0.628,0.768 0.472,1.24 l -1.027,3.065 1.73,2.73 c 0.266,0.421 0.197,0.976 -0.162,1.318 l -2.331,2.238 0.263,3.222 c 0.039,0.496 -0.278,0.955 -0.754,1.093 l -3.105,0.896 -1.262,2.974 c -0.191,0.449 -0.677,0.725 -1.176,0.618 l -3.169,-0.649 -2.5,2.046 C 20.474,31.655 20.245,31.737 20,31.737 Z M 17.102,28.379 20,30.737 c 0.012,0 0.02,-0.003 0.029,-0.01 l 2.869,-2.349 3.638,0.745 1.5,-3.442 3.562,-1.027 -0.267,-3.746 2.675,-2.567 L 32.03,15.149 33.208,11.634 29.973,9.724 29.383,6.066 25.631,5.878 23.408,2.912 19.999,4.49 16.65,2.897 l -2.282,2.981 -3.706,0.146 -0.635,3.701 -3.212,1.853 1.156,3.572 -1.986,3.131 2.684,2.626 -0.301,3.695 3.595,1.079 1.45,3.411 z"
         id="path860" />
      <path
         style="color:#000000;font-style:normal;font-variant:normal;font-weight:normal;font-stretch:normal;font-size:medium;line-height:normal;font-family:sans-serif;font-variant-ligatures:normal;font-variant-position:normal;font-variant-caps:normal;font-variant-numeric:normal;font-variant-alternates:normal;font-variant-east-asian:normal;font-feature-settings:normal;font-variation-settings:normal;text-indent:0;text-align:start;text-decoration:none;text-decoration-line:none;text-decoration-style:solid;text-decoration-color:#000000;letter-spacing:normal;word-spacing:normal;text-transform:none;writing-mode:lr-tb;direction:ltr;text-orientation:mixed;dominant-baseline:auto;baseline-shift:baseline;text-anchor:start;white-space:normal;shape-padding:0;shape-margin:0;inline-size:0;clip-rule:nonzero;display:inline;overflow:visible;visibility:visible;isolation:auto;mix-blend-mode:normal;color-interpolation:sRGB;color-interpolation-filters:linearRGB;solid-color:#000000;solid-opacity:1;vector-effect:none;fill-opacity:1;fill-rule:nonzero;stroke-width:1;stroke-linecap:butt;stroke-linejoin:miter;stroke-miterlimit:4;stroke-dasharray:none;stroke-dashoffset:0;stroke-opacity:1.0;color-rendering:auto;image-rendering:auto;shape-rendering:auto;text-rendering:auto;enable-background:accumulate;stop-color:#000000;stop-opacity:1;stroke:none;"
         d="M 16.257812 1.4394531 C 15.920188 1.5230911 15.610524 1.7192757 15.390625 2.0117188 L 13.59375 4.4082031 L 10.601562 4.5273438 C 9.8689054 4.556378 9.2532831 5.1036553 9.1367188 5.828125 L 8.6601562 8.7832031 L 6.0644531 10.279297 C 5.4296245 10.644804 5.1391777 11.41359 5.3691406 12.109375 L 6.3203125 14.949219 L 4.7167969 17.478516 C 4.32404 18.098658 4.4248951 18.916255 4.953125 19.423828 L 7.1171875 21.498047 L 6.8730469 24.482422 L 6.8730469 24.484375 C 6.815457 25.213847 7.2812314 25.890373 7.984375 26.095703 L 10.861328 26.925781 L 12.033203 29.681641 L 12.033203 29.683594 C 12.277054 30.251605 12.836003 30.626953 13.453125 30.626953 C 13.564757 30.626953 13.673349 30.616 13.783203 30.589844 L 16.705078 29.992188 L 19.021484 31.890625 L 19.023438 31.890625 C 19.298323 32.11198 19.643978 32.236328 20 32.236328 C 20.356565 32.236328 20.704917 32.111511 20.980469 31.886719 L 23.296875 29.992188 L 26.228516 30.591797 C 26.964937 30.749707 27.687048 30.343861 27.96875 29.681641 L 27.96875 29.679688 L 29.138672 26.925781 L 32.015625 26.095703 C 32.719385 25.891672 33.186393 25.21353 33.128906 24.482422 L 32.884766 21.496094 L 35.042969 19.423828 C 35.574402 18.91756 35.676049 18.098322 35.283203 17.476562 L 33.679688 14.947266 L 34.630859 12.107422 L 34.630859 12.105469 C 34.861088 11.408879 34.569496 10.640034 33.933594 10.275391 L 31.339844 8.7792969 L 30.863281 5.8222656 L 30.863281 5.8203125 C 30.742232 5.0984476 30.126064 4.5549475 29.394531 4.5253906 L 26.402344 4.40625 L 24.607422 2.0117188 C 24.170679 1.4319053 23.376496 1.2268933 22.705078 1.5410156 L 22.703125 1.5410156 L 19.998047 2.8300781 L 17.294922 1.5429688 L 17.292969 1.5429688 C 16.959838 1.3844814 16.594808 1.3559711 16.257812 1.4394531 z M 23.128906 2.4472656 C 23.149512 2.4376252 23.167814 2.4695328 23.189453 2.4628906 L 20.001953 3.9375 L 20 3.9375 L 23.128906 2.4472656 z M 16.25 2.5976562 L 14.113281 5.3867188 L 14.111328 5.3867188 L 16.189453 2.6132812 C 16.202257 2.5962534 16.234592 2.6128698 16.25 2.5976562 z M 16.800781 3.5214844 L 19.996094 5.0429688 L 23.25 3.5351562 L 25.371094 6.3652344 L 28.953125 6.5449219 L 29.517578 10.035156 L 32.605469 11.859375 L 31.480469 15.212891 L 33.367188 18.259766 L 30.816406 20.708984 L 31.070312 24.285156 L 27.671875 25.265625 L 26.240234 28.552734 L 22.765625 27.839844 L 20.007812 30.097656 L 17.236328 27.84375 L 17.007812 27.888672 L 13.714844 28.523438 L 12.332031 25.269531 L 8.8984375 24.240234 L 9.1855469 20.712891 L 6.625 18.207031 L 8.5195312 15.21875 L 7.4160156 11.808594 L 10.480469 10.041016 L 11.085938 6.5078125 L 14.623047 6.3691406 L 16.800781 3.5214844 z M 25.888672 5.3867188 L 29.355469 5.5253906 C 29.378056 5.5263032 29.378475 5.5627639 29.400391 5.5664062 L 25.890625 5.390625 L 25.888672 5.3867188 z M 10.167969 5.9453125 L 9.5742188 9.4082031 L 9.5703125 9.4101562 L 10.123047 5.9863281 C 10.126674 5.9637823 10.161689 5.9668081 10.167969 5.9453125 z M 30.429688 9.4082031 L 33.435547 11.142578 C 33.455478 11.154007 33.439027 11.187498 33.457031 11.201172 L 30.429688 9.4121094 L 30.429688 9.4082031 z M 6.3398438 11.736328 L 7.4238281 15.080078 L 5.5625 18.013672 L 7.4199219 15.082031 L 6.3183594 11.794922 C 6.3109973 11.772647 6.3442488 11.758881 6.3398438 11.736328 z M 32.580078 15.080078 L 34.4375 18.011719 C 34.450155 18.031747 34.419923 18.053159 34.429688 18.074219 L 32.578125 15.085938 L 32.580078 15.080078 z M 5.6386719 18.642578 L 8.1523438 21.099609 L 8.1523438 21.105469 L 5.6464844 18.701172 C 5.6305769 18.685766 5.6523589 18.659436 5.6386719 18.642578 z M 31.849609 21.103516 L 32.130859 24.5625 C 32.132556 24.585017 32.096731 24.589212 32.095703 24.611328 L 31.845703 21.105469 L 31.849609 21.103516 z M 8.2265625 25.082031 L 11.59375 26.091797 L 11.595703 26.095703 L 8.2636719 25.134766 C 8.2405866 25.128024 8.2481431 25.091557 8.2265625 25.082031 z M 28.400391 26.095703 L 28.404297 26.095703 L 27.048828 29.289062 C 27.040219 29.309302 27.006811 29.297573 26.996094 29.316406 L 28.400391 26.095703 z M 16.966797 28.914062 L 16.970703 28.917969 L 19.6875 31.126953 C 19.677355 31.119816 19.664299 31.123176 19.654297 31.115234 L 19.650391 31.113281 L 16.970703 28.917969 L 13.558594 29.615234 L 13.550781 29.617188 C 13.534636 29.621032 13.495493 29.626953 13.453125 29.626953 C 13.437115 29.626953 13.431775 29.602957 13.416016 29.601562 L 16.966797 28.914062 z "
         id="path862" />
    </g>
    <g
       id="g16">
      <g
         id="g864"
         style="opacity:1">
        <path
           style="color:#000000;font-style:normal;font-variant:normal;font-weight:normal;font-stretch:normal;font-size:medium;line-height:normal;font-family:sans-serif;font-variant-ligatures:normal;font-variant-position:normal;font-variant-caps:normal;font-variant-numeric:normal;font-variant-alternates:normal;font-variant-east-asian:normal;font-feature-settings:normal;font-variation-settings:normal;text-indent:0;text-align:start;text-decoration:none;text-decoration-line:none;text-decoration-style:solid;text-decoration-color:#000000;letter-spacing:normal;word-spacing:normal;text-transform:none;writing-mode:lr-tb;direction:ltr;text-orientation:mixed;dominant-baseline:auto;baseline-shift:baseline;text-anchor:start;white-space:normal;shape-padding:0;shape-margin:0;inline-size:0;clip-rule:nonzero;display:inline;overflow:visible;visibility:visible;isolation:auto;mix-blend-mode:normal;color-interpolation:sRGB;color-interpolation-filters:linearRGB;solid-color:#000000;solid-opacity:1;vector-effect:none;fill:#ffffff;fill-opacity:1;fill-rule:nonzero;stroke-width:1;stroke-linecap:butt;stroke-linejoin:miter;stroke-miterlimit:4;stroke-dasharray:none;stroke-dashoffset:0;stroke-opacity:1.0;color-rendering:auto;image-rendering:auto;shape-rendering:auto;text-rendering:auto;enable-background:accumulate;stop-color:#000000;stop-opacity:1;stroke:none;"
           d="m 18.803,21.949 -4.909,-5.041 2.149,-2.093 2.76,2.834 6.122,-6.286 2.15,2.093 z"
           id="path866" />
        <path
           style="color:#000000;font-style:normal;font-variant:normal;font-weight:normal;font-stretch:normal;font-size:medium;line-height:normal;font-family:sans-serif;font-variant-ligatures:normal;font-variant-position:normal;font-variant-caps:normal;font-variant-numeric:normal;font-variant-alternates:normal;font-variant-east-asian:normal;font-feature-settings:normal;font-variation-settings:normal;text-indent:0;text-align:start;text-decoration:none;text-decoration-line:none;text-decoration-style:solid;text-decoration-color:#000000;letter-spacing:normal;word-spacing:normal;text-transform:none;writing-mode:lr-tb;direction:ltr;text-orientation:mixed;dominant-baseline:auto;baseline-shift:baseline;text-anchor:start;white-space:normal;shape-padding:0;shape-margin:0;inline-size:0;clip-rule:nonzero;display:inline;overflow:visible;visibility:visible;isolation:auto;mix-blend-mode:normal;color-interpolation:sRGB;color-interpolation-filters:linearRGB;solid-color:#000000;solid-opacity:1;vector-effect:none;fill-opacity:1;fill-rule:nonzero;stroke-width:1;stroke-linecap:butt;stroke-linejoin:miter;stroke-miterlimit:4;stroke-dasharray:none;stroke-dashoffset:0;stroke-opacity:1.0;color-rendering:auto;image-rendering:auto;shape-rendering:auto;text-rendering:auto;enable-background:accumulate;stop-color:#000000;stop-opacity:1;stroke:none;"
           d="M 24.916016 10.65625 L 18.804688 16.933594 L 16.052734 14.107422 L 13.1875 16.898438 L 18.802734 22.666016 L 19.162109 22.298828 L 27.78125 13.447266 L 24.916016 10.65625 z M 24.933594 12.070312 L 26.367188 13.464844 L 18.802734 21.232422 L 14.601562 16.917969 L 16.035156 15.523438 L 18.802734 18.365234 L 24.933594 12.070312 z "
           id="path868" />
      </g>
    </g>
  </g>
</svg>
