<?xml version="1.0" encoding="UTF-8" standalone="no"?>
<svg
   xmlns:dc="http://purl.org/dc/elements/1.1/"
   xmlns:cc="http://creativecommons.org/ns#"
   xmlns:rdf="http://www.w3.org/1999/02/22-rdf-syntax-ns#"
   xmlns:svg="http://www.w3.org/2000/svg"
   xmlns="http://www.w3.org/2000/svg"
   xmlns:sodipodi="http://sodipodi.sourceforge.net/DTD/sodipodi-0.dtd"
   xmlns:inkscape="http://www.inkscape.org/namespaces/inkscape"
   height="364.03781"
   viewBox="0 0 302.60055 364.03781"
   width="302.60056"
   version="1.1"
   id="svg1142"
   sodipodi:docname="helm-icon-50.svg"
   inkscape:version="1.0.2 (1.0.2+r75+1)">
  <metadata
     id="metadata1148">
    <rdf:RDF>
      <cc:Work
         rdf:about="">
        <dc:format>image/svg+xml</dc:format>
        <dc:type
           rdf:resource="http://purl.org/dc/dcmitype/StillImage" />
      </cc:Work>
    </rdf:RDF>
  </metadata>
  <defs
     id="defs1146" />
  <sodipodi:namedview
     pagecolor="#ffffff"
     bordercolor="#666666"
     borderopacity="1"
     objecttolerance="10"
     gridtolerance="10"
     guidetolerance="10"
     inkscape:pageopacity="0"
     inkscape:pageshadow="2"
     inkscape:window-width="1920"
     inkscape:window-height="1025"
     id="namedview1144"
     showgrid="false"
     inkscape:zoom="0.22109678"
     inkscape:cx="180.04744"
     inkscape:cy="342.66216"
     inkscape:window-x="0"
     inkscape:window-y="27"
     inkscape:window-maximized="1"
     inkscape:current-layer="svg1142" />
  <mask
     id="a"
     fill="#ffffff" />
  <path
     style="fill:#000000;stroke-width:0.0756501"
     d="m 45.43534,108.47321 c 0,-0.0641 1.3629,-2.02062 2.4449,-3.50979 5.3322,-7.338792 11.7241,-14.369162 18.5298,-20.380442 0.6549,-0.57851 1.1908,-1.07579 1.1908,-1.10508 0,-0.0293 -0.4496,-0.45809 -0.9991,-0.95289 -1.3376,-1.20436 -3.3348,-3.20851 -4.6615,-4.67761 -8.1341,-9.00719 -14.6103,-20.31421 -16.9528,-29.59832 -0.8871,-3.51595 -1.0883,-6.95464 -0.5373,-9.18379 0.5695,-2.30445 1.7807,-3.74106 3.6708,-4.35402 0.7459,-0.24191 2.1729,-0.324 3.1496,-0.18119 8.9973,1.31558 22.8658,15.1923 30.6988,30.71703 1.0764,2.13353 1.4577,2.95536 2.174,4.68644 0.266,0.6428 0.4939,1.17893 0.5064,1.19142 0.013,0.0125 0.7007,-0.37344 1.5294,-0.85761 15.8032,-9.23275 33.37042,-14.86558 51.51152,-16.51686 1.5224,-0.13858 3.8524,-0.30371 4.2932,-0.30426 0.2392,-3e-4 0.435,-0.0177 0.435,-0.0387 0,-0.021 -0.1168,-0.45505 -0.2596,-0.96454 -1.52,-5.42421 -2.3865,-12.47575 -2.3867,-19.4228 -7e-4,-12.46424 2.6646,-23.8364001 6.9247,-29.5491601 0.5813,-0.7796 1.7605,-1.95927 2.3698,-2.37083 0.5961,-0.40267996 1.5736,-0.86060996 2.1272,-0.99652996 0.6678,-0.16396 1.8276,-0.1293 2.4964,0.0746 2.6781,0.81646 5.1146,3.72485996 7.0727,8.44224996 3.991,9.6151301 5.2032,24.7972801 3.0197,37.8203101 -0.3747,2.23466 -0.9141,4.64733 -1.4646,6.55099 -0.1263,0.43688 -0.2299,0.81666 -0.2301,0.84397 -8e-4,0.0539 -0.028,0.05 2.3447,0.33278 18.6468,2.22206 37.1018,8.9884 53.059,19.45356 0.7853,0.51502 1.4353,0.92645 1.4445,0.91428 0.01,-0.0122 0.2102,-0.59748 0.4466,-1.30068 2.6585,-7.90549 8.0828,-17.0719 14.5686,-24.61926 2.6512,-3.08518 5.8403,-6.2064 8.5751,-8.39261 3.6951,-2.95392 7.3472,-4.9385 10.2655,-5.57845 0.8949,-0.19623 2.58,-0.23472 3.302,-0.0754 2.507,0.55317 3.9085,2.30292 4.4242,5.52348 0.1394,0.87092 0.1177,3.33904 -0.04,4.50118 -0.9209,6.79987 -4.5328,15.22609 -10.0688,23.48936 -3.2258,4.81516 -6.249,8.52496 -10.0207,12.29689 -2.232,2.2322 -3.8733,3.67631 -5.9232,5.21166 -0.4057,0.30384 -0.7376,0.57704 -0.7376,0.60711 0,0.0301 0.8673,0.88287 1.9274,1.89515 3.878,3.70322 7.9401,8.15441 11.3554,12.443092 1.6991,2.13369 4.2242,5.54952 5.4666,7.3948 l 0.3947,0.58629 h -12.6242 -12.6243 l -0.9381,-1.04019 c -1.1716,-1.29897 -4.9851,-5.13194 -6.3495,-6.38183 -9.7591,-8.940062 -20.4693,-15.696062 -32.4898,-20.494642 -16.3147,-6.51278 -34.2288,-8.78397 -51.8582,-6.5747 -10.1655,1.27392 -20.0525,4.02813 -29.46572,8.20826 -2.0251,0.89926 -6.2087,2.99041 -8.1702,4.08382 -6.9278,3.86173 -13.3917,8.46534 -19.253,13.712082 -2.4605,2.20261 -6.4393,6.17268 -8.0288,8.01135 l -0.4061,0.46976 -12.6147,0.003 c -6.9381,0.002 -12.6147,-0.0175 -12.6147,-0.0427 z"
     id="path1352" />
  <path
     style="fill:#000000;stroke-width:0.0756501"
     d="m 152.95606,364.01442 c -0.083,-0.0192 -0.3385,-0.072 -0.5674,-0.11735 -0.5138,-0.10189 -1.4966,-0.55234 -2.0893,-0.95756 -4.0742,-2.7854 -7.4347,-11.18302 -8.7255,-21.80478 -0.4421,-3.63764 -0.5664,-5.86222 -0.5664,-10.13711 0,-6.09498 0.4584,-10.93966 1.5069,-15.92435 0.2441,-1.16086 0.9401,-3.96971 1.0625,-4.28853 0.062,-0.16117 -0.028,-0.17498 -1.8548,-0.28636 -6.6529,-0.40552 -14.3192,-1.59516 -21.2199,-3.29286 -12.11172,-2.97973 -23.34012,-7.60769 -34.38722,-14.1733 l -0.269,-0.15987 -0.3281,0.81204 c -5.7139,14.1405 -18.2288,29.25145 -28.3348,34.21238 -1.4043,0.68933 -2.3757,1.06195 -3.5934,1.37833 -0.7259,0.18861 -1.0642,0.23214 -2.0426,0.26284 -1.4465,0.0454 -2.0184,-0.0585 -3.0063,-0.54624 -2.8805,-1.42199 -3.8634,-5.40256 -2.781,-11.26272 1.4357,-7.77368 6.5137,-17.91203 13.4502,-26.85367 2.5932,-3.34276 6.0938,-7.14993 8.6693,-9.42852 l 0.9834,-0.86998 -0.2039,-0.18004 c -5.6594,-4.99736 -9.7688,-9.16837 -14.1704,-14.38261 -1.6821,-1.99276 -4.3344,-5.40607 -5.9225,-7.62175 l -0.2846,-0.39716 12.8859,1.2e-4 12.8858,1.3e-4 2.1182,2.10242 c 2.2722,2.25524 3.8329,3.70122 5.9391,5.50234 22.871,19.55907 52.56682,28.30176 82.45812,24.27636 5.4043,-0.72779 11.2873,-2.02203 16.5296,-3.63643 16.5107,-5.08468 31.3835,-14.08702 43.695,-26.44825 l 1.7895,-1.79669 h 12.87 c 7.0785,0 12.87,0.0174 12.87,0.0387 0,0.0697 -2.1147,2.918 -3.261,4.39222 -3.7411,4.81105 -8.4566,10.00622 -12.7251,14.01932 l -1.4797,1.39113 0.8464,0.64267 c 5.8579,4.44793 11.6358,10.88797 16.5394,18.4346 4.2019,6.46681 7.2941,13.14514 8.7059,18.80241 0.96,3.8468 1.1375,6.94326 0.5347,9.32663 -0.3698,1.46232 -0.9141,2.42908 -1.8388,3.2659 -0.9456,0.85566 -2.1139,1.25144 -3.6943,1.25144 -1.4115,0 -2.7095,-0.27602 -4.3461,-0.92421 -7.8477,-3.10802 -17.8613,-13.15385 -24.9812,-25.0616 -2.6766,-4.47654 -4.8346,-9.06376 -6.1821,-13.14107 l -0.3177,-0.9614 -0.7386,0.49391 c -6.2712,4.19367 -13.4003,8.0216 -20.6516,11.08873 -10.9083,4.614 -23.3831,7.83753 -34.9397,9.02856 -0.2809,0.029 -0.5106,0.0782 -0.5106,0.10937 0,0.0312 0.1539,0.59746 0.3421,1.25833 3.4844,12.23818 3.1792,29.7692 -0.721,41.41213 -2.0531,6.12922 -4.8852,10.02183 -7.9754,10.96209 -0.501,0.15246 -1.6522,0.26298 -1.972,0.18932 z"
     id="path1354" />
  <path
     style="fill:#000000;stroke-width:0.0756501"
     d="M 0,181.48313 V 143.8472 h 9.8724 9.8723 v 13.39007 13.39007 H 31.7352 43.7258 V 157.23727 143.8472 h 9.8723 9.8724 v 37.63593 37.63593 h -9.8722 -9.8721 l -0.019,-14.35461 -0.019,-14.3546 H 31.7355 19.7827 l -0.019,14.3546 -0.019,14.35461 H 9.8726 5e-4 Z m 86.2411,0 V 143.8472 h 23.3759 23.37596 v 8.17021 8.17021 h -13.5036 -13.50356 v 6.12766 6.12766 h 11.95266 11.9528 v 8.32152 8.32151 h -11.9528 -11.95266 v 6.95981 6.95981 h 13.50356 13.5036 v 8.05674 8.05673 H 109.617 86.2411 Z m 68.46346,0 V 143.8472 h 9.9102 9.9101 v 27.72577 27.72576 h 13.5414 13.5414 v 9.91017 9.91016 h -23.4516 -23.4515 z m 68.6147,0 V 143.8472 l 4.4822,0.004 4.4823,0.004 14.8274,13.46708 c 8.1551,7.4069 15.071,13.68599 15.3687,13.95354 l 0.5412,0.48645 15.3282,-13.95776 15.3283,-13.95776 h 4.4615 4.4615 v 37.63593 37.63593 h -9.948 -9.948 v -19.29703 c 0,-10.6134 -0.028,-19.28574 -0.063,-19.27187 -0.034,0.0139 -4.4453,4.02522 -9.8016,8.91411 -5.3563,4.88889 -9.7655,8.89853 -9.7981,8.91031 -0.033,0.0118 -4.4986,-3.98585 -9.9242,-8.88363 l -9.8648,-8.90505 -0.019,19.26661 -0.019,19.2666 h -9.9479 -9.9478 z"
     id="path1356" />
</svg>
