<?xml version="1.0" encoding="UTF-8" standalone="no"?>
<svg
   xmlns:dc="http://purl.org/dc/elements/1.1/"
   xmlns:cc="http://creativecommons.org/ns#"
   xmlns:rdf="http://www.w3.org/1999/02/22-rdf-syntax-ns#"
   xmlns:svg="http://www.w3.org/2000/svg"
   xmlns="http://www.w3.org/2000/svg"
   xmlns:sodipodi="http://sodipodi.sourceforge.net/DTD/sodipodi-0.dtd"
   xmlns:inkscape="http://www.inkscape.org/namespaces/inkscape"
   viewBox="0 0 40 40"
   width="50px"
   height="50px"
   version="1.1"
   id="svg8"
   sodipodi:docname="high-priority-50.svg"
   inkscape:version="1.0.1 (1.0.1+r75)">
  <metadata
     id="metadata14">
    <rdf:RDF>
      <cc:Work
         rdf:about="">
        <dc:format>image/svg+xml</dc:format>
        <dc:type
           rdf:resource="http://purl.org/dc/dcmitype/StillImage" />
      </cc:Work>
    </rdf:RDF>
  </metadata>
  <defs
     id="defs12" />
  <sodipodi:namedview
     pagecolor="#ffffff"
     bordercolor="#666666"
     borderopacity="1"
     objecttolerance="10"
     gridtolerance="10"
     guidetolerance="10"
     inkscape:pageopacity="0"
     inkscape:pageshadow="2"
     inkscape:window-width="1920"
     inkscape:window-height="1025"
     id="namedview10"
     showgrid="false"
     inkscape:zoom="17.56"
     inkscape:cx="25"
     inkscape:cy="25"
     inkscape:window-x="0"
     inkscape:window-y="27"
     inkscape:window-maximized="1"
     inkscape:current-layer="svg8" />
  <path
     style="color:#000000;font-style:normal;font-variant:normal;font-weight:normal;font-stretch:normal;font-size:medium;line-height:normal;font-family:sans-serif;font-variant-ligatures:normal;font-variant-position:normal;font-variant-caps:normal;font-variant-numeric:normal;font-variant-alternates:normal;font-variant-east-asian:normal;font-feature-settings:normal;font-variation-settings:normal;text-indent:0;text-align:start;text-decoration:none;text-decoration-line:none;text-decoration-style:solid;text-decoration-color:#000000;letter-spacing:normal;word-spacing:normal;text-transform:none;writing-mode:lr-tb;direction:ltr;text-orientation:mixed;dominant-baseline:auto;baseline-shift:baseline;text-anchor:start;white-space:normal;shape-padding:0;shape-margin:0;inline-size:0;clip-rule:nonzero;display:inline;overflow:visible;visibility:visible;isolation:auto;mix-blend-mode:normal;color-interpolation:sRGB;color-interpolation-filters:linearRGB;solid-color:#000000;solid-opacity:1;vector-effect:none;fill:#98ccfd;fill-opacity:1;fill-rule:nonzero;stroke:none;stroke-width:1;stroke-linecap:butt;stroke-linejoin:miter;stroke-miterlimit:4;stroke-dasharray:none;stroke-dashoffset:0;stroke-opacity:1;color-rendering:auto;image-rendering:auto;shape-rendering:auto;text-rendering:auto;enable-background:accumulate;stop-color:#000000"
     d="m 20,38.5 c -0.593,0 -1.149,-0.23 -1.568,-0.649 L 2.149,21.568 c -0.864,-0.865 -0.864,-2.271 0,-3.137 L 18.432,2.149 C 18.851,1.73 19.407,1.5 20,1.5 c 0.593,0 1.149,0.23 1.568,0.649 L 37.85,18.431 c 0.42,0.42 0.65,0.976 0.65,1.569 0,0.593 -0.23,1.149 -0.649,1.568 L 21.568,37.851 C 21.149,38.27 20.593,38.5 20,38.5 Z"
     id="path889" />
  <path
     style="color:#000000;font-style:normal;font-variant:normal;font-weight:normal;font-stretch:normal;font-size:medium;line-height:normal;font-family:sans-serif;font-variant-ligatures:normal;font-variant-position:normal;font-variant-caps:normal;font-variant-numeric:normal;font-variant-alternates:normal;font-variant-east-asian:normal;font-feature-settings:normal;font-variation-settings:normal;text-indent:0;text-align:start;text-decoration:none;text-decoration-line:none;text-decoration-style:solid;text-decoration-color:#000000;letter-spacing:normal;word-spacing:normal;text-transform:none;writing-mode:lr-tb;direction:ltr;text-orientation:mixed;dominant-baseline:auto;baseline-shift:baseline;text-anchor:start;white-space:normal;shape-padding:0;shape-margin:0;inline-size:0;clip-rule:nonzero;display:inline;overflow:visible;visibility:visible;isolation:auto;mix-blend-mode:normal;color-interpolation:sRGB;color-interpolation-filters:linearRGB;solid-color:#000000;solid-opacity:1;vector-effect:none;fill-opacity:1;fill-rule:nonzero;stroke:none;stroke-width:1;stroke-linecap:butt;stroke-linejoin:miter;stroke-miterlimit:4;stroke-dasharray:none;stroke-dashoffset:0;stroke-opacity:1;color-rendering:auto;image-rendering:auto;shape-rendering:auto;text-rendering:auto;enable-background:accumulate;stop-color:#000000"
     d="M 20,1 C 19.277714,1 18.588818,1.2842286 18.078125,1.7949219 L 1.7949219,18.078125 c -1.05511616,1.057559 -1.05544825,2.78708 0,3.84375 L 18.078125,38.205078 C 18.588818,38.715771 19.277714,39 20,39 c 0.722286,0 1.411182,-0.284229 1.921875,-0.794922 L 38.205078,21.921875 C 38.715771,21.411182 39,20.722286 39,20 39,19.277714 38.7146,18.5896 38.203125,18.078125 L 21.921875,1.7949219 C 21.411182,1.2842286 20.722286,1 20,1 Z m 0,1 c 0.463714,0 0.887537,0.1746464 1.214844,0.5019531 L 37.496094,18.785156 C 37.824619,19.113681 38,19.536286 38,20 c 0,0.463714 -0.174646,0.887537 -0.501953,1.214844 L 21.214844,37.498047 C 20.887537,37.825354 20.463714,38 20,38 19.536286,38 19.112463,37.825354 18.785156,37.498047 L 2.5019531,21.214844 c -0.6719002,-0.672678 -0.6709292,-1.75511 0,-2.429688 l 0.00195,-0.002 L 18.785156,2.5019531 C 19.112463,2.1746464 19.536286,2 20,2 Z"
     id="path891" />
  <g
     id="g901"
     style="opacity:1">
    <path
       style="color:#000000;font-style:normal;font-variant:normal;font-weight:normal;font-stretch:normal;font-size:medium;line-height:normal;font-family:sans-serif;font-variant-ligatures:normal;font-variant-position:normal;font-variant-caps:normal;font-variant-numeric:normal;font-variant-alternates:normal;font-variant-east-asian:normal;font-feature-settings:normal;font-variation-settings:normal;text-indent:0;text-align:start;text-decoration:none;text-decoration-line:none;text-decoration-style:solid;text-decoration-color:#000000;letter-spacing:normal;word-spacing:normal;text-transform:none;writing-mode:lr-tb;direction:ltr;text-orientation:mixed;dominant-baseline:auto;baseline-shift:baseline;text-anchor:start;white-space:normal;shape-padding:0;shape-margin:0;inline-size:0;clip-rule:nonzero;display:inline;overflow:visible;visibility:visible;isolation:auto;mix-blend-mode:normal;color-interpolation:sRGB;color-interpolation-filters:linearRGB;solid-color:#000000;solid-opacity:1;vector-effect:none;fill:#4788c7;fill-opacity:1;fill-rule:nonzero;stroke-width:1;stroke-linecap:butt;stroke-linejoin:miter;stroke-miterlimit:4;stroke-dasharray:none;stroke-dashoffset:0;stroke-opacity:1.0;color-rendering:auto;image-rendering:auto;shape-rendering:auto;text-rendering:auto;enable-background:accumulate;stop-color:#000000;stop-opacity:1;stroke:none;"
       d="m 20,2 c 0.459,0 0.89,0.179 1.215,0.503 l 16.282,16.282 c 0.67,0.67 0.67,1.76 0,2.43 L 21.215,37.497 C 20.89,37.821 20.459,38 20,38 19.541,38 19.11,37.821 18.785,37.497 L 2.503,21.215 c -0.67,-0.67 -0.67,-1.76 0,-2.43 L 18.785,2.503 C 19.11,2.179 19.541,2 20,2 M 20,1 C 19.304,1 18.609,1.265 18.078,1.796 L 1.796,18.078 c -1.062,1.062 -1.062,2.783 0,3.844 L 18.078,38.204 C 18.609,38.735 19.304,39 20,39 c 0.696,0 1.391,-0.265 1.922,-0.796 L 38.204,21.922 c 1.062,-1.062 1.062,-2.783 0,-3.844 L 21.922,1.796 C 21.391,1.265 20.696,1 20,1 Z"
       id="path903" />
    <path
       style="color:#000000;font-style:normal;font-variant:normal;font-weight:normal;font-stretch:normal;font-size:medium;line-height:normal;font-family:sans-serif;font-variant-ligatures:normal;font-variant-position:normal;font-variant-caps:normal;font-variant-numeric:normal;font-variant-alternates:normal;font-variant-east-asian:normal;font-feature-settings:normal;font-variation-settings:normal;text-indent:0;text-align:start;text-decoration:none;text-decoration-line:none;text-decoration-style:solid;text-decoration-color:#000000;letter-spacing:normal;word-spacing:normal;text-transform:none;writing-mode:lr-tb;direction:ltr;text-orientation:mixed;dominant-baseline:auto;baseline-shift:baseline;text-anchor:start;white-space:normal;shape-padding:0;shape-margin:0;inline-size:0;clip-rule:nonzero;display:inline;overflow:visible;visibility:visible;isolation:auto;mix-blend-mode:normal;color-interpolation:sRGB;color-interpolation-filters:linearRGB;solid-color:#000000;solid-opacity:1;vector-effect:none;fill-opacity:1;fill-rule:nonzero;stroke-width:1;stroke-linecap:butt;stroke-linejoin:miter;stroke-miterlimit:4;stroke-dasharray:none;stroke-dashoffset:0;stroke-opacity:1.0;color-rendering:auto;image-rendering:auto;shape-rendering:auto;text-rendering:auto;enable-background:accumulate;stop-color:#000000;stop-opacity:1;stroke:none;"
       d="M 20 0.5 C 19.177084 0.5 18.351044 0.81692437 17.724609 1.4433594 L 1.4433594 17.724609 C 0.1903784 18.97759 0.19010846 21.02332 1.4433594 22.275391 L 17.724609 38.556641 C 18.351044 39.183076 19.177084 39.5 20 39.5 C 20.822916 39.5 21.648956 39.183076 22.275391 38.556641 L 38.556641 22.275391 C 39.809622 21.02241 39.809892 18.97668 38.556641 17.724609 L 22.275391 1.4433594 C 21.648956 0.81692437 20.822916 0.5 20 0.5 z M 20 2.5 C 20.329007 2.5 20.627648 2.6244605 20.861328 2.8574219 L 37.142578 19.138672 C 37.62085 19.616944 37.62085 20.383056 37.142578 20.861328 L 20.861328 37.142578 C 20.627648 37.37554 20.329007 37.5 20 37.5 C 19.670993 37.5 19.372352 37.37554 19.138672 37.142578 L 2.8574219 20.861328 C 2.3791498 20.383056 2.3791498 19.616944 2.8574219 19.138672 L 19.138672 2.8574219 C 19.372352 2.6244605 19.670993 2.5 20 2.5 z M 2.1503906 18.431641 C 1.2886627 19.293369 1.2886627 20.706631 2.1503906 21.568359 L 2.1484375 21.568359 C 1.2776884 20.69843 1.2793716 19.30266 2.1503906 18.431641 z M 37.849609 18.431641 L 37.851562 18.431641 C 38.722312 19.30157 38.720628 20.69734 37.849609 21.568359 C 38.711337 20.706631 38.711337 19.293369 37.849609 18.431641 z "
       id="path905" />
  </g>
  <g
     id="g895"
     style="opacity:1">
    <path
       style="color:#000000;font-style:normal;font-variant:normal;font-weight:normal;font-stretch:normal;font-size:medium;line-height:normal;font-family:sans-serif;font-variant-ligatures:normal;font-variant-position:normal;font-variant-caps:normal;font-variant-numeric:normal;font-variant-alternates:normal;font-variant-east-asian:normal;font-feature-settings:normal;font-variation-settings:normal;text-indent:0;text-align:start;text-decoration:none;text-decoration-line:none;text-decoration-style:solid;text-decoration-color:#000000;letter-spacing:normal;word-spacing:normal;text-transform:none;writing-mode:lr-tb;direction:ltr;text-orientation:mixed;dominant-baseline:auto;baseline-shift:baseline;text-anchor:start;white-space:normal;shape-padding:0;shape-margin:0;inline-size:0;clip-rule:nonzero;display:inline;overflow:visible;visibility:visible;isolation:auto;mix-blend-mode:normal;color-interpolation:sRGB;color-interpolation-filters:linearRGB;solid-color:#000000;solid-opacity:1;vector-effect:none;fill:#ffffff;fill-opacity:1;fill-rule:nonzero;stroke-width:1;stroke-linecap:butt;stroke-linejoin:miter;stroke-miterlimit:4;stroke-dasharray:none;stroke-dashoffset:0;stroke-opacity:1.0;color-rendering:auto;image-rendering:auto;shape-rendering:auto;text-rendering:auto;enable-background:accumulate;stop-color:#000000;stop-opacity:1;stroke:none;"
       d="m 20,25.5 c -1.999999,0 -1.999999,3 0,3 1.999999,0 1.999999,-3 0,-3 z M 19,10 h 2 v 13 h -2 z"
       id="path897" />
    <path
       style="color:#000000;font-style:normal;font-variant:normal;font-weight:normal;font-stretch:normal;font-size:medium;line-height:normal;font-family:sans-serif;font-variant-ligatures:normal;font-variant-position:normal;font-variant-caps:normal;font-variant-numeric:normal;font-variant-alternates:normal;font-variant-east-asian:normal;font-feature-settings:normal;font-variation-settings:normal;text-indent:0;text-align:start;text-decoration:none;text-decoration-line:none;text-decoration-style:solid;text-decoration-color:#000000;letter-spacing:normal;word-spacing:normal;text-transform:none;writing-mode:lr-tb;direction:ltr;text-orientation:mixed;dominant-baseline:auto;baseline-shift:baseline;text-anchor:start;white-space:normal;shape-padding:0;shape-margin:0;inline-size:0;clip-rule:nonzero;display:inline;overflow:visible;visibility:visible;isolation:auto;mix-blend-mode:normal;color-interpolation:sRGB;color-interpolation-filters:linearRGB;solid-color:#000000;solid-opacity:1;vector-effect:none;fill-opacity:1;fill-rule:nonzero;stroke-width:1;stroke-linecap:butt;stroke-linejoin:miter;stroke-miterlimit:4;stroke-dasharray:none;stroke-dashoffset:0;stroke-opacity:1.0;color-rendering:auto;image-rendering:auto;shape-rendering:auto;text-rendering:auto;enable-background:accumulate;stop-color:#000000;stop-opacity:1;stroke:none;"
       d="M 18.5 9.5 L 18.5 10 L 18.5 23.5 L 21.5 23.5 L 21.5 9.5 L 18.5 9.5 z M 19.5 10.5 L 20.5 10.5 L 20.5 22.5 L 19.5 22.5 L 19.5 10.5 z M 20 25 C 19.375 25 18.843589 25.252378 18.501953 25.636719 C 18.160317 26.02106 18 26.513889 18 27 C 18 27.486111 18.160317 27.97894 18.501953 28.363281 C 18.843589 28.747622 19.375 29 20 29 C 20.625 29 21.156411 28.747622 21.498047 28.363281 C 21.839683 27.97894 22 27.486111 22 27 C 22 26.513889 21.839683 26.02106 21.498047 25.636719 C 21.156411 25.252378 20.625 25 20 25 z M 20 26 C 20.375 26 20.59359 26.122622 20.751953 26.300781 C 20.910317 26.47894 21 26.736111 21 27 C 21 27.263889 20.910317 27.52106 20.751953 27.699219 C 20.59359 27.877378 20.375 28 20 28 C 19.625 28 19.40641 27.877378 19.248047 27.699219 C 19.089683 27.52106 19 27.263889 19 27 C 19 26.736111 19.089683 26.47894 19.248047 26.300781 C 19.40641 26.122622 19.625 26 20 26 z "
       id="path899" />
  </g>
</svg>
