<?xml version="1.0" encoding="UTF-8" standalone="no"?>
<svg
   xmlns:dc="http://purl.org/dc/elements/1.1/"
   xmlns:cc="http://creativecommons.org/ns#"
   xmlns:rdf="http://www.w3.org/1999/02/22-rdf-syntax-ns#"
   xmlns:svg="http://www.w3.org/2000/svg"
   xmlns="http://www.w3.org/2000/svg"
   xmlns:sodipodi="http://sodipodi.sourceforge.net/DTD/sodipodi-0.dtd"
   xmlns:inkscape="http://www.inkscape.org/namespaces/inkscape"
   viewBox="0 0 38.016 38.016"
   width="47.52"
   height="47.52"
   version="1.1"
   id="svg12"
   sodipodi:docname="hub-50.svg"
   inkscape:export-filename="/code/flanksource/karina-ui/src/assets/svg/webfont-icon-source/hub-50.png"
   inkscape:export-xdpi="4800"
   inkscape:export-ydpi="4800"
   inkscape:version="1.0.1 (1.0.1+r75)">
  <metadata
     id="metadata18">
    <rdf:RDF>
      <cc:Work
         rdf:about="">
        <dc:format>image/svg+xml</dc:format>
        <dc:type
           rdf:resource="http://purl.org/dc/dcmitype/StillImage" />
      </cc:Work>
    </rdf:RDF>
  </metadata>
  <defs
     id="defs16" />
  <sodipodi:namedview
     pagecolor="#ffffff"
     bordercolor="#666666"
     borderopacity="1"
     objecttolerance="10"
     gridtolerance="10"
     guidetolerance="10"
     inkscape:pageopacity="0"
     inkscape:pageshadow="2"
     inkscape:window-width="1920"
     inkscape:window-height="1025"
     id="namedview14"
     showgrid="false"
     inkscape:zoom="4.39"
     inkscape:cx="32.369339"
     inkscape:cy="70.515413"
     inkscape:window-x="0"
     inkscape:window-y="27"
     inkscape:window-maximized="1"
     inkscape:current-layer="svg12" />
  <path
     style="fill:#8ec3f7;stroke:none;stroke-width:0.016"
     d="M 0,0 V 38.015999 H 38.015999 V 0 H 0 m 19.007999,9.952 v 5.088 c 0.9328,0.120448 1.804,0.66144 2.34736,1.424 0.15984,0.22432 0.32832,0.4848 0.40464,0.752 l 3.376001,-0.97152 1.056,-0.304 0.816,-0.22848 c 0,-0.47152 0.05504,-0.916224 0.26896,-1.344 0.15328,-0.306672 0.37984,-0.578544 0.64304,-0.796 0.2552,-0.210768 0.55984,-0.377888 0.879999,-0.465568 0.34896,-0.09552 0.71312,-0.127552 1.072,-0.07558 1.75376,0.253952 2.65936,2.240592 1.79408,3.753152 -0.67904,1.18704 -2.30336,1.57552 -3.458079,0.86304 -0.25792,-0.1592 -0.49776,-0.36416 -0.68032,-0.60704 -0.05824,-0.07744 -0.168,-0.3328 -0.26512,-0.35008 -0.09024,-0.01616 -0.23152,0.05568 -0.31856,0.08032 -0.26704,0.07568 -0.53312,0.15488 -0.8,0.23104 -0.97072,0.2768 -1.9472,0.5416 -2.912001,0.8384 -0.28608,0.08784 -0.57616,0.16496 -0.864,0.24704 -0.09408,0.02688 -0.27312,0.04352 -0.3424,0.11648 -0.0624,0.06608 -0.01472,0.21328 -0.0112,0.2928 0.0096,0.22016 -0.0288,0.4552 -0.0664,0.671999 -0.08816,0.50768 -0.3104,0.992 -0.61072,1.408 -0.10416,0.14416 -0.21968,0.2744 -0.34528,0.4 -0.04928,0.04928 -0.15168,0.11952 -0.16432,0.192 -0.01792,0.10288 0.1632,0.29984 0.21728,0.384 0.21872,0.34016 0.43024,0.68512 0.65104,1.024 0.69696,1.06928 1.37984,2.15024 2.057281,3.232 0.19776,0.316 0.39984,0.62928 0.59952,0.944 0.0672,0.10592 0.15328,0.32112 0.26048,0.38736 0.07008,0.04336 0.22416,-0.04384 0.29872,-0.06048 0.24224,-0.0544 0.50336,-0.09184 0.752,-0.06816 1.11664,0.10624 2.072,0.87344 2.2968,1.99728 0.06592,0.32928 0.06448,0.6624 0.003,0.992 -0.05328,0.2856 -0.16384,0.56944 -0.3168,0.816 -0.89408,1.44032 -2.96,1.58768 -4.05824,0.304 -0.560641,-0.65536 -0.740801,-1.63808 -0.439841,-2.448 0.0984,-0.26464 0.232,-0.51616 0.410401,-0.736 0.05344,-0.06576 0.20288,-0.17824 0.17088,-0.272 -0.05616,-0.16448 -0.20592,-0.33408 -0.300801,-0.48 -0.1928,-0.29696 -0.37888,-0.59824 -0.5704,-0.896 -0.65952,-1.02608 -1.31056,-2.05792 -1.96384,-3.088 -0.22016,-0.34704 -0.444,-0.69168 -0.66192,-1.04 -0.0936,-0.14928 -0.21888,-0.29888 -0.28128,-0.464 -0.57984,0.32992 -1.373759,0.36672 -2.015999,0.26768 -0.22336,-0.03456 -0.44496,-0.09456 -0.656,-0.17472 -0.06256,-0.02384 -0.17104,-0.09408 -0.23024,-0.0392 -0.11024,0.10208 -0.18624,0.28352 -0.26656,0.41024 -0.1896,0.29888 -0.37888,0.59824 -0.57024,0.896 -0.63232,0.98352 -1.263248,1.96896 -1.883744,2.96 -0.234736,0.37488 -0.471664,0.74944 -0.713216,1.12 -0.100528,0.15424 -0.294608,0.36528 -0.338,0.544 -0.01475,0.0608 0.0445,0.10496 0.08139,0.144 0.08822,0.09344 0.164096,0.19728 0.23528,0.304 0.2244,0.33664 0.364112,0.73312 0.402608,1.136 0.170256,1.7816 -1.61296,3.204 -3.30928,2.6128 -1.741936,-0.60704 -2.266224,-2.95808 -0.88,-4.21008 0.49456,-0.44672 1.170192,-0.7032 1.84,-0.65728 0.267792,0.0184 0.50952,0.09872 0.768,0.15856 0.05736,-0.18 0.206912,-0.35328 0.308928,-0.512 0.191424,-0.29776 0.380624,-0.59712 0.570224,-0.896 0.649984,-1.0248 1.303712,-2.0472 1.953696,-3.072 0.226848,-0.3576 0.453232,-0.71568 0.682192,-1.072 0.07152,-0.11104 0.24992,-0.29968 0.26288,-0.43184 0.0093,-0.09408 -0.248,-0.27968 -0.31024,-0.35216 -0.26432,-0.30816 -0.478352,-0.64672 -0.62928,-1.024 -0.141296,-0.35312 -0.219024,-0.72512 -0.244976,-1.103999 -0.0075,-0.10928 0.05648,-0.41952 -0.01251,-0.5008 -0.06067,-0.07152 -0.253072,-0.08896 -0.340912,-0.11392 -0.288288,-0.08224 -0.575968,-0.16624 -0.864,-0.24928 -0.975952,-0.28128 -1.95184,-0.56288 -2.928,-0.84336 -0.261168,-0.07504 -0.523712,-0.14608 -0.784,-0.22416 -0.08619,-0.02592 -0.243328,-0.10704 -0.33264,-0.0856 -0.100016,0.024 -0.219376,0.30368 -0.285152,0.38512 -0.2064,0.25536 -0.45512,0.46608 -0.742208,0.62624 -1.320192,0.73648 -3.047104,0.08816 -3.567152,-1.33024 -0.101776,-0.2776 -0.144848,-0.56976 -0.144848,-0.864 0,-0.341968 0.06387,-0.676416 0.198832,-0.992 0.611152,-1.429056 2.428576,-1.93368 3.705168,-1.077264 0.348672,0.233904 0.612544,0.553776 0.815952,0.917264 0.237056,0.4236 0.272048,0.886816 0.272048,1.36 l 0.544,0.14624 1.136,0.32704 3.584,1.03072 c 0.03838,-0.22288 0.196464,-0.45456 0.32,-0.64 0.35568,-0.53376 0.85536,-0.97472 1.44,-1.243056 0.21424,-0.09835 0.44144,-0.182528 0.672,-0.232304 0.07312,-0.01579 0.2424,-0.0175 0.28752,-0.08357 0.05472,-0.07997 0.01648,-0.282496 0.01648,-0.377072 v -0.976 -3.712 c -1.47872,-0.199136 -2.34112,-1.942304 -1.8552,-3.28 0.3904,-1.074048 1.41728,-1.71264 2.5432,-1.663376 1.247679,0.05461 2.202879,1.117936 2.317279,2.319376 0.0912,0.958048 -0.45952,1.917664 -1.29328,2.37288 -0.21024,0.114816 -0.46208,0.23136 -0.704,0.25112 z"
     id="path967" />
</svg>
