<?xml version="1.0" encoding="UTF-8" standalone="no"?>
<svg
   xmlns:dc="http://purl.org/dc/elements/1.1/"
   xmlns:cc="http://creativecommons.org/ns#"
   xmlns:rdf="http://www.w3.org/1999/02/22-rdf-syntax-ns#"
   xmlns:svg="http://www.w3.org/2000/svg"
   xmlns="http://www.w3.org/2000/svg"
   xmlns:sodipodi="http://sodipodi.sourceforge.net/DTD/sodipodi-0.dtd"
   xmlns:inkscape="http://www.inkscape.org/namespaces/inkscape"
   viewBox="0 0 40 40"
   width="50px"
   height="50px"
   version="1.1"
   id="svg12"
   sodipodi:docname="individual-server-50.svg"
   inkscape:version="1.0.1 (1.0.1+r75)">
  <metadata
     id="metadata18">
    <rdf:RDF>
      <cc:Work
         rdf:about="">
        <dc:format>image/svg+xml</dc:format>
        <dc:type
           rdf:resource="http://purl.org/dc/dcmitype/StillImage" />
      </cc:Work>
    </rdf:RDF>
  </metadata>
  <defs
     id="defs16" />
  <sodipodi:namedview
     pagecolor="#ffffff"
     bordercolor="#666666"
     borderopacity="1"
     objecttolerance="10"
     gridtolerance="10"
     guidetolerance="10"
     inkscape:pageopacity="0"
     inkscape:pageshadow="2"
     inkscape:window-width="1920"
     inkscape:window-height="1025"
     id="namedview14"
     showgrid="false"
     inkscape:zoom="17.56"
     inkscape:cx="25"
     inkscape:cy="25"
     inkscape:window-x="0"
     inkscape:window-y="27"
     inkscape:window-maximized="1"
     inkscape:current-layer="svg12" />
  <g
     id="g867"
     style="opacity:1">
    <path
       style="color:#000000;font-style:normal;font-variant:normal;font-weight:normal;font-stretch:normal;font-size:medium;line-height:normal;font-family:sans-serif;font-variant-ligatures:normal;font-variant-position:normal;font-variant-caps:normal;font-variant-numeric:normal;font-variant-alternates:normal;font-variant-east-asian:normal;font-feature-settings:normal;font-variation-settings:normal;text-indent:0;text-align:start;text-decoration:none;text-decoration-line:none;text-decoration-style:solid;text-decoration-color:#000000;letter-spacing:normal;word-spacing:normal;text-transform:none;writing-mode:lr-tb;direction:ltr;text-orientation:mixed;dominant-baseline:auto;baseline-shift:baseline;text-anchor:start;white-space:normal;shape-padding:0;shape-margin:0;inline-size:0;clip-rule:nonzero;display:inline;overflow:visible;visibility:visible;isolation:auto;mix-blend-mode:normal;color-interpolation:sRGB;color-interpolation-filters:linearRGB;solid-color:#000000;solid-opacity:1;vector-effect:none;fill:#8bb7f0;fill-opacity:1;fill-rule:nonzero;stroke-width:1;stroke-linecap:butt;stroke-linejoin:miter;stroke-miterlimit:4;stroke-dasharray:none;stroke-dashoffset:0;stroke-opacity:1.0;color-rendering:auto;image-rendering:auto;shape-rendering:auto;text-rendering:auto;enable-background:accumulate;stop-color:#000000;stop-opacity:1;stroke:none;"
       d="M 1.5,38.5 V 29 L 5.434,1.5 H 34.566 L 38.505,29.071 38.5,38.5 Z"
       id="path869" />
    <path
       style="color:#000000;font-style:normal;font-variant:normal;font-weight:normal;font-stretch:normal;font-size:medium;line-height:normal;font-family:sans-serif;font-variant-ligatures:normal;font-variant-position:normal;font-variant-caps:normal;font-variant-numeric:normal;font-variant-alternates:normal;font-variant-east-asian:normal;font-feature-settings:normal;font-variation-settings:normal;text-indent:0;text-align:start;text-decoration:none;text-decoration-line:none;text-decoration-style:solid;text-decoration-color:#000000;letter-spacing:normal;word-spacing:normal;text-transform:none;writing-mode:lr-tb;direction:ltr;text-orientation:mixed;dominant-baseline:auto;baseline-shift:baseline;text-anchor:start;white-space:normal;shape-padding:0;shape-margin:0;inline-size:0;clip-rule:nonzero;display:inline;overflow:visible;visibility:visible;isolation:auto;mix-blend-mode:normal;color-interpolation:sRGB;color-interpolation-filters:linearRGB;solid-color:#000000;solid-opacity:1;vector-effect:none;fill-opacity:1;fill-rule:nonzero;stroke-width:1;stroke-linecap:butt;stroke-linejoin:miter;stroke-miterlimit:4;stroke-dasharray:none;stroke-dashoffset:0;stroke-opacity:1.0;color-rendering:auto;image-rendering:auto;shape-rendering:auto;text-rendering:auto;enable-background:accumulate;stop-color:#000000;stop-opacity:1;stroke:none;"
       d="M 5 1 L 1 28.964844 L 1 39 L 1.5 39 L 39 39 L 39.005859 29.035156 L 35 1 L 5 1 z M 5.8671875 2 L 34.132812 2 L 38.005859 29.105469 L 38 38 L 2 38 L 2 29.035156 L 5.8671875 2 z "
       id="path871" />
  </g>
  <g
     id="g861"
     style="opacity:1">
    <path
       style="color:#000000;font-style:normal;font-variant:normal;font-weight:normal;font-stretch:normal;font-size:medium;line-height:normal;font-family:sans-serif;font-variant-ligatures:normal;font-variant-position:normal;font-variant-caps:normal;font-variant-numeric:normal;font-variant-alternates:normal;font-variant-east-asian:normal;font-feature-settings:normal;font-variation-settings:normal;text-indent:0;text-align:start;text-decoration:none;text-decoration-line:none;text-decoration-style:solid;text-decoration-color:#000000;letter-spacing:normal;word-spacing:normal;text-transform:none;writing-mode:lr-tb;direction:ltr;text-orientation:mixed;dominant-baseline:auto;baseline-shift:baseline;text-anchor:start;white-space:normal;shape-padding:0;shape-margin:0;inline-size:0;clip-rule:nonzero;display:inline;overflow:visible;visibility:visible;isolation:auto;mix-blend-mode:normal;color-interpolation:sRGB;color-interpolation-filters:linearRGB;solid-color:#000000;solid-opacity:1;vector-effect:none;fill:#4e7ab5;fill-opacity:1;fill-rule:nonzero;stroke-width:1;stroke-linecap:butt;stroke-linejoin:miter;stroke-miterlimit:4;stroke-dasharray:none;stroke-dashoffset:0;stroke-opacity:1.0;color-rendering:auto;image-rendering:auto;shape-rendering:auto;text-rendering:auto;enable-background:accumulate;stop-color:#000000;stop-opacity:1;stroke:none;"
       d="M 34.133,2 38,29.071 V 38 H 2 V 29.071 L 5.867,2 H 34.133 M 35,1 H 5 L 1,29 V 39 H 39 V 29 Z"
       id="path863" />
    <path
       style="color:#000000;font-style:normal;font-variant:normal;font-weight:normal;font-stretch:normal;font-size:medium;line-height:normal;font-family:sans-serif;font-variant-ligatures:normal;font-variant-position:normal;font-variant-caps:normal;font-variant-numeric:normal;font-variant-alternates:normal;font-variant-east-asian:normal;font-feature-settings:normal;font-variation-settings:normal;text-indent:0;text-align:start;text-decoration:none;text-decoration-line:none;text-decoration-style:solid;text-decoration-color:#000000;letter-spacing:normal;word-spacing:normal;text-transform:none;writing-mode:lr-tb;direction:ltr;text-orientation:mixed;dominant-baseline:auto;baseline-shift:baseline;text-anchor:start;white-space:normal;shape-padding:0;shape-margin:0;inline-size:0;clip-rule:nonzero;display:inline;overflow:visible;visibility:visible;isolation:auto;mix-blend-mode:normal;color-interpolation:sRGB;color-interpolation-filters:linearRGB;solid-color:#000000;solid-opacity:1;vector-effect:none;fill-opacity:1;fill-rule:nonzero;stroke-width:1;stroke-linecap:butt;stroke-linejoin:miter;stroke-miterlimit:4;stroke-dasharray:none;stroke-dashoffset:0;stroke-opacity:1.0;color-rendering:auto;image-rendering:auto;shape-rendering:auto;text-rendering:auto;enable-background:accumulate;stop-color:#000000;stop-opacity:1;stroke:none;"
       d="M 4.5664062 0.5 L 0.5 28.964844 L 0.5 39.5 L 39.5 39.5 L 39.5 28.964844 L 35.433594 0.5 L 35 0.5 L 4.5664062 0.5 z M 34.132812 1.5 L 34.566406 1.5 L 34.628906 1.9296875 L 34.132812 2 L 34.132812 1.5 z M 6.3007812 2.5 L 33.699219 2.5 L 37.5 29.107422 L 37.5 37.5 L 2.5 37.5 L 2.5 29.107422 L 6.3007812 2.5 z "
       id="path865" />
  </g>
  <g
     id="g855"
     style="opacity:1">
    <path
       style="color:#000000;font-style:normal;font-variant:normal;font-weight:normal;font-stretch:normal;font-size:medium;line-height:normal;font-family:sans-serif;font-variant-ligatures:normal;font-variant-position:normal;font-variant-caps:normal;font-variant-numeric:normal;font-variant-alternates:normal;font-variant-east-asian:normal;font-feature-settings:normal;font-variation-settings:normal;text-indent:0;text-align:start;text-decoration:none;text-decoration-line:none;text-decoration-style:solid;text-decoration-color:#000000;letter-spacing:normal;word-spacing:normal;text-transform:none;writing-mode:lr-tb;direction:ltr;text-orientation:mixed;dominant-baseline:auto;baseline-shift:baseline;text-anchor:start;white-space:normal;shape-padding:0;shape-margin:0;inline-size:0;clip-rule:nonzero;display:inline;overflow:visible;visibility:visible;isolation:auto;mix-blend-mode:normal;color-interpolation:sRGB;color-interpolation-filters:linearRGB;solid-color:#000000;solid-opacity:1;vector-effect:none;fill:#c2e8ff;fill-opacity:1;fill-rule:nonzero;stroke-width:1;stroke-linecap:butt;stroke-linejoin:miter;stroke-miterlimit:4;stroke-dasharray:none;stroke-dashoffset:0;stroke-opacity:1.0;color-rendering:auto;image-rendering:auto;shape-rendering:auto;text-rendering:auto;enable-background:accumulate;stop-color:#000000;stop-opacity:1;stroke:none;"
       d="M 37.951,29 H 2.01 L 5.803,2 h 28.27 z"
       id="path857" />
    <path
       style="color:#000000;font-style:normal;font-variant:normal;font-weight:normal;font-stretch:normal;font-size:medium;line-height:normal;font-family:sans-serif;font-variant-ligatures:normal;font-variant-position:normal;font-variant-caps:normal;font-variant-numeric:normal;font-variant-alternates:normal;font-variant-east-asian:normal;font-feature-settings:normal;font-variation-settings:normal;text-indent:0;text-align:start;text-decoration:none;text-decoration-line:none;text-decoration-style:solid;text-decoration-color:#000000;letter-spacing:normal;word-spacing:normal;text-transform:none;writing-mode:lr-tb;direction:ltr;text-orientation:mixed;dominant-baseline:auto;baseline-shift:baseline;text-anchor:start;white-space:normal;shape-padding:0;shape-margin:0;inline-size:0;clip-rule:nonzero;display:inline;overflow:visible;visibility:visible;isolation:auto;mix-blend-mode:normal;color-interpolation:sRGB;color-interpolation-filters:linearRGB;solid-color:#000000;solid-opacity:1;vector-effect:none;fill-opacity:1;fill-rule:nonzero;stroke-width:1;stroke-linecap:butt;stroke-linejoin:miter;stroke-miterlimit:4;stroke-dasharray:none;stroke-dashoffset:0;stroke-opacity:1.0;color-rendering:auto;image-rendering:auto;shape-rendering:auto;text-rendering:auto;enable-background:accumulate;stop-color:#000000;stop-opacity:1;stroke:none;"
       d="M 5.3691406 1.5 L 1.4355469 29.5 L 38.527344 29.5 L 38.445312 28.929688 L 34.505859 1.5 L 5.3691406 1.5 z M 6.2382812 2.5 L 33.640625 2.5 L 37.375 28.5 L 2.5859375 28.5 L 6.2382812 2.5 z "
       id="path859" />
  </g>
  <g
     id="g849"
     style="opacity:1">
    <path
       style="color:#000000;font-style:normal;font-variant:normal;font-weight:normal;font-stretch:normal;font-size:medium;line-height:normal;font-family:sans-serif;font-variant-ligatures:normal;font-variant-position:normal;font-variant-caps:normal;font-variant-numeric:normal;font-variant-alternates:normal;font-variant-east-asian:normal;font-feature-settings:normal;font-variation-settings:normal;text-indent:0;text-align:start;text-decoration:none;text-decoration-line:none;text-decoration-style:solid;text-decoration-color:#000000;letter-spacing:normal;word-spacing:normal;text-transform:none;writing-mode:lr-tb;direction:ltr;text-orientation:mixed;dominant-baseline:auto;baseline-shift:baseline;text-anchor:start;white-space:normal;shape-padding:0;shape-margin:0;inline-size:0;clip-rule:nonzero;display:inline;overflow:visible;visibility:visible;isolation:auto;mix-blend-mode:normal;color-interpolation:sRGB;color-interpolation-filters:linearRGB;solid-color:#000000;solid-opacity:1;vector-effect:none;fill:#ffffff;fill-opacity:1;fill-rule:nonzero;stroke-width:1;stroke-linecap:butt;stroke-linejoin:miter;stroke-miterlimit:4;stroke-dasharray:none;stroke-dashoffset:0;stroke-opacity:1.0;color-rendering:auto;image-rendering:auto;shape-rendering:auto;text-rendering:auto;enable-background:accumulate;stop-color:#000000;stop-opacity:1;stroke:none;"
       d="m 33.5,32 c -1.999999,0 -1.999999,3 0,3 1.999999,0 1.999999,-3 0,-3 z m -23,0 c -1.9999991,0 -1.9999991,3 0,3 1.999999,0 1.999999,-3 0,-3 z m 4,0 c -1.999999,0 -1.999999,3 0,3 1.999999,0 1.999999,-3 0,-3 z m -8,0 c -1.9999991,0 -1.9999991,3 0,3 1.9999991,0 1.9999991,-3 0,-3 z"
       id="path851" />
    <path
       style="color:#000000;font-style:normal;font-variant:normal;font-weight:normal;font-stretch:normal;font-size:medium;line-height:normal;font-family:sans-serif;font-variant-ligatures:normal;font-variant-position:normal;font-variant-caps:normal;font-variant-numeric:normal;font-variant-alternates:normal;font-variant-east-asian:normal;font-feature-settings:normal;font-variation-settings:normal;text-indent:0;text-align:start;text-decoration:none;text-decoration-line:none;text-decoration-style:solid;text-decoration-color:#000000;letter-spacing:normal;word-spacing:normal;text-transform:none;writing-mode:lr-tb;direction:ltr;text-orientation:mixed;dominant-baseline:auto;baseline-shift:baseline;text-anchor:start;white-space:normal;shape-padding:0;shape-margin:0;inline-size:0;clip-rule:nonzero;display:inline;overflow:visible;visibility:visible;isolation:auto;mix-blend-mode:normal;color-interpolation:sRGB;color-interpolation-filters:linearRGB;solid-color:#000000;solid-opacity:1;vector-effect:none;fill-opacity:1;fill-rule:nonzero;stroke-width:1;stroke-linecap:butt;stroke-linejoin:miter;stroke-miterlimit:4;stroke-dasharray:none;stroke-dashoffset:0;stroke-opacity:1.0;color-rendering:auto;image-rendering:auto;shape-rendering:auto;text-rendering:auto;enable-background:accumulate;stop-color:#000000;stop-opacity:1;stroke:none;"
       d="M 6.5 31.5 C 5.8750002 31.5 5.3435894 31.752378 5.0019531 32.136719 C 4.6603169 32.52106 4.5 33.013889 4.5 33.5 C 4.5 33.986111 4.6603169 34.47894 5.0019531 34.863281 C 5.3435894 35.247622 5.8750002 35.5 6.5 35.5 C 7.1249998 35.5 7.6564106 35.247622 7.9980469 34.863281 C 8.3396831 34.47894 8.5 33.986111 8.5 33.5 C 8.5 33.013889 8.3396831 32.52106 7.9980469 32.136719 C 7.6564106 31.752378 7.1249998 31.5 6.5 31.5 z M 8.5 33.5 C 8.5 33.986111 8.6603169 34.47894 9.0019531 34.863281 C 9.3435894 35.247622 9.8750002 35.5 10.5 35.5 C 11.125 35.5 11.656411 35.247622 11.998047 34.863281 C 12.339683 34.47894 12.5 33.986111 12.5 33.5 C 12.5 33.013889 12.339683 32.52106 11.998047 32.136719 C 11.656411 31.752378 11.125 31.5 10.5 31.5 C 9.8750002 31.5 9.3435894 31.752378 9.0019531 32.136719 C 8.6603169 32.52106 8.5 33.013889 8.5 33.5 z M 12.5 33.5 C 12.5 33.986111 12.660317 34.47894 13.001953 34.863281 C 13.343589 35.247622 13.875 35.5 14.5 35.5 C 15.125 35.5 15.656411 35.247622 15.998047 34.863281 C 16.339683 34.47894 16.5 33.986111 16.5 33.5 C 16.5 33.013889 16.339683 32.52106 15.998047 32.136719 C 15.656411 31.752378 15.125 31.5 14.5 31.5 C 13.875 31.5 13.343589 31.752378 13.001953 32.136719 C 12.660317 32.52106 12.5 33.013889 12.5 33.5 z M 33.5 31.5 C 32.875 31.5 32.343589 31.752378 32.001953 32.136719 C 31.660317 32.52106 31.5 33.013889 31.5 33.5 C 31.5 33.986111 31.660317 34.47894 32.001953 34.863281 C 32.343589 35.247622 32.875 35.5 33.5 35.5 C 34.125 35.5 34.656411 35.247622 34.998047 34.863281 C 35.339683 34.47894 35.5 33.986111 35.5 33.5 C 35.5 33.013889 35.339683 32.52106 34.998047 32.136719 C 34.656411 31.752378 34.125 31.5 33.5 31.5 z M 6.5 32.5 C 6.8749997 32.5 7.0935896 32.622622 7.2519531 32.800781 C 7.4103167 32.97894 7.5 33.236111 7.5 33.5 C 7.5 33.763889 7.4103167 34.02106 7.2519531 34.199219 C 7.0935896 34.377378 6.8749997 34.5 6.5 34.5 C 6.1250003 34.5 5.9064104 34.377378 5.7480469 34.199219 C 5.5896833 34.02106 5.5 33.763889 5.5 33.5 C 5.5 33.236111 5.5896833 32.97894 5.7480469 32.800781 C 5.9064104 32.622622 6.1250003 32.5 6.5 32.5 z M 10.5 32.5 C 10.875 32.5 11.09359 32.622622 11.251953 32.800781 C 11.410317 32.97894 11.5 33.236111 11.5 33.5 C 11.5 33.763889 11.410317 34.02106 11.251953 34.199219 C 11.09359 34.377378 10.875 34.5 10.5 34.5 C 10.125 34.5 9.9064104 34.377378 9.7480469 34.199219 C 9.5896833 34.02106 9.5 33.763889 9.5 33.5 C 9.5 33.236111 9.5896833 32.97894 9.7480469 32.800781 C 9.9064104 32.622622 10.125 32.5 10.5 32.5 z M 14.5 32.5 C 14.875 32.5 15.09359 32.622622 15.251953 32.800781 C 15.410317 32.97894 15.5 33.236111 15.5 33.5 C 15.5 33.763889 15.410317 34.02106 15.251953 34.199219 C 15.09359 34.377378 14.875 34.5 14.5 34.5 C 14.125 34.5 13.90641 34.377378 13.748047 34.199219 C 13.589683 34.02106 13.5 33.763889 13.5 33.5 C 13.5 33.236111 13.589683 32.97894 13.748047 32.800781 C 13.90641 32.622622 14.125 32.5 14.5 32.5 z M 33.5 32.5 C 33.875 32.5 34.09359 32.622622 34.251953 32.800781 C 34.410317 32.97894 34.5 33.236111 34.5 33.5 C 34.5 33.763889 34.410317 34.02106 34.251953 34.199219 C 34.09359 34.377378 33.875 34.5 33.5 34.5 C 33.125 34.5 32.90641 34.377378 32.748047 34.199219 C 32.589683 34.02106 32.5 33.763889 32.5 33.5 C 32.5 33.236111 32.589683 32.97894 32.748047 32.800781 C 32.90641 32.622622 33.125 32.5 33.5 32.5 z "
       id="path853" />
  </g>
  <g
     id="g843"
     style="opacity:1">
    <path
       style="color:#000000;font-style:normal;font-variant:normal;font-weight:normal;font-stretch:normal;font-size:medium;line-height:normal;font-family:sans-serif;font-variant-ligatures:normal;font-variant-position:normal;font-variant-caps:normal;font-variant-numeric:normal;font-variant-alternates:normal;font-variant-east-asian:normal;font-feature-settings:normal;font-variation-settings:normal;text-indent:0;text-align:start;text-decoration:none;text-decoration-line:none;text-decoration-style:solid;text-decoration-color:#000000;letter-spacing:normal;word-spacing:normal;text-transform:none;writing-mode:lr-tb;direction:ltr;text-orientation:mixed;dominant-baseline:auto;baseline-shift:baseline;text-anchor:start;white-space:normal;shape-padding:0;shape-margin:0;inline-size:0;clip-rule:nonzero;display:inline;overflow:visible;visibility:visible;isolation:auto;mix-blend-mode:normal;color-interpolation:sRGB;color-interpolation-filters:linearRGB;solid-color:#000000;solid-opacity:1;vector-effect:none;fill:#4e7ab5;fill-opacity:1;fill-rule:nonzero;stroke-width:1;stroke-linecap:butt;stroke-linejoin:miter;stroke-miterlimit:4;stroke-dasharray:none;stroke-dashoffset:0;stroke-opacity:1.0;color-rendering:auto;image-rendering:auto;shape-rendering:auto;text-rendering:auto;enable-background:accumulate;stop-color:#000000;stop-opacity:1;stroke:none;"
       d="m 20,7 c -5.333331,0 -5.333331,8 0,8 5.333331,0 5.333331,-8 0,-8 z m 7,17 c 0,-3.866 -3.134,-7 -7,-7 -3.866,0 -7,3.134 -7,7 z"
       id="path845" />
    <path
       style="color:#000000;font-style:normal;font-variant:normal;font-weight:normal;font-stretch:normal;font-size:medium;line-height:normal;font-family:sans-serif;font-variant-ligatures:normal;font-variant-position:normal;font-variant-caps:normal;font-variant-numeric:normal;font-variant-alternates:normal;font-variant-east-asian:normal;font-feature-settings:normal;font-variation-settings:normal;text-indent:0;text-align:start;text-decoration:none;text-decoration-line:none;text-decoration-style:solid;text-decoration-color:#000000;letter-spacing:normal;word-spacing:normal;text-transform:none;writing-mode:lr-tb;direction:ltr;text-orientation:mixed;dominant-baseline:auto;baseline-shift:baseline;text-anchor:start;white-space:normal;shape-padding:0;shape-margin:0;inline-size:0;clip-rule:nonzero;display:inline;overflow:visible;visibility:visible;isolation:auto;mix-blend-mode:normal;color-interpolation:sRGB;color-interpolation-filters:linearRGB;solid-color:#000000;solid-opacity:1;vector-effect:none;fill-opacity:1;fill-rule:nonzero;stroke-width:1;stroke-linecap:butt;stroke-linejoin:miter;stroke-miterlimit:4;stroke-dasharray:none;stroke-dashoffset:0;stroke-opacity:1.0;color-rendering:auto;image-rendering:auto;shape-rendering:auto;text-rendering:auto;enable-background:accumulate;stop-color:#000000;stop-opacity:1;stroke:none;"
       d="M 20 6.5 C 18.541667 6.5 17.385256 7.0648778 16.626953 7.9179688 C 15.86865 8.7710597 15.5 9.8888889 15.5 11 C 15.5 12.111111 15.86865 13.22894 16.626953 14.082031 C 17.385256 14.935122 18.541667 15.5 20 15.5 C 21.458333 15.5 22.614744 14.935122 23.373047 14.082031 C 24.13135 13.22894 24.5 12.111111 24.5 11 C 24.5 9.8888889 24.13135 8.7710597 23.373047 7.9179688 C 22.614744 7.0648778 21.458333 6.5 20 6.5 z M 20 7.5 C 21.208333 7.5 22.051923 7.9351222 22.626953 8.5820312 C 23.201983 9.2289403 23.5 10.111111 23.5 11 C 23.5 11.888889 23.201983 12.77106 22.626953 13.417969 C 22.051923 14.064878 21.208333 14.5 20 14.5 C 18.791667 14.5 17.948077 14.064878 17.373047 13.417969 C 16.798017 12.77106 16.5 11.888889 16.5 11 C 16.5 10.111111 16.798017 9.2289403 17.373047 8.5820312 C 17.948077 7.9351222 18.791667 7.5 20 7.5 z M 20 16.5 C 15.863781 16.5 12.5 19.863781 12.5 24 L 12.5 24.5 L 27.5 24.5 L 27.5 24 C 27.5 19.863781 24.136219 16.5 20 16.5 z M 20 17.5 C 23.418284 17.5 26.130996 20.151746 26.398438 23.5 L 13.601562 23.5 C 13.869004 20.151746 16.581716 17.5 20 17.5 z "
       id="path847" />
  </g>
</svg>
