<svg xmlns="http://www.w3.org/2000/svg" viewBox="0 0 40 40" width="50px" height="50px"><path fill="#4788c7" d="M21 12V2c0-.552-.448-1-1-1h0c-.552 0-1 .448-1 1v10h-5l6 6 6-6H21zM32.196 23.513l2.773-9.608c.153-.531-.153-1.085-.684-1.238l0 0c-.531-.153-1.085.153-1.238.684l-2.773 9.608-4.804-1.386L29.572 29 37 24.899 32.196 23.513zM7.804 23.513l-2.773-9.608c-.153-.531.153-1.085.684-1.238h0c.531-.153 1.085.153 1.238.684l2.773 9.608 4.804-1.386L10.428 29 3 24.899 7.804 23.513z"/><path fill="#dff0fe" d="M1.5 38.5L1.5 29.5 5.5 29.5 5.5 34.5 34.5 34.5 34.5 29.5 38.5 29.5 38.5 38.5z"/><path fill="#4788c7" d="M38,30v5v3H2v-3v-5h3v4v1h1h28h1v-1v-4H38 M39,29h-5v5H6v-5H1v6v3v1h38v-1v-3V29L39,29z"/></svg>