<?xml version="1.0" encoding="UTF-8" standalone="no"?>
<svg
   xmlns:dc="http://purl.org/dc/elements/1.1/"
   xmlns:cc="http://creativecommons.org/ns#"
   xmlns:rdf="http://www.w3.org/1999/02/22-rdf-syntax-ns#"
   xmlns:svg="http://www.w3.org/2000/svg"
   xmlns="http://www.w3.org/2000/svg"
   xmlns:sodipodi="http://sodipodi.sourceforge.net/DTD/sodipodi-0.dtd"
   xmlns:inkscape="http://www.inkscape.org/namespaces/inkscape"
   viewBox="0 0 28 36"
   width="35"
   height="45"
   version="1.1"
   id="svg10"
   sodipodi:docname="json-50.svg"
   inkscape:version="1.0.2 (1.0.2+r75+1)">
  <metadata
     id="metadata16">
    <rdf:RDF>
      <cc:Work
         rdf:about="">
        <dc:format>image/svg+xml</dc:format>
        <dc:type
           rdf:resource="http://purl.org/dc/dcmitype/StillImage" />
        <dc:title></dc:title>
      </cc:Work>
    </rdf:RDF>
  </metadata>
  <defs
     id="defs14" />
  <sodipodi:namedview
     pagecolor="#ffffff"
     bordercolor="#666666"
     borderopacity="1"
     objecttolerance="10"
     gridtolerance="10"
     guidetolerance="10"
     inkscape:pageopacity="0"
     inkscape:pageshadow="2"
     inkscape:window-width="1660"
     inkscape:window-height="1020"
     id="namedview12"
     showgrid="false"
     inkscape:zoom="6.2083975"
     inkscape:cx="5.4195871"
     inkscape:cy="30.392536"
     inkscape:window-x="0"
     inkscape:window-y="27"
     inkscape:window-maximized="0"
     inkscape:current-layer="svg10"
     fit-margin-top="0"
     fit-margin-left="0"
     fit-margin-right="0"
     fit-margin-bottom="0" />
  <path
     style="fill:#000000;stroke-width:0.016"
     d="M 0,18 V 0 h 9.500011 9.50001 L 23.500011,4.500011 28,9.000021 V 22.500011 36 H 14 0 Z m 26.992,4.496 V 10 H 22.496 18 V 5.504 1.008 H 9.504 1.008 V 18 34.992 H 14 26.992 Z M 3.843871,24.391416 C 3.620113,24.359636 3.463237,24.306696 3.466283,24.264 c 0.0013,-0.0176 0.02991,-0.31517 0.06368,-0.661264 l 0.0614,-0.629264 0.04832,0.01021 c 0.210211,0.04443 0.558555,0.05542 0.715532,0.02258 0.118091,-0.02471 0.256913,-0.1018 0.334098,-0.185536 0.08649,-0.09383 0.168445,-0.27044 0.211032,-0.454771 l 0.03465,-0.149954 0.0049,-2.996 0.0049,-2.996 h 0.79215 0.792149 l -0.0053,3.02 c -0.0058,3.28671 -0.0011,3.108373 -0.09389,3.539266 -0.124436,0.577704 -0.377853,1.012963 -0.741808,1.274099 -0.19996,0.14347 -0.492005,0.257158 -0.802308,0.312323 -0.250874,0.0446 -0.800154,0.05606 -1.041821,0.02173 z m 11.110818,6.08e-4 C 13.868688,24.214629 13.162337,23.3158 12.873724,21.744 c -0.135583,-0.738392 -0.160629,-1.687381 -0.06482,-2.456 0.09445,-0.757709 0.326117,-1.477419 0.635742,-1.975034 0.254046,-0.408289 0.632029,-0.772977 0.987352,-0.95262 0.444716,-0.224839 1.024125,-0.285042 1.545793,-0.160616 1.099775,0.262312 1.777847,1.417032 1.926233,3.28027 0.02128,0.267173 0.02135,1.08172 1.6e-4,1.392 -0.06031,0.881592 -0.220652,1.586349 -0.488588,2.147598 -0.360577,0.755306 -0.884137,1.195864 -1.602932,1.348818 -0.208685,0.04441 -0.655342,0.05669 -0.857933,0.0236 z m 0.630186,-1.402925 c 0.296299,-0.136417 0.505024,-0.592541 0.613695,-1.341094 0.12028,-0.828523 0.113083,-2.153567 -0.01577,-2.904 -0.147413,-0.858512 -0.47231,-1.295365 -0.910365,-1.224071 -0.429231,0.06986 -0.72274,0.678568 -0.833245,1.728071 -0.05499,0.522277 -0.05838,1.489872 -0.0071,2.024 0.09861,1.026776 0.356623,1.609875 0.772469,1.745745 0.101213,0.03307 0.274614,0.02001 0.380298,-0.02865 z M 8.96146,24.383803 C 8.733238,24.364783 8.49687,24.326283 8.274762,24.27197 8.016121,24.20871 7.712,24.094323 7.712,24.060293 c 0,-0.01569 0.203765,-1.24569 0.217152,-1.310815 l 0.0087,-0.04252 0.115054,0.05281 c 0.378584,0.173763 0.983949,0.283461 1.371426,0.248515 0.324518,-0.02927 0.531746,-0.11363 0.704842,-0.286938 0.178015,-0.178232 0.248283,-0.380499 0.233917,-0.673342 -0.0096,-0.196611 -0.04746,-0.330806 -0.134547,-0.477515 C 10.095068,21.34564 9.910757,21.184761 9.391959,20.840269 8.955265,20.550294 8.785646,20.41911 8.575356,20.208701 8.15906,19.792169 7.914203,19.344509 7.83122,18.848237 7.79505,18.631949 7.80661,18.24399 7.85625,18.008003 c 0.251752,-1.19683 1.228877,-1.890187 2.598078,-1.843566 0.406407,0.01384 0.77688,0.09167 1.046769,0.219918 0.105534,0.05015 0.131446,0.06911 0.124974,0.09146 -0.0045,0.0155 -0.05909,0.30539 -0.121328,0.64419 -0.06224,0.3388 -0.116817,0.63221 -0.121284,0.652022 -0.008,0.0357 -0.0093,0.03544 -0.137476,-0.02902 -0.291475,-0.14655 -0.632092,-0.218248 -0.958025,-0.201659 -0.208635,0.01062 -0.330615,0.039 -0.478414,0.111315 -0.407502,0.199378 -0.564087,0.695519 -0.354582,1.123492 0.11211,0.229017 0.357799,0.440416 0.929849,0.80007 0.390801,0.245701 0.542313,0.35923 0.757072,0.567283 0.202212,0.195898 0.343969,0.371291 0.4633,0.573232 0.403288,0.682479 0.429389,1.633155 0.06484,2.361453 -0.110588,0.22093 -0.22055,0.369949 -0.421226,0.57084 -0.391591,0.392011 -0.870017,0.620042 -1.488834,0.709616 -0.215732,0.03123 -0.585791,0.04288 -0.79854,0.02515 z M 19.216,20.272 v -4.048 h 0.719437 c 0.668905,0 0.72047,0.002 0.734155,0.028 0.02861,0.05444 1.409806,3.569533 1.551293,3.948 0.148821,0.398083 0.349653,0.956147 0.483667,1.344 0.0499,0.144422 0.07776,0.206947 0.07841,0.176 5.6e-4,-0.0264 -0.01684,-0.3432 -0.03865,-0.704 -0.08668,-1.433632 -0.09183,-1.60017 -0.09984,-3.228 l -0.0077,-1.564 h 0.689613 0.689611 v 4.048163 4.048163 l -0.722251,-0.0042 -0.722251,-0.0042 -0.614847,-1.528 c -0.338166,-0.8404 -0.668534,-1.667374 -0.73415,-1.83772 -0.235735,-0.61199 -0.513811,-1.434152 -0.655576,-1.93828 -0.05725,-0.203589 -0.07341,-0.226064 -0.06325,-0.088 0.06361,0.864725 0.103723,2.479026 0.104075,4.188 l 2.56e-4,1.212 h -0.696 -0.696 v -4.048 z M 26.56,8.987987 C 26.56,8.985787 24.8608,7.284786 22.784,5.208 L 19.008,1.432025 V 5.212013 8.992 h 3.776 c 2.0768,0 3.776,-0.0018 3.776,-0.004 z"
     id="path988" />
</svg>
