<?xml version="1.0" encoding="UTF-8" standalone="no"?>
<svg
   xmlns:dc="http://purl.org/dc/elements/1.1/"
   xmlns:cc="http://creativecommons.org/ns#"
   xmlns:rdf="http://www.w3.org/1999/02/22-rdf-syntax-ns#"
   xmlns:svg="http://www.w3.org/2000/svg"
   xmlns="http://www.w3.org/2000/svg"
   xmlns:sodipodi="http://sodipodi.sourceforge.net/DTD/sodipodi-0.dtd"
   xmlns:inkscape="http://www.inkscape.org/namespaces/inkscape"
   viewBox="0 0 79.977911 75.985516"
   width="49.986195"
   height="47.490948"
   version="1.1"
   id="svg12"
   sodipodi:docname="light-rain-50.svg"
   inkscape:version="1.0.2 (1.0.2+r75+1)">
  <metadata
     id="metadata18">
    <rdf:RDF>
      <cc:Work
         rdf:about="">
        <dc:format>image/svg+xml</dc:format>
        <dc:type
           rdf:resource="http://purl.org/dc/dcmitype/StillImage" />
        <dc:title></dc:title>
      </cc:Work>
    </rdf:RDF>
  </metadata>
  <defs
     id="defs16" />
  <sodipodi:namedview
     pagecolor="#ffffff"
     bordercolor="#666666"
     borderopacity="1"
     objecttolerance="10"
     gridtolerance="10"
     guidetolerance="10"
     inkscape:pageopacity="0"
     inkscape:pageshadow="2"
     inkscape:window-width="1920"
     inkscape:window-height="1025"
     id="namedview14"
     showgrid="false"
     inkscape:zoom="6.3356768"
     inkscape:cx="-37.922397"
     inkscape:cy="19.323045"
     inkscape:window-x="0"
     inkscape:window-y="27"
     inkscape:window-maximized="1"
     inkscape:current-layer="svg12" />
  <path
     style="fill:#000000;stroke-width:0.032"
     d="m 38.399604,75.978215 c -0.0528,-0.0079 -0.2112,-0.03647 -0.352,-0.06338 -2.66856,-0.509971 -4.4558,-3.076336 -3.99708,-5.739558 0.30145,-1.75017 1.56207,-3.869892 3.71161,-6.241044 0.8184,-0.902774 2.06272,-2.110336 3.11865,-3.026505 0.48369,-0.41968 1.09181,-0.915171 1.1059,-0.901085 0.0329,0.03293 0.67839,2.895821 0.9865,4.37559 0.53537,2.571162 0.86661,4.548029 0.98113,5.855498 0.0502,0.573565 0.0213,1.362442 -0.0648,1.765578 -0.32273,1.511075 -1.31194,2.793712 -2.67389,3.46703 -0.75752,0.374499 -1.26318,0.496083 -2.128,0.511661 -0.3256,0.0059 -0.6352,0.0042 -0.688,-0.0038 z m -23.04,-21.997571 c -3.55889,-0.128938 -6.8856301,-1.417741 -9.6960001,-3.756301 -0.48434,-0.403024 -1.50631,-1.423642 -1.90864,-1.906106 -2.11537,-2.536716 -3.32698997,-5.399753 -3.69701997,-8.736 -0.0771,-0.695558 -0.0773,-2.469417 -3.5e-4,-3.168 0.29201,-2.649475 1.12785997,-5.008555 2.53654997,-7.159077 2.08453,-3.182268 5.28014,-5.548792 8.9094601,-6.597932 l 0.528,-0.15263 -0.007,-0.22118 c -0.0331,-1.045816 -0.0167,-2.54576 0.0339,-3.085181 0.27365,-2.921043 1.07577,-5.631896 2.39018,-8.077945 4.068,-7.5702922 12.19903,-11.88677719 20.73497,-11.00748279 1.63054,0.1679629 3.36425,0.5644185 4.90538,1.12173529 6.53032,2.3615487 11.48098,7.8082751 13.22274,14.5476925 0.0931,0.360131 0.13407,0.471885 0.17294,0.471514 0.028,-2.56e-4 0.20934,-0.02945 0.40294,-0.06485 1.19067,-0.217725 2.5798,-0.245701 3.76,-0.07572 2.04127,0.293993 3.89362,1.060699 5.52,2.284791 0.92205,0.693977 1.71319,1.488023 2.41251,2.421372 1.10322,1.472415 1.86964,3.225019 2.19511,5.019661 l 0.0524,0.288763 0.52453,0.08833 c 2.47883,0.417433 4.80389,1.511995 6.75895,3.181895 0.44595,0.380906 1.26198,1.206845 1.63638,1.656248 2.16503,2.598791 3.31711,5.913626 3.22528,9.28 -0.0588,2.156554 -0.52811,4.04113 -1.47915,5.940029 -1.92011,3.833827 -5.50536,6.584019 -9.69398,7.436119 -0.77205,0.157059 -1.4533,0.236915 -2.31975,0.271916 -0.8824,0.03565 -50.13468,0.03405 -51.12025,-0.0017 z m 52.048,-1.063437 c 1.59378,-0.208464 2.88282,-0.580586 4.1874,-1.208819 0.60479,-0.291245 0.94107,-0.483437 1.5406,-0.88048 3.33323,-2.207459 5.44839,-5.760234 5.79024,-9.725671 0.0492,-0.570467 0.0414,-1.787011 -0.015,-2.34976 -0.26754,-2.667788 -1.31098,-5.115222 -3.06014,-7.177694 -0.40568,-0.478345 -1.2421,-1.288526 -1.74893,-1.694072 -1.23659,-0.98948 -2.59256,-1.725146 -4.08612,-2.216877 -0.7858,-0.258712 -1.54283,-0.424917 -2.55873,-0.561764 -0.2633,-0.03547 -0.48792,-0.07514 -0.49917,-0.08816 -0.0112,-0.01302 -0.0667,-0.308276 -0.12327,-0.656125 -0.21692,-1.334182 -0.57002,-2.417529 -1.14453,-3.511548 -0.98295,-1.871802 -2.44973,-3.380349 -4.32052,-4.443563 -0.93473,-0.531224 -2.12011,-0.966387 -3.22859,-1.185237 -0.78178,-0.154347 -1.06914,-0.177972 -2.15719,-0.17735 -1.18071,6.76e-4 -1.4086,0.0256 -2.63664,0.288428 -0.36776,0.07871 -0.67176,0.139192 -0.67557,0.134412 -0.004,-0.0048 -0.075,-0.30389 -0.15819,-0.66469 -0.28091,-1.218228 -0.58985,-2.240651 -0.96292,-3.186772 -2.00774,-5.0917375 -6.00675,-9.1272927 -11.05468,-11.1556959 -1.76848,-0.7106272 -3.55776,-1.1461768 -5.584,-1.3592682 -0.78504,-0.08256 -3.06639,-0.083162 -3.824,-0.00101 -1.80392,0.1956109 -3.24272,0.5154194 -4.784,1.063358 -5.73746,2.0397221 -10.28017,6.6386879 -12.24256,12.3941721 -0.47122,1.382033 -0.79776,2.866806 -0.95992,4.364682 -0.1005,0.928365 -0.11568,2.444467 -0.0352,3.512533 0.0338,0.4488 0.0525,0.825348 0.0416,0.836773 -0.011,0.01142 -0.20714,0.06668 -0.43594,0.122793 -1.53607,0.376709 -2.7986301,0.86107 -3.9987001,1.534036 -2.11478,1.185907 -3.88506,2.832042 -5.21621,4.850398 -1.29671,1.966156 -2.07347,4.115952 -2.37602,6.576 -0.0816,0.663428 -0.0814,2.62745 3.4e-4,3.296 0.29964,2.451056 1.10097,4.659044 2.39693,6.6045 0.59939,0.899798 1.11399,1.525964 1.91225,2.326867 1.18722,1.191136 2.38425,2.058957 3.87341,2.808134 1.8719701,0.94176 3.8563701,1.469661 5.9520001,1.583383 0.0968,0.0053 11.7824,0.0084 25.968,0.0071 24.45902,-0.0023 25.81433,-0.0054 26.224,-0.05899 z"
     id="path79" />
</svg>
