<?xml version="1.0" encoding="UTF-8" standalone="no"?>
<svg
   xmlns:dc="http://purl.org/dc/elements/1.1/"
   xmlns:cc="http://creativecommons.org/ns#"
   xmlns:rdf="http://www.w3.org/1999/02/22-rdf-syntax-ns#"
   xmlns:svg="http://www.w3.org/2000/svg"
   xmlns="http://www.w3.org/2000/svg"
   width="110.35062mm"
   height="130mm"
   viewBox="0 0 110.35063 129.99999"
   version="1.1"
   id="svg1756">
  <defs
     id="defs1750" />
  <metadata
     id="metadata1753">
    <rdf:RDF>
      <cc:Work
         rdf:about="">
        <dc:format>image/svg+xml</dc:format>
        <dc:type
           rdf:resource="http://purl.org/dc/dcmitype/StillImage" />
        <dc:title></dc:title>
      </cc:Work>
    </rdf:RDF>
  </metadata>
  <g
     style="fill:#808080;fill-opacity:1"
     transform="matrix(0.66148244,0,0,0.66148244,93.624663,27.34512)"
     id="g978">
    <path
       id="path992"
       d="m -20.180745,155.07118 c -0.218281,-0.0539 -1.652225,-0.19872 -3.186544,-0.32179 -2.111695,-0.16938 -3.158757,-0.39274 -4.308377,-0.91905 -1.90154,-0.87055 -4.26003,-2.73646 -5.469663,-4.32729 -2.008836,-2.6419 -1.392417,-2.38953 -7.276042,-2.97892 -9.55824,-0.95751 -13.232792,-1.1449 -19.925859,-1.01617 -7.42346,0.14278 -11.009884,0.63974 -15.015525,2.08065 -2.02473,0.72834 -2.634483,1.10129 -4.239417,2.59302 -2.275509,2.11499 -3.919577,3.04252 -6.614723,3.73183 -4.26819,1.09161 -7.365464,0.56731 -18.762815,-3.17617 -12.38701,-4.06853 -14.99563,-4.78036 -22.3366,-6.0951 -7.0242,-1.25802 -11.98171,-2.90773 -13.30963,-4.42907 -0.22115,-0.25336 -0.53622,-1.05597 -0.70016,-1.78357 -0.37402,-1.65995 0.1566,-4.99883 0.97766,-6.1519 1.26001,-1.76953 2.94295,-5.54048 3.10397,-6.95506 0.11318,-0.99432 -0.0974,-3.26093 -0.67498,-7.26596 -0.92996,-6.44822 -0.93127,-8.30051 -0.008,-10.7693 0.68342,-1.82662 2.51317,-3.93691 4.06481,-4.68805 1.01151,-0.48966 1.62107,-0.54994 5.56095,-0.54994 6.01993,0 6.08555,-0.0337 7.57615,-3.892779 0.6046,-1.565278 1.22498,-2.997422 1.37862,-3.182546 0.19734,-0.237786 0.18076,-0.688708 -0.0565,-1.536121 -0.97118,-3.468745 0.7022,-8.920496 5.14327,-16.756332 4.01048,-7.076102 5.96903,-11.886118 8.07398,-19.828971 0.59091,-2.229721 1.44081,-4.934239 1.88866,-6.010037 1.20975,-2.905961 3.90675,-6.757691 8.978255,-12.822381 8.495128,-10.158767 10.302455,-13.707475 10.308384,-20.240625 0.0013,-1.455208 -0.288301,-5.562865 -0.643599,-9.1281252 -0.973333,-9.7669298 -1.287134,-16.035052 -1.123339,-22.4385398 0.156988,-6.137363 0.420648,-7.911244 1.786591,-12.020025 0.971349,-2.921835 1.727288,-4.411049 3.303387,-6.507724 4.45013,-5.919982 8.352851,-8.145344 15.204581,-8.669773 4.048834,-0.309896 11.344974,-0.271123 14.948959,0.07944 8.0279,0.780887 15.034049,5.543961 19.777583,13.445631 2.520477,4.198551 4.576872,14.249623 5.493481,26.85057102 0.305001,4.19296858 0.333743,4.43078398 1.326996,10.98020898 0.965687,6.367653 1.431769,7.866245 3.889024,12.504327 2.843014,5.366216 9.276937,14.893989 13.1749009,19.510256 2.4674169,2.922106 6.2362241,8.517195 7.86284809,11.673012 1.57567051,3.056965 4.42729691,9.714043 5.31340771,12.404072 3.1912588,9.687918 3.7300192,21.128366 1.3986696,29.70039 -0.3762905,1.383559 -0.3751051,1.390706 0.2568628,1.549321 1.0413365,0.261358 2.1240724,1.772348 2.8526635,3.98098 0.6750894,2.04645 1.4897494,6.11707 1.4945894,7.46803 0.0079,2.192 3.226623,5.22487 8.163475,7.692 3.000153,1.49929 5.327793,3.41056 5.327793,4.37476 0,0.32217 0.135922,0.97568 0.302049,1.45223 0.230984,0.66259 0.220284,1.39207 -0.04547,3.10041 l -0.34752,2.23396 -1.682811,1.54199 c -1.043789,0.95644 -2.2573,1.77038 -3.195677,2.14343 -2.922447,1.16182 -9.474991,4.5612 -11.831614,6.1381 -3.1000093,2.07432 -4.8490031,3.46076 -10.424978,8.26399 -6.2851429,5.41411 -6.7638959,5.79798 -8.949833,7.17613 -1.793595,1.13079 -2.097461,1.22865 -4.894792,1.57642 -3.039817,0.37791 -3.214532,0.38757 -3.908523,0.21616 z m 3.519644,-2.65096 c 1.047374,-0.23601 2.217494,-0.58889 2.600269,-0.78417 2.175854,-1.11008 6.1680835,-4.14884 11.1371068,-8.47723 7.7641189,-6.76312 13.0931132,-10.17802 20.1497232,-12.91223 3.752559,-1.454 5.184233,-3.04972 5.189699,-5.78435 0.004,-2.02174 -2.137484,-4.18161 -5.934941,-5.98578 -2.364438,-1.12335 -5.026273,-3.34578 -6.161897,-5.14472 -1.0285624,-1.62935 -1.8950094,-4.21176 -2.5972321,-7.74095 -0.7025084,-3.53062 -1.3257372,-5.39411 -1.8034953,-5.39254 -0.6815535,0.002 -2.1145342,1.17076 -5.09459197,4.15441 -4.17340013,4.17843 -5.45577203,5.15299 -7.75209623,5.89136 -1.6011843,0.51485 -2.2638094,0.58696 -4.3301844,0.47123 -3.185173,-0.17839 -5.159097,-0.92183 -6.953483,-2.61889 -1.68566,-1.59422 -2.484983,-3.05801 -3.548917,-6.49905 -0.731618,-2.36625 -0.94343,-2.767927 -1.709111,-3.241145 -0.980633,-0.606062 -2.422784,-0.69882 -3.467105,-0.222996 -0.983136,0.447948 -1.882646,2.398901 -2.218129,4.810941 -0.167915,1.20726 -0.285676,6.70208 -0.285676,13.3298 0,10.68766 -0.08148,12.23798 -0.82505,15.69868 -0.143696,0.66878 -0.371917,2.8119 -0.507159,4.7625 -0.135244,1.9506 -0.48165,4.79389 -0.769792,6.31843 l -0.523896,2.77189 0.641598,1.09481 c 1.443919,2.46386 4.492679,4.68327 7.57027,5.51093 1.917562,0.5157 4.877006,0.51121 7.19409,-0.0109 z m -70.252532,-1.10515 c 2.675022,-1.02962 5.63382,-3.32761 6.539484,-5.07897 0.593299,-1.14731 0.590735,-5.849 -0.0046,-8.4354 -1.221089,-5.30496 -4.112032,-10.40017 -11.512407,-20.2903 -2.535942,-3.38912 -5.121527,-7.21873 -6.597548,-9.77188 -4.726336,-8.175408 -6.774036,-10.605283 -10.514766,-12.477215 -1.63168,-0.816523 -2.09689,-0.936109 -3.22134,-0.828064 -0.72283,0.06946 -1.9816,0.452789 -2.79726,0.851855 -1.19629,0.585293 -1.63358,0.989214 -2.26182,2.089219 -0.42835,0.750004 -0.84606,1.721752 -0.92826,2.159439 -0.5591,2.977306 -1.21804,3.979496 -3.03943,4.622686 -0.50933,0.17985 -3.18823,0.48214 -5.95313,0.67175 -2.76489,0.1896 -5.3555,0.4728 -5.75689,0.62932 -0.8137,0.31729 -2.181,2.2927 -2.57931,3.72645 -0.43727,1.57395 -0.2957,4.07423 0.43859,7.74646 1.29938,6.49827 0.95799,8.94897 -2.03663,14.61996 -1.92709,3.64939 -2.31648,5.03992 -1.7293,6.17541 0.90826,1.75639 4.31899,3.05082 10.86979,4.12528 7.6971,1.26247 12.56801,2.59285 23.54792,6.43157 9.947255,3.47769 11.131628,3.79054 13.890629,3.66919 1.412703,-0.0621 2.768542,-0.29892 3.646282,-0.63676 z m 31.146428,-18.94906 c 8.497864,-1.97712 15.797293,-6.5757 21.303433,-13.42098 l 2.168944,-2.69645 -0.198628,-2.80014 c -0.109247,-1.54008 -0.201362,-4.58608 -0.204698,-6.76889 -0.0055,-3.60957 0.05871,-4.16594 0.70966,-6.14754 0.588238,-1.790688 0.974056,-2.457817 2.165927,-3.745181 1.177581,-1.271929 1.690341,-1.623994 2.727682,-1.872848 1.10575,-0.265266 1.487411,-0.235328 2.839043,0.222684 1.003604,0.340079 1.653908,0.438057 1.820027,0.274209 0.383508,-0.378262 0.528661,-18.848288 0.173765,-22.110555 -0.456108,-4.192622 -1.696252,-9.351278 -3.002196,-12.488291 -0.453927,-1.09038 -1.855139,-3.539221 -3.11381,-5.441868 -4.522817,-6.836852 -5.968759,-10.212243 -6.511682,-15.200795 -0.156556,-1.438478 -0.563673,-2.414944 -2.761019,-6.622277 -1.417561,-2.714252 -3.125029,-6.272118 -3.794369,-7.906364 -1.354275,-3.306562 -2.212472,-5.083051 -2.455548,-5.083051 -0.08869,0 -1.425723,0.993894 -2.971183,2.208652 -8.035748,6.316236 -14.745645,8.986189 -20.992154,8.353044 -3.522745,-0.357063 -4.811927,-0.966777 -7.795483,-3.68685 l -2.58391,-2.355718 -0.505608,2.172208 c -0.374764,1.610062 -1.188133,3.507399 -3.142983,7.331581 -3.172045,6.205326 -4.718669,10.079673 -5.442802,13.634392 -0.491408,2.412302 -0.934292,3.449127 -4.859756,11.377084 -4.557414,9.204253 -5.896922,12.446381 -7.10401,17.194443 -1.032227,4.060245 -1.315517,6.427875 -1.315517,10.994477 0,3.709252 -0.0307,3.949605 -0.50465,3.949605 -0.59452,0 -2.67903,-2.233615 -3.29406,-3.529687 -0.23611,-0.497568 -0.62318,-1.661478 -0.86015,-2.586461 -1.00204,-3.911344 0.56969,-11.286554 4.23309,-19.863414 1.497185,-3.505251 2.759592,-5.809115 4.552118,-8.307526 1.370504,-1.910196 1.390258,-1.963428 0.838231,-2.258864 -0.488714,-0.261551 -0.649197,-0.199094 -1.183896,0.460756 -1.429364,1.763922 -6.821743,13.289664 -8.346373,17.839659 -1.20947,3.609443 -1.58872,6.133094 -1.47418,9.809504 0.10339,3.318303 0.11576,3.375107 1.21982,5.603208 0.90539,1.827141 1.50147,2.611543 3.16615,4.166407 2.90578,2.714093 5.734951,4.869908 10.697473,8.151417 3.532008,2.33557 5.004912,3.52021 8.092655,6.5088 4.191741,4.05713 6.196508,6.52773 6.827531,8.41401 0.386067,1.15404 0.384926,1.36368 -0.01394,2.56454 -0.704633,2.12145 -4.733203,5.54275 -6.55347,5.56559 -0.254661,0.003 -0.463021,0.0709 -0.463021,0.15057 0,0.47099 2.365653,4.34375 3.035248,4.96894 0.868328,0.81075 3.623593,2.28594 5.262139,2.8174 2.570406,0.8337 4.842756,1.04137 10.620322,0.97059 5.289495,-0.0648 6.110656,-0.13874 8.995834,-0.81002 z M 4.188881,95.224977 c -1.7644243,-3.458554 -5.3058962,-5.290775 -11.5761192,-5.989031 -1.8704402,-0.208293 -3.6091578,-0.459322 -3.8638188,-0.557842 -0.574114,-0.222108 -0.591537,-1.135947 -0.0553,-2.900638 1.3999499,-4.607055 2.1171057,-13.811338 1.4636748,-18.785417 -0.8448328,-6.431082 -4.6576858,-12.750012 -8.9912618,-14.900955 -1.855663,-0.921047 -2.66972,-1.056701 -2.66972,-0.444879 0,0.218281 0.158856,0.396875 0.353013,0.396875 0.46605,0 3.217354,1.916631 4.500523,3.135181 2.790116,2.649616 4.655926,6.705851 5.616726,12.210653 0.906663,5.194617 0.186695,12.254373 -1.902275,18.653125 -0.886434,2.715242 -1.191213,3.177657 -2.551928,3.871841 -1.471173,0.750539 -3.840223,3.202985 -4.785524,4.953987 -0.41461,0.767996 -0.708946,1.441247 -0.654079,1.496113 0.05487,0.05487 0.929875,-0.850265 1.944462,-2.011407 3.007731,-3.442185 5.050166,-4.474075 8.855594,-4.474075 2.6349754,0 4.5932996,0.356756 7.6734889,1.397915 2.25807596,0.763267 2.67488733,1.011444 4.1010418,2.441811 0.8731251,0.875702 1.8851563,2.159836 2.2489584,2.853626 0.6523223,1.244015 0.6625829,1.250625 0.7429157,0.478515 C 4.6840567,96.619768 4.4813885,95.798337 4.188881,95.224977 Z M -62.106648,27.834366 c 2.581092,-0.648528 7.601738,-3.320923 12.954027,-6.895177 2.764896,-1.846397 5.424469,-3.729379 5.910165,-4.184404 1.079873,-1.011685 1.895043,-2.53497 1.895043,-3.541207 0,-1.618255 -3.159122,-3.6415507 -8.863542,-5.6767654 -1.600729,-0.5711031 -4.220104,-1.5520538 -5.820833,-2.1798836 -3.989182,-1.5646215 -6.227898,-2.1050171 -8.775349,-2.1182436 -2.357689,-0.01225 -2.75586,0.137033 -2.104067,0.7888288 0.235606,0.2356061 0.428374,0.5210677 0.428374,0.6343597 0,0.3992033 -1.577856,2.3782708 -2.133008,2.6753767 -1.339778,0.7170288 -2.432746,-0.4228782 -1.857123,-1.9368823 l 0.272547,-0.7168568 -2.176103,1.0886625 c -2.472185,1.2367843 -5.332251,3.2619422 -6.524583,4.619935 -0.956207,1.089056 -1.869231,2.798995 -1.869231,3.500742 0,1.508434 2.893976,3.939376 7.089318,5.95503 l 2.303391,1.106667 3.175,-0.0088 c 2.181836,-0.0061 3.712964,-0.154738 4.894792,-0.475313 2.595578,-0.704062 7.813765,-3.358978 11.54166,-5.872184 1.829609,-1.233455 3.411114,-2.242645 3.514452,-2.242645 0.172183,0 1.083472,1.833084 1.083472,2.179439 0,0.299215 -5.89339,3.948285 -8.403437,5.20324 -8.385382,4.192464 -14.132452,4.5313 -20.700731,1.220473 -0.800365,-0.403434 -1.78263,-0.96448 -2.182813,-1.246767 -1.649055,-1.163243 -0.5706,0.293836 2.38125,3.217251 3.169362,3.138837 5.152864,4.485786 7.37334,5.007068 1.622751,0.380958 4.872041,0.330729 6.593989,-0.101928 z M -63.613382,6.5236145 c -1.673079,-1.7587727 -1.2642,-3.3500748 0.651071,-2.5338696 1.649741,0.7030455 2.664918,2.4071924 1.893523,3.1785904 -0.689375,0.6893719 -1.461633,0.4937073 -2.544594,-0.6447208 z m 19.749644,-2.2915827 c 0.346041,-2.1961687 0.437277,-3.95389107 0.352134,-6.7839988 -0.112038,-3.7240052 -0.137768,-3.8650572 -1.025885,-5.6235839 -0.813832,-1.6114422 -1.080235,-1.8963141 -2.498466,-2.6717021 -1.48014,-0.809236 -1.759182,-0.868145 -4.126134,-0.871087 -2.346312,-0.0029 -2.665895,0.06199 -4.218409,0.856742 -1.481786,0.758544 -1.773108,1.0412753 -2.471658,2.3987678 -0.722953,1.4049163 -0.788628,1.7503934 -0.754441,3.9687501 0.02059,1.3364342 0.229949,3.2161136 0.465235,4.17706707 0.418071,1.70749123 1.238729,3.41218583 1.642664,3.41218583 0.111281,0 0.204795,-1.2203907 0.207814,-2.71197926 0.0064,-3.17426184 0.345204,-4.34998554 1.680091,-5.83062564 2.302523,-2.553933 4.945504,-2.6749931 7.620196,-0.3490357 0.890498,0.7743904 1.235477,1.3555028 1.785938,3.0083866 1.35379,4.0650664 0.669803,7.4667164 -1.822583,9.064178 -0.667911,0.4280879 -0.713735,0.5162392 -0.273296,0.5257245 0.291042,0.00627 1.005417,0.2280602 1.5875,0.4928738 0.726342,0.3304434 1.109139,0.390517 1.22029,0.1915001 0.08908,-0.1594882 0.372131,-1.6238617 0.62901,-3.2541634 z m -34.214068,2.8069038 c 0.522599,-0.2796884 0.508846,-0.3225853 -0.402926,-1.2567709 -1.616716,-1.6564557 -2.361476,-4.95115592 -1.766761,-7.8158764 0.406305,-1.9571627 2.035638,-4.0452861 3.578204,-4.5857611 2.410965,-0.8447379 4.676415,0.9958626 5.645304,4.5866157 0.314822,1.16674633 0.584364,2.529967 0.598982,3.02938128 l 0.02658,0.90802352 0.261033,-1.05833332 c 0.143568,-0.58208334 0.194842,-2.24018478 0.113943,-3.68466698 -0.115562,-2.0633452 -0.288774,-2.9140997 -0.808032,-3.96875 -1.242677,-2.523961 -2.796493,-3.6584254 -5.037191,-3.6777324 -2.136852,-0.01841 -3.368948,0.781709 -4.327343,2.810153 -0.435798,0.9223666 -0.929367,2.1858447 -1.096825,2.8077293 -0.410424,1.5242091 -0.442738,6.5078664 -0.05103,7.8711479 0.28547,0.9935396 2.285961,4.324411 2.597204,4.324411 0.07029,0 0.371276,-0.1303073 0.668864,-0.2895706 z m 4.198286,-10.2709347 c -0.535805,-1.0502715 -1.494665,-1.6050684 -2.113272,-1.2227481 -0.460388,0.2845356 -0.316698,0.6707532 0.249545,0.6707532 0.674134,0 1.5875,0.9034568 1.5875,1.5702756 0,0.2815696 0.144338,0.8471165 0.320754,1.25677088 l 0.320754,0.74482855 0.09098,-0.97359263 c 0.0576,-0.6163865 -0.1098,-1.3671629 -0.456264,-2.0462875 z m 26.71983,1.3223928 c -0.145587,-1.1007487 -0.359812,-1.5793826 -0.924157,-2.064811 -0.739511,-0.6361007 -1.737204,-0.7260484 -1.919092,-0.1730163 -0.05391,0.1639093 0.330374,0.5507752 0.853964,0.8597 0.627149,0.3700278 1.135033,0.9755082 1.488461,1.7744917 0.295066,0.66704632 0.571103,1.17314926 0.613413,1.12467495 0.04231,-0.0484743 -0.0084,-0.73294085 -0.112589,-1.52103935 z"
       style="fill:#808080;stroke-width:0.26458335;fill-opacity:1" />
    <path
       id="path990"
       d="m -22.696001,154.83969 c -2.141059,-0.23185 -3.358748,-0.51577 -4.598885,-1.07231 -2.729222,-1.22481 -5.420111,-3.57771 -6.839381,-5.98035 -0.253516,-0.42917 -0.700263,-0.83466 -0.99277,-0.90109 -0.69963,-0.15891 -10.192708,-1.10084 -14.527028,-1.44142 -5.115587,-0.40197 -13.906741,-0.33439 -17.542818,0.13487 -6.58564,0.8499 -9.924711,2.03891 -12.548986,4.46859 -4.128144,3.82203 -8.499476,4.87362 -14.873527,3.57805 -1.478065,-0.30043 -6.259274,-1.71942 -10.624894,-3.15332 -12.37172,-4.06351 -14.99949,-4.78106 -22.29167,-6.08705 -7.07415,-1.26694 -11.65017,-2.8144 -13.08929,-4.42637 -1.29932,-1.45539 -1.08784,-4.90215 0.45913,-7.48287 1.58923,-2.65122 2.78639,-5.26036 3.07655,-6.70516 0.24412,-1.21557 0.16036,-2.31994 -0.56734,-7.48078 -0.6147,-4.35939 -0.81391,-6.59104 -0.71148,-7.97027 0.23312,-3.13885 1.6996,-5.714 4.13268,-7.25701 1.17842,-0.74734 1.19318,-0.74928 5.70382,-0.74928 4.16476,0 4.6154,-0.0471 5.69919,-0.59531 1.09627,-0.55455 1.2352,-0.74929 2.02903,-2.844269 0.4687,-1.236927 1.11337,-2.757577 1.4326,-3.379221 0.4837,-0.941933 0.52968,-1.241587 0.27599,-1.798386 -0.46503,-1.020617 -0.36331,-4.032478 0.21217,-6.282579 0.66475,-2.599172 1.617,-4.747602 4.12951,-9.316895 5.01536,-9.120998 6.48659,-12.705348 8.82759,-21.506591 1.84449,-6.934594 3.47267,-9.715188 10.873929,-18.570496 6.784512,-8.117395 8.999808,-11.70759 9.928839,-16.091072 0.535694,-2.527583 0.473991,-5.515957 -0.270407,-13.0963671 -1.207516,-12.2964948 -1.554615,-22.8168389 -0.922803,-27.9695029 0.68942,-5.622454 2.640648,-10.445546 5.804946,-14.3488 4.074742,-5.026316 7.448738,-6.721227 14.931978,-7.501006 6.523347,-0.679755 14.732617,-0.202626 18.398884,1.069356 8.796542,3.05189 14.880594,9.384876 17.428463,18.141558 1.614482,5.548763 2.549059,11.606438 3.22477,20.90208369 0.306023,4.20990981 0.336566,4.46160801 1.33245,10.98020831 1.109406,7.261665 1.477238,8.375455 4.762172,14.419792 2.271403,4.179427 9.013238,13.971532 12.2961195,17.859375 6.8365294,8.096343 12.923711,20.545005 14.9309488,30.534709 0.888873,4.42378 1.1400764,7.723698 0.9957409,13.080495 -0.1030606,3.824951 -0.2753969,5.684686 -0.7025694,7.581672 -0.9655837,4.28797 -0.9612868,4.061897 -0.08346,4.392359 1.0563675,0.397674 2.0087432,1.755251 2.6726225,3.809727 0.5771197,1.78598 1.3632757,5.89558 1.3632757,7.12646 0,0.38892 0.313175,1.3356 0.695945,2.10372 0.92475,1.85573 3.739986,4.07146 7.808677,6.1458 3.744114,1.90886 4.967576,3.08836 5.496491,5.29897 0.292047,1.22062 0.296982,1.82338 0.02708,3.30729 -0.313195,1.72193 -0.415301,1.89741 -1.99861,3.43479 -1.271431,1.23455 -2.161619,1.82496 -3.740214,2.48068 -3.547734,1.47366 -8.846333,4.22841 -11.3320749,5.89156 -3.1036976,2.07661 -4.8550964,3.46534 -10.4219803,8.26385 -8.9023058,7.67357 -10.1400748,8.47196 -13.9770938,9.01565 -1.423636,0.20173 -2.767021,0.35209 -2.985302,0.33414 -0.218281,-0.0179 -1.707335,-0.17454 -3.309006,-0.34798 z m 6.241306,-2.27427 c 1.992101,-0.46769 2.741272,-0.81595 5.084551,-2.36356 1.5115148,-0.99827 5.2969298,-4.03513 8.4120336,-6.74858 3.11510373,-2.71344 6.973512,-5.806 8.5742413,-6.87236 3.2676016,-2.17676 8.5573181,-4.96785 11.5239701,-6.08056 3.772667,-1.41502 4.935987,-2.54003 5.423842,-5.24525 0.441515,-2.44826 -1.573771,-4.82647 -5.855222,-6.90967 -5.216713,-2.53827 -7.3347102,-5.55893 -8.7191135,-12.43506 -0.778846,-3.86842 -1.0703058,-4.9289 -1.5258786,-5.55193 -0.31759,-0.434335 -0.4273947,-0.442402 -1.2592236,-0.0925 -0.5012108,0.21082 -2.5879108,2.03778 -4.6371141,4.05992 -4.2176596,4.16196 -5.1914877,4.91055 -7.4060979,5.69317 -1.320173,0.46654 -2.007288,0.53615 -4.3462043,0.44029 -2.323593,-0.0952 -3.048003,-0.23538 -4.42762,-0.8566 -3.193653,-1.43805 -5.016789,-4.16654 -6.41504,-9.6007 -0.530278,-2.06086 -3.056959,-3.075222 -5.068735,-2.034891 -1.066546,0.551532 -1.964983,2.568981 -2.327243,5.225851 -0.163084,1.19606 -0.282197,6.82916 -0.282197,13.34553 0,10.68765 -0.08148,12.23798 -0.82505,15.69867 -0.143695,0.66878 -0.372316,2.8119 -0.508047,4.7625 -0.135732,1.9506 -0.474771,4.73717 -0.753425,6.19238 l -0.506638,2.64583 0.641189,1.11581 c 0.969073,1.68638 3.151881,3.68527 5.038693,4.61415 3.294148,1.6217 6.264268,1.9132 10.164329,0.99758 z m -70.543698,-1.0109 c 2.846248,-1.00417 6.134736,-3.60479 6.912711,-5.46675 0.560107,-1.34052 0.484648,-5.8604 -0.14111,-8.45197 -1.340361,-5.55112 -3.97568,-10.20356 -11.399777,-20.1254 -2.535942,-3.38912 -5.121527,-7.21873 -6.597547,-9.77188 -4.620884,-7.992996 -7.009084,-10.864291 -10.466254,-12.583382 -2.13948,-1.063868 -3.20093,-1.203568 -4.92743,-0.648507 -2.97266,0.955691 -4.38174,2.607892 -4.96608,5.822919 -0.60713,3.34037 -1.51607,3.80332 -8.32813,4.2417 -5.7781,0.37184 -6.66249,0.62379 -7.70166,2.19408 -1.62721,2.45888 -1.79635,4.69199 -0.74989,9.90051 0.86552,4.30792 0.9526,7.84683 0.24581,9.98975 -0.26397,0.80037 -1.1696,2.7649 -2.0125,4.36563 -0.8429,1.60073 -1.72919,3.58835 -1.96953,4.41694 -0.39824,1.37295 -0.40026,1.57754 -0.0228,2.30751 0.98888,1.9123 4.51746,3.22875 12.05013,4.49573 7.57815,1.27463 12.22881,2.57361 24.20938,6.76196 8.41279,2.94107 9.915324,3.33308 12.303125,3.20993 1.091407,-0.0563 2.694091,-0.35274 3.561522,-0.65877 z m 30.966605,-18.92065 c 8.903049,-2.05612 16.110636,-6.57524 21.832788,-13.68907 l 2.147953,-2.67036 -0.143901,-2.41619 c -0.452414,-7.59639 -0.460412,-9.57012 -0.04675,-11.53807 0.557178,-2.650748 1.484386,-4.455185 3.034199,-5.904855 1.570977,-1.469464 2.952586,-1.790904 4.796182,-1.115862 2.043467,0.748226 2.02819,0.747609 2.236634,0.09048 0.10758,-0.339154 0.256921,-4.786848 0.33187,-9.88376 0.139991,-9.520351 -0.0326,-12.763378 -0.881314,-16.560416 -1.490253,-6.667175 -2.462488,-9.149096 -5.20246,-13.280814 -4.773631,-7.198357 -6.224397,-10.516939 -6.697771,-15.320944 -0.16573,-1.681898 -0.443265,-2.35661 -2.923424,-7.107113 -1.50717,-2.88684 -2.986789,-5.878846 -3.288038,-6.648906 -1.258102,-3.21596 -2.703923,-6.2949 -2.955989,-6.2949 -0.148563,0 -1.534586,0.993894 -3.080046,2.208651 -6.254134,4.915858 -11.759725,7.665017 -16.711457,8.344697 -4.286364,0.588351 -9.179685,-0.561012 -10.891478,-2.55824 -0.711089,-0.829657 -3.774626,-3.497192 -4.016362,-3.497192 -0.08938,0 -0.16251,0.288574 -0.16251,0.641274 0,1.664417 -0.839973,3.880509 -3.350774,8.840295 -3.153555,6.229477 -4.876056,10.569745 -5.529948,13.934057 -0.40659,2.091928 -0.926856,3.311165 -4.282022,10.034844 -5.124162,10.268712 -6.685883,14.169062 -8.165166,20.39224 -0.583078,2.452949 -0.707718,3.679711 -0.792928,7.8047 -0.0661,3.201419 -0.20051,4.927415 -0.38848,4.990071 -0.39596,0.131985 -1.69749,-1.16119 -2.62774,-2.610874 -1.73215,-2.699319 -1.97224,-6.527136 -0.76025,-12.12115 1.34594,-6.212266 4.945755,-14.539058 8.316639,-19.23737 l 1.39569,-1.945304 -0.689911,-0.452046 c -0.680488,-0.445873 -0.700202,-0.439762 -1.443366,0.447463 -1.473906,1.759619 -6.501222,12.438724 -8.254332,17.533978 -1.69687,4.931825 -2.2109,10.145403 -1.3327,13.517038 1.18558,4.551757 4.91886,8.261634 15.064444,14.969998 3.834969,2.53572 4.911395,3.41822 8.462262,6.93772 5.738138,5.68746 7.055739,7.91244 6.126501,10.34561 -0.694182,1.81769 -4.043002,4.75287 -5.865971,5.14142 -0.814377,0.17358 -1.021974,0.32954 -0.952542,0.7156 0.165317,0.9192 2.180793,4.22948 3.032929,4.98137 1.782159,1.5725 5.395582,2.95651 9.710582,3.71933 0.363802,0.0643 3.161771,0.0897 6.217708,0.0564 5.003536,-0.0545 5.872086,-0.13349 8.731251,-0.79379 z M 4.9546725,97.144008 c 0,-0.51512 -0.2388552,-1.404778 -0.5307912,-1.977017 -1.8058925,-3.539844 -5.5784832,-5.477391 -12.0548114,-6.191176 -2.0442291,-0.2253 -3.4938839,-0.511318 -3.7156599,-0.733094 -0.308491,-0.308491 -0.28298,-0.64349 0.16815,-2.208207 1.5489346,-5.372367 2.2629393,-13.756214 1.5992055,-18.777882 -0.8739455,-6.612088 -4.7955965,-13.255585 -9.0383945,-15.311549 -3.002132,-1.454764 -4.339738,-0.716227 -1.568045,0.86577 4.888849,2.79041 7.654626,7.247202 8.889016,14.323833 0.638897,3.662743 0.39353,10.188525 -0.531847,14.144863 -0.756375,3.233801 -1.923905,6.955954 -2.35059,7.493818 -0.152739,0.192537 -0.761924,0.596476 -1.353741,0.897641 -1.443186,0.734412 -4.073925,3.465814 -5.007981,5.199605 -1.00244,1.860719 -0.592034,2.319547 0.692447,0.77415 3.537363,-4.255913 5.201655,-5.276853 8.885018,-5.450406 1.3587836,-0.06402 3.3803671,0.03037 4.4924056,0.209759 2.4601594,0.396867 5.94257362,1.646864 7.14665537,2.565262 0.94938853,0.724136 3.13167723,3.533045 3.50847573,4.515901 0.3455273,0.901289 0.7704878,0.713065 0.7704878,-0.341271 z M -60.703462,27.600926 c 1.068599,-0.373184 3.040263,-1.25622 4.381479,-1.9623 2.920172,-1.53732 11.778528,-7.401883 13.220174,-8.75225 1.141698,-1.069412 2.004356,-2.699354 2.013169,-3.803762 0.01257,-1.575329 -3.106446,-3.5882657 -8.593148,-5.5458014 -1.600729,-0.5711031 -4.225467,-1.5579513 -5.83275,-2.1929937 -3.09366,-1.2223115 -6.229544,-2.1282766 -8.33227,-2.4072136 -1.829461,-0.2426864 -3.639224,0.2581169 -7.371228,2.0397841 -4.830567,2.3061242 -7.9697,4.7956841 -9.276252,7.3567366 -0.680541,1.333971 -0.676355,1.666166 0.0366,2.904951 1.148263,1.995149 6.697962,5.301612 9.873817,5.882733 4.935651,0.903131 11.370189,-1.23716 18.821366,-6.260463 1.827596,-1.232096 3.362111,-2.240174 3.410035,-2.240174 0.231428,0 0.890664,1.684917 0.748951,1.914213 -0.08921,0.144341 -1.307688,1.000448 -2.707733,1.90246 -6.996401,4.507598 -12.256072,6.489994 -17.240468,6.498016 -3.712533,0.006 -6.449213,-0.817878 -10.175901,-3.063354 -1.018646,-0.613773 -1.895431,-1.073925 -1.948411,-1.022562 -0.514244,0.498584 5.909914,6.970305 8.061511,8.121198 3.189086,1.705848 7.173135,1.936171 10.91106,0.630782 z M -70.13408,7.0110062 c -0.458724,-0.4587241 -0.39001,-1.3961931 0.14552,-1.9853276 0.688285,-0.7571819 2.371318,-1.2646898 2.857088,-0.8615362 0.561615,0.4660979 0.486632,0.7357268 -0.559697,2.0126351 -0.963629,1.1759804 -1.811589,1.465551 -2.442911,0.8342287 z m 6.918693,-0.2657793 c -0.303366,-0.3340391 -0.7643,-0.9419087 -1.024295,-1.3508196 -0.443011,-0.6967459 -0.444738,-0.7714536 -0.0275,-1.1886936 0.41724,-0.41724 0.505759,-0.4120859 1.408454,0.082013 1.324663,0.7250721 2.139545,1.8580074 1.7658,2.455 -0.438375,0.7002357 -1.487676,0.7014713 -2.122461,0.00238 z m 18.957558,1.2079843 c 0,-0.092975 0.249168,-1.6110215 0.553706,-3.3734375 0.739418,-4.27911693 0.619353,-9.8233814 -0.262294,-12.1121225 -0.794073,-2.0613926 -1.363375,-2.6995222 -3.248965,-3.6417652 -1.421966,-0.710565 -1.899221,-0.811964 -3.821657,-0.811964 -2.315951,0 -4.462479,0.591723 -5.712008,1.574602 -0.345885,0.272074 -0.964335,1.179764 -1.374333,2.0170909 -0.654553,1.3367676 -0.742771,1.8073634 -0.723456,3.8593051 0.03263,3.4660444 1.133718,7.3217327 2.234086,7.8230943 0.580639,0.2645569 0.580964,0.2629244 0.587648,-2.94063211 0.0076,-3.64569649 0.358785,-4.67498119 2.123786,-6.22467229 1.855687,-1.6293148 3.80545,-1.8233496 5.701578,-0.5674042 1.725997,1.1432513 2.222037,1.7985052 2.876757,3.800102 0.854138,2.61125494 0.709353,5.7416409 -0.335254,7.2485277 -0.406424,0.5862797 -1.14328,1.2837081 -1.637464,1.5498419 -1.01192,0.5449544 -0.981879,0.9047427 0.07692,0.9212369 0.391594,0.00609 1.128707,0.2392336 1.63803,0.5180753 0.98734,0.5405464 1.322917,0.6318964 1.322917,0.3601217 z m -33.581022,-0.853141 0.608854,-0.4930193 -0.949036,-0.8332655 c -2.300859,-2.0201838 -2.777533,-7.2841963 -0.905585,-10.0005755 1.237298,-1.7954387 2.072818,-2.335329 3.61409,-2.335329 1.170503,0 1.40367,0.1093523 2.474931,1.1607165 0.995598,0.9771037 1.269434,1.4822065 1.73106,3.1930182 0.301604,1.1177667 0.548373,2.61525286 0.548373,3.327752 0,1.2194487 0.02641,1.2690501 0.449972,0.845476 0.363135,-0.3631353 0.452493,-0.97404501 0.463021,-3.1655518 0.01804,-3.7558716 -0.236239,-4.9478063 -1.440199,-6.7507512 -1.291812,-1.9345037 -2.651898,-2.7504336 -4.614124,-2.7680656 -2.80683,-0.02521 -4.176975,1.3169794 -5.447687,5.3365851 -0.710332,2.2469687 -0.800058,6.4127434 -0.182845,8.4891273 0.416284,1.4004369 2.355847,4.4869021 2.819611,4.4869021 0.121391,0 0.494694,-0.2218584 0.829564,-0.4930193 z m 4.735627,-8.172085 c -0.01278,-2.1817833 -1.711463,-4.317963 -2.859008,-3.5953489 -0.806498,0.5078571 -0.685589,1.1042306 0.242503,1.1961469 0.947526,0.09384 1.12008,0.3271784 1.578547,2.1346186 0.392967,1.54920163 1.046456,1.71578066 1.037958,0.2645834 z m 26.336316,0.26458332 c -0.06303,-0.40018232 -0.183165,-1.16691042 -0.266967,-1.70384262 -0.100367,-0.6430698 -0.427112,-1.2074208 -0.957419,-1.6536459 -0.917522,-0.7720435 -1.606052,-0.8604858 -2.096674,-0.2693193 -0.381366,0.4595151 -0.17099,0.7779253 0.846928,1.2818586 0.339672,0.1681586 0.952564,0.9282748 1.361983,1.6891477 0.814305,1.51332406 1.291534,1.79473225 1.112149,0.65580152 z"
       style="fill:#808080;stroke-width:0.26458335;fill-opacity:1" />
    <path
       id="path988"
       d="m -22.429704,154.84287 c -5.044032,-0.64731 -8.549026,-2.64679 -11.021176,-6.28719 -0.580764,-0.85521 -1.315149,-1.65279 -1.631964,-1.77238 -0.577397,-0.21797 -9.175284,-1.13238 -15.128111,-1.60891 -4.865394,-0.38949 -12.896742,-0.31946 -16.456761,0.1435 -6.067475,0.78904 -11.136689,2.37732 -12.206698,3.82458 -0.810641,1.09645 -4.037219,3.31119 -5.829395,4.00133 -2.096487,0.80732 -6.479871,0.97839 -9.692564,0.37827 -1.309688,-0.24464 -5.953127,-1.61743 -10.318747,-3.05063 -12.38645,-4.06637 -15.82102,-5.00114 -23.29616,-6.34039 -6.8161,-1.22118 -11.5033,-2.86914 -12.74686,-4.48165 -1.17103,-1.51846 -0.91079,-4.44136 0.62031,-6.96702 1.55286,-2.56154 2.94283,-5.56313 3.24184,-7.00062 0.23988,-1.15322 0.16073,-2.24475 -0.49881,-6.87917 -0.86784,-6.09809 -0.97677,-8.9052 -0.41765,-10.76303 0.53585,-1.78049 1.8533,-3.69746 3.14199,-4.57177 1.10506,-0.74974 1.16264,-0.75831 6.01054,-0.89452 6.53535,-0.18363 6.70017,-0.26296 8.08447,-3.891009 0.54269,-1.422325 1.21464,-2.968209 1.49321,-3.435302 0.41579,-0.697159 0.45065,-0.953598 0.19469,-1.431875 -0.53542,-1.00044 -0.1584,-5.851535 0.6286,-8.088302 0.70493,-2.00348 2.39938,-5.490763 4.28212,-8.812858 3.99139,-7.04279 5.95368,-11.865107 8.05567,-19.79675 0.5909,-2.22972 1.44302,-4.939575 1.89359,-6.021895 1.23088,-2.956717 4.447551,-7.56175 9.502734,-13.604272 6.761427,-8.082016 8.665562,-11.231449 9.631207,-15.929992 0.56217,-2.735352 0.528674,-4.490323 -0.231254,-12.1158421 -0.990042,-9.93459373 -1.281425,-15.9414107 -1.125511,-23.2022999 0.152609,-7.106985 0.382989,-8.716274 1.81393,-12.670873 2.076826,-5.739582 6.732474,-10.994419 11.355065,-12.816474 4.902584,-1.932418 14.126888,-2.627153 21.282944,-1.602939 6.62395,0.948055 13.73663,5.005638 17.279319,9.85736 2.424504,3.320367 3.438361,5.327497 4.523796,8.955752 1.616803,5.404436 2.519056,11.215163 3.203546,20.631557 0.304901,4.1944846 0.333806,4.433578 1.327415,10.9802085 0.996892,6.5682525 1.727726,9.0014165 3.99003,13.2840095 2.782756,5.267812 8.991789,14.475378 12.8091997,18.995158 2.4723858,2.927281 6.7469837,9.276239 8.38481017,12.453758 1.72452513,3.345717 4.52790733,9.954781 5.46985843,12.895358 1.8638706,5.818621 2.518942,11.082552 2.3373716,18.782324 -0.1264814,5.363543 -0.3420798,7.095281 -1.3816727,11.097866 -0.1489948,0.573648 -0.085746,0.758303 0.3027442,0.883888 1.1589862,0.374655 1.645838,0.750099 2.1509858,1.658771 0.8383218,1.507993 1.5866748,4.250173 2.0328018,7.448763 0.224891,1.61241 0.636805,3.37315 0.915363,3.91275 0.991606,1.92088 3.884737,4.20845 7.939834,6.27794 1.662594,0.84849 3.46397,1.98379 4.003056,2.52287 1.89574,1.89574 2.290313,4.91531 0.995183,7.61591 -0.671161,1.39951 -2.926755,3.23721 -4.969333,4.04868 -2.669122,1.06037 -9.350352,4.49909 -11.3759013,5.85498 -2.7337042,1.82993 -4.6664167,3.37031 -10.0353843,7.99823 -5.8206245,5.01723 -7.3182642,6.20554 -9.6618004,7.6662 -3.041878,1.89592 -6.296875,2.45515 -10.872471,1.86795 z m 5.523498,-2.02593 c 1.327703,-0.30886 2.652128,-0.68245 2.943169,-0.83021 1.991514,-1.01105 5.732024,-3.87201 10.5471683,-8.06711 7.7410445,-6.74422 13.9703707,-10.7614 20.5914787,-13.27906 3.751184,-1.42638 4.715254,-2.28208 5.370767,-4.76701 0.525706,-1.99286 0.160309,-2.98742 -1.806998,-4.91844 -1.194668,-1.17262 -2.32341,-1.93878 -4.229897,-2.87113 -3.184824,-1.5575 -5.224605,-3.44818 -6.452097,-5.98047 -0.8692917,-1.79333 -1.1757056,-2.84548 -2.3291408,-7.99764 -1.2022059,-5.370004 -1.6108522,-5.395653 -6.5898742,-0.4136 -5.8072763,5.8108 -7.1334474,6.55915 -11.623596,6.55915 -6.107639,0 -8.891972,-2.14632 -10.792672,-8.31961 -0.922343,-2.995678 -1.867855,-4.217741 -3.500216,-4.523972 -1.826321,-0.34262 -3.764661,1.227534 -4.391067,3.556982 -0.640665,2.38248 -0.791017,5.41998 -0.795906,16.07944 -0.003,6.51979 -0.118812,11.99956 -0.269825,12.76615 -0.145521,0.7387 -0.389454,1.96818 -0.542076,2.73216 -0.15262,0.76399 -0.339325,2.57969 -0.414898,4.0349 -0.07558,1.45521 -0.3814,4.10548 -0.679606,5.8895 -0.658546,3.93971 -0.600965,4.14108 1.91294,6.69015 1.981586,2.0093 3.647622,2.96664 6.434013,3.69713 2.47223,0.64813 3.701627,0.6412 6.618333,-0.0373 z m -71.427356,-0.75557 c 2.726772,-0.69739 4.385747,-1.64117 6.521323,-3.70994 2.054672,-1.99041 2.362065,-2.76532 2.361496,-5.95313 -7.93e-4,-4.52603 -1.899052,-9.86343 -5.684181,-15.98255 -0.774092,-1.25141 -3.449543,-5.01124 -5.94545,-8.35519 -2.684047,-3.59601 -5.406136,-7.59513 -6.662947,-9.78879 -5.293289,-9.238975 -8.743179,-12.962655 -13.095269,-14.134553 -0.91268,-0.245758 -1.36995,-0.205602 -2.84431,0.249783 -2.92377,0.903057 -4.26035,2.474137 -5.06816,5.95734 -0.77447,3.33948 -1.16239,3.53798 -7.79219,3.98729 -2.69213,0.18246 -5.35589,0.46758 -5.91945,0.63362 -1.78176,0.52496 -3.03848,2.33464 -3.63845,5.23936 -0.30566,1.47987 -0.27908,1.96831 0.26553,4.88053 0.97132,5.19395 1.15591,6.82535 0.99485,8.79233 -0.19398,2.36903 -0.76987,4.00695 -2.7908,7.9375 -0.99044,1.92631 -1.69221,3.6522 -1.78438,4.38838 -0.13749,1.09816 -0.0698,1.3069 0.71295,2.19839 1.58483,1.80503 4.57432,2.839 11.50702,3.97991 7.52985,1.23918 11.53797,2.33878 22.48086,6.16749 7.365875,2.57718 12.091191,3.98094 13.51757,4.0157 0.449665,0.011 1.738458,-0.21561 2.863988,-0.50347 z M -59.1753,133.38994 c 7.293155,-1.2707 12.830879,-3.53123 17.695596,-7.22344 2.019279,-1.53259 6.789732,-6.31093 8.337928,-8.35171 l 1.187072,-1.56476 -0.06636,-2.00711 c -0.0365,-1.10392 -0.09603,-4.26931 -0.132292,-7.0342 -0.06071,-4.62913 -0.01871,-5.16323 0.53054,-6.74688 0.710403,-2.048281 2.224556,-4.125681 3.50044,-4.80257 1.198063,-0.635598 3.010398,-0.61404 4.481386,0.05331 0.643482,0.291933 1.269455,0.431297 1.391052,0.3097 0.434258,-0.434258 0.732697,-5.597536 0.737439,-12.758357 0.0061,-9.249815 -0.193141,-11.057829 -2.005804,-18.199299 -0.935876,-3.68714 -2.065123,-6.134539 -4.595172,-9.959049 -2.66286,-4.025273 -5.122781,-8.525092 -5.554854,-10.16123 -0.166393,-0.630092 -0.464206,-2.356499 -0.661802,-3.836459 -0.351076,-2.629487 -0.420343,-2.807456 -3.038057,-7.805473 -1.473332,-2.813047 -3.03553,-6.012677 -3.471545,-7.110283 -1.130792,-2.846604 -2.669879,-6.163709 -2.859606,-6.163143 -0.08889,2.64e-4 -1.438577,0.999731 -2.999301,2.221032 -4.439473,3.473979 -8.807895,6.045311 -12.555999,7.390683 -5.372671,1.928508 -12.524089,1.308557 -14.95017,-1.29602 -1.231758,-1.322382 -4.171789,-3.592623 -4.438828,-3.427584 -0.151037,0.09335 -0.274613,0.583168 -0.274613,1.088493 0,1.515354 -0.964872,3.95668 -3.493617,8.839581 -2.881712,5.564463 -4.462566,9.549112 -5.252826,13.240113 -0.53095,2.47985 -1.001133,3.580551 -4.850728,11.35556 -4.62883,9.348824 -5.842048,12.325458 -7.1896,17.639736 -1.163159,4.58709 -1.525499,7.495144 -1.386459,11.12745 0.063,1.646367 0.0274,2.993392 -0.0793,2.993392 -1.01942,0 -2.87855,-2.565217 -3.56133,-4.91391 -0.89378,-3.074472 -0.13176,-9.199687 1.84719,-14.848166 2.0643,-5.892067 3.872036,-9.644401 6.551656,-13.599353 0.846979,-1.250088 1.539963,-2.348357 1.539963,-2.440602 0,-0.09224 -0.34821,-0.347781 -0.773801,-0.567862 -0.772033,-0.399232 -0.775893,-0.397282 -1.688608,0.853102 -1.62407,2.224915 -6.50076,12.606877 -8.10774,17.260541 -2.31765,6.711672 -2.41877,12.162856 -0.30336,16.353457 1.44519,2.862913 6.79529,7.507393 14.666629,12.73226 3.80973,2.52884 4.98003,3.48149 8.084367,6.58089 6.651411,6.64084 7.534048,9.30037 4.163143,12.54427 -1.551623,1.49317 -3.089416,2.4573 -4.332817,2.7165 -0.498115,0.10384 -0.859896,0.34263 -0.859896,0.56757 0,0.79974 2.204979,4.36679 3.264908,5.28172 2.041459,1.76218 4.945441,2.94981 9.024882,3.69088 2.687215,0.48815 9.620375,0.4755 12.480241,-0.0228 z M 5.1689321,97.351947 C 5.4401221,95.516075 2.331035,91.767178 -0.50165251,90.514428 -2.4921924,89.634117 -5.756365,88.887241 -8.5788766,88.666277 c -1.2588162,-0.09855 -2.4400324,-0.272675 -2.6249204,-0.386943 -0.263435,-0.162811 -0.158158,-0.942501 0.486595,-3.603773 1.3189875,-5.444236 1.5137287,-7.019856 1.5152475,-12.259554 0.00159,-5.254284 -0.3078613,-7.316533 -1.6274235,-10.847917 -1.541237,-4.124624 -4.944583,-8.356269 -7.884729,-9.803699 -1.749361,-0.861208 -2.921847,-0.951084 -2.921847,-0.223972 0,0.239003 1.094598,1.164283 2.513542,2.124736 3.347469,2.265837 5.112973,4.645536 6.452085,8.696685 1.296643,3.922673 1.582515,6.331945 1.408469,11.870257 -0.15826,5.036066 -0.702288,8.06256 -2.217031,12.333616 -0.703191,1.98275 -0.837848,2.170025 -2.213893,3.07894 -1.730542,1.143071 -4.283035,3.821994 -5.022289,5.271053 -0.540396,1.059259 -0.676759,1.841968 -0.320908,1.841968 0.111704,0 1.18541,-1.065157 2.386013,-2.367015 1.672881,-1.813965 2.582288,-2.563627 3.892206,-3.208496 l 1.709293,-0.841484 3.7760486,0.121891 c 3.4050342,0.109916 4.0213546,0.207029 6.2726996,0.98838 3.40347049,1.181211 4.2777862,1.825998 6.0137757,4.435031 1.455129,2.186927 1.9942043,2.55366 2.1548752,1.465966 z M -62.357965,28.231153 c 1.151064,-0.290732 3.402531,-1.166291 5.00326,-1.945685 3.87644,-1.887439 12.828882,-7.867941 14.59801,-9.751909 1.486133,-1.582605 2.169227,-3.25238 1.693876,-4.140579 -0.831937,-1.554493 -4.237712,-3.4916952 -9.280427,-5.2787043 -1.67349,-0.5930424 -4.100817,-1.5001796 -5.394064,-2.0158605 -2.465295,-0.9830356 -5.082892,-1.7605137 -7.631044,-2.2665717 -1.318741,-0.2618978 -1.775161,-0.2298462 -3.511894,0.2466182 -2.216335,0.6080442 -7.356229,3.0807872 -8.995291,4.327533 -3.457083,2.6296143 -5.6613,5.6138053 -5.146554,6.9676913 0.450718,1.185476 1.1132,1.956702 2.730165,3.178307 2.339612,1.767557 5.883023,3.424656 8.13539,3.804568 5.230622,0.882259 12.352039,-1.905145 21.291344,-8.333671 0.398902,-0.286861 1.144331,0.475229 1.159367,1.185286 0.01027,0.484679 -5.031473,3.738184 -8.369842,5.40118 -1.333821,0.664438 -3.536477,1.590471 -4.894792,2.057853 -2.183234,0.751226 -2.876183,0.861914 -5.974816,0.954402 -3.042513,0.09081 -3.757181,0.02807 -5.414632,-0.475366 -2.035834,-0.618366 -4.156398,-1.61289 -6.192949,-2.904432 -0.689322,-0.437155 -1.300435,-0.747707 -1.358027,-0.690113 -0.563613,0.563613 6.386352,7.612637 8.605404,8.728062 2.959542,1.487636 5.679406,1.776839 8.947516,0.951391 z M -70.186997,6.1439798 c 0,-1.0646966 0.689933,-1.6564399 2.220973,-1.9048942 0.828707,-0.1344798 0.954027,-0.085447 0.954027,0.3732874 0,0.500335 -0.854025,1.8285751 -1.446088,2.2490615 -0.150538,0.1069129 -0.601126,0.1962098 -1.001308,0.1984376 -0.655016,0.00365 -0.727604,-0.087725 -0.727604,-0.9158923 z m 7.263294,0.7174547 c -0.492104,-0.344924 -1.442461,-1.8508795 -1.442461,-2.2857513 0,-0.8822161 1.912705,-0.2828819 2.835858,0.8885979 0.17727,0.2249593 0.326099,0.6769073 0.330729,1.0043292 0.0067,0.476041 -0.137364,0.5945003 -0.719191,0.5912618 -0.400182,-0.00212 -0.852403,-0.091525 -1.004935,-0.1984376 z M -43.544291,4.679765 c 1.229927,-6.9921042 0.497616,-12.5804747 -1.946079,-14.850796 -1.610352,-1.496105 -2.917576,-1.946068 -5.646626,-1.943642 -2.075763,0.0019 -2.757477,0.11194 -3.914114,0.632113 -2.633845,1.184522 -4.023387,3.593111 -4.023387,6.9740124 0,1.863733 0.787419,5.5186052 1.475701,6.849597 0.354311,0.685165 1.107797,1.2835255 1.61576,1.2831154 0.118708,-9.52e-5 0.215831,-1.5181421 0.215831,-3.37343755 0,-3.21129555 0.03527,-3.43327045 0.734637,-4.62300115 0.990327,-1.6847133 2.540572,-2.5867202 4.445693,-2.5867202 1.208784,0 1.64319,0.1470554 2.811656,0.9518095 1.14527,0.7887785 1.477846,1.2079817 1.941648,2.4473958 1.658982,4.4332976 0.990502,8.4614493 -1.594049,9.6054838 -1.083638,0.4796658 -1.005025,0.9570482 0.193228,1.1733716 0.545703,0.098518 1.289844,0.3388254 1.653646,0.5340191 1.26791,0.6802781 1.415322,0.4578085 2.036455,-3.0733207 z m -34.109912,2.5014476 c 0.767244,-0.5373978 0.742693,-0.7055908 -0.182798,-1.2522914 -0.423961,-0.2504388 -1.049039,-1.0202519 -1.389063,-1.7106927 -0.535495,-1.0873582 -0.618225,-1.6487432 -0.618225,-4.1950879 0,-2.9242597 0.0049,-2.9469028 0.926042,-4.2997782 1.432626,-2.1040355 3.419961,-2.7278198 5.211146,-1.6356648 1.541023,0.9396227 2.419321,2.9558563 2.687209,6.16881344 0.09429,1.13087156 0.290499,2.07014236 0.43602,2.08726886 1.046983,0.1232164 1.430245,-5.1826373 0.579548,-8.0232119 -0.574735,-1.9191156 -2.270379,-4.0822431 -3.713752,-4.737619 -1.906691,-0.865753 -4.179793,-0.50969 -5.688121,0.8909979 -1.401969,1.3019167 -2.679687,5.3385642 -2.711435,8.56612372 -0.03221,3.27490668 0.602221,5.30283218 2.324005,7.42853968 1.000363,1.2350459 1.26682,1.3237978 2.139424,0.7126023 z m 4.819896,-8.02103966 c -0.0055,-1.59240274 -1.298869,-3.79650104 -2.396273,-4.08347874 -0.754743,-0.1973685 -1.733034,0.7575603 -1.304758,1.273601 0.165907,0.199906 0.617034,0.4002988 1.002506,0.4453176 0.59364,0.069329 0.7571,0.2842287 1.068522,1.4047682 0.466061,1.67695301 0.780974,2.09627262 1.269709,1.69065843 0.198975,-0.1651344 0.361106,-0.49402472 0.360294,-0.73086649 z m 26.115162,-0.73306514 c -0.125606,-1.2169934 -0.315431,-1.6595197 -1.026615,-2.3932754 -0.675053,-0.6964759 -1.052738,-0.8825151 -1.668854,-0.8220366 -1.218994,0.1196552 -1.219886,1.0446808 -0.0016,1.7634268 0.624446,0.3684323 1.136965,0.97527 1.481492,1.7541293 0.306377,0.69261831 0.703101,1.1908208 0.948267,1.1908208 0.354031,0 0.396841,-0.23901665 0.267412,-1.4930649 z"
       style="fill:#808080;stroke-width:0.26458335;fill-opacity:1" />
    <path
       id="path986"
       d="m -22.297412,154.84113 c -2.667794,-0.36749 -3.846264,-0.72483 -6.01544,-1.82404 -1.700035,-0.86147 -4.266023,-3.22287 -5.367769,-4.93979 -0.465116,-0.72483 -1.100497,-1.37611 -1.411959,-1.4473 -0.724734,-0.16566 -10.110701,-1.10033 -14.561485,-1.45006 -5.115587,-0.40197 -13.906741,-0.33439 -17.542818,0.13486 -6.58564,0.8499 -9.924711,2.03892 -12.548986,4.4686 -4.128144,3.82203 -8.499476,4.87362 -14.873527,3.57804 -1.478065,-0.30043 -6.259274,-1.71942 -10.624894,-3.15331 -12.37172,-4.06352 -14.99949,-4.78107 -22.29167,-6.08705 -9.41093,-1.68544 -13.25395,-3.39159 -13.93021,-6.18446 -0.28337,-1.17028 0.29897,-3.38906 1.3385,-5.09981 1.69084,-2.78263 3.00836,-5.6 3.30158,-7.06005 0.24552,-1.22253 0.16282,-2.31583 -0.56624,-7.48628 -0.61043,-4.32916 -0.81361,-6.59512 -0.71293,-7.95103 0.22894,-3.08324 1.59471,-5.56901 3.84329,-6.99502 l 1.20774,-0.76592 4.51226,-0.006 c 3.79053,-0.005 4.68154,-0.0828 5.5706,-0.48724 1.39624,-0.63514 1.5361,-0.83229 2.63712,-3.717458 0.51723,-1.35537 1.1397,-2.801678 1.38327,-3.214013 0.36363,-0.615561 0.38679,-0.872776 0.12946,-1.437542 -0.47316,-1.038482 -0.37653,-4.035597 0.20319,-6.302293 0.66476,-2.599172 1.617,-4.747601 4.12952,-9.316895 5.01535,-9.120997 6.48658,-12.705347 8.82758,-21.50659 1.8445,-6.934595 3.47267,-9.715188 10.873932,-18.570496 6.784513,-8.117396 8.999808,-11.707591 9.92884,-16.091072 0.535694,-2.527584 0.47399,-5.515957 -0.270407,-13.0963677 -1.207516,-12.2964948 -1.554615,-22.8168393 -0.922803,-27.9695023 0.690462,-5.630945 2.639838,-10.444473 5.817055,-14.363848 4.463526,-5.506141 9.478706,-7.472745 19.8372,-7.778758 3.918669,-0.115766 5.139991,-0.05127 7.947525,0.419727 9.45931,1.586892 15.663741,5.760737 20.305682,13.660039 2.534898,4.313695 4.429802,13.633847 5.352412,26.32604169 0.306022,4.20990981 0.336566,4.46160801 1.33245,10.98020831 1.109406,7.261665 1.477237,8.375455 4.762172,14.419792 2.271403,4.179427 9.013238,13.971532 12.2961192,17.859375 6.8365293,8.096343 12.923711,20.545005 14.9309487,30.534709 0.8888731,4.42378 1.1400764,7.723698 0.9957409,13.080495 C 7.4220657,89.8449 7.2515232,91.67629 6.81962,93.582674 c -0.9917431,4.377458 -0.9919865,4.394698 -0.064312,4.580232 1.7829187,0.356584 3.0261455,3.391494 3.879098,9.469494 0.265417,1.89131 0.569175,2.9838 1.064745,3.82943 0.972304,1.65911 4.17753,4.09342 7.865353,5.97358 3.493403,1.78105 4.940375,3.1257 5.494928,5.10638 0.392195,1.40077 0.17584,3.26805 -0.541599,4.67435 -0.753158,1.47631 -3.028961,3.30493 -5.273197,4.23706 -3.469211,1.4409 -8.784548,4.20851 -11.2472547,5.85624 -3.1036976,2.07662 -4.8550964,3.46535 -10.4219803,8.26386 -5.9097653,5.09407 -7.4488175,6.31015 -9.554062,7.54913 -3.047035,1.79325 -6.093702,2.30071 -10.318751,1.7187 z m 5.842717,-2.01113 c 1.992101,-0.46769 2.741272,-0.81594 5.084551,-2.36355 1.5115148,-0.99828 5.2969298,-4.03514 8.4120336,-6.74859 3.11510373,-2.71344 6.973512,-5.806 8.5742413,-6.87235 3.270766,-2.17888 8.5616521,-4.97006 11.5239701,-6.07943 3.857987,-1.44478 5.1874,-2.73272 5.688425,-5.51097 0.443098,-2.45703 -1.767319,-5.05649 -6.08693,-7.15826 -5.13747,-2.49971 -7.1062721,-5.32658 -8.4874051,-12.18647 -0.8504794,-4.22422 -1.1200157,-5.12112 -1.7189927,-5.7201 -0.8421424,-0.842139 -1.7980291,-0.225162 -5.91662071,3.81888 -4.35181129,4.27305 -5.25050299,4.96543 -7.45728419,5.74528 -1.320173,0.46654 -2.007288,0.53614 -4.3462043,0.44028 -2.325175,-0.0953 -3.04763,-0.23521 -4.431105,-0.85816 -3.08257,-1.38802 -4.756163,-3.93112 -6.14975,-9.344854 -0.589092,-2.28848 -3.459972,-3.417867 -5.510401,-2.167763 -1.149993,0.701127 -2.048086,2.700277 -2.411965,5.369027 -0.163084,1.19606 -0.282197,6.82916 -0.282197,13.34553 0,10.68765 -0.08148,12.23798 -0.82505,15.69867 -0.143695,0.66878 -0.372317,2.8119 -0.508048,4.7625 -0.135731,1.9506 -0.474771,4.73717 -0.753425,6.19238 l -0.506637,2.64583 0.653738,1.13722 c 0.989862,1.72192 3.374816,3.91412 5.27712,4.85062 3.308411,1.62872 6.272408,1.92119 10.177936,1.00428 z m -70.543698,-1.0109 c 2.87654,-1.01486 6.370895,-3.80134 7.172297,-5.71937 0.565234,-1.35279 0.492762,-5.85945 -0.136113,-8.46393 -1.34036,-5.55112 -3.975679,-10.20356 -11.399777,-20.1254 -2.535941,-3.38912 -5.121526,-7.21873 -6.597547,-9.77188 -3.353007,-5.79989 -5.341447,-8.619042 -7.388857,-10.475708 -1.91577,-1.7373 -4.42182,-3.121004 -6.01635,-3.321913 -1.21297,-0.152831 -3.74886,0.659982 -4.97365,1.594178 -1.09983,0.838885 -2.15595,2.848801 -2.50848,4.773923 -0.59164,3.23089 -1.23068,3.5463 -8.09325,3.9946 -5.76042,0.37629 -6.59874,0.62016 -7.79142,2.2666 -1.75708,2.42559 -1.96569,4.77449 -0.8966,10.09564 0.86552,4.30792 0.9526,7.84683 0.24581,9.98975 -0.26398,0.80037 -1.16961,2.7649 -2.01251,4.36563 -0.8429,1.60073 -1.72918,3.58835 -1.96952,4.41694 -0.40066,1.38129 -0.402,1.57417 -0.0161,2.32032 1.07926,2.08707 4.62725,3.45561 12.30809,4.74751 7.57815,1.27462 12.22881,2.5736 24.20938,6.76195 8.41279,2.94107 9.915324,3.33309 12.303125,3.20993 1.091407,-0.0563 2.694091,-0.35274 3.561522,-0.65877 z m 30.966605,-18.92065 c 8.990939,-2.07641 16.217501,-6.64375 22.117567,-13.97876 l 2.140233,-2.66076 -0.164026,-2.54073 c -0.09022,-1.3974 -0.230158,-4.0121 -0.310983,-5.81045 -0.235273,-5.23479 0.57813,-8.496778 2.710018,-10.86795 1.798379,-2.000232 3.729218,-2.327821 6.222675,-1.055754 0.634529,0.323712 1.050497,0.407379 1.158285,0.232973 0.390306,-0.631531 0.640353,-5.651619 0.645181,-12.953095 0.0053,-7.993277 -0.18085,-10.808311 -0.94471,-14.2875 -1.442559,-6.570485 -2.460176,-9.173255 -5.204458,-13.311471 -4.77383,-7.198656 -6.224392,-10.516883 -6.697837,-15.321611 -0.165346,-1.678011 -0.440825,-2.351643 -2.829785,-6.919722 -1.455635,-2.783406 -3.226512,-6.467928 -3.935286,-8.187822 -1.612818,-3.913638 -2.269538,-5.207292 -2.643468,-5.207292 -0.161449,0 -1.558015,0.993894 -3.103475,2.208652 -8.251535,6.485845 -14.69675,9.027372 -21.209374,8.363437 -2.736594,-0.278982 -5.358252,-1.315445 -6.27488,-2.480749 -0.674079,-0.856954 -3.931886,-3.593423 -4.278022,-3.593423 -0.156263,0 -0.284114,0.348104 -0.284114,0.773565 0,1.804191 -0.782109,3.89849 -3.350774,8.972587 -3.153556,6.229477 -4.876057,10.569745 -5.529948,13.934057 -0.40659,2.091928 -0.926857,3.311165 -4.282022,10.034844 -5.12839,10.277184 -6.693432,14.187197 -8.162309,20.39224 -0.56884,2.403004 -0.70882,3.738359 -0.80292,7.65933 -0.0627,2.611903 -0.17015,4.805106 -0.23883,4.873787 -0.20718,0.20719 -1.40608,-1.047959 -2.2353,-2.340198 -1.21761,-1.89747 -1.69094,-4.170325 -1.48433,-7.127383 0.32067,-4.589356 1.6171,-9.296117 4.28353,-15.551571 1.488125,-3.49115 2.664444,-5.663967 4.515863,-8.341405 0.776621,-1.123114 1.412039,-2.195377 1.412039,-2.382808 0,-0.437116 -1.585436,-1.156036 -1.814851,-0.822952 -0.09324,0.135369 -0.541036,0.776184 -0.995104,1.424038 -1.647097,2.350029 -6.279937,12.346014 -7.887627,17.01863 -1.69688,4.931825 -2.21091,10.145403 -1.33271,13.517038 1.19261,4.578729 5.12578,8.488083 15.324098,15.231318 3.79467,2.50907 4.922557,3.43055 8.329795,6.80543 7.330271,7.26065 7.906531,9.40666 3.532193,13.15401 -1.433925,1.2284 -2.307214,1.77345 -3.087523,1.92704 -1.48916,0.29312 -1.508948,0.87393 -0.1147,3.36685 2.060932,3.68496 5.158301,5.40642 11.85893,6.59099 0.363802,0.0643 3.161771,0.0897 6.217708,0.0564 5.003536,-0.0545 5.872086,-0.13349 8.731251,-0.7938 z M 5.1679743,97.218838 C 5.317448,95.460144 3.479705,92.79873 1.0381035,91.237968 -0.90111251,89.998351 -3.9086764,89.121479 -7.6266809,88.7117 c -1.8412672,-0.202932 -3.4534051,-0.474617 -3.5825301,-0.603742 -0.136644,-0.136644 -0.01283,-1.00453 0.296196,-2.076384 1.5480798,-5.369338 2.2619336,-13.754513 1.5983638,-18.774942 C -10.310326,59.723577 -14.89106,52.78612 -19.986988,51.093524 c -1.005475,-0.333965 -1.352222,-0.355041 -1.658546,-0.100816 -0.683287,0.567078 -0.424066,0.95913 1.301353,1.968193 4.966393,2.904455 7.545205,7.066621 8.78186,14.173785 0.646917,3.717896 0.417737,9.95218 -0.515932,14.034598 -0.385504,1.685602 -1.036283,4.066852 -1.446171,5.291667 -0.697269,2.083543 -0.820562,2.268516 -1.91485,2.872766 -2.231578,1.23225 -6.05146,5.702017 -6.061906,7.093228 -0.0045,0.598181 1.006128,0.345223 1.585587,-0.396875 1.480788,-1.896404 3.852654,-4.102518 5.101117,-4.744638 2.616668,-1.34583 8.0864551,-1.130848 12.4842562,0.490673 1.1653627,0.429683 2.5035829,1.0747 2.97382423,1.433369 0.85151127,0.649478 3.25273467,3.791691 3.25273467,4.256487 0,0.371105 0.6059144,0.89752 0.9161199,0.795923 0.1509792,-0.04945 0.3109595,-0.518819 0.3555153,-1.043046 z M -60.703462,27.86551 c 1.068599,-0.373184 3.040263,-1.256221 4.381479,-1.962301 3.077779,-1.62029 11.821261,-7.43807 13.351878,-8.884137 1.27789,-1.207296 2.137146,-2.799456 2.146049,-3.976521 0.01238,-1.637408 -3.273531,-3.7780012 -8.857732,-5.7703217 -1.600729,-0.5711032 -4.225467,-1.5579514 -5.83275,-2.1929937 -3.09366,-1.2223115 -6.229544,-2.1282766 -8.33227,-2.4072136 -1.829461,-0.2426864 -3.639224,0.2581169 -7.371228,2.0397841 -4.844817,2.3129293 -8.197435,4.9880388 -9.533499,7.6069399 -0.692446,1.357308 -0.679453,1.780405 0.09329,3.037695 1.288013,2.095669 6.885493,5.445448 10.074376,6.028952 4.925912,0.901351 11.371509,-1.238049 18.78238,-6.234179 l 3.283913,-2.21389 0.410083,0.625866 c 0.225547,0.344226 0.410083,0.693108 0.410083,0.775296 0,0.292176 -5.329603,3.602074 -7.869682,4.887388 -5.462509,2.764105 -8.552265,3.57472 -12.879449,3.378997 -3.771567,-0.170593 -6.926334,-1.286439 -10.40632,-3.680733 -2.750627,-1.89248 -1.054793,0.857078 2.88503,4.677672 4.355172,4.223375 6.571147,5.246156 10.940212,5.049436 1.650005,-0.07429 2.977888,-0.31558 4.32416,-0.785736 z M -70.103198,6.6360889 c -0.317223,-0.8266747 0.268372,-1.7276683 1.371409,-2.1100442 1.879415,-0.6515126 2.195836,-0.1237006 0.903809,1.5076171 -0.87194,1.1009127 -1.972143,1.3922243 -2.275218,0.6024271 z m 6.532443,-0.6701975 c -0.892833,-1.2325218 -0.959371,-1.5014919 -0.422415,-1.7075415 0.928526,-0.3563091 3.045249,1.5254843 2.707111,2.4066553 -0.308679,0.8043995 -1.448133,0.455729 -2.284696,-0.6991138 z m 20.104154,-1.2677617 c 0.48953,-3.0007216 0.577149,-4.34545056 0.469778,-7.2098959 -0.20244,-5.4007862 -1.143624,-7.3903656 -4.224284,-8.9297908 -1.415712,-0.70744 -1.895184,-0.809104 -3.815932,-0.809104 -2.428516,0 -4.575747,0.628613 -5.871488,1.718908 -0.404908,0.340707 -1.07115,1.3035361 -1.48054,2.1396221 -0.65333,1.33427 -0.741659,1.8059056 -0.722352,3.8570509 0.03473,3.68948502 1.151763,7.3722417 2.437828,8.0372931 0.4113,0.2126906 0.783731,0.3867097 0.827622,0.3867097 0.04389,0 0.07957,-1.5180469 0.07928,-3.37343759 -5.29e-4,-3.11126991 0.05089,-3.46412881 0.660937,-4.54041151 0.928225,-1.6376121 2.337475,-2.699729 3.800949,-2.8646834 1.631998,-0.1839516 2.28595,0.024739 3.780354,1.206373 1.117269,0.8834358 1.362623,1.2637294 1.907016,2.9558748 0.682696,2.1220377 0.809024,4.6808867 0.30629,6.2041855 -0.275215,0.8339032 -1.568173,2.2070881 -2.804105,2.9780919 -0.440113,0.2745528 -0.455033,0.3537797 -0.111337,0.5912617 0.218282,0.1508231 0.694532,0.2810404 1.058334,0.2893669 0.363802,0.00833 1.078177,0.243287 1.5875,0.5221287 0.509323,0.2788418 1.057968,0.5119767 1.21921,0.5180754 0.17358,0.00656 0.538642,-1.4936047 0.894935,-3.6776185 z m -33.599563,1.9616288 c 0,-0.1595384 -0.36948,-0.5632397 -0.821066,-0.8971095 -2.27948,-1.6852953 -2.797582,-7.2684376 -0.928727,-10.0081213 1.658961,-2.4319813 3.860303,-2.8082532 5.732719,-0.9798871 0.801789,0.7829233 1.11568,1.3921079 1.553642,3.0152155 0.301866,1.1187325 0.548849,2.64400515 0.548849,3.3894899 0,1.6168582 0.299402,1.9073733 0.949552,0.9213665 0.378114,-0.5734368 0.481137,-1.27940599 0.491964,-3.3711648 0.0075,-1.4552084 -0.08239,-3.2079724 -0.199821,-3.8950319 -0.294148,-1.7209532 -2.032368,-4.260178 -3.508465,-5.1252278 -2.159397,-1.265492 -5.367748,-0.715645 -6.668919,1.1429152 -1.028594,1.4692181 -1.95657,4.3388307 -2.18272,6.7497115 -0.37765,4.0259106 0.429856,7.0299607 2.496045,9.2857162 l 0.927695,1.0128065 0.804628,-0.4753028 c 0.442542,-0.2614162 0.804624,-0.6058376 0.804624,-0.7653761 z m 4.187084,-7.51137804 c 0.173514,-1.81440406 -1.314585,-4.25529116 -2.594258,-4.25529116 -0.607968,0 -1.429157,0.9428903 -1.243211,1.4274588 0.08207,0.2138601 0.530151,0.4266539 0.995749,0.4728766 0.782823,0.077713 0.873712,0.1907064 1.207577,1.5012485 0.446431,1.75241219 0.560065,1.94045157 1.10975,1.83642005 0.283567,-0.05366809 0.468733,-0.40067178 0.524393,-0.98271279 z m 26.38428,0.1103339 c -0.07935,-0.50932296 -0.207499,-1.33366406 -0.284768,-1.83187186 -0.0921,-0.5938282 -0.459801,-1.1861906 -1.067541,-1.7197917 -1.025223,-0.9001575 -1.574612,-0.9937141 -2.358004,-0.4015555 -0.637508,0.481891 -0.341833,1.1186716 0.773388,1.6655971 0.468863,0.2299415 0.964478,0.8694658 1.384054,1.7859376 0.468622,1.02360938 0.801317,1.42772604 1.175393,1.42772604 0.447389,0 0.501195,-0.13199534 0.377478,-0.92604168 z"
       style="fill:#808080;stroke-width:0.26458335;fill-opacity:1" />
    <path
       id="path984"
       d="m -21.635954,154.9381 c -5.121153,-0.67299 -8.66503,-2.61312 -11.40523,-6.2439 -0.791241,-1.04841 -1.525841,-1.96009 -1.632437,-2.02597 -0.229327,-0.14174 -9.584081,-1.1049 -14.451277,-1.4879 -5.196153,-0.4089 -14.949753,-0.33716 -18.601151,0.13681 -6.38079,0.82826 -9.673096,2.02282 -12.242314,4.44193 -2.145326,2.01999 -4.26942,3.16185 -6.995777,3.76078 -3.952907,0.86838 -7.258709,0.23096 -19.20619,-3.70327 -11.78694,-3.88136 -13.84808,-4.44505 -20.8103,-5.69125 -8.07052,-1.44459 -11.91637,-2.79634 -13.72598,-4.82445 -0.67135,-0.75242 -0.77479,-1.07323 -0.75796,-2.35076 0.02,-1.52055 0.11283,-1.73895 2.51921,-5.9289 1.37047,-2.38624 2.11318,-4.28409 2.26958,-5.79947 0.0873,-0.84597 -0.18828,-3.7126 -0.72746,-7.56695 -0.78086,-5.58195 -0.83697,-6.38612 -0.55881,-8.00823 0.5173,-3.01669 2.14524,-5.44383 4.37541,-6.52344 0.9961,-0.4822 1.62457,-0.54462 5.48336,-0.54462 3.99495,0 4.45636,-0.0496 5.53417,-0.59531 1.12315,-0.56864 1.22417,-0.71983 2.25392,-3.373442 0.59294,-1.527969 1.28128,-3.087124 1.52965,-3.464791 0.41123,-0.625297 0.41579,-0.772318 0.0511,-1.645147 -0.5419,-1.296948 -0.50082,-3.055001 0.13318,-5.699646 0.6583,-2.745978 1.52006,-4.723771 4.11245,-9.438331 4.98372,-9.063466 6.73529,-13.340474 8.99052,-21.953128 1.67752,-6.40639 3.51715,-9.572686 10.222675,-17.594792 6.700205,-8.01575 8.435787,-10.571281 9.883,-14.552083 1.084844,-2.984048 1.158346,-6.968795 0.290383,-15.7427088 -0.908294,-9.1816107 -1.224349,-14.3730506 -1.224349,-20.1107602 0,-11.215571 1.987709,-17.369522 7.551306,-23.378873 3.819094,-4.125076 9.402602,-6.0394 18.411704,-6.312514 4.103865,-0.12441 5.041329,-0.07011 7.805209,0.452073 4.087625,0.772284 6.107171,1.401413 8.697408,2.709415 5.284107,2.668339 8.603901,5.835794 11.724505,11.186492 2.471635,4.237956 4.426958,13.966053 5.344655,26.59062536 0.304903,4.19449524 0.333809,4.43359654 1.32742,10.98020864 0.903028,5.949791 1.568574,8.131035 3.741656,12.262797 2.691206,5.116902 9.179687,14.727463 13.1518556,19.480179 4.5770405,5.476441 8.09964491,11.445166 11.5391411,19.551983 4.6841517,11.040441 5.895835,23.366858 3.2977694,33.548083 -0.6583363,2.579878 -0.6635671,2.527652 0.2737618,2.733524 1.773182,0.389456 3.0164062,3.126296 3.8462561,8.467186 0.559506,3.60096 0.78776,4.36388 1.640358,5.48283 1.14548,1.50333 4.185862,3.71233 7.172021,5.21085 3.091651,1.55146 4.782802,2.96409 5.620738,4.69503 1.574739,3.25298 -0.959292,7.35795 -5.777596,9.35932 -3.308474,1.37424 -8.753838,4.18063 -10.9030879,5.61915 -2.9549011,1.97775 -5.9548529,4.35346 -11.0970223,8.78791 -6.0592073,5.22528 -6.4445782,5.53309 -8.6425438,6.90302 -3.221786,2.00805 -6.323444,2.68818 -10.034887,2.20044 z m 6.394424,-2.28551 c 2.478956,-0.80203 6.3228357,-3.55125 12.5652299,-8.98689 3.12323973,-2.7196 6.9472072,-5.77397 8.5570143,-6.83487 3.4184592,-2.25283 8.6749258,-5.00209 11.8679128,-6.2072 2.785081,-1.05116 4.204139,-2.20466 4.775644,-3.88193 1.228368,-3.60506 -0.549256,-6.26883 -5.892115,-8.82934 -4.632031,-2.21984 -6.9619786,-5.49525 -8.1373822,-11.43942 -1.6510767,-8.349714 -2.0516374,-8.489713 -7.82454964,-2.73476 -1.93641936,1.9304 -4.09109876,3.94415 -4.78817796,4.47502 -3.0443463,2.31843 -8.1787342,2.68199 -11.8400812,0.83837 -2.439643,-1.22845 -4.473493,-4.24242 -5.404308,-8.00866 -0.476123,-1.926475 -0.67972,-2.278696 -1.830646,-3.166972 -0.958456,-0.739727 -3.025813,-0.803282 -4.168715,-0.128156 -1.03804,0.613185 -2.006661,2.673168 -2.333659,4.963018 -0.145466,1.01865 -0.266843,6.99245 -0.269724,13.27513 -0.0029,6.28267 -0.115999,11.99767 -0.251368,12.7 -0.705697,3.66133 -0.887195,4.98531 -1.081818,7.89154 -0.116943,1.74625 -0.467762,4.54223 -0.779602,6.21328 -0.635961,3.40795 -0.61667,3.5166 0.984826,5.54676 1.757344,2.22772 4.613466,4.06166 7.438436,4.77627 1.607145,0.40654 6.572311,0.13436 8.413083,-0.46119 z m -71.085051,-0.96235 c 2.030592,-0.82659 4.75357,-2.86265 5.883788,-4.39951 0.657527,-0.89409 0.842103,-1.46624 1.008365,-3.12572 0.405595,-4.04832 -0.432578,-7.95151 -2.769947,-12.89904 -1.64623,-3.48459 -3.768416,-6.73512 -8.759299,-13.41656 -2.833201,-3.79288 -5.339673,-7.50629 -6.97097,-10.32768 -4.622336,-7.994514 -7.298496,-11.154705 -10.853346,-12.816394 -2.023,-0.945632 -3.33955,-1.031936 -5.38062,-0.352711 -2.73115,0.90887 -4.19369,2.724915 -4.75338,5.902325 -0.54717,3.10635 -1.88352,3.74781 -8.41501,4.03933 -4.82531,0.21536 -6.29738,0.59653 -7.28022,1.8851 -1.88747,2.4746 -2.15055,5.32041 -1.01832,11.01563 1.24879,6.28152 0.96726,8.33219 -1.91631,13.9585 -0.93227,1.81901 -1.83876,3.87579 -2.01443,4.57063 -0.28059,1.10983 -0.25998,1.37367 0.16966,2.17146 1.08369,2.01229 4.60739,3.41555 11.34551,4.51817 7.58518,1.24123 13.54388,2.8797 24.92349,6.85322 9.284948,3.24211 9.661236,3.33862 12.567705,3.22316 1.946077,-0.0773 2.901808,-0.25789 4.233334,-0.79991 z m 30.721095,-18.7613 c 8.67305,-2.07839 15.998217,-6.71695 21.573467,-13.66109 l 2.247003,-2.79872 -0.15099,-2.84427 c -0.08304,-1.56435 -0.221083,-4.15504 -0.306755,-5.7571 -0.262186,-4.90296 0.68853,-8.417659 2.92318,-10.80668 1.636226,-1.749258 2.840149,-2.075117 4.892292,-1.324163 0.80763,0.29554 1.728565,0.565576 2.04652,0.60008 0.317955,0.0345 0.758206,0.212207 0.978334,0.394896 0.547923,0.454737 0.834583,0.241681 3.101324,-2.305005 2.548626,-2.863384 4.312944,-3.799644 7.472188,-3.96522 3.929759,-0.205962 9.4504704,1.252754 11.55327033,3.052672 0.59566177,0.509863 1.67573067,1.805382 2.40015197,2.878929 1.6983075,2.516783 2.5542558,2.603421 2.114341,0.214014 -0.7885933,-4.283263 -5.26143292,-7.111228 -12.5219544,-7.917032 -1.9049974,-0.211426 -3.5820009,-0.50278 -3.7266779,-0.647457 -0.174339,-0.174339 -0.07474,-0.957562 0.295357,-2.322521 1.0293698,-3.796469 1.4271232,-6.76443 1.5706835,-11.720171 0.167259,-5.773894 -0.1360355,-8.572746 -1.2838615,-11.847674 -1.964994,-5.606442 -5.829718,-10.106221 -9.582296,-11.156879 -0.981739,-0.27487 -1.304907,-0.277312 -1.624253,-0.01228 -0.738937,0.613264 -0.407602,1.178057 1.242621,2.118153 3.142004,1.789933 5.876819,4.859732 7.104734,7.974976 0.304046,0.771372 0.870281,2.656078 1.258298,4.188238 0.637754,2.518283 0.704556,3.242998 0.695783,7.548245 -0.0087,4.263088 -0.08739,5.095441 -0.750496,7.9375 -0.407435,1.74625 -1.060871,4.18315 -1.452076,5.41533 l -0.711285,2.240333 -1.948058,1.320414 c -1.943179,1.317107 -3.818094,3.365532 -4.800979,5.245277 -0.285339,0.545704 -0.552016,0.992188 -0.592616,0.992188 -0.0406,0 -0.02376,-4.554141 0.03743,-10.120313 0.140107,-12.745826 -0.108075,-15.317547 -2.125663,-22.026563 -1.09433,-3.638947 -1.928394,-5.380021 -4.190894,-8.748313 -3.246888,-4.833802 -5.163011,-8.540779 -5.771984,-11.16662 -0.294658,-1.270538 -0.618791,-3.069336 -0.720299,-3.997333 -0.157774,-1.442384 -0.568595,-2.421605 -2.830576,-6.746876 -1.455306,-2.782787 -3.225919,-6.4668 -3.934693,-8.186695 -1.533946,-3.722248 -2.268903,-5.207291 -2.577113,-5.207291 -0.124958,0 -1.455817,0.971285 -2.957465,2.158413 -7.33347,5.797462 -13.919457,8.763391 -19.384704,8.729691 -4.050144,-0.02498 -6.182355,-0.781267 -8.62892,-3.060665 -3.418324,-3.184761 -4.245131,-3.664725 -4.245131,-2.464308 0,1.569037 -1.275824,4.919165 -3.549796,9.321244 -2.855365,5.527572 -4.72349,10.246689 -5.445628,13.756344 -0.446141,2.168279 -0.979019,3.417623 -4.227259,9.9109 -5.043366,10.081766 -6.680899,14.141715 -8.115689,20.121299 -0.54272,2.261825 -0.69349,3.700087 -0.81131,7.739062 -0.0796,2.728516 -0.22588,4.960938 -0.3251,4.960938 -0.26814,0 -1.43306,-1.311238 -2.22032,-2.499225 -0.38053,-0.57421 -0.88856,-1.928114 -1.12896,-3.008681 -0.3696,-1.661265 -0.39224,-2.359165 -0.14661,-4.519268 0.81256,-7.145838 4.49217,-16.774922 8.831095,-23.109926 1.772089,-2.587318 1.768583,-2.508565 0.151207,-3.398152 -0.943383,-0.518877 -3.387075,3.682844 -7.078812,12.171439 -3.38143,7.775075 -4.24324,10.997555 -4.24324,15.86642 0,5.045234 0.97029,7.446523 4.34228,10.746351 2.66444,2.607421 6.215575,5.341581 11.4637,8.826345 3.204197,2.12759 4.767154,3.39841 7.762439,6.31153 5.466749,5.31679 7.145914,7.87671 6.559582,10.00023 -0.513737,1.86059 -3.927555,4.93291 -5.890388,5.30114 -0.548087,0.10283 -1.060466,0.35358 -1.138618,0.55724 -0.144912,0.37764 1.479537,3.77438 2.274618,4.75627 0.852998,1.0534 2.908167,2.41824 4.873217,3.23629 3.282257,1.36641 5.313466,1.61563 12.351092,1.51543 5.562428,-0.0792 6.513595,-0.15944 9.025262,-0.76133 z M -61.138675,28.066752 c 3.32731,-1.049793 6.265325,-2.644381 12.326816,-6.690302 6.715953,-4.482761 7.993613,-5.812142 7.993613,-8.317206 0,-1.776781 -3.19795,-3.9242739 -8.691237,-5.8363648 -1.483789,-0.516472 -4.094094,-1.4918188 -5.800675,-2.1674376 -3.770898,-1.4928559 -7.572029,-2.4894355 -9.495153,-2.4894355 -1.775804,0 -3.872545,0.6945074 -7.320577,2.424811 -5.37854,2.6990781 -9.17361,6.3807239 -9.17361,8.8994349 0,1.643933 2.742399,4.203409 6.546613,6.109944 5.471543,2.742144 11.306384,2.040787 19.121409,-2.298422 1.380559,-0.766538 3.505348,-2.108229 4.721757,-2.981532 1.753039,-1.25857 2.287971,-1.524489 2.579687,-1.282385 0.720834,0.598239 0.3351,1.071282 -2.211652,2.712244 -8.750806,5.638453 -15.248676,7.491722 -21.057929,6.005965 -2.196222,-0.561697 -4.917348,-1.828755 -7.118596,-3.314676 -1.54789,-1.044882 -1.895687,-0.830305 -1.111658,0.685842 0.619697,1.198359 5.169567,5.827811 6.896712,7.017343 3.330538,2.293826 7.601646,2.845049 11.79448,1.522177 z M -69.895704,6.6992317 c -0.70103,-0.8446876 0.723201,-2.2811423 2.26173,-2.2811423 0.635862,0 0.380002,0.8240581 -0.54219,1.7462501 -0.990904,0.9909043 -1.26923,1.0774812 -1.71954,0.5348922 z m 6.709431,-0.5545614 c -1.021141,-1.0827252 -1.172707,-1.7265809 -0.406442,-1.7265809 0.777685,0 2.178561,1.2987418 2.08462,1.9326358 -0.132069,0.8911987 -0.710295,0.8202004 -1.678178,-0.2060549 z m 19.298953,1.514565 c 0.795538,-3.9118223 1.000479,-6.1893318 0.893926,-9.9342047 -0.129688,-4.5579534 -0.623808,-6.3839409 -2.136994,-7.8971296 -1.488205,-1.488205 -3.158927,-2.073037 -5.930538,-2.075977 -4.028689,-0.0043 -6.149433,1.094378 -7.496281,3.8834406 -0.534982,1.1078448 -0.609902,1.6370115 -0.576424,4.0712682 0.06404,4.65660587 1.485667,8.18229 3.299262,8.18229 0.468399,0 0.499168,-0.1034653 0.295047,-0.9921875 -0.378722,-1.6489337 -0.235619,-4.9148181 0.273807,-6.2487282 0.626023,-1.6392208 2.473701,-3.2602224 3.972272,-3.4849462 1.386464,-0.2079149 2.618091,0.2678165 4.055599,1.5665159 0.846998,0.765212 1.162571,1.3342805 1.649519,2.9745755 1.128381,3.8009619 0.386418,6.914867 -1.947069,8.171532 -1.247259,0.6716925 -1.127157,1.1849206 0.366948,1.56804 0.654844,0.1679151 1.42875,0.4451879 1.719792,0.6161616 0.884888,0.5198322 1.400868,0.3874109 1.561134,-0.4006506 z m -33.524326,-0.4493101 0.742357,-0.6477476 -0.997707,-0.8312733 c -1.283517,-1.0694061 -1.697342,-1.8984595 -2.068036,-4.1431052 -0.381431,-2.30964845 7.94e-4,-4.3673237 1.090858,-5.8720726 1.028118,-1.4192779 1.901005,-1.9531304 3.1935,-1.9531304 0.901732,0 1.248545,0.1761331 2.215571,1.1251962 0.995317,0.9768285 1.219528,1.4164125 1.700421,3.3337951 0.304666,1.21473117 0.553935,2.74869276 0.553935,3.4088017 0,1.387475 0.485468,1.6105823 1.07977,0.496234 0.2717,-0.5094526 0.371517,-1.66089014 0.361246,-4.1671876 -0.01606,-3.9203498 -0.321874,-4.9379214 -2.096442,-6.9758878 -1.325137,-1.5218277 -2.32397,-1.9972757 -4.239366,-2.0179477 -1.72143,-0.01857 -3.315751,0.668604 -4.125577,1.7782087 -0.939797,1.2876874 -1.907844,4.308655 -2.135055,6.6628223 -0.387279,4.0126391 0.19155,6.6940431 1.925958,8.9219539 1.395254,1.7922558 1.6593,1.875409 2.798567,0.8813403 z m 4.578815,-8.2242926 c 0,-2.1729436 -1.239602,-4.0925433 -2.642806,-4.0925433 -0.85275,0 -1.325944,0.4437856 -1.325944,1.2435417 0,0.46795 0.148453,0.6085416 0.642559,0.6085416 0.677149,0 1.473092,0.6167491 1.475584,1.1433784 7.94e-4,0.1715056 0.125471,0.7583144 0.277019,1.30401752 0.222724,0.80198914 0.39996,0.99218752 0.924565,0.99218752 0.593506,0 0.649023,-0.10257367 0.649023,-1.19912344 z m 26.311375,-0.3222308 c -0.10177,-0.8367448 -0.342377,-1.8310966 -0.534681,-2.2096677 -0.663154,-1.3054859 -2.475304,-2.0020333 -3.234193,-1.2431448 -0.575487,0.5754873 -0.339659,1.2747731 0.621075,1.8416191 0.581086,0.3428497 1.18744,1.0448819 1.591959,1.8431616 0.462433,0.91256909 0.812289,1.28938604 1.197128,1.28938604 0.507019,0 0.531249,-0.10276417 0.358712,-1.52135424 z"
       style="fill:#808080;stroke-width:0.26458335;fill-opacity:1" />
    <path
       id="path982"
       d="m -21.040641,155.04279 c -0.691224,-0.0582 -1.256771,-0.21831 -1.256771,-0.35586 0,-0.13755 -0.398079,-0.25009 -0.884621,-0.25009 -1.035473,0 -3.207105,-0.70951 -5.086382,-1.66181 -1.764919,-0.89435 -3.876752,-2.82577 -5.166694,-4.72529 -0.597635,-0.88006 -1.301355,-1.60218 -1.636207,-1.67899 -0.740473,-0.16985 -10.062012,-1.10017 -14.582749,-1.45539 -5.115587,-0.40198 -13.906741,-0.33439 -17.542818,0.13486 -6.580587,0.84925 -10.191353,2.14195 -12.667983,4.53531 -3.837596,3.70857 -8.419473,4.79897 -14.75453,3.51133 -1.478065,-0.30043 -6.259274,-1.71942 -10.624894,-3.15332 -12.37172,-4.06351 -14.99949,-4.78106 -22.29167,-6.08705 -7.54403,-1.35109 -11.31275,-2.67002 -13.15297,-4.60313 -0.69432,-0.72937 -0.78247,-1.00423 -0.76891,-2.39754 0.009,-0.94305 0.13791,-1.6146 0.32121,-1.6757 0.16823,-0.0561 0.30588,-0.24787 0.30588,-0.4262 0,-0.17834 0.42978,-1.03162 0.95506,-1.89619 1.76886,-2.91138 3.0483,-5.68613 3.32255,-7.20568 0.22961,-1.27229 0.14345,-2.41313 -0.54734,-7.24683 -0.45092,-3.15525 -0.81985,-6.33431 -0.81985,-7.06458 0,-3.27036 1.34242,-6.16888 3.5373,-7.63765 l 1.285,-0.8599 4.53416,-0.003 c 4.22389,-0.002 4.62719,-0.0459 5.89363,-0.63558 l 1.35947,-0.63299 1.10216,-2.853424 c 0.60619,-1.569381 1.29631,-3.182104 1.53362,-3.583826 0.35286,-0.597355 0.37437,-0.855702 0.11806,-1.418243 -0.47317,-1.038482 -0.37654,-4.035597 0.20318,-6.302293 0.66476,-2.599172 1.61701,-4.747602 4.12952,-9.316895 5.01535,-9.120997 6.48659,-12.705348 8.82758,-21.506591 1.8445,-6.934594 3.47267,-9.715188 10.873936,-18.570496 6.784512,-8.117395 8.999807,-11.70759 9.928839,-16.091072 0.535694,-2.527583 0.47399,-5.515956 -0.270407,-13.096367 -1.207516,-12.2964947 -1.554615,-22.816839 -0.922803,-27.969503 0.696854,-5.683083 2.64528,-10.473022 5.857542,-14.399968 3.204522,-3.917424 6.629993,-5.818508 12.256088,-6.801884 1.018645,-0.178048 1.937014,-0.449753 2.040818,-0.603789 0.268949,-0.399096 12.065387,-0.384862 12.321959,0.01487 0.104119,0.162214 0.903682,0.382407 1.776807,0.489319 3.228559,0.395327 8.124494,2.337309 11.244792,4.460267 4.888119,3.325732 8.218294,8.051619 10.007931,14.202355 1.614482,5.548763 2.549059,11.606438 3.224771,20.90208369 0.306022,4.20990981 0.336566,4.46160801 1.332449,10.98020831 1.109406,7.261665 1.477238,8.375455 4.762173,14.419792 2.271403,4.179427 9.013237,13.971532 12.2961188,17.859375 2.5498717,3.019754 6.2805313,8.590326 8.00527072,11.95336 C 0.93687655,57.453228 3.8570406,64.20178 4.6429325,66.594815 7.1558287,74.246554 8.0610424,84.84376 6.8160084,92.034669 6.254163,95.280066 5.554348,97.84045 5.5099986,96.813279 5.4421197,95.241215 3.2600982,92.393721 1.0318143,90.96935 -0.89937155,89.734889 -3.9128409,88.856435 -7.6167696,88.44821 -9.4525838,88.245878 -11.00431,88.030639 -11.065047,87.969901 c -0.06074,-0.06074 0.127622,-0.936072 0.418576,-1.945185 1.5470743,-5.365681 2.2602084,-13.756029 1.5951887,-18.768084 -1.0123457,-7.629731 -5.6949447,-14.638446 -10.9841907,-16.440674 -1.207945,-0.411588 -1.274157,-0.407411 -1.794838,0.113273 -0.734081,0.734082 -0.497218,1.161487 1.163574,2.099604 3.848079,2.173629 6.221952,5.036918 7.5857,9.149623 1.36059,4.103185 1.713836,6.807507 1.544613,11.825049 -0.158054,4.686374 -0.557763,6.969443 -2.076511,11.860613 -0.793398,2.555168 -0.911577,2.764689 -1.821106,3.228697 -1.483124,0.756631 -3.83268,3.033432 -5.065657,4.908793 -0.608663,0.925775 -1.123696,1.656726 -1.144516,1.624333 -0.02082,-0.03239 0.05335,-1.011394 0.164814,-2.17556 0.294966,-3.080584 0.280041,-17.609093 -0.0208,-20.240626 -0.433734,-3.794059 -1.659739,-8.877392 -2.944656,-12.20929 -0.455274,-1.180566 -1.756268,-3.531556 -2.952573,-5.335514 -4.773631,-7.198357 -6.224397,-10.516939 -6.697771,-15.320944 -0.165704,-1.68161 -0.443228,-2.356538 -2.918577,-7.097832 -1.504503,-2.881733 -3.099663,-6.156338 -3.544798,-7.276899 -1.538176,-3.872135 -2.707148,-6.205355 -3.10896,-6.205355 -0.216918,0 -1.658866,0.993894 -3.204326,2.208652 -4.592731,3.609964 -8.976027,6.155764 -12.789279,7.42796 -5.580375,1.861754 -12.01179,1.196089 -14.590126,-1.510107 -1.693042,-1.776997 -4.141764,-3.68369 -4.536398,-3.532253 -0.227145,0.08716 -0.395171,0.484087 -0.395171,0.93351 0,1.812981 -0.778666,3.899996 -3.350773,8.98089 -3.153556,6.229477 -4.876057,10.569745 -5.529948,13.934057 -0.406591,2.091928 -0.926857,3.311165 -4.282022,10.034844 -7.031845,14.091664 -8.714152,19.334893 -8.986322,28.007562 -0.14309,4.559319 -0.16283,4.691176 -0.63794,4.26121 -0.95301,-0.862468 -2.07081,-2.919378 -2.50484,-4.609291 -1.05591,-4.111212 0.39868,-11.262053 4.01811,-19.753276 1.488124,-3.49115 2.664443,-5.663967 4.515862,-8.341405 0.776621,-1.123114 1.412039,-2.215721 1.412039,-2.428018 0,-0.337113 -1.341355,-1.218501 -1.854398,-1.218501 -1.014482,0 -7.079903,12.220617 -9.372343,18.883427 -1.16461,3.384838 -1.72585,6.399919 -1.73211,9.305255 -0.0106,4.931302 1.15609,7.632401 4.79085,11.091342 3.122741,2.971699 5.944345,5.143084 11.192001,8.612889 3.751604,2.4806 4.933638,3.44285 8.197305,6.67314 7.123991,7.05113 7.745445,9.31091 3.541057,12.87631 -1.030169,0.87361 -2.243053,1.66253 -2.6953,1.75318 -1.587426,0.31815 -1.748311,0.41654 -1.748311,1.06909 0,1.08058 2.133848,4.57478 3.485949,5.70827 1.590101,1.33302 4.54534,2.68519 7.229676,3.30793 1.740752,0.40383 3.197424,0.49011 8.202084,0.4858 5.737024,-0.005 6.267185,-0.0479 9.260417,-0.75093 9.112181,-2.14009 16.342173,-6.74682 22.391133,-14.26694 l 2.140767,-2.66142 -0.19921,-2.66711 c -0.109567,-1.46691 -0.211143,-4.51258 -0.225729,-6.76815 -0.02304,-3.56231 0.05176,-4.35071 0.569388,-6.00168 0.616564,-1.966526 1.766885,-3.732176 3.052252,-4.684951 1.016016,-0.753121 3.355417,-0.738836 4.827456,0.02948 0.588854,0.307346 1.492816,0.638011 2.008809,0.734812 0.839817,0.157548 1.014669,0.08359 1.66791,-0.705514 1.802476,-2.177373 3.79164,-4.019836 5.025157,-4.654553 1.643121,-0.845484 5.1821321,-1.099585 8.3029086,-0.596149 2.2741785,0.366864 5.81299922,1.591072 6.95975105,2.407629 0.77274745,0.550246 3.14295115,3.670065 3.14295115,4.136959 0,0.14087 0.2282217,0.462661 0.507156,0.715095 0.3888052,0.351861 0.6269699,0.394848 1.020572,0.184197 0.7593066,-0.406368 2.3205627,0.111753 2.9213547,0.969487 0.9999848,1.427648 1.6075396,3.846148 2.5781155,10.262748 0.357778,2.36531 3.788696,5.48187 8.908122,8.09191 2.210091,1.12677 3.373634,1.89665 4.036042,2.67052 0.511897,0.59804 0.930722,1.23459 0.930722,1.41455 0,0.17996 0.148828,0.37717 0.330729,0.43825 0.409636,0.13754 0.424162,3.85979 0.01609,4.12276 -0.150141,0.0968 -0.465085,0.55094 -0.699873,1.00932 -0.663906,1.29613 -2.760144,2.92176 -4.938613,3.82989 -3.490936,1.45527 -8.790884,4.21641 -11.2447917,5.85826 -3.1036975,2.07661 -4.8550964,3.46534 -10.4219802,8.26386 -7.5188739,6.48108 -9.8666221,8.15666 -12.4644791,8.89587 -0.654844,0.18633 -1.250156,0.41806 -1.322917,0.51495 -0.182562,0.24313 -3.300642,0.45186 -4.828646,0.32325 z m 4.585946,-1.94821 c 1.992101,-0.46769 2.741272,-0.81594 5.084551,-2.36355 1.5115148,-0.99828 5.2969298,-4.03514 8.4120336,-6.74858 3.11510373,-2.71345 6.973512,-5.80601 8.5742413,-6.87236 3.3124353,-2.20663 8.5213461,-4.94732 11.7356071,-6.17473 3.826077,-1.46104 5.231183,-2.85119 5.741372,-5.68025 0.446992,-2.47863 -1.945805,-5.27918 -6.335404,-7.41501 -3.228599,-1.57092 -5.089699,-3.27678 -6.343592,-5.81446 -0.9412549,-1.90496 -1.1500403,-2.63164 -2.3146383,-8.0562 -0.7013284,-3.2667 -1.2506034,-4.302061 -2.2810179,-4.299605 -1.0347564,0.0024 -1.6472113,0.485395 -5.5433968,4.371045 -3.9293828,3.91875 -4.9107409,4.67045 -7.1137677,5.44898 -1.320173,0.46653 -2.007288,0.53614 -4.3462043,0.44028 -5.652974,-0.23168 -8.12327,-2.36124 -9.916264,-8.54849 -0.795324,-2.744505 -0.721979,-2.616685 -2.056101,-3.583118 -3.053731,-2.212113 -6.106912,0.209727 -6.800689,5.394438 -0.156165,1.16704 -0.276947,6.98727 -0.276947,13.34553 0,10.69054 -0.08924,12.38209 -0.826826,15.67334 -0.146754,0.65485 -0.330287,2.44078 -0.407852,3.96875 -0.07757,1.52797 -0.367276,4.07887 -0.6438,5.66867 -0.719069,4.13409 -0.696246,4.34027 0.683664,6.17596 3.520917,4.68385 8.883997,6.49937 14.975031,5.06936 z m -70.543698,-1.0109 c 2.902908,-1.02416 6.609276,-4.00321 7.432834,-5.97426 0.569386,-1.36274 0.499314,-5.85876 -0.132066,-8.47362 -1.340361,-5.55112 -3.97568,-10.20356 -11.399777,-20.1254 -2.535942,-3.38912 -5.121527,-7.21873 -6.597548,-9.77188 -3.39154,-5.86653 -5.34006,-8.615431 -7.52117,-10.610564 -2.02427,-1.851676 -4.50562,-3.244625 -6.14862,-3.45164 -1.23726,-0.155893 -3.75609,0.665496 -5.03716,1.642618 -1.14503,0.873355 -2.40813,3.091267 -2.62682,4.612513 -0.48595,3.380253 -1.01661,3.655983 -7.9114,4.110753 -5.98718,0.3949 -6.76747,0.63497 -8.01744,2.4667 -1.81827,2.66454 -2.0138,4.78825 -0.93516,10.15694 0.86552,4.30792 0.9526,7.84683 0.24581,9.98975 -0.26398,0.80037 -1.16961,2.7649 -2.01251,4.36563 -0.8429,1.60073 -1.73196,3.59789 -1.97569,4.43815 -0.42342,1.45973 -0.42106,1.56555 0.0531,2.37737 1.33846,2.29176 4.71197,3.62228 12.50962,4.93383 7.57815,1.27462 12.22881,2.57361 24.20938,6.76196 8.41279,2.94106 9.915324,3.33308 12.303125,3.20992 1.091407,-0.0563 2.694091,-0.35273 3.561522,-0.65877 z M -60.703462,28.130093 c 1.068599,-0.373184 3.040263,-1.25622 4.381479,-1.962301 3.226067,-1.698357 11.85889,-7.470828 13.483709,-9.016092 1.419704,-1.35019 2.269885,-2.902649 2.278801,-4.161166 0.0078,-1.094848 -1.860489,-2.744817 -4.815898,-4.2532353 -1.204362,-0.6146986 -1.976647,-1.1236114 -1.716188,-1.1309218 0.260458,-0.0073 0.956611,0.2331455 1.547005,0.5343419 0.590394,0.301199 1.221814,0.4906963 1.403154,0.4211108 0.197626,-0.075835 0.572366,-1.6139583 0.93543,-3.839464 0.493651,-3.0259973 0.5813,-4.36441596 0.473731,-7.2341318 -0.203851,-5.438365 -1.247982,-7.5748838 -4.494798,-9.1973378 -1.409234,-0.704202 -1.891014,-0.80614 -3.810002,-0.80614 -3.834461,0 -6.224908,1.280882 -7.588814,4.0663441 -0.619588,1.2653592 -0.713227,1.7807967 -0.713227,3.9259643 0,2.4892503 0.613828,5.46189173 1.469533,7.1166409 0.396375,0.7665085 1.879642,1.7384025 2.185815,1.4322319 0.09162,-0.091625 0.17262,-1.6779822 0.179991,-3.52523955 0.01175,-2.94304515 0.086,-3.49589735 0.600131,-4.46780185 0.785908,-1.4856751 2.160519,-2.4958067 3.620265,-2.6603405 1.567865,-0.1767205 2.21507,0.017092 3.607493,1.0802805 1.005057,0.7674187 1.262978,1.1736547 1.7961,2.8289489 0.676302,2.09984714 0.806672,4.6720152 0.312674,6.1688505 -0.341341,1.0342695 -1.424273,2.1398759 -2.490689,2.5428364 -0.571736,0.2160402 -0.723633,0.4146047 -0.620083,0.8105828 0.07543,0.2884487 0.109617,0.5244518 0.07597,0.5244518 -0.233212,0 -4.244425,-1.4546448 -6.780364,-2.4588603 -5.331772,-2.1113512 -8.832903,-2.8368308 -11.146071,-2.3096088 -2.011288,0.4584171 -7.655433,3.2200771 -9.74126,4.7663683 -2.978129,2.2077759 -5.311449,5.0944996 -5.286245,6.5399976 0.01582,0.908034 1.314863,2.599227 2.962513,3.85686 2.209345,1.686372 6.046351,3.567507 8.009438,3.926713 4.891003,0.894961 11.264493,-1.202057 18.642423,-6.133766 2.620145,-1.751413 3.281514,-2.087563 3.595135,-1.827284 0.211373,0.175426 0.384318,0.411816 0.384318,0.525309 0,0.326906 -4.868633,3.362378 -7.651658,4.770622 -5.412788,2.738933 -8.517155,3.550635 -12.83289,3.35543 -3.839128,-0.173648 -7.139324,-1.361598 -10.538461,-3.793455 -1.455853,-1.041567 -1.520743,-1.059582 -1.520743,-0.422209 0,0.908658 1.524368,2.842509 4.525984,5.741771 4.376037,4.226816 6.586623,5.245997 10.952142,5.049435 1.650005,-0.07429 2.977888,-0.315579 4.32416,-0.785736 z M -69.918363,6.204027 c 0.0021,-0.3274219 0.09153,-0.71501 0.198437,-0.8613061 0.178433,-0.2441628 1.844363,-0.9246315 2.263694,-0.9246315 0.365797,0 0.160244,0.5899177 -0.51321,1.4728614 -0.833599,1.0929065 -1.955454,1.2731221 -1.948921,0.3130762 z m 6.443276,-0.4683998 c -0.818364,-1.2366308 -0.700653,-1.5220501 0.433893,-1.0521025 1.456561,0.6033241 2.119755,2.1158148 0.927743,2.1158148 -0.474757,0 -0.853509,-0.2958809 -1.361636,-1.0637123 z m -13.978644,1.6947409 c 0.874802,-0.5731933 0.81938,-1.1954113 -0.155916,-1.7504596 -2.229353,-1.2687353 -2.809748,-7.1120027 -0.9807,-9.8733664 1.440202,-2.1743062 3.677823,-2.5445059 5.38406,-0.8907542 1.00063,0.9698487 1.960956,4.0290407 1.960956,6.2467756 0,1.8314326 0.525474,2.2587638 1.351333,1.0989521 0.536306,-0.7531708 0.610659,-1.1741388 0.621139,-3.5166962 0.01677,-3.747987 -0.236548,-4.8920824 -1.503103,-6.7887639 -1.480151,-2.2165385 -2.968792,-3.1483825 -5.029626,-3.1483825 -1.847224,0 -3.320331,0.663389 -4.254157,1.9157866 -2.324581,3.1176066 -3.127507,9.77038798 -1.615839,13.3883217 0.633351,1.5158191 2.443059,3.7458915 3.0398,3.7458915 0.291447,0 0.823371,-0.1922859 1.182053,-0.4273047 z m 4.567984,-7.29852873 c 0.851125,-0.85112491 -0.133194,-4.00759617 -1.577698,-5.05928587 -0.88542,-0.6446441 -1.972931,-0.4252039 -2.386033,0.481457 -0.364922,0.8009176 0.03693,1.3866257 1.033388,1.5061857 0.568534,0.068215 0.745855,0.3022441 1.06439,1.4047681 0.556199,1.92515074 1.111565,2.42126302 1.865953,1.66687507 z m 26.614478,0.0999437 c 0.07395,-0.11965781 0.02698,-0.98286095 -0.10437,-1.91822917 -0.211079,-1.503053 -0.362051,-1.8159678 -1.299223,-2.6928604 -1.189432,-1.1129275 -1.711902,-1.2071351 -2.658875,-0.479425 -0.602594,0.4630684 -0.623957,0.5533019 -0.2822,1.1918817 0.203365,0.3799867 0.658533,0.7633653 1.011489,0.8519505 0.431038,0.1081828 0.829072,0.5619115 1.212295,1.381924 0.313804,0.67147019 0.665051,1.36968445 0.780552,1.55158549 0.235768,0.37130832 1.133925,0.44714584 1.340332,0.11317288 z"
       style="fill:#808080;stroke-width:0.26458335;fill-opacity:1" />
    <path
       id="path980"
       d="m -21.106787,154.97274 -1.322917,-0.18818 1.190625,-0.0721 c 0.938927,-0.0569 0.647656,-0.14145 -1.377828,-0.40007 -4.45148,-0.56837 -8.198139,-2.79403 -10.561159,-6.27374 -0.585293,-0.86188 -1.32338,-1.6649 -1.640194,-1.7845 -0.316815,-0.1196 -3.135871,-0.47334 -6.264569,-0.7861 -15.603591,-1.55979 -24.082297,-1.48508 -31.220835,0.2751 -3.923721,0.96749 -5.801447,1.85634 -7.563054,3.58007 -1.784363,1.746 -4.584113,3.32467 -6.671323,3.76172 -2.145102,0.44917 -5.373987,0.35143 -8.345938,-0.25264 -1.478066,-0.30043 -6.259271,-1.71942 -10.624891,-3.15332 -12.35419,-4.05775 -15.00386,-4.78185 -22.24071,-6.07791 -7.8729,-1.40997 -11.97627,-2.94663 -12.90613,-4.83318 -0.33153,-0.67262 -0.43404,-0.74862 -0.45634,-0.33832 -0.0204,0.37468 -0.0996,0.29744 -0.27129,-0.26458 -0.13339,-0.43657 -0.16155,-1.32953 -0.0626,-1.98438 0.15751,-1.04214 0.2038,-1.10813 0.37119,-0.52916 l 0.19123,0.66145 0.0295,-0.66145 c 0.0162,-0.36381 0.44304,-1.37584 0.94844,-2.24896 1.88645,-3.25901 3.07176,-5.75601 3.4697,-7.30931 0.39424,-1.53888 0.37753,-1.83046 -0.43554,-7.59654 -1.06961,-7.58543 -1.01543,-9.5437 0.33211,-12.00416 0.58578,-1.06956 1.31378,-1.94885 2.03571,-2.45874 l 1.12383,-0.79375 4.8073,-0.1323 c 4.4591,-0.1227 4.90247,-0.1802 6.12125,-0.79375 1.30063,-0.65475 1.32622,-0.6923 2.52326,-3.704162 0.66512,-1.67349 1.37689,-3.301778 1.58172,-3.618418 0.29872,-0.461791 0.30989,-0.712933 0.0564,-1.26922 -0.43553,-0.955871 -0.3894,-4.160462 0.0891,-6.190311 0.5324,-2.258523 1.60996,-4.652605 4.30268,-9.559552 4.85005,-8.838229 6.4056,-12.663053 8.66229,-21.298958 1.73311,-6.632295 3.64307,-9.877703 10.977559,-18.653126 6.867999,-8.217283 8.921507,-11.604215 9.935351,-16.38677 0.52288,-2.466563 0.468016,-4.950209 -0.276919,-12.5360858 -1.209902,-12.320802 -1.56423,-23.3065752 -0.91917,-28.4986692 0.681326,-5.484026 2.580648,-10.115875 5.747346,-14.015976 3.646667,-4.491233 7.397797,-6.237205 15.537651,-7.232037 0.60566,-0.07402 0.511617,-0.115232 -0.396875,-0.173906 l -1.190625,-0.0769 1.455208,-0.201164 c 1.857738,-0.256808 8.798074,-0.303528 10.186459,-0.06857 0.943936,0.159743 0.986835,0.197428 0.396875,0.348646 -0.466995,0.119699 0.03861,0.268121 1.719792,0.504851 5.061289,0.712688 10.131002,3.022667 14.236986,6.48698 1.551377,1.308933 3.660918,4.058356 5.289839,6.894389 2.553438,4.445669 4.286266,13.016984 5.215252,25.7968753 0.305467,4.2022476 0.335204,4.447765 1.329939,10.9802086 0.744445,4.8887721 1.139415,6.6678731 2.026497,9.1281251 0.654841,1.81615 3.868693,7.719018 5.674111,10.421615 3.568873,5.342371 7.457748,10.740988 9.3601945,12.99401 2.7101722,3.209595 6.3598851,8.723594 8.2778074,12.506138 5.701107,11.243773 7.7251087,19.015398 7.7226877,29.653032 -0.00106,4.429215 -0.3664399,8.030882 -1.089324,10.736265 L 5.7038376,96.318336 5.2169699,95.23088 C 4.6332064,93.927003 2.8704649,91.960384 1.3444301,90.910443 -0.40908274,89.703996 -4.1587896,88.577898 -7.548089,88.239879 c -1.6364507,-0.163208 -3.06342,-0.372009 -3.171047,-0.46401 -0.107625,-0.092 0.04325,-0.995992 0.335288,-2.008878 1.533231,-5.317834 2.2407084,-13.387507 1.5996256,-18.245775 -0.4255585,-3.224988 -1.8893446,-7.495276 -3.4010626,-9.921876 -2.380263,-3.820787 -5.860624,-6.714154 -8.502537,-7.06851 -0.881255,-0.1182 -1.088279,-0.04463 -1.456711,0.517668 -0.589714,0.900014 -0.370917,1.273974 1.239232,2.118037 4.900462,2.568892 7.609065,6.788079 8.820814,13.74017 0.33388,1.915538 0.398304,3.501014 0.288377,7.096802 -0.149846,4.901505 -0.691784,8.002053 -2.180436,12.474769 -0.580321,1.743591 -0.788366,2.07128 -1.50295,2.367269 -0.863648,0.357735 -4.242726,3.530333 -5.127977,4.814628 -0.506436,0.734725 -0.508775,0.687631 -0.408279,-8.2174 0.103315,-9.15453 -0.08682,-12.528918 -0.914627,-16.232423 -1.544339,-6.909155 -2.568202,-9.572877 -5.213432,-13.563487 -2.8407,-4.28549 -5.569768,-9.253061 -5.977123,-10.879815 -0.1822,-0.727604 -0.492776,-2.513541 -0.690174,-3.96875 -0.348684,-2.570501 -0.435835,-2.79273 -3.060978,-7.805208 -1.486143,-2.837656 -3.281418,-6.566564 -3.989499,-8.286459 -1.721519,-4.181478 -2.268082,-5.207291 -2.774505,-5.207291 -0.23421,0 -1.690307,0.993894 -3.235767,2.208651 -4.434502,3.485595 -9.318374,6.343391 -12.895499,7.545796 -5.382107,1.809128 -11.858125,1.067816 -14.487335,-1.658372 -1.435764,-1.48872 -4.057928,-3.598159 -4.472739,-3.598159 -0.484743,0 -0.719984,0.553292 -0.719984,1.693411 0,1.582129 -0.822608,3.702232 -3.326202,8.5726 -2.782647,5.413227 -4.865738,10.701214 -5.543127,14.071391 -0.380375,1.892454 -1.028202,3.398182 -4.128354,9.59543 -4.020418,8.036875 -5.080607,10.439675 -6.614833,14.991774 -1.71453,5.087077 -2.39188,8.601006 -2.58007,13.38477 l -0.16654,4.233334 -1.10392,-1.664269 c -1.64617,-2.481776 -1.97581,-4.660876 -1.39989,-9.253942 0.80269,-6.401573 4.657034,-16.16649 8.60503,-21.800704 0.792681,-1.13124 1.441239,-2.227456 1.441239,-2.436038 0,-0.357986 -1.609397,-1.489839 -2.118421,-1.489839 -0.41301,0 -2.539141,3.219344 -3.827028,5.794809 -1.77905,3.557653 -4.69169,10.327968 -5.67265,13.185815 -2.41114,7.024444 -2.49638,12.087145 -0.28021,16.642823 1.42665,2.932679 6.712816,7.545375 14.697201,12.824729 3.889235,2.57161 4.889712,3.39316 8.287613,6.80543 4.121605,4.13905 5.846829,6.55413 5.846829,8.18477 0,1.26692 -0.828972,2.68597 -2.277158,3.89808 -1.92074,1.60764 -2.148422,1.74296 -3.489669,2.07403 -1.608072,0.39693 -1.695382,0.93246 -0.535755,3.28611 1.747509,3.54686 4.810879,5.70961 9.927016,7.0085 2.070682,0.52571 2.988271,0.59104 8.281816,0.58959 5.602962,-0.002 6.139879,-0.0456 9.128125,-0.74874 9.507538,-2.23727 16.539232,-6.67057 22.802148,-14.37617 l 2.068687,-2.54522 -0.06443,-2.27426 c -0.252293,-8.90511 -0.195228,-11.81516 0.260565,-13.28725 0.524327,-1.693457 1.852975,-3.786719 2.882495,-4.541326 1.16178,-0.851549 2.852328,-0.887625 4.577776,-0.09769 2.889753,1.322972 2.888925,1.323189 5.42443,-1.435373 3.039041,-3.306394 4.35737,-3.94649 8.128704,-3.946784 3.090267,-2.41e-4 5.8583035,0.476906 8.2202232,1.416981 2.38819274,0.950532 3.0538262,1.519066 4.7327742,4.042371 1.4187409,2.132234 1.5511702,2.254739 2.316033,2.142482 1.2006898,-0.176223 2.4338413,0.254915 2.9404099,1.028036 0.7535493,1.150063 1.4167248,3.423893 1.8650374,6.394643 0.5956643,3.9472 0.8817163,4.95547 1.7433213,6.14489 1.178721,1.62717 4.593429,4.15131 7.772665,5.74552 3.01471,1.5117 4.743447,2.94912 5.059026,4.20649 0.113472,0.4521 0.237379,0.57018 0.371166,0.35371 0.34176,-0.55297 0.585375,1.24575 0.370112,2.73272 -0.168277,1.16241 -0.229994,1.27476 -0.393864,0.71695 -0.131156,-0.44645 -0.20289,-0.50753 -0.220691,-0.1879 -0.103381,1.85629 -2.48198,4.11782 -5.765266,5.48152 -3.501782,1.45446 -8.300797,3.95446 -10.797567,5.6249 -3.1140401,2.08342 -4.8719213,3.47834 -10.4140031,8.26377 -8.1504259,7.03766 -10.9852889,8.90854 -14.1922479,9.36621 -1.323562,0.18889 -1.415209,0.23192 -0.551214,0.25882 0.569954,0.0178 0.986673,0.0771 0.926041,0.13198 -0.250581,0.22664 -3.645342,0.34619 -4.872744,0.1716 z m 4.757809,-1.7187 c 2.190099,-0.55556 2.966358,-0.91304 5.173734,-2.38255 1.4283642,-0.9509 5.1359124,-3.94045 8.2389935,-6.64345 3.10308104,-2.703 6.9516521,-5.78756 8.5523814,-6.85457 3.2403231,-2.15994 9.0046521,-5.19868 12.0385421,-6.34626 2.24201,-0.84806 3.953079,-1.92011 4.571815,-2.86442 0.230434,-0.35169 0.614701,-1.31273 0.85393,-2.13564 0.403746,-1.38885 0.403658,-1.59046 -0.0013,-2.80945 -0.615995,-1.85459 -3.035298,-4.01803 -6.262852,-5.60049 -4.838555,-2.37238 -6.765555,-5.09945 -8.00911,-11.33454 -1.233731,-6.18582 -1.7000432,-7.093668 -3.472794,-6.7611 -0.7790471,0.146151 -1.6324845,0.84727 -4.44020589,3.64774 -4.26263081,4.25163 -5.56038571,5.29311 -7.51442891,6.03051 -1.325372,0.50015 -1.914832,0.5599 -4.5646152,0.46267 -2.769196,-0.10163 -3.188182,-0.18594 -4.661038,-0.93797 -0.890082,-0.45447 -1.939121,-1.20755 -2.331199,-1.6735 -1.070946,-1.27275 -2.197182,-3.67025 -2.809531,-5.98085 -0.457579,-1.726606 -0.719476,-2.222599 -1.604,-3.03772 -0.581419,-0.5358 -1.417439,-1.053319 -1.857822,-1.150043 -2.083551,-0.457626 -4.084037,0.814776 -4.959408,3.154413 -0.921089,2.46184 -1.091587,5.08059 -1.091587,16.76626 0,10.6631 -0.08901,12.36398 -0.818893,15.64736 -0.142391,0.64056 -0.319693,2.30743 -0.394004,3.70417 -0.07431,1.39674 -0.394274,4.17735 -0.711036,6.17915 -0.575339,3.63591 -0.575395,3.64061 -0.0536,4.61749 0.889731,1.66572 3.902438,4.45663 5.77608,5.35083 3.564922,1.70138 6.377916,1.96006 10.351971,0.95196 z m -70.754933,-0.93127 c 3.254764,-1.08093 7.216828,-4.37093 7.863629,-6.52976 0.487867,-1.62835 0.393512,-5.46238 -0.194821,-7.91623 -1.420223,-5.92354 -3.881223,-10.32106 -11.397716,-20.36638 -2.509018,-3.35314 -5.12295,-7.2212 -6.561778,-9.71002 -1.315326,-2.27519 -3.017233,-5.06548 -3.782013,-6.20064 -2.68363,-3.983342 -5.86047,-6.764227 -8.87232,-7.766505 l -1.77083,-0.589294 -1.87164,0.595607 c -1.0294,0.327583 -2.27112,0.895657 -2.75936,1.262388 -1.24156,0.93255 -2.34259,2.781038 -2.70053,4.53382 -0.74532,3.649674 -0.85397,3.709674 -7.52425,4.154924 -6.27129,0.41861 -7.15057,0.68736 -8.42908,2.57629 -1.07333,1.58579 -1.76004,3.72447 -1.75119,5.45383 0.003,0.66481 0.29763,2.68428 0.65385,4.48771 1.3992,7.08381 1.22944,8.89188 -1.30689,13.91896 -3.07113,6.08707 -3.19629,6.99391 -1.22724,8.89181 1.12736,1.08663 1.68329,1.37671 4.16719,2.1744 1.58595,0.50932 5.0527,1.28772 7.76107,1.74263 7.54254,1.26686 11.89392,2.4784 23.8125,6.63007 10.725511,3.73607 11.999281,3.94899 15.891419,2.65639 z M -60.570766,28.259107 c 3.207994,-1.104437 5.906233,-2.589845 11.594156,-6.382706 5.529641,-3.687312 7.680317,-5.600737 8.282877,-7.369154 0.22256,-0.653174 0.404654,-1.400362 0.404654,-1.660416 0,-0.640694 -1.355217,-2.139601 -2.799342,-3.0961491 -0.65201,-0.431874 -1.048671,-0.8308234 -0.88147,-0.8865579 0.1672,-0.055734 0.593412,-1.7635008 0.947139,-3.7950378 0.8724,-5.01043587 0.772914,-9.890993 -0.25867,-12.6895386 -1.617128,-4.3870566 -6.498648,-6.3154456 -11.443414,-4.5205916 -2.157048,0.782966 -3.129789,1.663287 -4.1181,3.7268416 -0.656077,1.3698643 -0.760338,1.9008275 -0.760518,3.8730053 -2.36e-4,2.5809072 0.943467,6.4235489 1.902388,7.7462778 0.406411,0.5606044 0.448982,0.7290726 0.155805,0.6165691 -1.024136,-0.3929989 -4.200379,-1.2505717 -5.683017,-1.5343929 -1.390711,-0.2662211 -1.918377,-0.2458296 -3.468529,0.1340565 -1.962883,0.4810284 -7.302529,2.9357797 -8.693052,3.9963831 -1.025123,0.7818994 -1.147138,0.795073 -1.147138,0.1238541 0,-0.3124305 -0.317966,-0.6868001 -0.791155,-0.9314947 -1.082691,-0.5598795 -1.814811,-2.1256731 -2.018464,-4.3169126 -0.230052,-2.4752645 0.04179,-4.0221086 0.942539,-5.3632921 1.397047,-2.0801542 3.309001,-2.4559922 4.931214,-0.9693461 1.090062,0.9989688 1.962949,3.633478 1.962949,5.92448926 0,1.76511744 0.184084,2.21017844 0.914165,2.21017844 1.032586,0 1.602062,-1.7564048 1.584417,-4.8867326 -0.01894,-3.3586897 -0.530391,-5.0998015 -2.071161,-7.0506194 -1.388028,-1.7574258 -2.94635,-2.6147318 -4.752787,-2.6147318 -2.306696,0 -3.984374,1.051986 -5.063403,3.1750002 -1.801066,3.543644 -2.299171,8.27584933 -1.225386,11.6416669 0.691724,2.1682366 2.647813,4.7625001 3.590952,4.7625001 0.353083,0 0.715557,-0.1190625 0.805495,-0.2645834 0.08994,-0.1455208 0.24984,-0.2645833 0.35534,-0.2645833 0.1055,0 -0.654418,0.8632031 -1.688703,1.9182292 -1.229447,1.2540983 -2.045399,2.3503463 -2.356736,3.1663293 -0.476152,1.247945 -0.476129,1.248265 0.184377,2.513542 1.043308,1.998581 5.121312,4.873742 8.734333,6.158063 0.762286,0.270971 1.227212,0.501373 1.033174,0.512004 -1.003424,0.05499 -5.868548,-2.312498 -7.897778,-3.84324 -1.054709,-0.795618 -1.406716,-0.802045 -1.406716,-0.02569 0,1.045049 1.394532,2.847896 4.658641,6.022673 3.274578,3.184965 4.650126,4.076682 7.512193,4.869882 2.157899,0.598043 5.151752,0.364693 8.028731,-0.62578 z m -9.94696,-6.289162 c 0.181901,-0.0734 0.479557,-0.0734 0.661458,0 0.181901,0.0734 0.03307,0.133453 -0.330729,0.133453 -0.363802,0 -0.51263,-0.06005 -0.330729,-0.133453 z m 5.622396,-0.235855 c 4.16909,-0.894562 8.538102,-2.932851 13.443823,-6.271993 2.01661,-1.372629 2.805634,-1.779551 3.025072,-1.560113 0.362762,0.362762 0.529111,0.214535 -2.181395,1.943769 -5.960943,3.802939 -12.122902,6.354218 -15.163814,6.278386 -0.582342,-0.01453 -0.311041,-0.135279 0.876314,-0.390049 z M -51.533871,6.1587118 c -0.873125,-0.3371824 -2.153047,-0.832911 -2.844271,-1.1016192 -1.097312,-0.4265718 -1.654908,-0.9035865 -1.056228,-0.9035865 0.110297,0 0.199594,-1.5775781 0.198438,-3.50572922 -0.0019,-3.13282278 0.0613,-3.62438158 0.593989,-4.62120198 1.370063,-2.563802 4.169212,-3.2325946 6.584911,-1.5733157 1.721152,1.1822112 2.530949,3.2463608 2.531626,6.45303412 5.29e-4,2.51149648 -0.443037,3.54688518 -1.92173,4.48578028 -0.501454,0.3183996 -1.120095,0.7652888 -1.374756,0.9930871 -0.592598,0.5300875 -0.797171,0.513006 -2.711979,-0.2264489 z m 5.386094,-5.68037144 c 0.229071,-0.14514778 0.307348,-0.50279037 0.21627,-0.98813675 -0.07851,-0.41836182 -0.21617,-1.20968561 -0.305917,-1.75850021 -0.180205,-1.1020055 -1.47108,-2.7553339 -2.43845,-3.1231285 -0.77534,-0.2947829 -2.461122,0.4508923 -2.461122,1.0886334 0,0.547415 1.167953,1.8417144 1.66193,1.8417144 0.200355,0 0.646586,0.6027314 0.991624,1.3394002 0.785727,1.67756419 1.471678,2.1474642 2.335665,1.60001746 z M -69.65783,5.9920878 c 0,-0.3731975 0.298121,-0.6672289 0.95464,-0.941541 1.215221,-0.5077513 1.359278,-0.3486626 0.606401,0.6696604 -0.697484,0.9433957 -1.561041,1.0937981 -1.561041,0.2718806 z m 6.391082,-0.3102795 c -0.297027,-0.4691222 -0.498375,-0.8946198 -0.447445,-0.9455521 0.191513,-0.1915107 1.671883,0.7381319 1.829509,1.1488949 0.23613,0.6153468 0.218263,0.649605 -0.338831,0.649605 -0.278783,0 -0.744024,-0.3803808 -1.043233,-0.8529478 z m -9.45269,-5.38365978 c 1.266878,-1.26687794 -0.503439,-5.30331632 -2.547475,-5.80840332 -0.556784,-0.1375833 -0.863081,-0.027712 -1.389062,0.4982686 -0.371123,0.3711258 -0.674772,0.850273 -0.674772,1.064776 0,0.583909 0.751273,1.2215495 1.43924,1.2215495 0.516028,0 0.674071,0.2365587 1.047713,1.5682093 0.526045,1.87480841 1.225728,2.3542281 2.124356,1.45559992 z"
       style="fill:#808080;stroke-width:0.26458335;fill-opacity:1" />
  </g>
</svg>
