<?xml version="1.0" encoding="UTF-8" standalone="no"?>
<svg
   xmlns:dc="http://purl.org/dc/elements/1.1/"
   xmlns:cc="http://creativecommons.org/ns#"
   xmlns:rdf="http://www.w3.org/1999/02/22-rdf-syntax-ns#"
   xmlns:svg="http://www.w3.org/2000/svg"
   xmlns="http://www.w3.org/2000/svg"
   xmlns:sodipodi="http://sodipodi.sourceforge.net/DTD/sodipodi-0.dtd"
   xmlns:inkscape="http://www.inkscape.org/namespaces/inkscape"
   viewBox="0 0 37.997604 37.987534"
   width="47.497005"
   height="47.484417"
   version="1.1"
   id="svg10"
   sodipodi:docname="low-priority-50.svg"
   inkscape:version="1.0.2 (1.0.2+r75+1)">
  <metadata
     id="metadata16">
    <rdf:RDF>
      <cc:Work
         rdf:about="">
        <dc:format>image/svg+xml</dc:format>
        <dc:type
           rdf:resource="http://purl.org/dc/dcmitype/StillImage" />
        <dc:title></dc:title>
      </cc:Work>
    </rdf:RDF>
  </metadata>
  <defs
     id="defs14" />
  <sodipodi:namedview
     pagecolor="#ffffff"
     bordercolor="#666666"
     borderopacity="1"
     objecttolerance="10"
     gridtolerance="10"
     guidetolerance="10"
     inkscape:pageopacity="0"
     inkscape:pageshadow="2"
     inkscape:window-width="1920"
     inkscape:window-height="1025"
     id="namedview12"
     showgrid="false"
     inkscape:zoom="3.1678384"
     inkscape:cx="19.488723"
     inkscape:cy="-56.5205"
     inkscape:window-x="0"
     inkscape:window-y="27"
     inkscape:window-maximized="1"
     inkscape:current-layer="svg10" />
  <path
     style="fill:#000000;stroke-width:0.016"
     d="m 18.74263,37.982411 c -0.339874,-0.0492 -0.539096,-0.09885 -0.774878,-0.19313 -0.164272,-0.06568 -0.431408,-0.215475 -0.58538,-0.328244 C 17.257008,37.369217 0.76173732,20.890632 0.60412232,20.699755 c -0.312475,-0.378414 -0.515086,-0.851683 -0.581496,-1.35829 -0.09643,-0.735593 0.11871,-1.496673 0.581496,-2.057118 C 0.76173732,17.09347 17.257008,0.61488262 17.382372,0.52306462 c 0.334402,-0.244918 0.730023,-0.413113 1.160258,-0.493275 0.214726,-0.04001 0.699227,-0.03965 0.92,6.73e-4 0.423096,0.07728 0.812696,0.244009 1.153805,0.493761 0.123905,0.09072 16.620758,16.57126938 16.776702,16.76012338 0.312475,0.378414 0.515087,0.851683 0.581496,1.35829 0.09258,0.706238 -0.09687,1.418051 -0.528963,1.987492 -0.08763,0.115476 -2.190216,2.226453 -8.417918,8.451495 -4.990287,4.988152 -8.345072,8.32975 -8.411317,8.378253 -0.339781,0.24878 -0.738877,0.41943 -1.153805,0.493356 -0.137387,0.02448 -0.617939,0.04395 -0.72,0.02918 z m 3.760016,-14.99441 -2.504016,-0.004 v -6.572638 c 0,-7.2885884 0.01003,-6.6435044 -0.107085,-6.8833004 -0.07738,-0.158439 -0.270278,-0.353822 -0.420915,-0.426346 -0.287354,-0.138347 -0.570328,-0.152393 -0.848,-0.04209 -0.292467,0.116177 -0.521994,0.377861 -0.59976,0.683789 -0.02146,0.08442 -0.02424,0.8492994 -0.02424,6.6680004 v 6.572638 h -2.507984 -2.507984 l 3.007968,3.008 3.007968,3.008 3.004032,-3.004 3.004034,-3.004 z"
     id="path78" />
</svg>
