<?xml version="1.0" encoding="UTF-8" standalone="no"?>
<svg
   xmlns:dc="http://purl.org/dc/elements/1.1/"
   xmlns:cc="http://creativecommons.org/ns#"
   xmlns:rdf="http://www.w3.org/1999/02/22-rdf-syntax-ns#"
   xmlns:svg="http://www.w3.org/2000/svg"
   xmlns="http://www.w3.org/2000/svg"
   xmlns:sodipodi="http://sodipodi.sourceforge.net/DTD/sodipodi-0.dtd"
   xmlns:inkscape="http://www.inkscape.org/namespaces/inkscape"
   viewBox="0 0 38.000455 29.99476"
   width="47.500568"
   height="37.49345"
   version="1.1"
   id="svg14"
   sodipodi:docname="memory-slot-50.svg"
   inkscape:export-filename="/code/flanksource/karina-ui/src/assets/svg/webfont-icon-source/memory-slot-50.png"
   inkscape:export-xdpi="4800"
   inkscape:export-ydpi="4800"
   inkscape:version="1.0.2 (1.0.2+r75+1)">
  <metadata
     id="metadata20">
    <rdf:RDF>
      <cc:Work
         rdf:about="">
        <dc:format>image/svg+xml</dc:format>
        <dc:type
           rdf:resource="http://purl.org/dc/dcmitype/StillImage" />
      </cc:Work>
    </rdf:RDF>
  </metadata>
  <defs
     id="defs18" />
  <sodipodi:namedview
     pagecolor="#ffffff"
     bordercolor="#666666"
     borderopacity="1"
     objecttolerance="10"
     gridtolerance="10"
     guidetolerance="10"
     inkscape:pageopacity="0"
     inkscape:pageshadow="2"
     inkscape:window-width="1920"
     inkscape:window-height="1025"
     id="namedview16"
     showgrid="false"
     inkscape:zoom="3.1678384"
     inkscape:cx="-35.741927"
     inkscape:cy="16.385694"
     inkscape:window-x="0"
     inkscape:window-y="27"
     inkscape:window-maximized="1"
     inkscape:current-layer="svg14" />
  <path
     style="fill:#000000;stroke-width:0.016"
     d="m 0.004354,15.84676 c 0.0044,-13.3691855 0.0061,-14.1541655 0.03239,-14.2600005 0.104201,-0.420085 0.276945,-0.732462 0.558963,-1.010787 0.290309,-0.286507 0.639761,-0.470916 1.04419,-0.551027 0.167203,-0.03312 34.551197,-0.03333 34.719997,-2.12e-4 0.27704,0.05435 0.57084,0.178128 0.78961,0.33266 0.0585,0.04134 0.16865,0.13563 0.24475,0.209543 0.28731,0.279087 0.46335,0.594703 0.5688,1.019823 0.0263,0.105835 0.028,0.890815 0.0324,14.2600005 l 0.005,14.148 h -8.99968 -8.99967 l -0.005,-2.1 c -0.005,-1.961429 -0.007,-2.106334 -0.0335,-2.196 -0.13802,-0.463522 -0.45947,-0.696 -0.96238,-0.696 -0.50291,0 -0.82436,0.232478 -0.96238,0.696 -0.0267,0.08967 -0.0289,0.234571 -0.0335,2.196 l -0.005,2.1 H 8.999674 0 Z m 3.99184,11.544 -0.004,-1.612 -0.0437,-0.119638 c -0.0892,-0.244301 -0.26593,-0.442828 -0.4985,-0.559858 -0.29389,-0.147882 -0.60535,-0.148094 -0.89846,-6.24e-4 -0.22855,0.114997 -0.39437,0.296816 -0.49346,0.541058 l -0.0499,0.123056 -0.004,1.62 -0.004,1.62 h 1.00067 1.00066 l -0.004,-1.612 z m 3.0037,0.012 v -1.592 l -0.049,-0.136707 c -0.0608,-0.169687 -0.13935,-0.289717 -0.26915,-0.411141 -0.12305,-0.11511 -0.2079,-0.165909 -0.37165,-0.222507 -0.10677,-0.0369 -0.15339,-0.04375 -0.30224,-0.0444 -0.27463,-0.0012 -0.48714,0.07949 -0.68024,0.25827 -0.13768,0.127476 -0.21676,0.246543 -0.2788,0.419775 l -0.049,0.136707 -0.004,1.575278 c -0.003,0.866404 -8.6e-4,1.584658 0.003,1.596122 0.007,0.01688 0.19761,0.02006 1.00445,0.01672 l 0.99646,-0.0041 z m 2.9963,-0.012 -0.004,-1.612 -0.0437,-0.119638 c -0.0892,-0.244301 -0.26593,-0.442828 -0.4985,-0.559858 -0.29389,-0.147882 -0.60535,-0.148094 -0.89846,-6.24e-4 -0.22855,0.114997 -0.39437,0.296816 -0.49346,0.541058 l -0.0499,0.123056 -0.004,1.62 -0.004,1.62 h 1.00067 1.00066 l -0.004,-1.612 z m 3.0037,0.012 v -1.592 l -0.049,-0.136707 c -0.0608,-0.169687 -0.13935,-0.289717 -0.26915,-0.411141 -0.12305,-0.11511 -0.2079,-0.165909 -0.37165,-0.222507 -0.10677,-0.0369 -0.15339,-0.04375 -0.30224,-0.0444 -0.27463,-0.0012 -0.48714,0.07949 -0.68024,0.25827 -0.13768,0.127476 -0.21676,0.246543 -0.2788,0.419775 l -0.049,0.136707 -0.004,1.575278 c -0.003,0.866404 -8.6e-4,1.584658 0.003,1.596122 0.007,0.01688 0.19761,0.02006 1.00445,0.01672 l 0.99646,-0.0041 z m 2.9963,-0.012 -0.004,-1.612 -0.0437,-0.119638 c -0.0892,-0.244301 -0.26593,-0.442828 -0.4985,-0.559858 -0.29389,-0.147882 -0.60535,-0.148094 -0.89846,-6.24e-4 -0.22855,0.114997 -0.39437,0.296816 -0.49346,0.541058 l -0.0499,0.123056 -0.004,1.62 -0.004,1.62 h 1.00067 1.00067 l -0.004,-1.612 z m 8,0 -0.004,-1.612 -0.0437,-0.119638 c -0.0892,-0.244301 -0.26593,-0.442828 -0.4985,-0.559858 -0.29389,-0.147882 -0.60535,-0.148094 -0.89846,-6.24e-4 -0.22855,0.114997 -0.39437,0.296816 -0.49346,0.541058 l -0.0499,0.123056 -0.004,1.62 -0.004,1.62 h 1.00067 1.00066 l -0.004,-1.612 z m 3.0037,0.012 v -1.592 l -0.049,-0.136707 c -0.0608,-0.169687 -0.13935,-0.289717 -0.26915,-0.411141 -0.12305,-0.11511 -0.2079,-0.165909 -0.37165,-0.222507 -0.10677,-0.0369 -0.15339,-0.04375 -0.30224,-0.0444 -0.27463,-0.0012 -0.48714,0.07949 -0.68024,0.25827 -0.13768,0.127476 -0.21676,0.246543 -0.2788,0.419775 l -0.049,0.136707 -0.004,1.575278 c -0.002,0.866404 -8.5e-4,1.584658 0.003,1.596122 0.007,0.01688 0.19761,0.02006 1.00445,0.01672 l 0.99645,-0.0041 z m 2.9963,-0.012 -0.004,-1.612 -0.0437,-0.119638 c -0.0892,-0.244301 -0.26593,-0.442828 -0.4985,-0.559858 -0.29389,-0.147882 -0.60535,-0.148094 -0.89846,-6.24e-4 -0.22855,0.114997 -0.39437,0.296816 -0.49346,0.541058 l -0.0499,0.123056 -0.004,1.62 -0.004,1.62 h 1.00067 1.00066 l -0.004,-1.612 z m 3.0037,0.012 v -1.592 l -0.049,-0.136707 c -0.0608,-0.169687 -0.13935,-0.289717 -0.26915,-0.411141 -0.12305,-0.11511 -0.2079,-0.165909 -0.37165,-0.222507 -0.10677,-0.0369 -0.15339,-0.04375 -0.30224,-0.0444 -0.27463,-0.0012 -0.48714,0.07949 -0.68024,0.25827 -0.13768,0.127476 -0.21676,0.246543 -0.2788,0.419775 l -0.049,0.136707 -0.005,1.575278 c -0.002,0.866404 -8.5e-4,1.584658 0.004,1.596122 0.007,0.01688 0.19761,0.02006 1.00445,0.01672 l 0.99645,-0.0041 z m 2.9963,-0.012 -0.004,-1.612 -0.0437,-0.119638 c -0.0892,-0.244301 -0.26593,-0.442828 -0.4985,-0.559858 -0.29389,-0.147882 -0.60535,-0.148094 -0.89846,-6.24e-4 -0.22855,0.114997 -0.39437,0.296816 -0.49346,0.541058 l -0.0499,0.123056 -0.004,1.62 -0.004,1.62 h 1.00067 1.00066 l -0.004,-1.612 z m 0.9957,-15.459212 c 0,-7.3271295 -0.005,-10.0862665 -0.0178,-10.1480005 -0.0422,-0.20079 -0.1948,-0.444234 -0.35738,-0.569976 -0.10586,-0.08188 -0.28711,-0.168126 -0.4056,-0.193008 -0.0619,-0.01301 -4.6986,-0.01774 -17.216,-0.01757 -15.21106,2.1e-4 -17.14269,0.0029 -17.233566,0.02436 -0.340225,0.0802 -0.648853,0.388826 -0.729051,0.729051 -0.02137,0.09064 -0.02415,1.25411 -0.02436,10.1703505 l -2.36e-4,10.068 h 17.992003 17.992 z M 3.999894,11.49876 V 5.0027595 h 2.496 2.496 v 6.4960005 6.496 h -2.496 -2.496 z m 8,0 V 5.0027595 h 2.496 2.496 v 6.4960005 6.496 h -2.496 -2.496 z m 9.008,0 V 5.0027595 h 2.496 2.496 v 6.4960005 6.496 h -2.496 -2.496 z m 8,0 V 5.0027595 h 2.496 2.496 v 6.4960005 6.496 h -2.496 -2.496 z"
     id="path70" />
</svg>
