<?xml version="1.0" encoding="UTF-8" standalone="no"?>
<svg
   xmlns:dc="http://purl.org/dc/elements/1.1/"
   xmlns:cc="http://creativecommons.org/ns#"
   xmlns:rdf="http://www.w3.org/1999/02/22-rdf-syntax-ns#"
   xmlns:svg="http://www.w3.org/2000/svg"
   xmlns="http://www.w3.org/2000/svg"
   xmlns:sodipodi="http://sodipodi.sourceforge.net/DTD/sodipodi-0.dtd"
   xmlns:inkscape="http://www.inkscape.org/namespaces/inkscape"
   viewBox="0 0 35.983929 35.989737"
   width="44.979912"
   height="44.987171"
   version="1.1"
   id="svg18"
   sodipodi:docname="merge-git-50-5.svg"
   inkscape:version="1.0.2 (1.0.2+r75+1)">
  <metadata
     id="metadata24">
    <rdf:RDF>
      <cc:Work
         rdf:about="">
        <dc:format>image/svg+xml</dc:format>
        <dc:type
           rdf:resource="http://purl.org/dc/dcmitype/StillImage" />
      </cc:Work>
    </rdf:RDF>
  </metadata>
  <defs
     id="defs22" />
  <sodipodi:namedview
     pagecolor="#ffffff"
     bordercolor="#666666"
     borderopacity="1"
     objecttolerance="10"
     gridtolerance="10"
     guidetolerance="10"
     inkscape:pageopacity="0"
     inkscape:pageshadow="2"
     inkscape:window-width="1920"
     inkscape:window-height="1025"
     id="namedview20"
     showgrid="false"
     inkscape:zoom="8.78"
     inkscape:cx="8.1694407"
     inkscape:cy="30.387111"
     inkscape:window-x="0"
     inkscape:window-y="27"
     inkscape:window-maximized="1"
     inkscape:current-layer="svg18" />
  <path
     style="fill:#000000;stroke-width:0.016"
     d="m 4.1530055,35.983644 c -0.0308,-0.0036 -0.1244,-0.01431 -0.208,-0.02389 -0.803939,-0.09213 -1.635872,-0.445563 -2.288,-0.972019 -0.202223,-0.163251 -0.504801,-0.467427 -0.67116401,-0.674707 -0.503245,-0.627018 -0.833397,-1.392774 -0.955416,-2.216 -0.04388,-0.296024 -0.03959,-0.945515 0.0083,-1.254291 0.124031,-0.800085 0.419341,-1.487626 0.914745,-2.129709 0.14249401,-0.184683 0.54936001,-0.595005 0.73556101,-0.741806 0.322025,-0.253887 0.743508,-0.498832 1.129756,-0.656557 0.287234,-0.117295 0.715888,-0.232903 1.014244,-0.273543 0.0396,-0.0054 0.0918,-0.01359 0.116,-0.01822 l 0.044,-0.0084 V 17.992498 8.9704943 l -0.052,-0.0088 c -0.0286,-0.0048 -0.1024,-0.01632 -0.164,-0.02557 -0.60583,-0.0909 -1.236278,-0.339908 -1.779452,-0.702838 C 1.0661205,7.6109167 0.41161749,6.6903117 0.13632349,5.6152947 c -0.10651,-0.415922 -0.133219,-0.639128 -0.133814,-1.118291 -7.2e-4,-0.579536 0.04991,-0.902357 0.224566,-1.432 0.213545,-0.647554 0.592158,-1.25853 1.08579201,-1.752164 0.698545,-0.69854401 1.573294,-1.13400801 2.576164,-1.28245501 0.296134,-0.04383 0.945673,-0.03953 1.254291,0.0083 0.484669,0.07514 0.904539,0.206483 1.339028,0.418889 0.697834,0.341146 1.3207863,0.88878801 1.7612823,1.54835601 0.684742,1.025285 0.914657,2.321191 0.626467,3.531061 -0.289829,1.216754 -1.076364,2.258581 -2.1760113,2.8822956 -0.430523,0.244191 -1.029005,0.452335 -1.485057,0.516483 -0.0748,0.01052 -0.1522,0.02244 -0.172,0.02648 l -0.036,0.0074 3.2e-5,1.6276947 c 4.8e-5,1.844771 0.01052,2.08197 0.120928,2.737608 0.593023,3.521628 3.1829343,6.385058 6.6308245,7.331105 0.448431,0.123043 0.91302,0.210136 1.504209,0.281982 0.217608,0.02645 0.651553,0.02848 6.995231,0.03283 l 6.76323,0.0046 0.0087,-0.05224 c 0.0048,-0.02873 0.01997,-0.120638 0.03375,-0.204238 0.198441,-1.203448 0.917227,-2.302038 1.959134,-2.994342 1.100366,-0.731148 2.508356,-0.934962 3.787192,-0.548218 0.51266,0.155037 1.060928,0.443075 1.492771,0.784243 0.209755,0.165712 0.614966,0.581931 0.777203,0.798317 0.472877,0.630704 0.752664,1.295304 0.873005,2.073709 0.02954,0.191046 0.03578,0.299819 0.03662,0.638291 0.0011,0.42932 -0.01012,0.554091 -0.0818,0.912 -0.137485,0.686485 -0.46437,1.378632 -0.914327,1.936 -0.163251,0.202224 -0.467427,0.504802 -0.674707,0.671165 -0.481227,0.386233 -1.082758,0.688995 -1.68583,0.84851 -0.70957,0.187683 -1.506539,0.190082 -2.236087,0.0067 -0.790692,-0.19872 -1.472652,-0.58544 -2.055843,-1.165814 -0.378376,-0.376554 -0.62024,-0.703938 -0.84268,-1.140651 -0.248624,-0.488123 -0.377809,-0.901133 -0.467915,-1.495941 l -0.0091,-0.06 h -6.579276 c -4.305171,0 -6.670526,-0.0057 -6.843275,-0.01646 C 11.494822,21.846297 9.5468778,21.094276 7.9130208,19.783689 6.7604715,18.8591 5.8464635,17.734724 5.1502505,16.384958 l -0.148552,-0.288 -3.36e-4,5.459275 -3.36e-4,5.459275 0.052,0.0086 c 0.0286,0.0048 0.1204,0.01983 0.204,0.0335 1.256019,0.205355 2.4069773,0.989155 3.0822083,2.098979 0.803207,1.320168 0.870773,2.963702 0.178675,4.346285 -0.2338,0.467054 -0.518254,0.853435 -0.903062,1.226649 -0.6768853,0.656493 -1.5195273,1.072351 -2.4633123,1.215683 -0.212474,0.03227 -0.841821,0.05643 -0.998509,0.03833 z m 0.896,-1.037697 c 0.740915,-0.126514 1.400746,-0.466933 1.914841,-0.987899 0.20675,-0.209514 0.296814,-0.318986 0.445393,-0.541368 0.2715263,-0.406402 0.4516263,-0.869684 0.5378933,-1.38365 0.04622,-0.275376 0.05025,-0.759133 0.0086,-1.032 -0.17451,-1.143149 -0.8625743,-2.103426 -1.8779923,-2.620965 -0.344603,-0.175638 -0.702858,-0.290291 -1.092729,-0.34971 -0.271841,-0.04143 -0.758652,-0.03797 -1.024,0.0073 -0.525811,0.08966 -0.985332,0.267694 -1.39165,0.539164 -0.877846,0.586509 -1.437499,1.505752 -1.552886,2.550655 -0.02521,0.228269 -0.01203,0.721376 0.02484,0.929579 0.10813,0.610555 0.34374,1.13895 0.723493,1.622562 0.130362,0.166012 0.437828,0.464612 0.612302,0.594643 0.302214,0.225233 0.602078,0.388133 0.935897,0.508421 0.261198,0.09412 0.422554,0.130771 0.848,0.192616 0.112775,0.01639 0.741932,-0.0044 0.888,-0.02933 z M 31.913614,24.961971 c 0.63587,-0.07995 1.18123,-0.300851 1.693716,-0.686032 0.175741,-0.132085 0.482781,-0.430535 0.613512,-0.596347 0.65708,-0.833402 0.90389,-1.869021 0.692388,-2.905266 -0.12853,-0.629715 -0.459111,-1.248333 -0.916813,-1.71563 -0.548786,-0.560292 -1.223762,-0.906418 -2.003411,-1.027351 -0.251314,-0.03898 -0.738872,-0.03938 -0.992,-8e-4 -1.40848,0.214637 -2.533619,1.219069 -2.888355,2.578487 -0.08613,0.330051 -0.110583,0.530041 -0.10957,0.896 0.0012,0.446956 0.05911,0.778713 0.207656,1.190387 0.118053,0.327161 0.350288,0.736235 0.566965,0.998685 0.128898,0.156126 0.378861,0.403708 0.527304,0.522283 0.512926,0.409715 1.156907,0.679598 1.792,0.751001 0.196638,0.02211 0.620043,0.0193 0.816608,-0.0054 z M 5.0010055,7.9525187 c 1.529327,-0.227547 2.7177943,-1.421187 2.9546283,-2.967488 0.04176,-0.272657 0.03778,-0.756282 -0.0085,-1.032 -0.08627,-0.513966 -0.266367,-0.977248 -0.5378933,-1.38365 -0.586509,-0.877846 -1.505752,-1.437499 -2.550654,-1.552886 -0.357348,-0.03946 -0.836473,-0.0066 -1.20158,0.08246 -0.884564,0.215727 -1.672599,0.793481 -2.148728,1.575356 -0.233504,0.383448 -0.384528,0.789246 -0.466964,1.254718 -0.03687,0.208204 -0.05005,0.70131 -0.02484,0.92958 0.07406,0.670645 0.332317,1.295536 0.753181,1.82242 0.118573,0.148443 0.366156,0.398406 0.522283,0.527304 0.509572,0.4207 1.196317,0.699686 1.893072,0.76905 0.185683,0.01849 0.611942,0.0055 0.816,-0.02487 z"
     id="path102" />
</svg>
