<svg fill="#000000" xmlns="http://www.w3.org/2000/svg" viewBox="0 0 30 30" width="50px" height="50px"><path d="M 9 3 C 6.8027056 3 5 4.8027056 5 7 C 5 8.8503017 6.2842135 10.405592 8 10.855469 L 8 12 L 8 19.144531 C 6.2842135 19.594409 5 21.149699 5 23 C 5 25.197294 6.8027056 27 9 27 C 11.197294 27 13 25.197294 13 23 C 13 21.149699 11.715786 19.594409 10 19.144531 L 10 15.193359 C 10.149341 15.276411 10.303173 15.352414 10.458984 15.423828 C 11.764841 16.022346 13.309906 16.29373 14.796875 16.603516 C 16.283844 16.913301 17.70434 17.263414 18.630859 17.791016 C 19.30316 18.173853 19.717981 18.552509 19.896484 19.175781 C 18.233596 19.66097 17 21.187493 17 23 C 17 25.197294 18.802706 27 21 27 C 23.197294 27 25 25.197294 25 23 C 25 21.113859 23.668319 19.527298 21.902344 19.113281 C 21.623455 17.727223 20.718208 16.678593 19.619141 16.052734 C 18.29566 15.299086 16.716156 14.961699 15.203125 14.646484 C 13.690094 14.33127 12.235159 14.040154 11.291016 13.607422 C 10.818944 13.391056 10.489772 13.148653 10.294922 12.90625 C 10.100072 12.663847 10 12.425 10 12 L 10 10.855469 C 11.715786 10.405592 13 8.8503017 13 7 C 13 4.8027056 11.197294 3 9 3 z M 9 5 C 10.116414 5 11 5.8835859 11 7 C 11 8.0855278 10.162361 8.9431814 9.0898438 8.9902344 A 1.0001 1.0001 0 0 0 8.984375 8.9863281 A 1.0001 1.0001 0 0 0 8.9082031 8.9902344 C 7.8366323 8.9422096 7 8.0848637 7 7 C 7 5.8835859 7.8835859 5 9 5 z M 8.9101562 21.009766 A 1.0001 1.0001 0 0 0 9.0917969 21.009766 C 10.163368 21.05779 11 21.915136 11 23 C 11 24.116414 10.116414 25 9 25 C 7.8835859 25 7 24.116414 7 23 C 7 21.914472 7.837639 21.056819 8.9101562 21.009766 z M 20.910156 21.009766 A 1.0001 1.0001 0 0 0 21.091797 21.009766 C 22.163368 21.05779 23 21.915136 23 23 C 23 24.116414 22.116414 25 21 25 C 19.883586 25 19 24.116414 19 23 C 19 21.914472 19.837639 21.056819 20.910156 21.009766 z"/></svg>