<?xml version="1.0"?><svg fill="#000000" xmlns="http://www.w3.org/2000/svg" viewBox="0 0 24 24" width="50px" height="50px">    <path d="M 7 2 C 5.346 2 4 3.346 4 5 C 4 6.3016094 4.8387486 7.4021391 6 7.8164062 L 6 16.183594 C 4.8387486 16.597861 4 17.698391 4 19 C 4 20.654 5.346 22 7 22 C 8.654 22 10 20.654 10 19 C 10 17.698391 9.1612514 16.597861 8 16.183594 L 8 12.371094 C 8.3925747 12.843681 8.8240877 13.271134 9.2773438 13.650391 C 10.812744 14.935118 12.575002 15.723509 14.164062 15.935547 C 14.559932 17.129819 15.674764 18 17 18 C 18.654 18 20 16.654 20 15 C 20 13.346 18.654 12 17 12 C 15.732195 12 14.65131 12.794022 14.212891 13.908203 C 13.130699 13.694338 11.723861 13.088941 10.5625 12.117188 C 9.2784922 11.042809 8.2839677 9.5968529 8.0527344 7.8007812 C 9.1870952 7.3724205 10 6.2823177 10 5 C 10 3.346 8.654 2 7 2 z"/></svg>