<?xml version="1.0" encoding="UTF-8" standalone="no"?>
<svg
   xmlns:dc="http://purl.org/dc/elements/1.1/"
   xmlns:cc="http://creativecommons.org/ns#"
   xmlns:rdf="http://www.w3.org/1999/02/22-rdf-syntax-ns#"
   xmlns:svg="http://www.w3.org/2000/svg"
   xmlns="http://www.w3.org/2000/svg"
   xmlns:sodipodi="http://sodipodi.sourceforge.net/DTD/sodipodi-0.dtd"
   xmlns:inkscape="http://www.inkscape.org/namespaces/inkscape"
   viewBox="0 0 40 40"
   width="50px"
   height="50px"
   version="1.1"
   id="svg8"
   sodipodi:docname="new-document-50.svg"
   inkscape:version="1.0.1 (1.0.1+r75)">
  <metadata
     id="metadata14">
    <rdf:RDF>
      <cc:Work
         rdf:about="">
        <dc:format>image/svg+xml</dc:format>
        <dc:type
           rdf:resource="http://purl.org/dc/dcmitype/StillImage" />
      </cc:Work>
    </rdf:RDF>
  </metadata>
  <defs
     id="defs12" />
  <sodipodi:namedview
     pagecolor="#ffffff"
     bordercolor="#666666"
     borderopacity="1"
     objecttolerance="10"
     gridtolerance="10"
     guidetolerance="10"
     inkscape:pageopacity="0"
     inkscape:pageshadow="2"
     inkscape:window-width="1920"
     inkscape:window-height="1025"
     id="namedview10"
     showgrid="false"
     inkscape:zoom="6.2083975"
     inkscape:cx="11.677284"
     inkscape:cy="9.7344006"
     inkscape:window-x="0"
     inkscape:window-y="27"
     inkscape:window-maximized="1"
     inkscape:current-layer="svg8" />
  <g
     id="g839"
     style="opacity:1">
    <path
       style="color:#000000;font-style:normal;font-variant:normal;font-weight:normal;font-stretch:normal;font-size:medium;line-height:normal;font-family:sans-serif;font-variant-ligatures:normal;font-variant-position:normal;font-variant-caps:normal;font-variant-numeric:normal;font-variant-alternates:normal;font-variant-east-asian:normal;font-feature-settings:normal;font-variation-settings:normal;text-indent:0;text-align:start;text-decoration:none;text-decoration-line:none;text-decoration-style:solid;text-decoration-color:#000000;letter-spacing:normal;word-spacing:normal;text-transform:none;writing-mode:lr-tb;direction:ltr;text-orientation:mixed;dominant-baseline:auto;baseline-shift:baseline;text-anchor:start;white-space:normal;shape-padding:0;shape-margin:0;inline-size:0;clip-rule:nonzero;display:inline;overflow:visible;visibility:visible;isolation:auto;mix-blend-mode:normal;color-interpolation:sRGB;color-interpolation-filters:linearRGB;solid-color:#000000;solid-opacity:1;vector-effect:none;fill:#4788c7;fill-opacity:1;fill-rule:nonzero;stroke-width:1;stroke-linecap:butt;stroke-linejoin:miter;stroke-miterlimit:4;stroke-dasharray:none;stroke-dashoffset:0;stroke-opacity:1.0;color-rendering:auto;image-rendering:auto;shape-rendering:auto;text-rendering:auto;enable-background:accumulate;stop-color:#000000;stop-opacity:1;stroke:none;"
       d="m 34,4 c 1.103,0 2,0.897 2,2 v 28 c 0,1.103 -0.897,2 -2,2 H 6 C 4.897,36 4,35.103 4,34 V 6 C 4,4.897 4.897,4 6,4 H 34 M 34,3 H 6 C 4.343,3 3,4.343 3,6 v 28 c 0,1.657 1.343,3 3,3 h 28 c 1.657,0 3,-1.343 3,-3 V 6 C 37,4.343 35.657,3 34,3 Z"
       id="path841" />
    <path
       style="color:#000000;font-style:normal;font-variant:normal;font-weight:normal;font-stretch:normal;font-size:medium;line-height:normal;font-family:sans-serif;font-variant-ligatures:normal;font-variant-position:normal;font-variant-caps:normal;font-variant-numeric:normal;font-variant-alternates:normal;font-variant-east-asian:normal;font-feature-settings:normal;font-variation-settings:normal;text-indent:0;text-align:start;text-decoration:none;text-decoration-line:none;text-decoration-style:solid;text-decoration-color:#000000;letter-spacing:normal;word-spacing:normal;text-transform:none;writing-mode:lr-tb;direction:ltr;text-orientation:mixed;dominant-baseline:auto;baseline-shift:baseline;text-anchor:start;white-space:normal;shape-padding:0;shape-margin:0;inline-size:0;clip-rule:nonzero;display:inline;overflow:visible;visibility:visible;isolation:auto;mix-blend-mode:normal;color-interpolation:sRGB;color-interpolation-filters:linearRGB;solid-color:#000000;solid-opacity:1;vector-effect:none;fill-opacity:1;fill-rule:nonzero;stroke-width:1;stroke-linecap:butt;stroke-linejoin:miter;stroke-miterlimit:4;stroke-dasharray:none;stroke-dashoffset:0;stroke-opacity:1.0;color-rendering:auto;image-rendering:auto;shape-rendering:auto;text-rendering:auto;enable-background:accumulate;stop-color:#000000;stop-opacity:1;stroke:none;"
       d="M 6 2.5 C 4.072833 2.5 2.5 4.072833 2.5 6 L 2.5 34 C 2.5 35.927167 4.072833 37.5 6 37.5 L 34 37.5 C 35.927167 37.5 37.5 35.927167 37.5 34 L 37.5 6 C 37.5 4.072833 35.927167 2.5 34 2.5 L 6 2.5 z M 6 3.5 C 4.6259211 3.5 3.5 4.6259211 3.5 6 C 3.5 4.613167 4.613167 3.5 6 3.5 z M 34 3.5 C 35.386833 3.5 36.5 4.613167 36.5 6 C 36.5 4.6259211 35.374079 3.5 34 3.5 z M 6 4.5 L 34 4.5 C 34.831921 4.5 35.5 5.1680789 35.5 6 L 35.5 34 C 35.5 34.831921 34.831921 35.5 34 35.5 L 6 35.5 C 5.1680789 35.5 4.5 34.831921 4.5 34 L 4.5 6 C 4.5 5.1680789 5.1680789 4.5 6 4.5 z M 3.5 34 C 3.5 35.374079 4.6259211 36.5 6 36.5 C 4.613167 36.5 3.5 35.386833 3.5 34 z M 36.5 34 C 36.5 35.386833 35.386833 36.5 34 36.5 C 35.374079 36.5 36.5 35.374079 36.5 34 z "
       id="path843" />
  </g>
  <g
     id="g845"
     style="opacity:1">
    <path
       style="color:#000000;font-style:normal;font-variant:normal;font-weight:normal;font-stretch:normal;font-size:medium;line-height:normal;font-family:sans-serif;font-variant-ligatures:normal;font-variant-position:normal;font-variant-caps:normal;font-variant-numeric:normal;font-variant-alternates:normal;font-variant-east-asian:normal;font-feature-settings:normal;font-variation-settings:normal;text-indent:0;text-align:start;text-decoration:none;text-decoration-line:none;text-decoration-style:solid;text-decoration-color:#000000;letter-spacing:normal;word-spacing:normal;text-transform:none;writing-mode:lr-tb;direction:ltr;text-orientation:mixed;dominant-baseline:auto;baseline-shift:baseline;text-anchor:start;white-space:normal;shape-padding:0;shape-margin:0;inline-size:0;clip-rule:nonzero;display:inline;overflow:visible;visibility:visible;isolation:auto;mix-blend-mode:normal;color-interpolation:sRGB;color-interpolation-filters:linearRGB;solid-color:#000000;solid-opacity:1;vector-effect:none;fill:#4788c7;fill-opacity:1;fill-rule:nonzero;stroke-width:1;stroke-linecap:butt;stroke-linejoin:miter;stroke-miterlimit:4;stroke-dasharray:none;stroke-dashoffset:0;stroke-opacity:1.0;color-rendering:auto;image-rendering:auto;shape-rendering:auto;text-rendering:auto;enable-background:accumulate;stop-color:#000000;stop-opacity:1;stroke:none;"
       d="m 28.5,13 h -17 C 11.224,13 11,12.776 11,12.5 v 0 C 11,12.224 11.224,12 11.5,12 h 17 c 0.276,0 0.5,0.224 0.5,0.5 v 0 c 0,0.276 -0.224,0.5 -0.5,0.5 z m -5,4 h -12 C 11.224,17 11,16.776 11,16.5 v 0 C 11,16.224 11.224,16 11.5,16 h 12 c 0.276,0 0.5,0.224 0.5,0.5 v 0 c 0,0.276 -0.224,0.5 -0.5,0.5 z m 5,4 h -17 C 11.224,21 11,20.776 11,20.5 v 0 C 11,20.224 11.224,20 11.5,20 h 17 c 0.276,0 0.5,0.224 0.5,0.5 v 0 c 0,0.276 -0.224,0.5 -0.5,0.5 z m 0,8 h -17 C 11.224,29 11,28.776 11,28.5 v 0 C 11,28.224 11.224,28 11.5,28 h 17 c 0.276,0 0.5,0.224 0.5,0.5 v 0 c 0,0.276 -0.224,0.5 -0.5,0.5 z m -5.115,-4 h -12 c -0.276,0 -0.5,-0.224 -0.5,-0.5 v 0 c 0,-0.276 0.224,-0.5 0.5,-0.5 h 12 c 0.276,0 0.5,0.224 0.5,0.5 v 0 c 0,0.276 -0.224,0.5 -0.5,0.5 z"
       id="path847" />
    <path
       style="color:#000000;font-style:normal;font-variant:normal;font-weight:normal;font-stretch:normal;font-size:medium;line-height:normal;font-family:sans-serif;font-variant-ligatures:normal;font-variant-position:normal;font-variant-caps:normal;font-variant-numeric:normal;font-variant-alternates:normal;font-variant-east-asian:normal;font-feature-settings:normal;font-variation-settings:normal;text-indent:0;text-align:start;text-decoration:none;text-decoration-line:none;text-decoration-style:solid;text-decoration-color:#000000;letter-spacing:normal;word-spacing:normal;text-transform:none;writing-mode:lr-tb;direction:ltr;text-orientation:mixed;dominant-baseline:auto;baseline-shift:baseline;text-anchor:start;white-space:normal;shape-padding:0;shape-margin:0;inline-size:0;clip-rule:nonzero;display:inline;overflow:visible;visibility:visible;isolation:auto;mix-blend-mode:normal;color-interpolation:sRGB;color-interpolation-filters:linearRGB;solid-color:#000000;solid-opacity:1;vector-effect:none;fill-opacity:1;fill-rule:nonzero;stroke-width:1;stroke-linecap:butt;stroke-linejoin:miter;stroke-miterlimit:4;stroke-dasharray:none;stroke-dashoffset:0;stroke-opacity:1.0;color-rendering:auto;image-rendering:auto;shape-rendering:auto;text-rendering:auto;enable-background:accumulate;stop-color:#000000;stop-opacity:1;stroke:none;"
       d="M 11.5 11.5 C 10.953469 11.5 10.5 11.953469 10.5 12.5 C 10.5 13.046531 10.953469 13.5 11.5 13.5 L 28.5 13.5 C 29.046531 13.5 29.5 13.046531 29.5 12.5 C 29.5 11.953469 29.046531 11.5 28.5 11.5 L 11.5 11.5 z M 11.5 15.5 C 10.953469 15.5 10.5 15.953469 10.5 16.5 C 10.5 17.046531 10.953469 17.5 11.5 17.5 L 23.5 17.5 C 24.046531 17.5 24.5 17.046531 24.5 16.5 C 24.5 15.953469 24.046531 15.5 23.5 15.5 L 11.5 15.5 z M 11.5 19.5 C 10.953469 19.5 10.5 19.953469 10.5 20.5 C 10.5 21.046531 10.953469 21.5 11.5 21.5 L 28.5 21.5 C 29.046531 21.5 29.5 21.046531 29.5 20.5 C 29.5 19.953469 29.046531 19.5 28.5 19.5 L 11.5 19.5 z M 11.384766 23.5 C 10.838234 23.5 10.384766 23.953469 10.384766 24.5 C 10.384766 25.046531 10.838234 25.5 11.384766 25.5 L 23.384766 25.5 C 23.931297 25.5 24.384766 25.046531 24.384766 24.5 C 24.384766 23.953469 23.931297 23.5 23.384766 23.5 L 11.384766 23.5 z M 11.5 27.5 C 10.953469 27.5 10.5 27.953469 10.5 28.5 C 10.5 29.046531 10.953469 29.5 11.5 29.5 L 28.5 29.5 C 29.046531 29.5 29.5 29.046531 29.5 28.5 C 29.5 27.953469 29.046531 27.5 28.5 27.5 L 11.5 27.5 z "
       id="path849" />
  </g>
</svg>
