<?xml version="1.0" encoding="UTF-8" standalone="no"?>
<svg
   xmlns:dc="http://purl.org/dc/elements/1.1/"
   xmlns:cc="http://creativecommons.org/ns#"
   xmlns:rdf="http://www.w3.org/1999/02/22-rdf-syntax-ns#"
   xmlns:svg="http://www.w3.org/2000/svg"
   xmlns="http://www.w3.org/2000/svg"
   xmlns:sodipodi="http://sodipodi.sourceforge.net/DTD/sodipodi-0.dtd"
   xmlns:inkscape="http://www.inkscape.org/namespaces/inkscape"
   viewBox="0 0 38.000574 37.992044"
   width="47.500717"
   height="47.490055"
   version="1.1"
   id="svg10"
   sodipodi:docname="private-50.svg"
   inkscape:export-filename="/code/flanksource/karina-ui/src/assets/svg/webfont-icon-source/private-50.png"
   inkscape:export-xdpi="4800"
   inkscape:export-ydpi="4800"
   inkscape:version="1.0.2 (1.0.2+r75+1)">
  <metadata
     id="metadata16">
    <rdf:RDF>
      <cc:Work
         rdf:about="">
        <dc:format>image/svg+xml</dc:format>
        <dc:type
           rdf:resource="http://purl.org/dc/dcmitype/StillImage" />
      </cc:Work>
    </rdf:RDF>
  </metadata>
  <defs
     id="defs14" />
  <sodipodi:namedview
     pagecolor="#ffffff"
     bordercolor="#666666"
     borderopacity="1"
     objecttolerance="10"
     gridtolerance="10"
     guidetolerance="10"
     inkscape:pageopacity="0"
     inkscape:pageshadow="2"
     inkscape:window-width="1920"
     inkscape:window-height="1025"
     id="namedview12"
     showgrid="false"
     inkscape:zoom="3.1678384"
     inkscape:cx="36.569323"
     inkscape:cy="-11.802172"
     inkscape:window-x="0"
     inkscape:window-y="27"
     inkscape:window-maximized="1"
     inkscape:current-layer="svg10" />
  <path
     style="fill:#000000;stroke-width:0.016"
     d="m 18.144716,37.983193 c -3.082192,-0.150973 -5.958821,-0.98737 -8.6,-2.500499 -2.11071,-1.209223 -4.02497,-2.871672 -5.53073,-4.803186 -2.89969,-3.719594 -4.30155995,-8.335846 -3.96485995,-13.056 C 0.44050605,12.136696 3.193816,7.1057041 7.624716,3.7809521 c 2.746264,-2.060674 6.032196,-3.34296302 9.44,-3.68382702 1.580427,-0.158081 3.17553,-0.122996 4.72,0.103818 6.93277,1.01811802 12.767472,5.81704602 15.125765,12.44064292 1.097589,3.082732 1.37391,6.46181 0.794518,9.715978 -0.515659,2.896206 -1.71651,5.658544 -3.485584,8.017944 -0.776686,1.035861 -1.640608,1.975382 -2.602699,2.830456 -3.037517,2.699643 -6.84037,4.34929 -10.864,4.712717 -0.198,0.01788 -0.4716,0.04017 -0.608,0.04953 -0.327611,0.02247 -1.645552,0.03235 -2,0.01498 z m 2.184,-7.013245 c 1.039066,-0.148542 1.900136,-0.513618 2.695382,-1.142784 0.215831,-0.170757 7.504661,-7.460928 7.60869,-7.61009 0.439896,-0.630747 0.49405,-1.44003 0.141968,-2.121566 -0.285843,-0.553312 -0.787125,-0.930331 -1.417749,-1.066298 -0.184469,-0.03977 -0.592408,-0.03986 -0.780291,-1.76e-4 -0.180136,0.03805 -0.34728,0.09448 -0.505622,0.170695 -0.294788,0.141889 -0.299418,0.146099 -1.722221,1.565769 l -1.339845,1.336895 -0.0042,-6.423444 -0.0042,-6.4234409 -0.03664,-0.128 c -0.152719,-0.533464 -0.543904,-0.932541 -1.059357,-1.080728 -0.150022,-0.04313 -0.510184,-0.06086 -0.660134,-0.03249 -0.622664,0.117785 -1.089274,0.572776 -1.220663,1.190266 -0.0199,0.09354 -0.0232,0.655024 -0.0232,3.9479999 v 3.838954 h -0.496 -0.496 v -5.301904 c 0,-5.7537389 0.005,-5.4176039 -0.08528,-5.6824029 -0.123751,-0.362811 -0.40624,-0.684614 -0.754725,-0.859756 -0.213038,-0.107069 -0.512906,-0.166455 -0.759056,-0.150324 -0.64175,0.04206 -1.17015,0.467542 -1.364059,1.098387 l -0.03688,0.12 -0.0041,5.3879999 -0.0041,5.388 H 17.504776 17.00912 l -0.0042,-4.868 -0.0042,-4.8679999 -0.03664,-0.128 c -0.152719,-0.533464 -0.543904,-0.932541 -1.059357,-1.080728 -0.150022,-0.04313 -0.510184,-0.06086 -0.660134,-0.03249 -0.622664,0.117785 -1.089274,0.572776 -1.220663,1.190266 -0.01998,0.09389 -0.0232,0.781407 -0.0232,4.9479999 v 4.838954 h -0.495661 -0.495661 l -0.0044,-2.868 -0.0044,-2.868 -0.03654,-0.128 c -0.152174,-0.532992 -0.543778,-0.932533 -1.059258,-1.080728 -0.150022,-0.04313 -0.510184,-0.06086 -0.660134,-0.03249 -0.622664,0.117785 -1.089274,0.572776 -1.220663,1.190266 -0.02008,0.09438 -0.0232,1.119558 -0.02318,7.624 1.6e-5,6.679335 0.0028,7.538972 0.02478,7.730954 0.194451,1.69601 1.215301,3.154069 2.743196,3.91805 0.154,0.077 0.37,0.173099 0.48,0.213544 0.407853,0.149964 0.909353,0.262585 1.328,0.298228 0.0924,0.0079 1.3812,0.0129 2.864,0.01118 2.45121,-0.0028 2.713434,-0.0056 2.888,-0.03057 z"
     id="path66" />
</svg>
