<?xml version="1.0" encoding="UTF-8" standalone="no"?>
<svg
   xmlns:dc="http://purl.org/dc/elements/1.1/"
   xmlns:cc="http://creativecommons.org/ns#"
   xmlns:rdf="http://www.w3.org/1999/02/22-rdf-syntax-ns#"
   xmlns:svg="http://www.w3.org/2000/svg"
   xmlns="http://www.w3.org/2000/svg"
   xmlns:sodipodi="http://sodipodi.sourceforge.net/DTD/sodipodi-0.dtd"
   xmlns:inkscape="http://www.inkscape.org/namespaces/inkscape"
   viewBox="0 0 37.999942 37.999942"
   width="47.499928"
   height="47.499928"
   version="1.1"
   id="svg78"
   sodipodi:docname="processor-50-3.svg"
   inkscape:version="1.0.2 (1.0.2+r75+1)">
  <metadata
     id="metadata84">
    <rdf:RDF>
      <cc:Work
         rdf:about="">
        <dc:format>image/svg+xml</dc:format>
        <dc:type
           rdf:resource="http://purl.org/dc/dcmitype/StillImage" />
      </cc:Work>
    </rdf:RDF>
  </metadata>
  <defs
     id="defs82" />
  <sodipodi:namedview
     pagecolor="#ffffff"
     bordercolor="#666666"
     borderopacity="1"
     objecttolerance="10"
     gridtolerance="10"
     guidetolerance="10"
     inkscape:pageopacity="0"
     inkscape:pageshadow="2"
     inkscape:window-width="1920"
     inkscape:window-height="1025"
     id="namedview80"
     showgrid="false"
     inkscape:zoom="8.78"
     inkscape:cx="16.193802"
     inkscape:cy="20.213791"
     inkscape:window-x="0"
     inkscape:window-y="27"
     inkscape:window-maximized="1"
     inkscape:current-layer="svg78" />
  <path
     style="fill:#000000;stroke-width:0.016"
     d="m 7.008003,36.000006 v -2 h -0.588 c -0.63806,0 -0.766661,-0.01139 -1.012835,-0.08916 -0.323409,-0.102165 -0.56937,-0.252867 -0.817223,-0.500721 -0.248101,-0.2481 -0.400167,-0.495864 -0.500401,-0.815312 -0.0782,-0.24921 -0.08941,-0.376357 -0.08948,-1.014746 L 4,30.992003 H 2 0 v -1.496 -1.496 h 2 2 v -0.504 -0.504 H 2 0 v -1.496 -1.496 h 2 2 v -0.504 -0.504 H 2 0 v -1.496 -1.496 h 2 2 v -0.504 -0.504 H 2 0 v -1.496 -1.496 h 2 2 v -0.504 -0.504 H 2 0 v -1.496 -1.496 h 2 2 v -0.504 -0.504 H 2 0 v -1.496 -1.496 h 2 2 l 6.4e-5,-1.084 c 6.4e-5,-1.1749502 0.0038,-1.237637 0.08948,-1.510746 0.100234,-0.319448 0.2523,-0.567212 0.5004,-0.815312 0.248101,-0.248101 0.495865,-0.400167 0.815313,-0.500401 0.24921,-0.0782 0.376356,-0.08941 1.014746,-0.08948 L 7.008003,4 V 2 0 h 1.496 1.496 v 2 2 h 0.504 0.504 V 2 0 h 1.496 1.496 v 2 2 h 0.504 0.504 V 2 0 h 1.496 1.496 v 2 2 h 0.504 0.504 V 2 0 h 1.496 1.496 v 2 2 h 0.504 0.504 V 2 0 h 1.496 1.496 v 2 2 h 0.504 0.504 V 2 0 h 1.496 1.496 v 2 2 l 1.084,6.4e-5 c 1.174951,6.4e-5 1.237637,0.0038 1.510746,0.08948 0.319448,0.100234 0.567213,0.2523 0.815312,0.5004 0.248101,0.248101 0.400168,0.495865 0.500401,0.815313 0.08569,0.2731087 0.08941,0.3357954 0.08948,1.5107457 v 1.084 h 2 2 v 1.496 1.4960003 h -2 -2 v 0.504 0.504 h 2 2 v 1.496 1.496 h -2 -2 v 0.504 0.504 h 2 2 v 1.496 1.496 h -2 -2 v 0.504 0.504 h 2 2 v 1.496 1.496 h -2 -2 v 0.504 0.504 h 2 2 v 1.496 1.496 h -2 -2 v 0.504 0.504 h 2 2 v 1.496 1.496 h -2 -2 v 0.588 c 0,0.638388 -0.01128,0.765536 -0.08948,1.014745 -0.100233,0.319448 -0.2523,0.567213 -0.500401,0.815312 -0.248099,0.248101 -0.495864,0.400168 -0.815312,0.500402 -0.273109,0.08569 -0.335795,0.08941 -1.510746,0.08948 h -1.084 v 2 2 h -1.496 -1.496 v -2 -2 h -0.504 -0.504 v 2 2 h -1.496 -1.496 v -2 -2 h -0.504 -0.504 v 2 2 h -1.496 -1.496 v -2 -2 h -0.504 -0.504 v 2 2 h -1.496 -1.496 v -2 -2 h -0.504 -0.504 v 2 2 h -1.496 -1.496 v -2 -2 h -0.504 -0.504 v 2 2 h -1.496 -1.496 v -2 z m 1.9999998,-0.496 v -1.504 h -0.5039998 -0.504 v 1.504 1.504 h 0.504 0.5039998 z m 4.0000002,0 v -1.504 h -0.504 -0.504 v 1.504 1.504 h 0.504 0.504 z m 4,0 v -1.504 h -0.504 -0.504 v 1.504 1.504 h 0.504 0.504 z m 4,0 v -1.504 h -0.504 -0.504 v 1.504 1.504 h 0.504 0.504 z m 4,0 v -1.504 h -0.504 -0.504 v 1.504 1.504 h 0.504 0.504 z m 4,0 v -1.504 h -0.504 -0.504 v 1.504 1.504 h 0.504 0.504 z m -25.008,-6.008 v -0.504 h -1.504 -1.504 v 0.504 0.504 h 1.504 1.504 z m 5.8124928,0.462366 c 0.2580752,-0.05265 0.5068892,-0.18432 0.7039602,-0.372531 0.153564,-0.146659 0.244621,-0.270816 0.330752,-0.450981 0.106608,-0.222996 0.134357,-0.352345 0.135335,-0.630854 7.09e-4,-0.201725 -0.005,-0.261518 -0.03572,-0.374931 -0.144067,-0.53169 -0.544201,-0.931824 -1.0758912,-1.075891 -0.190237,-0.05155 -0.554225,-0.05148 -0.742931,1.6e-4 -0.4631558,0.126684 -0.8482088,0.469369 -1.0176168,0.905649 -0.105476,0.271637 -0.129662,0.606175 -0.06369,0.880927 0.07258,0.302254 0.262427,0.608515 0.500994,0.808198 0.132831,0.111181 0.4118158,0.255883 0.5723098,0.296843 0.218563,0.05578 0.461798,0.0605 0.692493,0.01343 z m 19.0345452,-0.0082 c 0.334834,-0.0769 0.659159,-0.295 0.869682,-0.584835 0.07716,-0.106232 0.193763,-0.353539 0.22601,-0.479362 0.106021,-0.413676 0.0335,-0.855568 -0.198368,-1.208766 -0.09701,-0.147766 -0.325419,-0.366957 -0.473719,-0.45459 -0.427528,-0.252642 -0.952443,-0.282604 -1.392115,-0.07946 -0.405437,0.187323 -0.706366,0.546795 -0.82535,0.985914 -0.05155,0.190237 -0.05148,0.554225 1.6e-4,0.742931 0.165499,0.605061 0.676139,1.04507 1.290686,1.112162 0.150355,0.01641 0.339106,0.0037 0.503038,-0.03399 z m 8.160962,-0.454171 v -0.504 h -1.504 -1.504 v 0.504 0.504 h 1.504 1.504 z m -33.008,-4 v -0.504 h -1.504 -1.504 v 0.504 0.504 h 1.504 1.504 z m 33.008,0 v -0.504 h -1.504 -1.504 v 0.504 0.504 h 1.504 1.504 z m -33.008,-4 v -0.504 h -1.504 -1.504 v 0.504 0.504 h 1.504 1.504 z m 33.008,0 v -0.504 h -1.504 -1.504 v 0.504 0.504 h 1.504 1.504 z m -33.008,-4 v -0.504 h -1.504 -1.504 v 0.504 0.504 h 1.504 1.504 z m 33.008,0 v -0.504 h -1.504 -1.504 v 0.504 0.504 h 1.504 1.504 z m -33.008,-4 v -0.504 h -1.504 -1.504 v 0.504 0.504 h 1.504 1.504 z m 33.008,0 v -0.504 h -1.504 -1.504 v 0.504 0.504 h 1.504 1.504 z M 9.8795248,10.944114 C 10.401896,10.803229 10.803677,10.399236 10.946825,9.8709369 10.998375,9.6806999 10.998305,9.3167119 10.946697,9.128006 10.820012,8.6648495 10.477327,8.279797 10.041047,8.110389 9.8564698,8.038718 9.7108678,8.012518 9.4960108,8.012315 9.2571748,8.0120894 9.0796898,8.051594 8.8671038,8.1522971 8.53615,8.3090717 8.308997,8.5363134 8.15205,8.8676302 8.051371,9.0801669 8.012044,9.2573918 8.012611,9.4960056 c 9.58e-4,0.4032873 0.133279,0.7395374 0.401564,1.0204534 0.23245,0.243392 0.4841398,0.383434 0.8119608,0.451781 0.15787,0.03291 0.486957,0.02076 0.653396,-0.02413 z m 18.9924782,0.0013 c 0.457757,-0.120742 0.847991,-0.46756 1.017618,-0.904401 0.07091,-0.1826151 0.09722,-0.3297151 0.09749,-0.545037 C 29.987991,8.79402 29.508936,8.1984374 28.816005,8.039984 28.659656,8.004231 28.353634,8.003305 28.195512,8.038104 27.921523,8.098405 27.681296,8.2252856 27.483552,8.41414 27.329987,8.5607995 27.238931,8.6849553 27.1528,8.8651209 c -0.106608,0.222997 -0.134357,0.352345 -0.135334,0.6308541 -7.04e-4,0.201725 0.005,0.2615187 0.03572,0.3749309 0.154305,0.5694751 0.603801,0.9884211 1.178822,1.0987041 0.160264,0.03074 0.477154,0.01876 0.64,-0.0242 z m -24.872,-1.449408 v -0.504 h -1.504 -1.504 v 0.504 0.504 h 1.504 1.504 z m 33.008,0 v -0.504 h -1.504 -1.504 v 0.504 0.504 h 1.504 1.504 z m -28.0000002,-7 V 0.99200596 h -0.5039998 -0.504 v 1.50400004 1.504 h 0.504 0.5039998 z m 4.0000002,0 V 0.99200596 h -0.504 -0.504 v 1.50400004 1.504 h 0.504 0.504 z m 4,0 V 0.99200596 h -0.504 -0.504 v 1.50400004 1.504 h 0.504 0.504 z m 4,0 V 0.99200596 h -0.504 -0.504 v 1.50400004 1.504 h 0.504 0.504 z m 4,0 V 0.99200596 h -0.504 -0.504 v 1.50400004 1.504 h 0.504 0.504 z m 4,0 V 0.99200596 h -0.504 -0.504 v 1.50400004 1.504 h 0.504 0.504 z"
     id="path134" />
</svg>
