<?xml version="1.0" encoding="UTF-8" standalone="no"?>
<svg
   xmlns:dc="http://purl.org/dc/elements/1.1/"
   xmlns:cc="http://creativecommons.org/ns#"
   xmlns:rdf="http://www.w3.org/1999/02/22-rdf-syntax-ns#"
   xmlns:svg="http://www.w3.org/2000/svg"
   xmlns="http://www.w3.org/2000/svg"
   xmlns:sodipodi="http://sodipodi.sourceforge.net/DTD/sodipodi-0.dtd"
   xmlns:inkscape="http://www.inkscape.org/namespaces/inkscape"
   viewBox="0 0 37.999948 37.999979"
   width="47.499935"
   height="47.499973"
   version="1.1"
   id="svg68"
   sodipodi:docname="processor-50.svg"
   inkscape:export-filename="/code/flanksource/karina-ui/src/assets/svg/webfont-icon-source/processor-50.png"
   inkscape:export-xdpi="4800"
   inkscape:export-ydpi="4800"
   inkscape:version="1.0.2 (1.0.2+r75+1)">
  <metadata
     id="metadata74">
    <rdf:RDF>
      <cc:Work
         rdf:about="">
        <dc:format>image/svg+xml</dc:format>
        <dc:type
           rdf:resource="http://purl.org/dc/dcmitype/StillImage" />
      </cc:Work>
    </rdf:RDF>
  </metadata>
  <defs
     id="defs72" />
  <sodipodi:namedview
     pagecolor="#ffffff"
     bordercolor="#666666"
     borderopacity="1"
     objecttolerance="10"
     gridtolerance="10"
     guidetolerance="10"
     inkscape:pageopacity="0"
     inkscape:pageshadow="2"
     inkscape:window-width="1920"
     inkscape:window-height="1025"
     id="namedview70"
     showgrid="false"
     inkscape:zoom="6.2083975"
     inkscape:cx="12.440539"
     inkscape:cy="31.49218"
     inkscape:window-x="0"
     inkscape:window-y="27"
     inkscape:window-maximized="1"
     inkscape:current-layer="svg68" />
  <path
     style="fill:#000000;stroke-width:0.016"
     d="m 6.991974,36.001266 v -1.998735 l -0.644,-0.0071 C 5.658726,33.987831 5.633936,33.985281 5.362786,33.895234 4.784844,33.703298 4.2943,33.214775 4.105204,32.642829 4.015124,32.370365 4.012194,32.341592 4.004569,31.652026 l -0.0071,-0.644 H 1.998735 0 v -2.008 -2.008 h 2 2 v -0.496 -0.496 H 2 0 v -2 -2 h 2 2 v -0.496 -0.496 H 2 0 v -2.008 -2.008 h 2 2 v -0.496 -0.496 H 2 0 v -2 -2 h 2 2 v -0.496 -0.496 H 2 0 V 9.0000261 6.992026 h 1.998735 1.998734 l 0.0071,-0.644 C 4.012169,5.6584602 4.015119,5.6296873 4.105204,5.3572222 4.2943,4.7852777 4.784844,4.2967534 5.362786,4.104818 5.633936,4.014769 5.658726,4.012248 6.347974,4.004621 l 0.644,-0.00713 V 1.9987345 0 h 2.008 2.008 v 2 2 h 0.496 0.496 V 2 0 h 2 2 v 2 2 h 0.496 0.496 V 2 0 h 2.008 2.008 v 2 2 h 0.496 0.496 V 2 0 h 2 2 v 2 2 h 0.496 0.496 V 2 0 h 2.008 2.008 v 1.9987345 1.9987348 l 0.644,0.00713 c 0.524645,0.00581 0.664757,0.012029 0.756,0.03358 0.413243,0.097606 0.740064,0.2794627 1.019822,0.5674738 0.276424,0.2845766 0.439311,0.5854421 0.534004,0.9863515 0.02155,0.091243 0.02777,0.2313544 0.03358,0.756 l 0.0071,0.644 h 1.998735 1.998734 v 2.0079995 2.0079999 h -2 -2 v 0.496 0.496001 h 2 2 v 2 2 h -2 -2 v 0.496 0.496 h 2 2 v 2.008 2.008 h -2 -2 v 0.496 0.496 h 2 2 v 2 2 h -2 -2 v 0.496 0.496 h 2 2 v 2.008 2.008 H 36.001215 34.00248 l -0.0071,0.644 c -0.0057,0.511093 -0.0123,0.665464 -0.03222,0.748 -0.100941,0.418325 -0.256515,0.707282 -0.535362,0.994352 -0.279758,0.288011 -0.606579,0.469867 -1.019822,0.567474 -0.09124,0.02155 -0.231355,0.02777 -0.756,0.03358 l -0.644,0.0071 v 1.998735 1.998734 h -2.008 -2.008 v -2 -2 h -0.496 -0.496 v 2 2 h -2 -2 v -2 -2 h -0.496 -0.496 v 2 2 h -2.008 -2.008 v -2 -2 h -0.496 -0.496 v 2 2 h -2 -2 v -2 -2 h -0.496 -0.496 v 2 2 h -2.008 -2.008 z M 9.999974,35.496 V 34 h -1 -1 v 1.496 1.496 h 1 1 z m 4.992,0 V 34 h -0.992 -0.992 v 1.496 1.496 h 0.992 0.992 z m 5.008,0 V 34 h -1 -1 v 1.496 1.496 h 1 1 z m 4.992,0 V 34 h -0.992 -0.992 v 1.496 1.496 h 0.992 0.992 z m 5.008,0 V 34 h -1 -1 v 1.496 1.496 h 1 1 z m -26,-6.496 v -1 h -1.496 -1.496 v 1 1 h 1.496 1.496 z m 5.904,0.952914 c 0.825321,-0.238554 1.286242,-1.095463 1.02873,-1.912535 -0.07454,-0.236517 -0.205007,-0.446254 -0.385282,-0.619385 C 10.234557,27.120528 9.82964,26.970042 9.408327,26.997653 8.766499,27.039713 8.22538,27.476379 8.047246,28.096 c -0.04313,0.150022 -0.06086,0.510184 -0.03249,0.660134 0.06164,0.325856 0.216183,0.61381 0.44556,0.830192 0.217618,0.20529 0.45102,0.328437 0.73966,0.39026 0.159325,0.03412 0.549426,0.02101 0.704,-0.02367 z m 18.857061,0.03027 c 0.312904,-0.05542 0.609541,-0.214843 0.825265,-0.443523 0.123309,-0.130715 0.1817,-0.21253 0.253831,-0.355661 0.125777,-0.249586 0.168374,-0.45884 0.155451,-0.763638 -0.01,-0.235543 -0.04409,-0.375231 -0.14044,-0.575306 -0.396962,-0.824282 -1.43836,-1.10459 -2.199168,-0.591939 -0.19823,0.133573 -0.39953,0.362931 -0.508062,0.578883 -0.107184,0.213267 -0.166458,0.512875 -0.150285,0.759646 0.04441,0.677588 0.528515,1.240658 1.188328,1.382152 0.130504,0.02799 0.441419,0.03306 0.57508,0.0094 z M 36.991974,29 v -1 h -1.496 -1.496 v 1 1 h 1.496 1.496 z m -32.992,-5 v -0.992 h -1.496 -1.496 V 24 24.992 h 1.496 1.496 z m 32.992,0 v -0.992 h -1.496 -1.496 V 24 24.992 h 1.496 1.496 z m -32.992,-5 v -1 h -1.496 -1.496 v 1 1 h 1.496 1.496 z m 32.992,0 v -1 h -1.496 -1.496 v 1 1 h 1.496 1.496 z m -32.992,-5 v -0.992 h -1.496 -1.496 V 14 14.992 h 1.496 1.496 z m 32.992,0 v -0.992 h -1.496 -1.496 V 14 14.992 h 1.496 1.496 z M 9.745878,10.984516 c 0.319858,-0.05602 0.568734,-0.181927 0.801544,-0.40551 0.180275,-0.173131 0.31074,-0.382869 0.385282,-0.6193849 0.163105,-0.517524 0.05112,-1.042468 -0.313085,-1.467621 C 10.458771,8.3042351 10.166915,8.122865 9.903974,8.0472723 9.753952,8.0041423 9.39379,7.9864153 9.24384,8.0147803 8.607848,8.1350862 8.13506,8.6078741 8.014754,9.2438661 c -0.02837,0.14995 -0.01064,0.510111 0.03249,0.660134 0.213254,0.7417799 0.951471,1.2113669 1.698632,1.0805159 z m 19.126096,-0.02443 c 0.518358,-0.135149 0.932914,-0.540304 1.080586,-1.0560859 0.04382,-0.153036 0.05991,-0.477741 0.0322,-0.649535 -0.101131,-0.626909 -0.588422,-1.1185776 -1.22865,-1.2396847 -0.14995,-0.028365 -0.510112,-0.010638 -0.660134,0.032492 -0.824907,0.2371507 -1.286347,1.0949427 -1.02873,1.9123487 0.142373,0.4517409 0.505776,0.8204119 0.954076,0.9679079 0.266753,0.08776 0.591268,0.100185 0.850654,0.03256 z m -24.872,-1.9600859 v -1 h -1.496 -1.496 v 1 V 10 h 1.496 1.496 z m 32.992,0 v -1 h -1.496 -1.496 v 1 V 10 h 1.496 1.496 z m -26.992,-6.496 v -1.496 h -1 -1 v 1.496 1.496 h 1 1 z m 4.992,0 v -1.496 h -0.992 -0.992 v 1.496 1.496 h 0.992 0.992 z m 5.008,0 v -1.496 h -1 -1 v 1.496 1.496 h 1 1 z m 4.992,0 v -1.496 h -0.992 -0.992 v 1.496 1.496 h 0.992 0.992 z m 5.008,0 v -1.496 h -1 -1 v 1.496 1.496 h 1 1 z"
     id="path124" />
</svg>
