<?xml version="1.0" encoding="UTF-8" standalone="no"?>
<svg
   xmlns:dc="http://purl.org/dc/elements/1.1/"
   xmlns:cc="http://creativecommons.org/ns#"
   xmlns:rdf="http://www.w3.org/1999/02/22-rdf-syntax-ns#"
   xmlns:svg="http://www.w3.org/2000/svg"
   xmlns="http://www.w3.org/2000/svg"
   xmlns:sodipodi="http://sodipodi.sourceforge.net/DTD/sodipodi-0.dtd"
   xmlns:inkscape="http://www.inkscape.org/namespaces/inkscape"
   fill="#000000"
   viewBox="0 0 115.26172 127.35134"
   width="115.26171"
   height="127.35134"
   version="1.1"
   id="svg4"
   sodipodi:docname="pull-request-50-3.svg"
   inkscape:version="1.0.1 (1.0.1+r75)">
  <metadata
     id="metadata10">
    <rdf:RDF>
      <cc:Work
         rdf:about="">
        <dc:format>image/svg+xml</dc:format>
        <dc:type
           rdf:resource="http://purl.org/dc/dcmitype/StillImage" />
        <dc:title></dc:title>
      </cc:Work>
    </rdf:RDF>
  </metadata>
  <defs
     id="defs8" />
  <sodipodi:namedview
     pagecolor="#ffffff"
     bordercolor="#666666"
     borderopacity="1"
     objecttolerance="10"
     gridtolerance="10"
     guidetolerance="10"
     inkscape:pageopacity="0"
     inkscape:pageshadow="2"
     inkscape:window-width="1920"
     inkscape:window-height="1025"
     id="namedview6"
     showgrid="false"
     inkscape:zoom="1.0975"
     inkscape:cx="69.538647"
     inkscape:cy="183.92799"
     inkscape:window-x="0"
     inkscape:window-y="27"
     inkscape:window-maximized="1"
     inkscape:current-layer="svg4"
     inkscape:document-rotation="0" />
  <path
     style="fill:#030303;stroke:none;stroke-width:0.2446"
     d="m 17.402742,92.744943 v -42.31575 -13.45299 c 0,-2.1877 -0.34129,-4.69534 0.0559,-6.84782 0.47308,-2.56413 4.35157,-2.4707 5.98941,-3.99504 3.84315,-3.57776 5.4262,-7.689579 5.19677,-12.883319 C 28.005192,-1.2282661 7.3603619,-4.1757061 1.3796019,8.3580339 c -2.76604,5.7967201 -1.26852001,12.9752791 3.55822,17.1819091 1.29056,1.12491 5.8555501,2.64045 6.2722001,4.12468 0.40437,1.44045 0.0778,3.37401 0.0778,4.86558 v 10.27319 c 0,10.69537 0.24459,21.35331 0.24459,32.04257 v 11.74079 c 0,0.92385 -0.41829,3.22798 0.3922,3.86981 1.08372,0.8583 4.14195,0.28838 5.4782,0.28838 m 17.85578,-78.271919 c 2.82611,3.83968 7.81129,6.694449 11.49619,9.688839 1.76381,1.43336 3.75094,3.71327 5.87039,4.56472 1.62537,0.65284 3.44788,0.17905 5.1366,0.17783 v -7.82719 c 0,-0.879729 -0.25292,-2.338479 0.42609,-3.032209 0.5819,-0.59445 1.75916,-0.39214 2.5091,-0.39219 h 6.115 c 8.7848,0 17.73299,-1.08243 24.70457,5.403209 6.73237,6.26273 6.6042,14.18703 6.6042,22.72576 v 28.61817 c 0,4.49379 0.2446,8.95431 0.2446,13.45299 0,1.17432 -0.60637,3.88204 0.35173,4.7105 0.9669,0.83629 4.780948,0.51048 5.196278,-0.85268 1.06303,-3.4875 0.0778,-8.76205 0.0778,-12.41881 v -32.28717 c 0,-6.30921 0.6137,-13.14871 -1.92573,-19.07878 -3.315548,-7.742539 -10.536868,-14.031539 -18.865248,-15.736109 -3.18224,-0.65129 -7.02074,-0.40748 -10.27319,-0.40748 h -10.51779 c -1.0826,0 -3.12329,0.38792 -4.05204,-0.2514 -0.79152,-0.54465 -0.59511,-1.8586401 -0.59535,-2.6837901 -7.4e-4,-1.73084 0.86784,-6.90884 -0.3921,-8.16879998 -1.73225,-1.73206002 -5.32713,0.27021 -6.7013,1.36887998 -5.14295,4.11223 -10.15406,8.4648101 -15.40978,12.4257101 m -22.99238,84.249699 c -1.99087,0.31088 -3.8871801,1.05129 -5.6257901,2.063927 -13.45529,7.83575 -4.5941,28.4626 10.0285901,26.37348 14.84647,-2.12117 16.17122,-24.24326 1.7122,-28.143647 -1.9174,-0.51708 -4.14837,-0.60098 -6.115,-0.29376 m 86.58832,0 c -2.01648,0.31504 -3.8659,1.03612 -5.6258,2.063927 -8.0285,4.68824 -8.46511,16.25023 -2.19186,22.52372 3.29574,3.29549 7.92821,4.55836 12.465048,3.85074 14.63905,-2.28359 16.06482,-24.09039 1.7122,-28.118697 -1.97686,-0.55475 -4.33039,-0.6367 -6.359588,-0.31969 z"
     id="path845" />
</svg>
