<?xml version="1.0"?><svg fill="#000000" xmlns="http://www.w3.org/2000/svg" viewBox="0 0 24 24" width="50px" height="50px">    <path d="M 6 2 C 4.346 2 3 3.346 3 5 C 3 6.3016094 3.8387486 7.4021391 5 7.8164062 L 5 16.183594 C 3.8387486 16.597861 3 17.698391 3 19 C 3 20.654 4.346 22 6 22 C 7.654 22 9 20.654 9 19 C 9 17.698391 8.1612514 16.597861 7 16.183594 L 7 7.8164062 C 8.1612514 7.4021391 9 6.3016094 9 5 C 9 3.346 7.654 2 6 2 z M 13 2 L 10 5 L 13 8 L 13 6 L 14 6 C 15.668484 6 17 7.3315161 17 9 L 17 16.183594 C 15.838749 16.597861 15 17.698391 15 19 C 15 20.654 16.346 22 18 22 C 19.654 22 21 20.654 21 19 C 21 17.698391 20.161251 16.597861 19 16.183594 L 19 9 C 19 6.2504839 16.749516 4 14 4 L 13 4 L 13 2 z"/></svg>