<?xml version="1.0" encoding="UTF-8" standalone="no"?>
<svg
   xmlns:dc="http://purl.org/dc/elements/1.1/"
   xmlns:cc="http://creativecommons.org/ns#"
   xmlns:rdf="http://www.w3.org/1999/02/22-rdf-syntax-ns#"
   xmlns:svg="http://www.w3.org/2000/svg"
   xmlns="http://www.w3.org/2000/svg"
   xmlns:sodipodi="http://sodipodi.sourceforge.net/DTD/sodipodi-0.dtd"
   xmlns:inkscape="http://www.inkscape.org/namespaces/inkscape"
   viewBox="0 0 102.45688 102.45121"
   width="128.07111"
   height="128.06401"
   version="1.1"
   id="svg26"
   sodipodi:docname="pull-request-50.svg"
   inkscape:version="1.0.1 (1.0.1+r75)">
  <metadata
     id="metadata32">
    <rdf:RDF>
      <cc:Work
         rdf:about="">
        <dc:format>image/svg+xml</dc:format>
        <dc:type
           rdf:resource="http://purl.org/dc/dcmitype/StillImage" />
        <dc:title></dc:title>
      </cc:Work>
    </rdf:RDF>
  </metadata>
  <defs
     id="defs30" />
  <sodipodi:namedview
     pagecolor="#ffffff"
     bordercolor="#666666"
     borderopacity="1"
     objecttolerance="10"
     gridtolerance="10"
     guidetolerance="10"
     inkscape:pageopacity="0"
     inkscape:pageshadow="2"
     inkscape:window-width="1920"
     inkscape:window-height="1025"
     id="namedview28"
     showgrid="false"
     inkscape:zoom="1.0975"
     inkscape:cx="193.45256"
     inkscape:cy="161.25122"
     inkscape:window-x="0"
     inkscape:window-y="27"
     inkscape:window-maximized="1"
     inkscape:current-layer="svg26" />
  <path
     style="fill:#4788c7;fill-opacity:1;stroke-width:0.18458"
     d="M 10.361173,102.25013 C 5.8738834,101.37551 2.2757424,98.335311 0.74861237,94.128114 -1.8620276,86.935882 2.6124834,79.055513 10.176593,77.523846 l 1.10748,-0.224254 V 51.21722 25.13485 L 9.5777834,24.70352 c -4.58051,-1.15787 -8.041131,-4.58717 -9.21279103,-9.12938 -0.40789,-1.58128 -0.40789,-4.50988 0,-6.09115 C 1.2869024,5.909 3.7364334,2.89229 7.0387234,1.26399 8.9008234,0.34582 10.415833,0 12.576133,0 c 2.23502,0 3.67398,0.3449 5.81199,1.39307 3.01201,1.47665 5.50833,4.6294 6.40551,8.08992 0.41195,1.58893 0.41081,4.50957 -0.002,6.09115 -1.18191,4.52394 -4.84625,8.14628 -9.26182,9.15566 -0.71064,0.16245 -1.39589,0.32586 -1.52279,0.36314 -0.18316,0.0538 -0.23072,5.43447 -0.23072,26.10518 0,20.67072 0.0476,26.051375 0.23073,26.105186 0.1269,0.03728 0.81215,0.200692 1.52279,0.363139 4.41557,1.009381 8.07991,4.631718 9.26182,9.155666 0.4132,1.581572 0.41434,4.502214 0.002,6.091148 -1.1423,4.405965 -4.76187,8.049011 -9.07964,9.138541 -1.61651,0.4079 -3.85252,0.49075 -5.35282,0.19833 z m 4.76158,-2.413098 c 1.77554,-0.46247 3.25617,-1.333989 4.67245,-2.750276 2.07795,-2.077947 3.02513,-4.338272 3.02513,-7.219071 0,-2.889405 -0.95054,-5.153102 -3.02513,-7.204241 -2.10394,-2.080164 -4.38319,-3.039963 -7.21907,-3.039963 -2.8446396,0 -5.1276196,0.963346 -7.2042396,3.039963 -2.08531,2.085315 -3.039961,4.358362 -3.039961,7.23825 0,2.83199 0.945461,5.06662 3.039961,7.185062 1.37341,1.389105 2.85727,2.277464 4.5785,2.741056 1.2827896,0.345508 3.8636196,0.350108 5.1723596,0.0092 z m 0.0109,-77.356672 c 3.48348,-0.89815 6.5027,-3.91464 7.41187,-7.40518 0.35214,-1.35196 0.35214,-3.74128 0,-5.09324 -0.91479,-3.51211 -3.91061,-6.50794 -7.42273,-7.42273 -1.35196,-0.35214 -3.74128,-0.35214 -5.09324,0 -3.4701896,0.90387 -6.5156796,3.9403 -7.4149596,7.3929 -0.602441,2.3129 -0.2581,5.19587 0.88092,7.37554 0.72022,1.37823 2.83109,3.51472 4.18927,4.24013 2.18056,1.16463 5.0891696,1.52097 7.4488596,0.91258 z m 72.56667,79.76977 c -4.54329,-0.88553 -8.13552,-3.951996 -9.61574,-8.20837 -2.49574,-7.1765 1.67241,-14.670779 9.1395,-16.432725 l 1.39914,-0.330142 0.0554,-22.592413 c 0.0402,-16.40258 -0.003,-22.9717 -0.15772,-23.97676 -1.2859,-8.35515 -7.86609,-15.10637 -16.27919,-16.7023 -1.19746,-0.22716 -3.30086,-0.27909 -11.30434,-0.27909 h -9.83312 l -0.1113,0.41531 c -0.0612,0.22842 -0.11243,2.67872 -0.11382,5.44512 -0.001,2.76639 -0.0451,5.02981 -0.0971,5.02981 -0.10036,0 -15.51862,-11.51839 -15.92728,-11.89866 -0.19231,-0.17894 1.36296,-1.42604 7.7975,-6.25244 4.42074,-3.3159 8.07971,-6.02891 8.13103,-6.02891 0.0513,0 0.0944,2.26341 0.0958,5.02981 10e-4,2.76639 0.0526,5.2167 0.11382,5.44511 l 0.1113,0.41531 h 8.93789 c 4.97804,0 9.73198,0.0858 10.73027,0.19372 5.18236,0.5601 9.5151,2.56716 13.25432,6.13982 2.81213,2.68687 4.65382,5.53314 5.78824,8.94555 1.26539,3.80635 1.18161,1.96522 1.2509,27.49208 l 0.0627,23.113385 0.77771,0.192174 c 3.36144,0.830618 5.0167,1.704277 6.96313,3.675192 2.424647,2.455168 3.587517,5.303391 3.587517,8.786974 0,3.543167 -1.15996,6.341082 -3.679527,8.875323 -1.16998,1.176801 -1.81453,1.654232 -3.05012,2.259272 -2.68159,1.31314 -5.46888,1.74644 -8.02695,1.24785 z m 4.78943,-2.420352 c 3.51133,-0.914584 6.47595,-3.887465 7.39488,-7.415475 0.354757,-1.362019 0.351387,-3.744173 -0.007,-5.121088 -0.47063,-1.806853 -1.47153,-3.477307 -2.87918,-4.805217 -2.08465,-1.966553 -4.30906,-2.866411 -7.07555,-2.862326 -2.83979,0.0042 -5.17398,0.982548 -7.22447,3.028081 -4.07068,4.060838 -4.07068,10.387435 0,14.418172 1.39899,1.385257 2.93539,2.31093 4.56142,2.748225 1.32026,0.35506 3.88582,0.35978 5.23015,0.0096 z M 48.569313,12.52603 c 0,-6.90304 -0.006,-7.01136 -0.37095,-7.00163 -0.48725,0.013 -9.31951,6.65202 -9.31951,7.00527 0,0.35336 9.03095,7.13489 9.40546,7.06277 0.25098,-0.0483 0.285,-0.89183 0.285,-7.06641 z"
     id="path871" />
</svg>
