<svg xmlns="http://www.w3.org/2000/svg" viewBox="0 0 80 80" width="50px" height="50px"><path fill="#e1ebf2" d="M16,55.5c-8.5,0-15.5-7-15.5-15.5c0-7.1,4.8-13.3,11.7-15l0.4-0.1l0-0.6c0-0.4-0.1-0.9-0.1-1.3 c0-11.3,9.2-20.5,20.5-20.5c9.6,0,17.8,6.5,20,15.9l0.1,0.5l0.5-0.1c0.8-0.2,1.6-0.3,2.4-0.3c5.7,0,10.5,4.1,11.3,9.7l0.1,0.4 l0.4,0c6.7,0.9,11.7,6.6,11.7,13.4c0,7.4-6.1,13.5-13.5,13.5H16z"/><path fill="#b0c1d4" d="M33,3c9.4,0,17.4,6.4,19.5,15.5l0.2,1l1-0.2c0.8-0.2,1.6-0.3,2.3-0.3c5.4,0,10,3.9,10.9,9.3L67,29 l0.7,0.1C74.1,30,79,35.5,79,42c0,7.2-5.8,13-13,13H16C7.7,55,1,48.3,1,40c0-6.9,4.7-12.8,11.3-14.5l0.8-0.2l-0.1-0.8l0-0.2 c0-0.4-0.1-0.9-0.1-1.3C13,12,22,3,33,3 M33,2c-11.6,0-21,9.4-21,21c0,0.5,0,1,0.1,1.5C5.1,26.3,0,32.5,0,40c0,8.8,7.2,16,16,16 h50c7.7,0,14-6.3,14-14c0-7.1-5.3-13-12.2-13.9C66.9,22.4,62,18,56,18c-0.9,0-1.7,0.1-2.6,0.3C51.3,9,43,2,33,2L33,2z"/><path fill="#4e7ab5" d="M11 78c-.2 0-.3 0-.5-.1-.5-.3-.7-.9-.4-1.3l8.1-16c.2-.5.9-.7 1.3-.4.5.3.7.9.4 1.3l-8.1 16C11.7 77.8 11.4 78 11 78zM51 78c-.2 0-.3 0-.4-.1-.5-.2-.7-.8-.4-1.3l8-16c.2-.5.8-.7 1.3-.4.5.2.7.8.4 1.3l-8 16C51.7 77.8 51.4 78 51 78zM31 78c-.1 0-.3 0-.4-.1-.5-.2-.7-.8-.4-1.3l8-16c.2-.5.8-.7 1.3-.4.5.2.7.8.4 1.3l-8 16C31.7 77.8 31.4 78 31 78zM23 74c-.1 0-.3 0-.4-.1-.5-.2-.7-.8-.4-1.3l6-12c.2-.5.8-.7 1.3-.4.5.2.7.8.4 1.3l-6 12C23.7 73.8 23.4 74 23 74zM42.9 74c-.2 0-.3 0-.5-.1C42 73.6 41.8 73 42 72.5l6.1-12c.2-.5.9-.7 1.3-.4.5.2.7.9.4 1.3l-6.1 12C43.7 73.8 43.3 74 42.9 74z"/></svg>