<?xml version="1.0" encoding="UTF-8" standalone="no"?>
<svg
   xmlns:dc="http://purl.org/dc/elements/1.1/"
   xmlns:cc="http://creativecommons.org/ns#"
   xmlns:rdf="http://www.w3.org/1999/02/22-rdf-syntax-ns#"
   xmlns:svg="http://www.w3.org/2000/svg"
   xmlns="http://www.w3.org/2000/svg"
   xmlns:sodipodi="http://sodipodi.sourceforge.net/DTD/sodipodi-0.dtd"
   xmlns:inkscape="http://www.inkscape.org/namespaces/inkscape"
   viewBox="0 0 114.5028 114.50074"
   width="143.12849"
   height="143.12593"
   version="1.1"
   id="svg16"
   sodipodi:docname="router-50.svg"
   inkscape:version="1.0.1 (1.0.1+r75)">
  <metadata
     id="metadata22">
    <rdf:RDF>
      <cc:Work
         rdf:about="">
        <dc:format>image/svg+xml</dc:format>
        <dc:type
           rdf:resource="http://purl.org/dc/dcmitype/StillImage" />
        <dc:title></dc:title>
      </cc:Work>
    </rdf:RDF>
  </metadata>
  <defs
     id="defs20" />
  <sodipodi:namedview
     pagecolor="#ffffff"
     bordercolor="#666666"
     borderopacity="1"
     objecttolerance="10"
     gridtolerance="10"
     guidetolerance="10"
     inkscape:pageopacity="0"
     inkscape:pageshadow="2"
     inkscape:window-width="1920"
     inkscape:window-height="1025"
     id="namedview18"
     showgrid="false"
     fit-margin-top="0"
     fit-margin-left="0"
     fit-margin-right="0"
     fit-margin-bottom="0"
     inkscape:zoom="0.54875"
     inkscape:cx="-350.5941"
     inkscape:cy="-120.33121"
     inkscape:window-x="0"
     inkscape:window-y="27"
     inkscape:window-maximized="1"
     inkscape:current-layer="svg16" />
  <path
     style="fill:#4788c7;fill-opacity:1;stroke-width:0.194276"
     d="m 54.686094,114.40169 c -10.68389,-0.58064 -20.40383,-3.75359 -29.04419,-9.48111 -6.0247,-3.99365 -11.5308,-9.418555 -15.68172,-15.450485 -10.70397996,-15.55454 -12.9533,-35.91142 -5.908,-53.46898 2.89171,-7.20643 6.6669,-13.01772 12.07022,-18.58015 9.278,-9.55122 20.10428,-15.04327 33.62374,-17.05694001 3.24673,-0.48359 11.5985,-0.4858 15.04228,-0.004 C 88.900874,3.733595 107.95129,21.280185 113.23359,44.980975 c 1.49431,6.70469 1.67986,14.78556 0.49959,21.75782 -4.13276,24.41392 -23.550776,43.430335 -48.098276,47.103545 -2.10837,0.31549 -7.56352,0.71081 -9.00605,0.65265 -0.48083,-0.0194 -1.35507,-0.0614 -1.94276,-0.0933 z m 10.1033,-22.507735 c 5.79472,-5.79914 7.22477,-7.32811 6.99295,-7.47664 -0.16878,-0.10814 -2.63777,-0.18796 -5.86711,-0.18969 l -5.5757,-0.003 -0.0583,-6.49435 c -0.056,-6.23741 -0.0744,-6.51603 -0.46471,-7.04249 -1.33608,-1.802 -3.77045,-1.89189 -4.98855,-0.1842 -0.42232,0.59204 -0.43576,0.77239 -0.53044,7.11567 l -0.0971,6.50823 -5.62732,0.0516 c -3.44652,0.0316 -5.70313,0.12742 -5.82293,0.24722 -0.13128,0.13128 2.19791,2.58973 7.08343,7.47656 4.00345,4.00453 7.36731,7.28096 7.47523,7.28096 0.10792,0 3.47418,-3.28047 7.48058,-7.28992 z m -29.9194,-27.38827 7.2834,-7.28534 -7.38054,-7.38247 c -4.05931,-4.06035 -7.44525,-7.38246 -7.52433,-7.38246 -0.0791,0 -0.16693,2.60086 -0.19523,5.77969 l -0.0515,5.7797 -6.41109,0.0971 c -5.96942,0.0905 -6.45552,0.12391 -7.05591,0.48569 -1.83486,1.10565 -1.92169,3.72203 -0.16696,5.03086 0.52515,0.3917 0.82263,0.41293 7.09105,0.50599 l 6.54291,0.0971 0.0515,5.7797 c 0.0396,4.44201 0.10722,5.7797 0.29238,5.7797 0.13251,0 3.51846,-3.27841 7.52432,-7.28534 z m 52.4544,1.83285 c 0,-3.38702 0.0762,-5.59484 0.20111,-5.82827 0.19244,-0.35959 0.47088,-0.37578 6.46269,-0.37578 7.075186,0 7.217386,-0.0261 8.049366,-1.47729 0.78491,-1.36908 0.4554,-2.90357 -0.83494,-3.88824 l -0.73366,-0.55987 -6.421326,-0.0586 c -4.72246,-0.0431 -6.46047,-0.12021 -6.56931,-0.29141 -0.0814,-0.12804 -0.14932,-2.74624 -0.15096,-5.81822 -0.002,-3.07198 -0.0681,-5.58542 -0.14772,-5.58542 -0.22121,0 -14.62019,14.44397 -14.62019,14.66587 0,0.22321 14.39584,14.66974 14.61826,14.66974 0.0807,0 0.14668,-2.45362 0.14668,-5.45249 z m -28.46824,-21.71907 c 0.31677,-0.1827 0.75389,-0.63508 0.97137,-1.00527 0.37012,-0.63001 0.40164,-1.08344 0.49257,-7.08419 l 0.0971,-6.41109 5.77969,-0.0515 c 3.17884,-0.0283 5.7797,-0.11616 5.7797,-0.19523 0,-0.0791 -3.32096,-3.46388 -7.37991,-7.52177 l -7.37991,-7.378 -7.2879,7.27833 c -4.00834,4.00309 -7.28789,7.38918 -7.28789,7.52466 0,0.19334 1.22853,0.24633 5.71035,0.24633 5.02786,0 5.72443,0.0367 5.82826,0.30731 0.0649,0.16901 0.11793,3.08479 0.11793,6.47949 0,6.08293 0.006,6.18175 0.43868,6.83233 0.92944,1.39858 2.67343,1.81281 4.11992,0.97856 z"
     id="path861" />
</svg>
