<?xml version="1.0" encoding="UTF-8" standalone="no"?>
<svg
   xmlns:dc="http://purl.org/dc/elements/1.1/"
   xmlns:cc="http://creativecommons.org/ns#"
   xmlns:rdf="http://www.w3.org/1999/02/22-rdf-syntax-ns#"
   xmlns:svg="http://www.w3.org/2000/svg"
   xmlns="http://www.w3.org/2000/svg"
   xmlns:sodipodi="http://sodipodi.sourceforge.net/DTD/sodipodi-0.dtd"
   xmlns:inkscape="http://www.inkscape.org/namespaces/inkscape"
   id="svg1756"
   version="1.1"
   viewBox="0 0 130.00001 129.99999"
   height="130mm"
   width="130mm"
   sodipodi:docname="safe.svg"
   inkscape:version="0.92.4 (unknown)">
  <sodipodi:namedview
     pagecolor="#ffffff"
     bordercolor="#666666"
     borderopacity="1"
     objecttolerance="10"
     gridtolerance="10"
     guidetolerance="10"
     inkscape:pageopacity="0"
     inkscape:pageshadow="2"
     inkscape:window-width="1366"
     inkscape:window-height="743"
     id="namedview115"
     showgrid="false"
     inkscape:zoom="0.52089201"
     inkscape:cx="-191.24828"
     inkscape:cy="195.5439"
     inkscape:window-x="0"
     inkscape:window-y="0"
     inkscape:window-maximized="1"
     inkscape:current-layer="svg1756" />
  <defs
     id="defs1750" />
  <metadata
     id="metadata1753">
    <rdf:RDF>
      <cc:Work
         rdf:about="">
        <dc:format>image/svg+xml</dc:format>
        <dc:type
           rdf:resource="http://purl.org/dc/dcmitype/StillImage" />
        <dc:title></dc:title>
      </cc:Work>
    </rdf:RDF>
  </metadata>
  <g
     id="g956"
     transform="matrix(0.52449252,0,0,0.52449252,118.2925,65.544703)"
     style="fill:#f4f4f4;fill-opacity:1;stroke:#909090;stroke-width:9.73361969;stroke-miterlimit:4;stroke-dasharray:none;stroke-opacity:1">
    <path
       style="fill:#f4f4f4;fill-opacity:1;stroke:#909090;stroke-width:9.73361969;stroke-miterlimit:4;stroke-dasharray:none;stroke-opacity:1"
       d="m -105.57096,115.57411 c -22.09982,-15.803434 -41.4049,-34.944885 -57.30251,-56.816812 -16.84991,-23.182104 -30.09818,-50.6635029 -37.75501,-78.316669 -4.48392,-16.193995 -7.54271,-33.312707 -7.98965,-44.714584 -0.12264,-3.128698 -0.30793,-6.900117 -0.41176,-8.380932 -0.15195,-2.167286 -0.11512,-2.766033 0.18883,-3.069987 0.22283,-0.222824 2.43469,-0.727355 5.3963,-1.230902 34.3072,-5.833097 67.46915,-19.426049 95.17243,-39.010804 4.97012,-3.51362 6.45181,-4.324 7.13073,-3.90001 0.25955,0.1621 0.59969,0.29472 0.75587,0.29472 0.15618,0 1.497251,0.87337 2.980153,1.94082 15.24559,10.97441 32.339073,20.319631 49.924314,27.294257 16.090625,6.381835 31.708423,10.739689 48.40767685,13.507255 2.39500305,0.396925 4.50324805,0.870376 4.68498765,1.052116 0.2561114,0.256111 0.2755794,1.125759 0.086556,3.86643 -0.1341332,1.944796 -0.2480813,4.99092 -0.2532168,6.769161 -0.021114,7.311261 -2.7344397,24.122203 -6.09733617,37.777252 C -5.2251037,-8.7979012 -10.65651,6.1589289 -18.907891,22.906255 c -15.661878,31.787963 -36.742113,58.505163 -64.292122,81.484175 -6.803628,5.6748 -17.573807,13.63354 -18.449607,13.63354 -0.27248,0 -2.03708,-1.10244 -3.92134,-2.44986 z"
       id="path970"
       inkscape:connector-curvature="0" />
    <path
       style="fill:#f4f4f4;fill-opacity:1;stroke:#909090;stroke-width:9.73361969;stroke-miterlimit:4;stroke-dasharray:none;stroke-opacity:1"
       d="m -103.47863,116.78929 c -0.99775,-0.6771 -3.65956,-2.60161 -5.91513,-4.27667 -28.98771,-21.527217 -52.76898,-48.830728 -70.25183,-80.656796 -12.3941,-22.5624398 -21.84071,-49.922397 -26.43072,-76.550612 -1.53375,-8.897776 -2.2546,-15.231544 -2.80045,-24.606251 -0.34767,-5.971029 -0.34223,-6.263719 0.11978,-6.441009 0.21158,-0.08119 2.82422,-0.569632 5.80586,-1.085418 23.64365,-4.090073 44.44904,-10.977717 66.06375,-21.870454 10.54794,-5.31564 19.97957,-10.92054 28.62226,-17.00923 6.54587,-4.61151 6.42618,-4.544 7.27762,-4.10479 0.39702,0.2048 1.674352,1.07347 2.838518,1.93037 3.724934,2.74182 13.346774,9.01102 18.123959,11.80885 25.355478,14.849793 51.933721,24.552048 80.47805288,29.378101 2.60001282,0.439592 4.91153982,0.869958 5.13672932,0.956371 0.3326077,0.127632 0.380238,0.460846 0.2538492,1.775806 -0.085572,0.890284 -0.2670678,3.999945 -0.4033229,6.910362 -0.2524549,5.392438 -1.0695332,12.616929 -2.2592586,19.976042 -4.3076415,26.645172 -13.4602749,54.0181098 -25.6652479,76.7575 -15.496428,28.871789 -35.53542,53.441839 -60.715802,74.444388 -4.847739,4.04342 -15.956648,12.43438 -18.161947,13.71838 -0.16642,0.0969 -1.11892,-0.37783 -2.11667,-1.05494 z"
       id="path968"
       inkscape:connector-curvature="0" />
    <path
       style="fill:#f4f4f4;fill-opacity:1;stroke:#909090;stroke-width:9.73361969;stroke-miterlimit:4;stroke-dasharray:none;stroke-opacity:1"
       d="m -103.80332,116.44214 c -15.73814,-10.84183 -33.14319,-26.715135 -47.00489,-42.868175 -22.60255,-26.338764 -40.0786,-59.281657 -49.55798,-93.418379 -4.55426,-16.400564 -7.40082,-33.263614 -8.5383,-50.580874 -0.17921,-2.728388 -0.27613,-5.010343 -0.21537,-5.071007 0.0608,-0.06066 2.57428,-0.536469 5.5856,-1.057343 36.34248,-6.286223 69.4681,-20.235935 99.13605,-41.747732 1.36511,-0.98982 2.59872,-1.79967 2.74134,-1.79967 0.14263,0 1.823696,1.11005 3.735697,2.46679 5.572265,3.954 9.034483,6.28271 13.13366,8.83375 26.187312,16.297164 55.004438,27.168909 85.8292534,32.380532 2.6327577,0.445124 4.813009,0.835498 4.8450051,0.867494 0.2827734,0.282771 -1.0242233,15.084704 -1.9303762,21.861852 -3.66154497,27.384765 -11.1436018,52.0233186 -23.2603883,76.596877 -12.521028,25.393389 -27.079038,45.667154 -47.212449,65.74896 -6.496518,6.479869 -10.492338,10.131867 -17.210836,15.729935 -5.966886,4.97179 -17.207496,13.37423 -17.891776,13.37423 -0.14967,0 -1.13258,-0.59275 -2.18424,-1.31724 z"
       id="path966"
       inkscape:connector-curvature="0" />
    <path
       style="fill:#f4f4f4;fill-opacity:1;stroke:#909090;stroke-width:9.73361969;stroke-miterlimit:4;stroke-dasharray:none;stroke-opacity:1"
       d="m -103.47863,116.52267 c -0.99775,-0.67823 -3.65956,-2.6037 -5.91513,-4.27883 -28.91796,-21.476181 -52.5131,-48.577786 -69.98725,-80.388016 -13.48303,-24.5447458 -23.37002,-54.499498 -27.49351,-83.297487 -1.07425,-7.502475 -2.26716,-19.596503 -2.26716,-22.985098 v -1.115357 l 3.77031,-0.602879 c 27.73167,-4.434333 54.87364,-14.074249 79.822,-28.350093 7.84476,-4.4889 17.22211,-10.59589 22.08883,-14.38534 0.86218,-0.67134 1.66511,-1.22061 1.78429,-1.22061 0.11917,0 1.43782,0.91014 2.930312,2.02254 1.492499,1.1124 5.273477,3.71816 8.402175,5.79058 27.873259,18.462962 59.975392,31.014099 92.4032206,36.127365 l 3.9000933,0.614974 -0.1460977,2.262375 c -0.5557043,8.605295 -1.7724173,19.485214 -3.0343316,27.13321 -4.3084724,26.112018 -13.5056056,53.4323881 -25.5279156,75.831458 -15.475445,28.832692 -35.407224,53.291014 -60.451219,74.179798 -4.847739,4.04342 -15.956648,12.43439 -18.161947,13.71838 -0.16642,0.0969 -1.11892,-0.37875 -2.11667,-1.05697 z"
       id="path964"
       inkscape:connector-curvature="0" />
    <path
       style="fill:#f4f4f4;fill-opacity:1;stroke:#909090;stroke-width:9.73361969;stroke-miterlimit:4;stroke-dasharray:none;stroke-opacity:1"
       d="m -102.91147,116.86421 c -0.43656,-0.33315 -2.3414,-1.72655 -4.23296,-3.09643 -18.03449,-13.06065 -35.65542,-30.02085 -49.45663,-47.602149 -26.9929,-34.386124 -44.04309,-74.5244535 -50.12648,-118.004169 -0.8708,-6.223802 -1.62039,-13.115857 -1.62039,-14.898458 0,-0.624411 -0.10789,-1.248402 -0.23975,-1.386647 -0.13187,-0.138245 -0.32354,-1.864495 -0.42594,-3.836114 l -0.18618,-3.584761 0.88896,-0.0276 c 1.1794,-0.03662 9.18423,-1.449123 13.98583,-2.46789 30.77877,-6.530417 60.61643,-19.492722 86.53358,-37.592582 2.26374,-1.58093 4.5176,-3.23308 5.00859,-3.67144 0.491,-0.43835 1.00438,-0.79701 1.14086,-0.79701 0.13649,0 0.64059,0.34456 1.12023,0.76569 1.748901,1.53556 9.509985,6.86512 14.940487,10.25968 20.837744,13.025484 43.773666,22.849376 67.472343,28.899683 7.543868,1.925963 20.6508585,4.527243 23.1958195,4.603562 l 0.8421237,0.02524 -0.1349428,2.792336 c -0.074218,1.535787 -0.230497,3.030464 -0.3472894,3.321505 -0.1167924,0.291042 -0.4087892,2.84493 -0.6488827,5.675308 -1.8836904,22.20618 -7.6333958,46.739081 -15.8473143,67.6174737 -11.061737,28.1170863 -26.068723,52.4159123 -46.323909,75.0061943 -4.258294,4.749204 -13.956754,14.446165 -18.551395,18.548522 -8.898945,7.945486 -24.54123,20.109046 -25.80763,20.068216 -0.21196,-0.007 -0.74257,-0.285 -1.17913,-0.61816 z"
       id="path962"
       inkscape:connector-curvature="0" />
    <path
       style="fill:#f4f4f4;fill-opacity:1;stroke:#909090;stroke-width:9.73361969;stroke-miterlimit:4;stroke-dasharray:none;stroke-opacity:1"
       d="m -103.54907,116.17044 c -15.72715,-10.83426 -33.13681,-26.712616 -46.99456,-42.861058 -28.12674,-32.776098 -47.45548,-74.24349589 -55.00398,-118.00417 -1.27938,-7.416885 -2.80032,-19.707945 -2.80032,-22.629967 0,-0.66757 -0.10121,-1.15121 -0.22492,-1.074756 -0.20066,0.124018 -0.56883,-4.015023 -0.56883,-6.394953 0,-0.73543 0.084,-0.880972 0.43132,-0.747678 0.48193,0.184934 9.17956,-1.267333 14.91823,-2.490941 32.17904,-6.861252 61.9992,-20.103869 88.95367,-39.502787 1.41402,-1.01766 2.51362,-1.94303 2.44356,-2.05639 -0.0701,-0.11335 0.1094,-0.28125 0.39879,-0.3731 0.37875,-0.12021 0.7719,0.0783 1.40323,0.70856 1.107588,1.10568 10.484651,7.57457 15.540783,10.721 23.549618,14.654933 49.74318,25.178949 76.2647121,30.641534 6.7190409,1.383908 13.8311679,2.539952 14.3652452,2.335006 0.4246298,-0.162944 0.4537154,-0.05588 0.2964736,1.091329 -0.09589,0.699598 -0.1743472,2.095844 -0.1743472,3.102769 0,1.006922 -0.094454,1.772394 -0.2098966,1.701046 -0.1154457,-0.07135 -0.3581638,1.737328 -0.5393796,4.01928 C 2.582269,-35.820171 -6.05734,-4.7867542 -19.701641,22.906255 c -12.354554,25.075291 -27.026139,45.482503 -47.07941,65.484377 -6.489081,6.472449 -10.493373,10.132748 -17.180864,15.704928 -4.794375,3.99478 -15.114532,11.83215 -17.391425,13.20745 -0.16167,0.0977 -1.14975,-0.412 -2.19573,-1.13257 z"
       id="path960"
       inkscape:connector-curvature="0" />
    <path
       style="fill:#f4f4f4;fill-opacity:1;stroke:#909090;stroke-width:9.73361969;stroke-miterlimit:4;stroke-dasharray:none;stroke-opacity:1"
       d="m -105.16043,114.7917 c -1.81901,-1.3233 -3.46287,-2.62566 -3.65302,-2.89415 -0.19016,-0.26849 -0.48925,-0.48817 -0.66465,-0.48817 -0.17541,0 -1.8129,-1.16086 -3.63886,-2.57969 -15.72583,-12.219414 -31.10168,-27.491786 -43.21952,-42.928642 -24.0089,-30.584823 -40.02962,-65.42530311 -47.75295,-103.848961 -1.90587,-9.481736 -3.58845,-21.936967 -4.18189,-30.956251 l -0.2089,-3.175 -0.13299,1.984375 c -0.12636,1.885532 -0.14423,1.80236 -0.3587,-1.669775 -0.21363,-3.458615 -0.13011,-4.413935 0.32194,-3.682502 0.1512,0.244644 1.46775,0.10102 5.5382,-0.604166 27.47969,-4.760735 53.40802,-14.093174 77.57422,-27.921458 10.18228,-5.82646 24.05157,-15.12698 23.2743,-15.60737 -0.2191,-0.13541 -0.13341,-0.25817 0.2695,-0.38605 0.33426,-0.10609 0.71704,-0.0612 0.88162,0.10337 0.21143,0.21143 0.19338,0.29087 -0.0661,0.29087 -0.19633,0 0.40494,0.57264 1.336145,1.27253 1.51262,1.13689 2.821279,2.05365 8.57227,6.00516 8.558535,5.88057 24.109614,14.423064 35.057292,19.257613 18.579621,8.204851 37.054888,13.770103 56.83371675,17.11986 3.54966585,0.601176 4.70162465,0.712401 4.85235515,0.468514 0.3927316,-0.635456 0.4432538,-0.01807 0.2432156,2.972154 L 5.5132279,-69.43333 5.425373,-71.81458 C 5.3602246,-73.580338 5.3158857,-73.819696 5.2538251,-72.740622 2.9439729,-32.577149 -9.0505686,6.5873343 -29.427647,40.501047 -40.059942,58.19645 -51.912815,73.296859 -66.914121,88.25834 c -6.372436,6.355517 -10.393772,10.028328 -17.077766,15.59764 -5.276676,4.39669 -17.263303,13.42222 -17.740453,13.35797 -0.0664,-0.009 -1.60908,-1.09896 -3.42809,-2.42225 z"
       id="path958"
       inkscape:connector-curvature="0" />
  </g>
  <path
     style="fill:#000000;stroke-width:0.26458335"
     d=""
     id="path954"
     inkscape:connector-curvature="0" />
</svg>
