<svg fill="#000000" xmlns="http://www.w3.org/2000/svg" viewBox="0 0 80 80" width="50px" height="50px"><path d="M 40 5 C 37.800781 5 36 6.800781 36 9 C 36 9.976563 36.417969 10.828125 37 11.515625 L 37 15.242188 C 32.355469 15.800781 28.113281 17.621094 24.609375 20.371094 L 21.980469 17.738281 C 21.902344 16.835938 21.601563 15.941406 20.90625 15.25 C 19.355469 13.695313 16.804688 13.695313 15.25 15.25 C 13.695313 16.804688 13.695313 19.355469 15.25 20.90625 C 15.941406 21.601563 16.839844 21.902344 17.738281 21.980469 L 20.371094 24.609375 C 17.621094 28.113281 15.800781 32.355469 15.242188 37 L 11.515625 37 C 10.828125 36.417969 9.976563 36 9 36 C 6.800781 36 5 37.800781 5 40 C 5 42.199219 6.800781 44 9 44 C 9.976563 44 10.828125 43.582031 11.515625 43 L 15.242188 43 C 15.800781 47.644531 17.621094 51.886719 20.371094 55.390625 L 17.738281 58.019531 C 16.835938 58.097656 15.941406 58.398438 15.25 59.09375 C 13.695313 60.644531 13.695313 63.195313 15.25 64.75 C 16.804688 66.304688 19.355469 66.304688 20.90625 64.75 C 21.601563 64.058594 21.902344 63.160156 21.980469 62.261719 L 24.609375 59.628906 C 28.113281 62.378906 32.355469 64.199219 37 64.757813 L 37 68.484375 C 36.417969 69.171875 36 70.023438 36 71 C 36 73.199219 37.800781 75 40 75 C 42.199219 75 44 73.199219 44 71 C 44 70.023438 43.582031 69.171875 43 68.484375 L 43 64.757813 C 47.644531 64.199219 51.886719 62.378906 55.390625 59.628906 L 58.019531 62.261719 C 58.097656 63.164063 58.398438 64.058594 59.09375 64.75 C 60.644531 66.304688 63.195313 66.304688 64.75 64.75 C 66.304688 63.195313 66.304688 60.644531 64.75 59.09375 C 64.058594 58.398438 63.160156 58.097656 62.261719 58.019531 L 59.628906 55.390625 C 62.378906 51.886719 64.199219 47.644531 64.757813 43 L 68.484375 43 C 69.171875 43.582031 70.023438 44 71 44 C 73.199219 44 75 42.199219 75 40 C 75 37.800781 73.199219 36 71 36 C 70.023438 36 69.171875 36.417969 68.484375 37 L 64.757813 37 C 64.199219 32.355469 62.378906 28.113281 59.628906 24.609375 L 62.261719 21.980469 C 63.164063 21.902344 64.058594 21.601563 64.75 20.90625 C 66.304688 19.355469 66.304688 16.804688 64.75 15.25 C 63.195313 13.695313 60.644531 13.695313 59.09375 15.25 C 58.398438 15.941406 58.097656 16.839844 58.019531 17.738281 L 55.390625 20.371094 C 51.886719 17.621094 47.644531 15.800781 43 15.242188 L 43 11.515625 C 43.582031 10.828125 44 9.976563 44 9 C 44 6.800781 42.199219 5 40 5 Z M 40 7 C 41.117188 7 42 7.882813 42 9 C 42 9.589844 41.746094 10.105469 41.328125 10.480469 L 41 10.777344 L 41 17.011719 L 41.917969 17.085938 C 46.832031 17.492188 51.296875 19.433594 54.847656 22.4375 L 55.550781 23.035156 L 59.957031 18.628906 L 59.933594 18.1875 C 59.90625 17.628906 60.089844 17.082031 60.503906 16.667969 C 61.296875 15.875 62.542969 15.875 63.332031 16.667969 C 64.125 17.457031 64.125 18.703125 63.332031 19.496094 C 62.914063 19.914063 62.371094 20.09375 61.816406 20.066406 L 61.371094 20.042969 L 56.964844 24.449219 L 57.5625 25.152344 C 60.566406 28.703125 62.507813 33.167969 62.914063 38.082031 L 62.988281 39 L 69.222656 39 L 69.519531 38.671875 C 69.894531 38.253906 70.410156 38 71 38 C 72.117188 38 73 38.882813 73 40 C 73 41.117188 72.117188 42 71 42 C 70.410156 42 69.894531 41.746094 69.519531 41.328125 L 69.222656 41 L 62.988281 41 L 62.914063 41.917969 C 62.507813 46.832031 60.566406 51.296875 57.5625 54.847656 L 56.964844 55.550781 L 61.371094 59.957031 L 61.8125 59.933594 C 62.371094 59.90625 62.917969 60.089844 63.332031 60.503906 C 64.125 61.296875 64.125 62.542969 63.332031 63.332031 C 62.542969 64.125 61.296875 64.125 60.503906 63.332031 C 60.085938 62.914063 59.90625 62.371094 59.933594 61.816406 L 59.957031 61.371094 L 55.550781 56.964844 L 54.847656 57.5625 C 51.296875 60.566406 46.832031 62.507813 41.917969 62.914063 L 41 62.988281 L 41 69.222656 L 41.328125 69.519531 C 41.746094 69.894531 42 70.410156 42 71 C 42 72.117188 41.117188 73 40 73 C 38.882813 73 38 72.117188 38 71 C 38 70.410156 38.253906 69.894531 38.671875 69.519531 L 39 69.222656 L 39 62.988281 L 38.082031 62.914063 C 33.167969 62.507813 28.703125 60.566406 25.152344 57.5625 L 24.449219 56.964844 L 20.042969 61.371094 L 20.066406 61.8125 C 20.09375 62.371094 19.910156 62.917969 19.496094 63.332031 C 18.703125 64.125 17.457031 64.125 16.667969 63.332031 C 15.875 62.542969 15.875 61.296875 16.667969 60.503906 C 17.085938 60.085938 17.628906 59.90625 18.183594 59.933594 L 18.628906 59.957031 L 23.035156 55.550781 L 22.4375 54.847656 C 19.433594 51.296875 17.492188 46.832031 17.085938 41.917969 L 17.011719 41 L 10.777344 41 L 10.480469 41.328125 C 10.105469 41.746094 9.589844 42 9 42 C 7.882813 42 7 41.117188 7 40 C 7 38.882813 7.882813 38 9 38 C 9.589844 38 10.105469 38.253906 10.480469 38.671875 L 10.777344 39 L 17.011719 39 L 17.085938 38.082031 C 17.492188 33.167969 19.433594 28.703125 22.4375 25.152344 L 23.035156 24.449219 L 18.628906 20.042969 L 18.1875 20.066406 C 17.628906 20.09375 17.082031 19.910156 16.667969 19.496094 C 15.875 18.703125 15.875 17.457031 16.667969 16.667969 C 17.457031 15.875 18.703125 15.875 19.496094 16.667969 C 19.914063 17.085938 20.09375 17.628906 20.066406 18.183594 L 20.042969 18.628906 L 24.449219 23.035156 L 25.152344 22.4375 C 28.703125 19.433594 33.167969 17.492188 38.082031 17.085938 L 39 17.011719 L 39 10.777344 L 38.671875 10.480469 C 38.253906 10.105469 38 9.589844 38 9 C 38 7.882813 38.882813 7 40 7 Z M 38 18 C 37.449219 18 37 18.449219 37 19 C 37 19.550781 37.449219 20 38 20 C 38.550781 20 39 19.550781 39 19 C 39 18.449219 38.550781 18 38 18 Z M 42 18 C 41.449219 18 41 18.449219 41 19 C 41 19.550781 41.449219 20 42 20 C 42.550781 20 43 19.550781 43 19 C 43 18.449219 42.550781 18 42 18 Z M 39 21 L 37.890625 21.125 C 34.226563 21.527344 30.878906 22.976563 28.148438 25.160156 L 27.277344 25.859375 L 34.359375 32.945313 L 35.039063 32.496094 C 35.984375 31.867188 37.054688 31.414063 38.199219 31.183594 L 39 31.015625 Z M 41 21 L 41 31.015625 L 41.800781 31.183594 C 42.949219 31.414063 44.011719 31.867188 44.957031 32.496094 L 45.640625 32.945313 L 52.722656 25.859375 L 51.851563 25.160156 C 49.121094 22.976563 45.773438 21.527344 42.109375 21.125 Z M 26.578125 22.734375 C 26.308594 22.730469 26.046875 22.835938 25.859375 23.03125 C 25.46875 23.417969 25.46875 24.054688 25.859375 24.441406 C 26.246094 24.832031 26.882813 24.832031 27.269531 24.441406 C 27.660156 24.054688 27.660156 23.417969 27.269531 23.03125 C 27.085938 22.84375 26.839844 22.742188 26.578125 22.734375 Z M 53.449219 22.734375 C 53.179688 22.734375 52.917969 22.839844 52.730469 23.03125 C 52.339844 23.417969 52.339844 24.054688 52.730469 24.441406 C 53.117188 24.832031 53.753906 24.832031 54.140625 24.441406 C 54.53125 24.054688 54.53125 23.417969 54.140625 23.03125 C 53.957031 22.84375 53.710938 22.738281 53.449219 22.734375 Z M 37 23.398438 L 37 29.550781 C 36.203125 29.785156 35.449219 30.097656 34.734375 30.496094 L 30.378906 26.140625 C 32.335938 24.777344 34.566406 23.839844 37 23.398438 Z M 43 23.398438 C 45.433594 23.839844 47.664063 24.777344 49.617188 26.140625 L 45.265625 30.496094 C 44.550781 30.097656 43.796875 29.785156 43 29.550781 Z M 23.75 25.5625 C 23.480469 25.558594 23.21875 25.664063 23.03125 25.859375 C 22.640625 26.246094 22.640625 26.882813 23.03125 27.269531 C 23.417969 27.660156 24.054688 27.660156 24.441406 27.269531 C 24.832031 26.882813 24.832031 26.246094 24.441406 25.859375 C 24.257813 25.671875 24.011719 25.570313 23.75 25.5625 Z M 56.277344 25.5625 C 56.007813 25.558594 55.746094 25.664063 55.554688 25.859375 C 55.164063 26.246094 55.164063 26.882813 55.554688 27.269531 C 55.945313 27.660156 56.578125 27.660156 56.96875 27.269531 C 57.359375 26.882813 57.359375 26.246094 56.96875 25.859375 C 56.785156 25.671875 56.539063 25.570313 56.277344 25.5625 Z M 25.859375 27.277344 L 25.160156 28.148438 C 22.976563 30.878906 21.527344 34.226563 21.125 37.890625 L 21 39 L 31.015625 39 L 31.183594 38.199219 C 31.414063 37.050781 31.867188 35.988281 32.496094 35.042969 L 32.945313 34.359375 Z M 54.140625 27.277344 L 47.054688 34.359375 L 47.503906 35.042969 C 48.132813 35.988281 48.585938 37.054688 48.816406 38.199219 L 48.984375 39 L 59 39 L 58.875 37.890625 C 58.472656 34.226563 57.023438 30.878906 54.839844 28.148438 Z M 53.859375 30.378906 C 55.222656 32.335938 56.160156 34.566406 56.601563 37 L 50.449219 37 C 50.214844 36.203125 49.902344 35.449219 49.503906 34.734375 Z M 26.140625 30.382813 L 30.496094 34.734375 C 30.097656 35.449219 29.785156 36.203125 29.550781 37 L 23.398438 37 C 23.839844 34.566406 24.777344 32.335938 26.140625 30.382813 Z M 40 34 C 39.449219 34 39 34.449219 39 35 C 39 35.550781 39.449219 36 40 36 C 40.550781 36 41 35.550781 41 35 C 41 34.449219 40.550781 34 40 34 Z M 43.546875 35.464844 C 43.277344 35.460938 43.019531 35.566406 42.828125 35.753906 C 42.4375 36.144531 42.4375 36.78125 42.828125 37.171875 C 43.21875 37.558594 43.851563 37.558594 44.242188 37.171875 C 44.632813 36.78125 44.632813 36.144531 44.242188 35.753906 C 44.058594 35.570313 43.808594 35.464844 43.546875 35.464844 Z M 36.480469 35.464844 C 36.207031 35.460938 35.945313 35.566406 35.753906 35.757813 C 35.367188 36.148438 35.367188 36.78125 35.753906 37.171875 C 36.144531 37.5625 36.78125 37.5625 37.171875 37.171875 C 37.558594 36.78125 37.558594 36.148438 37.171875 35.757813 C 36.984375 35.574219 36.738281 35.46875 36.480469 35.464844 Z M 19 37 C 18.449219 37 18 37.449219 18 38 C 18 38.550781 18.449219 39 19 39 C 19.550781 39 20 38.550781 20 38 C 20 37.449219 19.550781 37 19 37 Z M 61 37 C 60.449219 37 60 37.449219 60 38 C 60 38.550781 60.449219 39 61 39 C 61.550781 39 62 38.550781 62 38 C 62 37.449219 61.550781 37 61 37 Z M 35 39 C 34.449219 39 34 39.449219 34 40 C 34 40.550781 34.449219 41 35 41 C 35.550781 41 36 40.550781 36 40 C 36 39.449219 35.550781 39 35 39 Z M 45 39 C 44.449219 39 44 39.449219 44 40 C 44 40.550781 44.449219 41 45 41 C 45.550781 41 46 40.550781 46 40 C 46 39.449219 45.550781 39 45 39 Z M 48.984375 41 L 48.816406 41.800781 C 48.585938 42.949219 48.132813 44.011719 47.503906 44.957031 L 47.054688 45.640625 L 54.140625 52.722656 L 54.839844 51.851563 C 57.023438 49.121094 58.472656 45.773438 58.875 42.109375 L 59 41 Z M 19 41 C 18.449219 41 18 41.449219 18 42 C 18 42.550781 18.449219 43 19 43 C 19.550781 43 20 42.550781 20 42 C 20 41.449219 19.550781 41 19 41 Z M 21 41 L 21.125 42.109375 C 21.527344 45.773438 22.976563 49.121094 25.160156 51.851563 L 25.859375 52.722656 L 32.945313 45.640625 L 32.496094 44.960938 C 31.867188 44.015625 31.414063 42.945313 31.183594 41.800781 L 31.015625 41 Z M 61 41 C 60.449219 41 60 41.449219 60 42 C 60 42.550781 60.449219 43 61 43 C 61.550781 43 62 42.550781 62 42 C 62 41.449219 61.550781 41 61 41 Z M 36.480469 42.535156 C 36.207031 42.53125 35.949219 42.636719 35.757813 42.828125 C 35.367188 43.21875 35.367188 43.851563 35.757813 44.242188 C 36.148438 44.632813 36.78125 44.632813 37.171875 44.242188 C 37.5625 43.851563 37.5625 43.21875 37.171875 42.828125 C 36.988281 42.644531 36.738281 42.539063 36.480469 42.535156 Z M 43.550781 42.535156 C 43.28125 42.53125 43.019531 42.636719 42.828125 42.828125 C 42.4375 43.21875 42.4375 43.851563 42.828125 44.242188 C 43.21875 44.632813 43.851563 44.632813 44.242188 44.242188 C 44.632813 43.851563 44.632813 43.21875 44.242188 42.828125 C 44.058594 42.644531 43.8125 42.539063 43.550781 42.535156 Z M 50.449219 43 L 56.601563 43 C 56.160156 45.433594 55.222656 47.664063 53.859375 49.617188 L 49.503906 45.265625 C 49.902344 44.550781 50.214844 43.796875 50.449219 43 Z M 23.398438 43 L 29.550781 43 C 29.785156 43.796875 30.097656 44.550781 30.496094 45.265625 L 26.140625 49.621094 C 24.777344 47.664063 23.839844 45.433594 23.398438 43 Z M 40 44 C 39.449219 44 39 44.449219 39 45 C 39 45.550781 39.449219 46 40 46 C 40.550781 46 41 45.550781 41 45 C 41 44.449219 40.550781 44 40 44 Z M 34.359375 47.054688 L 27.277344 54.140625 L 28.148438 54.839844 C 30.878906 57.023438 34.226563 58.472656 37.890625 58.875 L 39 59 L 39 48.984375 L 38.199219 48.816406 C 37.050781 48.585938 35.988281 48.132813 35.042969 47.503906 Z M 45.640625 47.054688 L 44.960938 47.503906 C 44.015625 48.132813 42.945313 48.585938 41.800781 48.816406 L 41 48.984375 L 41 59 L 42.109375 58.875 C 45.773438 58.472656 49.121094 57.023438 51.851563 54.839844 L 52.722656 54.140625 Z M 34.734375 49.503906 C 35.449219 49.902344 36.203125 50.214844 37 50.449219 L 37 56.601563 C 34.566406 56.160156 32.335938 55.222656 30.382813 53.859375 Z M 45.265625 49.503906 L 49.621094 53.859375 C 47.664063 55.222656 45.433594 56.160156 43 56.601563 L 43 50.449219 C 43.796875 50.214844 44.550781 49.902344 45.265625 49.503906 Z M 23.75 52.4375 C 23.480469 52.429688 23.21875 52.535156 23.03125 52.726563 C 22.839844 52.914063 22.734375 53.167969 22.734375 53.433594 C 22.734375 53.699219 22.839844 53.953125 23.03125 54.140625 C 23.417969 54.53125 24.054688 54.53125 24.441406 54.140625 C 24.632813 53.953125 24.738281 53.699219 24.738281 53.433594 C 24.738281 53.167969 24.632813 52.914063 24.441406 52.726563 C 24.257813 52.542969 24.011719 52.4375 23.75 52.4375 Z M 56.277344 52.4375 C 56.007813 52.429688 55.746094 52.535156 55.554688 52.730469 C 55.164063 53.117188 55.164063 53.753906 55.554688 54.140625 C 55.945313 54.53125 56.578125 54.53125 56.96875 54.140625 C 57.359375 53.753906 57.359375 53.117188 56.96875 52.730469 C 56.785156 52.542969 56.539063 52.441406 56.277344 52.4375 Z M 26.578125 55.261719 C 26.308594 55.257813 26.046875 55.363281 25.859375 55.554688 C 25.46875 55.945313 25.46875 56.578125 25.859375 56.96875 C 26.246094 57.359375 26.882813 57.359375 27.269531 56.96875 C 27.660156 56.578125 27.660156 55.945313 27.269531 55.554688 C 27.085938 55.371094 26.839844 55.265625 26.578125 55.261719 Z M 53.449219 55.265625 C 53.179688 55.257813 52.917969 55.363281 52.726563 55.558594 C 52.335938 55.945313 52.335938 56.582031 52.726563 56.96875 C 53.117188 57.359375 53.75 57.359375 54.140625 56.96875 C 54.53125 56.582031 54.53125 55.945313 54.140625 55.558594 C 53.957031 55.371094 53.710938 55.269531 53.449219 55.265625 Z M 38 60 C 37.449219 60 37 60.449219 37 61 C 37 61.550781 37.449219 62 38 62 C 38.550781 62 39 61.550781 39 61 C 39 60.449219 38.550781 60 38 60 Z M 42 60 C 41.449219 60 41 60.449219 41 61 C 41 61.550781 41.449219 62 42 62 C 42.550781 62 43 61.550781 43 61 C 43 60.449219 42.550781 60 42 60 Z"/></svg>