<?xml version="1.0" encoding="UTF-8" standalone="no"?>
<svg
   xmlns:dc="http://purl.org/dc/elements/1.1/"
   xmlns:cc="http://creativecommons.org/ns#"
   xmlns:rdf="http://www.w3.org/1999/02/22-rdf-syntax-ns#"
   xmlns:svg="http://www.w3.org/2000/svg"
   xmlns="http://www.w3.org/2000/svg"
   xmlns:sodipodi="http://sodipodi.sourceforge.net/DTD/sodipodi-0.dtd"
   xmlns:inkscape="http://www.inkscape.org/namespaces/inkscape"
   viewBox="0 0 116.74255 123.33315"
   width="72.964096"
   height="77.083214"
   version="1.1"
   id="svg62"
   sodipodi:docname="snow-storm-50.svg"
   inkscape:version="1.0.1 (1.0.1+r75)">
  <metadata
     id="metadata68">
    <rdf:RDF>
      <cc:Work
         rdf:about="">
        <dc:format>image/svg+xml</dc:format>
        <dc:type
           rdf:resource="http://purl.org/dc/dcmitype/StillImage" />
        <dc:title></dc:title>
      </cc:Work>
    </rdf:RDF>
  </metadata>
  <defs
     id="defs66" />
  <sodipodi:namedview
     pagecolor="#ffffff"
     bordercolor="#666666"
     borderopacity="1"
     objecttolerance="10"
     gridtolerance="10"
     guidetolerance="10"
     inkscape:pageopacity="0"
     inkscape:pageshadow="2"
     inkscape:window-width="1920"
     inkscape:window-height="1025"
     id="namedview64"
     showgrid="false"
     fit-margin-top="0"
     fit-margin-left="0"
     fit-margin-right="0"
     fit-margin-bottom="0"
     inkscape:zoom="1.0975"
     inkscape:cx="-40.917105"
     inkscape:cy="47.5517"
     inkscape:window-x="0"
     inkscape:window-y="27"
     inkscape:window-maximized="1"
     inkscape:current-layer="svg62" />
  <path
     style="fill:#8bb7f0;fill-opacity:0.678431;stroke-width:0.297906"
     d="m 46.443306,116.79678 c 0,-4.3101 -0.10827,-6.60326 -0.31788,-6.73281 -0.17484,-0.10806 -2.82248,1.21387 -5.88365,2.93762 l -5.56576,3.13408 -0.67029,-0.73752 c -0.36866,-0.40563 -0.67013,-0.89761 -0.66993,-1.09328 2e-4,-0.19568 2.44675,-1.71661 5.43679,-3.37985 3.95131,-2.19797 5.43643,-3.17222 5.43643,-3.56635 0,-0.3931 -1.41538,-1.32897 -5.14519,-3.4021 -2.82985,-1.5729 -5.28781,-3.00246 -5.46214,-3.17679 -0.46102,-0.46102 0.52075,-2.277547 1.10895,-2.051827 0.24267,0.0931 2.71102,1.444557 5.48523,3.003197 2.77421,1.55865 5.31479,2.8339 5.64573,2.8339 0.58544,0 0.60171,-0.17719 0.60171,-6.553927 v -6.553938 h 1.19163 1.19162 v 6.082708 c 0,3.345487 0.0814,6.294767 0.18083,6.553937 0.0994,0.25917 0.40108,0.4712 0.67029,0.47117 0.2692,-4e-5 2.88848,-1.33647 5.82062,-2.96987 2.93215,-1.633387 5.44669,-2.898407 5.58787,-2.811157 0.14118,0.0872 0.45515,0.54242 0.69771,1.01148 0.518,1.001707 1.02606,0.619497 -5.95652,4.481057 -2.45773,1.35919 -4.56147,2.61242 -4.67499,2.78496 -0.35246,0.53574 0.23259,0.94478 5.58567,3.90533 2.85802,1.58064 5.1964,3.00548 5.1964,3.16632 0,0.16083 -0.20879,0.69617 -0.46397,1.18963 l -0.46396,0.89721 -1.249,-0.71934 c -7.28747,-4.19714 -10.09057,-5.60194 -10.49997,-5.26217 -0.35144,0.29167 -0.43098,1.533 -0.43098,6.72618 v 6.36851 h -1.19162 -1.19163 z m 39.53634,-1.69159 c -0.11699,-0.117 -0.21272,-1.91672 -0.21272,-3.99937 0,-2.75476 -0.10615,-3.87475 -0.38953,-4.10993 -0.2936,-0.24367 -1.22891,0.14351 -3.7983,1.57237 l -3.40878,1.89564 -0.6688,-0.7896 c -0.36785,-0.43429 -0.66782,-0.92367 -0.66661,-1.08751 10e-4,-0.16385 1.5422,-1.1452 3.42444,-2.18078 1.88223,-1.03558 3.42224,-2.06879 3.42224,-2.29601 0,-0.22723 -1.47361,-1.23437 -3.27468,-2.23808 -1.80107,-1.00371 -3.34821,-1.943917 -3.43809,-2.089347 -0.16871,-0.27298 0.64221,-2.06936 0.93414,-2.06936 0.0903,0 1.62603,0.81466 3.41271,1.81035 1.78668,0.995697 3.48561,1.764987 3.77541,1.709537 0.46384,-0.0888 0.54472,-0.58166 0.67585,-4.119117 l 0.14895,-4.01831 h 1.04267 1.04268 l 0.0829,3.91778 c 0.0575,2.71612 0.19896,4.014097 0.46125,4.231777 0.27882,0.2314 1.30208,-0.19813 3.89009,-1.632907 1.93146,-1.0708 3.54073,-1.90264 3.57616,-1.84854 0.80188,1.22467 1.07018,1.80272 0.93685,2.01845 -0.09,0.14562 -1.63723,1.085977 -3.4383,2.089687 -1.80107,1.00371 -3.27468,2.00857 -3.27468,2.23302 0,0.22445 1.46798,1.22617 3.26218,2.22605 1.7942,0.99989 3.32892,1.92595 3.41048,2.05793 0.0816,0.13198 -0.11816,0.67813 -0.44384,1.21366 -0.55308,0.90947 -0.63558,0.94554 -1.25066,0.54676 -2.14001,-1.38743 -6.54776,-3.53803 -6.77848,-3.30732 -0.14672,0.14673 -0.30439,2.07396 -0.35037,4.28274 l -0.0836,4.01596 -0.90443,0.0886 c -0.49743,0.0487 -1.00015,-0.007 -1.11715,-0.12412 z M 108.4078,94.751733 c 0,-1.30111 -0.13782,-2.450842 -0.30626,-2.554948 -0.16845,-0.104104 -1.20228,0.303232 -2.29741,0.905188 l -1.99114,1.09447 -0.5327,-0.65787 c -0.87965,-1.086322 -0.64497,-1.568975 1.27597,-2.624212 1.214,-0.666886 1.77142,-1.146432 1.70905,-1.470277 -0.0509,-0.264329 -0.86322,-0.930915 -1.80514,-1.481302 -1.84311,-1.076979 -1.88915,-1.154461 -1.36686,-2.30075 0.44389,-0.974243 0.78467,-0.955076 2.65803,0.149498 2.25222,1.327958 2.47857,1.186861 2.65646,-1.65592 l 0.14895,-2.380375 1.11715,-0.09246 1.11715,-0.09246 v 2.078962 c 0,3.431184 0.21462,3.577704 3.00757,2.053214 l 1.77379,-0.968195 0.58176,0.744765 c 0.31996,0.409621 0.58473,0.9008 0.58838,1.091507 0.004,0.190711 -0.86475,0.834045 -1.92977,1.429637 -1.06501,0.595589 -1.93639,1.213339 -1.93639,1.372778 0,0.159437 0.63678,0.681374 1.41506,1.159862 2.69111,1.654499 2.60476,1.543309 2.04269,2.630228 -0.27169,0.5254 -0.57821,0.95527 -0.68114,0.95527 -0.10293,0 -1.04499,-0.47973 -2.09345,-1.06607 -2.47036,-1.381501 -2.7685,-1.182562 -2.7685,1.84731 v 2.19782 h -1.19163 -1.19162 z m -94.521384,0.69171 c -0.11703,-0.11703 -0.21279,-0.52558 -0.21279,-0.90789 0,-0.80924 -0.72544,-0.91611 -1.62094,-0.23879 -0.31805,0.24057 -0.72484,0.43739 -0.90397,0.43739 -0.28641,0 -1.3478698,-1.48143 -1.3478698,-1.88117 0,-0.0829 0.8713798,-0.701087 1.9363898,-1.373705 l 1.93639,-1.222941 v -3.877516 c 0,-2.914333 -0.0966,-3.914577 -0.38876,-4.026703 -0.3814,-0.146355 -5.5128698,2.514302 -6.5375598,3.389711 -0.34379,0.293708 -0.52133,0.873529 -0.52133,1.702557 0,0.69144 -0.0838,1.676098 -0.18619,2.188124 -0.16952,0.847579 -0.28805,0.930957 -1.32345,0.930957 -1.12498,0 -1.13825,-0.01367 -1.22886,-1.266102 -0.0888,-1.226804 -0.12142,-1.263786 -1.05211,-1.191535 -0.8079,0.06272 -1.0364,-0.07222 -1.43829001,-0.84939 -0.45453,-0.878951 -0.44765,-0.94508 0.14125001,-1.357561 0.8664,-0.606853 0.77125,-1.158212 -0.27466001,-1.591442 -0.97314,-0.403087 -1.07593,-0.763682 -0.548,-1.922373 0.43593,-0.956761 0.6356,-0.946013 2.60646001,0.140335 0.88638,0.488575 1.85689,0.88832 2.15667,0.88832 0.96731,0 6.5094898,-3.280015 6.5094898,-3.852493 0,-0.353727 -0.9887,-1.06233 -3.0794398,-2.207034 -1.6937,-0.92732 -3.23075,-1.686033 -3.41567,-1.686033 -0.18492,0 -1.20458,0.477308 -2.2659,1.060686 l -1.92968001,1.060683 -0.46383,-0.896936 c -0.63883,-1.235372 -0.59425,-1.439593 0.4299,-1.969198 C 1.9161862,74.379116 2.0020362,73.817932 1.1221562,73.233715 0.50832619,72.826146 0.50375619,72.779402 0.98653619,71.845803 1.4433162,70.962496 1.5743962,70.896221 2.5154862,71.072772 l 1.02933,0.193103 v -1.192906 c 0,-1.25308 0.31492,-1.554558 1.62387,-1.554558 0.55599,0 0.71541,0.205639 0.86608,1.117148 0.10156,0.614432 0.18613,1.599089 0.18793,2.188124 0.002,0.64351 0.21136,1.253813 0.52461,1.529054 0.84849,0.745531 5.9240398,3.507047 6.4457998,3.507047 0.41749,0 0.48052,-0.508821 0.48052,-3.87892 v -3.87892 l -1.38374,-0.962055 c -0.76106,-0.529129 -1.65583,-1.176619 -1.98838,-1.438863 l -0.6046398,-0.476808 0.6738998,-0.946412 0.67391,-0.946412 1.01114,0.624918 c 1.15021,0.710866 1.61781,0.572936 1.61781,-0.477216 0,-0.663243 0.11788,-0.727183 1.34058,-0.727183 1.23135,0 1.34058,0.06068 1.34058,0.744765 0,0.869842 0.7047,0.992963 1.69864,0.29678 0.59336,-0.415602 0.68511,-0.390123 1.26924,0.352489 0.34631,0.440261 0.59104,0.971165 0.54385,1.179792 -0.0472,0.208623 -0.82313,0.892583 -1.72429,1.519908 l -1.63849,1.140593 -0.0831,3.93677 c -0.0733,3.469541 -0.0257,3.936774 0.401,3.936774 0.53105,0 5.10186,-2.417902 6.08949,-3.221263 0.48383,-0.393557 0.65736,-0.976849 0.80004,-2.689175 0.19403,-2.328586 0.42461,-2.636177 1.73044,-2.308433 0.60875,0.152788 0.7441,0.368743 0.7441,1.187276 0,1.154651 0.54682,1.773039 1.20162,1.358898 0.72178,-0.456499 1.02597,-0.331477 1.61352,0.663175 0.5562,0.941571 0.55558,0.951772 -0.0847,1.376914 -0.86743,0.575948 -0.81211,1.131122 0.17417,1.74814 0.45058,0.281881 0.86264,0.540631 0.91568,0.574994 0.19725,0.127787 -0.86734,1.905286 -1.14112,1.905286 -0.15654,0 -1.14076,-0.422187 -2.18717,-0.93819 l -1.90255,-0.93819 -3.16749,1.754655 c -2.04762,1.134293 -3.1675,1.929464 -3.1675,2.249094 0,0.496847 5.62602,3.830754 6.46446,3.830754 0.22241,0 1.20108,-0.402173 2.17482,-0.893719 0.97375,-0.491545 1.83786,-0.893718 1.92024,-0.893718 0.15424,0 1.05882,1.635156 1.05882,1.913946 0,0.08585 -0.40217,0.364068 -0.89372,0.618256 -1.04926,0.542598 -1.13964,1.134537 -0.26659,1.746049 0.61276,0.429191 0.61491,0.45994 0.0938,1.342169 -0.45028,0.762273 -0.69877,0.893694 -1.59532,0.843738 -1.04755,-0.05837 -1.0622,-0.04301 -1.07973,1.132449 -0.0175,1.175555 -0.034,1.192831 -1.22197,1.281074 l -1.20419,0.08945 -0.16936,-2.239328 c -0.0931,-1.231633 -0.24757,-2.365875 -0.34316,-2.520539 -0.33853,-0.547745 -6.20735,-3.645391 -6.61223,-3.490024 -0.32044,0.122961 -0.41117,1.012047 -0.41117,4.028808 v 3.871031 l 1.78744,1.213825 c 0.98309,0.667605 1.78445,1.376397 1.78081,1.575107 -0.004,0.19871 -0.2575,0.68768 -0.56412,1.0866 -0.54565,0.70989 -0.57453,0.71416 -1.35803,0.20079 -0.96161,-0.63007 -1.56518,-0.4627 -1.69747,0.47073 -0.078,0.55008 -0.30935,0.70633 -1.1509,0.77716 -0.57933,0.0488 -1.14908,-0.007 -1.2661,-0.12413 z m 17.86019,-40.82732 c -0.10923,-0.10923 -0.19861,-0.70458 -0.19861,-1.322995 0,-0.618414 -0.14032,-1.211119 -0.31184,-1.317117 -0.17151,-0.106001 -0.94234,0.221886 -1.71296,0.728633 l -1.40112,0.921361 -0.67029,-0.762827 c -0.36866,-0.419556 -0.66727,-0.922925 -0.66358,-1.118599 0.004,-0.195674 1.07616,-1.060313 2.38325,-1.921417 l 2.37654,-1.565649 v -4.923161 c 0,-4.011676 -0.0795,-4.953658 -0.42927,-5.087889 -0.49479,-0.189867 -8.47631,4.223041 -8.70204,4.811274 -0.0825,0.215085 -0.24019,1.574303 -0.35035,3.020488 l -0.20029,2.629427 -0.89372,-0.08505 c -1.61236,-0.153433 -1.66058,-0.218055 -1.45676,-1.952283 0.23079,-1.963663 -0.0571,-2.212066 -1.63238,-1.40842 l -1.17319,0.598517 -0.42256,-0.661727 c -0.2324,-0.363949 -0.52126,-0.829192 -0.6419,-1.033871 -0.14183,-0.240646 0.15525,-0.593155 0.84077,-0.997619 1.43387,-0.846003 1.35421,-1.496642 -0.28047,-2.29083 -1.44761,-0.7033 -1.65638,-1.26723 -0.87968,-2.376132 l 0.46091,-0.658033 2.68561,1.348791 2.6856,1.348794 4.15219,-2.30067 c 2.60403,-1.442858 4.15131,-2.474882 4.14983,-2.767912 -0.003,-0.55076 -7.36745,-4.786881 -8.32219,-4.786881 -0.34422,0 -1.68895,0.534512 -2.98828,1.187803 l -2.36242,1.187802 -0.46108,-0.658277 c -0.77688,-1.109149 -0.56818,-1.673032 0.87951,-2.376374 1.58528,-0.770191 1.73636,-1.504232 0.44685,-2.171062 -1.00727,-0.520883 -1.10967,-1.03195 -0.4182,-2.087262 l 0.47551,-0.725723 1.17319,0.598517 c 0.64525,0.329187 1.31291,0.512161 1.48369,0.406615 0.17606,-0.10881 0.26838,-0.919889 0.21322,-1.87318 l -0.0973,-1.681278 h 1.19163 1.19162 l 0.21895,2.681156 c 0.17183,2.1042 0.34176,2.782434 0.78965,3.151802 1.24698,1.028369 7.82768,4.490116 8.237,4.333042 0.35866,-0.137633 0.43635,-1.037589 0.43635,-5.054687 v -4.887239 l -2.38325,-1.564647 c -1.31078,-0.860557 -2.38258,-1.715319 -2.38176,-1.899472 8.9e-4,-0.184154 0.30359,-0.712353 0.67285,-1.173777 l 0.67138,-0.838953 1.29061,0.934912 c 1.59637,1.156407 2.13017,1.009002 2.13017,-0.588235 v -1.200974 h 1.19163 c 1.03595,0 1.19215,0.08757 1.19569,0.670289 0.006,1.069468 0.3349,2.010974 0.70097,2.009591 0.1857,-7.15e-4 0.93833,-0.399777 1.67251,-0.886834 l 1.33488,-0.885559 0.66527,0.812358 c 0.36591,0.446796 0.66837,0.946415 0.67215,1.110264 0.004,0.163848 -1.00948,0.9592 -2.25168,1.767449 -1.26092,0.820432 -2.37771,1.783011 -2.52835,2.179214 -0.29957,0.787932 -0.36471,7.88305 -0.0821,8.937777 0.0988,0.368659 0.36575,0.670289 0.59322,0.670289 0.54762,0 7.9126,-4.105543 8.34159,-4.649942 0.18388,-0.233359 0.42855,-1.6286 0.5437,-3.100533 l 0.20936,-2.67624 h 1.16926 1.16926 v 1.769855 c 0,0.97342 0.13012,1.850274 0.28915,1.948565 0.15904,0.09829 0.68861,-0.02785 1.17683,-0.280324 1.23553,-0.638913 1.66162,-0.576946 2.06107,0.299747 0.49771,1.092342 0.45712,1.201986 -0.69695,1.882901 -0.57346,0.338356 -1.04267,0.74812 -1.04267,0.910586 0,0.162469 0.63678,0.66005 1.41506,1.105736 0.77828,0.445688 1.47259,0.855196 1.54292,0.910016 0.20881,0.16277 -0.86524,2.232101 -1.10212,2.123419 -0.11956,-0.05485 -1.18595,-0.601348 -2.36976,-1.214432 -1.18381,-0.613082 -2.44417,-1.114697 -2.80081,-1.114697 -1.02447,0 -8.30363,4.200465 -8.30363,4.791636 0,0.42869 3.49311,2.576781 7.66387,4.712899 0.56635,0.290068 1.05412,0.143201 3.34414,-1.006917 l 2.68108,-1.346518 0.45415,0.878249 c 0.66348,1.283016 0.60069,1.419359 -1.03537,2.248413 -0.81924,0.415142 -1.48953,0.885369 -1.48953,1.044951 0,0.159582 0.46755,0.593012 1.03899,0.963178 1.18839,0.769808 1.20795,0.836994 0.59097,2.030103 l -0.45539,0.880625 -1.19331,-0.608783 c -0.65633,-0.334829 -1.32278,-0.528769 -1.48101,-0.430978 -0.15822,0.09779 -0.28768,0.959568 -0.28768,1.915063 v 1.737263 l -1.06076,0.123837 c -0.58341,0.06811 -1.10582,0.04926 -1.16089,-0.04188 -0.0551,-0.09115 -0.19162,-1.238184 -0.30343,-2.548971 -0.11181,-1.310787 -0.26632,-2.61023 -0.34334,-2.887655 -0.1382,-0.49773 -7.89077,-5.006858 -8.60832,-5.006858 -0.20351,0 -0.45086,0.30163 -0.54965,0.670289 -0.25354,0.946081 -0.19164,8.299281 0.0756,8.980232 0.12182,0.310412 1.20915,1.248816 2.41628,2.085343 1.20714,0.836529 2.23683,1.655018 2.2882,1.818866 0.0514,0.163848 -0.22018,0.689867 -0.60345,1.168933 l -0.69686,0.871027 -1.41415,-1.015568 c -1.36918,-0.983272 -1.4275,-0.997318 -1.83377,-0.441706 -0.23079,0.315626 -0.41962,1.017442 -0.41962,1.559596 0,0.918561 -0.0677,0.985732 -0.99302,0.985732 -0.54616,0 -1.08239,-0.08937 -1.19162,-0.198605 z m 57.29273,-9.855727 c -0.002,-0.942128 -0.11952,-1.894373 -0.26003,-2.116102 -0.29847,-0.471016 -0.77536,-0.264243 -3.15026,1.36593 -1.4006,0.961393 -1.49979,0.986295 -1.88374,0.472881 -1.12161,-1.499809 -1.14692,-1.455173 2.02142,-3.564665 1.7872,-1.189926 3.0543,-2.242658 3.14513,-2.613039 0.0837,-0.341153 0.11409,-3.232666 0.0676,-6.425588 -0.0741,-5.090915 -0.14436,-5.816808 -0.57083,-5.898745 -0.59258,-0.11385 -10.91401,5.583125 -11.12868,6.142545 -0.084,0.218985 -0.2259,1.358822 -0.31527,2.532974 -0.0894,1.174149 -0.23265,2.712099 -0.31842,3.417666 -0.15465,1.272184 -0.16506,1.282087 -1.25233,1.191624 l -1.09639,-0.09122 0.0908,-2.460807 c 0.10888,-2.950149 -0.14836,-3.187583 -2.20688,-2.037052 -0.76169,0.425717 -1.49862,0.774032 -1.63763,0.774032 -0.22158,0 -1.16175,-1.532182 -1.16175,-1.893289 0,-0.07449 0.63677,-0.505231 1.41505,-0.9572 2.34528,-1.361967 2.30293,-1.608809 -0.50644,-2.951564 -0.99128,-0.47379 -1.80233,-1.031563 -1.80233,-1.239501 0,-0.590432 0.66159,-1.895631 0.96088,-1.895631 0.14819,0 1.51282,0.670289 3.0325,1.489531 1.51969,0.819242 3.00212,1.489531 3.29429,1.489531 0.56738,0 10.77687,-5.542786 11.06338,-6.006372 0.32003,-0.51783 -0.51281,-1.097576 -5.69014,-3.960923 l -5.17952,-2.864563 -3.3361,1.673113 c -3.53131,1.771022 -3.61575,1.774192 -4.04602,0.151901 -0.10636,-0.400995 -0.0717,-0.773647 0.0771,-0.828116 1.27456,-0.466669 3.84535,-2.105705 3.84535,-2.451644 0,-0.238682 -0.70145,-0.841942 -1.55879,-1.340578 -0.85733,-0.498635 -1.55815,-1.040667 -1.55738,-1.204516 8.9e-4,-0.163848 0.25787,-0.631713 0.57134,-1.039699 l 0.56992,-0.741794 1.60934,0.789292 c 0.88514,0.434111 1.77107,0.689333 1.96875,0.567161 0.2444,-0.151046 0.33139,-0.976596 0.27184,-2.579701 l -0.0876,-2.357569 1.09638,-0.09122 c 1.08727,-0.09046 1.09768,-0.08056 1.25234,1.191624 0.0858,0.705566 0.23315,2.287467 0.3275,3.515337 0.0943,1.22787 0.33515,2.393559 0.5351,2.59042 0.48173,0.474277 10.51291,6.050664 10.88435,6.050664 0.55489,0 0.65068,-0.982057 0.65068,-6.670315 0,-4.137777 -0.10337,-5.855865 -0.37238,-6.188949 -0.20481,-0.253596 -1.61013,-1.297736 -3.12294,-2.320312 -2.89918,-1.9597 -2.88679,-1.936125 -1.78943,-3.40461 0.40051,-0.535969 0.50976,-0.500055 2.46125,0.809098 2.46826,1.655826 2.8235,1.5263 2.8235,-1.029476 V 0 h 1.19163 1.19162 v 1.904517 c 0,1.342828 0.12103,1.950961 0.41037,2.061992 0.22571,0.08661 1.31863,-0.451824 2.42871,-1.196523 l 2.01834,-1.353997 0.54373,0.70706 c 0.29905,0.388882 0.54231,0.908146 0.54058,1.153918 -0.002,0.245773 -1.09884,1.184177 -2.43803,2.085343 -3.83023,2.577431 -3.5037,1.757517 -3.5037,8.797582 0,5.077392 0.0736,6.144676 0.43337,6.282725 0.37539,0.144051 10.223194,-5.108707 11.036024,-5.886548 0.16385,-0.156796 0.43196,-1.853847 0.59581,-3.771226 L 103.79021,7.2987 h 1.19162 1.19163 l -0.10538,2.421044 c -0.0655,1.505199 0.0148,2.495307 0.21226,2.617358 0.1747,0.107972 0.9885,-0.143637 1.80843,-0.559131 0.81994,-0.415494 1.62587,-0.755444 1.79096,-0.755444 0.39874,0 1.3624,1.883614 1.02513,2.003751 -0.93853,0.334304 -3.114,1.958163 -3.02054,2.254662 0.0936,0.296914 2.93443,2.016228 3.93374,2.380746 0.30748,0.112159 -0.33023,1.902524 -0.77572,2.177858 -0.1468,0.09072 -1.54025,-0.515412 -3.09656,-1.34697 -1.55632,-0.831558 -3.10094,-1.511924 -3.43249,-1.511924 -0.66163,0 -10.170714,5.167874 -10.714314,5.822874 -0.18581,0.223882 -0.26114,0.531146 -0.1674,0.682813 0.22629,0.36615 10.435674,6.006372 10.872154,6.006372 0.18699,0 1.67568,-0.670289 3.30821,-1.489531 1.63253,-0.819242 3.03426,-1.489531 3.11495,-1.489531 0.18249,0 1.05574,1.665036 1.05574,2.012997 0,0.140331 -0.93841,0.709118 -2.08535,1.263971 -1.14693,0.554853 -2.08534,1.174173 -2.08534,1.376267 0,0.202093 0.73193,0.78621 1.62651,1.298036 l 1.62651,0.930591 -0.49006,1.027663 c -0.26953,0.565211 -0.58561,1.02766 -0.70238,1.02766 -0.11678,0 -0.79576,-0.33353 -1.50884,-0.741176 -2.26071,-1.292388 -2.42255,-1.161503 -2.29786,1.858324 l 0.10764,2.606679 h -1.19163 -1.19162 l -0.29791,-3.49034 c -0.20436,-2.394344 -0.43822,-3.625542 -0.74476,-3.920904 -0.85882,-0.827497 -10.180624,-5.879294 -10.673864,-5.784521 -0.44109,0.08475 -0.50723,0.755189 -0.58214,5.900922 -0.0465,3.192922 -0.0153,6.087733 0.0694,6.432917 0.0928,0.378332 1.28002,1.370127 2.9891,2.497088 1.66488,1.097814 2.83241,2.068428 2.82852,2.351456 -0.004,0.265086 -0.25205,0.80115 -0.55203,1.191256 l -0.5454,0.709281 -2.02786,-1.388501 c -1.11532,-0.763677 -2.17397,-1.340286 -2.35255,-1.281351 -0.17865,0.05895 -0.36433,1.000988 -0.41279,2.094274 l -0.0881,1.987123 h -1.17801 -1.17802 l -0.005,-1.71296 z"
     id="path907" />
</svg>
