<?xml version="1.0" encoding="UTF-8" standalone="no"?>
<svg
   xmlns:dc="http://purl.org/dc/elements/1.1/"
   xmlns:cc="http://creativecommons.org/ns#"
   xmlns:rdf="http://www.w3.org/1999/02/22-rdf-syntax-ns#"
   xmlns:svg="http://www.w3.org/2000/svg"
   xmlns="http://www.w3.org/2000/svg"
   xmlns:sodipodi="http://sodipodi.sourceforge.net/DTD/sodipodi-0.dtd"
   xmlns:inkscape="http://www.inkscape.org/namespaces/inkscape"
   viewBox="0 0 175.90222 167.35527"
   width="109.93889"
   height="104.59705"
   version="1.1"
   id="svg24"
   sodipodi:docname="snow-50.svg"
   inkscape:version="1.0.1 (1.0.1+r75)">
  <metadata
     id="metadata30">
    <rdf:RDF>
      <cc:Work
         rdf:about="">
        <dc:format>image/svg+xml</dc:format>
        <dc:type
           rdf:resource="http://purl.org/dc/dcmitype/StillImage" />
        <dc:title></dc:title>
      </cc:Work>
    </rdf:RDF>
  </metadata>
  <defs
     id="defs28" />
  <sodipodi:namedview
     pagecolor="#ffffff"
     bordercolor="#666666"
     borderopacity="1"
     objecttolerance="10"
     gridtolerance="10"
     guidetolerance="10"
     inkscape:pageopacity="0"
     inkscape:pageshadow="2"
     inkscape:window-width="1920"
     inkscape:window-height="1025"
     id="namedview26"
     showgrid="false"
     fit-margin-top="0"
     fit-margin-left="0"
     fit-margin-right="0"
     fit-margin-bottom="0"
     inkscape:zoom="0.77604969"
     inkscape:cx="45.702076"
     inkscape:cy="48.353287"
     inkscape:window-x="0"
     inkscape:window-y="27"
     inkscape:window-maximized="1"
     inkscape:current-layer="svg24" />
  <path
     style="fill:#4e7ab5;fill-opacity:1;stroke-width:0.401569"
     d="m 33.745512,166.25096 -1.22175,-1.10432 3.45898,-5.16537 c 1.92978,-2.88179 3.30635,-5.31801 3.11374,-5.51062 -0.18989,-0.18989 -3.14208,-0.39535 -6.56044,-0.45659 l -6.21519,-0.11134 -0.1263,-1.53391 c -0.21238,-2.57924 0.059,-2.68257 7.04511,-2.68257 5.30313,0 6.18481,-0.0868 5.9918,-0.58974 -0.12446,-0.32436 -1.47056,-2.44765 -2.99132,-4.71843 -4.12894,-6.16526 -3.99646,-5.72485 -2.09968,-6.98007 1.28353,-0.84941 1.72886,-0.96925 2.18741,-0.58869 0.31667,0.26281 2.04805,2.72552 3.84752,5.47268 1.79945,2.74716 3.49603,4.99484 3.77017,4.99484 0.27413,0 2.08458,-2.43953 4.0232,-5.42118 1.93862,-2.98165 3.71253,-5.42118 3.94202,-5.42118 0.79976,0 3.12225,1.67605 3.12225,2.25321 0,0.31979 -1.44565,2.73926 -3.21255,5.3766 -1.7669,2.63733 -3.21255,4.9766 -3.21255,5.19836 0,0.24815 2.43224,0.44574 6.32471,0.5138 l 6.32471,0.11059 v 2.00784 2.00785 l -6.01472,0.11165 c -3.30809,0.0614 -6.18384,0.28077 -6.39054,0.48748 -0.2334,0.2334 0.86661,2.25149 2.90255,5.32501 1.80311,2.72204 3.27839,5.15578 3.27839,5.40831 0,0.65373 -2.29423,2.20312 -3.03358,2.04871 -0.34074,-0.0712 -2.19193,-2.47126 -4.11376,-5.33355 -1.92183,-2.86228 -3.69915,-5.26471 -3.94961,-5.33872 -0.25045,-0.074 -2.038,2.31304 -3.97233,5.30455 -2.42047,3.74335 -3.7476,5.43911 -4.25673,5.43911 -0.40687,0 -1.28955,-0.49694 -1.96151,-1.10431 z m 70.780888,0.25498 c -0.71781,-0.4597 -1.3051,-1.0041 -1.3051,-1.20978 0,-0.20568 1.44564,-2.53179 3.21255,-5.16913 1.7669,-2.63733 3.21255,-5.06695 3.21255,-5.39914 0,-0.50737 -1.01185,-0.62169 -6.32471,-0.71459 l -6.324708,-0.11058 v -2.00785 -2.00784 l 6.324708,-0.11059 c 4.66233,-0.0815 6.32454,-0.23985 6.32407,-0.60235 -3.4e-4,-0.27048 -1.44571,-2.66024 -3.21191,-5.3106 -1.76621,-2.65035 -3.20933,-4.99953 -3.20695,-5.22039 0.005,-0.42368 2.54595,-2.20863 3.1446,-2.20863 0.19277,0 1.95719,2.43586 3.92093,5.41303 1.96375,2.97717 3.79313,5.4167 4.0653,5.42118 0.27218,0.004 2.12761,-2.43138 4.12318,-5.41303 1.99558,-2.98165 3.85784,-5.42118 4.13835,-5.42118 0.28052,0 1.13134,0.51868 1.89071,1.15263 l 1.38067,1.15264 -3.30329,4.98677 c -1.81681,2.74272 -3.3033,5.20568 -3.3033,5.47325 0,0.35913 1.56394,0.48648 5.97437,0.48648 6.71883,0 7.0127,0.11591 6.80136,2.68257 l -0.12631,1.53391 -6.32471,0.11058 c -5.31285,0.0929 -6.32471,0.20722 -6.32471,0.71459 0,0.33219 1.44565,2.76181 3.21255,5.39914 1.76691,2.63734 3.21255,4.96645 3.21255,5.17581 0,0.60347 -2.77031,2.15397 -3.40996,1.90851 -0.31823,-0.12212 -2.14884,-2.57922 -4.06802,-5.46024 -1.91919,-2.88101 -3.6388,-5.2382 -3.82137,-5.2382 -0.18257,0 -1.96469,2.43953 -3.96026,5.42118 -1.99558,2.98165 -3.85101,5.41814 -4.12318,5.41442 -0.27218,-0.004 -1.08216,-0.38288 -1.79996,-0.84257 z m -30.308968,-22.3333 c -0.60217,-0.37645 -1.18715,-0.92501 -1.29998,-1.21903 -0.11282,-0.29402 1.2382,-2.68896 3.00229,-5.32208 1.76408,-2.63313 3.20742,-5.05931 3.20742,-5.3915 0,-0.50737 -1.01185,-0.62169 -6.32471,-0.71458 l -6.32471,-0.11059 v -2.00785 -2.00784 l 6.42511,-0.20079 c 5.07945,-0.15873 6.40157,-0.31342 6.31276,-0.73858 -0.10719,-0.51315 -3.81299,-6.25139 -4.58008,-7.09201 -0.23155,-0.25374 -8.82219,-0.48242 -23.33664,-0.6212 -22.12714,-0.21157 -23.07159,-0.25161 -25.73302,-1.09091 -12.63927,-3.98587 -21.7887503,-13.55216 -24.74139033,-25.868492 -1.1044,-4.60675 -1.09861,-11.73537 0.0133,-16.3737 C 3.5439317,64.124648 12.064282,54.536848 22.845932,50.648108 c 1.69035,-0.60967 3.19705,-1.29078 3.34821,-1.51356 0.15116,-0.22278 0.18015,-0.87849 0.0644,-1.45713 -0.35385,-1.76921 0.60985,-9.60881 1.67709,-13.64302 1.16824,-4.41599 4.59571,-11.57514 7.20949,-15.05883 13.19587,-17.5877506 35.99543,-23.7383906 56.00974,-15.1097506 9.196538,3.96485 17.660168,11.8651006 22.210118,20.7317106 0.68003,1.32518 1.90974,4.30683 2.7327,6.62589 l 1.49629,4.21647 3.95719,-0.13495 c 5.10155,-0.17398 8.9838,0.63583 13.39406,2.79389 6.35131,3.10786 11.88966,9.8494 13.65077,16.61637 0.2874,1.10431 0.67108,2.17398 0.85262,2.37704 0.18154,0.20306 1.64572,0.69776 3.25374,1.09933 1.60802,0.40157 4.56609,1.53896 6.57348,2.52754 7.68837,3.78625 13.66315,11.23875 15.84281,19.76114 0.96516,3.77374 1.0536,10.79969 0.18244,14.49453 -2.48898,10.556562 -10.42495,19.042982 -21.25674,22.731102 -2.3542,0.80158 -3.37502,0.83304 -31.13147,0.95945 -25.335918,0.11539 -28.778678,0.20421 -29.390848,0.75822 -0.93668,0.84768 -4.75722,6.69906 -4.75722,7.28595 0,0.33243 1.83686,0.50061 6.32471,0.57908 l 6.324708,0.11059 v 2.00784 2.00785 l -6.324708,0.11059 c -4.66234,0.0815 -6.32455,0.23984 -6.32408,0.60235 3.5e-4,0.27047 1.44571,2.66024 3.21192,5.31059 1.7662,2.65036 3.21157,5.02997 3.21191,5.28804 8.1e-4,0.50337 -2.41011,2.14099 -3.15182,2.14099 -0.24611,0 -2.08021,-2.43954 -4.07578,-5.42118 -1.99557,-2.98165 -3.80852,-5.42119 -4.02877,-5.42119 -0.22024,0 -1.97893,2.39285 -3.90819,5.31743 -1.92927,2.92459 -3.77881,5.3618 -4.11011,5.41602 -0.33129,0.0542 -1.09503,-0.20941 -1.69718,-0.58586 z m 11.86804,-21.95323 c 0.84542,-1.27068 1.43839,-2.56766 1.3177,-2.88215 -0.31667,-0.82525 -6.59915,-0.82144 -6.91597,0.004 -0.28013,0.72999 2.95709,5.54637 3.58991,5.34113 0.25918,-0.0841 1.16294,-1.19249 2.00836,-2.46318 z"
     id="path887" />
</svg>
