<?xml version="1.0" encoding="UTF-8" standalone="no"?>
<svg
   xmlns:dc="http://purl.org/dc/elements/1.1/"
   xmlns:cc="http://creativecommons.org/ns#"
   xmlns:rdf="http://www.w3.org/1999/02/22-rdf-syntax-ns#"
   xmlns:svg="http://www.w3.org/2000/svg"
   xmlns="http://www.w3.org/2000/svg"
   xmlns:sodipodi="http://sodipodi.sourceforge.net/DTD/sodipodi-0.dtd"
   xmlns:inkscape="http://www.inkscape.org/namespaces/inkscape"
   id="svg1756"
   version="1.1"
   viewBox="0 0 127.52918 140.33077"
   height="140.33078mm"
   width="127.52917mm"
   sodipodi:docname="threat.svg"
   inkscape:version="1.0.1 (1.0.1+r75)">
  <sodipodi:namedview
     pagecolor="#ffffff"
     bordercolor="#666666"
     borderopacity="1"
     objecttolerance="10"
     gridtolerance="10"
     guidetolerance="10"
     inkscape:pageopacity="0"
     inkscape:pageshadow="2"
     inkscape:window-width="1920"
     inkscape:window-height="1025"
     id="namedview115"
     showgrid="false"
     inkscape:zoom="0.73665254"
     inkscape:cx="439.57451"
     inkscape:cy="544.63268"
     inkscape:window-x="0"
     inkscape:window-y="27"
     inkscape:window-maximized="1"
     inkscape:current-layer="svg1756"
     inkscape:document-rotation="0"
     fit-margin-top="0"
     fit-margin-left="0"
     fit-margin-right="0"
     fit-margin-bottom="0" />
  <defs
     id="defs1750" />
  <metadata
     id="metadata1753">
    <rdf:RDF>
      <cc:Work
         rdf:about="">
        <dc:format>image/svg+xml</dc:format>
        <dc:type
           rdf:resource="http://purl.org/dc/dcmitype/StillImage" />
        <dc:title></dc:title>
      </cc:Work>
    </rdf:RDF>
  </metadata>
  <path
     style="fill:#000000;stroke-width:0.264583"
     d=""
     id="path954"
     inkscape:connector-curvature="0" />
  <path
     style="fill:#bf6561;stroke:none;stroke-width:0.264583"
     d="m 0,25.272234 c 0,34.586333 14.49547,69.49493 38.354269,94.456256 5.543286,5.79966 11.378407,11.13472 17.737403,16.04698 1.978289,1.52849 5.009621,4.62015 7.672917,4.55426 2.75881,-0.068 5.618956,-3.0136 7.672917,-4.61406 6.034881,-4.70191 11.528425,-9.78641 16.933333,-15.19343 24.452261,-24.461793 39.158331,-60.735639 39.158331,-95.250006 -4.18041,-0.003 -8.62674,-1.28746 -12.7,-2.20927 C 103.387,20.474044 92.390125,16.249434 82.020839,10.778124 77.716333,8.5068842 73.617143,5.8522942 69.585422,3.1346242 67.932835,2.0206742 65.897395,-0.04783581 63.764589,8.4419166e-4 61.370903,0.05544419 59.006322,2.3533942 57.150005,3.6505042 c -3.803121,2.65748 -7.827169,5.04654 -11.90625,7.2525498 -9.825038,5.31371 -20.396735,9.15117 -31.220835,11.8223 C 9.56604,23.825224 4.59841,25.269324 0,25.272234 Z"
     id="path854" />
</svg>
