<?xml version="1.0" encoding="UTF-8" standalone="no"?>
<svg
   xmlns:dc="http://purl.org/dc/elements/1.1/"
   xmlns:cc="http://creativecommons.org/ns#"
   xmlns:rdf="http://www.w3.org/1999/02/22-rdf-syntax-ns#"
   xmlns:svg="http://www.w3.org/2000/svg"
   xmlns="http://www.w3.org/2000/svg"
   xmlns:sodipodi="http://sodipodi.sourceforge.net/DTD/sodipodi-0.dtd"
   xmlns:inkscape="http://www.inkscape.org/namespaces/inkscape"
   viewBox="0 0 76.439355 56.180115"
   width="95.549194"
   height="70.225143"
   version="1.1"
   id="svg8"
   sodipodi:docname="vip-50.svg"
   inkscape:version="1.0.1 (1.0.1+r75)">
  <metadata
     id="metadata14">
    <rdf:RDF>
      <cc:Work
         rdf:about="">
        <dc:format>image/svg+xml</dc:format>
        <dc:type
           rdf:resource="http://purl.org/dc/dcmitype/StillImage" />
        <dc:title></dc:title>
      </cc:Work>
    </rdf:RDF>
  </metadata>
  <defs
     id="defs12" />
  <sodipodi:namedview
     pagecolor="#ffffff"
     bordercolor="#666666"
     borderopacity="1"
     objecttolerance="10"
     gridtolerance="10"
     guidetolerance="10"
     inkscape:pageopacity="0"
     inkscape:pageshadow="2"
     inkscape:window-width="1920"
     inkscape:window-height="1025"
     id="namedview10"
     showgrid="false"
     fit-margin-top="0"
     fit-margin-left="0"
     fit-margin-right="0"
     fit-margin-bottom="0"
     inkscape:zoom="3.1041988"
     inkscape:cx="-15.461201"
     inkscape:cy="51.794249"
     inkscape:window-x="0"
     inkscape:window-y="27"
     inkscape:window-maximized="1"
     inkscape:current-layer="svg8" />
  <path
     style="fill:#98ccfd;fill-opacity:1;stroke-width:0.129597"
     d="m 0.03667366,56.018121 c -0.0339,-0.0891 -0.0466,-12.729624 -0.0283,-28.090058 L 0.04157366,0 H 38.207774 76.373954 l 0.0327,28.090058 0.0327,28.090059 h -38.17055 c -30.4172203,0 -38.18306034,-0.0329 -38.23211034,-0.161996 z M 76.309154,28.057442 V 0.0643628 l -38.06899,0.032617 -38.06900034,0.032617 -0.0327,27.9604612 -0.0327,27.960462 H 38.207454 76.309144 Z M 1.9994737,54.031403 c -0.0433,-0.112874 -0.0788,-11.823323 -0.0788,-26.023222 0,-19.9078704 0.0356,-25.8535987 0.15551,-25.9735147 0.12021,-0.1202117 8.3425903,-0.1555159 36.2197803,-0.1555159 h 36.06425 l 0.0703,0.2915923 c 0.0387,0.1603758 0.0544,11.9261253 0.0349,26.1461093 L 74.430014,54.17137 38.254124,54.204 C 5.3499637,54.23368 2.0711137,54.21807 1.9994837,54.031406 Z M 23.351734,39.429759 c 0.10074,-0.160376 1.91499,-5.324098 4.03167,-11.47494 3.11028,-9.038133 3.81846,-11.219553 3.69186,-11.3721 -0.12754,-0.15367 -0.62941,-0.188382 -2.70031,-0.186768 -1.39902,0.001 -2.62047,0.05068 -2.71434,0.110207 -0.0939,0.05952 -1.27852,3.834748 -2.63256,8.389393 -1.35404,4.554646 -2.50261,8.386113 -2.55237,8.514373 -0.0581,0.149675 -0.99508,-2.793765 -2.6161,-8.218005 -1.38909,-4.648163 -2.60268,-8.529224 -2.69687,-8.624579 -0.13156,-0.13319 -0.76739,-0.173373 -2.74333,-0.173373 -1.41464,0 -2.6643203,0.0354 -2.7770703,0.07866 -0.11275,0.04326 -0.20499,0.166006 -0.20499,0.272756 0,0.286145 7.5148503,22.342173 7.7289403,22.684372 0.18037,0.288319 0.2151,0.291592 3.09237,0.291592 2.87706,0 2.91202,-0.0033 3.0931,-0.291592 z m 18.92445,0.0866 c 0.0433,-0.112747 0.0787,-5.301038 0.0787,-11.529535 0,-11.063607 -0.006,-11.327633 -0.25068,-11.458699 -0.36865,-0.197295 -4.96681,-0.178285 -5.16646,0.02136 -0.1186,0.118604 -0.15552,2.866485 -0.15552,11.577294 0,6.281979 0.0389,11.460658 0.0864,11.508176 0.0475,0.04752 1.26597,0.0864 2.70766,0.0864 2.2707,0 2.63179,-0.02742 2.69993,-0.204994 z m 13.16792,-3.747701 0.0648,-3.887898 2.20314,-0.07789 c 2.57211,-0.09093 3.55346,-0.291683 5.11906,-1.047198 0.8604,-0.415202 1.31682,-0.747462 2.0847,-1.517603 1.64634,-1.651169 2.28406,-3.40608 2.14789,-5.910686 -0.22289,-4.099565 -2.55319,-6.332687 -7.09459,-6.798724 -1.90508,-0.195498 -9.61258,-0.179142 -9.81254,0.02082 -0.1186,0.118604 -0.15552,2.866485 -0.15552,11.577294 0,6.281979 0.0401,11.461831 0.089,11.510782 0.049,0.04895 1.25906,0.07325 2.68913,0.054 l 2.60012,-0.035 z m 0.0642,-8.378559 c -0.0379,-0.09884 -0.0533,-1.607412 -0.0342,-3.35238 l 0.0348,-3.172668 1.40915,-0.03694 c 2.2188,-0.05817 3.37665,0.395211 4.00234,1.567212 0.24222,0.453704 0.2901,0.747946 0.2904,1.784609 3.9e-4,1.156454 -0.0265,1.284806 -0.39275,1.877165 -0.29972,0.48478 -0.57263,0.727647 -1.14878,1.022302 -0.6989,0.357428 -0.88102,0.390373 -2.42383,0.438442 -1.33825,0.0417 -1.68179,0.01644 -1.73711,-0.127737 z"
     id="path855" />
</svg>
