<?xml version="1.0" encoding="UTF-8" standalone="no"?>
<svg
   xmlns:dc="http://purl.org/dc/elements/1.1/"
   xmlns:cc="http://creativecommons.org/ns#"
   xmlns:rdf="http://www.w3.org/1999/02/22-rdf-syntax-ns#"
   xmlns:svg="http://www.w3.org/2000/svg"
   xmlns="http://www.w3.org/2000/svg"
   xmlns:sodipodi="http://sodipodi.sourceforge.net/DTD/sodipodi-0.dtd"
   xmlns:inkscape="http://www.inkscape.org/namespaces/inkscape"
   viewBox="0 0 435.77026 485.46562"
   width="544.71283"
   height="606.83203"
   version="1.1"
   id="svg1148"
   sodipodi:docname="winter-50-2.svg"
   inkscape:version="1.0.1 (1.0.1+r75)">
  <metadata
     id="metadata1154">
    <rdf:RDF>
      <cc:Work
         rdf:about="">
        <dc:format>image/svg+xml</dc:format>
        <dc:type
           rdf:resource="http://purl.org/dc/dcmitype/StillImage" />
        <dc:title></dc:title>
      </cc:Work>
    </rdf:RDF>
  </metadata>
  <defs
     id="defs1152" />
  <sodipodi:namedview
     pagecolor="#ffffff"
     bordercolor="#666666"
     borderopacity="1"
     objecttolerance="10"
     gridtolerance="10"
     guidetolerance="10"
     inkscape:pageopacity="0"
     inkscape:pageshadow="2"
     inkscape:window-width="1920"
     inkscape:window-height="1025"
     id="namedview1150"
     showgrid="false"
     fit-margin-top="0"
     fit-margin-left="0"
     fit-margin-right="0"
     fit-margin-bottom="0"
     inkscape:zoom="0.77604969"
     inkscape:cx="859.37702"
     inkscape:cy="314.85714"
     inkscape:window-x="0"
     inkscape:window-y="27"
     inkscape:window-maximized="1"
     inkscape:current-layer="svg1148" />
  <path
     style="fill:#4788c7;fill-opacity:0.843137;stroke-width:0.8"
     d="m 215.27178,484.7906 c -4.32679,-1.87341 -4.38061,-2.36633 -4.38061,-40.11431 0,-19.11929 -0.26725,-34.76236 -0.59387,-34.76236 -0.32663,0 -9.13144,8.532 -19.56624,18.96 -17.87116,17.85953 -19.14284,18.96 -21.9098,18.96 -3.65959,0 -6.73009,-3.15833 -6.73009,-6.9226 0,-2.22773 2.77307,-5.296 24.4,-26.9974 l 24.4,-24.48401 v -60.31799 c 0,-33.67293 -0.3036,-59.98227 -0.68727,-59.558 -0.378,0.418 -14.39639,23.64237 -31.15198,51.60971 -22.84502,38.13141 -30.98636,51.08739 -32.55037,51.8 -3.2806,1.49474 -5.14593,1.13783 -7.77057,-1.48682 -1.99297,-1.99298 -2.36127,-2.9045 -2.02093,-5.00174 0.22889,-1.41055 13.78671,-24.84359 30.12847,-52.07343 16.34176,-27.22983 29.60887,-49.78184 29.48247,-50.11556 -0.24326,-0.64228 -100.794468,58.24593 -102.666838,60.12723 -0.60247,0.60533 -4.3672,13.34061 -8.36608,28.30061 -10.06377,37.64908 -9.3547,35.40442 -11.66139,36.91582 -4.53502,2.97145 -10.71618,0.004 -10.74936,-5.16043 -0.008,-1.18546 2.74389,-12.51387 6.11448,-25.17424 3.37059,-12.66036 5.92648,-23.2207 5.67977,-23.4674 -0.24671,-0.24671 -14.78823,7.99064 -32.31449,18.30523 -17.52625,10.31459 -32.7024601,19.01761 -33.7248901,19.34004 -4.26713,1.34566 -9.57015997,-3.57383 -8.49031997,-7.87625 0.26657,-1.06207 1.26419997,-2.65714 2.21697997,-3.54458 0.95277,-0.88745 16.8523101,-10.49952 35.3323101,-21.36015 18.48,-10.86062 33.75,-19.88867 33.93334,-20.06232 0.18333,-0.17364 0.14693,-0.50212 -0.0809,-0.72994 -0.22782,-0.22782 -11.89782,-3.47978 -25.93333,-7.22656 -14.03551,-3.74678 -26.52344,-7.20999 -27.75097,-7.69602 -4.98226,-1.97272 -6.05072,-7.30369 -2.22968,-11.12473 1.28616,-1.28616 2.98181,-2.33847 3.76812,-2.33847 0.78631,0 16.98154,4.14947 35.98938,9.22104 l 34.55973,9.22104 50.672158,-29.82104 50.67216,-29.82104 -56.13595,-0.4 -56.135938,-0.4 -2.06406,-1.93944 c -3.0484,-2.86437 -2.8745,-7.23638 0.39733,-9.98944 l 2.46137,-2.07112 h 55.698628 c 33.51279,0 55.3959,-0.29019 54.93862,-0.72852 -0.418,-0.4007 -23.56172,-14.1251 -51.4305,-30.49867 l -50.670498,-29.77012 -33.3295,8.91124 c -18.33123,4.90118 -34.27042,8.90558 -35.42042,8.89866 -2.98704,-0.018 -6.30909,-3.60514 -6.30909,-6.81258 0,-5.1571 1.51445,-5.83529 30.13916,-13.49674 14.43757,-3.86424 26.40854,-7.1843 26.60216,-7.3779 0.61665,-0.61666 -0.54994,-1.33555 -33.54132,-20.66912 -17.82,-10.44284 -33.1879301,-19.76758 -34.1509601,-20.72162 -4.03506,-3.99741 -2.18352997,-10.34913 3.31761,-11.38115 2.65048,-0.49723 5.0626601,0.77265 35.6288701,18.75659 18.03226,10.60946 33.17436,19.28994 33.64912,19.28994 0.47475,0 0.67092,-0.63 0.43592,-1.4 -2.99232,-9.8047 -12.48056,-46.99423 -12.48056,-48.918047 0,-5.45469 7.04777,-8.57865 11.01512,-4.8825 2.00272,1.86583 2.6372,3.92828 11.81307,38.400547 3.8064,14.3 7.33722,26.63727 7.84627,27.41616 1.10841,1.69596 102.424648,61.44104 102.755368,60.59372 0.1264,-0.32385 -13.14071,-22.86777 -29.48247,-50.0976 -16.34176,-27.22984 -29.89958,-50.66288 -30.12847,-52.07343 -0.34034,-2.09724 0.028,-3.00876 2.02093,-5.00174 2.68564,-2.68565 4.73404,-3.0187 7.99992,-1.30073 1.58652,0.83457 10.23417,14.63823 32.56027,51.9738 16.72,27.96058 30.67,50.84921 31,50.86362 0.33,0.0144 0.6,-26.8649 0.6,-59.7318 V 95.997953 l -24.4,-24.48401 c -22.04727,-22.12319 -24.4,-24.7366 -24.4,-27.10355 0,-1.85159 0.71297,-3.3325 2.43205,-5.05158 4.3287,-4.3287 5.27284,-3.70688 26.37408,17.37038 10.34337,10.33161 19.07337,18.78475 19.4,18.78475 0.32662,0 0.59387,-15.67788 0.59387,-34.83973 0,-38.3276405 0.0298,-38.5775105 4.80562,-40.24235147 2.86844,-0.99995 5.29992,-0.27201 7.59438,2.27358097 1.54271,1.71157 1.60802,3.06659 1.82402,37.8461805 l 0.22404,36.07105 19.37596,-19.29869 c 11.93129,-11.88368 20.18817,-19.49878 21.48982,-19.81946 4.91544,-1.21101 9.86989,4.42027 7.95543,9.0422 -0.50867,1.22803 -11.71235,13.01578 -24.89706,26.195 l -23.97221,23.96222 v 59.576427 c 0,50.37291 0.16867,59.39545 1.09185,58.405 0.60052,-0.64429 14.31886,-23.31143 30.48522,-50.37143 16.16635,-27.06 30.27509,-50.01 31.35276,-51 3.81713,-3.50662 10.11226,-1.12451 11.13364,4.21302 0.40427,2.11268 -3.28711,8.66384 -29.65672,52.63242 -16.56516,27.62065 -30.00334,50.50909 -29.86261,50.8632 0.14072,0.35411 23.65586,-13.12576 52.25586,-29.95524 l 52,-30.59906 8.23862,-30.67654 c 4.53125,-16.87209 8.78007,-31.502877 9.44184,-32.512867 1.49308,-2.27872 4.6058,-3.52436 7.18771,-2.87634 2.48866,0.62462 5.13184,3.9523 5.13184,6.460837 0,1.06351 -2.7,12.02364 -6,24.35583 -6.29212,23.51381 -6.37773,23.89474 -5.36995,23.89474 0.34653,0 15.01653,-8.4586 32.6,-18.79688 17.58347,-10.33828 32.61783,-18.79827 33.40968,-18.79999 2.09163,-0.005 5.88592,2.12804 6.46332,3.63271 0.91827,2.39295 0.50794,6.22603 -0.82404,7.69785 -0.72655,0.80283 -16.74655,10.53644 -35.60001,21.63026 -18.85345,11.09381 -34.279,20.38942 -34.279,20.6569 0,0.26749 11.97,3.66034 26.6,7.53967 14.63,3.87934 27.57932,7.54895 28.77629,8.15468 5.65496,2.8618 4.59642,11.29591 -1.58605,12.63708 -1.47169,0.31927 -13.44932,-2.54757 -36.50965,-8.73857 -18.87568,-5.06755 -34.64444,-9.21371 -35.04168,-9.21371 -0.80093,0 -99.78912,58.07911 -100.99892,59.25887 -0.4666,0.45501 20.74235,0.74112 54.93862,0.74112 h 55.69862 l 2.46138,2.07112 c 3.27183,2.75306 3.44573,7.12507 0.39733,9.98944 l -2.06406,1.93944 -56.13594,0.4 -56.13595,0.4 2.8,1.70739 c 12.07311,7.36195 99.05931,58.21371 100,58.45957 0.66,0.17249 16.02501,-3.6645 34.14445,-8.52666 18.11945,-4.86217 34.01745,-8.8403 35.32889,-8.8403 2.77315,0 6.52667,3.84365 6.52667,6.68338 0,2.33737 -1.99518,5.07835 -4.64856,6.38621 -1.1833,0.58325 -13.58144,4.08059 -27.55144,7.77188 -13.97,3.69129 -25.4,6.94488 -25.4,7.23021 0,0.28534 14.64968,9.11593 32.55486,19.62356 17.90517,10.50762 33.56517,19.94676 34.8,20.97587 2.38032,1.98378 3.0399,5.94906 1.47571,8.87176 -0.95203,1.77889 -5.11371,3.57891 -7.08353,3.06379 -0.80523,-0.21058 -15.96303,-8.91793 -33.68398,-19.34967 -17.72094,-10.43175 -32.36477,-18.82195 -32.54183,-18.6449 -0.17704,0.17706 2.55825,11.08349 6.07843,24.23651 3.52018,13.15303 6.40034,24.86379 6.40034,26.02391 0,3.01384 -3.57181,6.32749 -6.82047,6.32749 -5.36205,0 -5.46946,-0.25446 -14.85984,-35.20549 -4.7743,-17.76995 -9.13936,-32.57702 -9.70012,-32.90459 -0.56077,-0.32759 -23.87958,-14.07295 -51.81958,-30.54525 -27.94,-16.47231 -50.91514,-29.64811 -51.05586,-29.27957 -0.14073,0.36855 13.29745,23.26881 29.86261,50.88946 32.51052,54.20789 31.68397,52.51028 27.56976,56.62448 -2.35555,2.35555 -7.673,2.17035 -9.70414,-0.33799 -0.85625,-1.05742 -14.72648,-23.90924 -30.82274,-50.78181 -16.09626,-26.87258 -29.75726,-49.38638 -30.35778,-50.03067 -0.92318,-0.99045 -1.09185,8.03209 -1.09185,58.405 v 59.57643 l 23.97221,23.96222 c 13.18471,13.17922 24.38839,24.96697 24.89706,26.195 1.91446,4.62193 -3.03999,10.2532 -7.95543,9.0422 -1.30165,-0.32068 -9.55853,-7.93578 -21.48982,-19.81947 l -19.37596,-19.29868 -0.22404,36.1368 -0.22402,36.13679 -2,1.9354 c -2.65366,2.56794 -4.69313,3.04344 -7.61939,1.77641 z"
     id="path1731" />
</svg>
