<?xml version="1.0" encoding="UTF-8" standalone="no"?>
<svg
   xmlns:dc="http://purl.org/dc/elements/1.1/"
   xmlns:cc="http://creativecommons.org/ns#"
   xmlns:rdf="http://www.w3.org/1999/02/22-rdf-syntax-ns#"
   xmlns:svg="http://www.w3.org/2000/svg"
   xmlns="http://www.w3.org/2000/svg"
   xmlns:sodipodi="http://sodipodi.sourceforge.net/DTD/sodipodi-0.dtd"
   xmlns:inkscape="http://www.inkscape.org/namespaces/inkscape"
   viewBox="0 0 129.45137 148.28214"
   width="80.907104"
   height="92.676338"
   version="1.1"
   id="svg24"
   sodipodi:docname="winter-50.svg"
   inkscape:version="1.0.1 (1.0.1+r75)">
  <metadata
     id="metadata30">
    <rdf:RDF>
      <cc:Work
         rdf:about="">
        <dc:format>image/svg+xml</dc:format>
        <dc:type
           rdf:resource="http://purl.org/dc/dcmitype/StillImage" />
        <dc:title></dc:title>
      </cc:Work>
    </rdf:RDF>
  </metadata>
  <defs
     id="defs28" />
  <sodipodi:namedview
     pagecolor="#ffffff"
     bordercolor="#666666"
     borderopacity="1"
     objecttolerance="10"
     gridtolerance="10"
     guidetolerance="10"
     inkscape:pageopacity="0"
     inkscape:pageshadow="2"
     inkscape:window-width="1920"
     inkscape:window-height="1025"
     id="namedview26"
     showgrid="false"
     fit-margin-top="0"
     fit-margin-left="0"
     fit-margin-right="0"
     fit-margin-bottom="0"
     inkscape:zoom="4.39"
     inkscape:cx="63.072465"
     inkscape:cy="63.84205"
     inkscape:window-x="0"
     inkscape:window-y="27"
     inkscape:window-maximized="1"
     inkscape:current-layer="svg24" />
  <path
     style="fill:#4e7ab5;fill-opacity:1;stroke-width:0.246275"
     d="m 63.228757,137.00613 c -0.0616,-10.83778 -0.0822,-11.27946 -0.52994,-11.36565 -0.33692,-0.0649 -2.09201,1.5354 -6.34073,5.78136 l -5.87487,5.87104 -1.04301,-1.04301 -1.043,-1.04301 7.44681,-7.46155 7.44682,-7.46156 -0.0631,-19.4449 c -0.061,-18.802143 -0.0783,-19.444904 -0.52325,-19.444904 -0.34694,0 -1.87704,2.452438 -6.21844,9.96687 -3.16706,5.48178 -5.75828,10.082864 -5.75828,10.224624 0,0.14176 0.65459,2.69399 1.45465,5.6716 1.86332,6.93484 1.78894,6.28453 0.76182,6.66113 -1.85338,0.67955 -1.78137,0.76775 -2.9786,-3.64846 -0.919,-3.3899 -1.16027,-4.01136 -1.57749,-4.06338 -0.40252,-0.0502 -0.99898,0.82759 -3.263271,4.80237 -1.5239,2.67507 -2.99321,5.2281 -3.26513,5.67338 l -0.49441,0.80962 -1.16782,-0.66874 c -0.6423,-0.3678 -1.20849,-0.69891 -1.25819,-0.73579 -0.0497,-0.0369 1.3633,-2.59617 3.14001,-5.68731 1.7767,-3.09113 3.23037,-5.74987 3.23037,-5.90831 0,-0.61895 -0.62267,-0.55808 -4.16149,0.40677 -2.01726,0.55 -3.84037,1.00001 -4.05136,1.00001 -0.23352,0 -0.48398,-0.36136 -0.6401,-0.92354 -0.36209,-1.30382 -0.32272,-1.734 0.17175,-1.87654 0.23704,-0.0683 2.8137,-0.75502 5.7259,-1.52599 2.91221,-0.77096 5.477031,-1.581405 5.699621,-1.800986 0.57728,-0.569494 11.53964,-19.645306 11.53964,-20.080356 0,-0.198682 -0.0957,-0.420421 -0.21278,-0.492749 -0.21866,-0.135139 -1.90415,0.815431 -22.015701,12.416197 -8.91067,5.139859 -11.801352,6.920995 -11.990712,7.388256 -0.13723,0.338628 -1.40635,4.864148 -2.82026,10.056708 -1.41391,5.19256 -2.63874,9.50901 -2.72185,9.59212 -0.1445,0.1445 -2.34293,-0.34844 -2.57096,-0.57648 -0.0603,-0.0603 0.84716,-3.7322 2.01668,-8.15967 2.20836,-8.36018 2.29542,-9.04455 1.0704,-8.4139 -0.29054,0.14958 -4.65946,2.65185 -9.7087,5.56062 -7.0168202,4.04224 -9.2569602,5.22516 -9.5051202,5.0192 -0.36068003,-0.29933 -1.27418003,-2.20238 -1.11656003,-2.32606 0.0551,-0.0432 4.39453003,-2.55218 9.64327003,-5.5755 5.2516802,-3.02501 9.5431602,-5.648882 9.5431602,-5.83482 0,-0.50062 -0.44161,-0.64413 -8.60553,-2.796501 -4.1235102,-1.087143 -7.5491302,-2.028461 -7.6124902,-2.091817 -0.21647,-0.216469 0.49103,-2.827257 0.76616,-2.827257 0.15094,0 4.56572,1.163651 9.8106202,2.58589 5.24491,1.422239 9.78298,2.585889 10.08461,2.585889 0.30163,0 8.069532,-4.338861 17.261992,-9.641915 12.618101,-7.279266 16.713571,-9.753495 16.713571,-10.097282 0,-0.436673 -0.48717,-0.455368 -11.867251,-0.455368 h -11.86725 l -4.37424,4.349823 -4.374252,4.349823 -0.97692,-0.840402 c -0.53731,-0.462221 -0.9863,-0.953033 -0.99777,-1.090693 -0.0115,-0.137661 1.25363,-1.521151 2.811323,-3.074423 1.557689,-1.553273 2.832169,-3.019881 2.832169,-3.25913 0,-0.405073 -0.45743,-0.434998 -6.649432,-0.434998 h -6.64943 v -1.47363 -1.473627 l 6.58459,-0.06559 c 5.947192,-0.05924 6.592322,-0.105763 6.664402,-0.480572 0.0509,-0.264549 -0.95229,-1.414824 -2.767319,-3.17312 -1.565933,-1.516979 -2.847143,-2.900164 -2.847143,-3.073746 0,-0.325995 1.75269,-1.834647 2.13141,-1.834647 0.11742,0 2.151582,1.940474 4.520362,4.312165 l 4.30689,4.312168 11.69503,-0.06392 c 10.574451,-0.05779 11.702411,-0.102315 11.772161,-0.464642 0.0572,-0.297099 -2.93511,-2.140434 -11.571601,-7.128399 C 23.903254,52.237503 23.921084,52.247421 23.329304,52.390805 c -0.30458,0.0738 -4.8014,1.282443 -9.99294,2.685882 -5.1915402,1.403438 -9.5334302,2.551706 -9.6486402,2.551706 -0.25111,0 -0.87773,-2.650734 -0.67464,-2.853829 0.078,-0.07797 3.64018,-1.066963 7.9160102,-2.197753 4.27583,-1.130789 7.89315,-2.129472 8.03848,-2.219289 0.14533,-0.08982 0.23039,-0.328469 0.18903,-0.530331 -0.0414,-0.201865 -4.28026,-2.795184 -9.4197702,-5.762933 -5.13952,-2.967749 -9.44717003,-5.498508 -9.57257003,-5.623903 -0.33654,-0.336536 0.86665003,-2.368882 1.37796003,-2.327567 0.22784,0.0184 4.56112,2.428828 9.6295102,5.356485 5.06839,2.927656 9.38596,5.323012 9.59459,5.323012 0.20864,0 0.43827,-0.09535 0.5103,-0.211883 0.072,-0.116537 -0.82631,-3.839004 -1.99629,-8.272149 -1.74542,-6.613546 -2.0656,-8.098364 -1.78381,-8.272515 0.46086,-0.284829 2.19723,-0.568139 2.37746,-0.387913 0.079,0.07904 1.34494,4.546521 2.81312,9.927742 1.70125,6.235454 2.82662,9.933941 3.10285,10.19735 0.685842,0.654008 32.944283,19.184135 33.396993,19.184135 0.2237,0 0.40672,-0.179212 0.40672,-0.398252 0,-0.401581 -10.19406,-18.282221 -11.22798,-19.694166 -0.51822,-0.707694 -0.95629,-0.867201 -6.386191,-2.325308 l -5.82981,-1.565495 0.1549,-0.968682 c 0.3165,-1.979279 0.13683,-1.950061 4.57925,-0.744662 2.1824,0.592174 4.07103,1.013006 4.19694,0.935188 0.12591,-0.07782 0.22893,-0.285625 0.22893,-0.461793 0,-0.176168 -1.39088,-2.724067 -3.09085,-5.661999 -1.69997,-2.93793 -3.1449,-5.482527 -3.21095,-5.654659 -0.0715,-0.18643 0.38133,-0.585876 1.12007,-0.987952 l 1.24018,-0.674986 0.55469,0.928888 c 0.30508,0.510888 1.77482,3.038905 3.26608,5.617815 2.078571,3.594589 2.825111,4.68893 3.198711,4.68893 0.41959,0 0.6261,-0.513592 1.48542,-3.694128 1.37305,-5.082019 1.07546,-4.619411 2.62827,-4.085777 1.02993,0.353942 1.28703,0.546229 1.2202,0.912588 -0.0466,0.255289 -0.73922,2.882156 -1.53922,5.83748 -0.8,2.955325 -1.4525,5.504273 -1.45001,5.664329 0.002,0.160057 2.598,4.779377 5.76779,10.265157 4.27656,7.401177 5.87952,9.974145 6.21392,9.974145 0.43235,0 0.45322,-0.789751 0.51373,-19.444904 l 0.0631,-19.444904 -7.38976,-7.404379 c -4.06437,-4.072409 -7.38976,-7.51879 -7.38976,-7.658625 0,-0.293836 1.5278,-1.828518 1.82031,-1.828518 0.10785,0 2.86715,2.608309 6.13179,5.796241 3.49618,3.414032 6.09303,5.765963 6.31849,5.722566 0.33842,-0.06514 0.39021,-1.379175 0.44684,-11.337434 L 63.292747,0 h 1.47517 1.47516 v 11.328655 c 0,13.104579 -0.17896,12.401081 2.46987,9.708904 0.87652,-0.890863 3.5675,-3.514595 5.97996,-5.830517 l 4.38628,-4.210764 1.0292,1.029206 1.029209,1.029205 -7.447259,7.450261 -7.44726,7.45026 v 19.515819 c 0,18.674468 0.0192,19.515818 0.44612,19.515818 0.32861,0 1.91064,-2.545983 6.00649,-9.666301 3.05821,-5.316465 5.68058,-9.902974 5.82749,-10.192241 0.2152,-0.423736 -0.0399,-1.668049 -1.31296,-6.403155 -0.86904,-3.232468 -1.50339,-5.945603 -1.40967,-6.029189 0.0937,-0.08358 0.70218,-0.328036 1.35212,-0.543226 0.89224,-0.295414 1.20764,-0.318515 1.28756,-0.0943 0.0582,0.163325 0.54737,1.949579 1.08702,3.969454 1.00513,3.762211 1.21977,4.246087 1.783635,4.021181 0.178419,-0.07117 1.761484,-2.634829 3.517923,-5.697032 1.756438,-3.0622 3.258568,-5.567639 3.338066,-5.567639 0.0795,0 0.661774,0.328016 1.29394,0.728923 l 1.149393,0.728925 -3.194517,5.53584 c -3.017351,5.228826 -3.605907,6.562845 -2.886672,6.542919 0.169314,-0.0047 2.061732,-0.488487 4.205373,-1.075102 l 3.897526,-1.066576 0.211489,0.556259 c 0.116321,0.305943 0.282603,0.935326 0.369519,1.398629 l 0.15803,0.842367 -5.773647,1.550413 c -3.175506,0.852728 -5.897108,1.626719 -6.048006,1.719976 -0.306371,0.189349 -11.503502,19.487435 -11.740802,20.235095 -0.11665,0.367546 -0.0322,0.474986 0.37327,0.474986 0.53565,0 32.794503,-18.448477 33.532913,-19.177094 0.2387,-0.235536 1.44113,-4.223115 2.90602,-9.637103 1.37436,-5.079426 2.609,-9.584183 2.74363,-10.010574 l 0.24479,-0.775252 1.24605,0.328701 c 0.68532,0.180785 1.29605,0.378709 1.35718,0.43983 0.0611,0.06112 -0.83694,3.698822 -1.99568,8.083783 -1.15874,4.384962 -2.10681,8.10997 -2.10681,8.2778 0,0.167829 0.22686,0.305142 0.50413,0.305142 0.27727,0 4.72754,-2.438124 9.88948,-5.418054 5.16195,-2.97993 9.46834,-5.418054 9.56976,-5.418054 0.10142,0 0.48723,0.516752 0.85737,1.148337 0.65047,1.109954 0.65749,1.159655 0.20991,1.486933 -0.25468,0.186228 -4.54817,2.689426 -9.54109,5.562662 -4.99291,2.873236 -9.13662,5.370045 -9.20825,5.548464 -0.0716,0.178419 -0.025,0.42963 0.10362,0.558249 0.12862,0.128617 3.75451,1.164929 8.05754,2.302912 4.30303,1.137984 7.87957,2.124941 7.94787,2.193238 0.17494,0.174937 -0.45226,2.871421 -0.66788,2.871421 -0.0975,0 -4.4851,-1.174045 -9.75025,-2.60899 -5.26515,-1.434947 -9.85005,-2.611797 -10.18868,-2.615223 -0.37025,-0.0037 -7.2427,3.825328 -17.239266,9.605079 -12.507537,7.231526 -16.623577,9.723657 -16.623577,10.065048 0,0.433518 0.5204,0.456587 11.680093,0.517742 l 11.680088,0.06401 4.336468,-4.312256 c 2.385054,-2.371738 4.448604,-4.312254 4.585654,-4.312254 0.13706,0 0.68582,0.44714 1.21947,0.993642 l 0.97026,0.993641 -3.06473,2.921521 c -2.68031,2.555075 -3.02364,2.971024 -2.73719,3.316174 0.2853,0.343768 1.16512,0.394654 6.82367,0.394654 h 6.49614 v 1.473693 1.473694 l -6.69058,0.06553 c -5.15232,0.05046 -6.7146,0.137624 -6.79501,0.379109 -0.0574,0.172469 1.26327,1.631972 2.93489,3.24334 l 3.0393,2.929759 -0.97351,1.004906 c -0.53543,0.552698 -1.09074,1.004906 -1.23401,1.004906 -0.14328,0 -2.19755,-1.939417 -4.565042,-4.309815 L 95.43197,75.606488 H 83.669691 c -11.375314,0 -11.762284,0.01533 -11.762284,0.466068 0,0.357855 3.84542,2.685619 16.562011,10.025545 9.109103,5.257715 16.840662,9.600507 17.181242,9.650651 0.34057,0.05015 4.94571,-1.081222 10.23363,-2.514152 5.28792,-1.43293 9.72935,-2.605326 9.86984,-2.605326 0.24799,0 0.968,2.649488 0.77301,2.844481 -0.0945,0.09452 -15.81226,4.2975 -16.07121,4.2975 -0.0713,0 -0.12959,0.21154 -0.12959,0.470087 0,0.359732 2.18247,1.727128 9.29689,5.824828 5.11329,2.94511 9.44714,5.49214 9.63078,5.66007 0.47517,0.43452 -0.81723,2.67811 -1.41227,2.45168 -0.2196,-0.0836 -4.49976,-2.52115 -9.51146,-5.41686 -5.0117,-2.89572 -9.30519,-5.33876 -9.54108,-5.429 -0.27227,-0.10414 -0.48126,-0.0276 -0.57226,0.20951 -0.0788,0.20546 0.81445,3.9958 1.9851,8.42298 1.17064,4.42718 2.09003,8.08784 2.04307,8.13479 -0.28775,0.28775 -2.43792,0.67422 -2.62212,0.47129 -0.11753,-0.12947 -1.40068,-4.61294 -2.85145,-9.96327 -1.58101,-5.83061 -2.80328,-9.890332 -3.05091,-10.133391 -0.32677,-0.320754 -30.716443,-17.961443 -33.009463,-19.161439 -0.78128,-0.408863 -1.17069,-0.02142 -0.76592,0.76204 1.29458,2.505729 11.011071,19.163409 11.418198,19.575045 0.369795,0.373895 2.135918,0.957705 6.169583,2.039435 3.10831,0.83357 5.697453,1.56157 5.753651,1.61777 0.0562,0.0562 -0.03219,0.66228 -0.196412,1.34685 -0.209989,0.87532 -0.419193,1.2435 -0.70501,1.24075 -0.223529,-0.002 -2.012785,-0.44545 -3.976125,-0.9851 -1.963338,-0.53965 -3.708813,-0.98119 -3.878834,-0.98119 -0.705709,0 -0.152836,1.25661 2.787837,6.33636 1.703331,2.94235 3.116335,5.4483 3.140009,5.56878 0.06125,0.31173 -2.368246,1.78604 -2.478381,1.50398 -0.05012,-0.12837 -1.509405,-2.67152 -3.242853,-5.65145 -2.268581,-3.89987 -3.290281,-5.43883 -3.646215,-5.49222 -0.443268,-0.0665 -0.606418,0.34803 -1.575088,4.00197 -0.82888,3.12664 -1.17258,4.07614 -1.47548,4.07614 -0.4537,0 -1.9849,-0.48587 -2.24217,-0.71147 -0.0952,-0.0834 0.54046,-2.80303 1.41246,-6.04355 1.47253,-5.47221 1.5605,-5.94187 1.23513,-6.59408 -0.19267,-0.38623 -2.80986,-4.965876 -5.81598,-10.177 -4.11942,-7.141044 -5.57907,-9.474773 -5.92608,-9.474773 -0.44582,0 -0.46041,0.618304 -0.46041,19.515823 v 19.51581 l 7.44726,7.45027 7.447259,7.45027 -1.024719,1.02471 -1.02472,1.02472 -5.93747,-5.76446 c -3.26562,-3.17045 -6.15464,-5.79973 -6.42005,-5.84283 -0.47258,-0.0768 -0.48389,0.1551 -0.54663,11.20552 l -0.0641,11.28389 -1.41359,0.0738 -1.41359,0.0738 z"
     id="path869" />
</svg>
