<svg xmlns="http://www.w3.org/2000/svg" viewBox="0 0 40 40" width="50px" height="50px"><path fill="#dff0fe" d="M1.5 6.5H38.5V29.5H1.5z"/><path fill="#4788c7" d="M38,7v22H2V7H38 M39,6H1v24h38V6L39,6z"/><path fill="#b6dcfe" d="M9.517,35.5c0.268-3.903,3.634-7,7.733-7h5.5c4.1,0,7.466,3.097,7.733,7H9.517z"/><path fill="#4788c7" d="M22.75,29c3.646,0,6.672,2.612,7.176,6H10.074c0.504-3.388,3.53-6,7.176-6H22.75 M22.75,28h-5.5 C12.694,28,9,31.582,9,36h22C31,31.582,27.306,28,22.75,28L22.75,28z"/><path fill="#fff" d="M19,27.5c-1.93,0-3.5-1.57-3.5-3.5v-7.094c0-0.775,0.631-1.406,1.406-1.406h6.188 c0.775,0,1.406,0.631,1.406,1.406V24c0,1.93-1.57,3.5-3.5,3.5H19z"/><path fill="#4788c7" d="M23.094,16c0.5,0,0.906,0.407,0.906,0.906V24c0,1.654-1.346,3-3,3h-2c-1.654,0-3-1.346-3-3v-7.094 c0-0.5,0.407-0.906,0.906-0.906H23.094 M23.094,15h-6.187C15.853,15,15,15.854,15,16.906V24c0,2.209,1.791,4,4,4h2 c2.209,0,4-1.791,4-4v-7.094C25,15.854,24.147,15,23.094,15L23.094,15z"/><path fill="#fff" d="M20,30.5c-2.296,0-3.231-0.688-3.5-0.944V18.5h7v11.058C23.24,29.806,22.307,30.5,20,30.5z"/><path fill="#4788c7" d="M23,19v10.321C22.655,29.565,21.79,30,20,30c-1.809,0-2.674-0.444-3-0.671V19H23 M24,18h-8v11.744 c0,0,0.818,1.256,4,1.256s4-1.256,4-1.256V18L24,18z"/><g><path fill="#4788c7" d="M23.299,22.149c0,1.022,0.829,1.851,1.851,1.851C26.171,24,27,22.555,27,21.532 c0-1.022-0.829-1.234-1.851-1.234C24.127,20.299,23.299,21.127,23.299,22.149z"/></g><g><path fill="#4788c7" d="M16.701,22.149c0,1.022-0.829,1.851-1.851,1.851S13,22.555,13,21.532 c0-1.022,0.829-1.234,1.851-1.234S16.701,21.127,16.701,22.149z"/></g><g><path fill="#98ccfd" d="M20,27.5c-2.585,0-2.973-0.792-3.613-2.105l-0.14-0.284c-0.038-0.07-2.747-4.959-2.747-7.278 c0-2.585,2.278-5.333,6.5-5.333c1.586,0,2.554,1.14,2.563,1.152l0.15,0.18l0.235,0.002c1.475,0,3.551,1.294,3.551,4.172 c0,1.746-1.977,5.707-2.737,7.086l-0.146,0.296C22.977,26.705,22.59,27.5,20,27.5z"/><path fill="#4788c7" d="M20,13c1.338,0,2.147,0.934,2.175,0.966l0.3,0.367h0.474c1.267,0,3.051,1.139,3.051,3.672 c0,1.455-1.641,4.97-2.696,6.884l-0.137,0.28C22.556,26.426,22.277,27,20,27c-2.273,0-2.552-0.572-3.163-1.824l-0.163-0.329 C15.93,23.511,14,19.649,14,17.832C14,15.49,16.103,13,20,13 M20,12c-4.295,0-7,2.799-7,5.832c0,2.478,2.8,7.501,2.8,7.501 C16.549,26.84,16.907,28,20,28s3.454-1.159,4.2-2.667c0,0,2.8-5.07,2.8-7.328c0-3.17-2.335-4.672-4.051-4.672 C22.949,13.333,21.859,12,20,12L20,12z"/></g></svg>