<?xml version="1.0" encoding="UTF-8" standalone="no"?>
<!-- Created with Inkscape (http://www.inkscape.org/) -->

<svg
   xmlns:dc="http://purl.org/dc/elements/1.1/"
   xmlns:cc="http://creativecommons.org/ns#"
   xmlns:rdf="http://www.w3.org/1999/02/22-rdf-syntax-ns#"
   xmlns:svg="http://www.w3.org/2000/svg"
   xmlns="http://www.w3.org/2000/svg"
   xmlns:sodipodi="http://sodipodi.sourceforge.net/DTD/sodipodi-0.dtd"
   xmlns:inkscape="http://www.inkscape.org/namespaces/inkscape"
   width="44.824585mm"
   height="50.939579mm"
   viewBox="0 0 44.824586 50.939577"
   version="1.1"
   id="svg1756"
   inkscape:version="0.92.4 (unknown)"
   sodipodi:docname="cluster.svg">
  <defs
     id="defs1750" />
  <sodipodi:namedview
     id="base"
     pagecolor="#ffffff"
     bordercolor="#666666"
     borderopacity="1.0"
     inkscape:pageopacity="0.0"
     inkscape:pageshadow="2"
     inkscape:zoom="0.98994949"
     inkscape:cx="49.887713"
     inkscape:cy="68.032216"
     inkscape:document-units="mm"
     inkscape:current-layer="layer1"
     showgrid="false"
     inkscape:window-width="1366"
     inkscape:window-height="743"
     inkscape:window-x="0"
     inkscape:window-y="0"
     inkscape:window-maximized="1"
     scale-x="1"
     fit-margin-top="0"
     fit-margin-left="0"
     fit-margin-right="0"
     fit-margin-bottom="0" />
  <metadata
     id="metadata1753">
    <rdf:RDF>
      <cc:Work
         rdf:about="">
        <dc:format>image/svg+xml</dc:format>
        <dc:type
           rdf:resource="http://purl.org/dc/dcmitype/StillImage" />
        <dc:title></dc:title>
      </cc:Work>
    </rdf:RDF>
  </metadata>
  <g
     inkscape:label="Layer 1"
     inkscape:groupmode="layer"
     id="layer1"
     transform="translate(-138.66406,-84.993284)">
    <g
       id="g958"
       transform="matrix(5.0487562,0,0,5.5548448,-1007.778,-1508.4735)">
      <path
         style="fill:#ebe9a4;stroke-width:0.3175"
         d="m 232.81822,291.78227 c 0,-0.0659 0.25003,-0.31597 0.55562,-0.55563 0.50358,-0.39493 0.51481,-0.3837 0.11988,0.11987 -0.41477,0.52888 -0.6755,0.69707 -0.6755,0.43576 z m -0.69453,-4.85952 c 0.22919,-0.0917 0.50304,-0.0804 0.60854,0.0251 0.1055,0.1055 -0.082,0.18054 -0.41672,0.16675 -0.36987,-0.0152 -0.4451,-0.0905 -0.19182,-0.19182 z"
         id="path980"
         inkscape:connector-curvature="0" />
      <path
         style="fill:#a0d9e0;stroke-width:0.3175"
         d="m 231.86572,295.90977 c 0,-0.0659 0.25003,-0.31597 0.55562,-0.55563 0.50358,-0.39493 0.51481,-0.3837 0.11988,0.11987 -0.41477,0.52888 -0.6755,0.69707 -0.6755,0.43576 z m -2.33732,-4.16638 c 0.10052,-0.26194 0.32784,-0.47625 0.50517,-0.47625 0.18583,0 0.15497,0.20174 -0.0728,0.47625 -0.21739,0.26194 -0.44471,0.47625 -0.50516,0.47625 -0.0605,0 -0.0277,-0.21431 0.0728,-0.47625 z m -1.53221,-1.96314 c 0.22919,-0.0917 0.50304,-0.0804 0.60854,0.0251 0.1055,0.1055 -0.082,0.18054 -0.41672,0.16676 -0.36987,-0.0152 -0.4451,-0.0905 -0.19182,-0.19183 z"
         id="path978"
         inkscape:connector-curvature="0" />
      <path
         style="fill:#fbe061;stroke-width:0.3175"
         d="m 234.12617,290.47339 c 0.2828,-0.34925 0.59299,-0.84931 0.6893,-1.11125 0.14863,-0.40422 0.17891,-0.39966 0.20018,0.0302 0.0138,0.27852 -0.2964,0.77859 -0.68931,1.11125 -0.70829,0.59968 -0.70999,0.59942 -0.20017,-0.0302 z"
         id="path976"
         inkscape:connector-curvature="0" />
      <path
         style="fill:#65cdd1;stroke-width:0.3175"
         d="m 228.15523,293.56029 c 0.0241,-0.67895 0.3133,-1.28584 0.83221,-1.74625 0.44138,-0.39162 0.60567,-0.45838 0.36917,-0.15003 -0.23438,0.3056 -0.31507,0.55563 -0.17931,0.55563 0.13576,0 0.0251,0.25003 -0.24584,0.55563 -0.27098,0.30559 -0.56478,0.84137 -0.6529,1.19062 -0.0884,0.35055 -0.1437,0.16887 -0.12333,-0.4056 z"
         id="path974"
         inkscape:connector-curvature="0" />
      <path
         style="fill:#ef5b9f;stroke-width:0.3175"
         d="m 228.45259,289.47302 c -0.61474,-0.25372 -0.46908,-1.00239 0.27222,-1.39912 0.79329,-0.42456 1.35129,-0.0216 1.18266,0.85399 -0.1155,0.59974 -0.74817,0.8368 -1.45488,0.54513 z"
         id="path972"
         inkscape:connector-curvature="0" />
      <path
         style="fill:#fbd10c;stroke-width:0.3175"
         d="m 231.23072,291.16718 c -0.67175,-0.34537 -0.78899,-0.62046 -0.76278,-1.78981 0.0347,-1.54817 0.66135,-2.23773 2.0336,-2.23773 1.02908,0 2.22168,1.06252 2.22168,1.97937 0,0.80541 -1.48772,2.46769 -2.20253,2.46095 -0.27292,-0.003 -0.85341,-0.18832 -1.28997,-0.41278 z"
         id="path970"
         inkscape:connector-curvature="0" />
      <path
         style="fill:#a1cf59;stroke-width:0.3175"
         d="m 233.25054,294.91839 c -0.24599,-0.64103 0.0873,-1.43463 0.58959,-1.40368 0.31866,0.0196 0.32082,0.0598 0.01,0.1852 -0.21828,0.0881 -0.39688,0.45065 -0.39688,0.80572 0,0.4894 0.15372,0.60537 0.63544,0.4794 0.34949,-0.0914 0.55537,-0.0366 0.45751,0.12172 -0.28064,0.45409 -1.0945,0.33578 -1.29563,-0.18836 z"
         id="path968"
         inkscape:connector-curvature="0" />
      <path
         style="fill:#1ea8df;stroke-width:0.3175"
         d="m 227.48349,292.47291 c -0.89939,-0.89939 -0.21612,-2.47577 1.0731,-2.47577 0.602,0 1.71283,0.84387 1.36841,1.03955 -0.0694,0.0394 -0.56159,0.46428 -1.09372,0.94409 -0.75149,0.67759 -1.05244,0.78748 -1.34779,0.49213 z"
         id="path966"
         inkscape:connector-curvature="0" />
      <path
         style="fill:#91c73d;stroke-width:0.3175"
         d="m 233.45322,294.46542 c 0,-0.45437 0.20391,-0.65828 0.65828,-0.65828 0.45437,0 0.62535,0.17098 0.55198,0.55198 -0.15939,0.82764 -1.21026,0.91994 -1.21026,0.1063 z"
         id="path964"
         inkscape:connector-curvature="0" />
      <path
         style="fill:#1ab9b0;stroke-width:0.3175"
         d="m 229.00822,295.39464 c -0.89447,-0.89447 -0.78933,-1.95584 0.29684,-2.99645 1.01896,-0.97623 2.04725,-0.96411 3.04728,0.0359 0.65876,0.65875 0.42644,2.60697 -0.3813,3.1976 -0.81375,0.59503 -2.24526,0.48048 -2.96282,-0.23708 z m 4.445,-3.61237 c 0,-0.0659 0.25003,-0.31597 0.55562,-0.55563 0.50358,-0.39493 0.51481,-0.3837 0.11988,0.11987 -0.41477,0.52888 -0.6755,0.69707 -0.6755,0.43576 z"
         id="path962"
         inkscape:connector-curvature="0" />
      <path
         style="fill:#1179a1;stroke-width:0.3175"
         d="m 233.46204,292.70652 c -0.31549,-0.38014 -0.22061,-0.61147 0.51675,-1.25997 0.49675,-0.43689 1.08626,-0.79886 1.31002,-0.80438 0.55357,-0.0137 0.81478,0.77699 0.57385,1.73693 -0.15419,0.61434 -0.40354,0.79304 -1.10661,0.79304 -0.49917,0 -1.08147,-0.20953 -1.29401,-0.46562 z"
         id="path960"
         inkscape:connector-curvature="0" />
    </g>
  </g>
</svg>
