<?xml version="1.0" encoding="UTF-8" standalone="no"?>
<svg
   xmlns:dc="http://purl.org/dc/elements/1.1/"
   xmlns:cc="http://creativecommons.org/ns#"
   xmlns:rdf="http://www.w3.org/1999/02/22-rdf-syntax-ns#"
   xmlns:svg="http://www.w3.org/2000/svg"
   xmlns="http://www.w3.org/2000/svg"
   id="svg1756"
   version="1.1"
   viewBox="0 0 48 48"
   height="52.60178mm"
   width="55.498127mm">
  <defs
     id="defs1750" />
  <metadata
     id="metadata1753">
    <rdf:RDF>
      <cc:Work
         rdf:about="">
        <dc:format>image/svg+xml</dc:format>
        <dc:type
           rdf:resource="http://purl.org/dc/dcmitype/StillImage" />
        <dc:title></dc:title>
      </cc:Work>
    </rdf:RDF>
  </metadata>
  <g
     transform="translate(-143.91294,-87.818385)"
     id="layer1">
    <g
       transform="matrix(7.640246,0,0,7.640246,-1056.8473,-1911.9367)"
       id="g1587">
      <path
         id="path1631"
         d="m 158.63095,267.57371 c -0.25055,-1.25274 -0.24961,-4.02325 0.002,-4.96094 0.22753,-0.84904 1.27635,-0.96109 1.48602,-0.15875 0.13828,0.52917 0.14695,0.52917 0.18203,0 0.0563,-0.84914 1.81421,-0.76044 2.03999,0.10294 0.0947,0.36221 0.46857,0.73606 0.83078,0.83078 0.85301,0.22307 0.93438,1.88452 0.10294,2.1018 -0.52917,0.13828 -0.52917,0.14695 0,0.18203 0.87572,0.0581 0.68563,1.20536 -0.23813,1.43721 -0.51249,0.12863 -0.79375,0.42208 -0.79375,0.82817 0,0.96789 -1.81046,0.8905 -1.99843,-0.0854 l -0.13759,-0.71437 -0.0432,0.71437 c -0.0695,1.14813 -1.19061,0.93068 -1.4323,-0.27781 z m 2.34156,-1.38906 c 0,-0.6643 0.87405,-0.5983 1.05114,0.0794 0.0799,0.3056 0.16177,-0.19446 0.18203,-1.11125 l 0.0368,-1.66687 h -1.5875 -1.5875 v 1.5875 c 0,1.55222 0.0212,1.5875 0.9525,1.5875 0.635,0 0.9525,-0.15875 0.9525,-0.47625 z m -3.81,0.15875 c 0,-0.35278 0.21167,-0.635 0.47625,-0.635 0.26458,0 0.47625,0.28222 0.47625,0.635 0,0.35278 -0.21167,0.635 -0.47625,0.635 -0.26458,0 -0.47625,-0.28222 -0.47625,-0.635 z m 0,-1.905 c 0,-0.635 0.15875,-0.9525 0.47625,-0.9525 0.3175,0 0.47625,0.3175 0.47625,0.9525 0,0.635 -0.15875,0.9525 -0.47625,0.9525 -0.3175,0 -0.47625,-0.3175 -0.47625,-0.9525 z m 7.03513,0.3175 c 0,-0.43656 0.0721,-0.61516 0.16014,-0.39688 0.0881,0.21829 0.0881,0.57547 0,0.79375 -0.0881,0.21829 -0.16014,0.0397 -0.16014,-0.39687 z"
         style="fill:#f5f5f5;stroke-width:0.3175" />
      <path
         id="path1629"
         d="m 158.63095,267.57371 c -0.25055,-1.25274 -0.24961,-4.02325 0.002,-4.96094 0.22753,-0.84904 1.27635,-0.96109 1.48602,-0.15875 0.13828,0.52917 0.14695,0.52917 0.18203,0 0.0563,-0.84914 1.81421,-0.76044 2.03999,0.10294 0.0947,0.36221 0.46857,0.73606 0.83078,0.83078 0.85301,0.22307 0.93438,1.88452 0.10294,2.1018 -0.52917,0.13828 -0.52917,0.14695 0,0.18203 0.87572,0.0581 0.68563,1.20536 -0.23813,1.43721 -0.51249,0.12863 -0.79375,0.42208 -0.79375,0.82817 0,0.96789 -1.81046,0.8905 -1.99843,-0.0854 l -0.13759,-0.71437 -0.0432,0.71437 c -0.0695,1.14813 -1.19061,0.93068 -1.4323,-0.27781 z m 2.34156,-1.38906 c 0,-0.6643 0.87405,-0.5983 1.05114,0.0794 0.0799,0.3056 0.16177,-0.19446 0.18203,-1.11125 l 0.0368,-1.66687 h -1.5875 -1.5875 v 1.5875 c 0,1.55222 0.0212,1.5875 0.9525,1.5875 0.635,0 0.9525,-0.15875 0.9525,-0.47625 z m -3.81,0.15875 c 0,-0.35278 0.21167,-0.635 0.47625,-0.635 0.26458,0 0.47625,0.28222 0.47625,0.635 0,0.35278 -0.21167,0.635 -0.47625,0.635 -0.26458,0 -0.47625,-0.28222 -0.47625,-0.635 z m 0,-1.905 c 0,-0.635 0.15875,-0.9525 0.47625,-0.9525 0.3175,0 0.47625,0.3175 0.47625,0.9525 0,0.635 -0.15875,0.9525 -0.47625,0.9525 -0.3175,0 -0.47625,-0.3175 -0.47625,-0.9525 z m 7.01007,0.13229 c 0.0152,-0.36987 0.0905,-0.4451 0.19182,-0.19182 0.0917,0.22919 0.0804,0.50304 -0.0251,0.60854 -0.1055,0.1055 -0.18054,-0.082 -0.16676,-0.41672 z"
         style="fill:#f8eeee;stroke-width:0.3175" />
      <path
         id="path1627"
         d="m 158.62647,267.55133 c -0.24673,-1.23364 -0.24327,-4.00783 0.006,-4.93856 0.22753,-0.84904 1.27635,-0.96109 1.48602,-0.15875 0.13828,0.52917 0.14695,0.52917 0.18203,0 0.0563,-0.84914 1.81421,-0.76044 2.03999,0.10294 0.0947,0.36221 0.46857,0.73606 0.83078,0.83078 0.85301,0.22307 0.93438,1.88452 0.10294,2.1018 -0.52917,0.13828 -0.52917,0.14695 0,0.18203 0.8357,0.0554 0.7091,1.24046 -0.14574,1.36412 -0.38575,0.0558 -0.77865,0.39319 -0.87312,0.74976 -0.115,0.43404 -0.43409,0.64829 -0.96552,0.64829 -0.5201,0 -0.86494,-0.2235 -1.00023,-0.64829 l -0.20647,-0.6483 -0.0317,0.64681 c -0.0534,1.0919 -1.19764,0.90513 -1.42519,-0.23263 z m 2.46086,-1.36668 c -0.11865,-0.30918 0.008,-0.47625 0.36143,-0.47625 0.35328,0 0.48008,0.16707 0.36143,0.47625 -0.10051,0.26194 -0.0444,0.47625 0.12478,0.47625 0.16915,0 0.30754,-0.71438 0.30754,-1.5875 v -1.5875 h -1.5875 -1.5875 v 1.5875 1.5875 h 1.10129 c 0.84847,0 1.05933,-0.10933 0.91853,-0.47625 z m -3.92482,0.15875 c 0,-0.35278 0.21167,-0.635 0.47625,-0.635 0.26458,0 0.47625,0.28222 0.47625,0.635 0,0.35278 -0.21167,0.635 -0.47625,0.635 -0.26458,0 -0.47625,-0.28222 -0.47625,-0.635 z m 0,-1.905 c 0,-0.635 0.15875,-0.9525 0.47625,-0.9525 0.3175,0 0.47625,0.3175 0.47625,0.9525 0,0.635 -0.15875,0.9525 -0.47625,0.9525 -0.3175,0 -0.47625,-0.3175 -0.47625,-0.9525 z m 7.01007,0.13229 c 0.0152,-0.36987 0.0905,-0.4451 0.19182,-0.19182 0.0917,0.22919 0.0804,0.50304 -0.0251,0.60854 -0.1055,0.1055 -0.18054,-0.082 -0.16676,-0.41672 z"
         style="fill:#f0f0f0;stroke-width:0.3175" />
      <path
         id="path1625"
         d="m 158.62647,267.55133 c -0.24673,-1.23364 -0.24327,-4.00783 0.006,-4.93856 0.22753,-0.84904 1.27635,-0.96109 1.48602,-0.15875 0.13828,0.52917 0.14695,0.52917 0.18203,0 0.0563,-0.84914 1.81421,-0.76044 2.03999,0.10294 0.0947,0.36221 0.46857,0.73606 0.83078,0.83078 0.85301,0.22307 0.93438,1.88452 0.10294,2.1018 -0.52917,0.13828 -0.52917,0.14695 0,0.18203 0.8357,0.0554 0.7091,1.24046 -0.14574,1.36412 -0.38575,0.0558 -0.77865,0.39319 -0.87312,0.74976 -0.115,0.43404 -0.43409,0.64829 -0.96552,0.64829 -0.5201,0 -0.86494,-0.2235 -1.00023,-0.64829 l -0.20647,-0.6483 -0.0317,0.64681 c -0.0534,1.0919 -1.19764,0.90513 -1.42519,-0.23263 z m 2.46086,-1.36668 c -0.11865,-0.30918 0.008,-0.47625 0.36143,-0.47625 0.35328,0 0.48008,0.16707 0.36143,0.47625 -0.10051,0.26194 -0.0444,0.47625 0.12478,0.47625 0.16915,0 0.30754,-0.71438 0.30754,-1.5875 v -1.5875 h -1.5875 -1.5875 v 1.5875 1.5875 h 1.10129 c 0.84847,0 1.05933,-0.10933 0.91853,-0.47625 z m -3.92482,0.15875 c 0,-0.35278 0.21167,-0.635 0.47625,-0.635 0.26458,0 0.47625,0.28222 0.47625,0.635 0,0.35278 -0.21167,0.635 -0.47625,0.635 -0.26458,0 -0.47625,-0.28222 -0.47625,-0.635 z m 0,-1.905 c 0,-0.635 0.15875,-0.9525 0.47625,-0.9525 0.3175,0 0.47625,0.3175 0.47625,0.9525 0,0.635 -0.15875,0.9525 -0.47625,0.9525 -0.3175,0 -0.47625,-0.3175 -0.47625,-0.9525 z"
         style="fill:#f1dede;stroke-width:0.3175" />
      <path
         id="path1623"
         d="m 159.30564,268.31371 c -0.3056,-0.0615 -0.55563,-0.23379 -0.55563,-0.38281 0,-0.14902 0.25003,-0.33628 0.55563,-0.41614 0.41811,-0.10927 0.37883,-0.15431 -0.15875,-0.18203 -0.6612,-0.0341 -0.71406,-0.18454 -0.71004,-2.0212 0.002,-1.09141 0.0905,-2.30585 0.19578,-2.69876 0.22753,-0.84904 1.27635,-0.96109 1.48602,-0.15875 0.13828,0.52917 0.14695,0.52917 0.18203,0 0.0551,-0.83146 1.81339,-0.76357 2.0336,0.0785 0.0912,0.34879 0.43581,0.74169 0.76577,0.87313 0.73296,0.29196 0.81034,1.73419 0.10958,2.04228 -0.43921,0.1931 -0.43951,0.21816 -0.003,0.23812 0.78104,0.0357 0.69275,1.23747 -0.0993,1.35239 -0.37411,0.0543 -0.75748,0.38443 -0.85195,0.73368 -0.25072,0.92688 -1.90609,0.956 -1.94967,0.0343 -0.0311,-0.65726 -0.0354,-0.65771 -0.23812,-0.0251 -0.12684,0.39572 -0.4208,0.60106 -0.7621,0.53234 z m 1.78169,-2.12906 c -0.11865,-0.30918 0.008,-0.47625 0.36143,-0.47625 0.35328,0 0.48008,0.16707 0.36143,0.47625 -0.10051,0.26194 -0.0444,0.47625 0.12478,0.47625 0.16915,0 0.30754,-0.71438 0.30754,-1.5875 v -1.5875 h -1.5875 -1.5875 v 1.5875 1.5875 h 1.10129 c 0.84847,0 1.05933,-0.10933 0.91853,-0.47625 z m -3.83752,0.15875 c 0.0263,-0.34925 0.23174,-0.635 0.45652,-0.635 0.22477,0 0.40868,0.28575 0.40868,0.635 0,0.34925 -0.20543,0.635 -0.45652,0.635 -0.26079,0 -0.43601,-0.27224 -0.40868,-0.635 z m 0.0282,-1.905 c 0,-0.57661 0.16517,-0.9525 0.41853,-0.9525 0.25336,0 0.41852,0.37589 0.41852,0.9525 0,0.57661 -0.16516,0.9525 -0.41852,0.9525 -0.25336,0 -0.41853,-0.37589 -0.41853,-0.9525 z"
         style="fill:#ebcece;stroke-width:0.3175" />
      <path
         id="path1621"
         d="m 159.30564,268.31371 c -0.3056,-0.0615 -0.55563,-0.23379 -0.55563,-0.38281 0,-0.14902 0.25003,-0.33628 0.55563,-0.41614 0.41811,-0.10927 0.37883,-0.15431 -0.15875,-0.18203 -0.6612,-0.0341 -0.71406,-0.18454 -0.71004,-2.0212 0.006,-2.61899 0.22997,-3.37993 0.97941,-3.32348 0.33206,0.025 0.61379,0.26511 0.62607,0.53354 0.0197,0.43025 0.0479,0.43137 0.23812,0.009 0.1187,-0.26322 0.59827,-0.49318 1.06571,-0.51102 0.64215,-0.0245 0.89587,0.15069 1.03793,0.7167 0.11252,0.44834 0.42308,0.74914 0.77344,0.74914 0.73264,0 0.7658,1.63468 0.0398,1.96206 -0.42189,0.19025 -0.42077,0.21845 0.009,0.23812 0.26843,0.0123 0.50888,0.2987 0.53432,0.63649 0.0377,0.49991 -0.2599,0.67011 -1.59931,0.91479 -1.00194,0.18303 -1.30407,0.31536 -0.77245,0.33832 1.16944,0.0505 1.11426,0.56526 -0.0794,0.74045 -0.79067,0.11604 -0.95788,0.0278 -0.98415,-0.51959 -0.0314,-0.65334 -0.0335,-0.65348 -0.23812,-0.0152 -0.12684,0.39572 -0.4208,0.60106 -0.76211,0.53234 z m 1.78169,-2.12906 c -0.11865,-0.30918 0.008,-0.47625 0.36143,-0.47625 0.35328,0 0.48008,0.16707 0.36143,0.47625 -0.10051,0.26194 -0.0444,0.47625 0.12478,0.47625 0.16915,0 0.30754,-0.71438 0.30754,-1.5875 v -1.5875 h -1.5875 -1.5875 v 1.5875 1.5875 h 1.10129 c 0.84847,0 1.05933,-0.10933 0.91853,-0.47625 z m -3.83752,0.15875 c 0.0263,-0.34925 0.23174,-0.635 0.45652,-0.635 0.22477,0 0.40868,0.28575 0.40868,0.635 0,0.34925 -0.20543,0.635 -0.45652,0.635 -0.26079,0 -0.43601,-0.27224 -0.40868,-0.635 z m 0.0282,-1.905 c 0,-0.57661 0.16517,-0.9525 0.41853,-0.9525 0.25336,0 0.41852,0.37589 0.41852,0.9525 0,0.57661 -0.16516,0.9525 -0.41852,0.9525 -0.25336,0 -0.41853,-0.37589 -0.41853,-0.9525 z"
         style="fill:#e5bfbf;stroke-width:0.3175" />
      <path
         id="path1619"
         d="m 159.30564,268.34704 c -0.76062,-0.19877 -0.70276,-0.73364 0.0794,-0.73364 0.35278,0 0.635,0.21167 0.635,0.47625 0,0.26194 -0.0357,0.45968 -0.0794,0.43942 -0.0437,-0.0203 -0.32941,-0.10217 -0.635,-0.18203 z m 1.03187,-0.47113 c 0,-0.43279 -0.24177,-0.58001 -0.9525,-0.58001 h -0.9525 l 0.004,-1.98437 c 0.006,-2.61899 0.22997,-3.37993 0.97941,-3.32348 0.33206,0.025 0.61379,0.26511 0.62607,0.53354 0.0197,0.43025 0.0479,0.43137 0.23812,0.009 0.1187,-0.26322 0.59827,-0.49318 1.06571,-0.51102 0.64215,-0.0245 0.89587,0.15069 1.03793,0.7167 0.10888,0.43384 0.4243,0.74914 0.7494,0.74914 0.33378,0 0.58078,0.25746 0.60922,0.635 0.0263,0.34925 -0.12188,0.63719 -0.32931,0.63986 -0.22522,0.003 -0.1853,0.12884 0.0991,0.31264 0.39617,0.25602 0.36947,0.31235 -0.15875,0.33495 -0.48665,0.0208 -0.52373,0.0776 -0.15875,0.24299 0.26194,0.1187 0.5156,0.45437 0.56369,0.74593 0.0675,0.40958 -0.29343,0.59955 -1.5875,0.83541 -1.00232,0.18269 -1.32431,0.32043 -0.80181,0.343 1.16943,0.0505 1.11425,0.56526 -0.0794,0.74045 -0.76175,0.1118 -0.9525,0.0236 -0.9525,-0.44022 z m 1.905,-2.64376 v -1.74625 h -1.5875 -1.5875 v 1.74625 1.74625 h 1.5875 1.5875 z m -1.06697,1.20845 c -0.35756,-0.35756 -0.21777,-0.7322 0.27322,-0.7322 0.26194,0 0.47625,0.13444 0.47625,0.29876 0,0.40036 -0.4958,0.6871 -0.74947,0.43344 z m -3.92573,-0.0972 c 0.0263,-0.34925 0.23174,-0.635 0.45652,-0.635 0.22477,0 0.40868,0.28575 0.40868,0.635 0,0.34925 -0.20543,0.635 -0.45652,0.635 -0.26079,0 -0.43601,-0.27224 -0.40868,-0.635 z m 0.17067,-1.16939 c 0.22919,-0.0917 0.50304,-0.0804 0.60854,0.0251 0.1055,0.1055 -0.082,0.18054 -0.41672,0.16676 -0.36987,-0.0152 -0.4451,-0.0905 -0.19182,-0.19183 z m -0.17067,-1.05311 c 0.0263,-0.34925 0.23174,-0.635 0.45652,-0.635 0.22477,0 0.40868,0.28575 0.40868,0.635 0,0.34925 -0.20543,0.635 -0.45652,0.635 -0.26079,0 -0.43601,-0.27224 -0.40868,-0.635 z"
         style="fill:#e4bebe;stroke-width:0.3175" />
      <path
         id="path1617"
         d="m 158.75001,267.9309 c 0,-0.17462 0.14288,-0.3175 0.3175,-0.3175 0.17463,0 0.3175,0.14288 0.3175,0.3175 0,0.17462 -0.14287,0.3175 -0.3175,0.3175 -0.17462,0 -0.3175,-0.14288 -0.3175,-0.3175 z m 2.2225,0 c 0,-0.17462 0.14288,-0.3175 0.3175,-0.3175 0.17463,0 0.3175,0.14288 0.3175,0.3175 0,0.17462 -0.14287,0.3175 -0.3175,0.3175 -0.17462,0 -0.3175,-0.14288 -0.3175,-0.3175 z m -2.53566,-2.61937 c 0.005,-2.20022 0.24208,-3.41313 0.66769,-3.41313 0.15426,0 0.29051,0.25003 0.30279,0.55562 0.0191,0.47512 0.0618,0.46362 0.29518,-0.0794 l 0.27287,-0.635 0.0446,0.635 0.0446,0.635 0.25239,-0.635 0.25239,-0.635 0.16471,0.635 c 0.13439,0.51807 0.1715,0.53269 0.20155,0.0794 0.0203,-0.30559 0.17971,-0.55562 0.35433,-0.55562 0.17463,0 0.32754,0.25003 0.33982,0.55562 0.0193,0.48165 0.0545,0.47335 0.26415,-0.0624 0.22399,-0.57236 0.25719,-0.56064 0.4496,0.15875 0.11427,0.42721 0.20971,1.66972 0.21209,2.76113 l 0.004,1.98437 h -2.06375 -2.06375 z m 3.80566,-0.0794 v -1.74625 h -1.74625 -1.74625 v 1.53458 c 0,0.84402 0.0952,1.62984 0.21167,1.74625 0.11641,0.11642 0.90223,0.21167 1.74625,0.21167 h 1.53458 z m -1.06697,1.20845 c -0.35756,-0.35756 -0.21777,-0.7322 0.27322,-0.7322 0.26194,0 0.47625,0.13444 0.47625,0.29876 0,0.40036 -0.4958,0.6871 -0.74947,0.43344 z m -3.85428,0.2203 c 0.10792,-0.17463 0.33067,-0.3175 0.49499,-0.3175 0.16432,0 0.29876,0.14287 0.29876,0.3175 0,0.17463 -0.22274,0.3175 -0.49499,0.3175 -0.27224,0 -0.40668,-0.14287 -0.29876,-0.3175 z m 5.55625,0 c 0,-0.17463 0.13444,-0.3175 0.29876,-0.3175 0.16432,0 0.38707,0.14287 0.49499,0.3175 0.10792,0.17463 -0.0265,0.3175 -0.29876,0.3175 -0.27225,0 -0.49499,-0.14287 -0.49499,-0.3175 z m -5.45703,-0.85189 c 0.22919,-0.0917 0.50304,-0.0804 0.60854,0.0251 0.1055,0.1055 -0.082,0.18054 -0.41672,0.16676 -0.36987,-0.0152 -0.4451,-0.0905 -0.19182,-0.19183 z m 5.715,0 c 0.22919,-0.0917 0.50304,-0.0804 0.60854,0.0251 0.1055,0.1055 -0.082,0.18054 -0.41672,0.16676 -0.36987,-0.0152 -0.4451,-0.0905 -0.19182,-0.19183 z m -5.715,-0.635 c 0.22919,-0.0917 0.50304,-0.0804 0.60854,0.0251 0.1055,0.1055 -0.082,0.18054 -0.41672,0.16676 -0.36987,-0.0152 -0.4451,-0.0905 -0.19182,-0.19183 z m 5.715,0 c 0.22919,-0.0917 0.50304,-0.0804 0.60854,0.0251 0.1055,0.1055 -0.082,0.18054 -0.41672,0.16676 -0.36987,-0.0152 -0.4451,-0.0905 -0.19182,-0.19183 z m -5.81422,-0.73561 c 0.10792,-0.17463 0.33067,-0.3175 0.49499,-0.3175 0.16432,0 0.29876,0.14287 0.29876,0.3175 0,0.17462 -0.22274,0.3175 -0.49499,0.3175 -0.27224,0 -0.40668,-0.14288 -0.29876,-0.3175 z m 5.55625,0 c 0,-0.17463 0.13444,-0.3175 0.29876,-0.3175 0.16432,0 0.38707,0.14287 0.49499,0.3175 0.10792,0.17462 -0.0265,0.3175 -0.29876,0.3175 -0.27225,0 -0.49499,-0.14288 -0.49499,-0.3175 z m -5.45703,-0.85189 c 0.22919,-0.0917 0.50304,-0.0804 0.60854,0.0251 0.1055,0.1055 -0.082,0.18054 -0.41672,0.16675 -0.36987,-0.0152 -0.4451,-0.0905 -0.19182,-0.19182 z m 5.715,0 c 0.22919,-0.0917 0.50304,-0.0804 0.60854,0.0251 0.1055,0.1055 -0.082,0.18054 -0.41672,0.16675 -0.36987,-0.0152 -0.4451,-0.0905 -0.19182,-0.19182 z"
         style="fill:#c4c4c4;stroke-width:0.3175" />
      <path
         id="path1615"
         d="m 158.75001,267.9309 c 0,-0.17462 0.14288,-0.3175 0.3175,-0.3175 0.17463,0 0.3175,0.14288 0.3175,0.3175 0,0.17462 -0.14287,0.3175 -0.3175,0.3175 -0.17462,0 -0.3175,-0.14288 -0.3175,-0.3175 z m 2.2225,0 c 0,-0.17462 0.14288,-0.3175 0.3175,-0.3175 0.17463,0 0.3175,0.14288 0.3175,0.3175 0,0.17462 -0.14287,0.3175 -0.3175,0.3175 -0.17462,0 -0.3175,-0.14288 -0.3175,-0.3175 z m -2.53566,-2.61937 c 0.005,-2.20022 0.24208,-3.41313 0.66769,-3.41313 0.15426,0 0.29051,0.25003 0.30279,0.55562 0.0191,0.47512 0.0618,0.46362 0.29518,-0.0794 l 0.27287,-0.635 0.0446,0.635 0.0446,0.635 0.25239,-0.635 0.25239,-0.635 0.16471,0.635 c 0.13439,0.51807 0.1715,0.53269 0.20155,0.0794 0.0203,-0.30559 0.17971,-0.55562 0.35433,-0.55562 0.17463,0 0.32754,0.25003 0.33982,0.55562 0.0193,0.48165 0.0545,0.47335 0.26415,-0.0624 0.22399,-0.57236 0.25719,-0.56064 0.4496,0.15875 0.11427,0.42721 0.20971,1.66972 0.21209,2.76113 l 0.004,1.98437 h -2.06375 -2.06375 z m 3.80566,-0.0794 v -1.74625 h -1.74625 -1.74625 v 1.53458 c 0,0.84402 0.0952,1.62984 0.21167,1.74625 0.11641,0.11642 0.90223,0.21167 1.74625,0.21167 h 1.53458 z m -1.06697,1.20845 c -0.35756,-0.35756 -0.21777,-0.7322 0.27322,-0.7322 0.26194,0 0.47625,0.13444 0.47625,0.29876 0,0.40036 -0.4958,0.6871 -0.74947,0.43344 z m -3.85428,0.2203 c 0.10792,-0.17463 0.33067,-0.3175 0.49499,-0.3175 0.16432,0 0.29876,0.14287 0.29876,0.3175 0,0.17463 -0.22274,0.3175 -0.49499,0.3175 -0.27224,0 -0.40668,-0.14287 -0.29876,-0.3175 z m 5.55625,0 c 0,-0.17463 0.13444,-0.3175 0.29876,-0.3175 0.16432,0 0.38707,0.14287 0.49499,0.3175 0.10792,0.17463 -0.0265,0.3175 -0.29876,0.3175 -0.27225,0 -0.49499,-0.14287 -0.49499,-0.3175 z m -5.45703,-0.85189 c 0.22919,-0.0917 0.50304,-0.0804 0.60854,0.0251 0.1055,0.1055 -0.082,0.18054 -0.41672,0.16676 -0.36987,-0.0152 -0.4451,-0.0905 -0.19182,-0.19183 z m 5.715,0 c 0.22919,-0.0917 0.50304,-0.0804 0.60854,0.0251 0.1055,0.1055 -0.082,0.18054 -0.41672,0.16676 -0.36987,-0.0152 -0.4451,-0.0905 -0.19182,-0.19183 z m -5.715,-0.635 c 0.22919,-0.0917 0.50304,-0.0804 0.60854,0.0251 0.1055,0.1055 -0.082,0.18054 -0.41672,0.16676 -0.36987,-0.0152 -0.4451,-0.0905 -0.19182,-0.19183 z m 5.715,0 c 0.22919,-0.0917 0.50304,-0.0804 0.60854,0.0251 0.1055,0.1055 -0.082,0.18054 -0.41672,0.16676 -0.36987,-0.0152 -0.4451,-0.0905 -0.19182,-0.19183 z m -5.81422,-0.73561 c 0.10792,-0.17463 0.33067,-0.3175 0.49499,-0.3175 0.16432,0 0.29876,0.14287 0.29876,0.3175 0,0.17462 -0.22274,0.3175 -0.49499,0.3175 -0.27224,0 -0.40668,-0.14288 -0.29876,-0.3175 z m 5.55625,0 c 0,-0.17463 0.13444,-0.3175 0.29876,-0.3175 0.16432,0 0.38707,0.14287 0.49499,0.3175 0.10792,0.17462 -0.0265,0.3175 -0.29876,0.3175 -0.27225,0 -0.49499,-0.14288 -0.49499,-0.3175 z m -5.45703,-0.85189 c 0.22919,-0.0917 0.50304,-0.0804 0.60854,0.0251 0.1055,0.1055 -0.082,0.18054 -0.41672,0.16675 -0.36987,-0.0152 -0.4451,-0.0905 -0.19182,-0.19182 z m 5.715,0 c 0.22919,-0.0917 0.50304,-0.0804 0.60854,0.0251 0.1055,0.1055 -0.082,0.18054 -0.41672,0.16675 -0.36987,-0.0152 -0.4451,-0.0905 -0.19182,-0.19182 z"
         style="fill:#deaeae;stroke-width:0.3175" />
      <path
         id="path1613"
         d="m 158.75001,267.9309 c 0,-0.17462 0.14288,-0.3175 0.3175,-0.3175 0.17463,0 0.3175,0.14288 0.3175,0.3175 0,0.17462 -0.14287,0.3175 -0.3175,0.3175 -0.17462,0 -0.3175,-0.14288 -0.3175,-0.3175 z m 2.2225,0 c 0,-0.17462 0.14288,-0.3175 0.3175,-0.3175 0.17463,0 0.3175,0.14288 0.3175,0.3175 0,0.17462 -0.14287,0.3175 -0.3175,0.3175 -0.17462,0 -0.3175,-0.14288 -0.3175,-0.3175 z m -2.54,-2.34156 c 0,-0.93861 0.0893,-2.15305 0.19844,-2.69875 0.21227,-1.06137 0.73938,-1.35777 0.77638,-0.43657 0.0191,0.47512 0.0618,0.46362 0.29518,-0.0794 l 0.27287,-0.635 0.0446,0.635 0.0446,0.635 0.25239,-0.635 0.25239,-0.635 0.16471,0.635 c 0.13439,0.51807 0.1715,0.53269 0.20155,0.0794 0.0203,-0.30559 0.17971,-0.55562 0.35433,-0.55562 0.17463,0 0.32754,0.25003 0.33982,0.55562 0.0193,0.48165 0.0545,0.47335 0.26415,-0.0624 0.22399,-0.57236 0.25719,-0.56064 0.4496,0.15875 0.11427,0.42721 0.20971,1.66972 0.21209,2.76113 l 0.004,1.98437 h -2.06375 -2.06375 z m 3.81,-0.35719 v -1.74625 h -1.74625 -1.74625 v 1.53458 c 0,0.84402 0.0952,1.62984 0.21167,1.74625 0.11641,0.11642 0.90223,0.21167 1.74625,0.21167 h 1.53458 z m -1.09449,1.13837 c -0.10223,-0.16541 -0.0505,-0.38438 0.11487,-0.48661 0.16541,-0.10223 0.38438,-0.0505 0.48661,0.11487 0.10223,0.16541 0.0505,0.38438 -0.11487,0.48661 -0.16541,0.10223 -0.38438,0.0505 -0.48661,-0.11487 z m -3.82676,0.29038 c 0.10792,-0.17463 0.33067,-0.3175 0.49499,-0.3175 0.16432,0 0.29876,0.14287 0.29876,0.3175 0,0.17463 -0.22274,0.3175 -0.49499,0.3175 -0.27224,0 -0.40668,-0.14287 -0.29876,-0.3175 z m 5.55625,0 c 0,-0.17463 0.13444,-0.3175 0.29876,-0.3175 0.16432,0 0.38707,0.14287 0.49499,0.3175 0.10792,0.17463 -0.0265,0.3175 -0.29876,0.3175 -0.27225,0 -0.49499,-0.14287 -0.49499,-0.3175 z m -5.45703,-0.85189 c 0.22919,-0.0917 0.50304,-0.0804 0.60854,0.0251 0.1055,0.1055 -0.082,0.18054 -0.41672,0.16676 -0.36987,-0.0152 -0.4451,-0.0905 -0.19182,-0.19183 z m 5.715,0 c 0.22919,-0.0917 0.50304,-0.0804 0.60854,0.0251 0.1055,0.1055 -0.082,0.18054 -0.41672,0.16676 -0.36987,-0.0152 -0.4451,-0.0905 -0.19182,-0.19183 z m -5.715,-0.635 c 0.22919,-0.0917 0.50304,-0.0804 0.60854,0.0251 0.1055,0.1055 -0.082,0.18054 -0.41672,0.16676 -0.36987,-0.0152 -0.4451,-0.0905 -0.19182,-0.19183 z m 5.715,0 c 0.22919,-0.0917 0.50304,-0.0804 0.60854,0.0251 0.1055,0.1055 -0.082,0.18054 -0.41672,0.16676 -0.36987,-0.0152 -0.4451,-0.0905 -0.19182,-0.19183 z m -5.81422,-0.73561 c 0.10792,-0.17463 0.33067,-0.3175 0.49499,-0.3175 0.16432,0 0.29876,0.14287 0.29876,0.3175 0,0.17462 -0.22274,0.3175 -0.49499,0.3175 -0.27224,0 -0.40668,-0.14288 -0.29876,-0.3175 z m 5.55625,0 c 0,-0.17463 0.13444,-0.3175 0.29876,-0.3175 0.16432,0 0.38707,0.14287 0.49499,0.3175 0.10792,0.17462 -0.0265,0.3175 -0.29876,0.3175 -0.27225,0 -0.49499,-0.14288 -0.49499,-0.3175 z m -5.45703,-0.85189 c 0.22919,-0.0917 0.50304,-0.0804 0.60854,0.0251 0.1055,0.1055 -0.082,0.18054 -0.41672,0.16675 -0.36987,-0.0152 -0.4451,-0.0905 -0.19182,-0.19182 z m 5.715,0 c 0.22919,-0.0917 0.50304,-0.0804 0.60854,0.0251 0.1055,0.1055 -0.082,0.18054 -0.41672,0.16675 -0.36987,-0.0152 -0.4451,-0.0905 -0.19182,-0.19182 z"
         style="fill:#bababa;stroke-width:0.3175" />
      <path
         id="path1611"
         d="m 158.75001,267.9309 c 0,-0.17462 0.14288,-0.3175 0.3175,-0.3175 0.17463,0 0.3175,0.14288 0.3175,0.3175 0,0.17462 -0.14287,0.3175 -0.3175,0.3175 -0.17462,0 -0.3175,-0.14288 -0.3175,-0.3175 z m 2.2225,0 c 0,-0.17462 0.14288,-0.3175 0.3175,-0.3175 0.17463,0 0.3175,0.14288 0.3175,0.3175 0,0.17462 -0.14287,0.3175 -0.3175,0.3175 -0.17462,0 -0.3175,-0.14288 -0.3175,-0.3175 z m -2.54,-2.34156 c 0,-0.93861 0.0893,-2.15305 0.19844,-2.69875 0.21227,-1.06137 0.73938,-1.35777 0.77638,-0.43657 0.0191,0.47512 0.0618,0.46362 0.29518,-0.0794 l 0.27287,-0.635 0.0446,0.635 0.0446,0.635 0.25239,-0.635 0.25239,-0.635 0.16471,0.635 c 0.13439,0.51807 0.1715,0.53269 0.20155,0.0794 0.0203,-0.30559 0.17971,-0.55562 0.35433,-0.55562 0.17463,0 0.32754,0.25003 0.33982,0.55562 0.0193,0.48165 0.0545,0.47335 0.26415,-0.0624 0.22399,-0.57236 0.25719,-0.56064 0.4496,0.15875 0.11427,0.42721 0.20971,1.66972 0.21209,2.76113 l 0.004,1.98437 h -2.06375 -2.06375 z m 3.81,-0.35719 v -1.74625 h -1.74625 -1.74625 v 1.53458 c 0,0.84402 0.0952,1.62984 0.21167,1.74625 0.11641,0.11642 0.90223,0.21167 1.74625,0.21167 h 1.53458 z m -1.09449,1.13837 c -0.10223,-0.16541 -0.0505,-0.38438 0.11487,-0.48661 0.16541,-0.10223 0.38438,-0.0505 0.48661,0.11487 0.10223,0.16541 0.0505,0.38438 -0.11487,0.48661 -0.16541,0.10223 -0.38438,0.0505 -0.48661,-0.11487 z m -3.82676,0.29038 c 0.10792,-0.17463 0.33067,-0.3175 0.49499,-0.3175 0.16432,0 0.29876,0.14287 0.29876,0.3175 0,0.17463 -0.22274,0.3175 -0.49499,0.3175 -0.27224,0 -0.40668,-0.14287 -0.29876,-0.3175 z m 5.55625,0 c 0,-0.17463 0.13444,-0.3175 0.29876,-0.3175 0.16432,0 0.38707,0.14287 0.49499,0.3175 0.10792,0.17463 -0.0265,0.3175 -0.29876,0.3175 -0.27225,0 -0.49499,-0.14287 -0.49499,-0.3175 z m -5.45703,-0.85189 c 0.22919,-0.0917 0.50304,-0.0804 0.60854,0.0251 0.1055,0.1055 -0.082,0.18054 -0.41672,0.16676 -0.36987,-0.0152 -0.4451,-0.0905 -0.19182,-0.19183 z m 5.715,0 c 0.22919,-0.0917 0.50304,-0.0804 0.60854,0.0251 0.1055,0.1055 -0.082,0.18054 -0.41672,0.16676 -0.36987,-0.0152 -0.4451,-0.0905 -0.19182,-0.19183 z m -5.715,-0.635 c 0.22919,-0.0917 0.50304,-0.0804 0.60854,0.0251 0.1055,0.1055 -0.082,0.18054 -0.41672,0.16676 -0.36987,-0.0152 -0.4451,-0.0905 -0.19182,-0.19183 z m 5.715,0 c 0.22919,-0.0917 0.50304,-0.0804 0.60854,0.0251 0.1055,0.1055 -0.082,0.18054 -0.41672,0.16676 -0.36987,-0.0152 -0.4451,-0.0905 -0.19182,-0.19183 z m -5.81422,-0.73561 c 0.10792,-0.17463 0.33067,-0.3175 0.49499,-0.3175 0.16432,0 0.29876,0.14287 0.29876,0.3175 0,0.17462 -0.22274,0.3175 -0.49499,0.3175 -0.27224,0 -0.40668,-0.14288 -0.29876,-0.3175 z m 5.55625,0 c 0,-0.17463 0.13444,-0.3175 0.29876,-0.3175 0.16432,0 0.38707,0.14287 0.49499,0.3175 0.10792,0.17462 -0.0265,0.3175 -0.29876,0.3175 -0.27225,0 -0.49499,-0.14288 -0.49499,-0.3175 z m -5.45703,-0.85189 c 0.22919,-0.0917 0.50304,-0.0804 0.60854,0.0251 0.1055,0.1055 -0.082,0.18054 -0.41672,0.16675 -0.36987,-0.0152 -0.4451,-0.0905 -0.19182,-0.19182 z m 5.715,0 c 0.22919,-0.0917 0.50304,-0.0804 0.60854,0.0251 0.1055,0.1055 -0.082,0.18054 -0.41672,0.16675 -0.36987,-0.0152 -0.4451,-0.0905 -0.19182,-0.19182 z"
         style="fill:#d89f9f;stroke-width:0.3175" />
      <path
         id="path1609"
         d="m 158.75001,267.9309 c 0,-0.17462 0.14288,-0.3175 0.3175,-0.3175 0.17463,0 0.3175,0.14288 0.3175,0.3175 0,0.17462 -0.14287,0.3175 -0.3175,0.3175 -0.17462,0 -0.3175,-0.14288 -0.3175,-0.3175 z m 2.2225,0 c 0,-0.17462 0.14288,-0.3175 0.3175,-0.3175 0.17463,0 0.3175,0.14288 0.3175,0.3175 0,0.17462 -0.14287,0.3175 -0.3175,0.3175 -0.17462,0 -0.3175,-0.14288 -0.3175,-0.3175 z m -2.54,-2.34156 c 0,-0.93861 0.0893,-2.15305 0.19844,-2.69875 0.21227,-1.06137 0.73938,-1.35777 0.77638,-0.43657 0.0191,0.47512 0.0618,0.46362 0.29518,-0.0794 l 0.27287,-0.635 0.0446,0.635 0.0446,0.635 0.25239,-0.635 0.25239,-0.635 0.16471,0.635 c 0.13439,0.51807 0.1715,0.53269 0.20155,0.0794 0.0203,-0.30559 0.17971,-0.55562 0.35433,-0.55562 0.17463,0 0.32754,0.25003 0.33982,0.55562 0.0193,0.48017 0.0553,0.47141 0.26491,-0.0645 0.20542,-0.52513 0.27497,-0.45825 0.45393,0.43656 0.11624,0.58119 0.21134,1.82466 0.21134,2.76327 v 1.70656 h -2.06375 -2.06375 z m 3.81,-0.35719 v -1.74625 h -1.74625 -1.74625 v 1.53458 c 0,0.84402 0.0952,1.62984 0.21167,1.74625 0.11641,0.11642 0.90223,0.21167 1.74625,0.21167 h 1.53458 z m -1.09449,1.13837 c -0.10223,-0.16541 -0.0505,-0.38438 0.11487,-0.48661 0.16541,-0.10223 0.38438,-0.0505 0.48661,0.11487 0.10223,0.16541 0.0505,0.38438 -0.11487,0.48661 -0.16541,0.10223 -0.38438,0.0505 -0.48661,-0.11487 z m -3.82676,0.29038 c 0.10792,-0.17463 0.33067,-0.3175 0.49499,-0.3175 0.16432,0 0.29876,0.14287 0.29876,0.3175 0,0.17463 -0.22274,0.3175 -0.49499,0.3175 -0.27224,0 -0.40668,-0.14287 -0.29876,-0.3175 z m 5.55625,0 c 0,-0.17463 0.13444,-0.3175 0.29876,-0.3175 0.16432,0 0.38707,0.14287 0.49499,0.3175 0.10792,0.17463 -0.0265,0.3175 -0.29876,0.3175 -0.27225,0 -0.49499,-0.14287 -0.49499,-0.3175 z m -5.45703,-0.85189 c 0.22919,-0.0917 0.50304,-0.0804 0.60854,0.0251 0.1055,0.1055 -0.082,0.18054 -0.41672,0.16676 -0.36987,-0.0152 -0.4451,-0.0905 -0.19182,-0.19183 z m 5.715,0 c 0.22919,-0.0917 0.50304,-0.0804 0.60854,0.0251 0.1055,0.1055 -0.082,0.18054 -0.41672,0.16676 -0.36987,-0.0152 -0.4451,-0.0905 -0.19182,-0.19183 z m -5.715,-0.635 c 0.22919,-0.0917 0.50304,-0.0804 0.60854,0.0251 0.1055,0.1055 -0.082,0.18054 -0.41672,0.16676 -0.36987,-0.0152 -0.4451,-0.0905 -0.19182,-0.19183 z m 5.715,0 c 0.22919,-0.0917 0.50304,-0.0804 0.60854,0.0251 0.1055,0.1055 -0.082,0.18054 -0.41672,0.16676 -0.36987,-0.0152 -0.4451,-0.0905 -0.19182,-0.19183 z m -5.81422,-0.73561 c 0.10792,-0.17463 0.33067,-0.3175 0.49499,-0.3175 0.16432,0 0.29876,0.14287 0.29876,0.3175 0,0.17462 -0.22274,0.3175 -0.49499,0.3175 -0.27224,0 -0.40668,-0.14288 -0.29876,-0.3175 z m 5.55625,0 c 0,-0.17463 0.13444,-0.3175 0.29876,-0.3175 0.16432,0 0.38707,0.14287 0.49499,0.3175 0.10792,0.17462 -0.0265,0.3175 -0.29876,0.3175 -0.27225,0 -0.49499,-0.14288 -0.49499,-0.3175 z m -5.45703,-0.85189 c 0.22919,-0.0917 0.50304,-0.0804 0.60854,0.0251 0.1055,0.1055 -0.082,0.18054 -0.41672,0.16675 -0.36987,-0.0152 -0.4451,-0.0905 -0.19182,-0.19182 z m 5.715,0 c 0.22919,-0.0917 0.50304,-0.0804 0.60854,0.0251 0.1055,0.1055 -0.082,0.18054 -0.41672,0.16675 -0.36987,-0.0152 -0.4451,-0.0905 -0.19182,-0.19182 z"
         style="fill:#d89e9e;stroke-width:0.3175" />
      <path
         id="path1607"
         d="m 158.75001,267.9309 c 0,-0.17462 0.14288,-0.3175 0.3175,-0.3175 0.17463,0 0.3175,0.14288 0.3175,0.3175 0,0.17462 -0.14287,0.3175 -0.3175,0.3175 -0.17462,0 -0.3175,-0.14288 -0.3175,-0.3175 z m 2.2225,0 c 0,-0.17462 0.14288,-0.3175 0.3175,-0.3175 0.17463,0 0.3175,0.14288 0.3175,0.3175 0,0.17462 -0.14287,0.3175 -0.3175,0.3175 -0.17462,0 -0.3175,-0.14288 -0.3175,-0.3175 z m -2.54,-2.72847 c 0,-1.82646 0.081,-2.11466 0.635,-2.25953 0.34925,-0.0913 0.64504,-0.39943 0.65732,-0.68466 0.0173,-0.40124 0.0841,-0.3749 0.29518,0.11641 l 0.27287,0.635 0.0446,-0.635 0.0446,-0.635 0.27287,0.635 c 0.24357,0.56682 0.27526,0.57333 0.29518,0.0606 0.0123,-0.3159 0.16753,-0.48462 0.345,-0.37494 0.17747,0.10969 0.24048,0.33243 0.14001,0.49499 -0.10047,0.16256 -0.0314,0.29556 0.15357,0.29556 0.18493,0 0.35048,-0.25003 0.36789,-0.55563 0.0742,-1.303 0.54219,1.16599 0.5717,3.01626 l 0.0317,1.98437 h -2.06375 -2.06375 z m 3.81,0.0297 v -1.74625 h -1.74625 -1.74625 v 1.53458 c 0,0.84402 0.0952,1.62984 0.21167,1.74625 0.11641,0.11642 0.90223,0.21167 1.74625,0.21167 h 1.53458 z m -1.10805,0.78857 c 0.10969,-0.17747 0.33243,-0.24048 0.49499,-0.14001 0.44039,0.27217 0.35827,0.46269 -0.19943,0.46269 -0.27224,0 -0.40524,-0.14521 -0.29556,-0.32268 z m -3.65445,0.64018 c 0,-0.17463 0.14288,-0.3175 0.3175,-0.3175 0.17463,0 0.3175,0.14287 0.3175,0.3175 0,0.17463 -0.14287,0.3175 -0.3175,0.3175 -0.17462,0 -0.3175,-0.14287 -0.3175,-0.3175 z m 5.3975,0 c 0,-0.17463 0.14288,-0.3175 0.3175,-0.3175 0.17463,0 0.3175,0.14287 0.3175,0.3175 0,0.17463 -0.14287,0.3175 -0.3175,0.3175 -0.17462,0 -0.3175,-0.14287 -0.3175,-0.3175 z m -5.45703,-0.85189 c 0.22919,-0.0917 0.50304,-0.0804 0.60854,0.0251 0.1055,0.1055 -0.082,0.18054 -0.41672,0.16676 -0.36987,-0.0152 -0.4451,-0.0905 -0.19182,-0.19183 z m 5.715,0 c 0.22919,-0.0917 0.50304,-0.0804 0.60854,0.0251 0.1055,0.1055 -0.082,0.18054 -0.41672,0.16676 -0.36987,-0.0152 -0.4451,-0.0905 -0.19182,-0.19183 z m -5.715,-0.635 c 0.22919,-0.0917 0.50304,-0.0804 0.60854,0.0251 0.1055,0.1055 -0.082,0.18054 -0.41672,0.16676 -0.36987,-0.0152 -0.4451,-0.0905 -0.19182,-0.19183 z m 5.715,0 c 0.22919,-0.0917 0.50304,-0.0804 0.60854,0.0251 0.1055,0.1055 -0.082,0.18054 -0.41672,0.16676 -0.36987,-0.0152 -0.4451,-0.0905 -0.19182,-0.19183 z m -5.65547,-0.73561 c 0,-0.17463 0.14288,-0.3175 0.3175,-0.3175 0.17463,0 0.3175,0.14287 0.3175,0.3175 0,0.17462 -0.14287,0.3175 -0.3175,0.3175 -0.17462,0 -0.3175,-0.14288 -0.3175,-0.3175 z m 5.3975,0 c 0,-0.17463 0.14288,-0.3175 0.3175,-0.3175 0.17463,0 0.3175,0.14287 0.3175,0.3175 0,0.17462 -0.14287,0.3175 -0.3175,0.3175 -0.17462,0 -0.3175,-0.14288 -0.3175,-0.3175 z"
         style="fill:#d28f8f;stroke-width:0.3175" />
      <path
         id="path1605"
         d="m 158.75001,267.9309 c 0,-0.17462 0.14288,-0.3175 0.3175,-0.3175 0.17463,0 0.3175,0.14288 0.3175,0.3175 0,0.17462 -0.14287,0.3175 -0.3175,0.3175 -0.17462,0 -0.3175,-0.14288 -0.3175,-0.3175 z m 2.2225,0 c 0,-0.17462 0.14288,-0.3175 0.3175,-0.3175 0.17463,0 0.3175,0.14288 0.3175,0.3175 0,0.17462 -0.14287,0.3175 -0.3175,0.3175 -0.17462,0 -0.3175,-0.14288 -0.3175,-0.3175 z m -2.54,-2.72847 c 0,-1.82646 0.081,-2.11466 0.635,-2.25953 0.34925,-0.0913 0.64504,-0.39943 0.65732,-0.68466 0.0173,-0.40124 0.0841,-0.3749 0.29518,0.11641 l 0.27287,0.635 0.0446,-0.635 0.0446,-0.635 0.27287,0.635 c 0.24357,0.56682 0.27526,0.57333 0.29518,0.0606 0.0123,-0.3159 0.16753,-0.48462 0.345,-0.37494 0.17747,0.10969 0.24048,0.33243 0.14001,0.49499 -0.10047,0.16256 -0.0314,0.29556 0.15357,0.29556 0.18493,0 0.35048,-0.25003 0.36789,-0.55563 0.0742,-1.303 0.54219,1.16599 0.5717,3.01626 l 0.0317,1.98437 h -2.06375 -2.06375 z m 3.81,0.0297 v -1.74625 h -1.74625 -1.74625 v 1.74625 1.74625 h 1.74625 1.74625 z m -1.10805,0.78857 c 0.10969,-0.17747 0.33243,-0.24048 0.49499,-0.14001 0.44039,0.27217 0.35827,0.46269 -0.19943,0.46269 -0.27224,0 -0.40524,-0.14521 -0.29556,-0.32268 z m -3.65445,0.64018 c 0,-0.17463 0.14288,-0.3175 0.3175,-0.3175 0.17463,0 0.3175,0.14287 0.3175,0.3175 0,0.17463 -0.14287,0.3175 -0.3175,0.3175 -0.17462,0 -0.3175,-0.14287 -0.3175,-0.3175 z m 5.3975,0 c 0,-0.17463 0.14288,-0.3175 0.3175,-0.3175 0.17463,0 0.3175,0.14287 0.3175,0.3175 0,0.17463 -0.14287,0.3175 -0.3175,0.3175 -0.17462,0 -0.3175,-0.14287 -0.3175,-0.3175 z m -5.45703,-0.85189 c 0.22919,-0.0917 0.50304,-0.0804 0.60854,0.0251 0.1055,0.1055 -0.082,0.18054 -0.41672,0.16676 -0.36987,-0.0152 -0.4451,-0.0905 -0.19182,-0.19183 z m 5.715,0 c 0.22919,-0.0917 0.50304,-0.0804 0.60854,0.0251 0.1055,0.1055 -0.082,0.18054 -0.41672,0.16676 -0.36987,-0.0152 -0.4451,-0.0905 -0.19182,-0.19183 z m -5.715,-0.635 c 0.22919,-0.0917 0.50304,-0.0804 0.60854,0.0251 0.1055,0.1055 -0.082,0.18054 -0.41672,0.16676 -0.36987,-0.0152 -0.4451,-0.0905 -0.19182,-0.19183 z m 5.715,0 c 0.22919,-0.0917 0.50304,-0.0804 0.60854,0.0251 0.1055,0.1055 -0.082,0.18054 -0.41672,0.16676 -0.36987,-0.0152 -0.4451,-0.0905 -0.19182,-0.19183 z m -5.65547,-0.73561 c 0,-0.17463 0.14288,-0.3175 0.3175,-0.3175 0.17463,0 0.3175,0.14287 0.3175,0.3175 0,0.17462 -0.14287,0.3175 -0.3175,0.3175 -0.17462,0 -0.3175,-0.14288 -0.3175,-0.3175 z m 5.3975,0 c 0,-0.17463 0.14288,-0.3175 0.3175,-0.3175 0.17463,0 0.3175,0.14287 0.3175,0.3175 0,0.17462 -0.14287,0.3175 -0.3175,0.3175 -0.17462,0 -0.3175,-0.14288 -0.3175,-0.3175 z"
         style="fill:#cb7f7f;stroke-width:0.3175" />
      <path
         id="path1603"
         d="m 158.75001,267.9309 c 0,-0.17462 0.14288,-0.3175 0.3175,-0.3175 0.17463,0 0.3175,0.14288 0.3175,0.3175 0,0.17462 -0.14287,0.3175 -0.3175,0.3175 -0.17462,0 -0.3175,-0.14288 -0.3175,-0.3175 z m 2.2225,0 c 0,-0.17462 0.14288,-0.3175 0.3175,-0.3175 0.17463,0 0.3175,0.14288 0.3175,0.3175 0,0.17462 -0.14287,0.3175 -0.3175,0.3175 -0.17462,0 -0.3175,-0.14288 -0.3175,-0.3175 z m -2.54,-2.69875 v -2.06375 h 2.06375 2.06375 v 2.06375 2.06375 h -2.06375 -2.06375 z m 3.81,0 v -1.74625 h -1.74625 -1.74625 v 1.74625 1.74625 h 1.74625 1.74625 z m -1.10805,0.78857 c 0.10969,-0.17747 0.33243,-0.24048 0.49499,-0.14001 0.44039,0.27217 0.35827,0.46269 -0.19943,0.46269 -0.27224,0 -0.40524,-0.14521 -0.29556,-0.32268 z m 1.74305,0.62144 c 0,-0.18493 0.14288,-0.24793 0.3175,-0.14001 0.17463,0.10792 0.3175,0.25923 0.3175,0.33624 0,0.077 -0.14287,0.14001 -0.3175,0.14001 -0.17462,0 -0.3175,-0.15131 -0.3175,-0.33624 z m -5.45703,-0.83315 c 0.22919,-0.0917 0.50304,-0.0804 0.60854,0.0251 0.1055,0.1055 -0.082,0.18054 -0.41672,0.16676 -0.36987,-0.0152 -0.4451,-0.0905 -0.19182,-0.19183 z m 5.715,0 c 0.22919,-0.0917 0.50304,-0.0804 0.60854,0.0251 0.1055,0.1055 -0.082,0.18054 -0.41672,0.16676 -0.36987,-0.0152 -0.4451,-0.0905 -0.19182,-0.19183 z m -5.715,-0.635 c 0.22919,-0.0917 0.50304,-0.0804 0.60854,0.0251 0.1055,0.1055 -0.082,0.18054 -0.41672,0.16676 -0.36987,-0.0152 -0.4451,-0.0905 -0.19182,-0.19183 z m 5.715,0 c 0.22919,-0.0917 0.50304,-0.0804 0.60854,0.0251 0.1055,0.1055 -0.082,0.18054 -0.41672,0.16676 -0.36987,-0.0152 -0.4451,-0.0905 -0.19182,-0.19183 z m -0.25797,-0.75435 c 0,-0.18493 0.14288,-0.24793 0.3175,-0.14001 0.17463,0.10792 0.3175,0.25923 0.3175,0.33624 0,0.077 -0.14287,0.14001 -0.3175,0.14001 -0.17462,0 -0.3175,-0.15131 -0.3175,-0.33624 z m -3.14993,-2.07147 c 0.0152,-0.36987 0.0905,-0.4451 0.19182,-0.19182 0.0917,0.22919 0.0804,0.50304 -0.0251,0.60854 -0.1055,0.1055 -0.18054,-0.082 -0.16676,-0.41672 z m 0.635,0 c 0.0152,-0.36987 0.0905,-0.4451 0.19182,-0.19182 0.0917,0.22919 0.0804,0.50304 -0.0251,0.60854 -0.1055,0.1055 -0.18054,-0.082 -0.16676,-0.41672 z m 0.60993,0.008 c 0,-0.27224 0.14521,-0.40524 0.32268,-0.29556 0.17747,0.10969 0.24048,0.33243 0.14001,0.49499 -0.27217,0.44038 -0.46269,0.35827 -0.46269,-0.19943 z m 0.97757,-0.008 c 0.0152,-0.36987 0.0905,-0.4451 0.19182,-0.19182 0.0917,0.22919 0.0804,0.50304 -0.0251,0.60854 -0.1055,0.1055 -0.18054,-0.082 -0.16676,-0.41672 z"
         style="fill:#cb7e7e;stroke-width:0.3175" />
      <path
         id="path1601"
         d="m 158.43251,265.23215 v -2.06375 h 2.06375 2.06375 v 2.06375 2.06375 h -2.06375 -2.06375 z m 3.81,0 v -1.74625 h -1.74625 -1.74625 v 1.74625 1.74625 h 1.74625 1.74625 z m -0.9525,0.77501 c 0,-0.18493 0.14288,-0.24793 0.3175,-0.14001 0.17463,0.10792 0.3175,0.25923 0.3175,0.33624 0,0.077 -0.14287,0.14001 -0.3175,0.14001 -0.17462,0 -0.3175,-0.15131 -0.3175,-0.33624 z m -1.56243,-3.65897 c 0.0152,-0.36987 0.0905,-0.4451 0.19182,-0.19182 0.0917,0.22919 0.0804,0.50304 -0.0251,0.60854 -0.1055,0.1055 -0.18054,-0.082 -0.16676,-0.41672 z m 0.635,0 c 0.0152,-0.36987 0.0905,-0.4451 0.19182,-0.19182 0.0917,0.22919 0.0804,0.50304 -0.0251,0.60854 -0.1055,0.1055 -0.18054,-0.082 -0.16676,-0.41672 z m 0.635,0 c 0.0152,-0.36987 0.0905,-0.4451 0.19182,-0.19182 0.0917,0.22919 0.0804,0.50304 -0.0251,0.60854 -0.1055,0.1055 -0.18054,-0.082 -0.16676,-0.41672 z m 0.9525,0 c 0.0152,-0.36987 0.0905,-0.4451 0.19182,-0.19182 0.0917,0.22919 0.0804,0.50304 -0.0251,0.60854 -0.1055,0.1055 -0.18054,-0.082 -0.16676,-0.41672 z"
         style="fill:#c46e6e;stroke-width:0.3175" />
      <path
         id="path1599"
         d="m 158.43251,265.23215 v -2.06375 h 2.06375 2.06375 v 2.06375 2.06375 h -2.06375 -2.06375 z m 3.81,0 v -1.74625 h -1.74625 -1.74625 v 1.74625 1.74625 h 1.74625 1.74625 z m -0.9525,0.77501 c 0,-0.18493 0.14288,-0.24793 0.3175,-0.14001 0.17463,0.10792 0.3175,0.25923 0.3175,0.33624 0,0.077 -0.14287,0.14001 -0.3175,0.14001 -0.17462,0 -0.3175,-0.15131 -0.3175,-0.33624 z m -1.56243,-3.65897 c 0.0152,-0.36987 0.0905,-0.4451 0.19182,-0.19182 0.0917,0.22919 0.0804,0.50304 -0.0251,0.60854 -0.1055,0.1055 -0.18054,-0.082 -0.16676,-0.41672 z m 0.635,0 c 0.0152,-0.36987 0.0905,-0.4451 0.19182,-0.19182 0.0917,0.22919 0.0804,0.50304 -0.0251,0.60854 -0.1055,0.1055 -0.18054,-0.082 -0.16676,-0.41672 z"
         style="fill:#be5e5e;stroke-width:0.3175" />
      <path
         id="path1597"
         d="m 158.43251,265.23215 v -2.06375 h 2.06375 2.06375 v 2.06375 2.06375 h -2.06375 -2.06375 z m 3.81,0 v -1.74625 h -1.74625 -1.74625 v 1.74625 1.74625 h 1.74625 1.74625 z m -2.51493,-2.88396 c 0.0152,-0.36987 0.0905,-0.4451 0.19182,-0.19182 0.0917,0.22919 0.0804,0.50304 -0.0251,0.60854 -0.1055,0.1055 -0.18054,-0.082 -0.16676,-0.41672 z m 0.635,0 c 0.0152,-0.36987 0.0905,-0.4451 0.19182,-0.19182 0.0917,0.22919 0.0804,0.50304 -0.0251,0.60854 -0.1055,0.1055 -0.18054,-0.082 -0.16676,-0.41672 z"
         style="fill:#b23f3f;stroke-width:0.3175" />
      <path
         id="path1595"
         d="m 158.43251,265.23215 v -2.06375 h 2.06375 2.06375 v 2.06375 2.06375 h -2.06375 -2.06375 z m 3.81,0 v -1.74625 h -1.74625 -1.74625 v 1.74625 1.74625 h 1.74625 1.74625 z m -1.87993,-2.88396 c 0.0152,-0.36987 0.0905,-0.4451 0.19182,-0.19182 0.0917,0.22919 0.0804,0.50304 -0.0251,0.60854 -0.1055,0.1055 -0.18054,-0.082 -0.16676,-0.41672 z"
         style="fill:#b13e3e;stroke-width:0.3175" />
      <path
         id="path1593"
         d="m 158.43251,265.23215 c 0,-1.13506 0.10716,-2.06401 0.23813,-2.06433 0.13096,-3.2e-4 0.18971,0.85693 0.13054,1.905 l -0.10757,1.90558 h 1.7593 1.7593 l 0.11272,-1.98438 0.11273,-1.98437 0.0612,2.14312 0.0612,2.14313 h -2.06375 -2.06375 z"
         style="fill:#ab2e2e;stroke-width:0.3175" />
      <path
         id="path1591"
         d="m 158.56326,266.86118 c -0.0918,-0.2391 -0.11369,-1.2035 -0.0488,-2.14313 l 0.11805,-1.7084 0.0587,1.98437 0.0587,1.98438 h 1.7311 1.7311 l 0.11272,-1.98438 0.11273,-1.98437 0.0612,2.14312 0.0612,2.14313 H 160.645 c -1.328,0 -1.9661,-0.13325 -2.08179,-0.43472 z"
         style="fill:#a41e1e;stroke-width:0.3175" />
      <path
         id="path1589"
         d="m 158.56939,266.87714 c -0.0951,-0.24788 -0.11982,-1.21946 -0.0549,-2.15909 l 0.11805,-1.7084 0.0587,1.98437 0.0587,1.98438 h 1.7311 1.7311 l 0.12131,-1.98438 0.12131,-1.98437 -0.0268,2.06375 -0.0268,2.06375 -1.82947,0.0953 c -1.35365,0.0705 -1.87444,-0.0219 -2.0024,-0.35534 z"
         style="fill:#980000;stroke-width:0.3175" />
    </g>
  </g>
</svg>
