<?xml version="1.0" encoding="UTF-8" standalone="no"?>
<!-- Created with Inkscape (http://www.inkscape.org/) -->

<svg
   xmlns:dc="http://purl.org/dc/elements/1.1/"
   xmlns:cc="http://creativecommons.org/ns#"
   xmlns:rdf="http://www.w3.org/1999/02/22-rdf-syntax-ns#"
   xmlns:svg="http://www.w3.org/2000/svg"
   xmlns="http://www.w3.org/2000/svg"
   xmlns:sodipodi="http://sodipodi.sourceforge.net/DTD/sodipodi-0.dtd"
   xmlns:inkscape="http://www.inkscape.org/namespaces/inkscape"
   width="58.23642mm"
   height="58.395512mm"
   viewBox="0 0 48 55.619726"
   version="1.1"
   id="svg1756"
   inkscape:version="0.92.4 (unknown)"
   sodipodi:docname="heartline.svg">
  <defs
     id="defs1750" />
  <sodipodi:namedview
     id="base"
     pagecolor="#ffffff"
     bordercolor="#666666"
     borderopacity="1.0"
     inkscape:pageopacity="0.0"
     inkscape:pageshadow="2"
     inkscape:zoom="0.98994949"
     inkscape:cx="-83.552356"
     inkscape:cy="136.46284"
     inkscape:document-units="mm"
     inkscape:current-layer="layer1"
     showgrid="false"
     inkscape:window-width="1366"
     inkscape:window-height="743"
     inkscape:window-x="0"
     inkscape:window-y="0"
     inkscape:window-maximized="1"
     scale-x="1"
     fit-margin-top="0"
     fit-margin-left="0"
     fit-margin-right="0"
     fit-margin-bottom="0" />
  <metadata
     id="metadata1753">
    <rdf:RDF>
      <cc:Work
         rdf:about="">
        <dc:format>image/svg+xml</dc:format>
        <dc:type
           rdf:resource="http://purl.org/dc/dcmitype/StillImage" />
        <dc:title></dc:title>
      </cc:Work>
    </rdf:RDF>
  </metadata>
  <g
     inkscape:label="Layer 1"
     inkscape:groupmode="layer"
     id="layer1"
     transform="translate(-132.5468,-77.571195)">
    <path
       style="fill:#2236d2;fill-opacity:1;stroke-width:2.05185175"
       d="m 145.56,121.48309 c -5.9264,-5.33838 -8.30161,-8.70898 -6.63187,-9.41099 1.4308,-0.60164 3.91365,-2.40594 5.51747,-4.00974 2.52007,-2.52014 3.00266,-1.88998 3.55405,4.64126 0.77085,9.1307 4.19935,10.89704 7.42203,3.82386 2.01855,-4.43006 3.70876,-5.18274 11.63875,-5.18274 7.10911,0 9.27734,-0.76194 9.27734,-3.26003 0,-2.6939 -2.13852,-3.1393 -12.31483,-2.56485 l -12.31484,0.69524 0.004,-6.668471 c 0.005,-8.607964 -4.75383,-8.841585 -8.2484,-0.40521 -2.08611,5.036371 -3.64231,6.141911 -7.94333,5.642621 -4.52668,-0.52539 -5.4445,-1.7644 -5.97052,-8.060122 -1.10223,-13.191563 8.71968,-17.910243 21.30517,-10.235602 6.16431,3.758989 6.44349,3.759895 11.28519,0.03878 15.50417,-11.91838 28.95914,4.496367 18.09474,22.075274 -3.83408,6.20363 -20.96852,21.21854 -24.19741,21.20412 -0.68398,-0.003 -5.39889,-3.74826 -10.4772,-8.32276 z"
       id="path831"
       inkscape:connector-curvature="0" />
  </g>
</svg>
