<?xml version="1.0" encoding="UTF-8" standalone="no"?>
<svg
   xmlns:dc="http://purl.org/dc/elements/1.1/"
   xmlns:cc="http://creativecommons.org/ns#"
   xmlns:rdf="http://www.w3.org/1999/02/22-rdf-syntax-ns#"
   xmlns:svg="http://www.w3.org/2000/svg"
   xmlns="http://www.w3.org/2000/svg"
   id="svg1756"
   version="1.1"
   viewBox="0 0 157.01515 181.44473"
   height="720"
   width="720">
  <defs
     id="defs1750" />
  <metadata
     id="metadata1753">
    <rdf:RDF>
      <cc:Work
         rdf:about="">
        <dc:format>image/svg+xml</dc:format>
        <dc:type
           rdf:resource="http://purl.org/dc/dcmitype/StillImage" />
        <dc:title></dc:title>
      </cc:Work>
    </rdf:RDF>
  </metadata>
  <g
     transform="translate(-132.5468,48.253811)"
     id="layer1">
    <path
       id="path831"
       d="M 173.71311,93.369837 C 154.057,75.664014 146.17913,64.484734 151.71717,62.156375 c 4.74554,-1.995461 12.98041,-7.979789 18.29981,-13.299117 8.35832,-8.358557 9.95893,-6.268503 11.78773,15.393682 2.55668,30.283817 13.92799,36.14225 24.61667,12.682608 6.69493,-14.693194 12.30085,-17.18961 38.60228,-17.18961 23.5788,0 30.77018,-2.527129 30.77018,-10.812552 0,-8.934867 -7.09284,-10.412126 -40.84464,-8.506846 l -40.84467,2.305905 0.0133,-22.117339 c 0.0166,-28.5500618 -15.76704,-29.3249134 -27.35749,-1.343962 -6.91901,16.704148 -12.08047,20.370896 -26.34567,18.714899 -15.01366,-1.742562 -18.05779,-5.851991 -19.80244,-26.733032 -3.65577,-43.752499 28.92059,-59.40296 70.66292,-33.948454 20.44519,12.467451 21.37114,12.470456 37.42963,0.128622 51.42273,-39.529729 96.04887,14.9131149 60.01488,73.217132 -12.71651,20.575599 -69.54636,70.375599 -80.25563,70.327779 -2.26856,-0.01 -17.90651,-12.43187 -34.74976,-27.604133 z"
       style="fill:#2236d2;fill-opacity:1;stroke-width:6.80538321" />
  </g>
</svg>
