<svg xmlns="http://www.w3.org/2000/svg" viewBox="0 0 80 80" width="50px" height="50px"><path fill="#e1ebf2" d="M16,55.5C7.453,55.5,0.5,48.547,0.5,40c0-7.098,4.811-13.271,11.698-15.01l0.406-0.103 l-0.043-0.604C12.531,23.858,12.5,23.433,12.5,23c0-11.304,9.196-20.5,20.5-20.5c9.6,0,17.808,6.534,19.96,15.891l0.11,0.481 l0.483-0.104C54.369,18.59,55.192,18.5,56,18.5c5.693,0,10.466,4.084,11.347,9.712l0.058,0.37l0.371,0.049 C74.46,29.511,79.5,35.258,79.5,42c0,7.444-6.056,13.5-13.5,13.5H16z"/><path fill="#b0c1d4" d="M33,3c9.365,0,17.372,6.375,19.473,15.503l0.221,0.962l0.965-0.209C54.441,19.086,55.229,19,56,19 c5.446,0,10.01,3.907,10.853,9.289l0.116,0.739l0.742,0.098C74.146,29.974,79,35.508,79,42c0,7.168-5.832,13-13,13H16 C7.729,55,1,48.271,1,40c0-6.868,4.655-12.842,11.321-14.526l0.812-0.205l-0.059-0.835l-0.012-0.167C13.03,23.829,13,23.416,13,23 C13,11.972,21.972,3,33,3 M33,2c-11.598,0-21,9.402-21,21c0,0.508,0.041,1.006,0.076,1.505C5.14,26.257,0,32.52,0,40 c0,8.837,7.163,16,16,16h50c7.732,0,14-6.268,14-14c0-7.107-5.299-12.962-12.159-13.865C66.943,22.395,61.991,18,56,18 c-0.877,0-1.729,0.1-2.552,0.278C51.303,8.958,42.972,2,33,2L33,2z"/><path fill="#4e7ab5" d="M9 72A1 1 0 1 0 9 74 1 1 0 1 0 9 72zM15 60A1 1 0 1 0 15 62 1 1 0 1 0 15 60zM13 64A1 1 0 1 0 13 66 1 1 0 1 0 13 64zM11 68A1 1 0 1 0 11 70 1 1 0 1 0 11 68zM41 72A1 1 0 1 0 41 74 1 1 0 1 0 41 72zM47 60A1 1 0 1 0 47 62 1 1 0 1 0 47 60zM45 64A1 1 0 1 0 45 66 1 1 0 1 0 45 64zM43 68A1 1 0 1 0 43 70 1 1 0 1 0 43 68zM39 60A1 1 0 1 0 39 62 1 1 0 1 0 39 60zM37 64A1 1 0 1 0 37 66 1 1 0 1 0 37 64zM35 68A1 1 0 1 0 35 70 1 1 0 1 0 35 68zM25 72A1 1 0 1 0 25 74 1 1 0 1 0 25 72zM31 60A1 1 0 1 0 31 62 1 1 0 1 0 31 60zM29 64A1 1 0 1 0 29 66 1 1 0 1 0 29 64zM27 68A1 1 0 1 0 27 70 1 1 0 1 0 27 68zM23 60A1 1 0 1 0 23 62 1 1 0 1 0 23 60zM21 64A1 1 0 1 0 21 66 1 1 0 1 0 21 64zM19 68A1 1 0 1 0 19 70 1 1 0 1 0 19 68zM7 76A1 1 0 1 0 7 78 1 1 0 1 0 7 76zM39 76A1 1 0 1 0 39 78 1 1 0 1 0 39 76zM33 72A1 1 0 1 0 33 74 1 1 0 1 0 33 72zM57 72A1 1 0 1 0 57 74 1 1 0 1 0 57 72zM63 60A1 1 0 1 0 63 62 1 1 0 1 0 63 60zM61 64A1 1 0 1 0 61 66 1 1 0 1 0 61 64zM59 68A1 1 0 1 0 59 70 1 1 0 1 0 59 68zM55 60A1 1 0 1 0 55 62 1 1 0 1 0 55 60zM53 64A1 1 0 1 0 53 66 1 1 0 1 0 53 64zM51 68A1 1 0 1 0 51 70 1 1 0 1 0 51 68zM55 76A1 1 0 1 0 55 78 1 1 0 1 0 55 76zM49 72A1 1 0 1 0 49 74 1 1 0 1 0 49 72zM23 76A1 1 0 1 0 23 78 1 1 0 1 0 23 76zM17 72A1 1 0 1 0 17 74 1 1 0 1 0 17 72z"/></svg>