<?xml version="1.0" encoding="UTF-8" standalone="no"?>
<svg
   xmlns:dc="http://purl.org/dc/elements/1.1/"
   xmlns:cc="http://creativecommons.org/ns#"
   xmlns:rdf="http://www.w3.org/1999/02/22-rdf-syntax-ns#"
   xmlns:svg="http://www.w3.org/2000/svg"
   xmlns="http://www.w3.org/2000/svg"
   xmlns:sodipodi="http://sodipodi.sourceforge.net/DTD/sodipodi-0.dtd"
   xmlns:inkscape="http://www.inkscape.org/namespaces/inkscape"
   id="svg1756"
   version="1.1"
   viewBox="0 0 130 129.99999"
   height="130mm"
   width="130mm"
   sodipodi:docname="kibana.svg"
   inkscape:version="0.92.4 (unknown)">
  <sodipodi:namedview
     pagecolor="#ffffff"
     bordercolor="#666666"
     borderopacity="1"
     objecttolerance="10"
     gridtolerance="10"
     guidetolerance="10"
     inkscape:pageopacity="0"
     inkscape:pageshadow="2"
     inkscape:window-width="1600"
     inkscape:window-height="868"
     id="namedview6201"
     showgrid="false"
     inkscape:zoom="0.12008013"
     inkscape:cx="1023.0134"
     inkscape:cy="-1195.4821"
     inkscape:window-x="0"
     inkscape:window-y="0"
     inkscape:window-maximized="1"
     inkscape:current-layer="svg1756" />
  <defs
     id="defs1750">
    <filter
       style="color-interpolation-filters:sRGB;"
       id="filter858">
      <feConvolveMatrix
         order="3 3"
         kernelMatrix="0 -0.15 0 -0.15 1.6 -0.15 0 -0.15 0"
         divisor="1"
         in="SourceGraphic"
         targetX="1"
         targetY="1"
         id="feConvolveMatrix856" />
    </filter>
  </defs>
  <metadata
     id="metadata1753">
    <rdf:RDF>
      <cc:Work
         rdf:about="">
        <dc:format>image/svg+xml</dc:format>
        <dc:type
           rdf:resource="http://purl.org/dc/dcmitype/StillImage" />
        <dc:title></dc:title>
      </cc:Work>
    </rdf:RDF>
  </metadata>
  <g
     transform="matrix(3.914207,0,0,3.914207,-1107.894,-327.38301)"
     id="g1861">
    <path
       id="path1987"
       d="M 286.91765,100.47398 V 83.893427 h 12.72964 12.72964 l -1.0618,1.322916 c -0.58399,0.727604 -3.43811,4.169955 -6.34249,7.649668 l -5.28069,6.326751 2.4008,1.686018 c 4.28252,3.00749 7.78382,7.77927 9.35311,12.74694 0.47948,1.51783 0.87179,2.91023 0.87179,3.09425 0,0.20471 -4.92938,0.33456 -12.7,0.33456 h -12.7 z"
       style="fill:#fcf0f4;stroke-width:0.35277775" />
    <path
       id="path1985"
       d="M 286.91765,100.47398 V 83.893427 h 12.72443 12.72444 l -2.2293,2.693223 c -1.22611,1.481272 -4.07552,4.925289 -6.33201,7.653371 l -4.10271,4.960148 2.39553,1.682311 c 4.27721,3.00377 7.77928,7.77789 9.34783,12.74324 0.47948,1.51783 0.87179,2.91023 0.87179,3.09425 0,0.20471 -4.92938,0.33456 -12.7,0.33456 h -12.7 z"
       style="fill:#fbe7ee;stroke-width:0.35277775" />
    <path
       id="path1983"
       d="M 286.91765,100.47398 V 83.893427 h 12.73285 12.73285 l -1.40137,1.675694 c -0.77074,0.921632 -3.63502,4.357861 -6.36506,7.636065 l -4.9637,5.960372 2.42016,1.699622 c 4.302,3.02117 7.80051,7.78435 9.37248,12.76054 0.47948,1.51783 0.87179,2.91023 0.87179,3.09425 0,0.20471 -4.92938,0.33456 -12.7,0.33456 h -12.7 z"
       style="fill:#e3f3f1;stroke-width:0.35277775" />
    <path
       id="path1981"
       d="M 286.91765,100.47398 V 83.893427 h 12.73285 12.73285 l -1.40137,1.675694 c -11.17125,13.358161 -11.40785,13.665148 -10.80771,14.022915 2.00166,1.193254 5.50396,4.266814 6.92547,6.077664 2.56774,3.27105 5.64185,10.0607 5.01461,11.07559 -0.10512,0.17008 -5.81738,0.30924 -12.69391,0.30924 h -12.50279 z"
       style="fill:#f9d9e4;stroke-width:0.35277775" />
    <path
       id="path1979"
       d="M 286.91765,100.47398 V 83.893427 h 12.69963 12.69963 l -6.36401,7.672915 c -5.43021,6.547058 -6.27765,7.72468 -5.77543,8.025694 2.01627,1.208494 5.50334,4.270094 6.92227,6.077664 2.56774,3.27105 5.64185,10.0607 5.01461,11.07559 -0.10512,0.17008 -5.81738,0.30924 -12.69391,0.30924 h -12.50279 z"
       style="fill:#d0ece9;stroke-width:0.35277775" />
    <path
       id="path1977"
       d="M 286.91765,100.52719 V 83.893427 h 12.69963 12.69963 l -6.36401,7.672915 c -5.45322,6.5748 -6.27887,7.723404 -5.76915,8.025694 1.72174,1.021054 5.1052,3.967424 6.59516,5.743144 1.92036,2.28867 4.26674,6.76366 4.98875,9.51449 l 0.48612,1.85209 -9.22848,0.002 c -5.07567,10e-4 -10.7763,0.10438 -12.66807,0.22966 l -3.43958,0.22777 z"
       style="fill:#f7ccdc;stroke-width:0.35277775" />
    <path
       id="path1975"
       d="M 286.91765,100.52719 V 83.893427 h 12.70053 12.70054 l -6.3819,7.670317 c -5.53458,6.651936 -6.30066,7.717501 -5.77005,8.025694 1.68632,0.979462 5.10699,3.951912 6.61214,5.745742 1.92036,2.28867 4.26674,6.76366 4.98875,9.51449 l 0.48612,1.85209 -9.22848,0.002 c -5.07567,10e-4 -10.7763,0.10438 -12.66807,0.22966 l -3.43958,0.22777 z"
       style="fill:#cae4e0;stroke-width:0.35277775" />
    <path
       id="path1973"
       d="M 286.91765,100.29759 V 83.893427 h 12.70299 12.70299 l -6.11116,7.336137 c -3.36114,4.034875 -6.21678,7.507027 -6.34587,7.715894 -0.13356,0.216095 0.58149,0.921683 1.65918,1.637222 4.80736,3.19191 8.78527,8.75453 10.26099,14.34872 l 0.46701,1.77036 h -12.66806 -12.66807 z"
       style="fill:#f6c2d5;stroke-width:0.35277775" />
    <path
       id="path1971"
       d="M 286.91765,100.29759 V 83.893427 h 12.52361 c 6.88798,0 12.52361,0.09712 12.52361,0.215833 0,0.118708 -2.66669,3.41277 -5.92597,7.320138 -3.25928,3.907367 -6.0342,7.282395 -6.16649,7.500061 -0.14288,0.235113 0.52825,0.906185 1.65337,1.653221 4.80736,3.19191 8.78527,8.75453 10.26099,14.34872 l 0.46701,1.77036 h -12.66806 -12.66807 z"
       style="fill:#b7e3dd;stroke-width:0.35277775" />
    <path
       id="path1969"
       d="M 286.91765,100.29759 V 83.893427 h 12.52361 c 6.88798,0 12.52361,0.09712 12.52361,0.215833 0,0.118708 -2.66669,3.41277 -5.92597,7.320138 -3.25928,3.907367 -6.03679,7.286588 -6.17225,7.509378 -0.15021,0.247066 0.43922,0.844952 1.51107,1.532754 2.44127,1.56656 6.67704,6.17234 8.05623,8.75996 1.25716,2.35867 2.53092,5.79101 2.53092,6.81994 0,0.6197 -0.5897,0.65033 -12.52361,0.65033 h -12.52361 z"
       style="fill:#f4b4cc;stroke-width:0.35277775" />
    <path
       id="path1967"
       d="M 286.91765,100.29759 V 83.893427 h 12.52361 c 6.88798,0 12.52361,0.08138 12.52361,0.180848 0,0.09947 -2.66603,3.393528 -5.92451,7.320138 -3.25848,3.926609 -6.03599,7.321573 -6.17224,7.544363 -0.15149,0.247695 0.43502,0.843202 1.5096,1.532754 2.44127,1.56656 6.67704,6.17234 8.05623,8.75996 1.25716,2.35867 2.53092,5.79101 2.53092,6.81994 0,0.6197 -0.5897,0.65033 -12.52361,0.65033 h -12.52361 z"
       style="fill:#f2a9c4;stroke-width:0.35277775" />
    <path
       id="path1965"
       d="M 286.91765,100.29759 V 83.893427 h 12.52361 c 6.88798,0 12.52361,0.08512 12.52361,0.189166 0,0.104041 -2.77813,3.511416 -6.17361,7.571944 -3.39549,4.060528 -6.17361,7.451353 -6.17361,7.535168 0,0.08382 0.79142,0.660243 1.75871,1.280955 2.44246,1.56732 6.67809,6.17263 8.05759,8.76083 1.25716,2.35867 2.53092,5.79101 2.53092,6.81994 0,0.6197 -0.5897,0.65033 -12.52361,0.65033 h -12.52361 z"
       style="fill:#a5d2ca;stroke-width:0.35277775" />
    <path
       id="path1963"
       d="M 286.91765,100.29759 V 83.893427 h 12.52361 c 6.88798,0 12.52361,0.08512 12.52361,0.189166 0,0.104041 -2.77813,3.511416 -6.17361,7.571944 -3.39549,4.060528 -6.17361,7.441515 -6.17361,7.513306 0,0.07179 0.87029,0.729922 1.93398,1.462517 4.21228,2.90111 8.06775,7.95347 9.70852,12.72244 1.26932,3.68935 2.47063,3.34896 -11.81889,3.34896 h -12.52361 z"
       style="fill:#f095b7;stroke-width:0.35277775" />
    <path
       id="path1961"
       d="M 286.91765,100.29759 V 83.893427 h 12.54443 c 9.94057,0 12.48986,0.09153 12.28152,0.440972 -0.14459,0.242535 -2.93209,3.654309 -6.19443,7.58172 -3.26234,3.927411 -5.93152,7.195086 -5.93152,7.2615 0,0.06641 0.87029,0.720146 1.93398,1.452741 4.21228,2.90111 8.06775,7.95347 9.70852,12.72244 1.26932,3.68935 2.47063,3.34896 -11.81889,3.34896 h -12.52361 z"
       style="fill:#8fd4cc;stroke-width:0.35277775" />
    <path
       id="path1959"
       d="M 286.91765,100.29759 V 83.893427 h 12.54443 c 9.94057,0 12.48986,0.09153 12.28152,0.440972 -0.14459,0.242535 -2.93209,3.654309 -6.19443,7.58172 -3.26234,3.927411 -5.93152,7.200378 -5.93152,7.273258 0,0.07288 0.67457,0.578926 1.49906,1.124543 5.00526,3.31232 9.74886,10.00184 10.68268,15.06492 l 0.244,1.32292 h -12.56287 -12.56287 z"
       style="fill:#ef8ab0;stroke-width:0.35277775" />
    <path
       id="path1957"
       d="M 286.91765,100.29759 V 83.893427 h 12.54443 c 9.94491,0 12.48826,0.09138 12.27339,0.440972 -0.14907,0.242535 -2.93656,3.650365 -6.19443,7.572955 -3.25787,3.922591 -5.92339,7.195558 -5.92339,7.273259 0,0.0777 0.67457,0.58769 1.49906,1.133307 5.00526,3.31232 9.74886,10.00184 10.68268,15.06492 l 0.244,1.32292 h -12.56287 -12.56287 z"
       style="fill:#ed7ea9;stroke-width:0.35277775" />
    <path
       id="path1955"
       d="M 286.91765,100.29759 V 83.893427 h 12.54443 c 9.94354,0 12.48877,0.09143 12.27597,0.440972 -0.14766,0.242535 -2.93515,3.63791 -6.19443,7.545277 -3.25929,3.907368 -5.92597,7.180334 -5.92597,7.273259 0,0.09292 0.67457,0.615368 1.49906,1.160985 5.00526,3.31232 9.74886,10.00184 10.68268,15.06492 l 0.244,1.32292 h -12.56287 -12.56287 z"
       style="fill:#8ec7bd;stroke-width:0.35277775" />
    <path
       id="path1953"
       d="M 286.91765,100.29759 V 83.893427 h 12.54443 c 9.94354,0 12.48877,0.09143 12.27597,0.440972 -0.14766,0.242535 -2.93515,3.63791 -6.19443,7.545277 -3.25929,3.907368 -5.92597,7.195515 -5.92597,7.306993 0,0.111479 0.91281,0.823961 2.02847,1.583301 4.83384,3.29 9.20659,9.5849 10.14948,14.61096 l 0.24779,1.32083 h -12.56287 -12.56287 z"
       style="fill:#ec71a1;stroke-width:0.35277775" />
    <path
       id="path1951"
       d="M 286.91765,100.29759 V 83.893427 h 12.5668 c 11.91719,0 12.54184,0.03191 12.08384,0.617361 -0.26564,0.339548 -3.0632,3.739454 -6.21681,7.555346 -3.15361,3.815893 -5.73383,7.024664 -5.73383,7.130605 0,0.10594 0.91281,0.813891 2.02847,1.573231 4.83384,3.29 9.20659,9.5849 10.14948,14.61096 l 0.24779,1.32083 h -12.56287 -12.56287 z"
       style="fill:#eb679b;stroke-width:0.35277775" />
    <path
       id="path1949"
       d="M 286.91765,100.29759 V 83.893427 h 12.54361 c 12.0383,0 12.52504,0.02572 12.08264,0.638383 -0.25354,0.35111 -3.00098,3.694805 -6.10542,7.430433 -3.10445,3.735627 -5.69331,6.928705 -5.75304,7.095729 -0.0597,0.167024 0.8134,0.931189 1.94028,1.698148 4.85434,3.30387 9.22524,9.58945 10.16988,14.62481 l 0.24779,1.32083 h -12.56287 -12.56287 z"
       style="fill:#61c6bb;stroke-width:0.35277775" />
    <path
       id="path1947"
       d="M 286.91765,100.29759 V 83.893427 h 12.54361 c 12.0383,0 12.52504,0.02572 12.08264,0.638383 -0.25354,0.35111 -3.00098,3.694805 -6.10542,7.430433 -3.10445,3.735627 -5.69331,6.928705 -5.75304,7.095729 -0.0597,0.167024 0.8302,0.941205 1.97762,1.720398 2.82254,1.91675 6.06726,5.53827 7.63494,8.52157 1.29066,2.45614 2.66687,6.03118 2.66687,6.92788 0,0.38783 -2.2753,0.47394 -12.52361,0.47394 h -12.52361 z"
       style="fill:#5cc5b9;stroke-width:0.35277775" />
    <path
       id="path1945"
       d="M 286.91765,100.29759 V 83.893427 h 12.54361 c 12.0383,0 12.52504,0.02572 12.08264,0.638383 -0.25354,0.35111 -3.00098,3.694805 -6.10542,7.430433 -3.10445,3.735627 -5.69331,6.928705 -5.75304,7.095729 -0.0597,0.167024 0.83424,0.943948 1.98659,1.726488 4.2292,2.872 8.26257,8.43692 9.72927,13.42369 0.30996,1.05386 0.56357,2.04605 0.56357,2.20486 0,0.15881 -5.63563,0.28875 -12.52361,0.28875 h -12.52361 z"
       style="fill:#e95391;stroke-width:0.35277775" />
    <path
       id="path1943"
       d="M 286.91765,100.38579 V 84.069816 h 12.47984 12.47984 l -0.57359,0.729081 c -0.31548,0.400995 -3.03422,3.701899 -6.04165,7.335342 -3.00743,3.633444 -5.51692,6.74602 -5.57665,6.916837 -0.0597,0.170817 0.83424,0.950844 1.98659,1.733384 4.2292,2.872 8.26257,8.43692 9.72927,13.42369 0.30996,1.05386 0.56357,2.04605 0.56357,2.20486 0,0.15881 -5.63563,0.28875 -12.52361,0.28875 h -12.52361 z"
       style="fill:#f1488f;stroke-width:0.35277775" />
    <path
       id="path1941"
       d="M 286.91765,100.38579 V 84.069816 h 12.47984 12.47984 l -0.57359,0.729081 c -0.31548,0.400995 -3.03422,3.701899 -6.04165,7.335342 -3.00743,3.633444 -5.51692,6.74602 -5.57665,6.916837 -0.0597,0.170817 0.83424,0.950844 1.98659,1.733384 4.2292,2.872 8.26257,8.43692 9.72927,13.42369 0.30996,1.05386 0.56357,2.04605 0.56357,2.20486 0,0.15881 -5.63563,0.28875 -12.52361,0.28875 h -12.52361 z m 5.5489,-4.005502 c -0.11723,-0.117224 -0.4215,-0.129758 -0.67616,-0.02785 -0.28142,0.112615 -0.19783,0.196209 0.21314,0.213136 0.37188,0.01532 0.58024,-0.06806 0.46302,-0.185286 z m -2.4621,-0.392319 c -0.53357,-0.08083 -1.4067,-0.08083 -1.94028,0 -0.53357,0.08083 -0.097,0.146964 0.97014,0.146964 1.06716,0 1.50372,-0.06613 0.97014,-0.146964 z"
       style="fill:#60b4a7;stroke-width:0.35277775" />
    <path
       id="path1939"
       d="M 286.91765,100.38579 V 84.069816 h 12.4834 12.4834 l -0.98499,1.234722 c -0.54175,0.679097 -3.29766,4.012846 -6.12425,7.408332 -2.82659,3.395486 -5.14337,6.335947 -5.14841,6.534359 -0.005,0.198413 0.58616,0.67328 1.31376,1.055261 2.40486,1.26252 6.83623,6.08029 8.43944,9.17535 1.25332,2.41956 2.58487,5.99209 2.58487,6.93517 0,0.15881 -5.63563,0.28875 -12.52361,0.28875 h -12.52361 z m 5.5489,-4.005502 c -0.11723,-0.117224 -0.4215,-0.129758 -0.67616,-0.02785 -0.28142,0.112615 -0.19783,0.196209 0.21314,0.213136 0.37188,0.01532 0.58024,-0.06806 0.46302,-0.185286 z m -2.4621,-0.392319 c -0.53357,-0.08083 -1.4067,-0.08083 -1.94028,0 -0.53357,0.08083 -0.097,0.146964 0.97014,0.146964 1.06716,0 1.50372,-0.06613 0.97014,-0.146964 z"
       style="fill:#e8468a;stroke-width:0.35277775" />
    <path
       id="path1937"
       d="m 286.99694,100.38579 c 0.0436,-8.973788 0.12674,-13.577537 0.18472,-10.230558 l 0.10543,6.085415 1.84375,0.0052 c 2.31368,0.0065 5.58887,0.768099 8.12284,1.888738 l 1.95113,0.862884 1.4658,-1.643002 1.46581,-1.643 -1.25939,1.623833 c -0.69266,0.893108 -1.25938,1.76982 -1.25938,1.948249 0,0.178428 0.59531,0.636946 1.32291,1.018931 2.40486,1.26252 6.83623,6.08029 8.43944,9.17535 1.25332,2.41956 2.58487,5.99209 2.58487,6.93517 0,0.15881 -5.63563,0.28875 -12.52361,0.28875 h -12.52361 z m 15.79571,-5.732642 c 0.45569,-0.48507 0.90791,-0.881945 1.00493,-0.881945 0.097,0 -0.19646,0.396875 -0.65216,0.881945 -0.4557,0.485069 -0.90792,0.881944 -1.00493,0.881944 -0.097,0 0.19646,-0.396875 0.65216,-0.881944 z m 1.76388,-2.116667 c 0.4557,-0.485069 0.90792,-0.881944 1.00494,-0.881944 0.097,0 -0.19646,0.396875 -0.65216,0.881944 -0.4557,0.48507 -0.90792,0.881945 -1.00493,0.881945 -0.097,0 0.19646,-0.396875 0.65215,-0.881945 z m 1.76389,-2.116666 c 0.4557,-0.48507 0.90792,-0.881944 1.00494,-0.881944 0.097,0 -0.19646,0.396874 -0.65216,0.881944 -0.4557,0.485069 -0.90792,0.881944 -1.00493,0.881944 -0.097,0 0.19645,-0.396875 0.65215,-0.881944 z m 1.76389,-2.116667 c 0.4557,-0.485069 0.90792,-0.881944 1.00493,-0.881944 0.097,0 -0.19645,0.396875 -0.65215,0.881944 -0.4557,0.48507 -0.90792,0.881945 -1.00493,0.881945 -0.097,0 0.19645,-0.396875 0.65215,-0.881945 z m 1.76389,-2.116666 c 0.4557,-0.485069 0.90792,-0.881944 1.00493,-0.881944 0.097,0 -0.19645,0.396875 -0.65215,0.881944 -0.4557,0.485069 -0.90792,0.881944 -1.00493,0.881944 -0.097,0 0.19645,-0.396875 0.65215,-0.881944 z"
       style="fill:#bf6b8c;stroke-width:0.35277775" />
    <path
       id="path1935"
       d="m 286.99694,100.38579 c 0.0436,-8.973788 0.12674,-13.577537 0.18472,-10.230558 l 0.10543,6.085415 1.84375,0.0052 c 2.31368,0.0065 5.58887,0.768099 8.12284,1.888738 l 1.95113,0.862884 1.4706,-1.643002 1.4706,-1.643 -1.42135,1.789896 -1.42136,1.789896 2.25287,1.481181 c 4.30956,2.83337 8.3476,8.3441 9.84513,13.4357 0.30996,1.05386 0.56357,2.04605 0.56357,2.20486 0,0.15881 -5.63563,0.28875 -12.52361,0.28875 h -12.52361 z m 15.79571,-5.732642 c 0.45569,-0.48507 0.90791,-0.881945 1.00493,-0.881945 0.097,0 -0.19646,0.396875 -0.65216,0.881945 -0.4557,0.485069 -0.90792,0.881944 -1.00493,0.881944 -0.097,0 0.19646,-0.396875 0.65216,-0.881944 z m 1.76388,-2.116667 c 0.4557,-0.485069 0.90792,-0.881944 1.00494,-0.881944 0.097,0 -0.19646,0.396875 -0.65216,0.881944 -0.4557,0.48507 -0.90792,0.881945 -1.00493,0.881945 -0.097,0 0.19646,-0.396875 0.65215,-0.881945 z m 1.76389,-2.116666 c 0.4557,-0.48507 0.90792,-0.881944 1.00494,-0.881944 0.097,0 -0.19646,0.396874 -0.65216,0.881944 -0.4557,0.485069 -0.90792,0.881944 -1.00493,0.881944 -0.097,0 0.19645,-0.396875 0.65215,-0.881944 z m 1.76389,-2.116667 c 0.4557,-0.485069 0.90792,-0.881944 1.00493,-0.881944 0.097,0 -0.19645,0.396875 -0.65215,0.881944 -0.4557,0.48507 -0.90792,0.881945 -1.00493,0.881945 -0.097,0 0.19645,-0.396875 0.65215,-0.881945 z m 1.76389,-2.116666 c 0.4557,-0.485069 0.90792,-0.881944 1.00493,-0.881944 0.097,0 -0.19645,0.396875 -0.65215,0.881944 -0.4557,0.485069 -0.90792,0.881944 -1.00493,0.881944 -0.097,0 0.19645,-0.396875 0.65215,-0.881944 z"
       style="fill:#3dbdaf;stroke-width:0.35277775" />
    <path
       id="path1933"
       d="m 286.99694,100.38579 c 0.0436,-8.973788 0.12674,-13.577537 0.18472,-10.230558 l 0.10543,6.085415 1.84375,0.0052 c 2.31368,0.0065 5.58887,0.768099 8.12284,1.888738 l 1.95113,0.862884 1.4706,-1.643002 1.4706,-1.643 -1.42135,1.789896 -1.42136,1.789896 2.18565,1.445771 c 1.2021,0.79517 2.90001,2.21222 3.77314,3.14899 l 1.5875,1.70323 -1.67819,-1.57521 c -1.99668,-1.87415 -0.96914,-2.63872 -8.16202,6.07312 l -5.17003,6.26181 h 9.85697 c 7.55549,0 9.89852,-0.10296 10.03491,-0.44097 0.1063,-0.26344 0.18915,-0.19242 0.20579,0.17638 0.026,0.5769 -0.79309,0.61737 -12.49576,0.61737 h -12.52361 z m 24.29022,14.34629 c 0.0169,-0.41097 0.10052,-0.49456 0.21314,-0.21314 0.10191,0.25466 0.0894,0.55894 -0.0279,0.67616 -0.11723,0.11723 -0.20061,-0.0911 -0.18529,-0.46302 z m -0.86621,-2.45368 c -0.34042,-0.88713 -0.24,-1.11604 0.17587,-0.40088 0.20591,0.3541 0.30007,0.71814 0.20924,0.80897 -0.0908,0.0908 -0.26413,-0.0928 -0.38511,-0.40809 z m -3.43997,-6.07178 c -0.43881,-0.55953 -0.42633,-0.572 0.13319,-0.13319 0.58764,0.46085 0.77452,0.75055 0.48417,0.75055 -0.0733,0 -0.35107,-0.27781 -0.61736,-0.61736 z m -4.18833,-11.553472 c 0.45569,-0.48507 0.90791,-0.881945 1.00493,-0.881945 0.097,0 -0.19646,0.396875 -0.65216,0.881945 -0.4557,0.485069 -0.90792,0.881944 -1.00493,0.881944 -0.097,0 0.19646,-0.396875 0.65216,-0.881944 z m 1.76388,-2.116667 c 0.4557,-0.485069 0.90792,-0.881944 1.00494,-0.881944 0.097,0 -0.19646,0.396875 -0.65216,0.881944 -0.4557,0.48507 -0.90792,0.881945 -1.00493,0.881945 -0.097,0 0.19646,-0.396875 0.65215,-0.881945 z m 1.76389,-2.116666 c 0.4557,-0.48507 0.90792,-0.881944 1.00494,-0.881944 0.097,0 -0.19646,0.396874 -0.65216,0.881944 -0.4557,0.485069 -0.90792,0.881944 -1.00493,0.881944 -0.097,0 0.19645,-0.396875 0.65215,-0.881944 z m 1.76389,-2.116667 c 0.4557,-0.485069 0.90792,-0.881944 1.00493,-0.881944 0.097,0 -0.19645,0.396875 -0.65215,0.881944 -0.4557,0.48507 -0.90792,0.881945 -1.00493,0.881945 -0.097,0 0.19645,-0.396875 0.65215,-0.881945 z m 1.76389,-2.116666 c 0.4557,-0.485069 0.90792,-0.881944 1.00493,-0.881944 0.097,0 -0.19645,0.396875 -0.65215,0.881944 -0.4557,0.485069 -0.90792,0.881944 -1.00493,0.881944 -0.097,0 0.19645,-0.396875 0.65215,-0.881944 z"
       style="fill:#e73984;stroke-width:0.35277775" />
    <path
       id="path1931"
       d="m 286.99694,100.38579 c 0.0436,-8.973788 0.12674,-13.577537 0.18472,-10.230558 l 0.10543,6.085415 1.84375,0.0052 c 2.31098,0.0065 5.58822,0.767809 8.11391,1.884791 1.81135,0.801062 1.98564,0.819808 2.58676,0.278215 0.61832,-0.557084 0.62024,-0.551241 0.0471,0.143582 -0.58079,0.704132 -0.53625,0.764767 1.59926,2.177335 1.20818,0.79917 2.91106,2.21948 3.78419,3.15625 l 1.5875,1.70323 -1.67819,-1.57521 c -1.99668,-1.87415 -0.96914,-2.63872 -8.16202,6.07312 l -5.17003,6.26181 h 9.85697 c 7.55549,0 9.89852,-0.10296 10.03491,-0.44097 0.1063,-0.26344 0.18915,-0.19242 0.20579,0.17638 0.026,0.5769 -0.79309,0.61737 -12.49576,0.61737 h -12.52361 z m 24.29022,14.34629 c 0.0169,-0.41097 0.10052,-0.49456 0.21314,-0.21314 0.10191,0.25466 0.0894,0.55894 -0.0279,0.67616 -0.11723,0.11723 -0.20061,-0.0911 -0.18529,-0.46302 z m -0.86621,-2.45368 c -0.34042,-0.88713 -0.24,-1.11604 0.17587,-0.40088 0.20591,0.3541 0.30007,0.71814 0.20924,0.80897 -0.0908,0.0908 -0.26413,-0.0928 -0.38511,-0.40809 z m -3.43997,-6.07178 c -0.43881,-0.55953 -0.42633,-0.572 0.13319,-0.13319 0.58764,0.46085 0.77452,0.75055 0.48417,0.75055 -0.0733,0 -0.35107,-0.27781 -0.61736,-0.61736 z m -5.95222,-9.39361 c 0,-0.07326 0.27781,-0.351069 0.61736,-0.617361 0.55952,-0.43881 0.572,-0.426332 0.13319,0.133193 -0.46086,0.587639 -0.75055,0.774516 -0.75055,0.484168 z m 1.76389,-2.116667 c 0,-0.07326 0.27781,-0.351068 0.61736,-0.617361 0.55952,-0.43881 0.572,-0.426332 0.13319,0.133193 -0.46086,0.587639 -0.75055,0.774517 -0.75055,0.484168 z m 1.76388,-2.116666 c 0,-0.07326 0.27782,-0.351069 0.61737,-0.617361 0.55952,-0.43881 0.572,-0.426332 0.13319,0.133193 -0.46086,0.587639 -0.75056,0.774516 -0.75056,0.484168 z m 1.76389,-2.116666 c 0,-0.07326 0.27782,-0.351069 0.61736,-0.617361 0.55953,-0.43881 0.57201,-0.426333 0.1332,0.133193 -0.46086,0.587638 -0.75056,0.774516 -0.75056,0.484168 z m 1.76389,-2.116667 c 0,-0.07326 0.27781,-0.351069 0.61736,-0.617361 0.55953,-0.43881 0.57201,-0.426332 0.1332,0.133193 -0.46086,0.587639 -0.75056,0.774516 -0.75056,0.484168 z"
       style="fill:#e73382;stroke-width:0.35277775" />
    <path
       id="path1929"
       d="M 286.91765,106.42148 V 96.141194 l 2.91041,0.182366 c 1.78249,0.111691 3.91063,0.530547 5.49129,1.080786 3.05059,1.061936 7.71494,4.105334 9.94274,6.487444 l 1.5875,1.69747 -1.67819,-1.57521 c -1.99668,-1.87415 -0.96914,-2.63872 -8.16202,6.07312 l -5.17003,6.26181 h 9.85697 c 7.55549,0 9.89852,-0.10296 10.03491,-0.44097 0.1063,-0.26344 0.18915,-0.19242 0.20579,0.17638 0.026,0.5769 -0.79309,0.61737 -12.49576,0.61737 h -12.52361 z m 24.36951,8.3106 c 0.0169,-0.41097 0.10052,-0.49456 0.21314,-0.21314 0.10191,0.25466 0.0894,0.55894 -0.0279,0.67616 -0.11723,0.11723 -0.20061,-0.0911 -0.18529,-0.46302 z m -0.86621,-2.45368 c -0.34042,-0.88713 -0.24,-1.11604 0.17587,-0.40088 0.20591,0.3541 0.30007,0.71814 0.20924,0.80897 -0.0908,0.0908 -0.26413,-0.0928 -0.38511,-0.40809 z m -3.43997,-6.07178 c -0.43881,-0.55953 -0.42633,-0.572 0.13319,-0.13319 0.58764,0.46085 0.77452,0.75055 0.48417,0.75055 -0.0733,0 -0.35107,-0.27781 -0.61736,-0.61736 z"
       style="fill:#d64380;stroke-width:0.35277775" />
    <path
       id="path1927"
       d="M 286.91765,106.42079 V 96.139828 l 2.73402,0.19487 c 5.55058,0.39562 11.69449,3.369924 15.61042,7.557092 l 1.5875,1.69747 -1.67819,-1.57521 c -1.99668,-1.87415 -0.96914,-2.63872 -8.16202,6.07312 l -5.17003,6.26181 h 9.85697 c 7.55549,0 9.89852,-0.10296 10.03491,-0.44097 0.1063,-0.26344 0.18915,-0.19242 0.20579,0.17638 0.026,0.5769 -0.79309,0.61737 -12.49576,0.61737 h -12.52361 z m 24.36951,8.31129 c 0.0169,-0.41097 0.10052,-0.49456 0.21314,-0.21314 0.10191,0.25466 0.0894,0.55894 -0.0279,0.67616 -0.11723,0.11723 -0.20061,-0.0911 -0.18529,-0.46302 z m -0.86621,-2.45368 c -0.34042,-0.88713 -0.24,-1.11604 0.17587,-0.40088 0.20591,0.3541 0.30007,0.71814 0.20924,0.80897 -0.0908,0.0908 -0.26413,-0.0928 -0.38511,-0.40809 z m -3.43997,-6.07178 c -0.43881,-0.55953 -0.42633,-0.572 0.13319,-0.13319 0.58764,0.46085 0.77452,0.75055 0.48417,0.75055 -0.0733,0 -0.35107,-0.27781 -0.61736,-0.61736 z"
       style="fill:#2ab9aa;stroke-width:0.35277775" />
    <path
       id="path1925"
       d="M 286.91765,106.42079 V 96.139828 l 2.73402,0.19487 c 4.71434,0.336016 8.20382,1.770903 13.62415,5.602292 0.17763,0.12556 -2.35873,3.48873 -5.63636,7.47371 l -5.95931,7.24542 -2.38125,0.0228 -2.38125,0.0228 z"
       style="fill:#37ab9a;stroke-width:0.35277775" />
    <path
       id="path1923"
       d="M 286.91765,106.42079 V 96.139828 l 2.73402,0.19487 c 3.87112,0.275916 7.68786,1.600657 11.01278,3.822392 1.71652,1.14699 2.6932,2.01455 2.52265,2.24078 -0.15307,0.20304 -2.86641,3.50448 -6.02966,7.33653 l -5.75137,6.96736 h -2.24421 -2.24421 z m 1.23472,7.10597 c 0.35118,-0.38806 0.55914,-0.70556 0.46213,-0.70556 -0.097,0 -0.46372,0.3175 -0.81491,0.70556 -0.35118,0.38805 -0.55914,0.70555 -0.46213,0.70555 0.097,0 0.46372,-0.3175 0.81491,-0.70555 z m 1.76389,-2.11667 c 0.35118,-0.38806 0.55914,-0.70556 0.46213,-0.70556 -0.097,0 -0.46373,0.3175 -0.81491,0.70556 -0.35119,0.38806 -0.55914,0.70556 -0.46213,0.70556 0.097,0 0.46372,-0.3175 0.81491,-0.70556 z m 1.76389,-2.11667 c 0.35118,-0.38805 0.55914,-0.70555 0.46213,-0.70555 -0.097,0 -0.46373,0.3175 -0.81491,0.70555 -0.35119,0.38806 -0.55915,0.70556 -0.46213,0.70556 0.097,0 0.46372,-0.3175 0.81491,-0.70556 z m 1.76388,-2.11666 c 0.35119,-0.38806 0.55915,-0.70556 0.46214,-0.70556 -0.097,0 -0.46373,0.3175 -0.81491,0.70556 -0.35119,0.38805 -0.55915,0.70555 -0.46213,0.70555 0.097,0 0.46372,-0.3175 0.8149,-0.70555 z m 1.6325,-2.02847 c 0.43881,-0.55953 0.42634,-0.57201 -0.13319,-0.1332 -0.33955,0.26629 -0.61736,0.54411 -0.61736,0.61736 0,0.29035 0.2897,0.10347 0.75055,-0.48416 z m 1.76389,-2.11667 c 0.43881,-0.55953 0.42633,-0.572 -0.13319,-0.13319 -0.58764,0.46085 -0.77452,0.75055 -0.48417,0.75055 0.0733,0 0.35107,-0.27781 0.61736,-0.61736 z m 1.76389,-2.11667 c 0.43881,-0.55952 0.42633,-0.572 -0.13319,-0.13319 -0.58764,0.46086 -0.77452,0.75055 -0.48417,0.75055 0.0733,0 0.35107,-0.27781 0.61736,-0.61736 z"
       style="fill:#c03e74;stroke-width:0.35277775" />
    <path
       id="path1921"
       d="M 286.91765,106.41891 V 96.136072 l 2.81326,0.216943 c 1.54729,0.119319 4.04761,0.62986 5.55625,1.134536 3.04757,1.019483 8.34899,4.314659 7.89994,4.910319 -0.15307,0.20304 -2.86641,3.50448 -6.02966,7.33653 l -5.75137,6.96736 h -2.24421 -2.24421 z m 1.23472,7.10785 c 0.35118,-0.38806 0.55914,-0.70556 0.46213,-0.70556 -0.097,0 -0.46372,0.3175 -0.81491,0.70556 -0.35118,0.38805 -0.55914,0.70555 -0.46213,0.70555 0.097,0 0.46372,-0.3175 0.81491,-0.70555 z m 1.76389,-2.11667 c 0.35118,-0.38806 0.55914,-0.70556 0.46213,-0.70556 -0.097,0 -0.46373,0.3175 -0.81491,0.70556 -0.35119,0.38806 -0.55914,0.70556 -0.46213,0.70556 0.097,0 0.46372,-0.3175 0.81491,-0.70556 z m 1.76389,-2.11667 c 0.35118,-0.38805 0.55914,-0.70555 0.46213,-0.70555 -0.097,0 -0.46373,0.3175 -0.81491,0.70555 -0.35119,0.38806 -0.55915,0.70556 -0.46213,0.70556 0.097,0 0.46372,-0.3175 0.81491,-0.70556 z m 1.76388,-2.11666 c 0.35119,-0.38806 0.55915,-0.70556 0.46214,-0.70556 -0.097,0 -0.46373,0.3175 -0.81491,0.70556 -0.35119,0.38805 -0.55915,0.70555 -0.46213,0.70555 0.097,0 0.46372,-0.3175 0.8149,-0.70555 z m 1.6325,-2.02847 c 0.43881,-0.55953 0.42634,-0.57201 -0.13319,-0.1332 -0.33955,0.26629 -0.61736,0.54411 -0.61736,0.61736 0,0.29035 0.2897,0.10347 0.75055,-0.48416 z m 1.76389,-2.11667 c 0.43881,-0.55953 0.42633,-0.572 -0.13319,-0.13319 -0.58764,0.46085 -0.77452,0.75055 -0.48417,0.75055 0.0733,0 0.35107,-0.27781 0.61736,-0.61736 z m 1.76389,-2.11667 c 0.43881,-0.55952 0.42633,-0.572 -0.13319,-0.13319 -0.58764,0.46086 -0.77452,0.75055 -0.48417,0.75055 0.0733,0 0.35107,-0.27781 0.61736,-0.61736 z"
       style="fill:#36a494;stroke-width:0.35277775" />
    <path
       id="path1919"
       d="M 286.91765,106.41891 V 96.136072 l 2.81326,0.216943 c 3.958,0.305219 10.67629,2.645768 9.66127,3.365834 -0.17519,0.124281 -2.97426,3.424811 -6.22014,7.334501 -4.79183,5.7718 -5.90162,7.31102 -5.90162,8.18525 0,1.07222 0.009,1.07723 2.20487,1.20196 l 2.20486,0.12525 -2.38125,0.068 -2.38125,0.068 z m 15.47722,-4.7984 c -0.43881,-0.55953 -0.42633,-0.57201 0.13319,-0.1332 0.58764,0.46086 0.77452,0.75056 0.48417,0.75056 -0.0733,0 -0.35107,-0.27781 -0.61736,-0.61736 z"
       style="fill:#b83c6f;stroke-width:0.35277775" />
    <path
       id="path1917"
       d="M 286.91765,106.4712 V 96.240647 l 1.67569,0.0061 c 0.92163,0.0034 2.77304,0.238598 4.11425,0.522731 2.73609,0.579638 7.25675,2.550999 6.71716,2.92921 -0.1931,0.135354 -3.00683,3.444932 -6.25271,7.354632 -4.79183,5.7718 -5.90162,7.31102 -5.90162,8.18525 0,1.07222 0.009,1.07723 2.20487,1.20196 l 2.20486,0.12525 -2.38125,0.068 -2.38125,0.068 z m 15.47722,-4.85069 c -0.43881,-0.55953 -0.42633,-0.57201 0.13319,-0.1332 0.58764,0.46086 0.77452,0.75056 0.48417,0.75056 -0.0733,0 -0.35107,-0.27781 -0.61736,-0.61736 z"
       style="fill:#349789;stroke-width:0.35277775" />
    <path
       id="path1915"
       d="m 286.9705,115.55523 c 0.0481,-1.04322 0.066,-1.06058 0.19826,-0.19266 0.13742,0.90156 0.26511,0.96071 2.32839,1.07856 l 2.183,0.12468 -2.38125,0.068 -2.38125,0.068 z m -0.0529,-10.24036 v -9.074223 l 1.67569,0.0061 c 0.92163,0.0034 2.77304,0.238598 4.11425,0.522731 2.74689,0.581927 7.25964,2.55317 6.70582,2.92921 -0.19935,0.135356 -2.79795,3.182972 -5.77466,6.772482 -2.97671,3.58951 -5.70671,6.83948 -6.06665,7.22215 -0.63849,0.67878 -0.65445,0.47439 -0.65445,-8.37848 z m 15.47722,-3.69436 c -0.43881,-0.55953 -0.42633,-0.57201 0.13319,-0.1332 0.58764,0.46086 0.77452,0.75056 0.48417,0.75056 -0.0733,0 -0.35107,-0.27781 -0.61736,-0.61736 z"
       style="fill:#229f8e;stroke-width:0.35277775" />
    <path
       id="path1913"
       d="m 286.91765,105.31207 v -9.071423 l 1.67569,0.0061 c 0.92163,0.0034 2.74981,0.233736 4.06261,0.511927 2.47254,0.523946 6.60892,2.196206 6.60892,2.67186 0,0.238003 -10.54349,13.084206 -11.84863,14.436376 -0.43007,0.44558 -0.49859,-0.73008 -0.49859,-8.55487 z"
       style="fill:#a73966;stroke-width:0.35277775" />
    <path
       id="path1911"
       d="m 286.91765,105.31207 v -9.071423 l 1.4993,0.0061 c 3.10949,0.0127 10.84792,2.277828 10.84792,3.175305 0,0.243916 -10.51629,13.064508 -11.84863,14.444858 -0.43007,0.44558 -0.49859,-0.73008 -0.49859,-8.55487 z"
       style="fill:#338f82;stroke-width:0.35277775" />
    <path
       id="path1909"
       d="m 286.91765,105.30704 v -9.066393 l 1.4993,0.0061 c 0.82462,0.0034 2.61056,0.23824 3.96875,0.521936 2.50172,0.522553 6.87917,2.180338 6.87917,2.605212 0,0.196294 -11.0537,13.684505 -12.01755,14.664355 -0.20452,0.20791 -0.32967,-3.10676 -0.32967,-8.73124 z"
       style="fill:#8e3359;stroke-width:0.35277775" />
    <path
       id="path1907"
       d="m 286.91765,105.25838 v -9.115051 l 2.62497,0.237869 c 1.44374,0.130828 3.4678,0.485635 4.49792,0.78846 2.34465,0.68926 5.22433,1.906329 5.22433,2.208011 0,0.193728 -11.06483,13.692091 -12.01755,14.660611 -0.20452,0.20791 -0.32967,-3.12526 -0.32967,-8.7799 z"
       style="fill:#2f7a6f;stroke-width:0.35277775" />
    <path
       id="path1905"
       d="m 286.92938,105.27601 -0.0117,-9.132681 2.62497,0.237869 c 3.70717,0.335935 9.91419,2.309266 9.6471,3.066998 -0.0784,0.222488 -7.98147,9.888814 -11.64298,14.240694 -0.5753,0.68378 -0.60621,0.26263 -0.61736,-8.41288 z"
       style="fill:#2d6a61;stroke-width:0.35277775" />
    <path
       id="path1903"
       d="m 286.91765,105.2682 v -9.124871 l 2.62497,0.237869 c 1.44374,0.130828 3.4678,0.485635 4.49792,0.78846 2.3311,0.685278 5.22633,1.906568 5.21832,2.201237 -0.003,0.121628 -2.32576,2.999265 -5.16101,6.394755 -2.83524,3.39548 -5.61066,6.72571 -6.1676,7.40051 l -1.0126,1.22691 z"
       style="fill:#772f4c;stroke-width:0.35277775" />
    <path
       id="path1901"
       d="m 286.91765,105.27128 v -9.121798 l 2.48214,0.244584 c 1.36518,0.134521 3.36366,0.474192 4.44109,0.754825 2.23143,0.581215 5.42695,1.891752 5.41798,2.222004 -0.003,0.121628 -2.32576,2.999265 -5.16101,6.394755 -2.83524,3.39548 -5.61066,6.72571 -6.1676,7.40051 l -1.0126,1.22691 z"
       style="fill:#702d48;stroke-width:0.35277775" />
    <path
       id="path1899"
       d="m 286.91765,105.27128 v -9.121798 l 2.40548,0.237031 c 3.56896,0.351676 9.95491,2.268231 9.93573,2.981912 -0.003,0.122986 -2.32576,3.001735 -5.16101,6.397225 -2.83524,3.39548 -5.61066,6.72571 -6.1676,7.40051 l -1.0126,1.22691 z"
       style="fill:#2b6058;stroke-width:0.35277775" />
    <path
       id="path1897"
       d="m 286.92887,105.27596 -0.0112,-9.132746 2.38125,0.24121 c 2.85234,0.288931 5.79418,1.016354 8.08968,2.000317 0.92699,0.397357 1.74579,0.782811 1.81954,0.856565 0.0738,0.07376 -2.46299,3.269204 -5.63721,7.101004 -3.17423,3.8318 -5.96471,7.21429 -6.20107,7.51665 -0.34099,0.43619 -0.43207,-1.3367 -0.44097,-8.583 z"
       style="fill:#5f2b3f;stroke-width:0.35277775" />
    <path
       id="path1895"
       d="m 286.92887,105.28358 -0.0112,-9.125128 2.38125,0.243172 c 2.89431,0.295565 5.83391,1.016184 8.08968,1.983117 0.92699,0.397357 1.74579,0.782811 1.81954,0.856565 0.0738,0.07376 -2.46299,3.269204 -5.63721,7.101004 -3.17423,3.8318 -5.96471,7.21429 -6.20107,7.51665 -0.34099,0.43619 -0.43207,-1.33507 -0.44097,-8.57538 z"
       style="fill:#29524b;stroke-width:0.35277775" />
    <path
       id="path1893"
       d="m 286.91765,105.22931 v -9.070858 l 2.38125,0.243172 c 2.89431,0.295565 5.83391,1.016184 8.08968,1.983117 0.92699,0.397357 1.74771,0.78474 1.82383,0.860853 0.0761,0.07611 -2.65907,3.494526 -6.07819,7.596486 l -6.21657,7.4581 z"
       style="fill:#274540;stroke-width:0.35277775" />
    <path
       id="path1891"
       d="m 286.91765,105.23436 v -9.075908 l 2.38125,0.243172 c 2.89431,0.295565 5.83391,1.016184 8.08968,1.983117 0.92699,0.397357 1.74057,0.77759 1.80794,0.844965 0.0674,0.06737 -2.66781,3.488064 -6.07819,7.601524 l -6.20068,7.47903 z"
       style="fill:#492532;stroke-width:0.35277775" />
    <path
       id="path1889"
       d="m 286.91765,105.27546 c 0,-7.592237 0.0804,-9.034813 0.50364,-9.034813 1.8972,0 6.42199,0.927188 8.8993,1.823583 1.61935,0.585951 2.94428,1.130148 2.94428,1.209327 0,0.07918 -2.77813,3.494833 -6.17361,7.590333 l -6.17361,7.44637 z"
       style="fill:#253734;stroke-width:0.35277775" />
    <path
       id="path1887"
       d="m 286.91765,105.24284 c 0,-7.563976 0.0805,-9.002193 0.50364,-9.002193 1.8972,0 6.42199,0.927188 8.8993,1.823583 1.61935,0.585951 2.94428,1.131344 2.94428,1.211983 0,0.08064 -2.77813,3.481617 -6.17361,7.557717 l -6.17361,7.4111 z"
       style="fill:#312328;stroke-width:0.35277775" />
    <path
       id="path1885"
       d="m 286.91765,105.22532 v -9.019708 l 2.20486,0.231152 c 3.16675,0.331996 5.03376,0.773401 7.65693,1.810284 1.26997,0.501992 2.36149,0.956587 2.42559,1.010211 0.0641,0.05362 -2.67434,3.447811 -6.08542,7.542641 l -6.20196,7.44513 z"
       style="fill:#3b1825;stroke-width:0.35277775" />
    <path
       id="path1883"
       d="m 286.91765,105.24603 v -9.040418 l 2.20486,0.223455 c 3.00113,0.304155 6.06531,1.081923 8.31105,2.109559 l 1.87286,0.857009 -5.37703,6.448195 c -2.95737,3.54651 -5.74484,6.89695 -6.19439,7.44541 l -0.81735,0.99721 z"
       style="fill:#1f2d2a;stroke-width:0.35277775" />
    <path
       id="path1881"
       d="m 286.91765,105.23565 v -9.030038 l 2.20486,0.223455 c 4.00308,0.405699 9.78958,2.205003 9.78958,3.044056 0,0.177852 -2.69875,3.578937 -5.99722,7.557967 l -5.99722,7.2346 z"
       style="fill:#262323;stroke-width:0.35277775" />
    <path
       id="path1879"
       d="m 286.91765,105.24241 v -9.036798 l 2.20486,0.223455 c 4.02148,0.407564 9.78958,2.205657 9.78958,3.05171 0,0.182062 -1.55844,2.186573 -3.4632,4.454473 -1.90476,2.2679 -4.60351,5.52307 -5.99722,7.23371 l -2.53402,3.11026 z"
       style="fill:#221e1f;stroke-width:0.35277775" />
    <path
       id="path1877"
       d="m 286.91765,105.28405 v -9.043403 l 0.79375,0.04092 c 0.59731,0.03079 0.64096,0.08085 0.17639,0.202256 -0.566,0.147909 -0.61737,0.854882 -0.61737,8.496297 0,4.58424 0.13414,8.18416 0.29807,7.99983 0.16394,-0.18433 2.72912,-3.25573 5.70039,-6.82535 4.96265,-5.96199 5.35051,-6.528102 4.76566,-6.955756 -0.9535,-0.697217 -4.68636,-1.865333 -7.07081,-2.212652 -1.5459,-0.225177 -1.77377,-0.318171 -0.85701,-0.349751 2.25422,-0.07765 8.80537,2.033398 8.80537,2.837452 0,0.178279 -2.34587,3.135297 -5.21304,6.571147 -2.86717,3.43584 -5.56592,6.70497 -5.99722,7.26471 l -0.78418,1.01771 z"
       style="fill:#1f1b1c;stroke-width:0.35277775" />
    <path
       id="path1875"
       d="m 286.91765,105.29528 v -9.054633 l 0.79375,0.04092 c 0.59731,0.03079 0.64096,0.08085 0.17639,0.202256 -0.56592,0.14789 -0.61737,0.853579 -0.61737,8.468937 0,7.85895 0.0333,8.28179 0.61737,7.82952 0.48195,-0.37323 0.46343,-0.28598 -0.0844,0.39778 -0.38599,0.48172 -0.74318,0.94201 -0.79375,1.02285 -0.0506,0.0808 -0.0919,-3.92759 -0.0919,-8.90763 z m 2.11666,5.93842 c 0.4557,-0.48507 0.90792,-0.88194 1.00494,-0.88194 0.097,0 -0.19646,0.39687 -0.65216,0.88194 -0.4557,0.48507 -0.90792,0.88195 -1.00493,0.88195 -0.097,0 0.19645,-0.39688 0.65215,-0.88195 z m 1.76389,-2.11667 c 0.4557,-0.48506 0.90792,-0.88194 1.00493,-0.88194 0.097,0 -0.19645,0.39688 -0.65215,0.88194 -0.4557,0.48507 -0.90792,0.88195 -1.00493,0.88195 -0.097,0 0.19645,-0.39688 0.65215,-0.88195 z m 1.76389,-2.11666 c 0.4557,-0.48507 0.90792,-0.88195 1.00493,-0.88195 0.097,0 -0.19645,0.39688 -0.65215,0.88195 -0.4557,0.48507 -0.90792,0.88194 -1.00493,0.88194 -0.097,0 0.19645,-0.39687 0.65215,-0.88194 z m 1.76389,-2.11667 c 0.4557,-0.48507 0.90792,-0.88194 1.00493,-0.88194 0.097,0 -0.19645,0.39687 -0.65215,0.88194 -0.4557,0.48507 -0.90792,0.88195 -1.00494,0.88195 -0.097,0 0.19646,-0.39688 0.65216,-0.88195 z m 1.76389,-2.11666 c 0.4557,-0.48507 0.90792,-0.88195 1.00493,-0.88195 0.097,0 -0.19646,0.39688 -0.65215,0.88195 -0.4557,0.48506 -0.90792,0.88194 -1.00494,0.88194 -0.097,0 0.19646,-0.39688 0.65216,-0.88194 z m 1.76389,-2.05691 c 0.85504,-0.968103 0.86153,-1.013489 0.21303,-1.487697 -0.98193,-0.718011 -4.68608,-1.88418 -7.10306,-2.236238 -1.5459,-0.225177 -1.77377,-0.318171 -0.85701,-0.349751 2.41822,-0.0833 8.80537,2.047501 8.80537,2.93754 0,0.233327 -0.43656,0.809086 -0.97014,1.279476 l -0.97014,0.85524 z"
       style="fill:#1b1d1c;stroke-width:0.35277775" />
    <path
       id="path1873"
       d="m 286.91765,105.29528 v -9.054633 l 0.79375,0.04092 c 0.59731,0.03079 0.64096,0.08085 0.17639,0.202256 -0.56592,0.14789 -0.61737,0.853579 -0.61737,8.468937 0,7.85895 0.0333,8.28179 0.61737,7.82952 0.48195,-0.37323 0.46343,-0.28598 -0.0844,0.39778 -0.38599,0.48172 -0.74318,0.94201 -0.79375,1.02285 -0.0506,0.0808 -0.0919,-3.92759 -0.0919,-8.90763 z m 2.11666,5.93842 c 0.4557,-0.48507 0.90792,-0.88194 1.00494,-0.88194 0.097,0 -0.19646,0.39687 -0.65216,0.88194 -0.4557,0.48507 -0.90792,0.88195 -1.00493,0.88195 -0.097,0 0.19645,-0.39688 0.65215,-0.88195 z m 1.76389,-2.11667 c 0.4557,-0.48506 0.90792,-0.88194 1.00493,-0.88194 0.097,0 -0.19645,0.39688 -0.65215,0.88194 -0.4557,0.48507 -0.90792,0.88195 -1.00493,0.88195 -0.097,0 0.19645,-0.39688 0.65215,-0.88195 z m 1.76389,-2.11666 c 0.4557,-0.48507 0.90792,-0.88195 1.00493,-0.88195 0.097,0 -0.19645,0.39688 -0.65215,0.88195 -0.4557,0.48507 -0.90792,0.88194 -1.00493,0.88194 -0.097,0 0.19645,-0.39687 0.65215,-0.88194 z m 1.76389,-2.11667 c 0.4557,-0.48507 0.90792,-0.88194 1.00493,-0.88194 0.097,0 -0.19645,0.39687 -0.65215,0.88194 -0.4557,0.48507 -0.90792,0.88195 -1.00494,0.88195 -0.097,0 0.19646,-0.39688 0.65216,-0.88195 z m 1.76389,-2.11666 c 0.4557,-0.48507 0.90792,-0.88195 1.00493,-0.88195 0.097,0 -0.19646,0.39688 -0.65215,0.88195 -0.4557,0.48506 -0.90792,0.88194 -1.00494,0.88194 -0.097,0 0.19646,-0.39688 0.65216,-0.88194 z m 1.63079,-1.94028 c 0.41187,-0.48507 0.8359,-1.120071 0.94229,-1.411113 0.16564,-0.453127 0.19744,-0.449291 0.22129,0.0267 0.0153,0.305726 -0.40871,0.940733 -0.94229,1.411113 l -0.97014,0.85524 z m -7.18033,-4.125029 c 0.34324,-0.08944 0.81949,-0.08356 1.05834,0.01307 0.23884,0.09664 -0.042,0.169818 -0.62408,0.162628 -0.58208,-0.0072 -0.7775,-0.08625 -0.43426,-0.175698 z"
       style="fill:#211619;stroke-width:0.35277775" />
    <path
       id="path1871"
       d="m 286.91765,105.29528 v -9.054633 l 0.79375,0.04092 c 0.59731,0.03079 0.64096,0.08085 0.17639,0.202256 -0.56592,0.14789 -0.61737,0.853579 -0.61737,8.468937 0,7.85895 0.0333,8.28179 0.61737,7.82952 0.48195,-0.37323 0.46343,-0.28598 -0.0844,0.39778 -0.38599,0.48172 -0.74318,0.94201 -0.79375,1.02285 -0.0506,0.0808 -0.0919,-3.92759 -0.0919,-8.90763 z m 2.29305,5.76203 c 0.35119,-0.38805 0.7179,-0.70555 0.81491,-0.70555 0.097,0 -0.11095,0.3175 -0.46213,0.70555 -0.35119,0.38806 -0.71789,0.70556 -0.81491,0.70556 -0.097,0 0.11095,-0.3175 0.46213,-0.70556 z m 1.76389,-2.11666 c 0.35119,-0.38806 0.71789,-0.70556 0.81491,-0.70556 0.097,0 -0.11095,0.3175 -0.46213,0.70556 -0.35119,0.38805 -0.7179,0.70555 -0.81491,0.70555 -0.097,0 0.11095,-0.3175 0.46213,-0.70555 z m 1.76389,-2.11667 c 0.35118,-0.38806 0.71789,-0.70556 0.81491,-0.70556 0.097,0 -0.11095,0.3175 -0.46213,0.70556 -0.35119,0.38805 -0.7179,0.70555 -0.81491,0.70555 -0.097,0 0.11094,-0.3175 0.46213,-0.70555 z m 1.76389,-2.11667 c 0.35118,-0.38805 0.71789,-0.70555 0.81491,-0.70555 0.097,0 -0.11095,0.3175 -0.46213,0.70555 -0.35119,0.38806 -0.7179,0.70556 -0.81491,0.70556 -0.097,0 0.11094,-0.3175 0.46213,-0.70556 z m 1.76389,-2.11666 c 0.35118,-0.38806 0.71789,-0.70556 0.8149,-0.70556 0.097,0 -0.11094,0.3175 -0.46213,0.70556 -0.35118,0.38805 -0.71789,0.70555 -0.8149,0.70555 -0.097,0 0.11094,-0.3175 0.46213,-0.70555 z m 1.23472,-1.54431 c 0,-0.0733 0.27781,-0.35107 0.61736,-0.61736 0.55953,-0.438808 0.572,-0.42633 0.13319,0.13319 -0.46085,0.58764 -0.75055,0.77452 -0.75055,0.48417 z m -6.96065,-4.344609 c 0.34324,-0.08944 0.81949,-0.08356 1.05834,0.01307 0.23884,0.09664 -0.042,0.169818 -0.62408,0.162628 -0.58208,-0.0072 -0.7775,-0.08625 -0.43426,-0.175698 z"
       style="fill:#211115;stroke-width:0.35277775" />
    <path
       id="path1869"
       d="m 286.99951,105.32467 -0.0819,-9.084023 0.79375,0.04092 c 0.58783,0.03031 0.63515,0.08248 0.18239,0.2011 -0.5561,0.145699 -0.62044,0.963056 -0.71189,9.043103 l -0.10054,8.88293 z m 3.54082,-8.622939 c 0.34324,-0.08944 0.81949,-0.08356 1.05834,0.01307 0.23884,0.09664 -0.042,0.169818 -0.62408,0.162628 -0.58208,-0.0072 -0.7775,-0.08625 -0.43426,-0.175698 z"
       style="fill:#0a1c16;stroke-width:0.35277775" />
    <path
       id="path1867"
       d="m 286.99927,105.14829 c -0.0759,-8.281148 -0.0382,-8.907263 0.53574,-8.902241 0.43296,0.0038 0.48757,0.08785 0.18282,0.281427 -0.32014,0.203355 -0.46118,2.547088 -0.53574,8.902234 l -0.1012,8.62621 z"
       style="fill:#001b12;stroke-width:0.35277775" />
    <path
       id="path1865"
       d="m 287.07099,105.06009 c 0,-4.94771 0.0496,-6.971769 0.11026,-4.49792 0.0606,2.47386 0.0606,6.52198 0,8.99584 -0.0606,2.47385 -0.11026,0.44979 -0.11026,-4.49792 z"
       style="fill:#20000a;stroke-width:0.35277775" />
    <path
       id="path1863"
       d="m 287.07099,105.06009 c 0,-4.94771 0.0496,-6.971769 0.11026,-4.49792 0.0606,2.47386 0.0606,6.52198 0,8.99584 -0.0606,2.47385 -0.11026,0.44979 -0.11026,-4.49792 z"
       style="fill:#000000;stroke-width:0.35277775" />
  </g>
</svg>
