<?xml version="1.0" encoding="UTF-8" standalone="no"?>
<svg
   xmlns:dc="http://purl.org/dc/elements/1.1/"
   xmlns:cc="http://creativecommons.org/ns#"
   xmlns:rdf="http://www.w3.org/1999/02/22-rdf-syntax-ns#"
   xmlns:svg="http://www.w3.org/2000/svg"
   xmlns="http://www.w3.org/2000/svg"
   width="130mm"
   height="126.22735mm"
   viewBox="0 0 130.00001 126.22734"
   version="1.1"
   id="svg1756">
  <defs
     id="defs1750" />
  <metadata
     id="metadata1753">
    <rdf:RDF>
      <cc:Work
         rdf:about="">
        <dc:format>image/svg+xml</dc:format>
        <dc:type
           rdf:resource="http://purl.org/dc/dcmitype/StillImage" />
        <dc:title></dc:title>
      </cc:Work>
    </rdf:RDF>
  </metadata>
  <path
     id="path926"
     d="m 38.897317,126.89522 c -1.664226,-0.25865 -2.689006,-0.67761 -4.316314,-1.76465 C 33.146068,124.17203 2.2624909,85.523692 0.95675314,83.052497 0.24975704,81.714463 0.08532764,81.032401 0.01110804,79.129914 -0.07001196,77.050398 0.22878204,75.471013 3.0913129,62.848894 4.8348413,55.160939 6.5655111,47.587088 6.9372499,46.018118 7.308987,44.449146 8.4107972,39.635259 9.385718,35.32059 c 0.974918,-4.314669 2.024652,-8.386109 2.332741,-9.04764 1.014905,-2.179218 2.582085,-3.630851 5.571598,-5.160818 C 18.818843,20.329735 29.39208,15.193133 40.786142,9.6974607 55.91473,2.4005208 61.974199,-0.38745023 63.250948,-0.63863523 66.4504,-1.2680882 66.718256,-1.1617802 88.94409,9.5584407 c 11.22785,5.4155463 21.792,10.5489733 23.47588,11.4076163 3.28673,1.675969 4.81239,3.057541 5.86035,5.306893 0.3082,0.661531 3.08999,12.306819 6.18175,25.878416 5.21456,22.889896 5.61464,24.842287 5.52846,26.978548 -0.0766,1.897874 -0.24343,2.588199 -0.94871,3.924889 -1.32758,2.516107 -32.16602,41.096057 -33.685087,42.141207 -2.829361,1.94665 -0.982723,1.82858 -29.359015,1.87705 -14.120737,0.0241 -26.315918,-0.0559 -27.100401,-0.17783 z m 47.326268,-14.66493 c 1.271672,-0.53134 1.882355,-1.47542 1.882355,-2.91001 0,-1.00681 -0.225187,-1.45869 -1.505082,-3.02014 -0.827796,-1.00989 -1.969888,-2.72712 -2.537978,-3.81606 -0.957015,-1.83444 -1.028143,-2.14233 -0.968195,-4.190978 l 0.0647,-2.211087 1.275996,-0.845185 c 5.448843,-3.609163 10.488296,-10.098894 12.800494,-16.484279 0.568173,-1.569073 0.735118,-1.782755 1.391871,-1.781509 0.410446,8.55e-4 1.342745,-0.212366 2.071784,-0.473644 1.24275,-0.445395 1.45647,-0.444009 3.4232,0.0222 1.15374,0.273493 2.97442,0.935928 4.04598,1.47208 2.41252,1.207107 3.78551,1.27411 5.00919,0.244455 1.55228,-1.306165 1.44292,-3.840383 -0.21254,-4.925084 -0.59179,-0.387753 -1.49966,-0.479392 -4.87711,-0.49229 -4.47036,-0.01716 -5.19951,-0.183502 -6.7438,-1.539424 -0.51398,-0.45129 -1.18417,-0.899763 -1.489325,-0.996613 C 99.346159,70.121174 99.288602,69.747811 99.158631,65.764587 98.95885,59.641498 97.618314,54.826344 94.733967,49.871232 L 93.6558,48.019015 94.618848,46.088423 c 1.196726,-2.399034 2.554013,-3.596568 5.908812,-5.213342 1.41898,-0.683851 2.78896,-1.475244 3.04439,-1.758647 1.68502,-1.869529 0.14492,-5.217606 -2.40169,-5.221128 -1.33474,-0.0017 -2.178385,0.601956 -3.347464,2.3958 -1.872513,2.873198 -4.675136,5.304257 -6.118253,5.307111 -0.488758,8.56e-4 -1.25891,0.194853 -1.711453,0.430864 C 89.196,42.444828 89.130926,42.42479 87.90305,41.385473 82.837862,37.098117 77.745647,34.58417 71.582294,33.328158 70.030462,33.011924 68.68467,32.753181 68.591646,32.753181 c -0.09304,0 -0.169796,-0.224646 -0.170588,-0.499216 -8.56e-4,-0.274571 -0.317725,-1.0127 -0.704266,-1.64029 -0.590928,-0.959426 -0.704223,-1.505806 -0.711707,-3.432356 -0.0048,-1.26021 0.189837,-2.99321 0.432725,-3.851111 0.760829,-2.687247 0.802853,-4.013201 0.159632,-5.036841 -1.123892,-1.788573 -4.072364,-1.788573 -5.196255,0 -0.643226,1.02364 -0.601204,2.349594 0.159609,5.036841 0.2429,0.857901 0.437626,2.590901 0.432726,3.851111 -0.0075,1.92655 -0.12078,2.47293 -0.711707,3.432356 -0.386541,0.62759 -0.703459,1.365719 -0.704266,1.64029 -8.56e-4,0.27457 -0.07757,0.499216 -0.170588,0.499216 -0.805051,0 -6.240122,1.302762 -7.885003,1.89 -3.931478,1.403574 -8.429822,4.054018 -10.988466,6.474447 -0.853615,0.807499 -1.002485,0.852357 -1.854239,0.558713 -0.509358,-0.175604 -1.48332,-0.407032 -2.164357,-0.514288 -1.006388,-0.158486 -1.610828,-0.546448 -3.227675,-2.071702 -1.094168,-1.032185 -2.314548,-2.431522 -2.711952,-3.109644 -0.949768,-1.620655 -1.945525,-2.371722 -3.144408,-2.371722 -1.940779,0 -3.323025,1.305261 -3.323025,3.137943 0,1.607274 0.649218,2.292856 3.375134,3.56418 2.804485,1.307969 5.548218,3.305793 5.785337,4.212538 0.08272,0.3163 0.433661,1.107852 0.779882,1.759004 l 0.62949,1.183914 -1.244127,2.122266 c -3.066953,5.231684 -4.392722,9.927627 -4.58925,16.255372 -0.153032,4.927444 -0.02651,4.620886 -2.644506,6.407244 -1.275807,0.870532 -4.789719,1.416185 -7.419349,1.152102 -2.31887,-0.232876 -3.490151,0.241243 -4.182445,1.692997 -1.094246,2.29466 0.745153,4.758106 3.329039,4.458469 0.235346,-0.0273 1.454864,-0.556336 2.71004,-1.175659 1.255176,-0.619318 3.092384,-1.327688 4.082682,-1.574156 1.656519,-0.412278 1.930335,-0.409823 3.423208,0.03065 0.892468,0.263322 1.758808,0.516154 1.925201,0.561848 0.166397,0.04569 0.458323,0.603063 0.648733,1.238595 0.608261,2.030199 2.868537,6.229201 4.636978,8.614296 2.128236,2.870351 4.895163,5.601166 7.62914,7.529569 l 2.091959,1.475556 0.06629,1.838974 c 0.10197,2.828733 -1.043972,5.345803 -3.837881,8.429903 -1.254131,1.3844 -1.527947,2.10881 -1.285525,3.40103 0.432336,2.30454 3.627593,3.2725 5.295804,1.60429 0.495661,-0.49566 0.879897,-1.24709 0.984608,-1.92556 0.700773,-4.54061 1.813656,-7.34696 3.325327,-8.38546 0.531602,-0.36521 1.169499,-0.91311 1.417549,-1.21757 0.444678,-0.545789 0.492677,-0.542779 3.423209,0.21481 5.487659,1.41866 12.554255,1.31343 18.015143,-0.268259 1.877843,-0.54391 2.287565,-0.58688 2.415541,-0.25338 0.08477,0.22089 0.730409,0.798119 1.434771,1.282729 0.911745,0.6273 1.465964,1.30239 1.923939,2.34355 0.743882,1.69112 1.576307,4.85318 1.576307,5.98778 0,1.50783 0.875191,2.57599 2.567404,3.13349 0.681523,0.22453 0.82053,0.2084 1.826119,-0.21175 z M 62.431877,95.229931 c -2.403323,-0.238272 -5.42008,-0.861491 -5.42008,-1.119709 0,-0.20614 6.919277,-11.913456 7.517167,-12.718947 0.646673,-0.871204 1.252574,-0.318106 3.001574,2.739977 0.843049,1.474057 2.484583,4.2735 3.647852,6.220988 1.163272,1.947486 2.013946,3.638421 1.890392,3.757637 -0.336894,0.325053 -4.231247,1.041675 -6.500528,1.1962 -1.098282,0.0748 -2.959651,0.04052 -4.136377,-0.07614 z m -15.02224,-5.947716 c -1.924091,-1.525991 -4.835379,-4.702066 -6.058187,-6.609181 -1.259589,-1.964485 -3.042473,-5.638056 -2.836343,-5.844187 0.155958,-0.155957 12.079994,-1.566746 14.03538,-1.660593 1.913157,-0.09181 1.890264,0.170148 -0.635756,7.275448 -1.264208,3.556022 -2.381459,6.795792 -2.482784,7.199495 -0.10131,0.403699 -0.287148,0.734002 -0.412948,0.734002 -0.125796,0 -0.850012,-0.492744 -1.609362,-1.094984 z m 31.310189,-6.022254 c -1.43536,-4.230939 -2.304588,-7.209124 -2.168409,-7.429467 0.172568,-0.279199 0.852722,-0.323698 2.824285,-0.184777 5.827568,0.410633 11.923772,0.99914 12.091946,1.167317 0.287742,0.287744 -2.316669,5.276048 -3.743719,7.170459 -1.325814,1.760007 -5.129921,5.54691 -6.08627,6.05873 -0.475082,0.254256 -0.737999,-0.356881 -2.917833,-6.782264 z M 62.634666,71.426343 c -1.065189,-0.519802 -2.01085,-1.019229 -2.101459,-1.109838 -0.0906,-0.0906 -0.39618,-1.160312 -0.67904,-2.377112 -0.60555,-2.604943 -0.520547,-2.872673 1.644107,-5.178318 l 1.390577,-1.481153 h 1.990176 c 2.327601,0 2.677682,0.193292 4.404755,2.431889 l 1.243212,1.61143 -0.342482,1.997184 c -0.188363,1.098451 -0.474319,2.243534 -0.635459,2.544628 -0.298018,0.556851 -3.95035,2.554281 -4.613967,2.523343 -0.200046,-0.0092 -1.235225,-0.442252 -2.30042,-0.962053 z M 36.664693,67.801069 c -0.275979,-1.055349 0.361009,-6.136119 1.078005,-8.598417 0.544536,-1.870037 2.581137,-6.599935 3.121586,-7.249714 0.148279,-0.178266 10.72743,10.526828 10.72743,10.855131 0,0.564578 -0.536788,0.936335 -1.86428,1.291133 -0.633112,0.169223 -3.799599,1.192307 -7.03664,2.273549 -5.422053,1.811088 -5.896592,1.923563 -6.026101,1.428318 z m 54.864458,-0.128018 c -0.70604,-0.2283 -3.972301,-1.186006 -7.25836,-2.128231 -3.286066,-0.94222 -6.009184,-1.747651 -6.051382,-1.789849 -0.0422,-0.0422 2.46155,-2.61261 5.563881,-5.712033 l 5.640599,-5.635308 1.18429,2.510588 c 1.480163,3.137808 2.287622,6.082899 2.602078,9.490721 0.235026,2.547035 0.165198,3.738649 -0.216721,3.698307 -0.09937,-0.01056 -0.758347,-0.205875 -1.464382,-0.434188 z M 55.728091,51.39404 c -1.882764,-1.307776 -4.674819,-3.179674 -6.204565,-4.159776 -1.529747,-0.980104 -2.779407,-1.847245 -2.777025,-1.926975 0.01188,-0.397999 3.316015,-2.517256 5.843648,-3.748111 2.600622,-1.266396 7.613842,-2.856216 7.949174,-2.520884 0.107755,0.107756 -0.805247,9.951658 -1.297968,13.994614 -0.08791,0.721321 -0.171534,0.682311 -3.513264,-1.638868 z m 15.29551,2.081644 c -0.176769,-0.213004 -0.517738,-2.491582 -0.757682,-5.063497 -0.239945,-2.571917 -0.559505,-5.693289 -0.71013,-6.936391 -0.150612,-1.243098 -0.210914,-2.323126 -0.13398,-2.400058 0.358494,-0.358491 5.425499,1.223657 7.986614,2.493782 3.043439,1.509322 6.602843,3.970438 6.22123,4.301608 -0.678896,0.589156 -11.829383,7.991843 -12.037919,7.991843 -0.135673,0 -0.391339,-0.174284 -0.568122,-0.387287 z"
     style="fill:#808080;stroke-width:0.28526741;fill-opacity:1" />
</svg>
