<?xml version="1.0" encoding="UTF-8" standalone="no"?>
<svg
   xmlns:dc="http://purl.org/dc/elements/1.1/"
   xmlns:cc="http://creativecommons.org/ns#"
   xmlns:rdf="http://www.w3.org/1999/02/22-rdf-syntax-ns#"
   xmlns:svg="http://www.w3.org/2000/svg"
   xmlns="http://www.w3.org/2000/svg"
   id="svg1756"
   version="1.1"
   viewBox="0 0 55.441947 64.691006"
   height="64.69101mm"
   width="55.441944mm">
  <defs
     id="defs1750" />
  <metadata
     id="metadata1753">
    <rdf:RDF>
      <cc:Work
         rdf:about="">
        <dc:format>image/svg+xml</dc:format>
        <dc:type
           rdf:resource="http://purl.org/dc/dcmitype/StillImage" />
        <dc:title></dc:title>
      </cc:Work>
    </rdf:RDF>
  </metadata>
  <g
     transform="translate(-144.44102,-109.91294)"
     id="layer1">
    <g
       transform="matrix(9.912947,0,0,9.912947,-1496.4506,-2126.5735)"
       id="g1812">
      <path
         id="path1998"
         d="m 166.22259,232.02696 c -0.94907,-0.14409 -0.92246,-1.01728 0.0794,-2.60429 0.43656,-0.69156 0.79375,-1.55536 0.79375,-1.91956 0,-1.01359 0.58907,-1.89044 1.27,-1.89044 0.67053,0 1.27,0.87332 1.27,1.85016 0,0.34205 0.21431,0.70414 0.47625,0.80466 0.26194,0.10051 0.47625,0.55382 0.47625,1.00734 0,0.45352 0.15911,1.12189 0.35359,1.48527 0.28989,0.54168 0.247,0.7234 -0.23813,1.00885 -0.57365,0.33753 -3.02686,0.47878 -4.48109,0.25801 z m 2.61938,-2.28679 c 0,-1.23336 -0.598,-1.59402 -1.09701,-0.66161 -0.25731,0.4808 -0.24308,0.81219 0.0554,1.29013 0.56542,0.90538 1.04162,0.61804 1.04162,-0.62852 z"
         style="fill:#fdfdfd;stroke-width:0.3175" />
      <path
         id="path1996"
         d="m 166.21774,231.9281 c -0.92037,-0.34046 -0.89764,-0.57094 0.24791,-2.5138 0.52659,-0.89309 0.87456,-1.75791 0.77326,-1.92181 -0.28481,-0.46083 0.14077,-1.48151 0.70856,-1.69939 0.67433,-0.25877 1.68825,0.68783 1.68825,1.57615 0,0.38812 0.21431,0.88353 0.47625,1.10092 0.26194,0.21739 0.47625,0.6729 0.47625,1.01225 0,0.33935 0.13987,0.87835 0.31083,1.19778 0.22771,0.42548 0.17971,0.68961 -0.1795,0.98772 -0.5715,0.47431 -3.47011,0.64183 -4.50181,0.26018 z m 2.62423,-2.21004 c 0,-0.74373 -0.16036,-1.11133 -0.51457,-1.17954 -0.66928,-0.12889 -0.99275,1.08445 -0.49963,1.87406 0.54392,0.87096 1.0142,0.54891 1.0142,-0.69452 z"
         style="fill:#fcfcfc;stroke-width:0.3175" />
      <path
         id="path1994"
         d="m 166.40838,232.04001 c -0.81733,-0.17548 -0.96023,-1.00148 -0.33419,-1.93179 0.92337,-1.37215 1.46009,-2.57532 1.24485,-2.79057 -0.36409,-0.36409 0.42119,-1.38748 1.06466,-1.38748 0.3923,0 0.76158,0.32997 0.97711,0.87313 0.19057,0.48021 0.53158,1.23031 0.75782,1.66687 0.22623,0.43656 0.50803,1.30958 0.62623,1.94004 0.17522,0.93464 0.10732,1.19315 -0.36775,1.4001 -0.62586,0.27263 -3.10143,0.41592 -3.96873,0.2297 z m 2.59234,-2.29984 c 0,-1.04357 -0.1094,-1.27 -0.6136,-1.27 -0.76312,0 -1.12413,1.03104 -0.66282,1.89301 0.60216,1.12514 1.27642,0.79604 1.27642,-0.62301 z"
         style="fill:#fbfbfb;stroke-width:0.3175" />
      <path
         id="path1992"
         d="m 166.61947,232.01094 c -1.0728,-0.20566 -1.10846,-0.74881 -0.16231,-2.4728 0.5002,-0.91145 0.95567,-2.06039 1.01214,-2.5532 0.14855,-1.29644 1.39276,-1.43089 1.88163,-0.20332 0.196,0.49214 0.53613,1.25199 0.75584,1.68855 0.21972,0.43656 0.49273,1.31295 0.60669,1.94754 0.16661,0.92771 0.0969,1.20051 -0.35589,1.39224 -0.63621,0.2694 -2.77996,0.38467 -3.7381,0.20099 z m 2.47325,-1.63577 c 0.25847,-0.98841 -0.10623,-1.905 -0.75798,-1.905 -0.74313,0 -1.15108,1.40458 -0.6006,2.06787 0.54877,0.66123 1.1623,0.58768 1.35858,-0.16287 z"
         style="fill:#fafafa;stroke-width:0.3175" />
      <path
         id="path1990"
         d="m 166.54009,232.01996 c -0.92893,-0.13193 -0.91389,-0.85747 0.0556,-2.68082 0.42348,-0.79646 0.81638,-1.85358 0.87312,-2.34916 0.14897,-1.30118 1.3921,-1.4388 1.88212,-0.20836 0.196,0.49214 0.53613,1.25199 0.75584,1.68855 0.21972,0.43656 0.49273,1.31295 0.60669,1.94754 0.16654,0.9273 0.0967,1.20107 -0.35589,1.39465 -0.60779,0.25999 -2.66204,0.3717 -3.81748,0.2076 z m 2.55263,-1.64479 c 0.25847,-0.98841 -0.10623,-1.905 -0.75798,-1.905 -0.74313,0 -1.15108,1.40458 -0.6006,2.06787 0.54877,0.66123 1.1623,0.58768 1.35858,-0.16287 z"
         style="fill:#f9f9f9;stroke-width:0.3175" />
      <path
         id="path1988"
         d="m 166.54009,232.01996 c -0.92893,-0.13193 -0.91389,-0.85747 0.0556,-2.68082 0.42348,-0.79646 0.81638,-1.85358 0.87312,-2.34916 0.12467,-1.08897 1.40782,-1.47937 1.73034,-0.52645 0.10757,0.31784 0.45165,1.14939 0.76462,1.84789 0.31297,0.6985 0.66157,1.72198 0.77468,2.27439 0.17606,0.85985 0.10062,1.03772 -0.52422,1.23604 -0.81257,0.2579 -2.58156,0.35328 -3.67414,0.19811 z m 2.55837,-1.66675 c 0.25111,-0.96025 -0.11563,-1.88304 -0.74838,-1.88304 -0.76145,0 -1.1035,1.15913 -0.61268,2.07624 0.441,0.824 1.12027,0.72758 1.36106,-0.1932 z"
         style="fill:#f8f8f8;stroke-width:0.3175" />
      <path
         id="path1986"
         d="m 165.93886,231.48205 c -0.10144,-0.26434 0.18309,-1.22874 0.63228,-2.14312 0.44919,-0.91438 0.85813,-2.0197 0.90877,-2.45626 0.11493,-0.99093 1.42789,-1.3151 1.69763,-0.41914 0.0957,0.31784 0.43928,1.14939 0.76354,1.84789 0.87004,1.8742 1.077,3.06686 0.58618,3.37815 -0.22841,0.14486 -1.31274,0.26556 -2.40963,0.26824 -1.49114,0.004 -2.04087,-0.11641 -2.17877,-0.47576 z m 3.19167,-1.26337 c 0.27253,-1.08585 -0.0998,-1.79798 -0.88135,-1.68592 -0.81004,0.11613 -1.04004,1.02658 -0.50969,2.01754 0.46309,0.8653 1.13057,0.70618 1.39104,-0.33162 z"
         style="fill:#f6f6f6;stroke-width:0.3175" />
      <path
         id="path1984"
         d="m 165.93886,231.48205 c -0.10144,-0.26434 0.18309,-1.22874 0.63228,-2.14312 0.44919,-0.91438 0.85813,-2.0197 0.90877,-2.45626 0.069,-0.59462 0.27868,-0.79375 0.83595,-0.79375 0.76606,0 0.82698,0.109 2.19141,3.92043 0.62134,1.73569 0.36864,1.94173 -2.38964,1.94846 -1.49114,0.004 -2.04087,-0.11641 -2.17877,-0.47576 z m 3.19167,-1.26337 c 0.27253,-1.08585 -0.0998,-1.79798 -0.88135,-1.68592 -0.81004,0.11613 -1.04004,1.02658 -0.50969,2.01754 0.46309,0.8653 1.13057,0.70618 1.39104,-0.33162 z"
         style="fill:#f5f5f5;stroke-width:0.3175" />
      <path
         id="path1982"
         d="m 166.03739,231.751 c -0.32937,-0.32936 -0.24887,-1.37583 0.10583,-1.37583 0.17462,0 0.3175,-0.157 0.3175,-0.34889 0,-0.19189 0.20602,-0.79911 0.45783,-1.34938 0.2518,-0.55026 0.50183,-1.35767 0.55562,-1.79423 0.14003,-1.13647 1.60914,-1.13647 1.84101,0 0.0891,0.43656 0.39189,1.22238 0.67294,1.74625 0.7956,1.48304 1.0198,2.7558 0.53914,3.06065 -0.49518,0.31404 -4.18675,0.36456 -4.48987,0.0614 z m 3.10111,-1.56407 c 0.25381,-1.01125 -0.30714,-2.07118 -0.96294,-1.81952 -0.78421,0.30093 -1.05641,1.43087 -0.53602,2.22508 0.55084,0.84068 1.23246,0.65626 1.49896,-0.40556 z"
         style="fill:#f4f4f4;stroke-width:0.3175" />
      <path
         id="path1980"
         d="m 166.03739,231.751 c -0.29749,-0.29748 -0.26453,-1.37583 0.0421,-1.37583 0.30681,0 1.113,-2.01576 1.33331,-3.33375 0.12736,-0.76188 0.31807,-0.9525 0.95297,-0.9525 0.59871,0 0.82049,0.18932 0.90256,0.77047 0.0598,0.42375 0.31482,1.08488 0.56661,1.46917 0.75494,1.15218 1.10387,2.73549 0.70797,3.21252 -0.36398,0.43857 -4.10263,0.61277 -4.50547,0.20992 z m 3.10111,-1.56407 c 0.25381,-1.01125 -0.30714,-2.07118 -0.96294,-1.81952 -0.78421,0.30093 -1.05641,1.43087 -0.53602,2.22508 0.55084,0.84068 1.23246,0.65626 1.49896,-0.40556 z"
         style="fill:#f3f3f3;stroke-width:0.3175" />
      <path
         id="path1978"
         d="m 166.03739,231.751 c -0.29446,-0.29445 -0.26598,-1.37583 0.0362,-1.37583 0.34121,0 1.10044,-1.82833 1.31846,-3.175 0.14986,-0.92569 0.31244,-1.11125 0.97365,-1.11125 0.59871,0 0.82049,0.18932 0.90256,0.77047 0.0598,0.42375 0.31482,1.08488 0.56661,1.46917 0.75494,1.15218 1.10387,2.73549 0.70797,3.21252 -0.36398,0.43857 -4.10263,0.61277 -4.50547,0.20992 z m 3.10111,-1.56407 c 0.25381,-1.01125 -0.30714,-2.07118 -0.96294,-1.81952 -0.78421,0.30093 -1.05641,1.43087 -0.53602,2.22508 0.55084,0.84068 1.23246,0.65626 1.49896,-0.40556 z"
         style="fill:#f2f2f2;stroke-width:0.3175" />
      <path
         id="path1976"
         d="m 166.03739,231.751 c -0.29446,-0.29445 -0.26598,-1.37583 0.0362,-1.37583 0.34121,0 1.10044,-1.82833 1.31846,-3.175 0.14986,-0.92569 0.31244,-1.11125 0.97365,-1.11125 0.59871,0 0.82049,0.18932 0.90256,0.77047 0.0598,0.42375 0.31482,1.08488 0.56661,1.46917 0.75494,1.15218 1.10387,2.73549 0.70797,3.21252 -0.36398,0.43857 -4.10263,0.61277 -4.50547,0.20992 z m 3.08196,-1.48775 c 0.19415,-0.77356 -0.0671,-2.11058 -0.41248,-2.11058 -0.41366,0 -1.24966,0.79333 -1.33831,1.27 -0.13722,0.73787 0.63338,1.90283 1.1321,1.71145 0.24351,-0.0934 0.52192,-0.48534 0.61869,-0.87087 z"
         style="fill:#f1f1f1;stroke-width:0.3175" />
      <path
         id="path1974"
         d="m 166.03739,231.751 c -0.28732,-0.28731 -0.26861,-1.29761 0.0265,-1.42875 0.47342,-0.2104 1.34938,-2.24168 1.34938,-3.12907 0,-0.49942 0.14415,-0.99713 0.32034,-1.10602 0.56597,-0.34978 1.58466,0.18254 1.58466,0.82808 0,0.34362 0.21926,0.9594 0.48724,1.3684 0.78139,1.19254 1.13922,2.77327 0.7374,3.25744 -0.36398,0.43857 -4.10263,0.61277 -4.50547,0.20992 z m 3.08196,-1.48775 c 0.45243,-1.80266 -0.95544,-2.83763 -1.68422,-1.23812 -0.26021,0.57109 -0.22319,0.91475 0.16181,1.50235 0.57376,0.87566 1.26649,0.75543 1.52241,-0.26423 z"
         style="fill:#f0f0f0;stroke-width:0.3175" />
      <path
         id="path1972"
         d="m 166.03739,231.751 c -0.28732,-0.28731 -0.26861,-1.29761 0.0265,-1.42875 0.47342,-0.2104 1.34938,-2.24168 1.34938,-3.12907 0,-0.49942 0.14415,-0.99713 0.32034,-1.10602 0.56597,-0.34978 1.58466,0.18254 1.58466,0.82808 0,0.34362 0.21926,0.9594 0.48724,1.3684 0.78139,1.19254 1.13922,2.77327 0.7374,3.25744 -0.36398,0.43857 -4.10263,0.61277 -4.50547,0.20992 z m 2.51024,-0.66632 c 0.97546,-0.66793 0.82502,-2.92056 -0.18993,-2.84411 -0.86232,0.065 -1.31114,1.26576 -0.84697,2.26601 0.40742,0.87793 0.51303,0.93682 1.0369,0.5781 z"
         style="fill:#eeeeee;stroke-width:0.3175" />
      <path
         id="path1970"
         d="m 165.95852,231.53328 c -0.0906,-0.23616 0.19961,-1.11469 0.64496,-1.95228 0.44536,-0.8376 0.80974,-1.92182 0.80974,-2.40938 0,-1.03271 0.38814,-1.36259 1.27284,-1.0818 0.39731,0.1261 0.63216,0.48062 0.63216,0.95426 0,0.41449 0.1295,0.83365 0.28778,0.93147 0.15828,0.0978 0.51441,0.84298 0.7914,1.65591 0.68081,1.99806 0.3608,2.33121 -2.23927,2.33121 -1.41715,0 -2.08486,-0.13034 -2.19961,-0.42939 z m 2.58911,-0.4486 c 0.97546,-0.66793 0.82502,-2.92056 -0.18993,-2.84411 -0.86232,0.065 -1.31114,1.26576 -0.84697,2.26601 0.40742,0.87793 0.51303,0.93682 1.0369,0.5781 z"
         style="fill:#ededed;stroke-width:0.3175" />
      <path
         id="path1968"
         d="m 165.95852,231.53328 c -0.0906,-0.23616 0.19961,-1.11469 0.64496,-1.95228 0.44536,-0.8376 0.80974,-1.92182 0.80974,-2.40938 0,-1.03271 0.38814,-1.36259 1.27284,-1.0818 0.39731,0.1261 0.63216,0.48062 0.63216,0.95426 0,0.41449 0.1295,0.83365 0.28778,0.93147 0.15828,0.0978 0.51441,0.84298 0.7914,1.65591 0.68081,1.99806 0.3608,2.33121 -2.23927,2.33121 -1.41715,0 -2.08486,-0.13034 -2.19961,-0.42939 z m 3.05058,-1.02139 c 0.42721,-1.12365 0.0822,-2.32658 -0.6514,-2.27132 -0.86232,0.065 -1.31114,1.26576 -0.84697,2.26601 0.48429,1.04359 1.10278,1.04578 1.49837,0.005 z"
         style="fill:#eaeaea;stroke-width:0.3175" />
      <path
         id="path1966"
         d="m 165.95852,231.53328 c -0.0906,-0.23616 0.19961,-1.11469 0.64496,-1.95228 0.44536,-0.8376 0.80974,-1.92182 0.80974,-2.40938 0,-1.03271 0.38814,-1.36259 1.27284,-1.0818 0.38254,0.12141 0.63216,0.48055 0.63216,0.9095 0,0.38987 0.13287,0.84458 0.29527,1.01048 0.62986,0.64341 1.27318,3.11701 0.92102,3.54134 -0.47956,0.57783 -4.35321,0.56271 -4.57599,-0.0179 z m 3.05058,-1.02139 c 0.42721,-1.12365 0.0822,-2.32658 -0.6514,-2.27132 -0.86232,0.065 -1.31114,1.26576 -0.84697,2.26601 0.48429,1.04359 1.10278,1.04578 1.49837,0.005 z"
         style="fill:#e9e9e9;stroke-width:0.3175" />
      <path
         id="path1964"
         d="m 165.95852,231.53328 c -0.0906,-0.23616 0.19961,-1.11469 0.64496,-1.95228 0.44536,-0.8376 0.80974,-1.92182 0.80974,-2.40938 0,-0.48756 0.14415,-0.97557 0.32034,-1.08446 0.57106,-0.35293 1.58466,0.18294 1.58466,0.83778 0,0.34896 0.17435,0.94655 0.38744,1.32798 0.83254,1.49023 1.18034,2.8747 0.82862,3.2985 -0.47934,0.57757 -4.35306,0.56222 -4.57576,-0.0181 z m 3.05058,-1.02139 c 0.42721,-1.12365 0.0822,-2.32658 -0.6514,-2.27132 -0.86232,0.065 -1.31114,1.26576 -0.84697,2.26601 0.48429,1.04359 1.10278,1.04578 1.49837,0.005 z"
         style="fill:#e7e7e7;stroke-width:0.3175" />
      <path
         id="path1962"
         d="m 165.95852,231.53328 c -0.0906,-0.23616 0.19961,-1.11469 0.64496,-1.95228 0.44536,-0.8376 0.80974,-1.92182 0.80974,-2.40938 0,-1.03271 0.38814,-1.36259 1.27284,-1.0818 0.38352,0.12173 0.63216,0.48055 0.63216,0.91231 0,0.39142 0.20977,0.98901 0.46615,1.32798 0.25639,0.33897 0.4707,0.9092 0.47625,1.26719 0.006,0.35798 0.17549,0.81626 0.37764,1.01841 0.2784,0.2784 0.26897,0.48633 -0.0389,0.85725 -0.53911,0.64959 -4.39551,0.69972 -4.64087,0.0603 z m 3.05058,-1.02139 c 0.42721,-1.12365 0.0822,-2.32658 -0.6514,-2.27132 -0.86232,0.065 -1.31114,1.26576 -0.84697,2.26601 0.48429,1.04359 1.10278,1.04578 1.49837,0.005 z"
         style="fill:#e6e6e6;stroke-width:0.3175" />
      <path
         id="path1960"
         d="m 165.95852,231.53328 c -0.0906,-0.23616 0.19961,-1.11469 0.64496,-1.95228 0.44536,-0.8376 0.80974,-1.92182 0.80974,-2.40938 0,-1.03271 0.38814,-1.36259 1.27284,-1.0818 0.38352,0.12173 0.63216,0.48055 0.63216,0.91231 0,0.39142 0.20977,0.98901 0.46615,1.32798 0.25639,0.33897 0.4707,0.9092 0.47625,1.26719 0.006,0.35798 0.17549,0.81626 0.37764,1.01841 0.2784,0.2784 0.26897,0.48633 -0.0389,0.85725 -0.53911,0.64959 -4.39551,0.69972 -4.64087,0.0603 z m 3.05058,-1.02139 c 0.69336,-1.82368 -0.74013,-3.31684 -1.52678,-1.59034 -0.2598,0.5702 -0.25245,0.97979 0.0284,1.58503 0.48429,1.04359 1.10278,1.04578 1.49837,0.005 z"
         style="fill:#e5e5e5;stroke-width:0.3175" />
      <path
         id="path1958"
         d="m 165.95852,231.53328 c -0.0906,-0.23616 0.19961,-1.11469 0.64496,-1.95228 0.44536,-0.8376 0.80974,-1.92182 0.80974,-2.40938 0,-1.03271 0.38814,-1.36259 1.27284,-1.0818 0.38352,0.12173 0.63216,0.48055 0.63216,0.91231 0,0.39142 0.20977,0.98901 0.46615,1.32798 0.25639,0.33897 0.4707,0.9092 0.47625,1.26719 0.006,0.35798 0.17549,0.81626 0.37764,1.01841 0.2784,0.2784 0.26897,0.48633 -0.0389,0.85725 -0.53911,0.64959 -4.39551,0.69972 -4.64087,0.0603 z m 3.05217,-0.85923 c 0.48508,-0.9064 0.0885,-2.52138 -0.61923,-2.52138 -0.84252,0 -1.34717,1.34877 -0.88073,2.35391 0.45776,0.98642 1.02762,1.05004 1.49996,0.16747 z"
         style="fill:#e4e4e4;stroke-width:0.3175" />
      <path
         id="path1956"
         d="m 165.96532,231.55099 c -0.0869,-0.22642 0.20334,-1.09123 0.64496,-1.9218 0.44162,-0.83057 0.80294,-1.92275 0.80294,-2.42708 0,-1.0618 0.38151,-1.39519 1.27284,-1.11229 0.38352,0.12173 0.63216,0.48055 0.63216,0.91231 0,0.39142 0.20977,0.98901 0.46615,1.32798 0.25639,0.33897 0.4707,0.9092 0.47625,1.26719 0.006,0.35798 0.18869,0.83194 0.40697,1.05324 0.3181,0.32251 0.27454,0.49267 -0.21943,0.85725 -0.79931,0.58995 -4.26024,0.6233 -4.48284,0.0432 z m 3.04537,-0.87694 c 0.48508,-0.9064 0.0885,-2.52138 -0.61923,-2.52138 -0.84252,0 -1.34717,1.34877 -0.88073,2.35391 0.45776,0.98642 1.02762,1.05004 1.49996,0.16747 z"
         style="fill:#e2e2e2;stroke-width:0.3175" />
      <path
         id="path1954"
         d="m 165.96532,231.55099 c -0.0869,-0.22642 0.20334,-1.09123 0.64496,-1.9218 0.44162,-0.83057 0.80294,-1.9159 0.80294,-2.41185 0,-0.94172 0.60469,-1.40071 1.42875,-1.08449 0.26194,0.10052 0.47625,0.49735 0.47625,0.88186 0,0.3845 0.20977,0.97643 0.46615,1.3154 0.25639,0.33897 0.4707,0.9092 0.47625,1.26719 0.006,0.35798 0.18869,0.83194 0.40697,1.05324 0.3181,0.32251 0.27454,0.49267 -0.21943,0.85725 -0.79931,0.58995 -4.26024,0.6233 -4.48284,0.0432 z m 3.04537,-0.87694 c 0.4904,-0.91632 0.0883,-2.52138 -0.63168,-2.52138 -0.70111,0 -1.63316,1.94713 -1.02853,2.14867 0.20913,0.0697 0.38024,0.32915 0.38024,0.57654 0,0.67949 0.88243,0.53897 1.27997,-0.20383 z"
         style="fill:#e1e1e1;stroke-width:0.3175" />
      <path
         id="path1952"
         d="m 165.96258,231.54386 c -0.0854,-0.2225 0.20608,-1.0841 0.6477,-1.91467 0.44162,-0.83057 0.80294,-1.9159 0.80294,-2.41185 0,-0.94172 0.60469,-1.40071 1.42875,-1.08449 0.26194,0.10052 0.47625,0.49735 0.47625,0.88186 0,0.3845 0.20977,0.97643 0.46615,1.3154 0.25639,0.33897 0.4707,0.9092 0.47625,1.26719 0.006,0.35798 0.18869,0.83194 0.40697,1.05324 0.31801,0.32242 0.28363,0.48603 -0.17303,0.82333 -0.75738,0.55941 -4.32304,0.61448 -4.53198,0.07 z m 3.04811,-0.86981 c 0.4904,-0.91632 0.0883,-2.52138 -0.63168,-2.52138 -0.70111,0 -1.63316,1.94713 -1.02853,2.14867 0.20913,0.0697 0.38024,0.32915 0.38024,0.57654 0,0.67949 0.88243,0.53897 1.27997,-0.20383 z"
         style="fill:#e0e0e0;stroke-width:0.3175" />
      <path
         id="path1950"
         d="m 165.96258,231.54386 c -0.0854,-0.2225 0.20608,-1.0841 0.6477,-1.91467 0.44162,-0.83057 0.80294,-1.9159 0.80294,-2.41185 0,-0.53987 0.20726,-0.98127 0.51649,-1.09993 0.63242,-0.24268 1.38851,0.33504 1.38851,1.06095 0,0.29449 0.20977,0.81278 0.46615,1.15175 0.25639,0.33897 0.4707,0.9092 0.47625,1.26719 0.006,0.35798 0.18869,0.83194 0.40697,1.05324 0.31801,0.32242 0.28363,0.48603 -0.17303,0.82333 -0.75738,0.55941 -4.32304,0.61448 -4.53198,0.07 z m 3.04811,-0.86981 c 0.4904,-0.91632 0.0883,-2.52138 -0.63168,-2.52138 -0.70111,0 -1.63316,1.94713 -1.02853,2.14867 0.20913,0.0697 0.38024,0.32915 0.38024,0.57654 0,0.67949 0.88243,0.53897 1.27997,-0.20383 z"
         style="fill:#dfdfdf;stroke-width:0.3175" />
      <path
         id="path1948"
         d="m 166.16251,231.65709 c -0.37705,-0.23303 -0.31037,-0.55411 0.39901,-1.9214 0.46843,-0.90289 0.8517,-2.04178 0.8517,-2.53085 0,-0.52833 0.20962,-0.96967 0.51649,-1.08743 0.63242,-0.24268 1.38851,0.33504 1.38851,1.06095 0,0.29449 0.20977,0.81278 0.46615,1.15175 0.25639,0.33897 0.4707,0.9092 0.47625,1.26719 0.006,0.35798 0.18869,0.83194 0.40697,1.05324 0.31802,0.32242 0.28328,0.48628 -0.17478,0.82461 -0.64903,0.47937 -3.64535,0.60526 -4.3303,0.18194 z m 2.84818,-0.98304 c 0.4904,-0.91632 0.0883,-2.52138 -0.63168,-2.52138 -0.70111,0 -1.63316,1.94713 -1.02853,2.14867 0.20913,0.0697 0.38024,0.32915 0.38024,0.57654 0,0.67949 0.88243,0.53897 1.27997,-0.20383 z"
         style="fill:#dedede;stroke-width:0.3175" />
      <path
         id="path1946"
         d="m 166.1404,231.64342 c -0.34674,-0.21429 -0.26474,-0.58577 0.42112,-1.90773 0.46843,-0.90289 0.8517,-2.04178 0.8517,-2.53085 0,-0.52833 0.20962,-0.96967 0.51649,-1.08743 0.63242,-0.24268 1.38851,0.33504 1.38851,1.06095 0,0.29449 0.20977,0.81278 0.46615,1.15175 0.25639,0.33897 0.4707,0.9092 0.47625,1.26719 0.006,0.35798 0.18869,0.83194 0.40697,1.05324 0.31799,0.3224 0.28572,0.4845 -0.16236,0.81553 -0.62677,0.46303 -3.70051,0.58793 -4.36483,0.17735 z m 2.87029,-0.96937 c 0.4904,-0.91632 0.0883,-2.52138 -0.63168,-2.52138 -0.70111,0 -1.63316,1.94713 -1.02853,2.14867 0.20913,0.0697 0.38024,0.32915 0.38024,0.57654 0,0.67949 0.88243,0.53897 1.27997,-0.20383 z"
         style="fill:#dddddd;stroke-width:0.3175" />
      <path
         id="path1944"
         d="m 166.16464,231.65875 c -0.38,-0.23514 -0.31471,-0.5515 0.39688,-1.92306 0.46843,-0.90289 0.8517,-2.04178 0.8517,-2.53085 0,-0.52833 0.20962,-0.96967 0.51649,-1.08743 0.63242,-0.24268 1.38851,0.33504 1.38851,1.06095 0,0.29449 0.20977,0.81278 0.46615,1.15175 0.25639,0.33897 0.4707,0.9092 0.47625,1.26719 0.006,0.35798 0.18155,0.82232 0.3911,1.03187 0.64599,0.64599 -0.19527,1.11185 -2.19528,1.21567 -1.01033,0.0524 -2.04164,-0.0313 -2.2918,-0.18609 z m 2.84605,-0.9847 c 0.4904,-0.91632 0.0883,-2.52138 -0.63168,-2.52138 -0.70111,0 -1.63316,1.94713 -1.02853,2.14867 0.20913,0.0697 0.38024,0.32915 0.38024,0.57654 0,0.67949 0.88243,0.53897 1.27997,-0.20383 z"
         style="fill:#d9d9d9;stroke-width:0.3175" />
      <path
         id="path1942"
         d="m 166.16464,231.65875 c -0.38,-0.23514 -0.31471,-0.5515 0.39688,-1.92306 0.46843,-0.90289 0.8517,-2.04178 0.8517,-2.53085 0,-0.52833 0.20962,-0.96967 0.51649,-1.08743 0.60729,-0.23304 1.38851,0.32581 1.38851,0.99327 0,0.25727 0.1945,0.847 0.43223,1.3105 0.81332,1.58577 1.126,2.88711 0.74959,3.11974 -0.55072,0.34036 -3.83166,0.42954 -4.3354,0.11783 z m 2.84605,-0.9847 c 0.19239,-0.35949 0.2557,-1.08208 0.14068,-1.60575 -0.16127,-0.73425 -0.36021,-0.92979 -0.86939,-0.85451 -0.75991,0.11236 -1.53656,1.88586 -0.91639,2.09259 0.20082,0.0669 0.36513,0.32411 0.36513,0.5715 0,0.67949 0.88243,0.53897 1.27997,-0.20383 z"
         style="fill:#d7d7d7;stroke-width:0.3175" />
      <path
         id="path1940"
         d="m 166.16464,231.65875 c -0.38,-0.23514 -0.31471,-0.5515 0.39688,-1.92306 0.46843,-0.90289 0.8517,-2.04178 0.8517,-2.53085 0,-0.52833 0.20962,-0.96967 0.51649,-1.08743 0.60729,-0.23304 1.38851,0.32581 1.38851,0.99327 0,0.25727 0.1945,0.847 0.43223,1.3105 0.81332,1.58577 1.126,2.88711 0.74959,3.11974 -0.55072,0.34036 -3.83166,0.42954 -4.3354,0.11783 z m 2.88318,-1.10142 c 0.48968,-1.07472 0.10474,-2.40466 -0.69601,-2.40466 -0.88465,0 -1.42645,1.46967 -0.90263,2.44845 0.5044,0.94247 1.15742,0.92458 1.59864,-0.0438 z"
         style="fill:#d2d2d2;stroke-width:0.3175" />
      <path
         id="path1938"
         d="m 166.15553,231.65278 c -0.36748,-0.22712 -0.29623,-0.56361 0.40599,-1.91709 0.46843,-0.90289 0.8517,-2.04178 0.8517,-2.53085 0,-0.52833 0.20962,-0.96967 0.51649,-1.08743 0.60729,-0.23304 1.38851,0.32581 1.38851,0.99327 0,0.25727 0.1945,0.847 0.43223,1.3105 0.23773,0.46351 0.57903,1.29789 0.75846,1.85419 0.27013,0.83751 0.23675,1.05096 -0.1941,1.24124 -0.79781,0.35234 -3.658,0.44598 -4.15928,0.13617 z m 2.89229,-1.09545 c 0.48968,-1.07472 0.10474,-2.40466 -0.69601,-2.40466 -0.88465,0 -1.42645,1.46967 -0.90263,2.44845 0.5044,0.94247 1.15742,0.92458 1.59864,-0.0438 z"
         style="fill:#d1d1d1;stroke-width:0.3175" />
      <path
         id="path1936"
         d="m 166.15553,231.65278 c -0.36748,-0.22712 -0.29623,-0.56361 0.40599,-1.91709 0.46843,-0.90289 0.8517,-2.04178 0.8517,-2.53085 0,-0.52833 0.20962,-0.96967 0.51649,-1.08743 0.63242,-0.24268 1.38851,0.33504 1.38851,1.06095 0,0.29449 0.20977,0.81278 0.46615,1.15175 0.25639,0.33897 0.4707,1.00078 0.47625,1.4707 0.006,0.46991 0.17132,0.95403 0.36837,1.07581 0.60616,0.37462 -0.70235,0.90197 -2.43113,0.97977 -0.87813,0.0395 -1.79718,-0.0521 -2.04233,-0.20361 z m 2.89229,-1.09545 c 0.48968,-1.07472 0.10474,-2.40466 -0.69601,-2.40466 -0.88465,0 -1.42645,1.46967 -0.90263,2.44845 0.5044,0.94247 1.15742,0.92458 1.59864,-0.0438 z"
         style="fill:#d0d0d0;stroke-width:0.3175" />
      <path
         id="path1934"
         d="m 166.15553,231.65278 c -0.36748,-0.22712 -0.29623,-0.56361 0.40599,-1.91709 0.46843,-0.90289 0.8517,-1.96813 0.8517,-2.36719 0,-1.01804 0.79815,-1.64418 1.42875,-1.12083 0.26194,0.21739 0.47625,0.6362 0.47625,0.93069 0,0.29449 0.20977,0.81278 0.46615,1.15175 0.25639,0.33897 0.4707,1.00078 0.47625,1.4707 0.006,0.46991 0.17132,0.95403 0.36837,1.07581 0.60616,0.37462 -0.70235,0.90197 -2.43113,0.97977 -0.87813,0.0395 -1.79718,-0.0521 -2.04233,-0.20361 z m 2.89229,-1.09545 c 0.48932,-1.07393 0.10473,-2.40466 -0.69496,-2.40466 -0.94012,0 -1.47994,1.37169 -0.93819,2.38396 0.53634,1.00216 1.18224,1.01035 1.63315,0.0207 z"
         style="fill:#cfcfcf;stroke-width:0.3175" />
      <path
         id="path1932"
         d="m 166.12552,231.63423 c -0.32635,-0.20169 -0.23264,-0.60978 0.436,-1.89854 0.46843,-0.90289 0.8517,-1.96813 0.8517,-2.36719 0,-1.01804 0.79815,-1.64418 1.42875,-1.12083 0.26194,0.21739 0.47625,0.6362 0.47625,0.93069 0,0.29449 0.20977,0.81278 0.46615,1.15175 0.25639,0.33897 0.4707,1.00078 0.47625,1.4707 0.006,0.46991 0.17132,0.95403 0.36837,1.07581 0.61575,0.38055 -0.7157,0.89935 -2.46114,0.95897 -0.89464,0.0306 -1.81368,-0.06 -2.04233,-0.20136 z m 2.9223,-1.0769 c 0.48932,-1.07393 0.10473,-2.40466 -0.69496,-2.40466 -0.94012,0 -1.47994,1.37169 -0.93819,2.38396 0.53634,1.00216 1.18224,1.01035 1.63315,0.0207 z"
         style="fill:#cccccc;stroke-width:0.3175" />
      <path
         id="path1930"
         d="m 166.12102,231.63145 c -0.33185,-0.20509 -0.24016,-0.59051 0.436,-1.83283 0.47091,-0.86523 0.8562,-1.92921 0.8562,-2.36442 0,-1.0742 0.78179,-1.72346 1.42875,-1.18653 0.26194,0.21739 0.47625,0.6362 0.47625,0.93069 0,0.29449 0.20977,0.81278 0.46615,1.15175 0.25639,0.33897 0.4707,1.00078 0.47625,1.4707 0.006,0.46991 0.17132,0.95403 0.36837,1.07581 0.61575,0.38055 -0.7157,0.89935 -2.46114,0.95897 -0.89464,0.0306 -1.81571,-0.0613 -2.04683,-0.20414 z m 2.9268,-1.07412 c 0.48932,-1.07393 0.10473,-2.40466 -0.69496,-2.40466 -0.94012,0 -1.47994,1.37169 -0.93819,2.38396 0.53634,1.00216 1.18224,1.01035 1.63315,0.0207 z"
         style="fill:#c6c6c6;stroke-width:0.3175" />
      <path
         id="path1928"
         d="m 166.12102,231.63145 c -0.33185,-0.20509 -0.24016,-0.59051 0.436,-1.83283 0.47091,-0.86523 0.8562,-1.92921 0.8562,-2.36442 0,-0.9955 0.82167,-1.76186 1.33676,-1.24677 0.38726,0.38726 1.14866,2.27832 1.43045,3.55274 0.0965,0.43656 0.30285,0.95566 0.4585,1.15355 0.18244,0.23195 0.0827,0.44661 -0.28073,0.60413 -0.80522,0.349 -3.73898,0.4415 -4.23718,0.1336 z m 2.9268,-1.07412 c 0.48932,-1.07393 0.10473,-2.40466 -0.69496,-2.40466 -0.94012,0 -1.47994,1.37169 -0.93819,2.38396 0.53634,1.00216 1.18224,1.01035 1.63315,0.0207 z"
         style="fill:#c3c3c3;stroke-width:0.3175" />
      <path
         id="path1926"
         d="m 166.12102,231.63145 c -0.33185,-0.20509 -0.24016,-0.59051 0.436,-1.83283 0.47091,-0.86523 0.8562,-1.92921 0.8562,-2.36442 0,-1.0742 0.78179,-1.72346 1.42875,-1.18653 0.26194,0.21739 0.48079,0.69923 0.48635,1.07075 0.006,0.37153 0.21986,0.95284 0.47625,1.29181 0.25638,0.33897 0.46615,0.93776 0.46615,1.33064 0,0.39288 0.16122,0.81397 0.35827,0.93575 0.61575,0.38055 -0.7157,0.89935 -2.46114,0.95897 -0.89464,0.0306 -1.81571,-0.0613 -2.04683,-0.20414 z m 2.9268,-1.07412 c 0.48932,-1.07393 0.10473,-2.40466 -0.69496,-2.40466 -0.94012,0 -1.47994,1.37169 -0.93819,2.38396 0.53634,1.00216 1.18224,1.01035 1.63315,0.0207 z"
         style="fill:#c1c1c1;stroke-width:0.3175" />
      <path
         id="path1924"
         d="m 166.12102,231.63145 c -0.33185,-0.20509 -0.24016,-0.59051 0.436,-1.83283 0.47091,-0.86523 0.8562,-1.92921 0.8562,-2.36442 0,-1.0742 0.78179,-1.72346 1.42875,-1.18653 0.26194,0.21739 0.48079,0.69923 0.48635,1.07075 0.006,0.37153 0.21986,0.95284 0.47625,1.29181 0.25638,0.33897 0.46615,0.93776 0.46615,1.33064 0,0.39288 0.16122,0.81397 0.35827,0.93575 0.61575,0.38055 -0.7157,0.89935 -2.46114,0.95897 -0.89464,0.0306 -1.81571,-0.0613 -2.04683,-0.20414 z m 3.06682,-1.09753 c 0.30749,-1.22512 -0.0979,-2.38125 -0.83498,-2.38125 -0.94012,0 -1.47994,1.37169 -0.93819,2.38396 0.55235,1.03208 1.51382,1.03061 1.77317,-0.003 z"
         style="fill:#c0c0c0;stroke-width:0.3175" />
      <path
         id="path1922"
         d="m 166.12102,231.63145 c -0.33185,-0.20509 -0.24016,-0.59051 0.436,-1.83283 0.47091,-0.86523 0.8562,-1.91813 0.8562,-2.33979 0,-0.42166 0.16476,-0.93142 0.36614,-1.1328 0.52977,-0.52977 1.5365,0.0972 1.54896,0.96469 0.006,0.38676 0.21986,0.98054 0.47625,1.31951 0.25638,0.33897 0.46615,0.93776 0.46615,1.33064 0,0.39288 0.16122,0.81397 0.35827,0.93575 0.61575,0.38055 -0.7157,0.89935 -2.46114,0.95897 -0.89464,0.0306 -1.81571,-0.0613 -2.04683,-0.20414 z m 3.06682,-1.09753 c 0.30749,-1.22512 -0.0979,-2.38125 -0.83498,-2.38125 -0.94012,0 -1.47994,1.37169 -0.93819,2.38396 0.55235,1.03208 1.51382,1.03061 1.77317,-0.003 z"
         style="fill:#bfbfbf;stroke-width:0.3175" />
      <path
         id="path1920"
         d="m 166.38134,231.71731 c -0.74573,-0.15931 -0.7066,-0.41986 0.33055,-2.20129 0.48739,-0.83716 0.83278,-1.77899 0.76753,-2.09298 -0.0652,-0.31398 0.051,-0.77532 0.25842,-1.0252 0.52081,-0.62754 1.57716,-0.0345 1.59048,0.89288 0.006,0.38676 0.21986,0.98054 0.47625,1.31951 0.25638,0.33897 0.46615,0.93776 0.46615,1.33064 0,0.39288 0.16122,0.81397 0.35827,0.93575 0.93131,0.57558 -2.40119,1.23514 -4.24765,0.84069 z m 2.8065,-1.18339 c 0.30749,-1.22512 -0.0979,-2.38125 -0.83498,-2.38125 -0.94012,0 -1.47994,1.37169 -0.93819,2.38396 0.55235,1.03208 1.51382,1.03061 1.77317,-0.003 z"
         style="fill:#bebebe;stroke-width:0.3175" />
      <path
         id="path1918"
         d="m 166.38134,231.71731 c -0.74813,-0.15983 -0.7069,-0.42262 0.34659,-2.20935 0.49622,-0.84158 0.86152,-1.80741 0.81178,-2.14629 -0.0497,-0.33887 0.0593,-0.79659 0.24238,-1.01715 0.48082,-0.57935 1.53357,0.0649 1.54623,0.9462 0.006,0.38676 0.21986,0.98054 0.47625,1.31951 0.25638,0.33897 0.46615,0.93776 0.46615,1.33064 0,0.39288 0.16122,0.81397 0.35827,0.93575 0.93131,0.57558 -2.40119,1.23514 -4.24765,0.84069 z m 2.8065,-1.18339 c 0.30749,-1.22512 -0.0979,-2.38125 -0.83498,-2.38125 -0.94012,0 -1.47994,1.37169 -0.93819,2.38396 0.55235,1.03208 1.51382,1.03061 1.77317,-0.003 z"
         style="fill:#bcbcbc;stroke-width:0.3175" />
      <path
         id="path1916"
         d="m 166.38134,231.71731 c -0.74813,-0.15983 -0.7069,-0.42262 0.34659,-2.20935 0.49622,-0.84158 0.86152,-1.80741 0.81178,-2.14629 -0.0497,-0.33887 0.0593,-0.79659 0.24238,-1.01715 0.48082,-0.57935 1.53357,0.0649 1.54623,0.9462 0.006,0.38676 0.21986,0.98054 0.47625,1.31951 0.25638,0.33897 0.46615,0.93776 0.46615,1.33064 0,0.39288 0.16122,0.81397 0.35827,0.93575 0.93131,0.57558 -2.40119,1.23514 -4.24765,0.84069 z m 2.84269,-1.10401 c 0.44152,-0.98458 -0.0961,-2.46063 -0.89618,-2.46063 -0.91501,0 -1.44648,1.38747 -0.91318,2.38396 0.52682,0.98436 1.386,1.02077 1.80936,0.0767 z"
         style="fill:#b9b9b9;stroke-width:0.3175" />
      <path
         id="path1914"
         d="m 166.38134,231.71731 c -0.73682,-0.15741 -0.70812,-0.35587 0.31461,-2.17527 0.47863,-0.85147 0.87153,-1.90531 0.87312,-2.34187 0.002,-0.63423 0.16242,-0.79375 0.79665,-0.79375 0.60273,0 0.82039,0.18886 0.90443,0.78478 0.0609,0.43162 0.31091,1.07063 0.55563,1.42002 0.24472,0.34938 0.44494,0.95221 0.44494,1.33961 0,0.3874 0.16122,0.80401 0.35827,0.92579 0.93131,0.57558 -2.40119,1.23514 -4.24765,0.84069 z m 2.84269,-1.10401 c 0.44152,-0.98458 -0.0961,-2.46063 -0.89618,-2.46063 -0.91501,0 -1.44648,1.38747 -0.91318,2.38396 0.52682,0.98436 1.386,1.02077 1.80936,0.0767 z"
         style="fill:#b5b5b5;stroke-width:0.3175" />
      <path
         id="path1912"
         d="m 166.38134,231.71731 c -0.73682,-0.15741 -0.70812,-0.35587 0.31461,-2.17527 0.47863,-0.85147 0.87153,-1.90531 0.87312,-2.34187 0.002,-0.63423 0.16242,-0.79375 0.79665,-0.79375 0.60273,0 0.82039,0.18886 0.90443,0.78478 0.0609,0.43162 0.31091,1.07063 0.55563,1.42002 0.24472,0.34938 0.44494,0.95221 0.44494,1.33961 0,0.3874 0.16122,0.80401 0.35827,0.92579 0.93131,0.57558 -2.40119,1.23514 -4.24765,0.84069 z m 2.9035,-1.10237 c 0.37027,-1.00095 -0.19768,-2.46227 -0.95699,-2.46227 -0.91501,0 -1.44648,1.38747 -0.91318,2.38396 0.52681,0.98436 1.51962,1.02593 1.87017,0.0783 z"
         style="fill:#b3b3b3;stroke-width:0.3175" />
      <path
         id="path1910"
         d="m 166.38134,231.71731 c -0.73682,-0.15741 -0.70812,-0.35587 0.31461,-2.17527 0.47863,-0.85147 0.87153,-1.90531 0.87312,-2.34187 0.002,-0.63423 0.16242,-0.79375 0.79665,-0.79375 0.60273,0 0.82039,0.18886 0.90443,0.78478 0.0609,0.43162 0.31091,1.07063 0.55563,1.42002 0.24472,0.34938 0.44494,0.95221 0.44494,1.33961 0,0.3874 0.16122,0.80401 0.35827,0.92579 0.93131,0.57558 -2.40119,1.23514 -4.24765,0.84069 z m 2.93736,-1.18465 c 0.67845,-1.78447 -1.18758,-3.28864 -1.96449,-1.58353 -0.28107,0.6169 -0.26744,0.9748 0.0605,1.5875 0.54709,1.02225 1.51463,1.02023 1.90403,-0.004 z"
         style="fill:#b2b2b2;stroke-width:0.3175" />
      <path
         id="path1908"
         d="m 166.38134,231.71731 c -0.73714,-0.15748 -0.70818,-0.35641 0.3167,-2.17527 0.47977,-0.85147 0.87778,-1.90531 0.88446,-2.34187 0.01,-0.62865 0.17489,-0.79375 0.79456,-0.79375 0.59067,0 0.80953,0.19232 0.89309,0.78478 0.0609,0.43162 0.31091,1.07063 0.55563,1.42002 0.24472,0.34938 0.44494,0.95221 0.44494,1.33961 0,0.3874 0.16122,0.80401 0.35827,0.92579 0.93131,0.57558 -2.40119,1.23514 -4.24765,0.84069 z m 2.93736,-1.18465 c 0.67845,-1.78447 -1.18758,-3.28864 -1.96449,-1.58353 -0.28107,0.6169 -0.26744,0.9748 0.0605,1.5875 0.54709,1.02225 1.51463,1.02023 1.90403,-0.004 z"
         style="fill:#b1b1b1;stroke-width:0.3175" />
      <path
         id="path1906"
         d="m 166.38134,231.71731 c -0.73471,-0.15696 -0.70494,-0.38921 0.25952,-2.02411 0.44833,-0.75998 0.71905,-1.04329 0.6016,-0.62957 -0.27177,0.95731 0.41204,2.26404 1.18477,2.26404 1.43154,0 1.26621,-3.02965 -0.17671,-3.23799 -0.47059,-0.0679 -0.66286,-0.32627 -0.66205,-0.88951 9.2e-4,-0.63231 0.16078,-0.79375 0.78607,-0.79375 0.59335,0 0.81195,0.19155 0.89561,0.78478 0.0609,0.43162 0.31091,1.07063 0.55563,1.42002 0.24472,0.34938 0.44494,0.95221 0.44494,1.33961 0,0.3874 0.16122,0.80401 0.35827,0.92579 0.93131,0.57558 -2.40119,1.23514 -4.24765,0.84069 z"
         style="fill:#afafaf;stroke-width:0.3175" />
      <path
         id="path1904"
         d="m 166.38134,231.71731 c -0.55134,-0.11779 -0.77431,-0.87453 -0.3175,-1.07756 0.13097,-0.0582 0.48958,-0.60589 0.7969,-1.21708 0.32467,-0.64567 0.47695,-0.7961 0.36348,-0.35904 -0.25033,0.96413 0.44039,2.26404 1.20301,2.26404 1.43154,0 1.26621,-3.02965 -0.17671,-3.23799 -0.47059,-0.0679 -0.66286,-0.32627 -0.66205,-0.88951 9.2e-4,-0.63231 0.16078,-0.79375 0.78607,-0.79375 0.59335,0 0.81195,0.19155 0.89561,0.78478 0.0609,0.43162 0.31091,1.07063 0.55563,1.42002 0.24472,0.34938 0.44494,0.95221 0.44494,1.33961 0,0.3874 0.16122,0.80401 0.35827,0.92579 0.93131,0.57558 -2.40119,1.23514 -4.24765,0.84069 z"
         style="fill:#adadad;stroke-width:0.3175" />
      <path
         id="path1902"
         d="m 166.38134,231.71731 c -0.55134,-0.11779 -0.77431,-0.87453 -0.3175,-1.07756 0.13097,-0.0582 0.48958,-0.60589 0.7969,-1.21708 0.32467,-0.64567 0.47695,-0.7961 0.36348,-0.35904 -0.45486,1.75186 1.47289,3.10394 2.09448,1.46903 0.37692,-0.99139 -0.18723,-2.37999 -0.96693,-2.37999 -0.69235,0 -1.05828,-1.56148 -0.42306,-1.80524 0.72858,-0.27959 1.38892,0.15549 1.39961,0.92215 0.006,0.39839 0.21986,1.00168 0.47625,1.34065 0.25638,0.33897 0.46615,0.93776 0.46615,1.33064 0,0.39288 0.16122,0.81397 0.35827,0.93575 0.93131,0.57558 -2.40119,1.23514 -4.24765,0.84069 z"
         style="fill:#acacac;stroke-width:0.3175" />
      <path
         id="path1900"
         d="m 166.38134,231.71741 c -0.55135,-0.11789 -0.7743,-0.87463 -0.3175,-1.07766 0.13097,-0.0582 0.48958,-0.60589 0.7969,-1.21708 0.32467,-0.64567 0.47695,-0.7961 0.36348,-0.35904 -0.45486,1.75186 1.47289,3.10394 2.09448,1.46903 0.37692,-0.99139 -0.18723,-2.37999 -0.96693,-2.37999 -0.69235,0 -1.05828,-1.56148 -0.42306,-1.80524 0.72858,-0.27959 1.38892,0.15549 1.39961,0.92215 0.006,0.39839 0.21986,1.00168 0.47625,1.34065 0.25638,0.33897 0.46615,0.93776 0.46615,1.33064 0,0.39288 0.16122,0.81397 0.35827,0.93575 0.9073,0.56074 -2.44964,1.22522 -4.24765,0.84079 z"
         style="fill:#a9a9a9;stroke-width:0.3175" />
      <path
         id="path1898"
         d="m 166.38134,231.71741 c -0.55135,-0.11789 -0.7743,-0.87463 -0.3175,-1.07766 0.13097,-0.0582 0.48958,-0.60589 0.7969,-1.21708 0.32467,-0.64567 0.47695,-0.7961 0.36348,-0.35904 -0.45486,1.75186 1.47289,3.10394 2.09448,1.46903 0.3936,-1.03524 -0.19457,-2.37999 -1.04097,-2.37999 -0.45967,0 -0.57895,-0.16106 -0.459,-0.61978 0.0892,-0.34087 -10e-4,-0.68143 -0.20109,-0.75678 -0.21481,-0.081 -0.13619,-0.23084 0.19245,-0.36669 0.82824,-0.34238 1.50682,0.0421 1.51823,0.86016 0.006,0.39839 0.21986,1.00168 0.47625,1.34065 0.25638,0.33897 0.46615,0.93776 0.46615,1.33064 0,0.39288 0.16122,0.81397 0.35827,0.93575 0.9073,0.56074 -2.44964,1.22522 -4.24765,0.84079 z"
         style="fill:#a8a8a8;stroke-width:0.3175" />
      <path
         id="path1896"
         d="m 166.38134,231.71741 c -0.55135,-0.11789 -0.7743,-0.87463 -0.3175,-1.07766 0.13097,-0.0582 0.48958,-0.60589 0.7969,-1.21708 0.32467,-0.64567 0.47695,-0.7961 0.36348,-0.35904 -0.45459,1.75085 1.47281,3.10416 2.094,1.47029 0.41995,-1.10455 -0.10637,-2.38125 -0.98167,-2.38125 -0.51801,0 -0.6413,-0.14757 -0.51782,-0.61978 0.0892,-0.34087 -10e-4,-0.68143 -0.20109,-0.75678 -0.21481,-0.081 -0.13619,-0.23084 0.19245,-0.36669 0.82824,-0.34238 1.50682,0.0421 1.51823,0.86016 0.006,0.39839 0.21986,1.00168 0.47625,1.34065 0.25638,0.33897 0.46615,0.93776 0.46615,1.33064 0,0.39288 0.16122,0.81397 0.35827,0.93575 0.9073,0.56074 -2.44964,1.22522 -4.24765,0.84079 z"
         style="fill:#a7a7a7;stroke-width:0.3175" />
      <path
         id="path1894"
         d="m 166.38134,231.71741 c -0.55135,-0.11789 -0.7743,-0.87463 -0.3175,-1.07766 0.13097,-0.0582 0.48958,-0.60589 0.7969,-1.21708 0.32467,-0.64567 0.47695,-0.7961 0.36348,-0.35904 -0.10742,0.41371 -0.0133,1.09237 0.20925,1.50812 0.91577,1.71114 2.52855,0.19921 1.85341,-1.73752 -0.25492,-0.73124 -0.46629,-0.89251 -0.99027,-0.75548 -0.55359,0.14477 -0.63657,0.061 -0.49099,-0.49571 0.0964,-0.36846 0.0118,-0.73158 -0.18798,-0.80693 -0.21481,-0.081 -0.13619,-0.23084 0.19245,-0.36669 0.82824,-0.34238 1.50682,0.0421 1.51823,0.86016 0.006,0.39839 0.21986,1.00168 0.47625,1.34065 0.25638,0.33897 0.46615,0.93776 0.46615,1.33064 0,0.39288 0.16122,0.81397 0.35827,0.93575 0.9073,0.56074 -2.44964,1.22522 -4.24765,0.84079 z"
         style="fill:#a3a3a3;stroke-width:0.3175" />
      <path
         id="path1892"
         d="m 166.38134,231.71741 c -0.55135,-0.11789 -0.7743,-0.87463 -0.3175,-1.07766 0.13097,-0.0582 0.48958,-0.60589 0.7969,-1.21708 0.32467,-0.64567 0.47695,-0.7961 0.36348,-0.35904 -0.45211,1.74128 1.47204,3.10617 2.08948,1.48217 0.43084,-1.1332 -0.1623,-2.69058 -0.94661,-2.48548 -0.49176,0.12859 -0.59082,-0.016 -0.56772,-0.82844 0.0371,-1.30389 1.09001,-1.38719 1.40428,-0.11108 0.11826,0.48021 0.38932,1.15887 0.60236,1.50812 0.59107,0.969 0.81795,2.63919 0.39408,2.90115 -0.40492,0.25026 -2.94229,0.37473 -3.81875,0.18734 z"
         style="fill:#9e9e9e;stroke-width:0.3175" />
      <path
         id="path1890"
         d="m 166.38134,231.71741 c -0.55135,-0.11789 -0.7743,-0.87463 -0.3175,-1.07766 0.13097,-0.0582 0.48958,-0.60589 0.7969,-1.21708 0.32467,-0.64567 0.47695,-0.7961 0.36348,-0.35904 -0.45211,1.74128 1.47204,3.10617 2.08948,1.48217 0.43084,-1.1332 -0.1623,-2.69058 -0.94661,-2.48548 -0.49176,0.12859 -0.59082,-0.016 -0.56772,-0.82844 0.0371,-1.30552 1.09511,-1.38996 1.39182,-0.11108 0.11142,0.48021 0.37695,1.15887 0.59007,1.50812 0.60116,0.98514 0.84017,2.64075 0.41883,2.90115 -0.40492,0.25026 -2.94229,0.37473 -3.81875,0.18734 z"
         style="fill:#9c9c9c;stroke-width:0.3175" />
      <path
         id="path1888"
         d="m 166.54009,231.70246 c -0.65972,-0.0937 -1.05885,-1.00979 -0.43995,-1.00979 0.15093,0 0.5042,-0.53578 0.78506,-1.19062 0.28085,-0.65485 0.42809,-0.85214 0.32718,-0.43842 -0.42743,1.75244 1.48555,3.10177 2.10132,1.48217 0.43084,-1.1332 -0.1623,-2.69058 -0.94661,-2.48548 -0.49176,0.12859 -0.59082,-0.016 -0.56772,-0.82844 0.0371,-1.30552 1.09511,-1.38996 1.39182,-0.11108 0.11142,0.48021 0.37695,1.15887 0.59007,1.50812 0.60917,0.99827 0.84009,2.6408 0.40874,2.90739 -0.39702,0.24537 -2.43793,0.33828 -3.64991,0.16615 z"
         style="fill:#9b9b9b;stroke-width:0.3175" />
      <path
         id="path1886"
         d="m 166.46418,231.58432 c -0.62926,-0.23278 -0.89827,-0.89165 -0.36404,-0.89165 0.15093,0 0.5042,-0.53578 0.78506,-1.19062 0.28085,-0.65485 0.42809,-0.85214 0.32718,-0.43842 -0.42743,1.75244 1.48555,3.10177 2.10132,1.48217 0.43084,-1.1332 -0.1623,-2.69058 -0.94661,-2.48548 -0.49176,0.12859 -0.59082,-0.016 -0.56772,-0.82844 0.0371,-1.30552 1.09511,-1.38996 1.39182,-0.11108 0.11142,0.48021 0.37695,1.15887 0.59007,1.50812 0.60917,0.99827 0.84009,2.6408 0.40874,2.90739 -0.50492,0.31205 -2.92764,0.34327 -3.72582,0.048 z"
         style="fill:#9a9a9a;stroke-width:0.3175" />
      <path
         id="path1884"
         d="m 166.46418,231.58432 c -0.62926,-0.23278 -0.89827,-0.89165 -0.36404,-0.89165 0.15093,0 0.49581,-0.53578 0.7664,-1.19062 0.46985,-1.13703 0.48464,-1.14591 0.3286,-0.19726 -0.0928,0.56398 -0.0101,1.08811 0.19127,1.21256 0.19507,0.12056 0.27247,0.3522 0.172,0.51476 -0.10047,0.16256 0.18649,0.29556 0.63768,0.29556 1.05084,0 1.55681,-1.1566 1.09079,-2.49344 -0.23986,-0.68805 -0.47893,-0.8892 -0.91979,-0.77391 -0.49176,0.12859 -0.59082,-0.016 -0.56772,-0.82844 0.0371,-1.30552 1.09511,-1.38996 1.39182,-0.11108 0.11142,0.48021 0.37695,1.15887 0.59007,1.50812 0.60917,0.99827 0.84009,2.6408 0.40874,2.90739 -0.50492,0.31205 -2.92764,0.34327 -3.72582,0.048 z"
         style="fill:#999999;stroke-width:0.3175" />
      <path
         id="path1882"
         d="m 166.46418,231.58432 c -0.62926,-0.23278 -0.89827,-0.89165 -0.36404,-0.89165 0.15093,0 0.49581,-0.53578 0.7664,-1.19062 0.46985,-1.13703 0.48464,-1.14591 0.3286,-0.19726 -0.0928,0.56398 -0.0101,1.08811 0.19127,1.21256 0.19507,0.12056 0.27247,0.3522 0.172,0.51476 -0.10047,0.16256 0.18649,0.29556 0.63768,0.29556 1.05084,0 1.55681,-1.1566 1.09079,-2.49344 -0.23986,-0.68805 -0.47893,-0.8892 -0.91979,-0.77391 -0.49176,0.12859 -0.59082,-0.016 -0.56772,-0.82844 0.0371,-1.30552 1.09511,-1.38996 1.39182,-0.11108 0.11142,0.48021 0.37695,1.15887 0.59007,1.50812 0.60917,0.99827 0.84009,2.6408 0.40874,2.90739 -0.50492,0.31205 -2.92764,0.34327 -3.72582,0.048 z m 2.53654,-4.20666 c 0,-0.077 -0.14288,-0.22832 -0.3175,-0.33624 -0.17463,-0.10792 -0.3175,-0.0449 -0.3175,0.14001 0,0.18493 0.14287,0.33624 0.3175,0.33624 0.17462,0 0.3175,-0.063 0.3175,-0.14001 z"
         style="fill:#979797;stroke-width:0.3175" />
      <path
         id="path1880"
         d="m 166.49358,231.59519 c -0.59784,-0.22115 -0.59729,-0.24913 0.0297,-1.51642 0.70145,-1.41774 0.9199,-1.63305 0.66398,-0.65441 -0.0916,0.35018 -0.008,0.82767 0.18572,1.06109 0.19372,0.23342 0.25821,0.51841 0.14331,0.63331 -0.1149,0.1149 0.17562,0.20891 0.64561,0.20891 1.08612,0 1.59838,-1.1354 1.12497,-2.49344 -0.23986,-0.68805 -0.47893,-0.8892 -0.91979,-0.77391 -0.49176,0.12859 -0.59082,-0.016 -0.56772,-0.82844 0.0371,-1.30552 1.09511,-1.38996 1.39182,-0.11108 0.11142,0.48021 0.37695,1.15887 0.59007,1.50812 0.60917,0.99827 0.84009,2.6408 0.40874,2.90739 -0.49622,0.30668 -2.92209,0.34532 -3.69642,0.0589 z m 2.50714,-4.21753 c 0,-0.077 -0.14288,-0.22832 -0.3175,-0.33624 -0.17463,-0.10792 -0.3175,-0.0449 -0.3175,0.14001 0,0.18493 0.14287,0.33624 0.3175,0.33624 0.17462,0 0.3175,-0.063 0.3175,-0.14001 z"
         style="fill:#969696;stroke-width:0.3175" />
      <path
         id="path1878"
         d="m 166.69884,231.70689 c -0.65563,-0.12777 -0.6878,-0.57645 -0.11538,-1.60897 l 0.41773,-0.75351 0.24036,0.75351 c 0.13219,0.41442 0.22489,0.86066 0.20601,0.99163 -0.0189,0.13096 0.32638,0.23812 0.76727,0.23812 1.03153,0 1.53392,-1.1685 1.07205,-2.49344 -0.23986,-0.68805 -0.47893,-0.8892 -0.91979,-0.77391 -0.49176,0.12859 -0.59082,-0.016 -0.56772,-0.82844 0.0371,-1.30552 1.09511,-1.38996 1.39182,-0.11108 0.11142,0.48021 0.37695,1.15887 0.59007,1.50812 0.60917,0.99827 0.84009,2.6408 0.40874,2.90739 -0.39984,0.24711 -2.55749,0.35254 -3.49116,0.17058 z m 2.30188,-4.32923 c 0,-0.077 -0.14288,-0.22832 -0.3175,-0.33624 -0.17463,-0.10792 -0.3175,-0.0449 -0.3175,0.14001 0,0.18493 0.14287,0.33624 0.3175,0.33624 0.17462,0 0.3175,-0.063 0.3175,-0.14001 z"
         style="fill:#929292;stroke-width:0.3175" />
      <path
         id="path1876"
         d="m 166.69884,231.70689 c -0.65563,-0.12777 -0.6878,-0.57645 -0.11538,-1.60897 l 0.41773,-0.75351 0.24036,0.75351 c 0.13219,0.41442 0.22489,0.86066 0.20601,0.99163 -0.0189,0.13096 0.32638,0.23812 0.76727,0.23812 1.04678,0 1.53351,-1.16968 1.05633,-2.53851 -0.25701,-0.73728 -0.48099,-0.92995 -0.91931,-0.79084 -0.4778,0.15165 -0.57467,0.0142 -0.552,-0.78336 0.0367,-1.29052 1.09713,-1.36229 1.39134,-0.0942 0.11142,0.48021 0.37695,1.15887 0.59007,1.50812 0.60917,0.99827 0.84009,2.6408 0.40874,2.90739 -0.39984,0.24711 -2.55749,0.35254 -3.49116,0.17058 z m 2.30188,-4.32923 c 0,-0.077 -0.14288,-0.22832 -0.3175,-0.33624 -0.17463,-0.10792 -0.3175,-0.0449 -0.3175,0.14001 0,0.18493 0.14287,0.33624 0.3175,0.33624 0.17462,0 0.3175,-0.063 0.3175,-0.14001 z"
         style="fill:#919191;stroke-width:0.3175" />
      <path
         id="path1874"
         d="m 166.66714,231.70126 c -0.625,-0.12246 -0.64906,-0.58352 -0.0837,-1.60334 l 0.41773,-0.75351 0.24036,0.75351 c 0.13219,0.41442 0.22489,0.86066 0.20601,0.99163 -0.0799,0.55422 1.55353,0.19569 1.87898,-0.41243 0.52652,-0.9838 -0.17742,-2.93184 -0.96868,-2.6807 -0.4849,0.1539 -0.58078,0.0196 -0.55801,-0.78146 0.0367,-1.29052 1.09713,-1.36229 1.39134,-0.0942 0.11142,0.48021 0.37695,1.15887 0.59007,1.50812 0.56916,0.9327 0.84057,2.6405 0.4573,2.87738 -0.36451,0.22527 -2.75165,0.35559 -3.57142,0.19496 z m 2.33358,-4.3236 c 0,-0.077 -0.14288,-0.22832 -0.3175,-0.33624 -0.17463,-0.10792 -0.3175,-0.0449 -0.3175,0.14001 0,0.18493 0.14287,0.33624 0.3175,0.33624 0.17462,0 0.3175,-0.063 0.3175,-0.14001 z"
         style="fill:#8f8f8f;stroke-width:0.3175" />
      <path
         id="path1872"
         d="m 166.66714,231.70126 c -0.625,-0.12246 -0.64906,-0.58352 -0.0837,-1.60334 l 0.41773,-0.75351 0.24036,0.75351 c 0.13219,0.41442 0.22489,0.86066 0.20601,0.99163 -0.0189,0.13096 0.32591,0.23812 0.76622,0.23812 1.12424,0 1.65415,-1.21289 1.10701,-2.5338 -0.29886,-0.72151 -0.55258,-0.9277 -0.97613,-0.79327 -0.46929,0.14895 -0.56736,0.008 -0.54481,-0.78564 0.0367,-1.29052 1.09713,-1.36229 1.39134,-0.0942 0.11142,0.48021 0.37695,1.15887 0.59007,1.50812 0.56916,0.9327 0.84057,2.6405 0.4573,2.87738 -0.36451,0.22527 -2.75165,0.35559 -3.57142,0.19496 z m 2.33358,-4.3236 c 0,-0.077 -0.14288,-0.22832 -0.3175,-0.33624 -0.17463,-0.10792 -0.3175,-0.0449 -0.3175,0.14001 0,0.18493 0.14287,0.33624 0.3175,0.33624 0.17462,0 0.3175,-0.063 0.3175,-0.14001 z"
         style="fill:#8d8d8d;stroke-width:0.3175" />
      <path
         id="path1870"
         d="m 166.66714,231.70126 c -0.625,-0.12246 -0.64906,-0.58352 -0.0837,-1.60334 l 0.41773,-0.75351 0.24036,0.75351 c 0.13219,0.41442 0.22489,0.86066 0.20601,0.99163 -0.0189,0.13096 0.32591,0.23812 0.76622,0.23812 1.12424,0 1.65415,-1.21289 1.10701,-2.5338 -0.29886,-0.72151 -0.55258,-0.9277 -0.97613,-0.79327 -0.46929,0.14895 -0.56736,0.008 -0.54481,-0.78564 0.039,-1.37131 1.06197,-1.32679 1.48403,0.0646 0.17216,0.56753 0.54286,1.66086 0.82379,2.42964 0.32056,0.87725 0.39908,1.50945 0.21084,1.69769 -0.29909,0.29909 -2.65712,0.4892 -3.65137,0.29438 z m 2.33358,-4.3236 c 0,-0.077 -0.14288,-0.22832 -0.3175,-0.33624 -0.17463,-0.10792 -0.3175,-0.0449 -0.3175,0.14001 0,0.18493 0.14287,0.33624 0.3175,0.33624 0.17462,0 0.3175,-0.063 0.3175,-0.14001 z"
         style="fill:#8c8c8c;stroke-width:0.3175" />
      <path
         id="path1868"
         d="m 166.66714,231.70126 c -0.63749,-0.1249 -0.65227,-0.37111 -0.0876,-1.45955 l 0.43634,-0.84105 0.233,0.72538 c 0.12815,0.39896 0.21754,0.83254 0.19866,0.96351 -0.0189,0.13096 0.32591,0.23812 0.76622,0.23812 1.12424,0 1.65415,-1.21289 1.10701,-2.5338 -0.29886,-0.72151 -0.55258,-0.9277 -0.97613,-0.79327 -0.46929,0.14895 -0.56736,0.008 -0.54481,-0.78564 0.0382,-1.34363 0.98156,-1.3014 1.4426,0.0646 0.19155,0.56753 0.57951,1.66086 0.86213,2.42964 0.3225,0.87725 0.40217,1.50945 0.21393,1.69769 -0.29909,0.29909 -2.65712,0.4892 -3.65137,0.29438 z m 2.33358,-4.3236 c 0,-0.077 -0.14288,-0.22832 -0.3175,-0.33624 -0.17463,-0.10792 -0.3175,-0.0449 -0.3175,0.14001 0,0.18493 0.14287,0.33624 0.3175,0.33624 0.17462,0 0.3175,-0.063 0.3175,-0.14001 z"
         style="fill:#8a8a8a;stroke-width:0.3175" />
      <path
         id="path1866"
         d="m 166.66714,231.70126 c -0.63749,-0.1249 -0.65227,-0.37111 -0.0876,-1.45955 l 0.43634,-0.84105 0.233,0.72538 c 0.12815,0.39896 0.21754,0.83254 0.19866,0.96351 -0.0189,0.13096 0.32591,0.23812 0.76622,0.23812 1.12424,0 1.65415,-1.21289 1.10701,-2.5338 -0.29886,-0.72151 -0.55258,-0.9277 -0.97613,-0.79327 -0.46929,0.14895 -0.56736,0.008 -0.54481,-0.78564 0.0382,-1.34363 0.98156,-1.3014 1.4426,0.0646 0.19155,0.56753 0.57951,1.66086 0.86213,2.42964 0.3225,0.87725 0.40217,1.50945 0.21393,1.69769 -0.29909,0.29909 -2.65712,0.4892 -3.65137,0.29438 z m 2.33358,-4.3236 c 0,-0.33512 -0.60932,-0.47591 -0.79055,-0.18267 -0.10968,0.17747 0.0233,0.32268 0.29556,0.32268 0.27225,0 0.49499,-0.063 0.49499,-0.14001 z"
         style="fill:#898989;stroke-width:0.3175" />
      <path
         id="path1864"
         d="m 166.66714,231.70126 c -0.63601,-0.12461 -0.6829,-0.7989 -0.0898,-1.29113 0.32796,-0.27218 0.52141,-0.25513 0.791,0.0697 0.19628,0.2365 0.26286,0.52402 0.14796,0.63892 -0.1149,0.1149 0.17515,0.20891 0.64456,0.20891 1.17872,0 1.71984,-1.18205 1.15993,-2.5338 -0.29886,-0.72151 -0.55258,-0.9277 -0.97613,-0.79327 -0.46929,0.14895 -0.56736,0.008 -0.54481,-0.78564 0.0382,-1.34363 0.98156,-1.3014 1.4426,0.0646 0.19155,0.56753 0.57951,1.66086 0.86213,2.42964 0.3225,0.87725 0.40217,1.50945 0.21393,1.69769 -0.29909,0.29909 -2.65712,0.4892 -3.65137,0.29438 z m 2.33358,-4.3236 c 0,-0.33512 -0.60932,-0.47591 -0.79055,-0.18267 -0.10968,0.17747 0.0233,0.32268 0.29556,0.32268 0.27225,0 0.49499,-0.063 0.49499,-0.14001 z"
         style="fill:#868686;stroke-width:0.3175" />
      <path
         id="path1862"
         d="m 166.66714,231.70126 c -0.63601,-0.12461 -0.6829,-0.7989 -0.0898,-1.29113 0.32796,-0.27218 0.52141,-0.25513 0.791,0.0697 0.19628,0.2365 0.26286,0.52402 0.14796,0.63892 -0.1149,0.1149 0.17515,0.20891 0.64456,0.20891 1.17872,0 1.71984,-1.18205 1.15993,-2.5338 -0.29886,-0.72151 -0.55258,-0.9277 -0.97613,-0.79327 -0.46929,0.14895 -0.56736,0.008 -0.54481,-0.78564 0.0205,-0.71915 0.17801,-0.96729 0.61419,-0.96729 0.73575,0 0.74592,0.27883 0.031,0.85082 -0.52097,0.41684 -0.51602,0.43845 0.0794,0.34647 0.46459,-0.0718 0.76994,0.20174 1.13782,1.01918 0.75697,1.68198 0.97293,2.79701 0.58783,3.03501 -0.37372,0.23097 -2.75123,0.36509 -3.58298,0.20211 z"
         style="fill:#848484;stroke-width:0.3175" />
      <path
         id="path1860"
         d="m 166.69884,231.72204 c -0.66371,-0.14744 -0.72516,-0.81091 -0.1215,-1.31191 0.33021,-0.27404 0.52952,-0.24535 0.83263,0.11988 0.21918,0.26409 0.27385,0.48235 0.1215,0.48502 -0.15235,0.003 -0.0864,0.12567 0.1465,0.27332 0.35299,0.22376 0.35299,0.29248 0,0.41279 -0.23293,0.0794 -0.67353,0.0888 -0.97913,0.0209 z m 2.14313,-0.0944 c -0.34925,-0.14042 -0.45334,-0.26534 -0.23132,-0.27761 0.22203,-0.0123 0.5635,-0.37307 0.75882,-0.80176 0.45053,-0.9888 -0.19015,-2.76578 -0.95121,-2.63832 -0.34259,0.0574 -0.52503,-0.19277 -0.57554,-0.78911 -0.0574,-0.67789 0.0638,-0.87313 0.54202,-0.87313 0.76412,0 0.78441,0.27839 0.0603,0.82803 -0.51824,0.3934 -0.5108,0.42245 0.11053,0.43187 0.64192,0.01 1.33604,1.15494 1.87071,3.08639 0.23388,0.84486 -0.63842,1.41395 -1.58436,1.03364 z"
         style="fill:#838383;stroke-width:0.3175" />
      <path
         id="path1858"
         d="m 166.69884,231.72204 c -0.66371,-0.14744 -0.72516,-0.81091 -0.1215,-1.31191 0.33021,-0.27404 0.52952,-0.24535 0.83263,0.11988 0.21918,0.26409 0.27385,0.48235 0.1215,0.48502 -0.15235,0.003 -0.0864,0.12567 0.1465,0.27332 0.35299,0.22376 0.35299,0.29248 0,0.41279 -0.23293,0.0794 -0.67353,0.0888 -0.97913,0.0209 z m 2.14313,-0.0944 c -0.34925,-0.14042 -0.45334,-0.26534 -0.23132,-0.27761 0.22203,-0.0123 0.5635,-0.37307 0.75882,-0.80176 0.45053,-0.9888 -0.19015,-2.76578 -0.95121,-2.63832 -0.34259,0.0574 -0.52503,-0.19277 -0.57554,-0.78911 -0.0574,-0.67789 0.0638,-0.87313 0.54202,-0.87313 0.76412,0 0.78441,0.27839 0.0603,0.82803 -0.51824,0.3934 -0.5108,0.42245 0.11053,0.43187 0.64192,0.01 1.33604,1.15494 1.87071,3.08639 0.23388,0.84486 -0.63842,1.41395 -1.58436,1.03364 z"
         style="fill:#7f7f7f;stroke-width:0.3175" />
      <path
         id="path1856"
         d="m 166.69884,231.72204 c -0.66371,-0.14744 -0.72516,-0.81091 -0.1215,-1.31191 0.33021,-0.27404 0.52952,-0.24535 0.83263,0.11988 0.21918,0.26409 0.27385,0.48235 0.1215,0.48502 -0.15235,0.003 -0.0864,0.12567 0.1465,0.27332 0.35299,0.22376 0.35299,0.29248 0,0.41279 -0.23293,0.0794 -0.67353,0.0888 -0.97913,0.0209 z m 2.14313,-0.0944 c -0.34925,-0.14042 -0.45334,-0.26534 -0.23132,-0.27761 0.22203,-0.0123 0.5635,-0.37307 0.75882,-0.80176 0.45053,-0.9888 -0.19015,-2.76578 -0.95121,-2.63832 -0.34259,0.0574 -0.52503,-0.19277 -0.57554,-0.78911 -0.0574,-0.67789 0.0638,-0.87313 0.54202,-0.87313 0.76412,0 0.78441,0.27839 0.0603,0.82803 -0.51824,0.3934 -0.5108,0.42245 0.11053,0.43187 0.64192,0.01 1.33604,1.15494 1.87071,3.08639 0.23388,0.84486 -0.63842,1.41395 -1.58436,1.03364 z"
         style="fill:#7e7e7e;stroke-width:0.3175" />
      <path
         id="path1854"
         d="m 166.69884,231.72478 c -0.66965,-0.15206 -0.72346,-0.81506 -0.10764,-1.32615 0.34508,-0.28639 0.50713,-0.27708 0.70545,0.0405 0.62056,0.99374 0.38143,1.50801 -0.59781,1.28565 z m 2.4064,0.0182 c -0.2666,-0.096 -0.22772,-0.38486 0.13745,-1.02113 0.43597,-0.75963 0.44937,-1.03161 0.0932,-1.89155 -0.25426,-0.61385 -0.61104,-0.97169 -0.9176,-0.92035 -0.34259,0.0574 -0.52503,-0.19277 -0.57554,-0.78911 -0.0574,-0.67789 0.0638,-0.87313 0.54202,-0.87313 0.76412,0 0.78441,0.27839 0.0603,0.82803 -0.51824,0.3934 -0.5108,0.42245 0.11053,0.43187 0.64192,0.01 1.33604,1.15494 1.87071,3.08639 0.20191,0.72937 -0.58534,1.41405 -1.32109,1.14898 z"
         style="fill:#7d7d7d;stroke-width:0.3175" />
      <path
         id="path1852"
         d="m 166.69884,231.72478 c -0.66965,-0.15206 -0.72346,-0.81506 -0.10764,-1.32615 0.34508,-0.28639 0.50713,-0.27708 0.70545,0.0405 0.62056,0.99374 0.38143,1.50801 -0.59781,1.28565 z m 2.38948,0.0125 c -0.2893,-0.10389 -0.258,-0.33897 0.12243,-0.91959 0.67219,-1.02589 0.23157,-2.82346 -0.69233,-2.82445 -0.44325,-4.7e-4 -0.6343,-0.24485 -0.6826,-0.87312 -0.0519,-0.67487 0.0725,-0.87247 0.54892,-0.87247 0.76412,0 0.78441,0.27839 0.0603,0.82803 -0.51824,0.3934 -0.5108,0.42245 0.11053,0.43187 0.64192,0.01 1.33604,1.15494 1.87071,3.08639 0.20394,0.7367 -0.58738,1.41289 -1.33801,1.14334 z"
         style="fill:#7c7c7c;stroke-width:0.3175" />
      <path
         id="path1850"
         d="m 166.69884,231.72478 c -0.66965,-0.15206 -0.72346,-0.81506 -0.10764,-1.32615 0.34508,-0.28639 0.50713,-0.27708 0.70545,0.0405 0.62056,0.99374 0.38143,1.50801 -0.59781,1.28565 z m 2.38948,0.0125 c -0.2893,-0.10389 -0.258,-0.33897 0.12243,-0.91959 0.62664,-0.95637 0.23274,-2.82138 -0.59725,-2.82784 -0.28625,-0.002 -0.6258,-0.10938 -0.75454,-0.23812 -0.12874,-0.12875 0.12523,-0.23408 0.56437,-0.23408 0.78866,0 1.41971,0.96918 2.003,3.07629 0.20394,0.7367 -0.58738,1.41289 -1.33801,1.14334 z m -1.16781,-4.77067 c -0.38219,-0.3822 -0.17366,-0.71896 0.44521,-0.71896 0.34925,0 0.635,0.12759 0.635,0.28353 0,0.35688 -0.82586,0.68978 -1.08021,0.43543 z"
         style="fill:#7a7a7a;stroke-width:0.3175" />
      <path
         id="path1848"
         d="m 169.08832,231.7373 c -0.2893,-0.10389 -0.258,-0.33897 0.12243,-0.91959 0.62664,-0.95637 0.23274,-2.82138 -0.59725,-2.82784 -0.28625,-0.002 -0.6258,-0.10938 -0.75454,-0.23812 -0.12874,-0.12875 0.12399,-0.23408 0.56163,-0.23408 0.84812,0 1.39744,0.82262 1.85916,2.78412 0.19109,0.81182 0.13027,1.09638 -0.27924,1.30648 -0.28795,0.14773 -0.69843,0.20579 -0.91219,0.12903 z m -2.9451,-0.5295 c 0,-0.70479 0.84265,-1.26635 1.15343,-0.76867 0.50254,0.80475 0.37352,1.20604 -0.38777,1.20604 -0.43867,0 -0.76566,-0.18679 -0.76566,-0.43737 z m 1.77729,-4.24117 c -0.38219,-0.3822 -0.17366,-0.71896 0.44521,-0.71896 0.34925,0 0.635,0.12759 0.635,0.28353 0,0.35688 -0.82586,0.68978 -1.08021,0.43543 z"
         style="fill:#797979;stroke-width:0.3175" />
      <path
         id="path1846"
         d="m 169.08832,231.72997 c -0.28862,-0.0982 -0.2571,-0.33302 0.12243,-0.91226 0.62664,-0.95637 0.23274,-2.82138 -0.59725,-2.82784 -0.28625,-0.002 -0.6258,-0.10938 -0.75454,-0.23812 -0.12874,-0.12875 0.12399,-0.23408 0.56163,-0.23408 0.84082,0 1.39667,0.8215 1.84683,2.72948 0.24241,1.02743 -0.34529,1.76651 -1.1791,1.48282 z m -2.88466,-0.64042 c 0.13919,-0.72272 1.28325,-0.72272 1.38932,0 0.059,0.40197 -0.13662,0.55562 -0.70738,0.55562 -0.58047,0 -0.76067,-0.14682 -0.68194,-0.55562 z m 1.52706,-4.52438 c 0,-0.17462 0.28575,-0.3175 0.635,-0.3175 0.34925,0 0.635,0.14288 0.635,0.3175 0,0.17463 -0.28575,0.3175 -0.635,0.3175 -0.34925,0 -0.635,-0.14287 -0.635,-0.3175 z"
         style="fill:#777777;stroke-width:0.3175" />
      <path
         id="path1844"
         d="m 166.20366,231.08955 c 0.13919,-0.72272 1.28325,-0.72272 1.38932,0 0.059,0.40197 -0.13662,0.55562 -0.70738,0.55562 -0.58047,0 -0.76067,-0.14682 -0.68194,-0.55562 z m 2.98349,-0.23582 c 0.34564,-0.52751 0.44647,-1.08337 0.30235,-1.66687 -0.16227,-0.65703 -0.12524,-0.78611 0.14843,-0.51738 0.20056,0.19693 0.4794,0.86683 0.61965,1.48867 0.26119,1.15808 0.0109,1.48702 -1.1314,1.48702 -0.38216,0 -0.37211,-0.13047 0.061,-0.79144 z m -1.33973,-3.0866 c -0.0848,-0.1372 0.21144,-0.24946 0.65831,-0.24946 0.44687,0 0.81249,0.11226 0.81249,0.24946 0,0.13721 -0.29624,0.24947 -0.65831,0.24947 -0.36207,0 -0.72769,-0.11226 -0.81249,-0.24947 z m -0.1167,-1.20196 c 0,-0.17462 0.28575,-0.3175 0.635,-0.3175 0.34925,0 0.635,0.14288 0.635,0.3175 0,0.17463 -0.28575,0.3175 -0.635,0.3175 -0.34925,0 -0.635,-0.14287 -0.635,-0.3175 z"
         style="fill:#767676;stroke-width:0.3175" />
      <path
         id="path1842"
         d="m 166.20296,231.09319 c 0.1546,-0.80278 1.09539,-0.87408 1.29823,-0.0984 0.13765,0.52637 0.02,0.65037 -0.61722,0.65037 -0.57694,0 -0.75891,-0.14749 -0.68101,-0.55198 z m 2.98419,-0.23946 c 0.34564,-0.52751 0.44647,-1.08337 0.30235,-1.66687 -0.16227,-0.65703 -0.12524,-0.78611 0.14843,-0.51738 0.20056,0.19693 0.4794,0.86683 0.61965,1.48867 0.26119,1.15808 0.0109,1.48702 -1.1314,1.48702 -0.38216,0 -0.37211,-0.13047 0.061,-0.79144 z m -1.33973,-3.0866 c -0.0848,-0.1372 0.13157,-0.24946 0.48082,-0.24946 0.34925,0 0.70438,0.11226 0.78918,0.24946 0.0848,0.13721 -0.13157,0.24947 -0.48082,0.24947 -0.34925,0 -0.70438,-0.11226 -0.78918,-0.24947 z m -0.1167,-1.20196 c 0,-0.17462 0.28575,-0.3175 0.635,-0.3175 0.34925,0 0.635,0.14288 0.635,0.3175 0,0.17463 -0.28575,0.3175 -0.635,0.3175 -0.34925,0 -0.635,-0.14287 -0.635,-0.3175 z"
         style="fill:#747474;stroke-width:0.3175" />
      <path
         id="path1840"
         d="m 166.20296,231.09319 c 0.1546,-0.80278 1.09539,-0.87408 1.29823,-0.0984 0.13765,0.52637 0.02,0.65037 -0.61722,0.65037 -0.57694,0 -0.75891,-0.14749 -0.68101,-0.55198 z m 2.98419,-0.23946 c 0.34564,-0.52751 0.44647,-1.08337 0.30235,-1.66687 -0.16227,-0.65703 -0.12524,-0.78611 0.14843,-0.51738 0.20056,0.19693 0.4794,0.86683 0.61965,1.48867 0.26119,1.15808 0.0109,1.48702 -1.1314,1.48702 -0.38216,0 -0.37211,-0.13047 0.061,-0.79144 z m -1.33973,-3.0866 c -0.0848,-0.1372 0.13157,-0.24946 0.48082,-0.24946 0.34925,0 0.70438,0.11226 0.78918,0.24946 0.0848,0.13721 -0.13157,0.24947 -0.48082,0.24947 -0.34925,0 -0.70438,-0.11226 -0.78918,-0.24947 z m -0.1167,-1.20196 c 0,-0.41223 0.85648,-0.41223 1.11125,0 0.10792,0.17463 -0.098,0.3175 -0.45751,0.3175 -0.35956,0 -0.65374,-0.14287 -0.65374,-0.3175 z"
         style="fill:#717171;stroke-width:0.3175" />
      <path
         id="path1838"
         d="m 166.20296,231.09319 c 0.1546,-0.80278 1.09539,-0.87408 1.29823,-0.0984 0.13765,0.52637 0.02,0.65037 -0.61722,0.65037 -0.57694,0 -0.75891,-0.14749 -0.68101,-0.55198 z m 2.98419,-0.23946 c 0.34564,-0.52751 0.44647,-1.08337 0.30235,-1.66687 -0.32913,-1.33262 0.34425,-0.46449 0.72009,0.92835 0.32612,1.20855 0.0985,1.52996 -1.08341,1.52996 -0.38216,0 -0.37211,-0.13047 0.061,-0.79144 z m -1.33973,-3.0866 c -0.0848,-0.1372 0.13157,-0.24946 0.48082,-0.24946 0.34925,0 0.70438,0.11226 0.78918,0.24946 0.0848,0.13721 -0.13157,0.24947 -0.48082,0.24947 -0.34925,0 -0.70438,-0.11226 -0.78918,-0.24947 z m -0.1167,-1.20196 c 0,-0.41223 0.85648,-0.41223 1.11125,0 0.10792,0.17463 -0.098,0.3175 -0.45751,0.3175 -0.35956,0 -0.65374,-0.14287 -0.65374,-0.3175 z"
         style="fill:#6f6f6f;stroke-width:0.3175" />
      <path
         id="path1836"
         d="m 166.20296,231.09319 c 0.1546,-0.80278 1.09539,-0.87408 1.29823,-0.0984 0.13765,0.52637 0.02,0.65037 -0.61722,0.65037 -0.57694,0 -0.75891,-0.14749 -0.68101,-0.55198 z m 2.98419,-0.23946 c 0.34564,-0.52751 0.44647,-1.08337 0.30235,-1.66687 -0.32913,-1.33262 0.34425,-0.46449 0.72009,0.92835 0.32612,1.20855 0.0985,1.52996 -1.08341,1.52996 -0.38216,0 -0.37211,-0.13047 0.061,-0.79144 z m -1.29768,-3.01856 c -0.10792,-0.17462 0.035,-0.3175 0.3175,-0.3175 0.28255,0 0.42542,0.14288 0.3175,0.3175 -0.10792,0.17463 -0.2508,0.3175 -0.3175,0.3175 -0.0667,0 -0.20958,-0.14287 -0.3175,-0.3175 z m -0.15875,-1.27 c 0,-0.41223 0.85648,-0.41223 1.11125,0 0.10792,0.17463 -0.098,0.3175 -0.45751,0.3175 -0.35956,0 -0.65374,-0.14287 -0.65374,-0.3175 z"
         style="fill:#6e6e6e;stroke-width:0.3175" />
      <path
         id="path1834"
         d="m 166.19931,231.11586 c 0.15446,-0.79639 0.80794,-0.86425 1.20358,-0.12498 0.31202,0.58299 0.25993,0.65429 -0.47803,0.65429 -0.60246,0 -0.80022,-0.14427 -0.72555,-0.52931 z m 3.14438,-0.33142 c 0.17998,-0.4734 0.23777,-1.2235 0.12842,-1.66688 -0.31628,-1.28238 0.37434,-0.34812 0.73748,0.99765 0.25504,0.94515 0.22534,1.20335 -0.15521,1.34938 -0.87764,0.33678 -1.03872,0.18262 -0.71069,-0.68015 z m -1.355,-3.16616 c 0.22919,-0.0917 0.50304,-0.0804 0.60854,0.0251 0.1055,0.1055 -0.082,0.18054 -0.41672,0.16675 -0.36987,-0.0152 -0.4451,-0.0905 -0.19182,-0.19182 z m -0.25797,-1.05311 c 0,-0.41223 0.85648,-0.41223 1.11125,0 0.10792,0.17463 -0.098,0.3175 -0.45751,0.3175 -0.35956,0 -0.65374,-0.14287 -0.65374,-0.3175 z"
         style="fill:#6d6d6d;stroke-width:0.3175" />
      <path
         id="path1832"
         d="m 166.19931,231.11586 c 0.15446,-0.79639 0.80794,-0.86425 1.20358,-0.12498 0.31202,0.58299 0.25993,0.65429 -0.47803,0.65429 -0.60246,0 -0.80022,-0.14427 -0.72555,-0.52931 z m 3.14438,-0.33142 c 0.17998,-0.4734 0.23777,-1.2235 0.12842,-1.66688 -0.31628,-1.28238 0.37434,-0.34812 0.73748,0.99765 0.25504,0.94515 0.22534,1.20335 -0.15521,1.34938 -0.87764,0.33678 -1.03872,0.18262 -0.71069,-0.68015 z m -1.61297,-4.21927 c 0,-0.41223 0.85648,-0.41223 1.11125,0 0.10792,0.17463 -0.098,0.3175 -0.45751,0.3175 -0.35956,0 -0.65374,-0.14287 -0.65374,-0.3175 z"
         style="fill:#6c6c6c;stroke-width:0.3175" />
      <path
         id="path1830"
         d="m 166.19931,231.11586 c 0.15446,-0.79639 0.80794,-0.86425 1.20358,-0.12498 0.31202,0.58299 0.25993,0.65429 -0.47803,0.65429 -0.60246,0 -0.80022,-0.14427 -0.72555,-0.52931 z m 3.14438,-0.33142 c 0.17998,-0.4734 0.23777,-1.2235 0.12842,-1.66688 -0.31628,-1.28238 0.37434,-0.34812 0.73748,0.99765 0.25504,0.94515 0.22534,1.20335 -0.15521,1.34938 -0.87764,0.33678 -1.03872,0.18262 -0.71069,-0.68015 z m -1.61297,-4.21927 c 0,-0.41223 0.85648,-0.41223 1.11125,0 0.10792,0.17463 -0.098,0.3175 -0.45751,0.3175 -0.35956,0 -0.65374,-0.14287 -0.65374,-0.3175 z"
         style="fill:#6b6b6b;stroke-width:0.3175" />
      <path
         id="path1828"
         d="m 166.19931,231.11586 c 0.15446,-0.79639 0.80794,-0.86425 1.20358,-0.12498 0.31202,0.58299 0.25993,0.65429 -0.47803,0.65429 -0.60246,0 -0.80022,-0.14427 -0.72555,-0.52931 z m 3.14438,-0.33142 c 0.17998,-0.4734 0.23777,-1.2235 0.12842,-1.66688 -0.31628,-1.28238 0.37434,-0.34812 0.73748,0.99765 0.25504,0.94515 0.22534,1.20335 -0.15521,1.34938 -0.87764,0.33678 -1.03872,0.18262 -0.71069,-0.68015 z m -1.61297,-4.21927 c 0,-0.41223 0.85648,-0.41223 1.11125,0 0.10792,0.17463 -0.098,0.3175 -0.45751,0.3175 -0.35956,0 -0.65374,-0.14287 -0.65374,-0.3175 z"
         style="fill:#6a6a6a;stroke-width:0.3175" />
      <path
         id="path1826"
         d="m 166.28487,231.30001 c -0.27707,-0.44832 0.33487,-1.06026 0.78319,-0.78319 0.50356,0.31122 0.4222,1.12835 -0.11235,1.12835 -0.25163,0 -0.55351,-0.15532 -0.67084,-0.34516 z m 3.08434,-0.61713 c 0.1845,-0.52925 0.2565,-1.26421 0.16,-1.63323 -0.0979,-0.37422 -0.0559,-0.54541 0.0948,-0.38709 0.14863,0.15612 0.41215,0.80982 0.58561,1.45265 0.25504,0.94515 0.22534,1.20335 -0.15521,1.34938 -0.8825,0.33864 -1.02075,0.18092 -0.68517,-0.78171 z m -1.63849,-4.11771 c 0,-0.41223 0.85648,-0.41223 1.11125,0 0.10792,0.17463 -0.098,0.3175 -0.45751,0.3175 -0.35956,0 -0.65374,-0.14287 -0.65374,-0.3175 z"
         style="fill:#696969;stroke-width:0.3175" />
      <path
         id="path1824"
         d="m 166.28487,231.30001 c -0.27707,-0.44832 0.33487,-1.06026 0.78319,-0.78319 0.50356,0.31122 0.4222,1.12835 -0.11235,1.12835 -0.25163,0 -0.55351,-0.15532 -0.67084,-0.34516 z m 3.08434,-0.61713 c 0.1845,-0.52925 0.2565,-1.26421 0.16,-1.63323 -0.0979,-0.37422 -0.0559,-0.54541 0.0948,-0.38709 0.14863,0.15612 0.41215,0.80982 0.58561,1.45265 0.25504,0.94515 0.22534,1.20335 -0.15521,1.34938 -0.8825,0.33864 -1.02075,0.18092 -0.68517,-0.78171 z m -1.38449,-4.18121 c 0.29633,-0.29633 0.46567,-0.29633 0.762,0 0.29633,0.29633 0.21167,0.381 -0.381,0.381 -0.59267,0 -0.67733,-0.0847 -0.381,-0.381 z"
         style="fill:#686868;stroke-width:0.3175" />
      <path
         id="path1822"
         d="m 166.28003,231.29217 c -0.23934,-0.38727 0.47373,-0.96959 0.87991,-0.71856 0.1393,0.0861 0.25328,0.36242 0.25328,0.61405 0,0.53877 -0.81817,0.61423 -1.13319,0.10451 z m 3.16685,-1.06832 c 0.23305,-1.00446 0.39545,-1.27606 0.53135,-0.88864 0.34423,0.98133 0.15467,2.13907 -0.36662,2.23916 -0.43509,0.0835 -0.45657,-0.0926 -0.16473,-1.35052 z m -1.44599,-3.73835 c 0.24029,-0.24029 0.47192,-0.25774 0.67855,-0.0511 0.20663,0.20663 0.0821,0.33117 -0.36483,0.36483 -0.51106,0.0385 -0.5885,-0.0389 -0.31372,-0.31372 z"
         style="fill:#676767;stroke-width:0.3175" />
      <path
         id="path1820"
         d="m 166.28003,231.29217 c -0.23934,-0.38727 0.47373,-0.96959 0.87991,-0.71856 0.1393,0.0861 0.25328,0.36242 0.25328,0.61405 0,0.53877 -0.81817,0.61423 -1.13319,0.10451 z m 3.15725,-0.63919 c 0.10914,-0.5457 0.21306,-1.22436 0.23094,-1.50812 0.0179,-0.28377 0.15587,-0.0159 0.30666,0.59531 0.30696,1.24419 0.179,1.905 -0.36888,1.905 -0.24188,0 -0.29945,-0.33854 -0.16872,-0.99219 z m -1.38906,-4.08781 c 0,-0.17462 0.15131,-0.3175 0.33624,-0.3175 0.18493,0 0.24793,0.14288 0.14001,0.3175 -0.10792,0.17463 -0.25923,0.3175 -0.33624,0.3175 -0.077,0 -0.14001,-0.14287 -0.14001,-0.3175 z"
         style="fill:#666666;stroke-width:0.3175" />
      <path
         id="path1818"
         d="m 166.46072,231.32281 c -0.41446,-0.27208 -0.41643,-0.35111 -0.0152,-0.60919 0.55334,-0.35588 0.96766,-0.15291 0.96766,0.47404 0,0.53243 -0.28558,0.57295 -0.9525,0.13515 z m 2.97488,-0.39201 c 0.1053,-0.39291 0.20568,-1.00013 0.22307,-1.34938 0.0222,-0.44502 0.118,-0.35003 0.32031,0.3175 0.32267,1.06461 0.17811,1.74625 -0.37033,1.74625 -0.22305,0 -0.2902,-0.27721 -0.17305,-0.71437 z"
         style="fill:#656565;stroke-width:0.3175" />
      <path
         id="path1816"
         d="m 166.46072,231.32281 c -0.41446,-0.27208 -0.41643,-0.35111 -0.0152,-0.60919 0.55334,-0.35588 0.96766,-0.15291 0.96766,0.47404 0,0.53243 -0.28558,0.57295 -0.9525,0.13515 z m 2.98228,-0.17986 c 0.106,-0.27622 0.205,-0.88344 0.22001,-1.34937 l 0.0273,-0.84716 0.28868,0.9525 c 0.32206,1.0626 0.17827,1.74625 -0.36726,1.74625 -0.19914,0 -0.2749,-0.22551 -0.16872,-0.50222 z"
         style="fill:#646464;stroke-width:0.3175" />
      <path
         id="path1814"
         d="m 166.54009,231.4349 c -0.62217,-0.25106 -0.46459,-0.74223 0.23813,-0.74223 0.35278,0 0.635,0.21167 0.635,0.47625 0,0.48925 -0.18222,0.54476 -0.87313,0.26598 z m 2.90153,-0.28835 c 0.10675,-0.2782 0.1941,-0.64544 0.1941,-0.81609 0,-0.17064 0.14287,-0.22196 0.3175,-0.11404 0.48886,0.30214 0.37635,1.02073 -0.1941,1.23963 -0.37445,0.14369 -0.45957,0.0607 -0.3175,-0.3095 z"
         style="fill:#636363;stroke-width:0.3175" />
    </g>
  </g>
</svg>
