<?xml version="1.0" encoding="UTF-8" standalone="no"?>
<svg
   xmlns:dc="http://purl.org/dc/elements/1.1/"
   xmlns:cc="http://creativecommons.org/ns#"
   xmlns:rdf="http://www.w3.org/1999/02/22-rdf-syntax-ns#"
   xmlns:svg="http://www.w3.org/2000/svg"
   xmlns="http://www.w3.org/2000/svg"
   id="svg1756"
   version="1.1"
   viewBox="0 0 48 48"
   height="29.230101mm"
   width="55.802921mm">
  <defs
     id="defs1750" />
  <metadata
     id="metadata1753">
    <rdf:RDF>
      <cc:Work
         rdf:about="">
        <dc:format>image/svg+xml</dc:format>
        <dc:type
           rdf:resource="http://purl.org/dc/dcmitype/StillImage" />
        <dc:title></dc:title>
      </cc:Work>
    </rdf:RDF>
  </metadata>
  <g
     transform="translate(-144.09868,-124.52094)"
     id="layer1">
    <g
       transform="matrix(8.369392,0,0,8.369392,-1289.1253,-1812.69)"
       id="g1711">
      <path
         id="path1799"
         d="m 173.42446,234.48001 c -0.10418,-0.27147 -0.57771,-0.47625 -1.10129,-0.47625 -0.70686,0 -0.91853,-0.14633 -0.91853,-0.635 0,-0.45448 0.21167,-0.635 0.74454,-0.635 0.4095,0 1.00314,-0.28575 1.31921,-0.635 0.31607,-0.34925 0.81613,-0.635 1.11125,-0.635 0.29512,0 0.79518,0.28575 1.11125,0.635 0.31607,0.34925 0.90971,0.635 1.31921,0.635 0.53287,0 0.74454,0.18052 0.74454,0.635 0,0.48867 -0.21167,0.635 -0.91853,0.635 -0.52358,0 -0.99711,0.20478 -1.10129,0.47625 -0.24211,0.63093 -2.06825,0.63093 -2.31036,0 z m 1.47268,-1.11125 c 0,-0.17463 -0.14288,-0.3175 -0.3175,-0.3175 -0.17463,0 -0.3175,0.14287 -0.3175,0.3175 0,0.17462 0.14287,0.3175 0.3175,0.3175 0.17462,0 0.3175,-0.14288 0.3175,-0.3175 z"
         style="fill:#fdfdfd;stroke-width:0.3175" />
      <path
         id="path1797"
         d="m 173.51375,234.48001 c -0.26194,-0.26194 -0.84365,-0.47625 -1.29268,-0.47625 -0.60476,0 -0.81643,-0.16463 -0.81643,-0.635 0,-0.46567 0.21167,-0.635 0.79375,-0.635 0.43656,0 1.0795,-0.28575 1.42875,-0.635 0.79579,-0.79579 1.10921,-0.79579 1.905,0 0.34925,0.34925 0.99219,0.635 1.42875,0.635 0.58208,0 0.79375,0.16933 0.79375,0.635 0,0.47037 -0.21167,0.635 -0.81643,0.635 -0.44903,0 -1.03074,0.21431 -1.29268,0.47625 -0.26193,0.26194 -0.74159,0.47625 -1.06589,0.47625 -0.3243,0 -0.80396,-0.21431 -1.06589,-0.47625 z m 1.38339,-1.11125 c 0,-0.17463 -0.14288,-0.3175 -0.3175,-0.3175 -0.17463,0 -0.3175,0.14287 -0.3175,0.3175 0,0.17462 0.14287,0.3175 0.3175,0.3175 0.17462,0 0.3175,-0.14288 0.3175,-0.3175 z"
         style="fill:#fcfcfc;stroke-width:0.3175" />
      <path
         id="path1795"
         d="m 173.51375,234.48001 c -0.26194,-0.26194 -0.84365,-0.47625 -1.29268,-0.47625 -0.60476,0 -0.81643,-0.16463 -0.81643,-0.635 0,-0.46845 0.21167,-0.635 0.80703,-0.635 0.44386,0 1.11374,-0.28575 1.48861,-0.635 0.84252,-0.78492 0.9162,-0.78492 1.75872,0 0.37487,0.34925 1.04475,0.635 1.48861,0.635 0.59536,0 0.80703,0.16655 0.80703,0.635 0,0.47037 -0.21167,0.635 -0.81643,0.635 -0.44903,0 -1.03074,0.21431 -1.29268,0.47625 -0.26193,0.26194 -0.74159,0.47625 -1.06589,0.47625 -0.3243,0 -0.80396,-0.21431 -1.06589,-0.47625 z m 1.52858,-1.08931 c 0.23481,-0.37992 -0.36247,-0.75636 -0.78537,-0.49499 -0.35508,0.21945 -0.12197,0.79055 0.32268,0.79055 0.15401,0 0.36222,-0.133 0.46269,-0.29556 z"
         style="fill:#fbfbfb;stroke-width:0.3175" />
      <path
         id="path1793"
         d="m 173.76819,234.51132 c -0.34939,-0.24472 -0.98694,-0.49475 -1.41678,-0.55563 -1.12317,-0.15906 -1.2568,-1.22193 -0.15362,-1.22193 0.46184,0 1.05402,-0.21431 1.31596,-0.47625 0.60877,-0.60878 1.52301,-0.60878 2.13178,0 0.26194,0.26194 0.85412,0.47625 1.31596,0.47625 1.10318,0 0.96955,1.06287 -0.15362,1.22193 -0.42984,0.0609 -1.06739,0.31091 -1.41678,0.55563 -0.34938,0.24472 -0.71454,0.44494 -0.81145,0.44494 -0.0969,0 -0.46207,-0.20022 -0.81145,-0.44494 z m 1.36707,-1.22194 c -0.17125,-0.51375 -0.93999,-0.51375 -1.11125,0 -0.0787,0.23609 0.14641,0.39688 0.55563,0.39688 0.40922,0 0.63432,-0.16079 0.55562,-0.39688 z"
         style="fill:#fafafa;stroke-width:0.3175" />
      <path
         id="path1791"
         d="m 173.5405,234.32126 c -0.444,-0.34925 -1.1062,-0.635 -1.47156,-0.635 -0.37882,0 -0.6643,-0.20467 -0.6643,-0.47625 0,-0.29986 0.30238,-0.47625 0.81643,-0.47625 0.44903,0 1.03074,-0.21431 1.29268,-0.47625 0.60877,-0.60878 1.52301,-0.60878 2.13178,0 0.26194,0.26194 0.84365,0.47625 1.29268,0.47625 0.51405,0 0.81643,0.17639 0.81643,0.47625 0,0.27158 -0.28548,0.47625 -0.6643,0.47625 -0.36536,0 -1.02756,0.28575 -1.47156,0.635 -0.444,0.34925 -0.91161,0.635 -1.03914,0.635 -0.12753,0 -0.59514,-0.28575 -1.03914,-0.635 z m 1.59476,-1.03188 c -0.17125,-0.51375 -0.93999,-0.51375 -1.11125,0 -0.0787,0.23609 0.14641,0.39688 0.55563,0.39688 0.40922,0 0.63432,-0.16079 0.55562,-0.39688 z"
         style="fill:#f8f8f8;stroke-width:0.3175" />
      <path
         id="path1789"
         d="m 173.5405,234.32126 c -0.444,-0.34925 -1.1062,-0.635 -1.47156,-0.635 -0.37882,0 -0.6643,-0.20467 -0.6643,-0.47625 0,-0.313 0.31318,-0.47625 0.91362,-0.47625 0.5025,0 1.09149,-0.21431 1.30888,-0.47625 0.50637,-0.61014 1.39863,-0.61014 1.905,0 0.21739,0.26194 0.80638,0.47625 1.30888,0.47625 0.60044,0 0.91362,0.16325 0.91362,0.47625 0,0.27158 -0.28548,0.47625 -0.6643,0.47625 -0.36536,0 -1.02756,0.28575 -1.47156,0.635 -0.444,0.34925 -0.91161,0.635 -1.03914,0.635 -0.12753,0 -0.59514,-0.28575 -1.03914,-0.635 z m 1.59476,-1.03188 c -0.17125,-0.51375 -0.93999,-0.51375 -1.11125,0 -0.0787,0.23609 0.14641,0.39688 0.55563,0.39688 0.40922,0 0.63432,-0.16079 0.55562,-0.39688 z"
         style="fill:#f7f7f7;stroke-width:0.3175" />
      <path
         id="path1787"
         d="m 173.5405,234.32126 c -0.444,-0.34925 -1.1062,-0.635 -1.47156,-0.635 -0.37882,0 -0.6643,-0.20467 -0.6643,-0.47625 0,-0.313 0.31318,-0.47625 0.91362,-0.47625 0.5025,0 1.09149,-0.21431 1.30888,-0.47625 0.50637,-0.61014 1.39863,-0.61014 1.905,0 0.21739,0.26194 0.80638,0.47625 1.30888,0.47625 0.60044,0 0.91362,0.16325 0.91362,0.47625 0,0.27158 -0.28548,0.47625 -0.6643,0.47625 -0.36536,0 -1.02756,0.28575 -1.47156,0.635 -0.444,0.34925 -0.91161,0.635 -1.03914,0.635 -0.12753,0 -0.59514,-0.28575 -1.03914,-0.635 z m 1.53249,-0.66266 c 0.32719,-0.52941 -0.40869,-1.1365 -0.84669,-0.6985 -0.36637,0.36637 -0.13707,1.04366 0.35334,1.04366 0.15401,0 0.37602,-0.15532 0.49335,-0.34516 z"
         style="fill:#f5f5f5;stroke-width:0.3175" />
      <path
         id="path1785"
         d="m 173.30964,234.16251 c -0.21739,-0.26194 -0.73495,-0.47625 -1.15013,-0.47625 -0.45933,0 -0.75487,-0.18646 -0.75487,-0.47625 0,-0.313 0.31318,-0.47625 0.91362,-0.47625 0.5025,0 1.09149,-0.21431 1.30888,-0.47625 0.21739,-0.26194 0.64601,-0.47625 0.9525,-0.47625 0.30649,0 0.73511,0.21431 0.9525,0.47625 0.21739,0.26194 0.80638,0.47625 1.30888,0.47625 0.60044,0 0.91362,0.16325 0.91362,0.47625 0,0.28979 -0.29554,0.47625 -0.75487,0.47625 -0.41518,0 -0.93274,0.21431 -1.15013,0.47625 -0.21739,0.26194 -0.78889,0.47625 -1.27,0.47625 -0.48111,0 -1.05261,-0.21431 -1.27,-0.47625 z m 1.76335,-0.50391 c 0.32719,-0.52941 -0.40869,-1.1365 -0.84669,-0.6985 -0.36637,0.36637 -0.13707,1.04366 0.35334,1.04366 0.15401,0 0.37602,-0.15532 0.49335,-0.34516 z"
         style="fill:#f2f2f2;stroke-width:0.3175" />
      <path
         id="path1783"
         d="m 173.42446,234.16251 c -0.10418,-0.27147 -0.57771,-0.47625 -1.10129,-0.47625 -0.6048,0 -0.91853,-0.16266 -0.91853,-0.47625 0,-0.313 0.31318,-0.47625 0.91362,-0.47625 0.5025,0 1.09149,-0.21431 1.30888,-0.47625 0.50637,-0.61014 1.39863,-0.61014 1.905,0 0.21739,0.26194 0.80638,0.47625 1.30888,0.47625 0.60044,0 0.91362,0.16325 0.91362,0.47625 0,0.31359 -0.31373,0.47625 -0.91853,0.47625 -0.52358,0 -0.99711,0.20478 -1.10129,0.47625 -0.24211,0.63093 -2.06825,0.63093 -2.31036,0 z m 1.64853,-0.50391 c 0.32719,-0.52941 -0.40869,-1.1365 -0.84669,-0.6985 -0.36637,0.36637 -0.13707,1.04366 0.35334,1.04366 0.15401,0 0.37602,-0.15532 0.49335,-0.34516 z"
         style="fill:#f0f0f0;stroke-width:0.3175" />
      <path
         id="path1781"
         d="m 173.42446,234.16251 c -0.10418,-0.27147 -0.57771,-0.47625 -1.10129,-0.47625 -0.6048,0 -0.91853,-0.16266 -0.91853,-0.47625 0,-0.313 0.31318,-0.47625 0.91362,-0.47625 0.5025,0 1.09149,-0.21431 1.30888,-0.47625 0.50637,-0.61014 1.39863,-0.61014 1.905,0 0.21739,0.26194 0.80638,0.47625 1.30888,0.47625 0.60044,0 0.91362,0.16325 0.91362,0.47625 0,0.31359 -0.31373,0.47625 -0.91853,0.47625 -0.52358,0 -0.99711,0.20478 -1.10129,0.47625 -0.24211,0.63093 -2.06825,0.63093 -2.31036,0 z m 1.73409,-0.89944 c 0.0692,-0.35689 -0.11178,-0.52931 -0.55563,-0.52931 -0.36205,0 -0.65828,0.1905 -0.65828,0.42333 0,0.97242 1.02845,1.06221 1.21391,0.10598 z"
         style="fill:#e5e5e5;stroke-width:0.3175" />
      <path
         id="path1779"
         d="m 173.42446,234.16251 c -0.10581,-0.27572 -0.58065,-0.47625 -1.12775,-0.47625 -1.17424,0 -1.0557,-0.74956 0.14106,-0.89197 0.45397,-0.054 0.99623,-0.30406 1.20501,-0.55563 0.48665,-0.58638 1.38707,-0.58638 1.87372,0 0.20878,0.25157 0.75104,0.50161 1.20501,0.55563 1.19676,0.14241 1.3153,0.89197 0.14106,0.89197 -0.5471,0 -1.02194,0.20053 -1.12775,0.47625 -0.24211,0.63093 -2.06825,0.63093 -2.31036,0 z m 1.73409,-0.89944 c 0.0692,-0.35689 -0.11178,-0.52931 -0.55563,-0.52931 -0.36205,0 -0.65828,0.1905 -0.65828,0.42333 0,0.97242 1.02845,1.06221 1.21391,0.10598 z"
         style="fill:#e2e2e2;stroke-width:0.3175" />
      <path
         id="path1777"
         d="m 173.42446,234.16251 c -0.10581,-0.27572 -0.58065,-0.47625 -1.12775,-0.47625 -1.12739,0 -1.07679,-0.73637 0.062,-0.90256 0.41008,-0.0598 1.07755,-0.32631 1.48326,-0.59214 0.6605,-0.43278 0.81482,-0.43278 1.47532,0 0.40571,0.26583 1.07318,0.5323 1.48325,0.59214 1.13881,0.16619 1.18941,0.90256 0.062,0.90256 -0.5471,0 -1.02194,0.20053 -1.12775,0.47625 -0.24211,0.63093 -2.06825,0.63093 -2.31036,0 z m 1.73409,-0.89944 c 0.0692,-0.35689 -0.11178,-0.52931 -0.55563,-0.52931 -0.36205,0 -0.65828,0.1905 -0.65828,0.42333 0,0.97242 1.02845,1.06221 1.21391,0.10598 z"
         style="fill:#dcdcdc;stroke-width:0.3175" />
      <path
         id="path1775"
         d="m 173.51232,234.16251 c -0.10832,-0.28228 -0.58552,-0.47625 -1.17167,-0.47625 -1.16334,0 -1.14867,-0.73229 0.0181,-0.90256 0.41008,-0.0598 1.07755,-0.32631 1.48326,-0.59214 0.6605,-0.43278 0.81482,-0.43278 1.47532,0 0.40571,0.26583 1.07318,0.5323 1.48325,0.59214 1.16675,0.17027 1.18142,0.90256 0.0181,0.90256 -0.58615,0 -1.06335,0.19397 -1.17167,0.47625 -0.2383,0.62099 -1.89634,0.62099 -2.13464,0 z m 1.64623,-0.89944 c 0.0692,-0.35689 -0.11178,-0.52931 -0.55563,-0.52931 -0.36205,0 -0.65828,0.1905 -0.65828,0.42333 0,0.97242 1.02845,1.06221 1.21391,0.10598 z"
         style="fill:#d3d3d3;stroke-width:0.3175" />
      <path
         id="path1773"
         d="m 173.51232,234.16251 c -0.10683,-0.2784 -0.58258,-0.47625 -1.14522,-0.47625 -1.20136,0 -1.25997,-0.54964 -0.0893,-0.83793 0.48022,-0.11826 1.1946,-0.42316 1.5875,-0.67756 0.62559,-0.40506 0.80316,-0.40506 1.42875,0 0.39291,0.2544 1.10729,0.5593 1.5875,0.67756 1.17064,0.28829 1.11203,0.83793 -0.0893,0.83793 -0.56263,0 -1.03838,0.19785 -1.14521,0.47625 -0.2383,0.62099 -1.89634,0.62099 -2.13464,0 z m 1.64623,-0.89944 c 0.0692,-0.35689 -0.11178,-0.52931 -0.55563,-0.52931 -0.36205,0 -0.65828,0.1905 -0.65828,0.42333 0,0.97242 1.02845,1.06221 1.21391,0.10598 z"
         style="fill:#d2d2d2;stroke-width:0.3175" />
      <path
         id="path1771"
         d="m 173.51232,234.16251 c -0.10683,-0.2784 -0.58258,-0.47625 -1.14522,-0.47625 -0.52935,0 -0.96246,-0.14288 -0.96246,-0.3175 0,-0.17463 0.29154,-0.3175 0.64786,-0.3175 0.35632,0 1.07069,-0.31262 1.5875,-0.69471 l 0.93964,-0.69471 0.93964,0.69471 c 0.51681,0.38209 1.23118,0.69471 1.5875,0.69471 0.35632,0 0.64786,0.14287 0.64786,0.3175 0,0.17462 -0.43311,0.3175 -0.96247,0.3175 -0.56263,0 -1.03838,0.19785 -1.14521,0.47625 -0.2383,0.62099 -1.89634,0.62099 -2.13464,0 z m 1.64623,-0.89944 c 0.0692,-0.35689 -0.11178,-0.52931 -0.55563,-0.52931 -0.36205,0 -0.65828,0.1905 -0.65828,0.42333 0,0.97242 1.02845,1.06221 1.21391,0.10598 z"
         style="fill:#cfcfcf;stroke-width:0.3175" />
      <path
         id="path1769"
         d="m 173.62714,234.16251 c -0.21739,-0.26194 -0.80638,-0.47625 -1.30888,-0.47625 -0.50249,0 -0.91362,-0.14288 -0.91362,-0.3175 0,-0.17463 0.29154,-0.3175 0.64786,-0.3175 0.35632,0 1.07069,-0.31262 1.5875,-0.69471 l 0.93964,-0.69471 0.93964,0.69471 c 0.51681,0.38209 1.23118,0.69471 1.5875,0.69471 0.35632,0 0.64786,0.14287 0.64786,0.3175 0,0.17462 -0.41113,0.3175 -0.91362,0.3175 -0.5025,0 -1.09149,0.21431 -1.30888,0.47625 -0.50637,0.61014 -1.39863,0.61014 -1.905,0 z m 1.53141,-0.89944 c 0.0692,-0.35689 -0.11178,-0.52931 -0.55563,-0.52931 -0.36205,0 -0.65828,0.1905 -0.65828,0.42333 0,0.97242 1.02845,1.06221 1.21391,0.10598 z"
         style="fill:#c6c6c6;stroke-width:0.3175" />
      <path
         id="path1767"
         d="m 173.62714,234.16251 c -0.21739,-0.26194 -0.80638,-0.47625 -1.30888,-0.47625 -0.50249,0 -0.91362,-0.14288 -0.91362,-0.3175 0,-0.17463 0.29154,-0.3175 0.64786,-0.3175 0.35632,0 1.07069,-0.31262 1.5875,-0.69471 l 0.93964,-0.69471 0.93964,0.69471 c 0.51681,0.38209 1.23118,0.69471 1.5875,0.69471 0.35632,0 0.64786,0.14287 0.64786,0.3175 0,0.17462 -0.41113,0.3175 -0.91362,0.3175 -0.5025,0 -1.09149,0.21431 -1.30888,0.47625 -0.50637,0.61014 -1.39863,0.61014 -1.905,0 z m 1.5875,-0.79375 c 0,-0.42333 -0.21167,-0.635 -0.635,-0.635 -0.42333,0 -0.635,0.21167 -0.635,0.635 0,0.42333 0.21167,0.635 0.635,0.635 0.42333,0 0.635,-0.21167 0.635,-0.635 z"
         style="fill:#c4c4c4;stroke-width:0.3175" />
      <path
         id="path1765"
         d="m 173.62714,234.16251 c -0.21739,-0.26194 -0.80638,-0.47625 -1.30888,-0.47625 -0.50249,0 -0.91362,-0.14288 -0.91362,-0.3175 0,-0.17463 0.35719,-0.3175 0.79375,-0.3175 0.43656,0 1.0795,-0.28575 1.42875,-0.635 0.34925,-0.34925 0.77787,-0.635 0.9525,-0.635 0.17462,0 0.60325,0.28575 0.9525,0.635 0.34925,0.34925 0.99219,0.635 1.42875,0.635 0.43656,0 0.79375,0.14287 0.79375,0.3175 0,0.17462 -0.41113,0.3175 -0.91362,0.3175 -0.5025,0 -1.09149,0.21431 -1.30888,0.47625 -0.50637,0.61014 -1.39863,0.61014 -1.905,0 z m 1.5875,-0.79375 c 0,-0.42333 -0.21167,-0.635 -0.635,-0.635 -0.42333,0 -0.635,0.21167 -0.635,0.635 0,0.42333 0.21167,0.635 0.635,0.635 0.42333,0 0.635,-0.21167 0.635,-0.635 z"
         style="fill:#b9b9b9;stroke-width:0.3175" />
      <path
         id="path1763"
         d="m 173.62714,234.16251 c -0.21739,-0.26194 -0.80638,-0.47625 -1.30888,-0.47625 -0.50249,0 -0.91362,-0.14288 -0.91362,-0.3175 0,-0.17463 0.35719,-0.3175 0.79375,-0.3175 0.43656,0 1.0795,-0.28575 1.42875,-0.635 0.34925,-0.34925 0.77787,-0.635 0.9525,-0.635 0.17462,0 0.60325,0.28575 0.9525,0.635 0.34925,0.34925 0.99219,0.635 1.42875,0.635 0.43656,0 0.79375,0.14287 0.79375,0.3175 0,0.17462 -0.41113,0.3175 -0.91362,0.3175 -0.5025,0 -1.09149,0.21431 -1.30888,0.47625 -0.50637,0.61014 -1.39863,0.61014 -1.905,0 z m 1.53021,-0.87313 c -0.0558,-0.3929 -0.31577,-0.71437 -0.57771,-0.71437 -0.26194,0 -0.52191,0.32147 -0.57771,0.71437 -0.0781,0.54982 0.055,0.71438 0.57771,0.71438 0.52271,0 0.65579,-0.16456 0.57771,-0.71438 z"
         style="fill:#a1a1a1;stroke-width:0.3175" />
      <path
         id="path1761"
         d="m 173.62714,234.16251 c -0.21739,-0.26194 -0.80638,-0.47625 -1.30888,-0.47625 -0.50249,0 -0.91362,-0.14288 -0.91362,-0.3175 0,-0.17463 0.41334,-0.3175 0.91853,-0.3175 0.52358,0 0.99711,-0.20478 1.10129,-0.47625 0.1074,-0.27989 0.58369,-0.47625 1.15518,-0.47625 0.57149,0 1.04778,0.19636 1.15518,0.47625 0.10418,0.27147 0.57771,0.47625 1.10129,0.47625 0.50519,0 0.91853,0.14287 0.91853,0.3175 0,0.17462 -0.41113,0.3175 -0.91362,0.3175 -0.5025,0 -1.09149,0.21431 -1.30888,0.47625 -0.50637,0.61014 -1.39863,0.61014 -1.905,0 z m 1.53021,-0.87313 c -0.0558,-0.3929 -0.31577,-0.71437 -0.57771,-0.71437 -0.26194,0 -0.52191,0.32147 -0.57771,0.71437 -0.0781,0.54982 0.055,0.71438 0.57771,0.71438 0.52271,0 0.65579,-0.16456 0.57771,-0.71438 z"
         style="fill:#939393;stroke-width:0.3175" />
      <path
         id="path1759"
         d="m 173.62714,234.16251 c -0.21739,-0.26194 -0.80638,-0.47625 -1.30888,-0.47625 -0.50249,0 -0.91362,-0.14288 -0.91362,-0.3175 0,-0.17463 0.43311,-0.3175 0.96246,-0.3175 0.56264,0 1.03839,-0.19785 1.14522,-0.47625 0.2383,-0.62099 1.89634,-0.62099 2.13464,0 0.10683,0.2784 0.58258,0.47625 1.14521,0.47625 0.52936,0 0.96247,0.14287 0.96247,0.3175 0,0.17462 -0.41113,0.3175 -0.91362,0.3175 -0.5025,0 -1.09149,0.21431 -1.30888,0.47625 -0.50637,0.61014 -1.39863,0.61014 -1.905,0 z m 1.53021,-0.87313 c -0.0558,-0.3929 -0.31577,-0.71437 -0.57771,-0.71437 -0.26194,0 -0.52191,0.32147 -0.57771,0.71437 -0.0781,0.54982 0.055,0.71438 0.57771,0.71438 0.52271,0 0.65579,-0.16456 0.57771,-0.71438 z"
         style="fill:#929292;stroke-width:0.3175" />
      <path
         id="path1757"
         d="m 173.62714,234.16251 c -0.21739,-0.26194 -0.80638,-0.47625 -1.30888,-0.47625 -0.50249,0 -0.91362,-0.14288 -0.91362,-0.3175 0,-0.17463 0.41113,-0.3175 0.91362,-0.3175 0.5025,0 1.09149,-0.21431 1.30888,-0.47625 0.21739,-0.26194 0.64601,-0.47625 0.9525,-0.47625 0.30649,0 0.73511,0.21431 0.9525,0.47625 0.21739,0.26194 0.80638,0.47625 1.30888,0.47625 0.50249,0 0.91362,0.14287 0.91362,0.3175 0,0.17462 -0.41113,0.3175 -0.91362,0.3175 -0.5025,0 -1.09149,0.21431 -1.30888,0.47625 -0.50637,0.61014 -1.39863,0.61014 -1.905,0 z m 1.53021,-0.87313 c -0.0558,-0.3929 -0.31577,-0.71437 -0.57771,-0.71437 -0.26194,0 -0.52191,0.32147 -0.57771,0.71437 -0.0781,0.54982 0.055,0.71438 0.57771,0.71438 0.52271,0 0.65579,-0.16456 0.57771,-0.71438 z"
         style="fill:#919191;stroke-width:0.3175" />
      <path
         id="path1755"
         d="m 173.62714,234.16251 c -0.21739,-0.26194 -0.72651,-0.47625 -1.13139,-0.47625 -0.40487,0 -0.82444,-0.14288 -0.93236,-0.3175 -0.1138,-0.18413 0.19541,-0.3175 0.73614,-0.3175 0.51279,0 1.11022,-0.21431 1.32761,-0.47625 0.21739,-0.26194 0.64601,-0.47625 0.9525,-0.47625 0.30649,0 0.73511,0.21431 0.9525,0.47625 0.21739,0.26194 0.80638,0.47625 1.30888,0.47625 0.50249,0 0.91362,0.14287 0.91362,0.3175 0,0.17462 -0.41113,0.3175 -0.91362,0.3175 -0.5025,0 -1.09149,0.21431 -1.30888,0.47625 -0.50637,0.61014 -1.39863,0.61014 -1.905,0 z m 1.53021,-0.87313 c -0.0558,-0.3929 -0.31577,-0.71437 -0.57771,-0.71437 -0.26194,0 -0.52191,0.32147 -0.57771,0.71437 -0.0781,0.54982 0.055,0.71438 0.57771,0.71438 0.52271,0 0.65579,-0.16456 0.57771,-0.71438 z"
         style="fill:#909090;stroke-width:0.3175" />
      <path
         id="path1753"
         d="m 173.62714,234.16251 c -0.21739,-0.26194 -0.72651,-0.47625 -1.13139,-0.47625 -0.40487,0 -0.82444,-0.14288 -0.93236,-0.3175 -0.1138,-0.18413 0.19541,-0.3175 0.73614,-0.3175 0.51279,0 1.11022,-0.21431 1.32761,-0.47625 0.21739,-0.26194 0.64601,-0.47625 0.9525,-0.47625 0.30649,0 0.73511,0.21431 0.9525,0.47625 0.21739,0.26194 0.81481,0.47625 1.32761,0.47625 0.54073,0 0.84994,0.13337 0.73614,0.3175 -0.10792,0.17462 -0.52749,0.3175 -0.93236,0.3175 -0.40488,0 -0.914,0.21431 -1.13139,0.47625 -0.50637,0.61014 -1.39863,0.61014 -1.905,0 z m 1.53021,-0.87313 c -0.0558,-0.3929 -0.31577,-0.71437 -0.57771,-0.71437 -0.26194,0 -0.52191,0.32147 -0.57771,0.71437 -0.0781,0.54982 0.055,0.71438 0.57771,0.71438 0.52271,0 0.65579,-0.16456 0.57771,-0.71438 z"
         style="fill:#7a7a7a;stroke-width:0.3175" />
      <path
         id="path1751"
         d="m 173.62714,234.16251 c -0.21739,-0.26194 -0.72651,-0.47625 -1.13139,-0.47625 -0.40487,0 -0.82444,-0.14288 -0.93236,-0.3175 -0.1138,-0.18413 0.19541,-0.3175 0.73614,-0.3175 0.51279,0 1.11022,-0.21431 1.32761,-0.47625 0.21739,-0.26194 0.64601,-0.47625 0.9525,-0.47625 0.30649,0 0.73511,0.21431 0.9525,0.47625 0.21739,0.26194 0.81481,0.47625 1.32761,0.47625 0.54073,0 0.84994,0.13337 0.73614,0.3175 -0.10792,0.17462 -0.52749,0.3175 -0.93236,0.3175 -0.40488,0 -0.914,0.21431 -1.13139,0.47625 -0.50637,0.61014 -1.39863,0.61014 -1.905,0 z m 1.69341,-0.61179 c 0.0956,-0.24917 -0.032,-0.62385 -0.28353,-0.83262 -0.57415,-0.4765 -1.46351,0.14147 -1.19829,0.83262 0.22509,0.58657 1.25673,0.58657 1.48182,0 z"
         style="fill:#6b6b6b;stroke-width:0.3175" />
      <path
         id="path1749"
         d="m 173.6589,234.20077 c -0.19993,-0.24089 -0.82464,-0.55171 -1.38826,-0.69071 l -1.02475,-0.25273 1.00823,-0.12139 c 0.55453,-0.0668 1.17924,-0.32744 1.38825,-0.57928 0.20901,-0.25185 0.63078,-0.4579 0.93727,-0.4579 0.30649,0 0.72826,0.20605 0.93727,0.4579 0.20901,0.25184 0.83372,0.51252 1.38825,0.57928 l 1.00823,0.12139 -1.02476,0.25273 c -0.56361,0.139 -1.18832,0.44982 -1.38825,0.69071 -0.46631,0.56188 -1.37517,0.56188 -1.84148,0 z m 1.66165,-0.65005 c 0.0956,-0.24917 -0.032,-0.62385 -0.28353,-0.83262 -0.57415,-0.4765 -1.46351,0.14147 -1.19829,0.83262 0.22509,0.58657 1.25673,0.58657 1.48182,0 z"
         style="fill:#6a6a6a;stroke-width:0.3175" />
      <path
         id="path1747"
         d="m 173.6589,234.20077 c -0.19993,-0.24089 -0.82464,-0.55171 -1.38826,-0.69071 l -1.02475,-0.25273 1.00823,-0.12139 c 0.55453,-0.0668 1.17924,-0.32744 1.38825,-0.57928 0.20901,-0.25185 0.63078,-0.4579 0.93727,-0.4579 0.30649,0 0.72826,0.20605 0.93727,0.4579 0.20901,0.25184 0.83372,0.51252 1.38825,0.57928 l 1.00823,0.12139 -1.02476,0.25273 c -0.56361,0.139 -1.18832,0.44982 -1.38825,0.69071 -0.46631,0.56188 -1.37517,0.56188 -1.84148,0 z m 1.73332,-0.54498 c 0.11828,-0.19138 -0.0162,-0.57918 -0.29876,-0.86178 -0.47343,-0.47343 -0.55421,-0.47343 -1.02764,0 -0.6001,0.6001 -0.34117,1.20975 0.51382,1.20975 0.32864,0 0.6943,-0.15659 0.81258,-0.34797 z"
         style="fill:#696969;stroke-width:0.3175" />
      <path
         id="path1745"
         d="m 173.48459,234.02166 c -0.30715,-0.3394 -0.93651,-0.67518 -1.39858,-0.74617 -0.77165,-0.11857 -0.7592,-0.13296 0.15288,-0.17666 0.54615,-0.0262 1.17086,-0.26188 1.38825,-0.52382 0.21739,-0.26194 0.64601,-0.47625 0.9525,-0.47625 0.30649,0 0.73511,0.21431 0.9525,0.47625 0.21739,0.26194 0.8421,0.49766 1.38825,0.52382 0.91207,0.0437 0.92453,0.0581 0.15288,0.17666 -0.46207,0.071 -1.09143,0.40677 -1.39858,0.74617 -0.30716,0.33941 -0.79993,0.6171 -1.09505,0.6171 -0.29512,0 -0.78789,-0.27769 -1.09505,-0.6171 z m 1.90763,-0.36587 c 0.11828,-0.19138 -0.0162,-0.57918 -0.29876,-0.86178 -0.47343,-0.47343 -0.55421,-0.47343 -1.02764,0 -0.6001,0.6001 -0.34117,1.20975 0.51382,1.20975 0.32864,0 0.6943,-0.15659 0.81258,-0.34797 z"
         style="fill:#626262;stroke-width:0.3175" />
      <path
         id="path1743"
         d="m 173.58004,234.03486 c -0.42225,-0.33214 -1.12017,-0.66987 -1.55094,-0.75051 -0.67509,-0.12637 -0.64613,-0.15258 0.20979,-0.18985 0.54615,-0.0238 1.17086,-0.25755 1.38825,-0.51949 0.50637,-0.61014 1.39863,-0.61014 1.905,0 0.21739,0.26194 0.8421,0.49571 1.38825,0.51949 0.85592,0.0373 0.88488,0.0635 0.20979,0.18985 -0.43077,0.0806 -1.12869,0.41837 -1.55095,0.75051 -0.94994,0.74723 -1.04924,0.74723 -1.99919,0 z m 1.81218,-0.37907 c 0.11828,-0.19138 -0.0162,-0.57918 -0.29876,-0.86178 -0.47343,-0.47343 -0.55421,-0.47343 -1.02764,0 -0.6001,0.6001 -0.34117,1.20975 0.51382,1.20975 0.32864,0 0.6943,-0.15659 0.81258,-0.34797 z"
         style="fill:#5b5b5b;stroke-width:0.3175" />
      <path
         id="path1741"
         d="m 173.65048,234.0271 c -0.33641,-0.33641 -1.01507,-0.67219 -1.50812,-0.74618 -0.89528,-0.13434 -0.89515,-0.13458 0.0965,-0.18209 0.54615,-0.0262 1.17086,-0.26188 1.38825,-0.52382 0.21739,-0.26194 0.64601,-0.47625 0.9525,-0.47625 0.30649,0 0.73511,0.21431 0.9525,0.47625 0.21739,0.26194 0.8421,0.49766 1.38825,0.52382 0.99168,0.0475 0.99181,0.0478 0.0965,0.18209 -0.49305,0.074 -1.17171,0.40977 -1.50812,0.74618 -0.33641,0.33641 -0.75454,0.61166 -0.92916,0.61166 -0.17463,0 -0.59275,-0.27525 -0.92916,-0.61166 z m 1.74174,-0.37131 c 0.11828,-0.19138 -0.0162,-0.57918 -0.29876,-0.86178 -0.47343,-0.47343 -0.55421,-0.47343 -1.02764,0 -0.6001,0.6001 -0.34117,1.20975 0.51382,1.20975 0.32864,0 0.6943,-0.15659 0.81258,-0.34797 z"
         style="fill:#434343;stroke-width:0.3175" />
      <path
         id="path1739"
         d="m 173.65048,234.0271 c -0.33641,-0.33641 -1.01507,-0.67219 -1.50812,-0.74618 -0.89528,-0.13434 -0.89515,-0.13458 0.0965,-0.18209 0.54615,-0.0262 1.17086,-0.26188 1.38825,-0.52382 0.21739,-0.26194 0.64601,-0.47625 0.9525,-0.47625 0.30649,0 0.73511,0.21431 0.9525,0.47625 0.21739,0.26194 0.8421,0.49766 1.38825,0.52382 0.99168,0.0475 0.99181,0.0478 0.0965,0.18209 -0.49305,0.074 -1.17171,0.40977 -1.50812,0.74618 -0.33641,0.33641 -0.75454,0.61166 -0.92916,0.61166 -0.17463,0 -0.59275,-0.27525 -0.92916,-0.61166 z m 1.7052,-0.31219 c 0.30351,-0.49108 -0.17907,-1.29865 -0.77604,-1.29865 -0.59697,0 -1.07955,0.80757 -0.77604,1.29865 0.0982,0.15887 0.4474,0.28885 0.77604,0.28885 0.32864,0 0.67786,-0.12998 0.77604,-0.28885 z"
         style="fill:#3f3f3f;stroke-width:0.3175" />
      <path
         id="path1737"
         d="m 173.65048,234.0271 c -0.33641,-0.33641 -1.01507,-0.67219 -1.50812,-0.74618 -0.89528,-0.13434 -0.89515,-0.13458 0.0965,-0.18209 0.54615,-0.0262 1.17086,-0.26188 1.38825,-0.52382 0.21739,-0.26194 0.64601,-0.47625 0.9525,-0.47625 0.30649,0 0.73511,0.21431 0.9525,0.47625 0.21739,0.26194 0.8421,0.49766 1.38825,0.52382 0.99168,0.0475 0.99181,0.0478 0.0965,0.18209 -0.49305,0.074 -1.17171,0.40977 -1.50812,0.74618 -0.33641,0.33641 -0.75454,0.61166 -0.92916,0.61166 -0.17463,0 -0.59275,-0.27525 -0.92916,-0.61166 z m 1.72291,-0.81274 c 0,-0.70046 -0.98708,-1.04927 -1.50463,-0.53172 -0.53364,0.53364 -0.007,1.37706 0.78884,1.26401 0.46836,-0.0665 0.71579,-0.31964 0.71579,-0.73229 z"
         style="fill:#393939;stroke-width:0.3175" />
      <path
         id="path1735"
         d="m 173.71888,234.03142 c -0.31239,-0.33404 -0.99662,-0.66982 -1.52049,-0.74618 l -0.9525,-0.13884 0.993,-0.0476 c 0.54615,-0.0262 1.17086,-0.26188 1.38825,-0.52382 0.21739,-0.26194 0.64601,-0.47625 0.9525,-0.47625 0.30649,0 0.73511,0.21431 0.9525,0.47625 0.21739,0.26194 0.8421,0.49766 1.38825,0.52382 l 0.993,0.0476 -0.9525,0.13884 c -0.52388,0.0764 -1.2081,0.41214 -1.52049,0.74618 -0.71236,0.7617 -1.00916,0.7617 -1.72152,0 z m 1.65451,-0.81706 c 0,-0.70046 -0.98708,-1.04927 -1.50463,-0.53172 -0.53364,0.53364 -0.007,1.37706 0.78884,1.26401 0.46836,-0.0665 0.71579,-0.31964 0.71579,-0.73229 z"
         style="fill:#333333;stroke-width:0.3175" />
      <path
         id="path1733"
         d="m 173.52056,233.86648 c -0.096,-0.25012 -0.64705,-0.51301 -1.22459,-0.58418 l -1.05008,-0.12942 0.993,-0.0508 c 0.54615,-0.0279 1.17086,-0.26512 1.38825,-0.52706 0.50074,-0.60336 1.39703,-0.61206 1.88977,-0.0183 0.20901,0.25184 0.83372,0.51473 1.38825,0.58419 l 1.00823,0.12629 -1.04184,0.0508 c -0.59576,0.0291 -1.12009,0.25472 -1.22459,0.52706 -0.2334,0.60821 -1.89481,0.62499 -2.1264,0.0215 z m 1.85283,-0.65212 c 0,-0.70046 -0.98708,-1.04927 -1.50463,-0.53172 -0.53364,0.53364 -0.007,1.37706 0.78884,1.26401 0.46836,-0.0665 0.71579,-0.31964 0.71579,-0.73229 z"
         style="fill:#313131;stroke-width:0.3175" />
      <path
         id="path1731"
         d="m 173.52111,233.86791 c -0.0957,-0.24934 -0.57531,-0.51369 -1.06584,-0.58743 l -0.89188,-0.13408 0.83425,-0.0476 c 0.45884,-0.0262 1.01211,-0.26188 1.2295,-0.52382 0.50074,-0.60336 1.39703,-0.61206 1.88977,-0.0183 0.20901,0.25184 0.83372,0.51473 1.38825,0.58419 l 1.00823,0.12629 -1.04184,0.0508 c -0.59576,0.0291 -1.12009,0.25472 -1.22459,0.52706 -0.2331,0.60744 -1.89467,0.62534 -2.12585,0.0229 z m 1.85228,-0.65355 c 0,-0.70046 -0.98708,-1.04927 -1.50463,-0.53172 -0.53364,0.53364 -0.007,1.37706 0.78884,1.26401 0.46836,-0.0665 0.71579,-0.31964 0.71579,-0.73229 z"
         style="fill:#303030;stroke-width:0.3175" />
      <path
         id="path1729"
         d="m 173.52111,233.86791 c -0.0957,-0.24934 -0.57531,-0.51369 -1.06584,-0.58743 l -0.89188,-0.13408 0.83425,-0.0476 c 0.45884,-0.0262 1.01211,-0.26188 1.2295,-0.52382 0.50059,-0.60317 1.39699,-0.61212 1.88936,-0.0188 0.20878,0.25157 0.76206,0.51592 1.2295,0.58743 l 0.84989,0.13003 -0.88309,0.0476 c -0.4857,0.0262 -0.96533,0.26188 -1.06584,0.52382 -0.2331,0.60744 -1.89467,0.62534 -2.12585,0.0229 z m 1.85228,-0.65355 c 0,-0.70046 -0.98708,-1.04927 -1.50463,-0.53172 -0.53364,0.53364 -0.007,1.37706 0.78884,1.26401 0.46836,-0.0665 0.71579,-0.31964 0.71579,-0.73229 z"
         style="fill:#2d2d2d;stroke-width:0.3175" />
      <path
         id="path1727"
         d="m 173.52111,233.86791 c -0.0957,-0.24934 -0.57531,-0.51369 -1.06584,-0.58743 l -0.89188,-0.13408 0.83425,-0.0476 c 0.45884,-0.0262 1.01211,-0.26188 1.2295,-0.52382 0.50059,-0.60317 1.39699,-0.61212 1.88936,-0.0188 0.20878,0.25157 0.76206,0.51592 1.2295,0.58743 l 0.84989,0.13003 -0.88309,0.0476 c -0.4857,0.0262 -0.96533,0.26188 -1.06584,0.52382 -0.10052,0.26194 -0.32784,0.47625 -0.50517,0.47625 -0.18706,0 -0.15788,-0.19823 0.0695,-0.47221 0.52756,-0.63566 0.17615,-1.43279 -0.63164,-1.43279 -0.80779,0 -1.1592,0.79713 -0.63164,1.43279 0.22737,0.27398 0.25655,0.47221 0.0695,0.47221 -0.17733,0 -0.4007,-0.20401 -0.49638,-0.45335 z"
         style="fill:#292929;stroke-width:0.3175" />
      <path
         id="path1725"
         d="m 173.64278,233.86386 c -0.20878,-0.25157 -0.76206,-0.51592 -1.2295,-0.58743 l -0.84989,-0.13003 0.83425,-0.0476 c 0.45884,-0.0262 1.01211,-0.26188 1.2295,-0.52382 0.50637,-0.61014 1.39863,-0.61014 1.905,0 0.21739,0.26194 0.77066,0.49571 1.2295,0.51949 l 0.83425,0.0432 -0.79375,0.14446 c -0.43656,0.0795 -1.07704,0.38146 -1.42328,0.67113 -0.59166,0.495 -0.60385,0.4935 -0.2026,-0.0249 0.55306,-0.71455 0.23836,-1.51217 -0.59662,-1.51217 -0.80779,0 -1.1592,0.79713 -0.63164,1.43279 0.21554,0.25972 0.32045,0.47221 0.23314,0.47221 -0.0873,0 -0.32957,-0.20583 -0.53836,-0.4574 z"
         style="fill:#1f1f1f;stroke-width:0.3175" />
      <path
         id="path1723"
         d="m 172.51589,233.33639 c -0.92041,-0.20293 -0.9244,-0.21127 -0.11825,-0.24757 0.45884,-0.0207 1.01211,-0.25187 1.2295,-0.51381 0.50637,-0.61014 1.39863,-0.61014 1.905,0 0.21739,0.26194 0.77066,0.49315 1.2295,0.51381 0.80615,0.0363 0.80216,0.0446 -0.11825,0.24757 -0.7418,0.16355 -1.00291,0.085 -1.18039,-0.35507 -0.12535,-0.31078 -0.52286,-0.56506 -0.88336,-0.56506 -0.3605,0 -0.75801,0.25428 -0.88336,0.56506 -0.17748,0.44007 -0.43859,0.51862 -1.18039,0.35507 z"
         style="fill:#1b1b1b;stroke-width:0.3175" />
      <path
         id="path1721"
         d="m 172.51589,233.36876 -0.9525,-0.24237 1.03187,-0.0376 c 0.56754,-0.0207 1.03188,0.10531 1.03188,0.27994 0,0.17462 -0.0357,0.3006 -0.0794,0.27993 -0.0437,-0.0207 -0.508,-0.14663 -1.03187,-0.27993 z m 3.01625,-0.055 c 0,-0.14438 0.42862,-0.26251 0.9525,-0.26251 0.52387,0 0.9525,0.0552 0.9525,0.12271 0,0.0675 -0.42863,0.18563 -0.9525,0.26252 -0.52388,0.0769 -0.9525,0.0217 -0.9525,-0.12272 z m -1.69719,-0.97689 c 0.19089,-0.30886 1.29849,-0.30886 1.48938,0 0.081,0.13097 -0.25417,0.23813 -0.74469,0.23813 -0.49052,0 -0.82564,-0.10716 -0.74469,-0.23813 z"
         style="fill:#141414;stroke-width:0.3175" />
      <path
         id="path1719"
         d="m 172.51589,233.36876 -0.9525,-0.24237 1.03187,-0.0376 c 0.56754,-0.0207 1.03188,0.10531 1.03188,0.27994 0,0.17462 -0.0357,0.3006 -0.0794,0.27993 -0.0437,-0.0207 -0.508,-0.14663 -1.03187,-0.27993 z m 3.01625,-0.055 c 0,-0.14438 0.42862,-0.26251 0.9525,-0.26251 0.52387,0 0.9525,0.0552 0.9525,0.12271 0,0.0675 -0.42863,0.18563 -0.9525,0.26252 -0.52388,0.0769 -0.9525,0.0217 -0.9525,-0.12272 z m -1.69719,-0.97689 c 0.19089,-0.30886 1.29849,-0.30886 1.48938,0 0.081,0.13097 -0.25417,0.23813 -0.74469,0.23813 -0.49052,0 -0.82564,-0.10716 -0.74469,-0.23813 z"
         style="fill:#121212;stroke-width:0.3175" />
      <path
         id="path1717"
         d="m 172.51589,233.36876 -0.9525,-0.24237 1.03187,-0.0376 c 0.56754,-0.0207 1.03188,0.10531 1.03188,0.27994 0,0.17462 -0.0357,0.3006 -0.0794,0.27993 -0.0437,-0.0207 -0.508,-0.14663 -1.03187,-0.27993 z m 3.01625,-0.055 c 0,-0.14438 0.42862,-0.26251 0.9525,-0.26251 0.52387,0 0.9525,0.0552 0.9525,0.12271 0,0.0675 -0.42863,0.18563 -0.9525,0.26252 -0.52388,0.0769 -0.9525,0.0217 -0.9525,-0.12272 z m -1.34938,-1.10778 c 0.21829,-0.0881 0.57547,-0.0881 0.79375,0 0.21829,0.0881 0.0397,0.16014 -0.39687,0.16014 -0.43656,0 -0.61516,-0.0721 -0.39688,-0.16014 z"
         style="fill:#101010;stroke-width:0.3175" />
      <path
         id="path1715"
         d="m 172.67464,233.36876 -0.79375,-0.2542 0.87312,-0.0317 c 0.48022,-0.0174 0.87313,0.11122 0.87313,0.28585 0,0.17462 -0.0357,0.30326 -0.0794,0.28585 -0.0437,-0.0174 -0.43656,-0.14604 -0.87312,-0.28585 z m 2.8575,-0.044 c 0,-0.15041 0.35719,-0.27347 0.79375,-0.27347 0.43656,0 0.79375,0.0548 0.79375,0.12174 0,0.0669 -0.35719,0.19001 -0.79375,0.27347 -0.43656,0.0834 -0.79375,0.0287 -0.79375,-0.12174 z m -1.34938,-1.11874 c 0.21829,-0.0881 0.57547,-0.0881 0.79375,0 0.21829,0.0881 0.0397,0.16014 -0.39687,0.16014 -0.43656,0 -0.61516,-0.0721 -0.39688,-0.16014 z"
         style="fill:#0e0e0e;stroke-width:0.3175" />
      <path
         id="path1713"
         d="m 173.15089,233.36876 c -0.10792,-0.17463 -0.0449,-0.3175 0.14001,-0.3175 0.18493,0 0.33624,0.14287 0.33624,0.3175 0,0.17462 -0.063,0.3175 -0.14001,0.3175 -0.077,0 -0.22832,-0.14288 -0.33624,-0.3175 z m 2.38125,0 c 0,-0.17463 0.15131,-0.3175 0.33624,-0.3175 0.18493,0 0.24793,0.14287 0.14001,0.3175 -0.10792,0.17462 -0.25923,0.3175 -0.33624,0.3175 -0.077,0 -0.14001,-0.14288 -0.14001,-0.3175 z m -1.34938,-1.16277 c 0.21829,-0.0881 0.57547,-0.0881 0.79375,0 0.21829,0.0881 0.0397,0.16014 -0.39687,0.16014 -0.43656,0 -0.61516,-0.0721 -0.39688,-0.16014 z"
         style="fill:#0b0b0b;stroke-width:0.3175" />
    </g>
  </g>
</svg>
