<?xml version="1.0" encoding="UTF-8" standalone="no"?>
<svg
   xmlns:dc="http://purl.org/dc/elements/1.1/"
   xmlns:cc="http://creativecommons.org/ns#"
   xmlns:rdf="http://www.w3.org/1999/02/22-rdf-syntax-ns#"
   xmlns:svg="http://www.w3.org/2000/svg"
   xmlns="http://www.w3.org/2000/svg"
   id="svg1756"
   version="1.1"
   viewBox="0 0 48 48"
   height="29.281733mm"
   width="55.451965mm">
  <defs
     id="defs1750" />
  <metadata
     id="metadata1753">
    <rdf:RDF>
      <cc:Work
         rdf:about="">
        <dc:format>image/svg+xml</dc:format>
        <dc:type
           rdf:resource="http://purl.org/dc/dcmitype/StillImage" />
        <dc:title></dc:title>
      </cc:Work>
    </rdf:RDF>
  </metadata>
  <g
     transform="translate(-143.46508,-94.993824)"
     id="layer1">
    <g
       transform="matrix(8.3848959,0,0,8.3848959,-1792.5699,-1900.5735)"
       id="g1536">
      <path
         id="path1574"
         d="m 231.00515,240.72147 c -0.10278,-0.40951 -0.14,-1.15473 -0.0827,-1.65605 l 0.10417,-0.91149 h 3.175 3.175 l 0.0987,1.19394 c 0.14904,1.80215 -0.34525,2.09613 -3.54424,2.108 -2.61251,0.01 -2.74772,-0.0242 -2.92596,-0.7344 z m 1.13271,-1.45629 c 0,-0.34925 -0.14287,-0.635 -0.3175,-0.635 -0.17462,0 -0.3175,0.28575 -0.3175,0.635 0,0.34925 0.14288,0.635 0.3175,0.635 0.17463,0 0.3175,-0.28575 0.3175,-0.635 z m 0.52777,-0.39688 c -0.0881,-0.21828 -0.16014,-0.0397 -0.16014,0.39688 0,0.43656 0.0721,0.61516 0.16014,0.39687 0.0881,-0.21828 0.0881,-0.57546 0,-0.79375 z m 0.9525,0 c -0.0881,-0.21828 -0.16014,-0.0397 -0.16014,0.39688 0,0.43656 0.0721,0.61516 0.16014,0.39687 0.0881,-0.21828 0.0881,-0.57546 0,-0.79375 z m 1.27,0 c -0.0881,-0.21828 -0.16014,-0.0397 -0.16014,0.39688 0,0.43656 0.0721,0.61516 0.16014,0.39687 0.0881,-0.21828 0.0881,-0.57546 0,-0.79375 z m 1.05973,0.39688 c 0,-0.34925 -0.14287,-0.635 -0.3175,-0.635 -0.17462,0 -0.3175,0.28575 -0.3175,0.635 0,0.34925 0.14288,0.635 0.3175,0.635 0.17463,0 0.3175,-0.28575 0.3175,-0.635 z m 0.52777,-0.39688 c -0.0881,-0.21828 -0.16014,-0.0397 -0.16014,0.39688 0,0.43656 0.0721,0.61516 0.16014,0.39687 0.0881,-0.21828 0.0881,-0.57546 0,-0.79375 z"
         style="fill:#d8e1ce;stroke-width:0.3175" />
      <path
         id="path1572"
         d="m 231.19216,241.01963 c -0.2009,-0.24208 -0.32034,-0.98589 -0.26541,-1.65292 l 0.0999,-1.21278 h 3.175 3.175 l 0.0987,1.19394 c 0.1473,1.78116 -0.36125,2.09968 -3.36295,2.10627 -1.79619,0.004 -2.66344,-0.12509 -2.92024,-0.43451 z m 0.9457,-1.75445 c 0,-0.34925 -0.14287,-0.635 -0.3175,-0.635 -0.17462,0 -0.3175,0.28575 -0.3175,0.635 0,0.34925 0.14288,0.635 0.3175,0.635 0.17463,0 0.3175,-0.28575 0.3175,-0.635 z m 0.52777,-0.39688 c -0.0881,-0.21828 -0.16014,-0.0397 -0.16014,0.39688 0,0.43656 0.0721,0.61516 0.16014,0.39687 0.0881,-0.21828 0.0881,-0.57546 0,-0.79375 z m 0.9525,0 c -0.0881,-0.21828 -0.16014,-0.0397 -0.16014,0.39688 0,0.43656 0.0721,0.61516 0.16014,0.39687 0.0881,-0.21828 0.0881,-0.57546 0,-0.79375 z m 1.27,0 c -0.0881,-0.21828 -0.16014,-0.0397 -0.16014,0.39688 0,0.43656 0.0721,0.61516 0.16014,0.39687 0.0881,-0.21828 0.0881,-0.57546 0,-0.79375 z m 1.05973,0.39688 c 0,-0.34925 -0.14287,-0.635 -0.3175,-0.635 -0.17462,0 -0.3175,0.28575 -0.3175,0.635 0,0.34925 0.14288,0.635 0.3175,0.635 0.17463,0 0.3175,-0.28575 0.3175,-0.635 z m 0.52777,-0.39688 c -0.0881,-0.21828 -0.16014,-0.0397 -0.16014,0.39688 0,0.43656 0.0721,0.61516 0.16014,0.39687 0.0881,-0.21828 0.0881,-0.57546 0,-0.79375 z"
         style="fill:#ccd8bf;stroke-width:0.3175" />
      <path
         id="path1570"
         d="m 231.19216,241.01963 c -0.2009,-0.24208 -0.32034,-0.98589 -0.26541,-1.65292 l 0.0999,-1.21278 h 3.175 3.175 l 0.0987,1.19394 c 0.1473,1.78116 -0.36125,2.09968 -3.36295,2.10627 -1.79619,0.004 -2.66344,-0.12509 -2.92024,-0.43451 z m 0.9457,-1.75445 c 0,-0.34925 -0.14287,-0.635 -0.3175,-0.635 -0.17462,0 -0.3175,0.28575 -0.3175,0.635 0,0.34925 0.14288,0.635 0.3175,0.635 0.17463,0 0.3175,-0.28575 0.3175,-0.635 z m 0.9525,0 c 0,-0.34925 -0.14287,-0.635 -0.3175,-0.635 -0.17462,0 -0.3175,0.28575 -0.3175,0.635 0,0.34925 0.14288,0.635 0.3175,0.635 0.17463,0 0.3175,-0.28575 0.3175,-0.635 z m 0.52777,-0.39688 c -0.0881,-0.21828 -0.16014,-0.0397 -0.16014,0.39688 0,0.43656 0.0721,0.61516 0.16014,0.39687 0.0881,-0.21828 0.0881,-0.57546 0,-0.79375 z m 1.37723,0.39688 c 0,-0.34925 -0.14287,-0.635 -0.3175,-0.635 -0.17462,0 -0.3175,0.28575 -0.3175,0.635 0,0.34925 0.14288,0.635 0.3175,0.635 0.17463,0 0.3175,-0.28575 0.3175,-0.635 z m 0.9525,0 c 0,-0.34925 -0.14287,-0.635 -0.3175,-0.635 -0.17462,0 -0.3175,0.28575 -0.3175,0.635 0,0.34925 0.14288,0.635 0.3175,0.635 0.17463,0 0.3175,-0.28575 0.3175,-0.635 z m 0.9525,0 c 0,-0.34925 -0.14287,-0.635 -0.3175,-0.635 -0.17462,0 -0.3175,0.28575 -0.3175,0.635 0,0.34925 0.14288,0.635 0.3175,0.635 0.17463,0 0.3175,-0.28575 0.3175,-0.635 z"
         style="fill:#cbd8be;stroke-width:0.3175" />
      <path
         id="path1568"
         d="m 231.77477,241.19835 c 0.30824,-0.1905 0.23905,-0.30405 -0.26569,-0.43604 -0.57296,-0.14983 -0.66641,-0.3734 -0.58246,-1.39342 l 0.1,-1.21496 h 3.175 3.175 l 0.10544,0.92467 c 0.058,0.50857 -0.0695,1.25152 -0.28328,1.651 -0.35868,0.67019 -0.59941,0.72633 -3.11474,0.72633 -1.52537,0 -2.54246,-0.11345 -2.30926,-0.25758 z m 0.36309,-1.93317 c 0,-0.34925 -0.14287,-0.635 -0.3175,-0.635 -0.17462,0 -0.3175,0.28575 -0.3175,0.635 0,0.34925 0.14288,0.635 0.3175,0.635 0.17463,0 0.3175,-0.28575 0.3175,-0.635 z m 0.9525,0 c 0,-0.34925 -0.14287,-0.635 -0.3175,-0.635 -0.17462,0 -0.3175,0.28575 -0.3175,0.635 0,0.34925 0.14288,0.635 0.3175,0.635 0.17463,0 0.3175,-0.28575 0.3175,-0.635 z m 0.52777,-0.39688 c -0.0881,-0.21828 -0.16014,-0.0397 -0.16014,0.39688 0,0.43656 0.0721,0.61516 0.16014,0.39687 0.0881,-0.21828 0.0881,-0.57546 0,-0.79375 z m 1.37723,0.39688 c 0,-0.34925 -0.14287,-0.635 -0.3175,-0.635 -0.17462,0 -0.3175,0.28575 -0.3175,0.635 0,0.34925 0.14288,0.635 0.3175,0.635 0.17463,0 0.3175,-0.28575 0.3175,-0.635 z m 0.9525,0 c 0,-0.34925 -0.14287,-0.635 -0.3175,-0.635 -0.17462,0 -0.3175,0.28575 -0.3175,0.635 0,0.34925 0.14288,0.635 0.3175,0.635 0.17463,0 0.3175,-0.28575 0.3175,-0.635 z m 0.9525,0 c 0,-0.34925 -0.14287,-0.635 -0.3175,-0.635 -0.17462,0 -0.3175,0.28575 -0.3175,0.635 0,0.34925 0.14288,0.635 0.3175,0.635 0.17463,0 0.3175,-0.28575 0.3175,-0.635 z"
         style="fill:#b6c8a5;stroke-width:0.3175" />
      <path
         id="path1566"
         d="m 231.76782,241.20937 c 0.32048,-0.20315 0.25743,-0.31208 -0.25874,-0.44706 -0.57296,-0.14983 -0.66641,-0.3734 -0.58246,-1.39342 l 0.1,-1.21496 h 3.175 3.175 l 0.10544,0.92467 c 0.17367,1.52305 -0.50374,2.40908 -1.84184,2.40908 -0.63407,0 -1.34526,-0.17859 -1.58043,-0.39688 -0.34206,-0.3175 -0.38276,-0.3175 -0.20351,0 0.16431,0.29104 -0.14078,0.39558 -1.14405,0.39202 -0.86975,-0.003 -1.21376,-0.1027 -0.9444,-0.27345 z m 0.37004,-1.94419 c 0,-0.34925 -0.14287,-0.635 -0.3175,-0.635 -0.17462,0 -0.3175,0.28575 -0.3175,0.635 0,0.34925 0.14288,0.635 0.3175,0.635 0.17463,0 0.3175,-0.28575 0.3175,-0.635 z m 0.9525,0 c 0,-0.34925 -0.14287,-0.635 -0.3175,-0.635 -0.17462,0 -0.3175,0.28575 -0.3175,0.635 0,0.34925 0.14288,0.635 0.3175,0.635 0.17463,0 0.3175,-0.28575 0.3175,-0.635 z m 0.52777,-0.39688 c -0.0881,-0.21828 -0.16014,-0.0397 -0.16014,0.39688 0,0.43656 0.0721,0.61516 0.16014,0.39687 0.0881,-0.21828 0.0881,-0.57546 0,-0.79375 z m 1.37723,0.39688 c 0,-0.34925 -0.14287,-0.635 -0.3175,-0.635 -0.17462,0 -0.3175,0.28575 -0.3175,0.635 0,0.34925 0.14288,0.635 0.3175,0.635 0.17463,0 0.3175,-0.28575 0.3175,-0.635 z m 0.9525,0 c 0,-0.34925 -0.14287,-0.635 -0.3175,-0.635 -0.17462,0 -0.3175,0.28575 -0.3175,0.635 0,0.34925 0.14288,0.635 0.3175,0.635 0.17463,0 0.3175,-0.28575 0.3175,-0.635 z m 0.9525,0 c 0,-0.34925 -0.14287,-0.635 -0.3175,-0.635 -0.17462,0 -0.3175,0.28575 -0.3175,0.635 0,0.34925 0.14288,0.635 0.3175,0.635 0.17463,0 0.3175,-0.28575 0.3175,-0.635 z"
         style="fill:#b6c8a4;stroke-width:0.3175" />
      <path
         id="path1564"
         d="m 231.76782,241.20937 c 0.32048,-0.20315 0.25743,-0.31208 -0.25874,-0.44706 -0.57296,-0.14983 -0.66641,-0.3734 -0.58246,-1.39342 l 0.1,-1.21496 h 3.175 3.175 l 0.10544,0.92467 c 0.17367,1.52305 -0.50374,2.40908 -1.84184,2.40908 -0.63407,0 -1.3243,-0.17145 -1.53385,-0.381 -0.29633,-0.29633 -0.381,-0.29633 -0.381,0 0,0.22946 -0.47355,0.37907 -1.19062,0.37614 -0.77288,-0.003 -1.04196,-0.0991 -0.76692,-0.27345 z m 0.37004,-1.94419 c 0,-0.34925 -0.14287,-0.635 -0.3175,-0.635 -0.17462,0 -0.3175,0.28575 -0.3175,0.635 0,0.34925 0.14288,0.635 0.3175,0.635 0.17463,0 0.3175,-0.28575 0.3175,-0.635 z m 0.9525,0 c 0,-0.34925 -0.14287,-0.635 -0.3175,-0.635 -0.17462,0 -0.3175,0.28575 -0.3175,0.635 0,0.34925 0.14288,0.635 0.3175,0.635 0.17463,0 0.3175,-0.28575 0.3175,-0.635 z m 0.52777,-0.39688 c -0.0881,-0.21828 -0.16014,-0.0397 -0.16014,0.39688 0,0.43656 0.0721,0.61516 0.16014,0.39687 0.0881,-0.21828 0.0881,-0.57546 0,-0.79375 z m 1.37723,0.39688 c 0,-0.34925 -0.14287,-0.635 -0.3175,-0.635 -0.17462,0 -0.3175,0.28575 -0.3175,0.635 0,0.34925 0.14288,0.635 0.3175,0.635 0.17463,0 0.3175,-0.28575 0.3175,-0.635 z m 0.9525,0 c 0,-0.34925 -0.14287,-0.635 -0.3175,-0.635 -0.17462,0 -0.3175,0.28575 -0.3175,0.635 0,0.34925 0.14288,0.635 0.3175,0.635 0.17463,0 0.3175,-0.28575 0.3175,-0.635 z m 0.9525,0 c 0,-0.34925 -0.14287,-0.635 -0.3175,-0.635 -0.17462,0 -0.3175,0.28575 -0.3175,0.635 0,0.34925 0.14288,0.635 0.3175,0.635 0.17463,0 0.3175,-0.28575 0.3175,-0.635 z"
         style="fill:#b1c59e;stroke-width:0.3175" />
      <path
         id="path1562"
         d="m 231.76782,241.20937 c 0.32048,-0.20315 0.25743,-0.31208 -0.25874,-0.44706 -0.57296,-0.14983 -0.66641,-0.3734 -0.58246,-1.39342 l 0.1,-1.21496 h 3.175 3.175 l 0.1,1.21496 c 0.084,1.02002 -0.01,1.24359 -0.58246,1.39342 -0.51617,0.13498 -0.57922,0.24391 -0.25874,0.44706 0.2718,0.17229 -0.0373,0.27033 -0.86216,0.27345 -0.70724,0.003 -1.45733,-0.16659 -1.66688,-0.37614 -0.29633,-0.29633 -0.381,-0.29633 -0.381,0 0,0.22946 -0.47355,0.37907 -1.19062,0.37614 -0.77288,-0.003 -1.04196,-0.0991 -0.76692,-0.27345 z m 0.37004,-1.94419 c 0,-0.34925 -0.14287,-0.635 -0.3175,-0.635 -0.17462,0 -0.3175,0.28575 -0.3175,0.635 0,0.34925 0.14288,0.635 0.3175,0.635 0.17463,0 0.3175,-0.28575 0.3175,-0.635 z m 0.9525,0 c 0,-0.34925 -0.14287,-0.635 -0.3175,-0.635 -0.17462,0 -0.3175,0.28575 -0.3175,0.635 0,0.34925 0.14288,0.635 0.3175,0.635 0.17463,0 0.3175,-0.28575 0.3175,-0.635 z m 0.52777,-0.39688 c -0.0881,-0.21828 -0.16014,-0.0397 -0.16014,0.39688 0,0.43656 0.0721,0.61516 0.16014,0.39687 0.0881,-0.21828 0.0881,-0.57546 0,-0.79375 z m 1.37723,0.39688 c 0,-0.34925 -0.14287,-0.635 -0.3175,-0.635 -0.17462,0 -0.3175,0.28575 -0.3175,0.635 0,0.34925 0.14288,0.635 0.3175,0.635 0.17463,0 0.3175,-0.28575 0.3175,-0.635 z m 0.9525,0 c 0,-0.34925 -0.14287,-0.635 -0.3175,-0.635 -0.17462,0 -0.3175,0.28575 -0.3175,0.635 0,0.34925 0.14288,0.635 0.3175,0.635 0.17463,0 0.3175,-0.28575 0.3175,-0.635 z m 0.9525,0 c 0,-0.34925 -0.14287,-0.635 -0.3175,-0.635 -0.17462,0 -0.3175,0.28575 -0.3175,0.635 0,0.34925 0.14288,0.635 0.3175,0.635 0.17463,0 0.3175,-0.28575 0.3175,-0.635 z"
         style="fill:#b1c49e;stroke-width:0.3175" />
      <path
         id="path1560"
         d="m 232.06219,241.26312 c 0.39494,-0.0759 0.96644,-0.0731 1.27,0.006 0.30355,0.0795 -0.0196,0.14161 -0.71808,0.13808 -0.6985,-0.004 -0.94687,-0.0685 -0.55192,-0.14449 z m 2.49036,-0.007 c -0.12714,-0.12713 -0.97248,-0.30572 -1.87855,-0.39687 l -1.64739,-0.16573 v -1.27 -1.27 h 3.175 3.175 v 1.27 c 0,1.26709 -0.003,1.27041 -1.42875,1.44838 l -1.42875,0.17838 1.27,0.16512 1.27,0.16512 -1.13771,0.0534 c -0.62574,0.0293 -1.24172,-0.0507 -1.36885,-0.17778 z m -2.41469,-1.99135 c 0,-0.34925 -0.14287,-0.635 -0.3175,-0.635 -0.17462,0 -0.3175,0.28575 -0.3175,0.635 0,0.34925 0.14288,0.635 0.3175,0.635 0.17463,0 0.3175,-0.28575 0.3175,-0.635 z m 0.9525,0 c 0,-0.34925 -0.14287,-0.635 -0.3175,-0.635 -0.17462,0 -0.3175,0.28575 -0.3175,0.635 0,0.34925 0.14288,0.635 0.3175,0.635 0.17463,0 0.3175,-0.28575 0.3175,-0.635 z m 0.52777,-0.39688 c -0.0881,-0.21828 -0.16014,-0.0397 -0.16014,0.39688 0,0.43656 0.0721,0.61516 0.16014,0.39687 0.0881,-0.21828 0.0881,-0.57546 0,-0.79375 z m 1.37723,0.39688 c 0,-0.34925 -0.14287,-0.635 -0.3175,-0.635 -0.17462,0 -0.3175,0.28575 -0.3175,0.635 0,0.34925 0.14288,0.635 0.3175,0.635 0.17463,0 0.3175,-0.28575 0.3175,-0.635 z m 0.9525,0 c 0,-0.34925 -0.14287,-0.635 -0.3175,-0.635 -0.17462,0 -0.3175,0.28575 -0.3175,0.635 0,0.34925 0.14288,0.635 0.3175,0.635 0.17463,0 0.3175,-0.28575 0.3175,-0.635 z m 0.9525,0 c 0,-0.34925 -0.14287,-0.635 -0.3175,-0.635 -0.17462,0 -0.3175,0.28575 -0.3175,0.635 0,0.34925 0.14288,0.635 0.3175,0.635 0.17463,0 0.3175,-0.28575 0.3175,-0.635 z"
         style="fill:#9eb686;stroke-width:0.3175" />
      <path
         id="path1558"
         d="m 232.06219,241.26312 c 0.39494,-0.0759 0.96644,-0.0731 1.27,0.006 0.30355,0.0795 -0.0196,0.14161 -0.71808,0.13808 -0.6985,-0.004 -0.94687,-0.0685 -0.55192,-0.14449 z m 3.175,0 c 0.39494,-0.0759 0.96644,-0.0731 1.27,0.006 0.30355,0.0795 -0.0196,0.14161 -0.71808,0.13808 -0.6985,-0.004 -0.94687,-0.0685 -0.55192,-0.14449 z m -2.62308,-0.41044 -1.5875,-0.15875 v -1.27 -1.27 h 3.175 3.175 v 1.27 1.27 l -1.5875,0.15875 c -0.87312,0.0873 -2.30187,0.0873 -3.175,0 z m -0.47625,-1.5875 c 0,-0.34925 -0.14287,-0.635 -0.3175,-0.635 -0.17462,0 -0.3175,0.28575 -0.3175,0.635 0,0.34925 0.14288,0.635 0.3175,0.635 0.17463,0 0.3175,-0.28575 0.3175,-0.635 z m 0.9525,0 c 0,-0.34925 -0.14287,-0.635 -0.3175,-0.635 -0.17462,0 -0.3175,0.28575 -0.3175,0.635 0,0.34925 0.14288,0.635 0.3175,0.635 0.17463,0 0.3175,-0.28575 0.3175,-0.635 z m 0.52777,-0.39688 c -0.0881,-0.21828 -0.16014,-0.0397 -0.16014,0.39688 0,0.43656 0.0721,0.61516 0.16014,0.39687 0.0881,-0.21828 0.0881,-0.57546 0,-0.79375 z m 1.37723,0.39688 c 0,-0.34925 -0.14287,-0.635 -0.3175,-0.635 -0.17462,0 -0.3175,0.28575 -0.3175,0.635 0,0.34925 0.14288,0.635 0.3175,0.635 0.17463,0 0.3175,-0.28575 0.3175,-0.635 z m 0.9525,0 c 0,-0.34925 -0.14287,-0.635 -0.3175,-0.635 -0.17462,0 -0.3175,0.28575 -0.3175,0.635 0,0.34925 0.14288,0.635 0.3175,0.635 0.17463,0 0.3175,-0.28575 0.3175,-0.635 z m 0.9525,0 c 0,-0.34925 -0.14287,-0.635 -0.3175,-0.635 -0.17462,0 -0.3175,0.28575 -0.3175,0.635 0,0.34925 0.14288,0.635 0.3175,0.635 0.17463,0 0.3175,-0.28575 0.3175,-0.635 z"
         style="fill:#99b380;stroke-width:0.3175" />
      <path
         id="path1556"
         d="m 232.06219,241.26312 c 0.39494,-0.0759 0.96644,-0.0731 1.27,0.006 0.30355,0.0795 -0.0196,0.14161 -0.71808,0.13808 -0.6985,-0.004 -0.94687,-0.0685 -0.55192,-0.14449 z m 3.01255,0.006 c 0.30559,-0.0799 0.80565,-0.0799 1.11125,0 0.30559,0.0799 0.0556,0.1452 -0.55563,0.1452 -0.61119,0 -0.86122,-0.0653 -0.55562,-0.1452 z m -2.46063,-0.41614 -1.5875,-0.15875 v -1.27 -1.27 h 3.175 3.175 v 1.27 1.27 l -1.5875,0.15875 c -0.87312,0.0873 -2.30187,0.0873 -3.175,0 z m -0.47625,-1.5875 c 0,-0.34925 -0.14287,-0.635 -0.3175,-0.635 -0.17462,0 -0.3175,0.28575 -0.3175,0.635 0,0.34925 0.14288,0.635 0.3175,0.635 0.17463,0 0.3175,-0.28575 0.3175,-0.635 z m 0.9525,0 c 0,-0.34925 -0.14287,-0.635 -0.3175,-0.635 -0.17462,0 -0.3175,0.28575 -0.3175,0.635 0,0.34925 0.14288,0.635 0.3175,0.635 0.17463,0 0.3175,-0.28575 0.3175,-0.635 z m 0.52777,-0.39688 c -0.0881,-0.21828 -0.16014,-0.0397 -0.16014,0.39688 0,0.43656 0.0721,0.61516 0.16014,0.39687 0.0881,-0.21828 0.0881,-0.57546 0,-0.79375 z m 1.37723,0.39688 c 0,-0.34925 -0.14287,-0.635 -0.3175,-0.635 -0.17462,0 -0.3175,0.28575 -0.3175,0.635 0,0.34925 0.14288,0.635 0.3175,0.635 0.17463,0 0.3175,-0.28575 0.3175,-0.635 z m 0.9525,0 c 0,-0.34925 -0.14287,-0.635 -0.3175,-0.635 -0.17462,0 -0.3175,0.28575 -0.3175,0.635 0,0.34925 0.14288,0.635 0.3175,0.635 0.17463,0 0.3175,-0.28575 0.3175,-0.635 z m 0.9525,0 c 0,-0.34925 -0.14287,-0.635 -0.3175,-0.635 -0.17462,0 -0.3175,0.28575 -0.3175,0.635 0,0.34925 0.14288,0.635 0.3175,0.635 0.17463,0 0.3175,-0.28575 0.3175,-0.635 z"
         style="fill:#98b27f;stroke-width:0.3175" />
      <path
         id="path1554"
         d="m 232.06219,241.26312 c 0.39494,-0.0759 0.96644,-0.0731 1.27,0.006 0.30355,0.0795 -0.0196,0.14161 -0.71808,0.13808 -0.6985,-0.004 -0.94687,-0.0685 -0.55192,-0.14449 z m 3.01255,0.006 c 0.30559,-0.0799 0.80565,-0.0799 1.11125,0 0.30559,0.0799 0.0556,0.1452 -0.55563,0.1452 -0.61119,0 -0.86122,-0.0653 -0.55562,-0.1452 z m -1.24939,-0.31464 c -0.14231,-0.039 -0.83024,-0.12043 -1.52874,-0.18086 -1.24889,-0.10805 -1.27,-0.13072 -1.27,-1.36463 v -1.25476 h 3.175 3.175 v 1.27 1.27 l -1.64626,0.16562 c -0.90545,0.0911 -1.7627,0.13368 -1.905,0.0946 z m -1.68749,-1.53025 c 0,-0.43656 -0.14287,-0.79375 -0.3175,-0.79375 -0.17462,0 -0.3175,0.35719 -0.3175,0.79375 0,0.43656 0.14288,0.79375 0.3175,0.79375 0.17463,0 0.3175,-0.35719 0.3175,-0.79375 z m 1.84771,-0.10425 c 0.0817,-0.5551 -0.0576,-0.6895 -0.71438,-0.6895 -0.64297,0 -0.81583,0.15694 -0.81583,0.74069 0,1.00944 1.38094,0.96324 1.53021,-0.0512 z m 1.96229,0.0845 c 0,-0.61395 -0.16415,-0.77402 -0.79375,-0.77402 -0.55803,0 -0.79375,0.17286 -0.79375,0.58208 0,0.73119 0.12747,0.85597 0.93666,0.91693 0.49155,0.037 0.65084,-0.14042 0.65084,-0.72499 z m 0.9525,-0.15776 c 0,-0.33894 -0.14287,-0.61626 -0.3175,-0.61626 -0.17462,0 -0.3175,0.36562 -0.3175,0.81249 0,0.46081 0.13743,0.72755 0.3175,0.61626 0.17463,-0.10792 0.3175,-0.47354 0.3175,-0.81249 z"
         style="fill:#98b17e;stroke-width:0.3175" />
      <path
         id="path1552"
         d="m 232.06219,241.26312 c 0.39494,-0.0759 0.96644,-0.0731 1.27,0.006 0.30355,0.0795 -0.0196,0.14161 -0.71808,0.13808 -0.6985,-0.004 -0.94687,-0.0685 -0.55192,-0.14449 z m 3.01255,0.006 c 0.30559,-0.0799 0.80565,-0.0799 1.11125,0 0.30559,0.0799 0.0556,0.1452 -0.55563,0.1452 -0.61119,0 -0.86122,-0.0653 -0.55562,-0.1452 z m -3.88938,-1.89584 v -1.3778 h 3.03451 3.0345 l -0.0976,1.34937 -0.0976,1.34938 -2.93687,0.0284 -2.93688,0.0284 z m 0.9525,0.051 c 0,-0.43656 -0.14287,-0.79375 -0.3175,-0.79375 -0.17462,0 -0.3175,0.35719 -0.3175,0.79375 0,0.43656 0.14288,0.79375 0.3175,0.79375 0.17463,0 0.3175,-0.35719 0.3175,-0.79375 z m 1.84771,-0.10425 c 0.0817,-0.5551 -0.0576,-0.6895 -0.71438,-0.6895 -0.64297,0 -0.81583,0.15694 -0.81583,0.74069 0,1.00944 1.38094,0.96324 1.53021,-0.0512 z m 1.96229,0.0845 c 0,-0.61395 -0.16415,-0.77402 -0.79375,-0.77402 -0.55803,0 -0.79375,0.17286 -0.79375,0.58208 0,0.73119 0.12747,0.85597 0.93666,0.91693 0.49155,0.037 0.65084,-0.14042 0.65084,-0.72499 z m 0.9525,-0.15776 c 0,-0.33894 -0.14287,-0.61626 -0.3175,-0.61626 -0.17462,0 -0.3175,0.36562 -0.3175,0.81249 0,0.46081 0.13743,0.72755 0.3175,0.61626 0.17463,-0.10792 0.3175,-0.47354 0.3175,-0.81249 z"
         style="fill:#8ba86e;stroke-width:0.3175" />
      <path
         id="path1550"
         d="m 231.24897,239.4523 0.0951,-1.29837 h 2.8575 2.8575 v 1.27 1.27 l -2.95264,0.0284 -2.95264,0.0284 0.0951,-1.29837 z m 0.88889,-0.0284 c 0,-0.43656 -0.14287,-0.79375 -0.3175,-0.79375 -0.17462,0 -0.3175,0.35719 -0.3175,0.79375 0,0.43656 0.14288,0.79375 0.3175,0.79375 0.17463,0 0.3175,-0.35719 0.3175,-0.79375 z m 1.84771,-0.10425 c 0.0817,-0.5551 -0.0576,-0.6895 -0.71438,-0.6895 -0.64297,0 -0.81583,0.15694 -0.81583,0.74069 0,1.00944 1.38094,0.96324 1.53021,-0.0512 z m 1.96229,0.0845 c 0,-0.61395 -0.16415,-0.77402 -0.79375,-0.77402 -0.55803,0 -0.79375,0.17286 -0.79375,0.58208 0,0.73119 0.12747,0.85597 0.93666,0.91693 0.49155,0.037 0.65084,-0.14042 0.65084,-0.72499 z m 0.9525,-0.15776 c 0,-0.33894 -0.14287,-0.61626 -0.3175,-0.61626 -0.17462,0 -0.3175,0.36562 -0.3175,0.81249 0,0.46081 0.13743,0.72755 0.3175,0.61626 0.17463,-0.10792 0.3175,-0.47354 0.3175,-0.81249 z"
         style="fill:#7f9f5f;stroke-width:0.3175" />
      <path
         id="path1548"
         d="m 231.24994,239.43258 0.0942,-1.27865 h 2.8575 2.8575 v 1.27 1.27 l -2.95167,0.009 -2.95168,0.009 0.0942,-1.27865 z m 0.88792,-0.009 c 0,-0.43656 -0.14287,-0.79375 -0.3175,-0.79375 -0.17462,0 -0.3175,0.35719 -0.3175,0.79375 0,0.43656 0.14288,0.79375 0.3175,0.79375 0.17463,0 0.3175,-0.35719 0.3175,-0.79375 z m 1.84771,-0.10946 c 0.0815,-0.5495 -0.0592,-0.68429 -0.71438,-0.68429 -0.658,0 -0.81583,0.15317 -0.81583,0.79176 0,0.64126 0.13579,0.77133 0.71438,0.68429 0.44389,-0.0668 0.75279,-0.36656 0.81583,-0.79176 z m 1.96229,0.0698 c 0,-0.59266 -0.16989,-0.75406 -0.79375,-0.75406 -0.62386,0 -0.79375,0.1614 -0.79375,0.75406 0,0.59267 0.16989,0.75406 0.79375,0.75406 0.62386,0 0.79375,-0.16139 0.79375,-0.75406 z m 0.9525,0.0397 c 0,-0.43656 -0.14287,-0.79375 -0.3175,-0.79375 -0.17462,0 -0.3175,0.35719 -0.3175,0.79375 0,0.43656 0.14288,0.79375 0.3175,0.79375 0.17463,0 0.3175,-0.35719 0.3175,-0.79375 z"
         style="fill:#7e9e5e;stroke-width:0.3175" />
      <path
         id="path1546"
         d="m 231.72341,240.60293 c -0.44952,-0.0949 -0.55228,-0.37224 -0.47625,-1.28504 l 0.0969,-1.16396 h 2.8575 2.8575 v 1.2642 1.26419 l -2.38125,0.0208 c -1.30969,0.0115 -2.63919,-0.0336 -2.95445,-0.10024 z m 0.41445,-1.179 c 0,-0.43656 -0.14287,-0.79375 -0.3175,-0.79375 -0.17462,0 -0.3175,0.35719 -0.3175,0.79375 0,0.43656 0.14288,0.79375 0.3175,0.79375 0.17463,0 0.3175,-0.35719 0.3175,-0.79375 z m 1.84771,-0.10946 c 0.0815,-0.5495 -0.0592,-0.68429 -0.71438,-0.68429 -0.658,0 -0.81583,0.15317 -0.81583,0.79176 0,0.64126 0.13579,0.77133 0.71438,0.68429 0.44389,-0.0668 0.75279,-0.36656 0.81583,-0.79176 z m 1.96229,0.0698 c 0,-0.59266 -0.16989,-0.75406 -0.79375,-0.75406 -0.62386,0 -0.79375,0.1614 -0.79375,0.75406 0,0.59267 0.16989,0.75406 0.79375,0.75406 0.62386,0 0.79375,-0.16139 0.79375,-0.75406 z m 0.9525,0.0397 c 0,-0.43656 -0.14287,-0.79375 -0.3175,-0.79375 -0.17462,0 -0.3175,0.35719 -0.3175,0.79375 0,0.43656 0.14288,0.79375 0.3175,0.79375 0.17463,0 0.3175,-0.35719 0.3175,-0.79375 z"
         style="fill:#789a56;stroke-width:0.3175" />
      <path
         id="path1544"
         d="m 231.72341,240.60373 c -0.44941,-0.0956 -0.55226,-0.37326 -0.47625,-1.28584 l 0.0969,-1.16396 h 2.8575 2.8575 l 0.0985,1.19062 c 0.0668,0.80703 -0.0355,1.20266 -0.3175,1.22795 -1.28391,0.11519 -4.62598,0.13559 -5.11674,0.0312 z m 0.41445,-1.1798 c 0,-0.43656 -0.14287,-0.79375 -0.3175,-0.79375 -0.17462,0 -0.3175,0.35719 -0.3175,0.79375 0,0.43656 0.14288,0.79375 0.3175,0.79375 0.17463,0 0.3175,-0.35719 0.3175,-0.79375 z m 1.84771,-0.10946 c 0.0815,-0.5495 -0.0592,-0.68429 -0.71438,-0.68429 -0.658,0 -0.81583,0.15317 -0.81583,0.79176 0,0.64126 0.13579,0.77133 0.71438,0.68429 0.44389,-0.0668 0.75279,-0.36656 0.81583,-0.79176 z m 1.96229,0.0698 c 0,-0.59266 -0.16989,-0.75406 -0.79375,-0.75406 -0.62386,0 -0.79375,0.1614 -0.79375,0.75406 0,0.59267 0.16989,0.75406 0.79375,0.75406 0.62386,0 0.79375,-0.16139 0.79375,-0.75406 z m 0.9525,0.0397 c 0,-0.43656 -0.14287,-0.79375 -0.3175,-0.79375 -0.17462,0 -0.3175,0.35719 -0.3175,0.79375 0,0.43656 0.14288,0.79375 0.3175,0.79375 0.17463,0 0.3175,-0.35719 0.3175,-0.79375 z"
         style="fill:#658c3f;stroke-width:0.3175" />
      <path
         id="path1542"
         d="m 231.74099,240.60712 c -0.39802,-0.0849 -0.55563,-0.42712 -0.55563,-1.20647 v -1.08797 h 3.01625 3.01625 v 1.11125 c 0,0.65743 -0.16208,1.12649 -0.39687,1.14857 -1.20299,0.11314 -4.60319,0.13631 -5.08,0.0346 z m 0.39687,-1.18319 c 0,-0.43656 -0.14287,-0.79375 -0.3175,-0.79375 -0.17462,0 -0.3175,0.35719 -0.3175,0.79375 0,0.43656 0.14288,0.79375 0.3175,0.79375 0.17463,0 0.3175,-0.35719 0.3175,-0.79375 z m 1.84771,-0.10946 c 0.0815,-0.5495 -0.0592,-0.68429 -0.71438,-0.68429 -0.658,0 -0.81583,0.15317 -0.81583,0.79176 0,0.64126 0.13579,0.77133 0.71438,0.68429 0.44389,-0.0668 0.75279,-0.36656 0.81583,-0.79176 z m 1.96229,0.0698 c 0,-0.59266 -0.16989,-0.75406 -0.79375,-0.75406 -0.62386,0 -0.79375,0.1614 -0.79375,0.75406 0,0.59267 0.16989,0.75406 0.79375,0.75406 0.62386,0 0.79375,-0.16139 0.79375,-0.75406 z m 0.9525,0.0397 c 0,-0.43656 -0.14287,-0.79375 -0.3175,-0.79375 -0.17462,0 -0.3175,0.35719 -0.3175,0.79375 0,0.43656 0.14288,0.79375 0.3175,0.79375 0.17463,0 0.3175,-0.35719 0.3175,-0.79375 z"
         style="fill:#658b3f;stroke-width:0.3175" />
      <path
         id="path1540"
         d="m 231.18536,239.42393 v -1.11125 h 3.01625 3.01625 v 1.11125 1.11125 h -3.01625 -3.01625 z m 2.8575,-0.002 c 0,-0.7117 -0.12798,-0.79146 -1.27,-0.79146 -1.11923,0 -1.27,0.0881 -1.27,0.7417 0,0.64536 0.16497,0.74817 1.27,0.79147 1.15533,0.0453 1.27,-0.0217 1.27,-0.74171 z m 2.8575,-0.0498 c 0,-0.65365 -0.15077,-0.7417 -1.27,-0.7417 -1.14202,0 -1.27,0.0798 -1.27,0.79146 0,0.72001 0.11467,0.78698 1.27,0.74171 1.10503,-0.0433 1.27,-0.14611 1.27,-0.79147 z"
         style="fill:#4c781f;stroke-width:0.3175" />
      <path
         id="path1538"
         d="m 231.18536,239.42393 v -1.11125 h 3.01625 3.01625 v 1.11125 1.11125 h -3.01625 -3.01625 z m 2.8575,0 c 0,-0.71438 -0.127,-0.79375 -1.27,-0.79375 -1.143,0 -1.27,0.0794 -1.27,0.79375 0,0.71437 0.127,0.79375 1.27,0.79375 1.143,0 1.27,-0.0794 1.27,-0.79375 z m 2.8575,0 c 0,-0.71438 -0.127,-0.79375 -1.27,-0.79375 -1.143,0 -1.27,0.0794 -1.27,0.79375 0,0.71437 0.127,0.79375 1.27,0.79375 1.143,0 1.27,-0.0794 1.27,-0.79375 z"
         style="fill:#326500;stroke-width:0.3175" />
    </g>
  </g>
</svg>
