<?xml version="1.0" encoding="UTF-8" standalone="no"?>
<svg
   xmlns:dc="http://purl.org/dc/elements/1.1/"
   xmlns:cc="http://creativecommons.org/ns#"
   xmlns:rdf="http://www.w3.org/1999/02/22-rdf-syntax-ns#"
   xmlns:svg="http://www.w3.org/2000/svg"
   xmlns="http://www.w3.org/2000/svg"
   id="svg1756"
   version="1.1"
   viewBox="0 0 53.558623 58.938096"
   height="58.938099mm"
   width="53.55862mm">
  <defs
     id="defs1750" />
  <metadata
     id="metadata1753">
    <rdf:RDF>
      <cc:Work
         rdf:about="">
        <dc:format>image/svg+xml</dc:format>
        <dc:type
           rdf:resource="http://purl.org/dc/dcmitype/StillImage" />
        <dc:title></dc:title>
      </cc:Work>
    </rdf:RDF>
  </metadata>
  <g
     transform="translate(-146.15113,-110.92756)"
     id="layer1">
    <g
       transform="matrix(8.0327888,0,0,8.0327888,-1151.6435,-1724.2649)"
       id="g2722">
      <path
         id="path2884"
         d="m 163.65986,235.1757 c -1.17408,-0.92353 -2.09771,-2.87301 -2.09771,-4.42757 0,-1.26845 0.0269,-1.30197 0.89241,-1.11187 0.66346,0.14572 1.04262,0.03 1.47795,-0.45102 0.73263,-0.80954 0.96074,-0.80843 1.77782,0.009 0.49458,0.49458 0.88465,0.6054 1.5875,0.45103 0.91308,-0.20055 0.93182,-0.17836 0.93182,1.10321 0,1.55456 -0.92363,3.50404 -2.09771,4.42757 -1.05741,0.83176 -1.41467,0.83176 -2.47208,0 z"
         style="fill:#fdfdfd;stroke-width:0.3175" />
      <path
         id="path2882"
         d="m 163.63282,235.15443 c -1.14931,-0.90405 -2.07067,-2.86466 -2.07067,-4.4063 0,-1.26845 0.0269,-1.30197 0.89241,-1.11187 0.66346,0.14572 1.04262,0.03 1.47795,-0.45102 0.73263,-0.80954 0.96074,-0.80843 1.77782,0.009 0.49458,0.49458 0.88465,0.6054 1.5875,0.45103 0.91308,-0.20055 0.93182,-0.17836 0.93182,1.10321 0,2.14417 -1.57014,4.62476 -3.11574,4.92242 -0.36449,0.0702 -1.03098,-0.16206 -1.48109,-0.51612 z"
         style="fill:#fbfbfb;stroke-width:0.3175" />
      <path
         id="path2880"
         d="m 163.63282,235.15443 c -1.15165,-0.90589 -2.07067,-2.86561 -2.07067,-4.41549 0,-1.26375 0.0338,-1.30858 0.83516,-1.10746 0.61709,0.15488 1.02672,0.0297 1.56879,-0.47959 l 0.73362,-0.68921 0.87101,0.68513 c 0.63102,0.49636 1.11732,0.63104 1.76496,0.48879 0.86738,-0.19051 0.89396,-0.15745 0.89396,1.11153 0,2.14417 -1.57014,4.62476 -3.11574,4.92242 -0.36449,0.0702 -1.03098,-0.16206 -1.48109,-0.51612 z"
         style="fill:#f8f8f8;stroke-width:0.3175" />
      <path
         id="path2878"
         d="m 163.63282,235.15443 c -1.15165,-0.90589 -2.07067,-2.86561 -2.07067,-4.41549 0,-1.26375 0.0338,-1.30858 0.83516,-1.10746 0.61709,0.15488 1.02672,0.0297 1.56879,-0.47959 l 0.73362,-0.68921 0.87101,0.68513 c 0.63102,0.49636 1.11732,0.63104 1.76496,0.48879 0.85963,-0.1888 0.89369,-0.14965 0.88699,1.01951 -0.004,0.66872 -0.26941,1.78735 -0.59016,2.48585 -1.07863,2.34892 -2.59928,3.11404 -3.9997,2.01247 z"
         style="fill:#f6f6f6;stroke-width:0.3175" />
      <path
         id="path2876"
         d="m 163.63282,235.15443 c -1.15165,-0.90589 -2.07067,-2.86561 -2.07067,-4.41549 0,-1.25343 0.0391,-1.30724 0.81013,-1.11374 0.56353,0.14144 1.05773,0.009 1.62356,-0.43651 l 0.81342,-0.63984 0.81624,0.64205 c 0.58101,0.45702 1.07385,0.58547 1.71019,0.4457 0.85963,-0.1888 0.89369,-0.14965 0.88699,1.01951 -0.004,0.66872 -0.26941,1.78735 -0.59016,2.48585 -1.07863,2.34892 -2.59928,3.11404 -3.9997,2.01247 z"
         style="fill:#f5f5f5;stroke-width:0.3175" />
      <path
         id="path2874"
         d="m 163.60179,235.13002 c -1.08734,-0.8553 -2.02373,-2.91632 -2.03267,-4.47391 -0.007,-1.17521 0.0236,-1.20915 0.90625,-1.01528 0.61959,0.13609 1.07169,0.0421 1.40607,-0.29227 0.61156,-0.61155 1.14916,-0.61083 1.96078,0.003 0.39664,0.2998 0.95349,0.40399 1.50813,0.28217 0.84208,-0.18495 0.879,-0.14165 0.87233,1.02273 -0.008,1.40345 -0.88642,3.50088 -1.8097,4.32133 -0.9539,0.84766 -1.8647,0.89709 -2.81119,0.15258 z"
         style="fill:#f4f4f4;stroke-width:0.3175" />
      <path
         id="path2872"
         d="m 163.60179,235.13002 c -1.08734,-0.8553 -2.02373,-2.91632 -2.03267,-4.47391 -0.007,-1.17521 0.0236,-1.20915 0.90625,-1.01528 0.61959,0.13609 1.07169,0.0421 1.40607,-0.29227 0.61156,-0.61155 1.14916,-0.61083 1.96078,0.003 0.39664,0.2998 0.95349,0.40399 1.50813,0.28217 0.84208,-0.18495 0.879,-0.14165 0.87233,1.02273 -0.008,1.40345 -0.88642,3.50088 -1.8097,4.32133 -0.9539,0.84766 -1.8647,0.89709 -2.81119,0.15258 z m 2.48451,-0.79744 c 0.45812,-0.48021 0.98492,-1.27533 1.17065,-1.76691 0.44068,-1.16635 0.44131,-2.54147 0.001,-2.26937 -0.40562,0.25068 -2.20335,-0.4458 -2.20335,-0.85361 0,-0.15867 -0.41831,0.0208 -0.92958,0.39878 -0.51282,0.37914 -1.15338,0.60139 -1.42875,0.49572 -0.60179,-0.23093 -0.68047,0.85484 -0.16147,2.22848 0.38739,1.02532 1.83147,2.64004 2.36105,2.64004 0.1966,0 0.73228,-0.39291 1.1904,-0.87313 z"
         style="fill:#f1f1f1;stroke-width:0.3175" />
      <path
         id="path2870"
         d="m 163.60179,235.13002 c -1.08734,-0.8553 -2.02373,-2.91632 -2.03267,-4.47391 -0.007,-1.17521 0.0236,-1.20915 0.90625,-1.01528 0.61959,0.13609 1.07169,0.0421 1.40607,-0.29227 0.61156,-0.61155 1.14916,-0.61083 1.96078,0.003 0.39664,0.2998 0.95349,0.40399 1.50813,0.28217 0.84208,-0.18495 0.879,-0.14165 0.87233,1.02273 -0.008,1.40345 -0.88642,3.50088 -1.8097,4.32133 -0.9539,0.84766 -1.8647,0.89709 -2.81119,0.15258 z m 2.48451,-0.79744 c 1.45923,-1.52961 2.10788,-4.3042 0.9345,-3.99736 -0.31561,0.0825 -0.91669,-0.12756 -1.33573,-0.46688 -0.75527,-0.61157 -0.76941,-0.61138 -1.62574,0.0217 -0.47511,0.35127 -1.08847,0.55247 -1.36301,0.44712 -0.60179,-0.23093 -0.68047,0.85484 -0.16147,2.22848 0.38739,1.02532 1.83147,2.64004 2.36105,2.64004 0.1966,0 0.73228,-0.39291 1.1904,-0.87313 z"
         style="fill:#f0f0f0;stroke-width:0.3175" />
      <path
         id="path2868"
         d="m 163.60179,235.13002 c -1.08734,-0.8553 -2.02373,-2.91632 -2.03267,-4.47391 -0.007,-1.17521 0.0236,-1.20915 0.90625,-1.01528 0.61959,0.13609 1.07169,0.0421 1.40607,-0.29227 0.61156,-0.61155 1.14916,-0.61083 1.96078,0.003 0.39664,0.2998 0.95349,0.40399 1.50813,0.28217 0.84208,-0.18495 0.879,-0.14165 0.87233,1.02273 -0.008,1.40345 -0.88642,3.50088 -1.8097,4.32133 -0.9539,0.84766 -1.8647,0.89709 -2.81119,0.15258 z m 2.48451,-0.79744 c 1.45923,-1.52961 2.10788,-4.3042 0.9345,-3.99736 -0.31561,0.0825 -0.91669,-0.12756 -1.33573,-0.46688 -0.75527,-0.61157 -0.76941,-0.61138 -1.62574,0.0217 -0.47511,0.35127 -1.08847,0.55247 -1.36301,0.44712 -0.38631,-0.14824 -0.49917,0.0263 -0.49917,0.77186 0,0.52987 0.16033,1.27548 0.35629,1.65691 0.49546,0.96437 1.912,2.43975 2.34246,2.43975 0.1966,0 0.73228,-0.39291 1.1904,-0.87313 z"
         style="fill:#efefef;stroke-width:0.3175" />
      <path
         id="path2866"
         d="m 163.60179,235.13002 c -1.08734,-0.8553 -2.02373,-2.91632 -2.03267,-4.47391 -0.007,-1.17521 0.0236,-1.20915 0.90625,-1.01528 0.61959,0.13609 1.07169,0.0421 1.40607,-0.29227 0.61156,-0.61155 1.14916,-0.61083 1.96078,0.003 0.39664,0.2998 0.95349,0.40399 1.50813,0.28217 0.84208,-0.18495 0.879,-0.14165 0.87233,1.02273 -0.008,1.40345 -0.88642,3.50088 -1.8097,4.32133 -0.9539,0.84766 -1.8647,0.89709 -2.81119,0.15258 z m 2.46591,-0.79744 c 1.09885,-1.17814 1.52695,-2.07636 1.52695,-3.20377 0,-0.75382 -0.11544,-0.91346 -0.57385,-0.79359 -0.31561,0.0825 -0.91669,-0.12756 -1.33573,-0.46688 -0.75527,-0.61157 -0.76941,-0.61138 -1.62574,0.0217 -0.47511,0.35127 -1.08847,0.55247 -1.36301,0.44712 -0.38631,-0.14824 -0.49917,0.0263 -0.49917,0.77186 0,0.52987 0.16033,1.27548 0.35629,1.65691 0.49546,0.96437 1.912,2.43975 2.34246,2.43975 0.1966,0 0.72391,-0.39291 1.1718,-0.87313 z"
         style="fill:#eeeeee;stroke-width:0.3175" />
      <path
         id="path2864"
         d="m 163.60179,235.13002 c -1.08734,-0.8553 -2.02373,-2.91632 -2.03267,-4.47391 -0.007,-1.17521 0.0236,-1.20915 0.90625,-1.01528 0.61959,0.13609 1.07169,0.0421 1.40607,-0.29227 0.61156,-0.61155 1.14916,-0.61083 1.96078,0.003 0.39664,0.2998 0.95349,0.40399 1.50813,0.28217 0.84208,-0.18495 0.879,-0.14165 0.87233,1.02273 -0.008,1.40345 -0.88642,3.50088 -1.8097,4.32133 -0.9539,0.84766 -1.8647,0.89709 -2.81119,0.15258 z m 2.68538,-1.04138 c 0.53944,-0.61439 1.06291,-1.50736 1.16327,-1.98438 0.42887,-2.0386 0.43776,-1.98464 -0.29653,-1.80034 -0.43069,0.1081 -0.99942,-0.0619 -1.48511,-0.44396 -0.78046,-0.61391 -0.79358,-0.6139 -1.55368,0.002 -0.47959,0.38835 -1.03025,0.55455 -1.4709,0.44396 -0.74152,-0.18611 -0.73214,-0.2418 -0.30286,1.79875 0.20951,0.99587 1.94379,3.10145 2.55454,3.10145 0.22576,0 0.85183,-0.50268 1.39127,-1.11707 z"
         style="fill:#ebebeb;stroke-width:0.3175" />
      <path
         id="path2862"
         d="m 163.60179,235.13002 c -1.08967,-0.85713 -2.02375,-2.91728 -2.03267,-4.4831 -0.007,-1.15504 0.0392,-1.21346 0.80092,-1.02228 0.50604,0.12701 1.14015,0.006 1.69718,-0.32255 0.82811,-0.48918 0.94496,-0.48884 1.69849,0.005 0.52586,0.34455 1.09891,0.45749 1.63657,0.32255 0.78517,-0.19707 0.82701,-0.14517 0.8204,1.01739 -0.008,1.41147 -0.88421,3.5081 -1.8097,4.33052 -0.9539,0.84766 -1.8647,0.89709 -2.81119,0.15258 z m 2.68538,-1.04138 c 0.53944,-0.61439 1.06291,-1.50736 1.16327,-1.98438 0.42887,-2.0386 0.43776,-1.98464 -0.29653,-1.80034 -0.43069,0.1081 -0.99942,-0.0619 -1.48511,-0.44396 -0.78046,-0.61391 -0.79358,-0.6139 -1.55368,0.002 -0.47959,0.38835 -1.03025,0.55455 -1.4709,0.44396 -0.74152,-0.18611 -0.73214,-0.2418 -0.30286,1.79875 0.20951,0.99587 1.94379,3.10145 2.55454,3.10145 0.22576,0 0.85183,-0.50268 1.39127,-1.11707 z"
         style="fill:#eaeaea;stroke-width:0.3175" />
      <path
         id="path2860"
         d="m 163.60179,235.13002 c -1.08967,-0.85713 -2.02375,-2.91728 -2.03267,-4.4831 -0.007,-1.15504 0.0392,-1.21346 0.80092,-1.02228 0.51274,0.12869 1.14601,0.003 1.73338,-0.34394 0.87885,-0.51914 0.95707,-0.51812 1.55204,0.0203 0.45784,0.41434 0.88875,0.50942 1.60037,0.35312 0.95525,-0.2098 0.97369,-0.19069 0.96685,1.00197 -0.008,1.40345 -0.88642,3.50088 -1.8097,4.32133 -0.9539,0.84766 -1.8647,0.89709 -2.81119,0.15258 z m 2.68538,-1.04138 c 0.53944,-0.61439 1.06291,-1.50736 1.16327,-1.98438 0.42887,-2.0386 0.43776,-1.98464 -0.29653,-1.80034 -0.43069,0.1081 -0.99942,-0.0619 -1.48511,-0.44396 -0.78046,-0.61391 -0.79358,-0.6139 -1.55368,0.002 -0.47959,0.38835 -1.03025,0.55455 -1.4709,0.44396 -0.74152,-0.18611 -0.73214,-0.2418 -0.30286,1.79875 0.20951,0.99587 1.94379,3.10145 2.55454,3.10145 0.22576,0 0.85183,-0.50268 1.39127,-1.11707 z"
         style="fill:#e8e8e8;stroke-width:0.3175" />
      <path
         id="path2858"
         d="m 163.60179,235.13002 c -1.08967,-0.85713 -2.02375,-2.91728 -2.03267,-4.4831 -0.007,-1.15504 0.0392,-1.21346 0.80092,-1.02228 0.51274,0.12869 1.14601,0.003 1.73338,-0.34394 0.87885,-0.51914 0.95707,-0.51812 1.55204,0.0203 0.45784,0.41434 0.88875,0.50942 1.60037,0.35312 0.95215,-0.20913 0.97382,-0.1873 0.97382,0.9811 0,0.65724 -0.28936,1.79271 -0.64301,2.52327 -1.17193,2.42087 -2.54804,3.10171 -3.98485,1.97151 z m 2.68538,-1.04138 c 0.53944,-0.61439 1.06291,-1.50736 1.16327,-1.98438 0.42887,-2.0386 0.43776,-1.98464 -0.29653,-1.80034 -0.43069,0.1081 -0.99942,-0.0619 -1.48511,-0.44396 -0.78046,-0.61391 -0.79358,-0.6139 -1.55368,0.002 -0.47959,0.38835 -1.03025,0.55455 -1.4709,0.44396 -0.74152,-0.18611 -0.73214,-0.2418 -0.30286,1.79875 0.20951,0.99587 1.94379,3.10145 2.55454,3.10145 0.22576,0 0.85183,-0.50268 1.39127,-1.11707 z"
         style="fill:#e6e6e6;stroke-width:0.3175" />
      <path
         id="path2856"
         d="m 163.60179,235.13002 c -1.08967,-0.85713 -2.02375,-2.91728 -2.03267,-4.4831 -0.007,-1.15504 0.0392,-1.21346 0.80092,-1.02228 0.51274,0.12869 1.14601,0.003 1.73338,-0.34394 0.87885,-0.51914 0.95707,-0.51812 1.55204,0.0203 0.45784,0.41434 0.88875,0.50942 1.60037,0.35312 0.95215,-0.20913 0.97382,-0.1873 0.97382,0.9811 0,0.65724 -0.28936,1.79271 -0.64301,2.52327 -1.17193,2.42087 -2.54804,3.10171 -3.98485,1.97151 z m 2.68538,-1.04138 c 0.53944,-0.61439 1.06291,-1.50736 1.16327,-1.98438 0.42887,-2.0386 0.43776,-1.98464 -0.29653,-1.80034 -0.43069,0.1081 -0.99942,-0.0619 -1.48511,-0.44396 -0.78046,-0.61391 -0.79358,-0.6139 -1.55368,0.002 -0.49203,0.39843 -1.02707,0.55535 -1.49394,0.43818 -0.67285,-0.16888 -0.71264,-0.1049 -0.53098,0.85358 0.2588,1.36542 0.64743,2.12162 1.6339,3.17928 1.05651,1.13276 1.38146,1.10183 2.56307,-0.24395 z"
         style="fill:#e5e5e5;stroke-width:0.3175" />
      <path
         id="path2854"
         d="m 163.6694,235.18321 c -1.06357,-0.83661 -2.10725,-3.09368 -2.10725,-4.55716 0,-1.13154 0.0487,-1.19195 0.80789,-1.00141 0.51274,0.12869 1.14601,0.003 1.73338,-0.34394 0.87885,-0.51914 0.95707,-0.51812 1.55204,0.0203 0.45784,0.41434 0.88875,0.50942 1.60037,0.35312 0.95215,-0.20913 0.97382,-0.1873 0.97382,0.9811 0,0.65724 -0.28936,1.79271 -0.64301,2.52327 -1.15169,2.37908 -2.54873,3.10116 -3.91724,2.0247 z m 2.3983,-0.85063 c 0.98647,-1.05765 1.3751,-1.81386 1.6339,-3.17927 0.18124,-0.95623 0.14078,-1.02219 -0.52465,-0.85517 -0.45694,0.11468 -1.00933,-0.0458 -1.50815,-0.43818 -0.78046,-0.61391 -0.79358,-0.6139 -1.55368,0.002 -0.49203,0.39843 -1.02707,0.55535 -1.49394,0.43818 -0.67285,-0.16888 -0.71264,-0.10491 -0.53098,0.85358 0.10802,0.56988 0.3366,1.3219 0.50796,1.67115 0.44021,0.89716 1.87225,2.38125 2.29774,2.38125 0.1966,0 0.72391,-0.39291 1.1718,-0.87313 z"
         style="fill:#e1e1e1;stroke-width:0.3175" />
      <path
         id="path2852"
         d="m 163.6694,235.18321 c -1.06357,-0.83661 -2.10725,-3.09368 -2.10725,-4.55716 0,-1.13154 0.0487,-1.19195 0.80789,-1.00141 0.51274,0.12869 1.14601,0.003 1.73338,-0.34394 0.88055,-0.52015 0.95654,-0.5186 1.56475,0.0318 0.45638,0.41302 0.91419,0.52352 1.60036,0.38629 0.92974,-0.18595 0.96112,-0.1543 0.96112,0.9696 0,0.639 -0.28936,1.75954 -0.64301,2.4901 -1.15169,2.37908 -2.54873,3.10116 -3.91724,2.0247 z m 2.3983,-0.85063 c 0.98647,-1.05765 1.3751,-1.81386 1.6339,-3.17927 0.18124,-0.95623 0.14078,-1.02219 -0.52465,-0.85517 -0.45694,0.11468 -1.00933,-0.0458 -1.50815,-0.43818 -0.78046,-0.61391 -0.79358,-0.6139 -1.55368,0.002 -0.49203,0.39843 -1.02707,0.55535 -1.49394,0.43818 -0.67285,-0.16888 -0.71264,-0.10491 -0.53098,0.85358 0.10802,0.56988 0.3366,1.3219 0.50796,1.67115 0.44021,0.89716 1.87225,2.38125 2.29774,2.38125 0.1966,0 0.72391,-0.39291 1.1718,-0.87313 z"
         style="fill:#e0e0e0;stroke-width:0.3175" />
      <path
         id="path2850"
         d="m 163.65961,235.1755 c -1.05487,-0.82976 -2.09746,-3.09117 -2.09746,-4.54945 0,-1.13154 0.0487,-1.19195 0.80789,-1.00141 0.51274,0.12869 1.14601,0.003 1.73338,-0.34394 0.88055,-0.52015 0.95654,-0.5186 1.56475,0.0318 0.45638,0.41302 0.91419,0.52352 1.60036,0.38629 0.92974,-0.18595 0.96112,-0.1543 0.96112,0.9696 0,2.14531 -1.78635,4.8191 -3.37544,5.05233 -0.23242,0.0341 -0.76999,-0.21124 -1.1946,-0.54524 z m 2.40809,-0.84292 c 0.98647,-1.05765 1.3751,-1.81386 1.6339,-3.17927 0.18124,-0.95623 0.14078,-1.02219 -0.52465,-0.85517 -0.45694,0.11468 -1.00933,-0.0458 -1.50815,-0.43818 -0.78046,-0.61391 -0.79358,-0.6139 -1.55368,0.002 -0.49203,0.39843 -1.02707,0.55535 -1.49394,0.43818 -0.67285,-0.16888 -0.71264,-0.10491 -0.53098,0.85358 0.10802,0.56988 0.3366,1.3219 0.50796,1.67115 0.44021,0.89716 1.87225,2.38125 2.29774,2.38125 0.1966,0 0.72391,-0.39291 1.1718,-0.87313 z"
         style="fill:#dedede;stroke-width:0.3175" />
      <path
         id="path2848"
         d="m 163.4651,234.8863 c -1.16721,-1.09034 -1.90295,-2.75616 -1.90295,-4.30856 0,-1.07978 0.0532,-1.14252 0.80789,-0.9531 0.51274,0.12869 1.14601,0.003 1.73338,-0.34394 0.88055,-0.52015 0.95654,-0.5186 1.56475,0.0318 0.45638,0.41302 0.91419,0.52352 1.60036,0.38629 0.92974,-0.18595 0.96112,-0.1543 0.96112,0.9696 0,2.14732 -1.78642,4.81911 -3.3784,5.05277 -0.23405,0.0343 -0.85782,-0.34135 -1.38615,-0.83488 z m 2.6026,-0.55372 c 0.98647,-1.05765 1.3751,-1.81386 1.6339,-3.17927 0.18124,-0.95623 0.14078,-1.02219 -0.52465,-0.85517 -0.45694,0.11468 -1.00933,-0.0458 -1.50815,-0.43818 -0.78046,-0.61391 -0.79358,-0.6139 -1.55368,0.002 -0.49203,0.39843 -1.02707,0.55535 -1.49394,0.43818 -0.67294,-0.1689 -0.71262,-0.10503 -0.53035,0.85358 0.2592,1.36323 0.90349,2.61296 1.75708,3.40819 0.91103,0.84876 1.24697,0.81411 2.21979,-0.22891 z"
         style="fill:#dadada;stroke-width:0.3175" />
      <path
         id="path2846"
         d="m 163.4651,234.8863 c -1.16721,-1.09034 -1.90295,-2.75616 -1.90295,-4.30856 0,-1.07978 0.0532,-1.14252 0.80789,-0.9531 0.51274,0.12869 1.14601,0.003 1.73338,-0.34394 0.88055,-0.52015 0.95654,-0.5186 1.56475,0.0318 0.45638,0.41302 0.91419,0.52352 1.60036,0.38629 0.92974,-0.18595 0.96112,-0.1543 0.96112,0.9696 0,2.14732 -1.78642,4.81911 -3.3784,5.05277 -0.23405,0.0343 -0.85782,-0.34135 -1.38615,-0.83488 z m 2.47879,-0.3248 c 0.85359,-0.79524 1.49788,-2.04496 1.75708,-3.40819 0.18184,-0.95636 0.14149,-1.02221 -0.52402,-0.85517 -0.45694,0.11468 -1.00933,-0.0458 -1.50815,-0.43818 -0.78046,-0.61391 -0.79358,-0.6139 -1.55368,0.002 -0.49203,0.39843 -1.02707,0.55535 -1.49394,0.43818 -0.67294,-0.1689 -0.71262,-0.10503 -0.53035,0.85358 0.36152,1.90135 1.85047,4.0524 2.80507,4.0524 0.19608,0 0.66768,-0.28989 1.04799,-0.64421 z"
         style="fill:#d8d8d8;stroke-width:0.3175" />
      <path
         id="path2844"
         d="m 163.4651,234.8863 c -1.16721,-1.09034 -1.90295,-2.75616 -1.90295,-4.30856 0,-1.07978 0.0532,-1.14252 0.80789,-0.9531 0.51274,0.12869 1.14601,0.003 1.73338,-0.34394 0.88055,-0.52015 0.95654,-0.5186 1.56475,0.0318 0.45638,0.41302 0.91419,0.52352 1.60036,0.38629 0.92974,-0.18595 0.96112,-0.1543 0.96112,0.9696 0,2.14732 -1.78642,4.81911 -3.3784,5.05277 -0.23405,0.0343 -0.85782,-0.34135 -1.38615,-0.83488 z m 2.47879,-0.3248 c 0.85359,-0.79524 1.49788,-2.04496 1.75708,-3.40819 0.18184,-0.95636 0.14149,-1.02221 -0.52402,-0.85517 -0.45694,0.11468 -1.00933,-0.0458 -1.50815,-0.43818 -0.78046,-0.61391 -0.79358,-0.6139 -1.55368,0.002 -0.5096,0.41265 -1.0222,0.55657 -1.52912,0.42934 -0.71888,-0.18042 -0.74966,-0.13152 -0.53747,0.85359 0.41745,1.93795 1.9061,4.06123 2.84737,4.06123 0.19608,0 0.66768,-0.28989 1.04799,-0.64421 z"
         style="fill:#d7d7d7;stroke-width:0.3175" />
      <path
         id="path2842"
         d="m 163.4651,234.8863 c -1.16721,-1.09034 -1.90295,-2.75616 -1.90295,-4.30856 0,-1.07978 0.0532,-1.14252 0.80789,-0.9531 0.51274,0.12869 1.14601,0.003 1.73338,-0.34394 0.88055,-0.52015 0.95654,-0.5186 1.56475,0.0318 0.45638,0.41302 0.91419,0.52352 1.60036,0.38629 0.92974,-0.18595 0.96112,-0.1543 0.96112,0.9696 0,2.14732 -1.78642,4.81911 -3.3784,5.05277 -0.23405,0.0343 -0.85782,-0.34135 -1.38615,-0.83488 z m 2.47879,-0.3248 c 0.84691,-0.78901 1.50075,-2.03065 1.79938,-3.41702 0.21176,-0.9831 0.18031,-1.03374 -0.53113,-0.85518 -0.49703,0.12475 -1.02601,-0.0224 -1.54334,-0.42934 -0.78046,-0.61391 -0.79358,-0.6139 -1.55368,0.002 -0.5096,0.41265 -1.0222,0.55657 -1.52912,0.42934 -0.71888,-0.18042 -0.74966,-0.13152 -0.53747,0.85359 0.42584,1.9769 1.85646,4.06123 2.7875,4.06123 0.22901,0 0.72755,-0.28989 1.10786,-0.64421 z"
         style="fill:#d6d6d6;stroke-width:0.3175" />
      <path
         id="path2840"
         d="m 163.4651,234.8863 c -1.16721,-1.09034 -1.90295,-2.75616 -1.90295,-4.30856 0,-1.07978 0.0532,-1.14252 0.80789,-0.9531 0.51274,0.12869 1.14601,0.003 1.73338,-0.34394 0.88055,-0.52015 0.95654,-0.5186 1.56475,0.0318 0.45638,0.41302 0.91419,0.52352 1.60036,0.38629 0.92974,-0.18595 0.96112,-0.1543 0.96112,0.9696 0,2.14732 -1.78642,4.81911 -3.3784,5.05277 -0.23405,0.0343 -0.85782,-0.34135 -1.38615,-0.83488 z m 2.47879,-0.3248 c 0.84691,-0.78901 1.50075,-2.03065 1.79938,-3.41702 0.21219,-0.98511 0.18141,-1.03401 -0.53747,-0.85359 -0.50922,0.12781 -1.01957,-0.0176 -1.53622,-0.43768 -0.70953,-0.57691 -0.82009,-0.58731 -1.3334,-0.12537 -0.30785,0.27704 -0.99263,0.5037 -1.52173,0.5037 -0.90854,0 -0.95031,0.0544 -0.75142,0.97896 0.41157,1.91317 1.85667,3.99521 2.773,3.99521 0.22901,0 0.72755,-0.28989 1.10786,-0.64421 z"
         style="fill:#d4d4d4;stroke-width:0.3175" />
      <path
         id="path2838"
         d="m 163.4651,234.8863 c -1.16721,-1.09034 -1.90295,-2.75616 -1.90295,-4.30856 0,-1.07978 0.0532,-1.14252 0.80789,-0.9531 0.51274,0.12869 1.14601,0.003 1.73338,-0.34394 0.88055,-0.52015 0.95654,-0.5186 1.56475,0.0318 0.45638,0.41302 0.91419,0.52352 1.60036,0.38629 0.92974,-0.18595 0.96112,-0.1543 0.96112,0.9696 0,2.14732 -1.78642,4.81911 -3.3784,5.05277 -0.23405,0.0343 -0.85782,-0.34135 -1.38615,-0.83488 z m 2.52517,-0.29871 c 0.77993,-0.77993 1.46684,-2.11427 1.7385,-3.37709 0.1996,-0.92786 0.15937,-0.97896 -0.77063,-0.97896 -0.53968,0 -1.21643,-0.2352 -1.50391,-0.52267 -0.48523,-0.48524 -0.56404,-0.48524 -1.10022,0 -0.31766,0.28747 -1.01046,0.52267 -1.53956,0.52267 -0.90854,0 -0.95031,0.0544 -0.75142,0.97896 0.42384,1.97021 1.85969,3.99521 2.83287,3.99521 0.26194,0 0.7544,-0.27815 1.09437,-0.61812 z"
         style="fill:#d2d2d2;stroke-width:0.3175" />
      <path
         id="path2836"
         d="m 163.439,234.86192 c -1.14307,-1.06779 -1.87685,-2.74275 -1.87685,-4.28418 0,-1.07978 0.0532,-1.14252 0.80789,-0.9531 0.51274,0.12869 1.14601,0.003 1.73338,-0.34394 0.88055,-0.52015 0.95654,-0.5186 1.56475,0.0318 0.45638,0.41302 0.91419,0.52352 1.60036,0.38629 0.88199,-0.1764 0.96097,-0.12099 0.95935,0.67296 -0.003,1.60447 -0.6603,3.25234 -1.71873,4.31077 -1.28007,1.28007 -1.85584,1.31371 -3.07015,0.17938 z m 2.55127,-0.27433 c 0.77993,-0.77993 1.46684,-2.11427 1.7385,-3.37709 0.1996,-0.92786 0.15937,-0.97896 -0.77063,-0.97896 -0.53968,0 -1.21643,-0.2352 -1.50391,-0.52267 -0.48523,-0.48524 -0.56404,-0.48524 -1.10022,0 -0.31766,0.28747 -1.01046,0.52267 -1.53956,0.52267 -0.90854,0 -0.95031,0.0544 -0.75142,0.97896 0.42384,1.97021 1.85969,3.99521 2.83287,3.99521 0.26194,0 0.7544,-0.27815 1.09437,-0.61812 z"
         style="fill:#d1d1d1;stroke-width:0.3175" />
      <path
         id="path2834"
         d="m 163.439,234.86192 c -1.14307,-1.06779 -1.87685,-2.74275 -1.87685,-4.28418 0,-1.07978 0.0532,-1.14252 0.80789,-0.9531 0.51274,0.12869 1.14601,0.003 1.73338,-0.34394 0.88055,-0.52015 0.95654,-0.5186 1.56475,0.0318 0.45638,0.41302 0.91419,0.52352 1.60036,0.38629 0.88199,-0.1764 0.96097,-0.12099 0.95935,0.67296 -0.003,1.60447 -0.6603,3.25234 -1.71873,4.31077 -1.28007,1.28007 -1.85584,1.31371 -3.07015,0.17938 z m 2.55127,-0.27433 c 0.77993,-0.77993 1.46684,-2.11427 1.7385,-3.37709 0.1996,-0.92786 0.15937,-0.97896 -0.77063,-0.97896 -0.53968,0 -1.21643,-0.2352 -1.50391,-0.52267 -0.48523,-0.48524 -0.56404,-0.48524 -1.10022,0 -0.31766,0.28747 -1.01046,0.52267 -1.53956,0.52267 -0.90865,0 -0.9503,0.0543 -0.75091,0.97896 0.30195,1.40024 1.30482,3.27123 1.957,3.65103 0.82288,0.47921 1.28018,0.41561 1.96973,-0.27394 z"
         style="fill:#d0d0d0;stroke-width:0.3175" />
      <path
         id="path2832"
         d="m 163.28265,234.68254 c -1.06812,-1.06811 -1.71552,-2.70783 -1.71873,-4.35312 -0.002,-0.81402 0.0815,-0.88665 0.80612,-0.70478 0.51274,0.12869 1.14601,0.003 1.73338,-0.34394 0.88055,-0.52015 0.95654,-0.5186 1.56475,0.0318 0.45638,0.41302 0.91419,0.52352 1.60036,0.38629 0.88199,-0.1764 0.96097,-0.12099 0.95935,0.67296 -0.005,2.3263 -1.89146,5.36311 -3.33198,5.36311 -0.3085,0 -1.03447,-0.47356 -1.61325,-1.05234 z m 2.70762,-0.0949 c 0.77993,-0.77993 1.46684,-2.11427 1.7385,-3.37709 0.1996,-0.92786 0.15937,-0.97896 -0.77063,-0.97896 -0.53968,0 -1.21643,-0.2352 -1.50391,-0.52267 -0.48523,-0.48524 -0.56404,-0.48524 -1.10022,0 -0.31766,0.28747 -1.01046,0.52267 -1.53956,0.52267 -0.90865,0 -0.9503,0.0543 -0.75091,0.97896 0.30195,1.40024 1.30482,3.27123 1.957,3.65103 0.82288,0.47921 1.28018,0.41561 1.96973,-0.27394 z"
         style="fill:#cecece;stroke-width:0.3175" />
      <path
         id="path2830"
         d="m 163.28265,234.68254 c -1.06812,-1.06811 -1.71552,-2.70783 -1.71873,-4.35312 -0.002,-0.81402 0.0815,-0.88665 0.80612,-0.70478 0.51274,0.12869 1.14601,0.003 1.73338,-0.34394 0.88055,-0.52015 0.95654,-0.5186 1.56475,0.0318 0.45638,0.41302 0.91419,0.52352 1.60036,0.38629 0.88199,-0.1764 0.96097,-0.12099 0.95935,0.67296 -0.005,2.3263 -1.89146,5.36311 -3.33198,5.36311 -0.3085,0 -1.03447,-0.47356 -1.61325,-1.05234 z m 2.42684,0.19505 c 0.69416,-0.3715 1.70346,-2.2049 2.01877,-3.66709 0.2001,-0.92797 0.15999,-0.97896 -0.77012,-0.97896 -0.53968,0 -1.21643,-0.2352 -1.50391,-0.52267 -0.48523,-0.48524 -0.56404,-0.48524 -1.10022,0 -0.31766,0.28747 -1.01046,0.52267 -1.53956,0.52267 -0.90752,0 -0.95035,0.0555 -0.75617,0.97896 0.31614,1.50348 1.10341,3.01514 1.83841,3.52995 0.78927,0.55283 1.00551,0.56919 1.8128,0.13714 z"
         style="fill:#cdcdcd;stroke-width:0.3175" />
      <path
         id="path2828"
         d="m 163.28265,234.68254 c -1.06812,-1.06811 -1.71552,-2.70783 -1.71873,-4.35312 -0.002,-0.81402 0.0815,-0.88665 0.80612,-0.70478 0.51274,0.12869 1.14601,0.003 1.73338,-0.34394 0.88055,-0.52015 0.95654,-0.5186 1.56475,0.0318 0.45638,0.41302 0.91419,0.52352 1.60036,0.38629 0.88199,-0.1764 0.96097,-0.12099 0.95935,0.67296 -0.005,2.27517 -1.92671,5.36311 -3.3382,5.36311 -0.30509,0 -1.02825,-0.47356 -1.60703,-1.05234 z m 2.42684,0.19505 c 0.69416,-0.3715 1.70346,-2.2049 2.01877,-3.66709 0.2001,-0.92797 0.15999,-0.97896 -0.77012,-0.97896 -0.53968,0 -1.21643,-0.2352 -1.50391,-0.52267 -0.48523,-0.48524 -0.56404,-0.48524 -1.10022,0 -0.31766,0.28747 -1.01046,0.52267 -1.53956,0.52267 -0.90752,0 -0.95035,0.0555 -0.75617,0.97896 0.31614,1.50348 1.10341,3.01514 1.83841,3.52995 0.78927,0.55283 1.00551,0.56919 1.8128,0.13714 z"
         style="fill:#cccccc;stroke-width:0.3175" />
      <path
         id="path2826"
         d="m 163.27891,234.67881 c -1.06987,-1.06988 -1.8365,-3.07979 -1.65522,-4.33957 0.0737,-0.51222 0.29016,-0.66902 0.84086,-0.60914 0.40788,0.0444 1.15172,-0.16163 1.65298,-0.45773 0.86301,-0.50979 0.94531,-0.50766 1.55064,0.0402 0.45638,0.41302 0.91419,0.52352 1.60036,0.38629 0.88199,-0.1764 0.96097,-0.12099 0.95935,0.67296 -0.005,2.27517 -1.92671,5.36311 -3.3382,5.36311 -0.30509,0 -1.02993,-0.47523 -1.61077,-1.05607 z m 2.6162,0.0616 c 0.735,-0.51481 1.52227,-2.02647 1.83841,-3.52995 0.19488,-0.92684 0.1536,-0.97896 -0.77538,-0.97896 -0.53968,0 -1.21643,-0.2352 -1.50391,-0.52267 -0.48523,-0.48524 -0.56404,-0.48524 -1.10022,0 -0.31766,0.28747 -1.01046,0.52267 -1.53956,0.52267 -0.90752,0 -0.95035,0.0555 -0.75617,0.97896 0.45151,2.14727 1.76402,3.99521 2.83762,3.99521 0.18423,0 0.63387,-0.20937 0.99921,-0.46526 z"
         style="fill:#cbcbcb;stroke-width:0.3175" />
      <path
         id="path2824"
         d="m 163.27891,234.67881 c -1.06987,-1.06988 -1.8365,-3.07979 -1.65522,-4.33957 0.0737,-0.51222 0.29016,-0.66902 0.84086,-0.60914 0.40788,0.0444 1.15172,-0.16163 1.65298,-0.45773 0.86301,-0.50979 0.94531,-0.50766 1.55064,0.0402 0.45638,0.41302 0.91419,0.52352 1.60036,0.38629 0.87335,-0.17467 0.96112,-0.11658 0.96112,0.63613 0,2.23504 -1.95755,5.39994 -3.33997,5.39994 -0.30509,0 -1.02993,-0.47523 -1.61077,-1.05607 z m 2.6162,0.0616 c 0.73571,-0.51531 1.5223,-2.02668 1.83932,-3.53413 0.19634,-0.93356 0.15556,-0.98461 -0.80843,-1.01201 -0.55835,-0.0159 -1.23552,-0.2492 -1.50482,-0.51849 -0.44116,-0.44117 -0.54678,-0.4379 -1.06717,0.0331 -0.31766,0.28747 -1.01046,0.52267 -1.53956,0.52267 -0.90752,0 -0.95035,0.0555 -0.75617,0.97896 0.45151,2.14727 1.76402,3.99521 2.83762,3.99521 0.18423,0 0.63387,-0.20937 0.99921,-0.46526 z"
         style="fill:#c9c9c9;stroke-width:0.3175" />
      <path
         id="path2822"
         d="m 163.31111,234.66781 c -1.0505,-1.08167 -1.91181,-3.34046 -1.68718,-4.42467 0.0838,-0.40425 0.3558,-0.56795 0.85261,-0.51304 0.40129,0.0444 1.13973,-0.16163 1.64099,-0.45773 0.86301,-0.50979 0.94531,-0.50766 1.55064,0.0402 0.45638,0.41302 0.91419,0.52352 1.60036,0.38629 0.87335,-0.17467 0.96112,-0.11658 0.96112,0.63613 0,1.49626 -0.72066,3.27406 -1.76172,4.346 -1.28753,1.32573 -1.85884,1.32335 -3.15682,-0.0131 z m 2.584,0.0726 c 0.73571,-0.51531 1.5223,-2.02668 1.83932,-3.53413 0.19634,-0.93356 0.15556,-0.98461 -0.80843,-1.01201 -0.55835,-0.0159 -1.23552,-0.2492 -1.50482,-0.51849 -0.44116,-0.44117 -0.54322,-0.44113 -1.03116,4.6e-4 -0.29785,0.26955 -0.99107,0.50287 -1.54048,0.51849 -0.94589,0.0269 -0.98796,0.0806 -0.79217,1.01155 0.45246,2.15144 1.76403,3.99939 2.83853,3.99939 0.18423,0 0.63387,-0.20937 0.99921,-0.46526 z"
         style="fill:#c6c6c6;stroke-width:0.3175" />
      <path
         id="path2820"
         d="m 163.33671,234.69417 c -1.07228,-1.10409 -1.93936,-3.35739 -1.71278,-4.45103 0.0838,-0.40425 0.3558,-0.56795 0.85261,-0.51304 0.40129,0.0444 1.13973,-0.16163 1.64099,-0.45773 0.86301,-0.50979 0.94531,-0.50766 1.55064,0.0402 0.45638,0.41302 0.91419,0.52352 1.60036,0.38629 0.91182,-0.18236 0.96076,-0.1397 0.95415,0.83171 -0.0137,2.01357 -1.92417,4.97825 -3.34213,5.18636 -0.26505,0.0389 -0.95978,-0.42132 -1.54384,-1.02271 z m 2.5584,0.0463 c 0.73571,-0.51531 1.5223,-2.02668 1.83932,-3.53413 0.19634,-0.93356 0.15556,-0.98461 -0.80843,-1.01201 -0.55835,-0.0159 -1.23552,-0.2492 -1.50482,-0.51849 -0.44116,-0.44117 -0.54322,-0.44113 -1.03116,4.6e-4 -0.29785,0.26955 -0.99107,0.50287 -1.54048,0.51849 -0.94589,0.0269 -0.98796,0.0806 -0.79217,1.01155 0.45246,2.15144 1.76403,3.99939 2.83853,3.99939 0.18423,0 0.63387,-0.20937 0.99921,-0.46526 z"
         style="fill:#c5c5c5;stroke-width:0.3175" />
      <path
         id="path2818"
         d="m 163.33671,234.69417 c -1.76183,-1.8141 -2.36678,-5.1524 -0.89625,-4.94582 0.38715,0.0544 1.12793,-0.1516 1.64618,-0.45773 0.9014,-0.53247 0.97,-0.53152 1.58153,0.0219 0.45638,0.41302 0.91419,0.52352 1.60036,0.38629 0.91182,-0.18236 0.96076,-0.1397 0.95415,0.83171 -0.0137,2.01357 -1.92417,4.97825 -3.34213,5.18636 -0.26505,0.0389 -0.95978,-0.42132 -1.54384,-1.02271 z m 2.5584,0.0463 c 0.73571,-0.51531 1.5223,-2.02668 1.83932,-3.53413 0.19634,-0.93356 0.15556,-0.98461 -0.80843,-1.01201 -0.55835,-0.0159 -1.23552,-0.2492 -1.50482,-0.51849 -0.44116,-0.44117 -0.54322,-0.44113 -1.03116,4.6e-4 -0.29785,0.26955 -0.98453,0.50268 -1.52596,0.51808 -0.54142,0.0154 -0.98441,0.16826 -0.98441,0.33971 0,0.93867 0.86459,2.94526 1.61531,3.74891 0.97074,1.03918 1.44154,1.12891 2.40015,0.45747 z"
         style="fill:#c4c4c4;stroke-width:0.3175" />
      <path
         id="path2816"
         d="m 163.33638,234.69383 c -1.76154,-1.81381 -2.3663,-5.15204 -0.89592,-4.94548 0.38715,0.0544 1.12793,-0.1516 1.64618,-0.45773 0.9014,-0.53247 0.97,-0.53152 1.58153,0.0219 0.45638,0.41302 0.91419,0.52352 1.60036,0.38629 0.91182,-0.18236 0.96076,-0.1397 0.95415,0.83171 -0.009,1.26529 -0.95608,3.41198 -1.88987,4.28194 -1.18644,1.10534 -1.83257,1.07976 -2.99643,-0.11863 z m 2.55873,0.0466 c 0.73571,-0.51531 1.5223,-2.02668 1.83932,-3.53413 0.19634,-0.93356 0.15556,-0.98461 -0.80843,-1.01201 -0.55835,-0.0159 -1.23552,-0.2492 -1.50482,-0.51849 -0.44116,-0.44117 -0.54322,-0.44113 -1.03116,4.6e-4 -0.29785,0.26955 -0.98453,0.50268 -1.52596,0.51808 -0.54142,0.0154 -0.98441,0.16826 -0.98441,0.33971 0,0.93867 0.86459,2.94526 1.61531,3.74891 0.97074,1.03918 1.44154,1.12891 2.40015,0.45747 z"
         style="fill:#c3c3c3;stroke-width:0.3175" />
      <path
         id="path2814"
         d="m 163.36743,234.7019 c -0.97934,-0.97935 -1.90258,-3.24195 -1.75337,-4.29702 0.0816,-0.57699 0.27495,-0.73206 0.81857,-0.65653 0.39146,0.0544 1.13576,-0.1516 1.65401,-0.45773 0.9014,-0.53247 0.97,-0.53152 1.58153,0.0219 0.45638,0.41302 0.91419,0.52352 1.60036,0.38629 0.91182,-0.18236 0.96076,-0.1397 0.95415,0.83171 -0.009,1.28173 -0.95973,3.41539 -1.92177,4.31166 -0.97184,0.90541 -1.93379,0.85941 -2.93348,-0.14028 z m 2.92941,-0.41892 c 0.75072,-0.80365 1.61531,-2.81024 1.61531,-3.74891 0,-0.17145 -0.4503,-0.32453 -1.00067,-0.34018 -0.55037,-0.0157 -1.221,-0.24878 -1.4903,-0.51807 -0.44116,-0.44117 -0.54322,-0.44113 -1.03116,4.6e-4 -0.29785,0.26955 -0.98453,0.50268 -1.52596,0.51808 -1.10363,0.0314 -1.13792,0.13907 -0.60773,1.90866 0.43166,1.44076 1.84552,3.10269 2.63957,3.10269 0.29644,0 0.92686,-0.41523 1.40094,-0.92273 z"
         style="fill:#c2c2c2;stroke-width:0.3175" />
      <path
         id="path2812"
         d="m 163.36743,234.7019 c -0.97934,-0.97935 -1.90258,-3.24195 -1.75337,-4.29702 0.0816,-0.57699 0.27495,-0.73206 0.81857,-0.65653 0.39146,0.0544 1.13576,-0.1516 1.65401,-0.45773 0.89908,-0.5311 0.9708,-0.5308 1.56458,0.007 0.37386,0.33834 0.98107,0.52108 1.52099,0.45773 0.74196,-0.0871 0.91732,0.0263 1.00553,0.64997 0.14921,1.05507 -0.77403,3.31767 -1.75337,4.29702 -1.04241,1.04241 -2.01453,1.04241 -3.05694,0 z m 2.92941,-0.41892 c 0.75072,-0.80365 1.61531,-2.81024 1.61531,-3.74891 0,-0.17145 -0.4503,-0.32453 -1.00067,-0.34018 -0.55037,-0.0157 -1.221,-0.24878 -1.4903,-0.51807 -0.44116,-0.44117 -0.54322,-0.44113 -1.03116,4.6e-4 -0.29785,0.26955 -0.98453,0.50268 -1.52596,0.51808 -1.10363,0.0314 -1.13792,0.13907 -0.60773,1.90866 0.43166,1.44076 1.84552,3.10269 2.63957,3.10269 0.29644,0 0.92686,-0.41523 1.40094,-0.92273 z"
         style="fill:#c1c1c1;stroke-width:0.3175" />
      <path
         id="path2810"
         d="m 163.36743,234.7019 c -0.97934,-0.97935 -1.90258,-3.24195 -1.75337,-4.29702 0.0899,-0.6353 0.26233,-0.73989 1.08468,-0.65778 0.59818,0.0597 1.1372,-0.0944 1.38825,-0.39688 0.5222,-0.6292 1.09562,-0.6292 1.61782,0 0.25105,0.30251 0.79007,0.4566 1.38825,0.39688 0.82235,-0.0821 0.99483,0.0225 1.08468,0.65778 0.14921,1.05507 -0.77403,3.31767 -1.75337,4.29702 -1.04241,1.04241 -2.01453,1.04241 -3.05694,0 z m 2.92941,-0.41892 c 0.76744,-0.82154 1.61531,-2.8147 1.61531,-3.79723 0,-0.19802 -0.45309,-0.36004 -1.00687,-0.36004 -0.55379,0 -1.24768,-0.21792 -1.54198,-0.48426 -0.47958,-0.43401 -0.5768,-0.43401 -0.937,0 -0.22105,0.26634 -0.88447,0.48426 -1.47428,0.48426 -1.17689,0 -1.24185,0.17082 -0.74507,1.95939 0.37429,1.34762 1.90204,3.12061 2.68895,3.12061 0.29644,0 0.92686,-0.41523 1.40094,-0.92273 z"
         style="fill:#c0c0c0;stroke-width:0.3175" />
      <path
         id="path2808"
         d="m 163.36743,234.7019 c -0.97934,-0.97935 -1.90258,-3.24195 -1.75337,-4.29702 0.0899,-0.6353 0.26233,-0.73989 1.08468,-0.65778 0.59818,0.0597 1.1372,-0.0944 1.38825,-0.39688 0.5222,-0.6292 1.09562,-0.6292 1.61782,0 0.25105,0.30251 0.79007,0.4566 1.38825,0.39688 0.81027,-0.0809 0.99535,0.0257 1.08002,0.62224 0.25914,1.82575 -1.85039,5.15387 -3.26678,5.15387 -0.39466,0 -1.08715,-0.36959 -1.53887,-0.82131 z m 2.92941,-0.41892 c 0.76744,-0.82154 1.61531,-2.8147 1.61531,-3.79723 0,-0.19802 -0.45309,-0.36004 -1.00687,-0.36004 -0.55379,0 -1.24768,-0.21792 -1.54198,-0.48426 -0.47958,-0.43401 -0.5768,-0.43401 -0.937,0 -0.22105,0.26634 -0.88447,0.48426 -1.47428,0.48426 -1.17689,0 -1.24185,0.17082 -0.74507,1.95939 0.37429,1.34762 1.90204,3.12061 2.68895,3.12061 0.29644,0 0.92686,-0.41523 1.40094,-0.92273 z"
         style="fill:#bfbfbf;stroke-width:0.3175" />
      <path
         id="path2806"
         d="m 163.36743,234.7019 c -0.97934,-0.97935 -1.90258,-3.24195 -1.75337,-4.29702 0.0899,-0.6353 0.26233,-0.73989 1.08468,-0.65778 0.59818,0.0597 1.1372,-0.0944 1.38825,-0.39688 0.5222,-0.6292 1.09562,-0.6292 1.61782,0 0.25105,0.30251 0.79007,0.4566 1.38825,0.39688 0.81027,-0.0809 0.99535,0.0257 1.08002,0.62224 0.25914,1.82575 -1.85039,5.15387 -3.26678,5.15387 -0.39466,0 -1.08715,-0.36959 -1.53887,-0.82131 z m 2.98056,-0.47368 c 0.81786,-0.87551 1.55759,-2.63 1.56239,-3.70564 0.001,-0.23444 -0.41033,-0.39687 -1.0051,-0.39687 -0.55379,0 -1.24768,-0.21792 -1.54198,-0.48426 -0.47958,-0.43401 -0.5768,-0.43401 -0.937,0 -0.22105,0.26634 -0.88447,0.48426 -1.47428,0.48426 -1.17689,0 -1.24185,0.17082 -0.74507,1.95939 0.37429,1.34762 1.90204,3.12061 2.68895,3.12061 0.29644,0 0.94988,-0.43987 1.45209,-0.97749 z"
         style="fill:#bcbcbc;stroke-width:0.3175" />
      <path
         id="path2804"
         d="m 163.21615,234.43919 c -1.05931,-1.20649 -1.753,-2.97382 -1.59743,-4.06985 0.0847,-0.59651 0.26975,-0.70315 1.08002,-0.62224 0.59818,0.0597 1.1372,-0.0944 1.38825,-0.39688 0.5222,-0.6292 1.09562,-0.6292 1.61782,0 0.25105,0.30251 0.79007,0.4566 1.38825,0.39688 0.81027,-0.0809 0.99535,0.0257 1.08002,0.62224 0.26035,1.83424 -1.8505,5.15387 -3.27718,5.15387 -0.43097,0 -1.11628,-0.44226 -1.67975,-1.08402 z m 3.13184,-0.21097 c 0.81786,-0.87551 1.55759,-2.63 1.56239,-3.70564 0.001,-0.23444 -0.41033,-0.39687 -1.0051,-0.39687 -0.55379,0 -1.24768,-0.21792 -1.54198,-0.48426 -0.47958,-0.43401 -0.5768,-0.43401 -0.937,0 -0.22105,0.26634 -0.88447,0.48426 -1.47428,0.48426 -1.17689,0 -1.24185,0.17082 -0.74507,1.95939 0.37429,1.34762 1.90204,3.12061 2.68895,3.12061 0.29644,0 0.94988,-0.43987 1.45209,-0.97749 z"
         style="fill:#bbbbbb;stroke-width:0.3175" />
      <path
         id="path2802"
         d="m 163.21615,234.43919 c -1.05931,-1.20649 -1.753,-2.97382 -1.59743,-4.06985 0.0847,-0.59651 0.26975,-0.70315 1.08002,-0.62224 0.59818,0.0597 1.1372,-0.0944 1.38825,-0.39688 0.5222,-0.6292 1.09562,-0.6292 1.61782,0 0.25105,0.30251 0.79007,0.4566 1.38825,0.39688 0.81027,-0.0809 0.99535,0.0257 1.08002,0.62224 0.26035,1.83424 -1.8505,5.15387 -3.27718,5.15387 -0.43097,0 -1.11628,-0.44226 -1.67975,-1.08402 z m 3.13184,-0.21097 c 0.81786,-0.87551 1.55759,-2.63 1.56239,-3.70564 0.001,-0.23951 -0.42343,-0.39687 -1.0706,-0.39687 -0.58981,0 -1.25323,-0.21792 -1.47428,-0.48426 -0.3602,-0.43401 -0.45742,-0.43401 -0.937,0 -0.2943,0.26634 -0.98819,0.48426 -1.54198,0.48426 -0.59665,0 -1.00687,0.16255 -1.00687,0.39897 0,1.75463 1.81611,4.68103 2.90502,4.68103 0.35762,0 1.06111,-0.43987 1.56332,-0.97749 z"
         style="fill:#b9b9b9;stroke-width:0.3175" />
      <path
         id="path2800"
         d="m 163.21615,234.43919 c -1.05931,-1.20649 -1.753,-2.97382 -1.59743,-4.06985 0.0847,-0.59651 0.26975,-0.70315 1.08002,-0.62224 0.59818,0.0597 1.1372,-0.0944 1.38825,-0.39688 0.5222,-0.6292 1.09562,-0.6292 1.61782,0 0.25105,0.30251 0.79007,0.4566 1.38825,0.39688 0.81027,-0.0809 0.99535,0.0257 1.08002,0.62224 0.26035,1.83424 -1.8505,5.15387 -3.27718,5.15387 -0.43097,0 -1.11628,-0.44226 -1.67975,-1.08402 z m 3.47726,-0.66223 c 0.47862,-0.6985 0.96454,-1.80578 1.07982,-2.46063 0.20919,-1.18837 0.20749,-1.19062 -0.89812,-1.19062 -0.60924,0 -1.28856,-0.21792 -1.50961,-0.48426 -0.3602,-0.43401 -0.45742,-0.43401 -0.937,0 -0.2943,0.26634 -0.98819,0.48426 -1.54198,0.48426 -0.59665,0 -1.00687,0.16255 -1.00687,0.39897 0,0.92894 0.66721,2.59957 1.44597,3.62058 1.12737,1.47806 2.18163,1.36277 3.36779,-0.3683 z"
         style="fill:#b4b4b4;stroke-width:0.3175" />
      <path
         id="path2798"
         d="m 163.21615,234.43919 c -1.05931,-1.20649 -1.753,-2.97382 -1.59743,-4.06985 0.0847,-0.59651 0.26975,-0.70315 1.08002,-0.62224 0.59818,0.0597 1.1372,-0.0944 1.38825,-0.39688 0.5222,-0.6292 1.09562,-0.6292 1.61782,0 0.25105,0.30251 0.79007,0.4566 1.38825,0.39688 0.81027,-0.0809 0.99535,0.0257 1.08002,0.62224 0.26035,1.83424 -1.8505,5.15387 -3.27718,5.15387 -0.43097,0 -1.11628,-0.44226 -1.67975,-1.08402 z m 3.47726,-0.66223 c 0.47862,-0.6985 0.96454,-1.80578 1.07982,-2.46063 0.20919,-1.18837 0.20749,-1.19062 -0.89812,-1.19062 -0.60924,0 -1.28856,-0.21792 -1.50961,-0.48426 -0.3602,-0.43401 -0.45742,-0.43401 -0.937,0 -0.2943,0.26634 -0.98819,0.48426 -1.54198,0.48426 -0.59477,0 -1.00615,0.16243 -1.0051,0.39687 0.005,1.0094 0.73365,2.84875 1.4817,3.73776 1.12946,1.34229 2.18421,1.18919 3.33029,-0.48338 z"
         style="fill:#b2b2b2;stroke-width:0.3175" />
      <path
         id="path2796"
         d="m 163.21615,234.43919 c -1.05931,-1.20649 -1.753,-2.97382 -1.59743,-4.06985 0.0847,-0.59651 0.26975,-0.70315 1.08002,-0.62224 0.59818,0.0597 1.1372,-0.0944 1.38825,-0.39688 0.5222,-0.6292 1.09562,-0.6292 1.61782,0 0.2505,0.30184 0.78951,0.45647 1.38342,0.39688 1.16453,-0.11686 1.34075,0.36424 0.82924,2.26387 -0.44245,1.6431 -2.05046,3.51224 -3.02157,3.51224 -0.43097,0 -1.11628,-0.44226 -1.67975,-1.08402 z m 3.22682,-0.19584 c 0.73608,-0.87478 1.46293,-2.71779 1.46741,-3.72077 0.001,-0.23951 -0.42343,-0.39687 -1.0706,-0.39687 -0.58981,0 -1.25323,-0.21792 -1.47428,-0.48426 -0.3602,-0.43401 -0.45742,-0.43401 -0.937,0 -0.2943,0.26634 -0.98819,0.48426 -1.54198,0.48426 -1.10783,0 -1.17182,0.18707 -0.6754,1.97452 0.43793,1.57682 1.7595,3.10548 2.68478,3.10548 0.43113,0 1.07357,-0.39963 1.54707,-0.96236 z"
         style="fill:#b0b0b0;stroke-width:0.3175" />
      <path
         id="path2794"
         d="m 163.1959,234.41613 c -0.97344,-1.10868 -1.7614,-3.23655 -1.56823,-4.23495 0.0748,-0.38674 0.36819,-0.5051 1.0759,-0.43408 0.59391,0.0596 1.13292,-0.095 1.38342,-0.39688 0.5222,-0.6292 1.09562,-0.6292 1.61782,0 0.2505,0.30184 0.78951,0.45647 1.38342,0.39688 1.16453,-0.11686 1.34075,0.36424 0.82924,2.26387 -0.44245,1.6431 -2.05046,3.51224 -3.02157,3.51224 -0.43393,0 -1.12059,-0.44717 -1.7,-1.10708 z m 3.24707,-0.17278 c 0.73608,-0.87478 1.46293,-2.71779 1.46741,-3.72077 0.001,-0.23951 -0.42343,-0.39687 -1.0706,-0.39687 -0.58981,0 -1.25323,-0.21792 -1.47428,-0.48426 -0.3602,-0.43401 -0.45742,-0.43401 -0.937,0 -0.2943,0.26634 -0.98819,0.48426 -1.54198,0.48426 -1.10783,0 -1.17182,0.18707 -0.6754,1.97452 0.43793,1.57682 1.7595,3.10548 2.68478,3.10548 0.43113,0 1.07357,-0.39963 1.54707,-0.96236 z"
         style="fill:#afafaf;stroke-width:0.3175" />
      <path
         id="path2792"
         d="m 163.1959,234.41613 c -0.97344,-1.10868 -1.7614,-3.23655 -1.56823,-4.23495 0.0748,-0.38674 0.36819,-0.5051 1.0759,-0.43408 0.59391,0.0596 1.13292,-0.095 1.38342,-0.39688 0.5222,-0.6292 1.09562,-0.6292 1.61782,0 0.2505,0.30184 0.78951,0.45647 1.38342,0.39688 1.16453,-0.11686 1.34075,0.36424 0.82924,2.26387 -0.34924,1.29698 -2.00239,3.51224 -2.62103,3.51224 -0.18008,0 0.0519,-0.29837 0.51549,-0.66303 1.01177,-0.79586 1.65049,-1.96048 1.94959,-3.55482 0.221,-1.17807 0.21982,-1.17965 -0.88641,-1.17965 -0.60924,0 -1.28856,-0.21792 -1.50961,-0.48426 -0.3602,-0.43401 -0.45742,-0.43401 -0.937,0 -0.2943,0.26634 -1.00409,0.48426 -1.57731,0.48426 -1.03065,0 -1.03976,0.0131 -0.82091,1.17965 0.2991,1.59434 0.93782,2.75896 1.94959,3.55482 0.46361,0.36466 0.69557,0.66303 0.51549,0.66303 -0.18009,0 -0.76484,-0.49819 -1.29946,-1.10708 z"
         style="fill:#acacac;stroke-width:0.3175" />
      <path
         id="path2790"
         d="m 163.4066,234.65008 c -0.92163,-0.98813 -1.53028,-2.06045 -1.51998,-2.67787 0.004,-0.22976 0.27164,0.16498 0.59512,0.87721 0.32347,0.71222 0.98254,1.60519 1.46459,1.98437 0.48205,0.37918 0.74104,0.68942 0.57554,0.68942 -0.1655,0 -0.66738,-0.39291 -1.11527,-0.87313 z m 2.40533,0.2101 c 1.01177,-0.79586 1.65049,-1.96048 1.94959,-3.55482 0.221,-1.17807 0.21982,-1.17965 -0.88641,-1.17965 -0.60924,0 -1.28856,-0.21792 -1.50961,-0.48426 -0.3602,-0.43401 -0.45742,-0.43401 -0.937,0 -0.2943,0.26634 -0.97826,0.48426 -1.51989,0.48426 -0.76462,0 -1.01874,0.15972 -1.13662,0.71437 -0.10197,0.47982 -0.13528,0.40164 -0.10146,-0.23812 0.0457,-0.86453 0.14068,-0.94348 1.02821,-0.85486 0.59818,0.0597 1.1372,-0.0944 1.38825,-0.39688 0.22573,-0.27198 0.58974,-0.49451 0.80891,-0.49451 0.21917,0 0.58318,0.22253 0.80891,0.49451 0.2505,0.30184 0.78951,0.45647 1.38342,0.39688 1.16453,-0.11686 1.34075,0.36424 0.82924,2.26387 -0.34924,1.29698 -2.00239,3.51224 -2.62103,3.51224 -0.18008,0 0.0519,-0.29837 0.51549,-0.66303 z"
         style="fill:#aaaaaa;stroke-width:0.3175" />
      <path
         id="path2788"
         d="m 163.4066,234.65008 c -0.92163,-0.98813 -1.53028,-2.06045 -1.51998,-2.67787 0.004,-0.22976 0.27164,0.16498 0.59512,0.87721 0.32347,0.71222 0.98254,1.60519 1.46459,1.98437 0.48205,0.37918 0.74104,0.68942 0.57554,0.68942 -0.1655,0 -0.66738,-0.39291 -1.11527,-0.87313 z m 2.43887,0.18371 c 0.48205,-0.37918 1.14112,-1.27215 1.46459,-1.98437 0.32348,-0.71223 0.59128,-1.10697 0.59512,-0.87721 0.0154,0.92442 -1.93379,3.551 -2.63525,3.551 -0.1655,0 0.0935,-0.31024 0.57554,-0.68942 z m -4.17494,-4.23183 c 0.0457,-0.86453 0.14068,-0.94348 1.02821,-0.85486 0.59818,0.0597 1.1372,-0.0944 1.38825,-0.39688 0.5222,-0.6292 1.09562,-0.6292 1.61782,0 0.25105,0.30251 0.79007,0.4566 1.38825,0.39688 0.88752,-0.0886 0.98249,-0.01 1.02821,0.85486 0.0338,0.63976 5e-4,0.71794 -0.10146,0.23812 -0.11213,-0.52758 -0.37663,-0.71437 -1.0116,-0.71437 -0.47287,0 -1.16199,-0.21169 -1.53138,-0.47042 -0.59329,-0.41555 -0.71714,-0.41555 -1.06202,0 -0.21473,0.25873 -0.86304,0.47042 -1.4407,0.47042 -0.83254,0 -1.08177,0.14811 -1.20212,0.71437 -0.10197,0.47982 -0.13528,0.40164 -0.10146,-0.23812 z"
         style="fill:#a7a7a7;stroke-width:0.3175" />
      <path
         id="path2786"
         d="m 163.4066,234.65008 c -0.92163,-0.98813 -1.53028,-2.06045 -1.51998,-2.67787 0.004,-0.22976 0.27164,0.16498 0.59512,0.87721 0.32347,0.71222 0.98254,1.60519 1.46459,1.98437 0.48205,0.37918 0.74104,0.68942 0.57554,0.68942 -0.1655,0 -0.66738,-0.39291 -1.11527,-0.87313 z m 2.43887,0.18371 c 0.48205,-0.37918 1.14112,-1.27215 1.46459,-1.98437 0.32348,-0.71223 0.59128,-1.10697 0.59512,-0.87721 0.0154,0.92442 -1.93379,3.551 -2.63525,3.551 -0.1655,0 0.0935,-0.31024 0.57554,-0.68942 z m -4.15521,-4.39058 c 0.0262,-0.67905 0.1605,-0.77851 0.92933,-0.6883 0.5307,0.0623 1.14491,-0.11738 1.49999,-0.43872 0.56579,-0.51203 0.64982,-0.51238 1.42277,-0.006 0.45182,0.29604 1.20557,0.49346 1.67501,0.43872 0.75003,-0.0875 0.85965,0.016 0.90391,0.85297 0.0338,0.63976 5e-4,0.71794 -0.10146,0.23813 -0.11265,-0.53003 -0.37626,-0.71438 -1.02156,-0.71438 -0.47835,0 -1.14707,-0.20341 -1.48604,-0.45201 -0.53643,-0.39343 -0.68671,-0.38852 -1.15941,0.0379 -0.33236,0.2998 -0.91152,0.43582 -1.49256,0.35054 -0.76688,-0.11256 -0.97361,-0.013 -1.07504,0.51775 -0.09,0.47119 -0.11691,0.43253 -0.0949,-0.13665 z"
         style="fill:#a6a6a6;stroke-width:0.3175" />
      <path
         id="path2784"
         d="m 163.4066,234.65008 c -0.92163,-0.98813 -1.53028,-2.06045 -1.51998,-2.67787 0.004,-0.22976 0.27164,0.16498 0.59512,0.87721 0.32347,0.71222 0.98254,1.60519 1.46459,1.98437 0.48205,0.37918 0.74104,0.68942 0.57554,0.68942 -0.1655,0 -0.66738,-0.39291 -1.11527,-0.87313 z m 2.43887,0.18371 c 0.48205,-0.37918 1.14112,-1.27215 1.46459,-1.98437 0.32348,-0.71223 0.59128,-1.10697 0.59512,-0.87721 0.0154,0.92442 -1.93379,3.551 -2.63525,3.551 -0.1655,0 0.0935,-0.31024 0.57554,-0.68942 z m -4.15521,-4.39058 c 0.0262,-0.67905 0.1605,-0.77851 0.92933,-0.6883 0.5307,0.0623 1.14491,-0.11738 1.49999,-0.43872 0.54659,-0.49466 0.66916,-0.49971 1.34709,-0.0555 0.41019,0.26877 1.09251,0.55389 1.51626,0.63361 l 0.77047,0.14494 -0.81244,0.0432 c -0.44684,0.0238 -1.08978,-0.16017 -1.42875,-0.40877 -0.53643,-0.39343 -0.68671,-0.38852 -1.15941,0.0379 -0.33236,0.2998 -0.91152,0.43582 -1.49256,0.35054 -0.76688,-0.11256 -0.97361,-0.013 -1.07504,0.51775 -0.09,0.47119 -0.11691,0.43253 -0.0949,-0.13665 z m 6.28379,0.15875 c 0.006,-0.52388 0.0776,-0.69975 0.15812,-0.39083 0.0805,0.30891 0.0752,0.73754 -0.0118,0.9525 -0.087,0.21496 -0.15283,-0.0378 -0.14636,-0.56167 z"
         style="fill:#a2a2a2;stroke-width:0.3175" />
      <path
         id="path2782"
         d="m 163.4066,234.65008 c -0.92163,-0.98813 -1.53028,-2.06045 -1.51998,-2.67787 0.004,-0.22976 0.27164,0.16498 0.59512,0.87721 0.32347,0.71222 0.98254,1.60519 1.46459,1.98437 0.48205,0.37918 0.74104,0.68942 0.57554,0.68942 -0.1655,0 -0.66738,-0.39291 -1.11527,-0.87313 z m 2.43887,0.18371 c 0.48205,-0.37918 1.14112,-1.27215 1.46459,-1.98437 0.32348,-0.71223 0.59128,-1.10697 0.59512,-0.87721 0.0154,0.92442 -1.93379,3.551 -2.63525,3.551 -0.1655,0 0.0935,-0.31024 0.57554,-0.68942 z m -4.22142,-4.23183 c 0.006,-0.52388 0.0776,-0.69975 0.15812,-0.39083 0.0805,0.30891 0.0752,0.73754 -0.0118,0.9525 -0.087,0.21496 -0.15283,-0.0378 -0.14636,-0.56167 z m 6.35,0 c 0.006,-0.52388 0.0776,-0.69975 0.15812,-0.39083 0.0805,0.30891 0.0752,0.73754 -0.0118,0.9525 -0.087,0.21496 -0.15283,-0.0378 -0.14636,-0.56167 z m -5.1419,-0.70719 c 0.43656,-0.0794 1.04012,-0.36457 1.34124,-0.6336 0.49289,-0.44037 0.62187,-0.44042 1.29328,-4.9e-4 0.41019,0.26876 1.09251,0.55389 1.51626,0.63361 l 0.77047,0.14494 -0.80248,0.0432 c -0.44136,0.0238 -1.1047,-0.16845 -1.47409,-0.42718 -0.59329,-0.41555 -0.71714,-0.41555 -1.06202,0 -0.21473,0.25873 -0.83726,0.45096 -1.38341,0.42718 -0.86649,-0.0377 -0.89188,-0.0616 -0.19925,-0.1877 z"
         style="fill:#a1a1a1;stroke-width:0.3175" />
      <path
         id="path2780"
         d="m 163.4066,234.65008 c -0.92163,-0.98813 -1.53028,-2.06045 -1.51998,-2.67787 0.004,-0.22976 0.27164,0.16498 0.59512,0.87721 0.32347,0.71222 0.98254,1.60519 1.46459,1.98437 0.48205,0.37918 0.74104,0.68942 0.57554,0.68942 -0.1655,0 -0.66738,-0.39291 -1.11527,-0.87313 z m 2.43887,0.18371 c 0.48205,-0.37918 1.14112,-1.27215 1.46459,-1.98437 0.32348,-0.71223 0.59128,-1.10697 0.59512,-0.87721 0.0154,0.92442 -1.93379,3.551 -2.63525,3.551 -0.1655,0 0.0935,-0.31024 0.57554,-0.68942 z m -4.22142,-4.23183 c 0.006,-0.52388 0.0776,-0.69975 0.15812,-0.39083 0.0805,0.30891 0.0752,0.73754 -0.0118,0.9525 -0.087,0.21496 -0.15283,-0.0378 -0.14636,-0.56167 z m 6.35,0 c 0.006,-0.52388 0.0776,-0.69975 0.15812,-0.39083 0.0805,0.30891 0.0752,0.73754 -0.0118,0.9525 -0.087,0.21496 -0.15283,-0.0378 -0.14636,-0.56167 z m -5.1419,-0.70719 c 0.43656,-0.0794 1.04012,-0.36457 1.34124,-0.6336 0.49289,-0.44037 0.62187,-0.44042 1.29328,-4.9e-4 0.41019,0.26876 1.09251,0.55389 1.51626,0.63361 l 0.77047,0.14494 -0.80248,0.0432 c -0.44136,0.0238 -1.13834,-0.19201 -1.54884,-0.47953 -0.69296,-0.48537 -0.7673,-0.48537 -1.03892,0 -0.18647,0.33319 -0.66105,0.50709 -1.30866,0.47953 -0.86784,-0.0369 -0.90029,-0.0643 -0.22235,-0.1877 z"
         style="fill:#9e9e9e;stroke-width:0.3175" />
      <path
         id="path2778"
         d="m 163.4066,234.65008 c -0.92163,-0.98813 -1.53028,-2.06045 -1.51998,-2.67787 0.004,-0.22976 0.27164,0.16498 0.59512,0.87721 0.32347,0.71222 0.98254,1.60519 1.46459,1.98437 0.48205,0.37918 0.74104,0.68942 0.57554,0.68942 -0.1655,0 -0.66738,-0.39291 -1.11527,-0.87313 z m 2.43887,0.18371 c 0.48205,-0.37918 1.14112,-1.27215 1.46459,-1.98437 0.32348,-0.71223 0.59128,-1.10697 0.59512,-0.87721 0.0154,0.92442 -1.93379,3.551 -2.63525,3.551 -0.1655,0 0.0935,-0.31024 0.57554,-0.68942 z m -4.22142,-4.23183 c 0.006,-0.52388 0.0776,-0.69975 0.15812,-0.39083 0.0805,0.30891 0.0752,0.73754 -0.0118,0.9525 -0.087,0.21496 -0.15283,-0.0378 -0.14636,-0.56167 z m 6.35,0 c 0.006,-0.52388 0.0776,-0.69975 0.15812,-0.39083 0.0805,0.30891 0.0752,0.73754 -0.0118,0.9525 -0.087,0.21496 -0.15283,-0.0378 -0.14636,-0.56167 z m -5.1419,-0.69569 c 0.43656,-0.0874 0.99558,-0.32381 1.24226,-0.52536 0.35385,-0.28911 0.41569,-0.26594 0.29305,0.1098 -0.0932,0.28558 -0.59056,0.49591 -1.24226,0.52536 -0.75604,0.0342 -0.84523,7.5e-4 -0.29305,-0.1098 z m 2.4958,-0.45007 -0.74955,-0.66952 0.81703,0.48133 c 0.44937,0.26474 1.16375,0.54656 1.5875,0.62628 0.75789,0.14258 0.75679,0.14565 -0.0675,0.18818 -0.46087,0.0238 -1.17525,-0.25804 -1.5875,-0.62627 z"
         style="fill:#9b9b9b;stroke-width:0.3175" />
      <path
         id="path2776"
         d="m 163.4066,234.65008 c -0.92163,-0.98813 -1.53028,-2.06045 -1.51998,-2.67787 0.004,-0.22976 0.27164,0.16498 0.59512,0.87721 0.32347,0.71222 0.98254,1.60519 1.46459,1.98437 0.48205,0.37918 0.74104,0.68942 0.57554,0.68942 -0.1655,0 -0.66738,-0.39291 -1.11527,-0.87313 z m 2.43887,0.18371 c 0.48205,-0.37918 1.14112,-1.27215 1.46459,-1.98437 0.32348,-0.71223 0.59128,-1.10697 0.59512,-0.87721 0.0154,0.92442 -1.93379,3.551 -2.63525,3.551 -0.1655,0 0.0935,-0.31024 0.57554,-0.68942 z m -4.22142,-4.23183 c 0.006,-0.52388 0.0776,-0.69975 0.15812,-0.39083 0.0805,0.30891 0.0752,0.73754 -0.0118,0.9525 -0.087,0.21496 -0.15283,-0.0378 -0.14636,-0.56167 z m 6.35,0 c 0.006,-0.52388 0.0776,-0.69975 0.15812,-0.39083 0.0805,0.30891 0.0752,0.73754 -0.0118,0.9525 -0.087,0.21496 -0.15283,-0.0378 -0.14636,-0.56167 z m -5.1419,-0.70866 c 0.43656,-0.0803 0.97234,-0.29261 1.19062,-0.47189 0.26629,-0.2187 0.39688,-0.21986 0.39688,-0.004 0,0.40743 -0.79819,0.7208 -1.69284,0.66461 -0.59948,-0.0377 -0.58587,-0.0621 0.10534,-0.18917 z m 2.4958,-0.4371 -0.74955,-0.66952 0.81703,0.48133 c 0.44937,0.26474 1.16375,0.54656 1.5875,0.62628 0.75789,0.14258 0.75679,0.14565 -0.0675,0.18818 -0.46087,0.0238 -1.17525,-0.25804 -1.5875,-0.62627 z"
         style="fill:#989898;stroke-width:0.3175" />
      <path
         id="path2774"
         d="m 163.4066,234.65008 c -0.92163,-0.98813 -1.53028,-2.06045 -1.51998,-2.67787 0.004,-0.22976 0.27164,0.16498 0.59512,0.87721 0.32347,0.71222 0.98254,1.60519 1.46459,1.98437 0.48205,0.37918 0.74104,0.68942 0.57554,0.68942 -0.1655,0 -0.66738,-0.39291 -1.11527,-0.87313 z m 2.43887,0.18371 c 0.48205,-0.37918 1.14112,-1.27215 1.46459,-1.98437 0.32348,-0.71223 0.59128,-1.10697 0.59512,-0.87721 0.0154,0.92442 -1.93379,3.551 -2.63525,3.551 -0.1655,0 0.0935,-0.31024 0.57554,-0.68942 z m -4.22142,-4.23183 c 0.006,-0.52388 0.0776,-0.69975 0.15812,-0.39083 0.0805,0.30891 0.0752,0.73754 -0.0118,0.9525 -0.087,0.21496 -0.15283,-0.0378 -0.14636,-0.56167 z m 6.35,0 c 0.006,-0.52388 0.0776,-0.69975 0.15812,-0.39083 0.0805,0.30891 0.0752,0.73754 -0.0118,0.9525 -0.087,0.21496 -0.15283,-0.0378 -0.14636,-0.56167 z m -5.1419,-0.70866 c 0.43656,-0.0803 1.00806,-0.31084 1.27,-0.51239 0.41436,-0.31883 0.41963,-0.29425 0.0405,0.18917 -0.24019,0.30627 -0.81015,0.53623 -1.27,0.51239 l -0.83425,-0.0432 z m 2.4958,-0.4371 -0.74955,-0.66952 0.81703,0.48133 c 0.44937,0.26474 1.16375,0.54656 1.5875,0.62628 0.75789,0.14258 0.75679,0.14565 -0.0675,0.18818 -0.46087,0.0238 -1.17525,-0.25804 -1.5875,-0.62627 z"
         style="fill:#979797;stroke-width:0.3175" />
      <path
         id="path2772"
         d="m 163.4066,234.65008 c -0.92163,-0.98813 -1.53028,-2.06045 -1.51998,-2.67787 0.004,-0.22976 0.27164,0.16498 0.59512,0.87721 0.32347,0.71222 0.98254,1.60519 1.46459,1.98437 0.48205,0.37918 0.74104,0.68942 0.57554,0.68942 -0.1655,0 -0.66738,-0.39291 -1.11527,-0.87313 z m 2.43887,0.18371 c 0.48205,-0.37918 1.14112,-1.27215 1.46459,-1.98437 0.32348,-0.71223 0.59128,-1.10697 0.59512,-0.87721 0.0154,0.92442 -1.93379,3.551 -2.63525,3.551 -0.1655,0 0.0935,-0.31024 0.57554,-0.68942 z m -4.22142,-4.23183 c 0.006,-0.52388 0.0776,-0.69975 0.15812,-0.39083 0.0805,0.30891 0.0752,0.73754 -0.0118,0.9525 -0.087,0.21496 -0.15283,-0.0378 -0.14636,-0.56167 z m 6.33823,-0.15875 c 0,-0.43656 0.0721,-0.61516 0.16014,-0.39688 0.0881,0.21829 0.0881,0.57547 0,0.79375 -0.0881,0.21829 -0.16014,0.0397 -0.16014,-0.39687 z m -5.13013,-0.54991 c 0.43656,-0.0803 1.00806,-0.31084 1.27,-0.51239 0.41436,-0.31883 0.41963,-0.29425 0.0405,0.18917 -0.24019,0.30627 -0.81015,0.53623 -1.27,0.51239 l -0.83425,-0.0432 z m 2.93687,0.0221 c -0.21828,-0.0881 -0.39687,-0.30861 -0.39687,-0.49006 0,-0.22611 0.12488,-0.22736 0.39687,-0.004 0.21829,0.17928 0.75407,0.39163 1.19063,0.47189 l 0.79375,0.14593 -0.79375,0.0182 c -0.43656,0.01 -0.97234,-0.0539 -1.19063,-0.14197 z"
         style="fill:#959595;stroke-width:0.3175" />
      <path
         id="path2770"
         d="m 163.4066,234.65008 c -0.92163,-0.98813 -1.53028,-2.06045 -1.51998,-2.67787 0.004,-0.22976 0.27164,0.16498 0.59512,0.87721 0.32347,0.71222 0.98254,1.60519 1.46459,1.98437 0.48205,0.37918 0.74104,0.68942 0.57554,0.68942 -0.1655,0 -0.66738,-0.39291 -1.11527,-0.87313 z m 2.43887,0.18371 c 0.48205,-0.37918 1.14112,-1.27215 1.46459,-1.98437 0.32348,-0.71223 0.59128,-1.10697 0.59512,-0.87721 0.0154,0.92442 -1.93379,3.551 -2.63525,3.551 -0.1655,0 0.0935,-0.31024 0.57554,-0.68942 z m -4.23319,-4.39058 c 0,-0.43656 0.0721,-0.61516 0.16014,-0.39688 0.0881,0.21829 0.0881,0.57547 0,0.79375 -0.0881,0.21829 -0.16014,0.0397 -0.16014,-0.39687 z m 6.35,0 c 0,-0.43656 0.0721,-0.61516 0.16014,-0.39688 0.0881,0.21829 0.0881,0.57547 0,0.79375 -0.0881,0.21829 -0.16014,0.0397 -0.16014,-0.39687 z m -5.13013,-0.54991 c 0.43656,-0.0803 1.00806,-0.31084 1.27,-0.51239 0.41436,-0.31883 0.41963,-0.29425 0.0405,0.18917 -0.24019,0.30627 -0.81015,0.53623 -1.27,0.51239 l -0.83425,-0.0432 z m 2.93687,0.0221 c -0.21828,-0.0881 -0.39687,-0.30861 -0.39687,-0.49006 0,-0.22611 0.12488,-0.22736 0.39687,-0.004 0.21829,0.17928 0.75407,0.39163 1.19063,0.47189 l 0.79375,0.14593 -0.79375,0.0182 c -0.43656,0.01 -0.97234,-0.0539 -1.19063,-0.14197 z"
         style="fill:#949494;stroke-width:0.3175" />
      <path
         id="path2768"
         d="m 163.4066,234.65008 c -0.92163,-0.98813 -1.53028,-2.06045 -1.51998,-2.67787 0.004,-0.22976 0.27164,0.16498 0.59512,0.87721 0.32347,0.71222 0.98254,1.60519 1.46459,1.98437 0.48205,0.37918 0.74104,0.68942 0.57554,0.68942 -0.1655,0 -0.66738,-0.39291 -1.11527,-0.87313 z m 2.23961,0.35982 c 0.40306,-0.28232 1.00582,-0.96097 1.33946,-1.50812 0.33363,-0.54715 0.60714,-0.8212 0.60779,-0.60899 0.002,0.51114 -1.87151,2.63042 -2.32485,2.63042 -0.19539,0 -0.0255,-0.23099 0.3776,-0.51331 z m -4.03393,-4.56669 c 0,-0.43656 0.0721,-0.61516 0.16014,-0.39688 0.0881,0.21829 0.0881,0.57547 0,0.79375 -0.0881,0.21829 -0.16014,0.0397 -0.16014,-0.39687 z m 6.35,0 c 0,-0.43656 0.0721,-0.61516 0.16014,-0.39688 0.0881,0.21829 0.0881,0.57547 0,0.79375 -0.0881,0.21829 -0.16014,0.0397 -0.16014,-0.39687 z m -5.13013,-0.54991 c 0.43656,-0.0803 1.00806,-0.31084 1.27,-0.51239 0.41436,-0.31883 0.41963,-0.29425 0.0405,0.18917 -0.24019,0.30627 -0.81015,0.53623 -1.27,0.51239 l -0.83425,-0.0432 z m 2.93687,0.0221 c -0.21828,-0.0881 -0.39687,-0.30861 -0.39687,-0.49006 0,-0.22611 0.12488,-0.22736 0.39687,-0.004 0.21829,0.17928 0.75407,0.39163 1.19063,0.47189 l 0.79375,0.14593 -0.79375,0.0182 c -0.43656,0.01 -0.97234,-0.0539 -1.19063,-0.14197 z"
         style="fill:#929292;stroke-width:0.3175" />
      <path
         id="path2766"
         d="m 163.18254,234.40091 c -0.54196,-0.61726 -0.98486,-1.29592 -0.9842,-1.50812 6.5e-4,-0.21221 0.27416,0.0618 0.60779,0.60899 0.33364,0.54715 0.9364,1.2258 1.33946,1.50812 0.40307,0.28232 0.57299,0.51331 0.3776,0.51331 -0.19539,0 -0.79868,-0.50503 -1.34065,-1.1223 z m 1.89857,1.04292 c 0.0728,-0.0436 0.56092,-0.43656 1.08479,-0.87312 l 0.9525,-0.79375 -0.76972,0.87312 c -0.42335,0.48022 -0.9115,0.87313 -1.08479,0.87313 -0.17329,0 -0.25554,-0.0357 -0.18278,-0.0794 z m 2.0577,-2.23619 c 0.11923,-0.31312 0.29677,-0.48934 0.39452,-0.39158 0.0978,0.0978 2e-4,0.35395 -0.21678,0.56932 -0.31357,0.31123 -0.35004,0.27476 -0.17774,-0.17774 z m -5.52653,-2.76443 c 0,-0.43656 0.0721,-0.61516 0.16014,-0.39688 0.0881,0.21829 0.0881,0.57547 0,0.79375 -0.0881,0.21829 -0.16014,0.0397 -0.16014,-0.39687 z m 6.35,0 c 0,-0.43656 0.0721,-0.61516 0.16014,-0.39688 0.0881,0.21829 0.0881,0.57547 0,0.79375 -0.0881,0.21829 -0.16014,0.0397 -0.16014,-0.39687 z m -4.78617,-0.40734 c 0.0728,-0.0494 0.41804,-0.29945 0.76729,-0.55563 0.58738,-0.43085 0.60232,-0.42411 0.19925,0.0898 -0.23966,0.3056 -0.58495,0.55563 -0.76729,0.55563 -0.18235,0 -0.27201,-0.0404 -0.19925,-0.0898 z m 2.59291,-0.12043 c -0.21828,-0.0881 -0.39687,-0.30861 -0.39687,-0.49006 0,-0.22611 0.12488,-0.22736 0.39687,-0.004 0.21829,0.17928 0.75407,0.39163 1.19063,0.47189 l 0.79375,0.14593 -0.79375,0.0182 c -0.43656,0.01 -0.97234,-0.0539 -1.19063,-0.14197 z"
         style="fill:#919191;stroke-width:0.3175" />
      <path
         id="path2764"
         d="m 163.18254,234.40091 c -0.54196,-0.61726 -0.98486,-1.29592 -0.9842,-1.50812 6.5e-4,-0.21221 0.27416,0.0618 0.60779,0.60899 0.33364,0.54715 0.9364,1.2258 1.33946,1.50812 0.40307,0.28232 0.57299,0.51331 0.3776,0.51331 -0.19539,0 -0.79868,-0.50503 -1.34065,-1.1223 z m 1.89857,1.04292 c 0.0728,-0.0436 0.56092,-0.43656 1.08479,-0.87312 l 0.9525,-0.79375 -0.76972,0.87312 c -0.42335,0.48022 -0.9115,0.87313 -1.08479,0.87313 -0.17329,0 -0.25554,-0.0357 -0.18278,-0.0794 z m 2.0577,-2.23619 c 0.11923,-0.31312 0.29677,-0.48934 0.39452,-0.39158 0.0978,0.0978 2e-4,0.35395 -0.21678,0.56932 -0.31357,0.31123 -0.35004,0.27476 -0.17774,-0.17774 z m -5.52653,-2.76443 c 0,-0.43656 0.0721,-0.61516 0.16014,-0.39688 0.0881,0.21829 0.0881,0.57547 0,0.79375 -0.0881,0.21829 -0.16014,0.0397 -0.16014,-0.39687 z m 6.35,0 c 0,-0.43656 0.0721,-0.61516 0.16014,-0.39688 0.0881,0.21829 0.0881,0.57547 0,0.79375 -0.0881,0.21829 -0.16014,0.0397 -0.16014,-0.39687 z m -4.78617,-0.40734 c 0.0728,-0.0494 0.41804,-0.29945 0.76729,-0.55563 0.58738,-0.43085 0.60232,-0.42411 0.19925,0.0898 -0.23966,0.3056 -0.58495,0.55563 -0.76729,0.55563 -0.18235,0 -0.27201,-0.0404 -0.19925,-0.0898 z m 3.23396,-0.13018 c 0.30891,-0.0805 0.73754,-0.0752 0.9525,0.0118 0.21496,0.087 -0.0378,0.15283 -0.56167,0.14636 -0.52388,-0.006 -0.69975,-0.0776 -0.39083,-0.15812 z"
         style="fill:#909090;stroke-width:0.3175" />
      <path
         id="path2762"
         d="m 163.18254,234.40091 c -0.54196,-0.61726 -0.98486,-1.29592 -0.9842,-1.50812 6.5e-4,-0.21221 0.27416,0.0618 0.60779,0.60899 0.33364,0.54715 0.9364,1.2258 1.33946,1.50812 0.40307,0.28232 0.57299,0.51331 0.3776,0.51331 -0.19539,0 -0.79868,-0.50503 -1.34065,-1.1223 z m 1.89857,1.04292 c 0.0728,-0.0436 0.56092,-0.43656 1.08479,-0.87312 l 0.9525,-0.79375 -0.76972,0.87312 c -0.42335,0.48022 -0.9115,0.87313 -1.08479,0.87313 -0.17329,0 -0.25554,-0.0357 -0.18278,-0.0794 z m 2.0577,-2.23619 c 0.11923,-0.31312 0.29677,-0.48934 0.39452,-0.39158 0.0978,0.0978 2e-4,0.35395 -0.21678,0.56932 -0.31357,0.31123 -0.35004,0.27476 -0.17774,-0.17774 z m -5.52653,-2.76443 c 0,-0.43656 0.0721,-0.61516 0.16014,-0.39688 0.0881,0.21829 0.0881,0.57547 0,0.79375 -0.0881,0.21829 -0.16014,0.0397 -0.16014,-0.39687 z m 6.35,0 c 0,-0.43656 0.0721,-0.61516 0.16014,-0.39688 0.0881,0.21829 0.0881,0.57547 0,0.79375 -0.0881,0.21829 -0.16014,0.0397 -0.16014,-0.39687 z m -4.78617,-0.40734 c 0.0728,-0.0494 0.41804,-0.29945 0.76729,-0.55563 0.58738,-0.43085 0.60232,-0.42411 0.19925,0.0898 -0.23966,0.3056 -0.58495,0.55563 -0.76729,0.55563 -0.18235,0 -0.27201,-0.0404 -0.19925,-0.0898 z"
         style="fill:#8f8f8f;stroke-width:0.3175" />
      <path
         id="path2760"
         d="m 163.44312,234.65008 -0.76972,-0.87312 0.9525,0.79375 c 0.52387,0.43656 1.01203,0.82947 1.08479,0.87312 0.0728,0.0437 -0.009,0.0794 -0.18278,0.0794 -0.17329,0 -0.66144,-0.39291 -1.08479,-0.87313 z m 1.63799,0.79375 c 0.0728,-0.0436 0.56092,-0.43656 1.08479,-0.87312 l 0.9525,-0.79375 -0.76972,0.87312 c -0.42335,0.48022 -0.9115,0.87313 -1.08479,0.87313 -0.17329,0 -0.25554,-0.0357 -0.18278,-0.0794 z m -2.73827,-2.16424 c -0.1151,-0.18625 -0.14118,-0.40672 -0.058,-0.48995 0.0832,-0.0832 0.23593,0.0692 0.33933,0.33863 0.21469,0.55947 0.0317,0.65788 -0.28137,0.15132 z m 4.79597,-0.072 c 0.11923,-0.31312 0.29677,-0.48934 0.39452,-0.39158 0.0978,0.0978 2e-4,0.35395 -0.21678,0.56932 -0.31357,0.31123 -0.35004,0.27476 -0.17774,-0.17774 z m -5.52653,-2.76443 c 0,-0.43656 0.0721,-0.61516 0.16014,-0.39688 0.0881,0.21829 0.0881,0.57547 0,0.79375 -0.0881,0.21829 -0.16014,0.0397 -0.16014,-0.39687 z m 6.35,0 c 0,-0.43656 0.0721,-0.61516 0.16014,-0.39688 0.0881,0.21829 0.0881,0.57547 0,0.79375 -0.0881,0.21829 -0.16014,0.0397 -0.16014,-0.39687 z m -4.78617,-0.40734 c 0.0728,-0.0494 0.41804,-0.29945 0.76729,-0.55563 0.58738,-0.43085 0.60232,-0.42411 0.19925,0.0898 -0.23966,0.3056 -0.58495,0.55563 -0.76729,0.55563 -0.18235,0 -0.27201,-0.0404 -0.19925,-0.0898 z"
         style="fill:#8d8d8d;stroke-width:0.3175" />
      <path
         id="path2758"
         d="m 163.44312,234.65008 -0.76972,-0.87312 0.9525,0.79375 c 0.52387,0.43656 1.01203,0.82947 1.08479,0.87312 0.0728,0.0437 -0.009,0.0794 -0.18278,0.0794 -0.17329,0 -0.66144,-0.39291 -1.08479,-0.87313 z m 1.63799,0.79375 c 0.0728,-0.0436 0.56092,-0.43656 1.08479,-0.87312 l 0.9525,-0.79375 -0.76972,0.87312 c -0.42335,0.48022 -0.9115,0.87313 -1.08479,0.87313 -0.17329,0 -0.25554,-0.0357 -0.18278,-0.0794 z m -2.73827,-2.16424 c -0.1151,-0.18625 -0.14118,-0.40672 -0.058,-0.48995 0.0832,-0.0832 0.23593,0.0692 0.33933,0.33863 0.21469,0.55947 0.0317,0.65788 -0.28137,0.15132 z m 4.79597,-0.072 c 0.11923,-0.31312 0.29677,-0.48934 0.39452,-0.39158 0.0978,0.0978 2e-4,0.35395 -0.21678,0.56932 -0.31357,0.31123 -0.35004,0.27476 -0.17774,-0.17774 z m -5.52653,-2.76443 c 0,-0.43656 0.0721,-0.61516 0.16014,-0.39688 0.0881,0.21829 0.0881,0.57547 0,0.79375 -0.0881,0.21829 -0.16014,0.0397 -0.16014,-0.39687 z m 6.35,0 c 0,-0.43656 0.0721,-0.61516 0.16014,-0.39688 0.0881,0.21829 0.0881,0.57547 0,0.79375 -0.0881,0.21829 -0.16014,0.0397 -0.16014,-0.39687 z m -4.78617,-0.40734 c 0.0728,-0.0494 0.41804,-0.29945 0.76729,-0.55563 0.58738,-0.43085 0.60232,-0.42411 0.19925,0.0898 -0.23966,0.3056 -0.58495,0.55563 -0.76729,0.55563 -0.18235,0 -0.27201,-0.0404 -0.19925,-0.0898 z"
         style="fill:#8c8c8c;stroke-width:0.3175" />
      <path
         id="path2756"
         d="m 163.44312,234.65008 -0.76972,-0.87312 0.87312,0.76972 c 0.81607,0.71942 1.01873,0.97653 0.76972,0.97653 -0.0569,0 -0.44977,-0.39291 -0.87312,-0.87313 z m 1.63799,0.79375 c 0.0728,-0.0436 0.56092,-0.43656 1.08479,-0.87312 l 0.9525,-0.79375 -0.76972,0.87312 c -0.42335,0.48022 -0.9115,0.87313 -1.08479,0.87313 -0.17329,0 -0.25554,-0.0357 -0.18278,-0.0794 z m 2.0577,-2.23619 c 0.11923,-0.31312 0.29677,-0.48934 0.39452,-0.39158 0.0978,0.0978 2e-4,0.35395 -0.21678,0.56932 -0.31357,0.31123 -0.35004,0.27476 -0.17774,-0.17774 z m -5.52653,-2.76443 c 0,-0.43656 0.0721,-0.61516 0.16014,-0.39688 0.0881,0.21829 0.0881,0.57547 0,0.79375 -0.0881,0.21829 -0.16014,0.0397 -0.16014,-0.39687 z m 6.35,0 c 0,-0.43656 0.0721,-0.61516 0.16014,-0.39688 0.0881,0.21829 0.0881,0.57547 0,0.79375 -0.0881,0.21829 -0.16014,0.0397 -0.16014,-0.39687 z m -4.78617,-0.40734 c 0.0728,-0.0494 0.41804,-0.29945 0.76729,-0.55563 0.58738,-0.43085 0.60232,-0.42411 0.19925,0.0898 -0.23966,0.3056 -0.58495,0.55563 -0.76729,0.55563 -0.18235,0 -0.27201,-0.0404 -0.19925,-0.0898 z"
         style="fill:#8b8b8b;stroke-width:0.3175" />
      <path
         id="path2754"
         d="m 163.44312,234.65008 -0.76972,-0.87312 0.87312,0.76972 c 0.81607,0.71942 1.01873,0.97653 0.76972,0.97653 -0.0569,0 -0.44977,-0.39291 -0.87312,-0.87313 z m 2.56403,0.0794 c 0.41013,-0.43656 0.81713,-0.79375 0.90444,-0.79375 0.0873,0 -0.17681,0.35719 -0.58694,0.79375 -0.41013,0.43656 -0.81713,0.79375 -0.90444,0.79375 -0.0873,0 0.17681,-0.35719 0.58694,-0.79375 z m 1.13166,-1.52182 c 0.11923,-0.31312 0.29677,-0.48934 0.39452,-0.39158 0.0978,0.0978 2e-4,0.35395 -0.21678,0.56932 -0.31357,0.31123 -0.35004,0.27476 -0.17774,-0.17774 z m -5.52653,-2.76443 c 0,-0.43656 0.0721,-0.61516 0.16014,-0.39688 0.0881,0.21829 0.0881,0.57547 0,0.79375 -0.0881,0.21829 -0.16014,0.0397 -0.16014,-0.39687 z m 6.35,0 c 0,-0.43656 0.0721,-0.61516 0.16014,-0.39688 0.0881,0.21829 0.0881,0.57547 0,0.79375 -0.0881,0.21829 -0.16014,0.0397 -0.16014,-0.39687 z m -4.78617,-0.40734 c 0.0728,-0.0494 0.41804,-0.29945 0.76729,-0.55563 0.58738,-0.43085 0.60232,-0.42411 0.19925,0.0898 -0.23966,0.3056 -0.58495,0.55563 -0.76729,0.55563 -0.18235,0 -0.27201,-0.0404 -0.19925,-0.0898 z"
         style="fill:#8a8a8a;stroke-width:0.3175" />
      <path
         id="path2752"
         d="m 163.44312,234.65008 -0.76972,-0.87312 0.87312,0.76972 c 0.81607,0.71942 1.01873,0.97653 0.76972,0.97653 -0.0569,0 -0.44977,-0.39291 -0.87312,-0.87313 z m 2.72278,-0.0794 c 0.31607,-0.34925 0.6461,-0.635 0.73342,-0.635 0.0873,0 -0.0998,0.28575 -0.41592,0.635 -0.31607,0.34925 -0.6461,0.635 -0.73342,0.635 -0.0873,0 0.0999,-0.28575 0.41592,-0.635 z m 0.97291,-1.36307 c 0.11923,-0.31312 0.29677,-0.48934 0.39452,-0.39158 0.0978,0.0978 2e-4,0.35395 -0.21678,0.56932 -0.31357,0.31123 -0.35004,0.27476 -0.17774,-0.17774 z m -5.52653,-2.76443 c 0,-0.43656 0.0721,-0.61516 0.16014,-0.39688 0.0881,0.21829 0.0881,0.57547 0,0.79375 -0.0881,0.21829 -0.16014,0.0397 -0.16014,-0.39687 z m 6.35,0 c 0,-0.43656 0.0721,-0.61516 0.16014,-0.39688 0.0881,0.21829 0.0881,0.57547 0,0.79375 -0.0881,0.21829 -0.16014,0.0397 -0.16014,-0.39687 z m -4.78617,-0.40734 c 0.0728,-0.0494 0.41804,-0.29945 0.76729,-0.55563 0.58738,-0.43085 0.60232,-0.42411 0.19925,0.0898 -0.23966,0.3056 -0.58495,0.55563 -0.76729,0.55563 -0.18235,0 -0.27201,-0.0404 -0.19925,-0.0898 z"
         style="fill:#898989;stroke-width:0.3175" />
      <path
         id="path2750"
         d="m 163.44312,234.65008 -0.76972,-0.87312 0.87312,0.76972 c 0.81607,0.71942 1.01873,0.97653 0.76972,0.97653 -0.0569,0 -0.44977,-0.39291 -0.87312,-0.87313 z m 2.72278,-0.0794 c 0.31607,-0.34925 0.6461,-0.635 0.73342,-0.635 0.0873,0 -0.0998,0.28575 -0.41592,0.635 -0.31607,0.34925 -0.6461,0.635 -0.73342,0.635 -0.0873,0 0.0999,-0.28575 0.41592,-0.635 z m -4.55362,-4.1275 c 0,-0.43656 0.0721,-0.61516 0.16014,-0.39688 0.0881,0.21829 0.0881,0.57547 0,0.79375 -0.0881,0.21829 -0.16014,0.0397 -0.16014,-0.39687 z m 6.35,0 c 0,-0.43656 0.0721,-0.61516 0.16014,-0.39688 0.0881,0.21829 0.0881,0.57547 0,0.79375 -0.0881,0.21829 -0.16014,0.0397 -0.16014,-0.39687 z m -4.81263,-0.44228 c 0,-0.0686 0.22173,-0.20987 0.49274,-0.31386 0.28255,-0.10843 0.41,-0.0552 0.29876,0.12478 -0.18645,0.30169 -0.7915,0.44623 -0.7915,0.18908 z"
         style="fill:#888888;stroke-width:0.3175" />
      <path
         id="path2748"
         d="m 163.27823,234.49133 -0.60483,-0.71437 0.71437,0.60483 c 0.67134,0.5684 0.85892,0.82392 0.60484,0.82392 -0.0603,0 -0.38172,-0.32147 -0.71438,-0.71438 z m 2.88767,0.0794 c 0.31607,-0.34925 0.6461,-0.635 0.73342,-0.635 0.0873,0 -0.0998,0.28575 -0.41592,0.635 -0.31607,0.34925 -0.6461,0.635 -0.73342,0.635 -0.0873,0 0.0999,-0.28575 0.41592,-0.635 z m -4.55362,-4.1275 c 0,-0.43656 0.0721,-0.61516 0.16014,-0.39688 0.0881,0.21829 0.0881,0.57547 0,0.79375 -0.0881,0.21829 -0.16014,0.0397 -0.16014,-0.39687 z m 6.35,0 c 0,-0.43656 0.0721,-0.61516 0.16014,-0.39688 0.0881,0.21829 0.0881,0.57547 0,0.79375 -0.0881,0.21829 -0.16014,0.0397 -0.16014,-0.39687 z m -4.81263,-0.44228 c 0,-0.0686 0.22173,-0.20987 0.49274,-0.31386 0.28255,-0.10843 0.41,-0.0552 0.29876,0.12478 -0.18645,0.30169 -0.7915,0.44623 -0.7915,0.18908 z"
         style="fill:#878787;stroke-width:0.3175" />
      <path
         id="path2746"
         d="m 163.27823,234.49133 -0.60483,-0.71437 0.71437,0.60483 c 0.67134,0.5684 0.85892,0.82392 0.60484,0.82392 -0.0603,0 -0.38172,-0.32147 -0.71438,-0.71438 z m 2.88767,0.0794 c 0.31607,-0.34925 0.6461,-0.635 0.73342,-0.635 0.0873,0 -0.0998,0.28575 -0.41592,0.635 -0.31607,0.34925 -0.6461,0.635 -0.73342,0.635 -0.0873,0 0.0999,-0.28575 0.41592,-0.635 z m -4.55362,-4.1275 c 0,-0.43656 0.0721,-0.61516 0.16014,-0.39688 0.0881,0.21829 0.0881,0.57547 0,0.79375 -0.0881,0.21829 -0.16014,0.0397 -0.16014,-0.39687 z m 6.35,0 c 0,-0.43656 0.0721,-0.61516 0.16014,-0.39688 0.0881,0.21829 0.0881,0.57547 0,0.79375 -0.0881,0.21829 -0.16014,0.0397 -0.16014,-0.39687 z m -4.81263,-0.44228 c 0,-0.0686 0.22173,-0.20987 0.49274,-0.31386 0.28255,-0.10843 0.41,-0.0552 0.29876,0.12478 -0.18645,0.30169 -0.7915,0.44623 -0.7915,0.18908 z"
         style="fill:#868686;stroke-width:0.3175" />
      <path
         id="path2744"
         d="m 163.27823,234.49133 -0.60483,-0.71437 0.71437,0.60483 c 0.67134,0.5684 0.85892,0.82392 0.60484,0.82392 -0.0603,0 -0.38172,-0.32147 -0.71438,-0.71438 z m 2.88767,0.0794 c 0.31607,-0.34925 0.6461,-0.635 0.73342,-0.635 0.0873,0 -0.0998,0.28575 -0.41592,0.635 -0.31607,0.34925 -0.6461,0.635 -0.73342,0.635 -0.0873,0 0.0999,-0.28575 0.41592,-0.635 z m -4.55362,-4.1275 c 0,-0.43656 0.0721,-0.61516 0.16014,-0.39688 0.0881,0.21829 0.0881,0.57547 0,0.79375 -0.0881,0.21829 -0.16014,0.0397 -0.16014,-0.39687 z m 6.35,0 c 0,-0.43656 0.0721,-0.61516 0.16014,-0.39688 0.0881,0.21829 0.0881,0.57547 0,0.79375 -0.0881,0.21829 -0.16014,0.0397 -0.16014,-0.39687 z m -4.81263,-0.44228 c 0,-0.0686 0.22173,-0.20987 0.49274,-0.31386 0.28255,-0.10843 0.41,-0.0552 0.29876,0.12478 -0.18645,0.30169 -0.7915,0.44623 -0.7915,0.18908 z"
         style="fill:#858585;stroke-width:0.3175" />
      <path
         id="path2742"
         d="m 163.27823,234.49133 -0.60483,-0.71437 0.71437,0.60483 c 0.67134,0.5684 0.85892,0.82392 0.60484,0.82392 -0.0603,0 -0.38172,-0.32147 -0.71438,-0.71438 z m 2.88767,0.0794 c 0.31607,-0.34925 0.6461,-0.635 0.73342,-0.635 0.0873,0 -0.0998,0.28575 -0.41592,0.635 -0.31607,0.34925 -0.6461,0.635 -0.73342,0.635 -0.0873,0 0.0999,-0.28575 0.41592,-0.635 z m -4.55362,-4.1275 c 0,-0.43656 0.0721,-0.61516 0.16014,-0.39688 0.0881,0.21829 0.0881,0.57547 0,0.79375 -0.0881,0.21829 -0.16014,0.0397 -0.16014,-0.39687 z m 6.35,0 c 0,-0.43656 0.0721,-0.61516 0.16014,-0.39688 0.0881,0.21829 0.0881,0.57547 0,0.79375 -0.0881,0.21829 -0.16014,0.0397 -0.16014,-0.39687 z m -4.81263,-0.44228 c 0,-0.0686 0.22173,-0.20987 0.49274,-0.31386 0.28255,-0.10843 0.41,-0.0552 0.29876,0.12478 -0.18645,0.30169 -0.7915,0.44623 -0.7915,0.18908 z"
         style="fill:#848484;stroke-width:0.3175" />
      <path
         id="path2740"
         d="m 163.27823,234.49133 -0.60483,-0.71437 0.71437,0.60483 c 0.67134,0.5684 0.85892,0.82392 0.60484,0.82392 -0.0603,0 -0.38172,-0.32147 -0.71438,-0.71438 z m 2.88767,0.0794 c 0.31607,-0.34925 0.6461,-0.635 0.73342,-0.635 0.0873,0 -0.0998,0.28575 -0.41592,0.635 -0.31607,0.34925 -0.6461,0.635 -0.73342,0.635 -0.0873,0 0.0999,-0.28575 0.41592,-0.635 z m -4.55362,-4.1275 c 0,-0.43656 0.0721,-0.61516 0.16014,-0.39688 0.0881,0.21829 0.0881,0.57547 0,0.79375 -0.0881,0.21829 -0.16014,0.0397 -0.16014,-0.39687 z m 6.35,0 c 0,-0.43656 0.0721,-0.61516 0.16014,-0.39688 0.0881,0.21829 0.0881,0.57547 0,0.79375 -0.0881,0.21829 -0.16014,0.0397 -0.16014,-0.39687 z m -4.81263,-0.44228 c 0,-0.0686 0.22173,-0.20987 0.49274,-0.31386 0.28255,-0.10843 0.41,-0.0552 0.29876,0.12478 -0.18645,0.30169 -0.7915,0.44623 -0.7915,0.18908 z"
         style="fill:#828282;stroke-width:0.3175" />
      <path
         id="path2738"
         d="m 163.27823,234.49133 -0.60483,-0.71437 0.71437,0.60483 c 0.67134,0.5684 0.85892,0.82392 0.60484,0.82392 -0.0603,0 -0.38172,-0.32147 -0.71438,-0.71438 z m 2.88767,0.0794 c 0.31607,-0.34925 0.6461,-0.635 0.73342,-0.635 0.0873,0 -0.0998,0.28575 -0.41592,0.635 -0.31607,0.34925 -0.6461,0.635 -0.73342,0.635 -0.0873,0 0.0999,-0.28575 0.41592,-0.635 z m -4.55362,-4.1275 c 0,-0.43656 0.0721,-0.61516 0.16014,-0.39688 0.0881,0.21829 0.0881,0.57547 0,0.79375 -0.0881,0.21829 -0.16014,0.0397 -0.16014,-0.39687 z m 6.32494,-0.18521 c 0.0152,-0.36987 0.0905,-0.4451 0.19182,-0.19182 0.0917,0.22919 0.0804,0.50304 -0.0251,0.60854 -0.1055,0.1055 -0.18054,-0.082 -0.16676,-0.41672 z m -4.78757,-0.25707 c 0,-0.0686 0.22173,-0.20987 0.49274,-0.31386 0.28255,-0.10843 0.41,-0.0552 0.29876,0.12478 -0.18645,0.30169 -0.7915,0.44623 -0.7915,0.18908 z"
         style="fill:#818181;stroke-width:0.3175" />
      <path
         id="path2736"
         d="m 163.27823,234.49133 -0.60483,-0.71437 0.71437,0.60483 c 0.67134,0.5684 0.85892,0.82392 0.60484,0.82392 -0.0603,0 -0.38172,-0.32147 -0.71438,-0.71438 z m 2.88767,0.0794 c 0.31607,-0.34925 0.6461,-0.635 0.73342,-0.635 0.0873,0 -0.0998,0.28575 -0.41592,0.635 -0.31607,0.34925 -0.6461,0.635 -0.73342,0.635 -0.0873,0 0.0999,-0.28575 0.41592,-0.635 z m -4.57868,-4.31271 c 0.0152,-0.36987 0.0905,-0.4451 0.19182,-0.19182 0.0917,0.22919 0.0804,0.50304 -0.0251,0.60854 -0.1055,0.1055 -0.18054,-0.082 -0.16675,-0.41672 z m 6.35,0 c 0.0152,-0.36987 0.0905,-0.4451 0.19182,-0.19182 0.0917,0.22919 0.0804,0.50304 -0.0251,0.60854 -0.1055,0.1055 -0.18054,-0.082 -0.16676,-0.41672 z"
         style="fill:#7f7f7f;stroke-width:0.3175" />
      <path
         id="path2734"
         d="m 163.27823,234.49133 -0.60483,-0.71437 0.71437,0.60483 c 0.67134,0.5684 0.85892,0.82392 0.60484,0.82392 -0.0603,0 -0.38172,-0.32147 -0.71438,-0.71438 z m 2.88767,0.0794 c 0.31607,-0.34925 0.6461,-0.635 0.73342,-0.635 0.0873,0 -0.0998,0.28575 -0.41592,0.635 -0.31607,0.34925 -0.6461,0.635 -0.73342,0.635 -0.0873,0 0.0999,-0.28575 0.41592,-0.635 z m -4.57868,-4.31271 c 0.0152,-0.36987 0.0905,-0.4451 0.19182,-0.19182 0.0917,0.22919 0.0804,0.50304 -0.0251,0.60854 -0.1055,0.1055 -0.18054,-0.082 -0.16675,-0.41672 z m 6.35,0 c 0.0152,-0.36987 0.0905,-0.4451 0.19182,-0.19182 0.0917,0.22919 0.0804,0.50304 -0.0251,0.60854 -0.1055,0.1055 -0.18054,-0.082 -0.16676,-0.41672 z"
         style="fill:#7e7e7e;stroke-width:0.3175" />
      <path
         id="path2732"
         d="m 163.27823,234.49133 -0.60483,-0.71437 0.71437,0.60483 c 0.67134,0.5684 0.85892,0.82392 0.60484,0.82392 -0.0603,0 -0.38172,-0.32147 -0.71438,-0.71438 z m 2.88767,0.0794 c 0.31607,-0.34925 0.6461,-0.635 0.73342,-0.635 0.0873,0 -0.0998,0.28575 -0.41592,0.635 -0.31607,0.34925 -0.6461,0.635 -0.73342,0.635 -0.0873,0 0.0999,-0.28575 0.41592,-0.635 z m -4.57868,-4.31271 c 0.0152,-0.36987 0.0905,-0.4451 0.19182,-0.19182 0.0917,0.22919 0.0804,0.50304 -0.0251,0.60854 -0.1055,0.1055 -0.18054,-0.082 -0.16675,-0.41672 z m 6.35,0 c 0.0152,-0.36987 0.0905,-0.4451 0.19182,-0.19182 0.0917,0.22919 0.0804,0.50304 -0.0251,0.60854 -0.1055,0.1055 -0.18054,-0.082 -0.16676,-0.41672 z"
         style="fill:#7c7c7c;stroke-width:0.3175" />
      <path
         id="path2730"
         d="m 163.27823,234.49133 -0.60483,-0.71437 0.71437,0.60483 c 0.67134,0.5684 0.85892,0.82392 0.60484,0.82392 -0.0603,0 -0.38172,-0.32147 -0.71438,-0.71438 z m 2.88767,0.0794 c 0.31607,-0.34925 0.6461,-0.635 0.73342,-0.635 0.0873,0 -0.0998,0.28575 -0.41592,0.635 -0.31607,0.34925 -0.6461,0.635 -0.73342,0.635 -0.0873,0 0.0999,-0.28575 0.41592,-0.635 z m -4.57868,-4.31271 c 0.0152,-0.36987 0.0905,-0.4451 0.19182,-0.19182 0.0917,0.22919 0.0804,0.50304 -0.0251,0.60854 -0.1055,0.1055 -0.18054,-0.082 -0.16675,-0.41672 z m 6.35,0 c 0.0152,-0.36987 0.0905,-0.4451 0.19182,-0.19182 0.0917,0.22919 0.0804,0.50304 -0.0251,0.60854 -0.1055,0.1055 -0.18054,-0.082 -0.16676,-0.41672 z"
         style="fill:#797979;stroke-width:0.3175" />
      <path
         id="path2728"
         d="m 166.1659,234.57071 c 0.31607,-0.34925 0.6461,-0.635 0.73342,-0.635 0.0873,0 -0.0998,0.28575 -0.41592,0.635 -0.31607,0.34925 -0.6461,0.635 -0.73342,0.635 -0.0873,0 0.0999,-0.28575 0.41592,-0.635 z m -4.57868,-4.31271 c 0.0152,-0.36987 0.0905,-0.4451 0.19182,-0.19182 0.0917,0.22919 0.0804,0.50304 -0.0251,0.60854 -0.1055,0.1055 -0.18054,-0.082 -0.16675,-0.41672 z m 6.35,0 c 0.0152,-0.36987 0.0905,-0.4451 0.19182,-0.19182 0.0917,0.22919 0.0804,0.50304 -0.0251,0.60854 -0.1055,0.1055 -0.18054,-0.082 -0.16676,-0.41672 z"
         style="fill:#757575;stroke-width:0.3175" />
      <path
         id="path2726"
         d="m 161.58722,230.258 c 0.0152,-0.36987 0.0905,-0.4451 0.19182,-0.19182 0.0917,0.22919 0.0804,0.50304 -0.0251,0.60854 -0.1055,0.1055 -0.18054,-0.082 -0.16675,-0.41672 z m 6.35,0 c 0.0152,-0.36987 0.0905,-0.4451 0.19182,-0.19182 0.0917,0.22919 0.0804,0.50304 -0.0251,0.60854 -0.1055,0.1055 -0.18054,-0.082 -0.16676,-0.41672 z"
         style="fill:#747474;stroke-width:0.3175" />
      <path
         id="path2724"
         d="m 161.58722,230.258 c 0.0152,-0.36987 0.0905,-0.4451 0.19182,-0.19182 0.0917,0.22919 0.0804,0.50304 -0.0251,0.60854 -0.1055,0.1055 -0.18054,-0.082 -0.16675,-0.41672 z"
         style="fill:#737373;stroke-width:0.3175" />
    </g>
  </g>
</svg>
