<?xml version="1.0" encoding="UTF-8" standalone="no"?>
<svg
   xmlns:dc="http://purl.org/dc/elements/1.1/"
   xmlns:cc="http://creativecommons.org/ns#"
   xmlns:rdf="http://www.w3.org/1999/02/22-rdf-syntax-ns#"
   xmlns:svg="http://www.w3.org/2000/svg"
   xmlns="http://www.w3.org/2000/svg"
   id="svg1756"
   version="1.1"
   viewBox="0 0 54.217596 53.347852"
   height="53.347855mm"
   width="54.217594mm">
  <defs
     id="defs1750" />
  <metadata
     id="metadata1753">
    <rdf:RDF>
      <cc:Work
         rdf:about="">
        <dc:format>image/svg+xml</dc:format>
        <dc:type
           rdf:resource="http://purl.org/dc/dcmitype/StillImage" />
        <dc:title></dc:title>
      </cc:Work>
    </rdf:RDF>
  </metadata>
  <g
     transform="translate(-143.52863,-84.260512)"
     id="layer1">
    <g
       transform="matrix(6.7607453,0,0,6.7607453,-1406.9189,-1970.0173)"
       id="g1477">
      <path
         id="path1523"
         d="m 229.58107,311.55666 c -0.0865,-0.13987 -0.17012,-1.93025 -0.18595,-3.97861 l -0.0288,-3.7243 h 3.97998 3.97998 l -0.0882,3.88937 -0.0882,3.88938 -3.70579,0.0892 c -2.03819,0.0491 -3.77652,-0.0252 -3.86297,-0.16508 z"
         style="fill:#eef0f7;stroke-width:0.3175" />
      <path
         id="path1521"
         d="m 229.58264,311.5592 c -0.0856,-0.13847 -0.16033,-1.92885 -0.16612,-3.97861 l -0.0105,-3.72684 h 3.94022 3.94023 l -0.0683,3.88937 -0.0683,3.88938 -3.70579,0.0892 c -2.03819,0.0491 -3.77582,-0.0241 -3.8614,-0.16254 z"
         style="fill:#dee1f0;stroke-width:0.3175" />
      <path
         id="path1519"
         d="m 229.53306,311.4045 c -0.0789,-0.22385 -0.11184,-1.97863 -0.0733,-3.8995 l 0.0701,-3.4925 h 3.81 3.81 v 3.81 3.81 l -3.7367,0.0895 c -2.81755,0.0675 -3.77197,-0.0106 -3.88007,-0.3175 z"
         style="fill:#ced3e9;stroke-width:0.3175" />
      <path
         id="path1517"
         d="m 229.53306,311.4045 c -0.0789,-0.22385 -0.11184,-1.97863 -0.0733,-3.8995 l 0.0701,-3.4925 h 3.81 3.81 v 3.81 3.81 l -3.7367,0.0895 c -2.81755,0.0675 -3.77197,-0.0106 -3.88007,-0.3175 z"
         style="fill:#bfc5e2;stroke-width:0.3175" />
      <path
         id="path1515"
         d="m 229.53306,311.4045 c -0.0789,-0.22385 -0.11184,-1.97863 -0.0733,-3.8995 l 0.0701,-3.4925 h 3.81 3.81 l 0.0744,2.45059 0.0744,2.45059 -3.72563,0.10051 -3.72562,0.10051 3.74979,0.0683 3.74979,0.0683 -0.0985,1.19062 -0.0985,1.19063 -3.7367,0.0895 c -2.81755,0.0675 -3.77197,-0.0106 -3.88007,-0.3175 z m 6.58489,-6.17352 c -0.21828,-0.0881 -0.57546,-0.0881 -0.79375,0 -0.21828,0.0881 -0.0397,0.16014 0.39688,0.16014 0.43656,0 0.61516,-0.0721 0.39687,-0.16014 z"
         style="fill:#bec4e1;stroke-width:0.3175" />
      <path
         id="path1513"
         d="m 229.37108,310.3625 v -1.11125 h 3.96875 3.96875 v 1.11125 1.11125 h -3.96875 -3.96875 z m 0.0896,-3.88938 0.0692,-2.46062 h 3.81 3.81 l 0.0692,2.46062 0.0692,2.46063 h -3.94833 -3.94833 z m 6.65729,-1.24214 c -0.21828,-0.0881 -0.57546,-0.0881 -0.79375,0 -0.21828,0.0881 -0.0397,0.16014 0.39688,0.16014 0.43656,0 0.61516,-0.0721 0.39687,-0.16014 z"
         style="fill:#aeb6da;stroke-width:0.3175" />
      <path
         id="path1511"
         d="m 229.37108,310.3625 v -1.11125 h 3.96875 3.96875 v 1.11125 1.11125 h -3.96875 -3.96875 z m 0.16699,-1.8155 c -0.0761,-0.22385 -0.10908,-1.33569 -0.0733,-2.47075 l 0.0651,-2.06375 h 3.81 3.81 v 2.38125 2.38125 l -3.7367,0.0895 c -2.8195,0.0675 -3.77067,-0.0104 -3.87506,-0.3175 z m 6.57988,-3.31602 c -0.21828,-0.0881 -0.57546,-0.0881 -0.79375,0 -0.21828,0.0881 -0.0397,0.16014 0.39688,0.16014 0.43656,0 0.61516,-0.0721 0.39687,-0.16014 z"
         style="fill:#9fa8d4;stroke-width:0.3175" />
      <path
         id="path1509"
         d="m 229.37108,310.3625 v -1.11125 h 3.96875 3.96875 v 1.11125 1.11125 h -3.96875 -3.96875 z m 0.16699,-1.8155 c -0.0761,-0.22385 -0.10908,-1.33569 -0.0733,-2.47075 l 0.0651,-2.06375 h 3.81 3.81 v 2.38125 2.38125 l -3.7367,0.0895 c -2.8195,0.0675 -3.77067,-0.0104 -3.87506,-0.3175 z m 6.90343,-3.31401 c -0.21496,-0.087 -0.64359,-0.0923 -0.9525,-0.0118 -0.30892,0.0805 -0.13305,0.15165 0.39083,0.15812 0.52387,0.006 0.77663,-0.0594 0.56167,-0.14636 z"
         style="fill:#9ea7d3;stroke-width:0.3175" />
      <path
         id="path1507"
         d="m 229.43034,310.44187 0.0995,-1.03187 3.88937,-0.0892 3.88938,-0.0891 v 1.12102 1.12102 h -3.98887 -3.98886 z m 0.10773,-1.89487 c -0.0761,-0.22385 -0.10908,-1.33569 -0.0733,-2.47075 l 0.0651,-2.06375 h 3.81 3.81 v 2.38125 2.38125 l -3.7367,0.0895 c -2.8195,0.0675 -3.77067,-0.0104 -3.87506,-0.3175 z m 6.90343,-3.31401 c -0.21496,-0.087 -0.64359,-0.0923 -0.9525,-0.0118 -0.30892,0.0805 -0.13305,0.15165 0.39083,0.15812 0.52387,0.006 0.77663,-0.0594 0.56167,-0.14636 z"
         style="fill:#8f9acc;stroke-width:0.3175" />
      <path
         id="path1505"
         d="m 229.43034,310.44187 0.0995,-1.03187 3.88937,-0.0892 3.88938,-0.0891 v 1.12102 1.12102 h -3.98887 -3.98886 z m 0.16194,-1.71025 c -0.36189,-0.3619 -0.25093,-2.02037 0.13518,-2.02037 0.25287,0 0.24621,-0.13274 -0.023,-0.45705 -0.20862,-0.25138 -0.33327,-0.8586 -0.277,-1.34938 l 0.10232,-0.89232 h 3.81 3.81 v 2.38125 2.38125 l -3.66817,0.0889 c -2.0175,0.0489 -3.76772,-0.0106 -3.88938,-0.13229 z m 6.84922,-3.49863 c -0.21496,-0.087 -0.64359,-0.0923 -0.9525,-0.0118 -0.30892,0.0805 -0.13305,0.15165 0.39083,0.15812 0.52387,0.006 0.77663,-0.0594 0.56167,-0.14636 z"
         style="fill:#8e99cc;stroke-width:0.3175" />
      <path
         id="path1503"
         d="m 229.4969,311.02617 c -0.0987,-0.2573 -0.12977,-0.7262 -0.069,-1.042 0.0993,-0.51581 0.4974,-0.57417 3.91623,-0.57417 h 3.80565 v 0.9525 0.9525 l -3.7367,0.0895 c -3.05694,0.0732 -3.76936,0.004 -3.91623,-0.37833 z m 0.0954,-2.29455 c -0.33989,-0.3399 -0.26227,-1.64001 0.11172,-1.87115 0.22936,-0.14175 0.22222,-0.33913 -0.023,-0.63454 -0.19572,-0.23583 -0.30981,-0.83033 -0.25354,-1.32111 l 0.10232,-0.89232 h 3.81 3.81 v 2.38125 2.38125 l -3.66817,0.0889 c -2.0175,0.0489 -3.76772,-0.0106 -3.88938,-0.13229 z m 6.84922,-3.49863 c -0.21496,-0.087 -0.64359,-0.0923 -0.9525,-0.0118 -0.30892,0.0805 -0.13305,0.15165 0.39083,0.15812 0.52387,0.006 0.77663,-0.0594 0.56167,-0.14636 z"
         style="fill:#7f8bc5;stroke-width:0.3175" />
      <path
         id="path1501"
         d="m 229.4969,311.02617 c -0.0987,-0.2573 -0.12977,-0.7262 -0.069,-1.042 0.0993,-0.51581 0.4974,-0.57417 3.91623,-0.57417 h 3.80565 v 0.9525 0.9525 l -3.7367,0.0895 c -3.05694,0.0732 -3.76936,0.004 -3.91623,-0.37833 z m 0,-2.54 c -0.0987,-0.2573 -0.12998,-0.7262 -0.0694,-1.042 0.0979,-0.51086 0.54082,-0.58402 4.01646,-0.66348 l 3.90637,-0.0893 -0.10024,1.04182 -0.10023,1.04181 -3.7367,0.0895 c -3.05694,0.0732 -3.76936,0.004 -3.91623,-0.37833 z m 7.09889,-0.2668 c -0.20109,-0.6106 -1.50971,-0.69855 -1.50971,-0.10145 0,0.32417 0.28665,0.49833 0.82021,0.49833 0.51421,0 0.77144,-0.14806 0.6895,-0.39688 z m -7.09715,-2.26865 c -0.0978,-0.25481 -0.13076,-0.79515 -0.0733,-1.20075 0.10269,-0.72485 0.16968,-0.73747 3.91448,-0.73747 h 3.81 v 1.11125 1.11125 l -3.7367,0.0895 c -3.0409,0.0728 -3.76981,0.003 -3.91449,-0.37378 z M 236.56775,305.6 c 0,-0.28726 -0.29398,-0.47625 -0.74084,-0.47625 -0.44685,0 -0.74083,0.18899 -0.74083,0.47625 0,0.28726 0.29398,0.47625 0.74083,0.47625 0.44686,0 0.74084,-0.18899 0.74084,-0.47625 z"
         style="fill:#7e8ac5;stroke-width:0.3175" />
      <path
         id="path1499"
         d="m 229.68858,310.3625 v -1.11125 h 3.65125 3.65125 v 1.11125 1.11125 h -3.65125 -3.65125 z m 6.985,0.3175 c 0,-0.29633 -0.29986,-0.47625 -0.79375,-0.47625 -0.49389,0 -0.79375,0.17992 -0.79375,0.47625 0,0.29633 0.29986,0.47625 0.79375,0.47625 0.49389,0 0.79375,-0.17992 0.79375,-0.47625 z m -6.985,-2.8575 v -1.11125 h 3.65125 3.65125 v 1.11125 1.11125 h -3.65125 -3.65125 z m 6.90721,0.39687 c -0.20109,-0.6106 -1.50971,-0.69855 -1.50971,-0.10145 0,0.32417 0.28665,0.49833 0.82021,0.49833 0.51421,0 0.77144,-0.14806 0.6895,-0.39688 z m -6.90721,-3.09562 v -1.27 h 3.65125 3.65125 v 1.27 1.27 h -3.65125 -3.65125 z m 6.87917,0.47625 c 0,-0.28726 -0.29398,-0.47625 -0.74084,-0.47625 -0.44685,0 -0.74083,0.18899 -0.74083,0.47625 0,0.28726 0.29398,0.47625 0.74083,0.47625 0.44686,0 0.74084,-0.18899 0.74084,-0.47625 z"
         style="fill:#6f7dbe;stroke-width:0.3175" />
      <path
         id="path1497"
         d="m 229.68858,310.3625 v -1.11125 h 3.65125 3.65125 v 1.11125 1.11125 h -3.65125 -3.65125 z m 6.985,0.3175 c 0,-0.29633 -0.29986,-0.47625 -0.79375,-0.47625 -0.49389,0 -0.79375,0.17992 -0.79375,0.47625 0,0.29633 0.29986,0.47625 0.79375,0.47625 0.49389,0 0.79375,-0.17992 0.79375,-0.47625 z m -6.985,-2.8575 v -1.11125 h 3.65125 3.65125 v 1.11125 1.11125 h -3.65125 -3.65125 z m 6.985,0.3175 c 0,-0.29633 -0.29986,-0.47625 -0.79375,-0.47625 -0.49389,0 -0.79375,0.17992 -0.79375,0.47625 0,0.29633 0.29986,0.47625 0.79375,0.47625 0.49389,0 0.79375,-0.17992 0.79375,-0.47625 z m -6.985,-3.01625 v -1.27 h 3.65125 3.65125 v 1.27 1.27 h -3.65125 -3.65125 z m 6.985,0.47625 c 0,-0.29633 -0.29986,-0.47625 -0.79375,-0.47625 -0.49389,0 -0.79375,0.17992 -0.79375,0.47625 0,0.29633 0.29986,0.47625 0.79375,0.47625 0.49389,0 0.79375,-0.17992 0.79375,-0.47625 z"
         style="fill:#4f60b0;stroke-width:0.3175" />
      <path
         id="path1495"
         d="m 229.68858,310.3625 v -1.11125 h 3.65125 3.65125 v 1.11125 1.11125 h -3.65125 -3.65125 z m 6.985,0.3175 c 0,-0.29633 -0.29986,-0.47625 -0.79375,-0.47625 -0.49389,0 -0.79375,0.17992 -0.79375,0.47625 0,0.29633 0.29986,0.47625 0.79375,0.47625 0.49389,0 0.79375,-0.17992 0.79375,-0.47625 z m -6.985,-2.8575 v -1.11125 h 3.65125 3.65125 v 1.11125 1.11125 h -3.65125 -3.65125 z m 6.985,0.3175 c 0,-0.29633 -0.29986,-0.47625 -0.79375,-0.47625 -0.49389,0 -0.79375,0.17992 -0.79375,0.47625 0,0.29633 0.29986,0.47625 0.79375,0.47625 0.49389,0 0.79375,-0.17992 0.79375,-0.47625 z m -6.92479,-2.93688 0.0985,-1.19062 h 3.4925 3.4925 l 0.0985,1.19062 0.0985,1.19063 h -3.68958 -3.68958 z m 6.92479,0.39688 c 0,-0.29633 -0.29986,-0.47625 -0.79375,-0.47625 -0.49389,0 -0.79375,0.17992 -0.79375,0.47625 0,0.29633 0.29986,0.47625 0.79375,0.47625 0.49389,0 0.79375,-0.17992 0.79375,-0.47625 z"
         style="fill:#4e5faf;stroke-width:0.3175" />
      <path
         id="path1493"
         d="m 229.68858,310.3625 v -1.11125 h 3.65125 3.65125 v 1.11125 1.11125 h -3.65125 -3.65125 z m 6.985,0.3175 c 0,-0.29633 -0.29986,-0.47625 -0.79375,-0.47625 -0.49389,0 -0.79375,0.17992 -0.79375,0.47625 0,0.29633 0.29986,0.47625 0.79375,0.47625 0.49389,0 0.79375,-0.17992 0.79375,-0.47625 z m -6.985,-2.8575 v -1.11125 h 3.65125 3.65125 v 1.11125 1.11125 h -3.65125 -3.65125 z m 0.9525,0.65374 c 0,-0.077 -0.14287,-0.22832 -0.3175,-0.33624 -0.17463,-0.10792 -0.3175,-0.0449 -0.3175,0.14001 0,0.18493 0.14287,0.33624 0.3175,0.33624 0.17463,0 0.3175,-0.063 0.3175,-0.14001 z m 6.0325,-0.33624 c 0,-0.29633 -0.29986,-0.47625 -0.79375,-0.47625 -0.49389,0 -0.79375,0.17992 -0.79375,0.47625 0,0.29633 0.29986,0.47625 0.79375,0.47625 0.49389,0 0.79375,-0.17992 0.79375,-0.47625 z m -6.92479,-2.93688 0.0985,-1.19062 h 3.4925 3.4925 l 0.0985,1.19062 0.0985,1.19063 h -3.68958 -3.68958 z m 6.92479,0.39688 c 0,-0.29633 -0.29986,-0.47625 -0.79375,-0.47625 -0.49389,0 -0.79375,0.17992 -0.79375,0.47625 0,0.29633 0.29986,0.47625 0.79375,0.47625 0.49389,0 0.79375,-0.17992 0.79375,-0.47625 z"
         style="fill:#3f51a9;stroke-width:0.3175" />
      <path
         id="path1491"
         d="m 229.71365,310.44187 -0.0251,-1.19062 h 3.65125 3.65125 v 1.11125 1.11125 h -3.35249 c -2.15414,0 -3.28234,-0.11349 -3.15626,-0.3175 0.10792,-0.17463 0.0568,-0.3175 -0.11355,-0.3175 -0.17038,0 -0.38185,0.17859 -0.46993,0.39687 -0.0881,0.21829 -0.17142,-0.1389 -0.1852,-0.79375 z m 6.95993,0.23813 c 0,-0.29633 -0.29986,-0.47625 -0.79375,-0.47625 -0.49389,0 -0.79375,0.17992 -0.79375,0.47625 0,0.29633 0.29986,0.47625 0.79375,0.47625 0.49389,0 0.79375,-0.17992 0.79375,-0.47625 z m -6.985,-2.8575 v -1.11125 h 3.65125 3.65125 v 1.11125 1.11125 h -3.65125 -3.65125 z m 0.9525,0.65374 c 0,-0.077 -0.14287,-0.22832 -0.3175,-0.33624 -0.17463,-0.10792 -0.3175,-0.0449 -0.3175,0.14001 0,0.18493 0.14287,0.33624 0.3175,0.33624 0.17463,0 0.3175,-0.063 0.3175,-0.14001 z m 6.0325,-0.33624 c 0,-0.29633 -0.29986,-0.47625 -0.79375,-0.47625 -0.49389,0 -0.79375,0.17992 -0.79375,0.47625 0,0.29633 0.29986,0.47625 0.79375,0.47625 0.49389,0 0.79375,-0.17992 0.79375,-0.47625 z m -6.985,-2.8575 v -1.11125 h 3.65125 3.65125 v 1.11125 1.11125 h -3.65125 -3.65125 z m 0.9525,0.65374 c 0,-0.077 -0.14287,-0.22832 -0.3175,-0.33624 -0.17463,-0.10792 -0.3175,-0.0449 -0.3175,0.14001 0,0.18493 0.14287,0.33624 0.3175,0.33624 0.17463,0 0.3175,-0.063 0.3175,-0.14001 z m 6.0325,-0.33624 c 0,-0.29633 -0.29986,-0.47625 -0.79375,-0.47625 -0.49389,0 -0.79375,0.17992 -0.79375,0.47625 0,0.29633 0.29986,0.47625 0.79375,0.47625 0.49389,0 0.79375,-0.17992 0.79375,-0.47625 z"
         style="fill:#3e50a8;stroke-width:0.3175" />
      <path
         id="path1489"
         d="m 229.72541,310.44187 -0.0368,-1.19062 h 3.65125 3.65125 v 1.11125 1.11125 h -3.35249 c -1.98824,0 -3.27815,-0.12027 -3.16982,-0.29556 0.10047,-0.16256 0.0483,-0.37862 -0.11598,-0.48014 -0.16426,-0.10152 -0.36433,0.0672 -0.4446,0.37494 -0.0803,0.30773 -0.16252,0.0237 -0.18278,-0.63112 z m 6.94817,0.23813 c 0,-0.29633 -0.29986,-0.47625 -0.79375,-0.47625 -0.49389,0 -0.79375,0.17992 -0.79375,0.47625 0,0.29633 0.29986,0.47625 0.79375,0.47625 0.49389,0 0.79375,-0.17992 0.79375,-0.47625 z m -6.985,-2.8575 v -1.11125 h 3.65125 3.65125 v 1.11125 1.11125 h -3.65125 -3.65125 z m 0.9525,0.65374 c 0,-0.077 -0.14287,-0.22832 -0.3175,-0.33624 -0.17463,-0.10792 -0.3175,-0.0449 -0.3175,0.14001 0,0.18493 0.14287,0.33624 0.3175,0.33624 0.17463,0 0.3175,-0.063 0.3175,-0.14001 z m 6.0325,-0.33624 c 0,-0.29633 -0.29986,-0.47625 -0.79375,-0.47625 -0.49389,0 -0.79375,0.17992 -0.79375,0.47625 0,0.29633 0.29986,0.47625 0.79375,0.47625 0.49389,0 0.79375,-0.17992 0.79375,-0.47625 z m -6.985,-2.8575 v -1.11125 h 3.65125 3.65125 v 1.11125 1.11125 h -3.65125 -3.65125 z m 0.9525,0.65374 c 0,-0.077 -0.14287,-0.22832 -0.3175,-0.33624 -0.17463,-0.10792 -0.3175,-0.0449 -0.3175,0.14001 0,0.18493 0.14287,0.33624 0.3175,0.33624 0.17463,0 0.3175,-0.063 0.3175,-0.14001 z m 6.0325,-0.33624 c 0,-0.29633 -0.29986,-0.47625 -0.79375,-0.47625 -0.49389,0 -0.79375,0.17992 -0.79375,0.47625 0,0.29633 0.29986,0.47625 0.79375,0.47625 0.49389,0 0.79375,-0.17992 0.79375,-0.47625 z"
         style="fill:#2f43a1;stroke-width:0.3175" />
      <path
         id="path1487"
         d="m 230.40296,311.07687 c 0.0436,-0.21828 -0.0992,-0.36115 -0.31751,-0.3175 -0.23283,0.0466 -0.39687,-0.2487 -0.39687,-0.71437 v -0.79375 h 3.65125 3.65125 v 1.11125 1.11125 h -3.33375 c -2.49767,0 -3.31384,-0.0995 -3.25437,-0.39688 z m 6.27062,-0.39687 c 0,-0.29633 -0.29986,-0.47625 -0.79375,-0.47625 -0.49389,0 -0.79375,0.17992 -0.79375,0.47625 0,0.29633 0.29986,0.47625 0.79375,0.47625 0.49389,0 0.79375,-0.17992 0.79375,-0.47625 z m -6.58424,-1.96586 c 0.30773,-0.0803 0.47646,-0.28034 0.37494,-0.4446 -0.10152,-0.16426 -0.31758,-0.21645 -0.48014,-0.11598 -0.16256,0.10047 -0.29556,-0.18295 -0.29556,-0.62982 v -0.81249 h 3.65125 3.65125 v 1.11125 1.11125 l -3.73063,-0.0368 c -2.05184,-0.0203 -3.47884,-0.10251 -3.17111,-0.18278 z m 6.58424,-0.57414 c 0,-0.29633 -0.29986,-0.47625 -0.79375,-0.47625 -0.49389,0 -0.79375,0.17992 -0.79375,0.47625 0,0.29633 0.29986,0.47625 0.79375,0.47625 0.49389,0 0.79375,-0.17992 0.79375,-0.47625 z m -6.985,-2.8575 v -1.11125 h 3.65125 3.65125 v 1.11125 1.11125 h -3.65125 -3.65125 z m 0.9525,0.65374 c 0,-0.077 -0.14287,-0.22832 -0.3175,-0.33624 -0.17463,-0.10792 -0.3175,-0.0449 -0.3175,0.14001 0,0.18493 0.14287,0.33624 0.3175,0.33624 0.17463,0 0.3175,-0.063 0.3175,-0.14001 z m 6.0325,-0.33624 c 0,-0.31638 -0.31639,-0.47625 -0.94254,-0.47625 -0.70736,0 -0.89693,0.11883 -0.75978,0.47625 0.10052,0.26194 0.52466,0.47625 0.94254,0.47625 0.46369,0 0.75978,-0.18559 0.75978,-0.47625 z"
         style="fill:#1f349a;stroke-width:0.3175" />
      <path
         id="path1485"
         d="m 230.40296,311.07687 c 0.0436,-0.21828 -0.0992,-0.36115 -0.31751,-0.3175 -0.23283,0.0466 -0.39687,-0.2487 -0.39687,-0.71437 v -0.79375 h 3.65125 3.65125 v 1.11125 1.11125 h -3.33375 c -2.49767,0 -3.31384,-0.0995 -3.25437,-0.39688 z m 6.27062,-0.39687 c 0,-0.29633 -0.29986,-0.47625 -0.79375,-0.47625 -0.49389,0 -0.79375,0.17992 -0.79375,0.47625 0,0.29633 0.29986,0.47625 0.79375,0.47625 0.49389,0 0.79375,-0.17992 0.79375,-0.47625 z m -6.58424,-1.96586 c 0.30773,-0.0803 0.47646,-0.28034 0.37494,-0.4446 -0.10152,-0.16426 -0.31758,-0.21645 -0.48014,-0.11598 -0.16256,0.10047 -0.29556,-0.18295 -0.29556,-0.62982 v -0.81249 h 3.65125 3.65125 v 1.11125 1.11125 l -3.73063,-0.0368 c -2.05184,-0.0203 -3.47884,-0.10251 -3.17111,-0.18278 z m 6.58424,-0.57414 c 0,-0.3175 -0.3175,-0.47625 -0.9525,-0.47625 -0.635,0 -0.9525,0.15875 -0.9525,0.47625 0,0.3175 0.3175,0.47625 0.9525,0.47625 0.635,0 0.9525,-0.15875 0.9525,-0.47625 z m -6.58424,-1.96586 c 0.30773,-0.0803 0.47646,-0.28034 0.37494,-0.4446 -0.10152,-0.16426 -0.31758,-0.21645 -0.48014,-0.11598 -0.16256,0.10047 -0.29556,-0.18295 -0.29556,-0.62982 v -0.81249 h 3.65125 3.65125 v 1.11125 1.11125 l -3.73063,-0.0368 c -2.05184,-0.0203 -3.47884,-0.10251 -3.17111,-0.18278 z M 236.67358,305.6 c 0,-0.3175 -0.3175,-0.47625 -0.9525,-0.47625 -0.635,0 -0.9525,0.15875 -0.9525,0.47625 0,0.3175 0.3175,0.47625 0.9525,0.47625 0.635,0 0.9525,-0.15875 0.9525,-0.47625 z"
         style="fill:#1e339a;stroke-width:0.3175" />
      <path
         id="path1483"
         d="m 230.40296,311.07687 c 0.0436,-0.21828 -0.0992,-0.36115 -0.31751,-0.3175 -0.23283,0.0466 -0.39687,-0.2487 -0.39687,-0.71437 v -0.79375 h 3.65125 3.65125 v 1.11125 1.11125 h -3.33375 c -2.49767,0 -3.31384,-0.0995 -3.25437,-0.39688 z m 6.27062,-0.39687 c 0,-0.3175 -0.3175,-0.47625 -0.9525,-0.47625 -0.635,0 -0.9525,0.15875 -0.9525,0.47625 0,0.3175 0.3175,0.47625 0.9525,0.47625 0.635,0 0.9525,-0.15875 0.9525,-0.47625 z m -6.58424,-1.96586 c 0.30773,-0.0803 0.47646,-0.28034 0.37494,-0.4446 -0.10152,-0.16426 -0.31758,-0.21645 -0.48014,-0.11598 -0.16256,0.10047 -0.29556,-0.18295 -0.29556,-0.62982 v -0.81249 h 3.65125 3.65125 v 1.11125 1.11125 l -3.73063,-0.0368 c -2.05184,-0.0203 -3.47884,-0.10251 -3.17111,-0.18278 z m 6.58424,-0.57414 c 0,-0.3175 -0.3175,-0.47625 -0.9525,-0.47625 -0.635,0 -0.9525,0.15875 -0.9525,0.47625 0,0.3175 0.3175,0.47625 0.9525,0.47625 0.635,0 0.9525,-0.15875 0.9525,-0.47625 z m -6.42937,-1.95045 c 0.56915,-0.23837 0.49216,-0.85281 -0.0794,-0.63348 -0.34407,0.13203 -0.47625,-0.0348 -0.47625,-0.60103 v -0.78379 h 3.67137 3.67136 l -0.0995,1.03187 -0.0995,1.03188 -3.4925,0.0604 c -1.92088,0.0332 -3.31391,-0.0144 -3.09562,-0.10583 z M 236.67358,305.6 c 0,-0.3175 -0.3175,-0.47625 -0.9525,-0.47625 -0.635,0 -0.9525,0.15875 -0.9525,0.47625 0,0.3175 0.3175,0.47625 0.9525,0.47625 0.635,0 0.9525,-0.15875 0.9525,-0.47625 z"
         style="fill:#0f2693;stroke-width:0.3175" />
      <path
         id="path1481"
         d="m 230.40296,311.07687 c 0.0436,-0.21828 -0.0992,-0.36115 -0.31751,-0.3175 -0.23283,0.0466 -0.39687,-0.2487 -0.39687,-0.71437 v -0.79375 h 3.65125 3.65125 v 1.11125 1.11125 h -3.33375 c -2.49767,0 -3.31384,-0.0995 -3.25437,-0.39688 z m 6.27062,-0.39687 c 0,-0.3175 -0.3175,-0.47625 -0.9525,-0.47625 -0.635,0 -0.9525,0.15875 -0.9525,0.47625 0,0.3175 0.3175,0.47625 0.9525,0.47625 0.635,0 0.9525,-0.15875 0.9525,-0.47625 z m -6.27062,-2.14313 c 0.0436,-0.21828 -0.0992,-0.36115 -0.31751,-0.3175 -0.23283,0.0466 -0.39687,-0.2487 -0.39687,-0.71437 v -0.79375 h 3.65125 3.65125 v 1.11125 1.11125 h -3.33375 c -2.49767,0 -3.31384,-0.0995 -3.25437,-0.39688 z m 6.27062,-0.39687 c 0,-0.3175 -0.3175,-0.47625 -0.9525,-0.47625 -0.635,0 -0.9525,0.15875 -0.9525,0.47625 0,0.3175 0.3175,0.47625 0.9525,0.47625 0.635,0 0.9525,-0.15875 0.9525,-0.47625 z m -6.42937,-1.95045 c 0.56915,-0.23837 0.49216,-0.85281 -0.0794,-0.63348 -0.34407,0.13203 -0.47625,-0.0348 -0.47625,-0.60103 v -0.78379 h 3.67137 3.67136 l -0.0995,1.03187 -0.0995,1.03188 -3.4925,0.0604 c -1.92088,0.0332 -3.31391,-0.0144 -3.09562,-0.10583 z M 236.67358,305.6 c 0,-0.3175 -0.3175,-0.47625 -0.9525,-0.47625 -0.635,0 -0.9525,0.15875 -0.9525,0.47625 0,0.3175 0.3175,0.47625 0.9525,0.47625 0.635,0 0.9525,-0.15875 0.9525,-0.47625 z"
         style="fill:#0e2593;stroke-width:0.3175" />
      <path
         id="path1479"
         d="m 230.54742,310.94238 c 0.15447,-0.40256 0.0751,-0.48194 -0.32747,-0.32747 -0.40839,0.15672 -0.53137,0.0225 -0.53137,-0.57987 v -0.78379 h 3.65125 3.65125 v 1.11125 1.11125 h -3.32379 c -2.97727,0 -3.30252,-0.0554 -3.11987,-0.53137 z m 6.12616,-0.26238 c 0,-0.3175 -0.3175,-0.47625 -0.9525,-0.47625 -0.635,0 -0.9525,0.15875 -0.9525,0.47625 0,0.3175 0.3175,0.47625 0.9525,0.47625 0.635,0 0.9525,-0.15875 0.9525,-0.47625 z m -6.12616,-2.27762 c 0.15447,-0.40256 0.0751,-0.48194 -0.32747,-0.32747 -0.40839,0.15672 -0.53137,0.0225 -0.53137,-0.57987 v -0.78379 h 3.65125 3.65125 v 1.11125 1.11125 h -3.32379 c -2.97727,0 -3.30252,-0.0554 -3.11987,-0.53137 z m 6.12616,-0.26238 c 0,-0.3175 -0.3175,-0.47625 -0.9525,-0.47625 -0.635,0 -0.9525,0.15875 -0.9525,0.47625 0,0.3175 0.3175,0.47625 0.9525,0.47625 0.635,0 0.9525,-0.15875 0.9525,-0.47625 z m -6.42937,-1.95045 c 0.55228,-0.2313 0.49744,-0.7483 -0.0794,-0.7483 -0.26458,0 -0.47625,-0.28222 -0.47625,-0.635 0,-0.59839 0.21167,-0.635 3.67137,-0.635 h 3.67136 l -0.0995,1.03187 -0.0995,1.03188 -3.4925,0.0604 c -1.92088,0.0332 -3.31391,-0.0144 -3.09562,-0.10583 z M 236.67358,305.6 c 0,-0.3175 -0.3175,-0.47625 -0.9525,-0.47625 -0.635,0 -0.9525,0.15875 -0.9525,0.47625 0,0.3175 0.3175,0.47625 0.9525,0.47625 0.635,0 0.9525,-0.15875 0.9525,-0.47625 z"
         style="fill:#00178c;stroke-width:0.3175" />
    </g>
  </g>
</svg>
