<?xml version="1.0" encoding="UTF-8" standalone="no"?>
<svg
   xmlns:dc="http://purl.org/dc/elements/1.1/"
   xmlns:cc="http://creativecommons.org/ns#"
   xmlns:rdf="http://www.w3.org/1999/02/22-rdf-syntax-ns#"
   xmlns:svg="http://www.w3.org/2000/svg"
   xmlns="http://www.w3.org/2000/svg"
   width="190.5mm"
   height="190.5mm"
   viewBox="0 0 262.4976 262.4976"
   version="1.1"
   id="svg1756">
  <defs
     id="defs1750" />
  <metadata
     id="metadata1753">
    <rdf:RDF>
      <cc:Work
         rdf:about="">
        <dc:format>image/svg+xml</dc:format>
        <dc:type
           rdf:resource="http://purl.org/dc/dcmitype/StillImage" />
        <dc:title></dc:title>
      </cc:Work>
    </rdf:RDF>
  </metadata>
  <path
     id="path868"
     d="m 12.56383,251.46884 c -4.9121525,-1.18466 -7.8933285,-3.68515 -10.0467475,-8.42682 -1.77056098,-3.89865 -2.05642098,-6.60493 -2.38298498,-22.56011 -0.537179,-26.24543 1.14548098,-32.03266 10.50340048,-36.1247 3.852735,-1.68472 9.308413,-1.77827 118.337782,-2.02933 75.54915,-0.17394 116.10887,0.0688 119.63782,0.71588 6.14437,1.12674 9.30047,3.15894 11.98549,7.71737 1.75367,2.97728 1.89901,4.93169 1.89901,25.53741 0,21.90196 -0.0438,22.40095 -2.37377,27.06094 -1.74075,3.48153 -3.38658,5.25393 -6.17179,6.64653 -3.73145,1.86574 -5.85346,1.90167 -121.06206,2.05016 -64.495216,0.0831 -118.641988,-0.18116 -120.32615,-0.58733 z m 42.264883,-33.98341 c 0.229102,-7.37064 0.03825,-8.79097 -1.186882,-8.8329 -0.802939,-0.0276 -4.450839,-0.0499 -8.106435,-0.0499 -3.655601,0 -7.287467,0.0226 -8.070808,0.0499 -1.154745,0.0405 -1.424259,1.6371 -1.424259,8.43726 0,4.61303 0.299762,8.68706 0.666103,9.05342 0.366358,0.36635 4.532316,0.54439 9.257691,0.39563 l 8.591582,-0.27048 z m 28.485191,0 0.27299,-8.78294 h -9.5307 -9.53069 v 8.46644 c 0,5.87532 0.36324,8.6184 1.18688,8.96296 0.65279,0.27311 4.81875,0.41553 9.25769,0.31649 l 8.0708,-0.18004 z m 143.974306,8.68135 c 1.21327,-0.46559 1.50191,-2.19416 1.50191,-8.99454 v -8.41821 l -30.14682,-0.26316 c -16.58075,-0.14473 -31.32185,-0.12787 -32.75798,0.0373 l -2.61114,0.30045 v 8.40337 c 0,5.83426 0.36285,8.54978 1.18689,8.88228 1.71148,0.6906 61.03508,0.74017 62.82714,0.0525 z M 14.201684,162.78407 c -6.9421685,-1.5585 -9.1394095,-3.1047 -11.6575895,-8.20344 -1.99564998,-4.04074 -2.11025198,-5.45876 -2.11025198,-26.11143 0,-20.86814 0.09549,-22.0174 2.14916798,-25.86126 3.045329,-5.699969 7.5375275,-7.728958 19.5008665,-8.807913 10.930045,-0.985751 166.236683,-1.088022 204.807233,-0.1349 28.51374,0.704637 30.1075,1.094456 33.70748,8.244293 1.73464,3.44515 1.89901,5.66179 1.89901,25.61023 0,23.70652 -0.50513,26.84296 -5.00686,31.08864 -5.35703,5.05233 -1.63637,4.89851 -124.12602,5.13147 -87.610798,0.16662 -115.147541,-0.0543 -119.163036,-0.95573 z M 55.030459,128.4692 v -9.0203 h -9.495063 -9.495067 v 9.0203 9.02031 h 9.495067 9.495063 z m 28.485185,-0.0344 v -9.05467 l -9.25768,0.27177 -9.25769,0.27177 -0.28006,7.51211 c -0.15406,4.13166 -0.0606,8.08398 0.20757,8.78294 0.3601,0.9384 2.85482,1.27079 9.53777,1.27079 h 9.0501 v -9.05464 z m 145.274476,0.0219 v -9.03277 l -32.52059,0.24984 -32.52059,0.24985 -0.28007,7.51213 c -0.15405,4.13165 -0.0606,8.08397 0.20757,8.78293 0.39408,1.02695 6.68803,1.27081 32.80068,1.27081 l 32.31301,-3e-5 v -9.03267 z M 28.919031,79.559622 C 10.908598,79.048778 8.3986403,78.476837 4.3020405,73.950142 3.2986475,72.84141 1.9199065,69.272614 1.2381755,66.019504 -0.30631948,58.649426 -0.44179548,30.259035 1.0346605,23.374461 2.3423465,17.276952 6.4213465,12.788849 12.027331,11.279316 14.779699,10.538177 50.471332,10.30609 134.62421,10.482109 c 118.2578,0.247367 118.72444,0.255842 121.39475,2.208603 1.47433,1.07817 3.53515,3.641827 4.57961,5.697038 1.73202,3.40817 1.89901,5.615341 1.89901,25.100649 0,28.621545 -1.50835,32.660329 -13.11369,35.113431 -5.20657,1.100547 -187.508846,1.892559 -220.464877,0.957792 z M 55.030459,44.912658 v -9.020314 h -9.495063 -9.495067 v 8.387309 c 0,4.613019 0.284834,8.672156 0.633005,9.020306 0.348138,0.348151 4.62093,0.633012 9.495063,0.633012 h 8.862062 z m 28.485185,0 v -9.020314 h -9.49506 -9.49506 v 8.387309 c 0,4.613019 0.28483,8.672156 0.633,9.020306 0.34814,0.348151 4.62093,0.633012 9.49507,0.633012 h 8.86205 z m 145.072736,-0.237391 0.27299,-8.782937 h -32.79359 -32.7936 v 8.38731 c 0,4.613018 0.29043,8.67775 0.64541,9.032735 0.355,0.354998 14.98926,0.533014 32.5206,0.395634 l 31.87516,-0.249821 z"
     style="fill:#00188d;fill-opacity:1;stroke-width:0.9495064" />
</svg>
