<svg xmlns="http://www.w3.org/2000/svg" viewBox="0 0 80 80" width="50px" height="50px"><path fill="#8bb7f0" d="M69.5 52H71.5V62H69.5z"/><path fill="#8bb7f0" d="M65.6 56H75.39999999999999V58H65.6z" transform="rotate(-29.418 70.545 56.998)"/><path fill="#8bb7f0" d="M69.5 52.1H71.5V61.900000000000006H69.5z" transform="rotate(-60.607 70.547 56.998)"/><path fill="#8bb7f0" d="M22.5 12H24.5V36H22.5z"/><path fill="#8bb7f0" d="M23.5 17L19.3 14.2 20.5 12.5 23.5 14.6 26.5 12.5 27.7 14.2zM26.5 35.5L23.5 33.4 20.5 35.5 19.3 33.8 23.5 31 27.7 33.8z"/><path fill="#8bb7f0" d="M22.5 12H24.5V36H22.5z" transform="rotate(-60.83 23.499 23.999)"/><path fill="#8bb7f0" d="M12.9 22.9L12 21.1 15.3 19.4 15 15.8 17 15.6 17.4 20.6zM30 32.4L29.6 27.4 34.1 25.1 35 26.9 31.7 28.6 32 32.2z"/><path fill="#8bb7f0" d="M11.5 23H35.5V25H11.5z" transform="rotate(-29.167 23.5 23.999)"/><path fill="#8bb7f0" d="M34.1 22.9L29.6 20.6 30 15.6 32 15.8 31.7 19.4 35 21.1zM17 32.4L15 32.2 15.3 28.6 12 26.9 12.9 25.1 17.4 27.4zM55.6 59H57.6V73H55.6z"/><path fill="#8bb7f0" d="M55.6 59H57.6V73H55.6z" transform="rotate(-60.824 56.566 66.003)"/><path fill="#8bb7f0" d="M49.6 65H63.6V67H49.6z" transform="rotate(-29.167 56.563 65.997)"/><path fill="#8bb7f0" d="M31.6 58H33.6V78H31.6z"/><path fill="#8bb7f0" d="M31.6 58H33.6V78H31.6z" transform="rotate(-60.83 32.562 67.999)"/><path fill="#8bb7f0" d="M22.6 67H42.6V69H22.6z" transform="rotate(-29.167 32.563 67.997)"/><path fill="#8bb7f0" d="M11.6 41H13.6V61H11.6z"/><path fill="#8bb7f0" d="M12.6 45.3L9 43 10.1 41.3 12.6 42.9 15 41.3 16.1 43zM10.1 60.7L9 59 12.6 56.7 16.1 59 15 60.7 12.6 59.1z"/><g><path fill="#8bb7f0" d="M11.6 41H13.6V61H11.6z" transform="rotate(-60.83 12.562 51)"/><path fill="#8bb7f0" d="M3.8 50.2L2.9 48.4 5.5 47.1 5.3 44.1 7.3 44 7.6 48.2zM17.8 58L17.5 53.8 21.3 51.8 22.2 53.6 19.6 54.9 19.8 57.9z"/></g><g><path fill="#8bb7f0" d="M2.6 50H22.6V52H2.6z" transform="rotate(-29.167 12.563 50.998)"/><path fill="#8bb7f0" d="M21.3 50.2L17.5 48.2 17.8 44 19.8 44.1 19.6 47.1 22.2 48.4zM7.3 58L5.3 57.9 5.5 54.9 2.9 53.6 3.8 51.8 7.6 53.8z"/></g><g><path fill="#8bb7f0" d="M57.6 2H59.6V31H57.6z"/><path fill="#8bb7f0" d="M58.6 7.8L53.7 4.5 54.8 2.8 58.6 5.4 62.4 2.8 63.5 4.5zM54.8 30.2L53.7 28.5 58.6 25.2 63.5 28.5 62.4 30.2 58.6 27.6z"/><path fill="#8bb7f0" d="M57.6 2H59.6V31H57.6z" transform="rotate(-60.83 58.562 16.499)"/><path fill="#8bb7f0" d="M45.7 14.9L44.8 13.1 48.8 11.1 48.5 6.5 50.5 6.4 50.9 12.2zM66.7 26.6L66.2 20.8 71.4 18.1 72.4 19.9 68.3 21.9 68.7 26.5z"/><g><path fill="#8bb7f0" d="M44.1 15.5H73.1V17.5H44.1z" transform="rotate(-29.167 58.561 16.498)"/><path fill="#8bb7f0" d="M71.4 14.9L66.2 12.2 66.7 6.4 68.7 6.5 68.3 11.1 72.4 13.1zM50.5 26.6L48.5 26.5 48.8 21.9 44.8 19.9 45.7 18.1 50.9 20.8z"/></g></g></svg>