<svg xmlns="http://www.w3.org/2000/svg" viewBox="0 0 80 80" width="50px" height="50px"><path fill="#ffeea3" d="M16.942,36.165l-0.202-0.046c-0.333-0.077-0.667-0.155-0.99-0.254l-0.199-0.061L10.5,38.488v-5.554 l-0.167-0.149c-0.391-0.35-0.768-0.727-1.12-1.119L9.065,31.5H3.508l2.679-5.086l-0.06-0.197 c-0.095-0.313-0.171-0.635-0.246-0.957l-0.046-0.202L0.943,22l4.892-3.058l0.046-0.202c0.074-0.322,0.151-0.644,0.246-0.958 l0.06-0.196L3.508,12.5h5.557l0.149-0.166c0.352-0.392,0.728-0.769,1.12-1.12l0.166-0.149V5.512l5.051,2.685l0.198-0.061 c0.325-0.1,0.657-0.178,0.991-0.254l0.202-0.046L20,2.943l3.058,4.892l0.202,0.046c0.333,0.077,0.666,0.155,0.991,0.254 l0.198,0.061L29.5,5.512v5.553l0.166,0.149c0.392,0.352,0.769,0.728,1.12,1.12l0.149,0.166h5.553l-2.685,5.051l0.061,0.198 c0.1,0.325,0.178,0.657,0.254,0.991l0.046,0.202L39.057,22l-4.892,3.058l-0.046,0.202c-0.077,0.333-0.155,0.666-0.254,0.991 l-0.061,0.198l2.7,5.08l-5.772,0.202l-0.141,0.152c-0.228,0.244-0.464,0.479-0.708,0.708L29.73,32.73l-0.202,5.773l-5.08-2.701 l-0.199,0.061c-0.324,0.1-0.657,0.178-0.99,0.254l-0.202,0.046L20,41.057L16.942,36.165z"/><path fill="#c29653" d="M20,3.887l2.524,4.038l0.22,0.352l0.404,0.093c0.331,0.076,0.652,0.152,0.957,0.245L24.5,8.736 l0.366-0.195L29,6.344v4.498v0.446l0.332,0.298c0.378,0.339,0.742,0.703,1.081,1.081L30.712,13h0.446h4.498l-2.197,4.134 L33.264,17.5l0.121,0.396c0.094,0.306,0.169,0.627,0.245,0.957l0.093,0.404l0.352,0.22L38.113,22l-4.038,2.523l-0.352,0.22 l-0.093,0.404c-0.076,0.33-0.152,0.651-0.245,0.957L33.264,26.5l0.195,0.366l2.228,4.19l-4.766,0.167l-0.414,0.014l-0.282,0.303 c-0.219,0.235-0.449,0.465-0.684,0.684l-0.303,0.282l-0.014,0.414l-0.167,4.766l-4.19-2.227L24.5,35.264l-0.396,0.121 c-0.303,0.093-0.626,0.169-0.957,0.245l-0.404,0.093l-0.22,0.352L20,40.113l-2.523-4.038l-0.22-0.352l-0.404-0.093 c-0.331-0.076-0.654-0.152-0.957-0.245L15.5,35.264l-0.366,0.195L11,37.656v-4.498v-0.446l-0.332-0.298 c-0.378-0.339-0.742-0.703-1.081-1.081L9.288,31H8.842H4.336l2.197-4.172l0.191-0.363l-0.119-0.393 c-0.093-0.306-0.171-0.637-0.237-0.924l-0.093-0.404l-0.352-0.22L1.887,22l4.038-2.523l0.352-0.22l0.093-0.404 c0.066-0.286,0.144-0.618,0.237-0.924l0.119-0.393l-0.191-0.363L4.336,13h4.506h0.446l0.298-0.332 c0.339-0.378,0.703-0.742,1.081-1.081L11,11.288v-0.446V6.344l4.134,2.197L15.5,8.736l0.396-0.121 c0.304-0.093,0.626-0.169,0.957-0.245l0.404-0.093l0.22-0.352L20,3.887 M20,2l-3.372,5.394c-0.345,0.079-0.69,0.161-1.025,0.264 L10,4.68v6.163C9.593,11.207,9.207,11.593,8.842,12H2.679l2.97,5.638c-0.099,0.325-0.178,0.657-0.255,0.991L0,22l5.394,3.371 c0.077,0.333,0.156,0.666,0.255,0.991L2.679,32h6.163c0.365,0.407,0.751,0.793,1.158,1.158v6.163l5.603-2.979 c0.336,0.103,0.68,0.184,1.026,0.264L20,42l3.371-5.394c0.345-0.079,0.69-0.161,1.026-0.264L30,39.32l0.223-6.365 c0.253-0.236,0.497-0.48,0.732-0.732L37.32,32l-2.979-5.603c0.103-0.336,0.184-0.68,0.264-1.025L40,22l-5.394-3.371 c-0.079-0.345-0.161-0.69-0.264-1.025L37.32,12h-6.163c-0.365-0.407-0.751-0.793-1.158-1.158V4.68l-5.603,2.979 c-0.336-0.103-0.68-0.184-1.025-0.264L20,2L20,2z"/><path fill="#f5ce85" d="M20 12A10 10 0 1 0 20 32A10 10 0 1 0 20 12Z"/><path fill="#b0c1d4" d="M16,61.5C9.659,61.5,4.5,56.341,4.5,50c0-4.871,3.094-9.229,7.7-10.844l0.352-0.124l-0.033-0.615 C12.51,38.279,12.5,38.141,12.5,38c0-7.444,6.056-13.5,13.5-13.5l0.446,0.005l0.187-0.436C27.597,16.333,34.203,10.5,42,10.5 c5.538,0,10.692,2.997,13.452,7.822l0.161,0.281l0.322-0.032c0.478-0.047,0.948-0.071,1.398-0.071 c7.812,0,14.167,6.355,14.167,14.167c0,0.298-0.021,0.591-0.042,0.884l-0.032,0.453l0.29,0.152C76.517,36.671,79.5,41.593,79.5,47 c0,7.601-5.944,13.949-13.533,14.451L65.5,61.482V61.5H16z"/><path fill="#788b9c" d="M42,11c5.359,0,10.347,2.901,13.018,7.57l0.321,0.562l0.644-0.063 C56.447,19.023,56.901,19,57.333,19C64.869,19,71,25.131,71,32.667c0,0.287-0.021,0.57-0.042,0.852l-0.009,0.124l-0.046,0.653 l0.58,0.304C76.12,37.028,79,41.78,79,47c0,7.339-5.739,13.467-13.066,13.952L65.204,61H16C9.935,61,5,56.065,5,50 c0-4.659,2.96-8.827,7.365-10.372l0.704-0.247l-0.036-0.745l-0.016-0.254C13.009,38.255,13,38.129,13,38 c0-7.168,5.831-12.999,12.996-12.999c0,0,0.001,0,0.001,0c0.043,0.003,0.087,0.006,0.131,0.006l0.891,0.008l0.11-0.885 C28.062,16.645,34.455,11,42,11 M42,10c-8.16,0-14.88,6.113-15.863,14.007C26.091,24.006,26.046,24,26,24c-7.732,0-14,6.268-14,14 c0,0.231,0.023,0.456,0.035,0.685C7.359,40.324,4,44.764,4,50c0,6.627,5.373,12,12,12h50v-0.05c7.816-0.517,14-7.003,14-14.95 c0-5.776-3.269-10.781-8.053-13.287C71.972,33.366,72,33.02,72,32.667C72,24.566,65.434,18,57.333,18 c-0.488,0-0.971,0.026-1.447,0.073C53.129,13.254,47.949,10,42,10L42,10z"/><g><path fill="#ffeea3" d="M34.809 77.5L42.809 61.5 32.75 61.5 42.333 38.5 57.145 38.5 48.145 54.5 56.863 54.5 35.78 77.5z"/><path fill="#c29653" d="M56.29,39l-8.162,14.51L47.29,55H49h6.727L35.688,76.861l7.207-14.414L43.618,61H42h-8.5l9.167-22 H56.29 M58,38H42L32,62h10l-8,16h2l22-24h-9L58,38L58,38z"/></g><g><path fill="#e1ebf2" d="M12.696,40.572l0.704-0.247l0.704-0.247l-0.036-0.745l-0.037-0.758l-0.018-0.289 C14.007,38.191,14,38.096,14,38c0-3.2,1.25-6.211,3.518-8.481c2.261-2.261,5.258-3.51,8.446-3.519 c0.051,0.003,0.102,0.006,0.155,0.006l0.891,0.008l0.891,0.008l0.11-0.885l0.11-0.884C28.992,17.268,34.958,12,42,12v-1 c-7.545,0-13.938,5.645-14.871,13.13l-0.11,0.885l-0.891-0.008c-0.044,0-0.087-0.003-0.13-0.006c0,0-0.001,0-0.001,0 C18.831,25.001,13,30.832,13,38c0,0.129,0.009,0.255,0.018,0.382l0.016,0.254l0.036,0.745l-0.704,0.247C7.96,41.173,5,45.341,5,50 h1C6,45.765,8.691,41.976,12.696,40.572z"/></g></svg>