<?xml version="1.0" encoding="UTF-8" standalone="no"?>
<svg
   xmlns:dc="http://purl.org/dc/elements/1.1/"
   xmlns:cc="http://creativecommons.org/ns#"
   xmlns:rdf="http://www.w3.org/1999/02/22-rdf-syntax-ns#"
   xmlns:svg="http://www.w3.org/2000/svg"
   xmlns="http://www.w3.org/2000/svg"
   id="svg1756"
   version="1.1"
   viewBox="0 0 48 48"
   height="62.645332mm"
   width="55.811539mm">
  <defs
     id="defs1750" />
  <metadata
     id="metadata1753">
    <rdf:RDF>
      <cc:Work
         rdf:about="">
        <dc:format>image/svg+xml</dc:format>
        <dc:type
           rdf:resource="http://purl.org/dc/dcmitype/StillImage" />
        <dc:title></dc:title>
      </cc:Work>
    </rdf:RDF>
  </metadata>
  <g
     transform="translate(-144.20412,-90.121373)"
     id="layer1">
    <g
       transform="matrix(7.3051655,0,0,7.3051655,-1128.4978,-1582.0389)"
       id="g1644">
      <path
         id="path1698"
         d="m 178.21897,237.17349 c -0.11384,-0.1842 -1.0558,-0.33491 -2.09325,-0.33491 h -1.88626 v -3.96875 -3.96875 h 3.34297 3.34296 l -0.0886,4.20687 -0.0886,4.20688 -1.16113,0.0968 c -0.63862,0.0532 -1.25427,-0.0539 -1.36811,-0.23812 z m -1.60254,-2.53208 0.55274,-1.08593 -0.92736,0.76802 c -0.66883,0.5539 -0.83379,0.86983 -0.59173,1.13327 0.1846,0.2009 0.35318,0.34396 0.37463,0.31791 0.0214,-0.026 0.28772,-0.53602 0.59172,-1.13327 z m 3.25204,0.10035 c -0.1055,-0.10551 -0.37935,-0.11679 -0.60854,-0.0251 -0.25328,0.10135 -0.17805,0.17659 0.19182,0.19182 0.3347,0.0138 0.52222,-0.0613 0.41672,-0.16675 z m -1.41301,-0.41647 c 1.05178,-0.39989 1.70365,-2.02375 1.22985,-3.06364 -0.69081,-1.51616 -3.06282,-1.72164 -4.02451,-0.34865 -0.84264,1.20305 -0.43391,2.96092 0.59652,2.56551 0.4084,-0.15672 0.45342,-0.30892 0.18651,-0.63052 -0.47979,-0.57811 -0.0992,-1.61966 0.6648,-1.81946 0.85973,-0.22482 2.06115,0.78727 1.78592,1.50449 -0.11731,0.30572 -0.49832,0.63038 -0.84669,0.72148 -0.35003,0.0915 -0.6334,0.43316 -0.6334,0.76361 0,0.68921 0.0204,0.69522 1.041,0.30718 z m 2.769,-0.0267 c 0,-0.17463 0.14288,-0.3175 0.3175,-0.3175 0.17463,0 0.3175,0.14287 0.3175,0.3175 0,0.17462 -0.14287,0.3175 -0.3175,0.3175 -0.17462,0 -0.3175,-0.14288 -0.3175,-0.3175 z"
         style="fill:#fcfcfc;stroke-width:0.3175" />
      <path
         id="path1696"
         d="m 178.21897,237.17349 c -0.11384,-0.1842 -1.0558,-0.33491 -2.09325,-0.33491 h -1.88626 v -3.96875 -3.96875 h 3.34297 3.34296 l -0.0886,4.20687 -0.0886,4.20688 -1.16113,0.0968 c -0.63862,0.0532 -1.25427,-0.0539 -1.36811,-0.23812 z m -1.60254,-2.53208 0.55274,-1.08593 -0.92736,0.76802 c -0.66883,0.5539 -0.83379,0.86983 -0.59173,1.13327 0.1846,0.2009 0.35318,0.34396 0.37463,0.31791 0.0214,-0.026 0.28772,-0.53602 0.59172,-1.13327 z m 3.25204,0.10035 c -0.1055,-0.10551 -0.37935,-0.11679 -0.60854,-0.0251 -0.25328,0.10135 -0.17805,0.17659 0.19182,0.19182 0.3347,0.0138 0.52222,-0.0613 0.41672,-0.16675 z m -1.41301,-0.41647 c 1.05178,-0.39989 1.70365,-2.02375 1.22985,-3.06364 -0.69081,-1.51616 -3.06282,-1.72164 -4.02451,-0.34865 -0.84264,1.20305 -0.43391,2.96092 0.59652,2.56551 0.4084,-0.15672 0.45342,-0.30892 0.18651,-0.63052 -0.47979,-0.57811 -0.0992,-1.61966 0.6648,-1.81946 0.85973,-0.22482 2.06115,0.78727 1.78592,1.50449 -0.11731,0.30572 -0.49832,0.63038 -0.84669,0.72148 -0.35003,0.0915 -0.6334,0.43316 -0.6334,0.76361 0,0.68921 0.0204,0.69522 1.041,0.30718 z"
         style="fill:#f6f6f6;stroke-width:0.3175" />
      <path
         id="path1694"
         d="m 178.21897,237.17349 c -0.11384,-0.1842 -1.0558,-0.33491 -2.09325,-0.33491 h -1.88626 v -3.96875 -3.96875 h 3.34147 3.34147 l -0.0871,4.20687 -0.0871,4.20688 -1.16113,0.0968 c -0.63862,0.0532 -1.25427,-0.0539 -1.36811,-0.23812 z m -2.71269,-1.92241 c 0.14727,0 0.32808,0.17859 0.40179,0.39687 0.0737,0.21829 0.38191,-0.0807 0.68487,-0.6645 0.30296,-0.58376 0.46738,-1.14484 0.36537,-1.24685 -0.29184,-0.29184 -2.08805,1.57675 -2.04702,2.12951 0.0288,0.38753 0.0686,0.37452 0.18203,-0.0594 0.0799,-0.30559 0.26569,-0.55562 0.41296,-0.55562 z m 4.36219,-0.50932 c -0.1055,-0.10551 -0.37935,-0.11679 -0.60854,-0.0251 -0.25328,0.10135 -0.17805,0.17659 0.19182,0.19182 0.3347,0.0138 0.52222,-0.0613 0.41672,-0.16675 z m -1.30209,-0.31567 c 0.72104,-0.1935 1.38808,-1.33691 1.38808,-2.37938 0,-0.89824 -1.40596,-2.19313 -2.38125,-2.19313 -1.02068,0 -2.3829,1.31124 -2.37639,2.28744 0.007,1.04019 0.43346,1.57811 1.0605,1.33749 0.41565,-0.15951 0.45604,-0.30576 0.17722,-0.64172 -0.45763,-0.55141 -0.1939,-1.25492 0.63721,-1.69972 0.92771,-0.4965 2.10273,0.65841 1.60882,1.58129 -0.18478,0.34524 -0.54524,0.62772 -0.80103,0.62772 -0.25579,0 -0.46508,0.28575 -0.46508,0.635 0,0.68187 0.11038,0.72451 1.15192,0.44501 z"
         style="fill:#eeeeee;stroke-width:0.3175" />
      <path
         id="path1692"
         d="m 178.21897,237.17349 c -0.11384,-0.1842 -1.0558,-0.33491 -2.09325,-0.33491 h -1.88626 v -3.96875 -3.96875 h 3.34147 3.34147 l -0.0871,4.20687 -0.0871,4.20688 -1.16113,0.0968 c -0.63862,0.0532 -1.25427,-0.0539 -1.36811,-0.23812 z m -2.68623,-1.92241 c 0.16182,0 0.30053,0.25003 0.30825,0.55562 0.008,0.32584 0.28034,0.0508 0.65796,-0.66496 0.35416,-0.67132 0.56066,-1.30384 0.4589,-1.4056 -0.29151,-0.29151 -2.08755,1.57772 -2.04656,2.12997 0.0288,0.38753 0.0686,0.37452 0.18203,-0.0594 0.0799,-0.30559 0.2776,-0.55562 0.43942,-0.55562 z m 4.33573,-0.50932 c -0.1055,-0.10551 -0.37935,-0.11679 -0.60854,-0.0251 -0.25328,0.10135 -0.17805,0.17659 0.19182,0.19182 0.3347,0.0138 0.52222,-0.0613 0.41672,-0.16675 z m -1.30209,-0.31567 c 0.72104,-0.1935 1.38808,-1.33691 1.38808,-2.37938 0,-0.87534 -1.39643,-2.19313 -2.324,-2.19313 -1.72142,0 -3.03131,2.06665 -2.17013,3.42388 0.39232,0.6183 1.37126,0.12942 1.03872,-0.51874 -0.34688,-0.67611 -0.13372,-1.24358 0.6183,-1.64605 0.88335,-0.47275 2.03982,0.71515 1.56322,1.60569 -0.18478,0.34524 -0.54524,0.62772 -0.80103,0.62772 -0.25579,0 -0.46508,0.28575 -0.46508,0.635 0,0.68187 0.11038,0.72451 1.15192,0.44501 z"
         style="fill:#e6e6e6;stroke-width:0.3175" />
      <path
         id="path1690"
         d="m 178.19541,237.0767 c -0.10478,-0.27425 -0.74242,-0.36348 -2.06379,-0.28879 l -1.91217,0.10808 0.0894,-3.91808 0.0894,-3.91808 h 3.175 3.175 l 0.0918,2.5929 c 0.0903,2.55202 0.0803,2.59067 -0.635,2.45167 l -0.72679,-0.14123 0.71438,0.31622 c 0.72157,0.31941 0.95998,1.54972 0.52165,2.69197 -0.23376,0.60917 -2.29344,0.69531 -2.51883,0.10534 z m -1.6199,-2.02368 c 0.30177,-0.63281 0.46962,-1.22961 0.373,-1.32623 -0.25079,-0.25078 -2.07405,1.56008 -2.07405,2.05994 0,0.89234 1.16534,0.3897 1.70105,-0.73371 z m -1.38355,0.51556 c 0,-0.17463 0.14288,-0.3175 0.3175,-0.3175 0.17463,0 0.3175,0.14287 0.3175,0.3175 0,0.17462 -0.14287,0.3175 -0.3175,0.3175 -0.17462,0 -0.3175,-0.14288 -0.3175,-0.3175 z m 4.42997,-2.15806 c 0.52257,-1.14612 0.39565,-1.93519 -0.44679,-2.77762 -1.94101,-1.94101 -4.94222,0.32794 -3.64354,2.75455 0.26872,0.5021 0.43308,0.55708 0.78708,0.26329 0.29154,-0.24196 0.35409,-0.55331 0.17951,-0.89362 -0.34605,-0.6746 -0.13231,-1.24228 0.61916,-1.64445 0.88335,-0.47275 2.03982,0.71515 1.56322,1.60569 -0.18478,0.34524 -0.54524,0.62772 -0.80103,0.62772 -0.44446,0 -0.65584,0.97341 -0.29067,1.33857 0.323,0.32301 1.69765,-0.53849 2.03306,-1.27413 z m 0.0944,1.31279 c -0.21829,-0.0881 -0.57547,-0.0881 -0.79375,0 -0.21829,0.0881 -0.0397,0.16014 0.39687,0.16014 0.43656,0 0.61516,-0.0721 0.39688,-0.16014 z"
         style="fill:#dfdfdf;stroke-width:0.3175" />
      <path
         id="path1688"
         d="m 178.19541,237.0767 c -0.10478,-0.27425 -0.74242,-0.36348 -2.06379,-0.28879 l -1.91217,0.10808 0.0894,-3.91808 0.0894,-3.91808 h 3.175 3.175 l 0.0915,2.57767 0.0915,2.57767 -0.79808,-0.15256 c -0.65936,-0.12604 -0.74425,-0.25313 -0.48841,-0.73117 0.51287,-0.95831 0.35321,-1.87567 -0.46966,-2.69854 -1.94101,-1.94101 -4.94222,0.32794 -3.64354,2.75455 0.26872,0.5021 0.43308,0.55708 0.78708,0.26329 0.29154,-0.24196 0.35409,-0.55331 0.17951,-0.89362 -0.34605,-0.6746 -0.13231,-1.24228 0.61916,-1.64445 0.88335,-0.47275 2.03982,0.71515 1.56322,1.60569 -0.18478,0.34524 -0.54524,0.62772 -0.80103,0.62772 -0.25579,0 -0.46508,0.26194 -0.46508,0.58208 0,0.79578 0.33674,1.0672 0.82317,0.6635 0.22294,-0.18502 0.87903,-0.29094 1.45796,-0.23537 1.13562,0.10901 1.45873,0.8185 1.07289,2.35583 -0.15632,0.62281 -0.39418,0.76146 -1.30628,0.76146 -0.61334,0 -1.1834,-0.17859 -1.26679,-0.39688 z m -1.6199,-2.02368 c 0.30177,-0.63281 0.46962,-1.22961 0.373,-1.32623 -0.25079,-0.25078 -2.07405,1.56008 -2.07405,2.05994 0,0.89234 1.16534,0.3897 1.70105,-0.73371 z m -1.38355,0.51556 c 0,-0.17463 0.14288,-0.3175 0.3175,-0.3175 0.17463,0 0.3175,0.14287 0.3175,0.3175 0,0.17462 -0.14287,0.3175 -0.3175,0.3175 -0.17462,0 -0.3175,-0.14288 -0.3175,-0.3175 z m 4.52438,-0.84527 c -0.21829,-0.0881 -0.57547,-0.0881 -0.79375,0 -0.21829,0.0881 -0.0397,0.16014 0.39687,0.16014 0.43656,0 0.61516,-0.0721 0.39688,-0.16014 z"
         style="fill:#dedede;stroke-width:0.3175" />
      <path
         id="path1686"
         d="m 178.17587,237.02755 c -0.0941,-0.24531 -0.12537,-0.9228 -0.0694,-1.50552 0.0741,-0.7713 0.27448,-1.08644 0.73675,-1.15854 0.52396,-0.0817 0.55172,-0.0414 0.15875,0.23066 -0.39068,0.27047 -0.34453,0.33058 0.25686,0.33457 0.40881,0.003 0.64631,-0.13559 0.53689,-0.31264 -0.10792,-0.17463 0.0265,-0.3175 0.29876,-0.3175 0.38232,0 0.49499,0.36135 0.49499,1.5875 v 1.5875 h -1.12121 c -0.66998,0 -1.1901,-0.1795 -1.29238,-0.44603 z m -3.86681,-4.07835 0.0892,-3.88937 h 3.175 3.175 l 0.0927,2.46062 c 0.0926,2.45666 0.0914,2.46063 -0.72555,2.46063 -0.71062,0 -0.77503,-0.0808 -0.4896,-0.61413 0.53153,-0.99318 0.3818,-1.9016 -0.45065,-2.73405 -0.9524,-0.9524 -2.03687,-0.9942 -3.14661,-0.12128 -0.94363,0.74226 -1.16045,2.48791 -0.38859,3.1285 0.57458,0.47686 0.93147,-0.0401 0.9602,-1.39075 0.0183,-0.85825 0.12772,-0.96704 0.97307,-0.96704 0.80925,0 0.96795,0.13486 1.05524,0.89674 0.0788,0.68798 -0.0502,0.93672 -0.55409,1.0685 -0.59503,0.15561 -0.63793,0.33263 -0.4559,1.88139 l 0.20093,1.70962 h -1.79974 -1.79973 z m 2.26645,2.10382 c 0.30177,-0.63281 0.46962,-1.22961 0.373,-1.32623 -0.25079,-0.25078 -2.07405,1.56008 -2.07405,2.05994 0,0.89234 1.16534,0.3897 1.70105,-0.73371 z m -1.38355,0.51556 c 0,-0.17463 0.14288,-0.3175 0.3175,-0.3175 0.17463,0 0.3175,0.14287 0.3175,0.3175 0,0.17462 -0.14287,0.3175 -0.3175,0.3175 -0.17462,0 -0.3175,-0.14288 -0.3175,-0.3175 z"
         style="fill:#d6d6d6;stroke-width:0.3175" />
      <path
         id="path1684"
         d="m 178.18366,237.04783 c -0.0984,-0.25646 -0.13316,-0.94308 -0.0772,-1.5258 0.0741,-0.7713 0.27448,-1.08644 0.73675,-1.15854 0.52396,-0.0817 0.55172,-0.0414 0.15875,0.23066 -0.37629,0.26051 -0.27634,0.32971 0.47625,0.32971 0.7308,0 0.84165,-0.0716 0.47625,-0.30778 -0.40402,-0.2611 -0.38934,-0.30851 0.0968,-0.31264 0.48605,-0.004 0.55833,0.22404 0.47625,1.50326 -0.0928,1.44677 -0.13884,1.51218 -1.13083,1.60778 -0.68727,0.0662 -1.09406,-0.0567 -1.21299,-0.36665 z m -3.80675,-0.62653 c -0.0881,-0.2295 -0.11931,-1.97972 -0.0694,-3.88937 l 0.0907,-3.4721 h 3.175 3.175 l 0.0927,2.46062 0.0927,2.46063 h -0.8706 c -0.67714,0 -0.78594,-0.0847 -0.48961,-0.381 0.70148,-0.70148 0.45504,-2.37217 -0.45557,-3.08846 -1.06139,-0.83488 -2.02797,-0.83488 -3.08936,0 -0.94363,0.74226 -1.16045,2.48791 -0.38859,3.1285 0.57458,0.47686 0.93147,-0.0401 0.9602,-1.39075 0.0183,-0.85825 0.12772,-0.96704 0.97307,-0.96704 0.80925,0 0.96795,0.13486 1.05524,0.89674 0.0776,0.67699 -0.0514,0.93705 -0.52627,1.06123 -0.62633,0.16379 -1.20599,1.37578 -0.658,1.37578 0.15828,0 0.28778,0.50006 0.28778,1.11125 v 1.11125 h -1.59746 c -1.02675,0 -1.65468,-0.14908 -1.75759,-0.41728 z m 2.1986,-1.36828 c 0.30177,-0.63281 0.46962,-1.22961 0.373,-1.32623 -0.25079,-0.25078 -2.07405,1.56008 -2.07405,2.05994 0,0.89234 1.16534,0.3897 1.70105,-0.73371 z m -1.38355,0.51556 c 0,-0.17463 0.14288,-0.3175 0.3175,-0.3175 0.17463,0 0.3175,0.14287 0.3175,0.3175 0,0.17462 -0.14287,0.3175 -0.3175,0.3175 -0.17462,0 -0.3175,-0.14288 -0.3175,-0.3175 z"
         style="fill:#cecece;stroke-width:0.3175" />
      <path
         id="path1682"
         d="m 178.3975,237.03412 c -0.50198,-0.60484 -0.32504,-2.48326 0.25178,-2.6729 0.26737,-0.0879 0.35377,-0.004 0.21939,0.21367 -0.1432,0.2317 0.0726,0.35869 0.60954,0.35869 0.4733,0 0.74673,-0.13672 0.635,-0.3175 -0.10792,-0.17463 -0.0371,-0.3175 0.15741,-0.3175 0.22379,0 0.3181,0.55372 0.25686,1.50812 -0.087,1.35588 -0.17965,1.51776 -0.9177,1.60356 -0.45151,0.0525 -0.99704,-0.11678 -1.21228,-0.37614 z m -4.02059,-0.61282 c -0.0881,-0.2295 -0.11931,-1.97972 -0.0694,-3.88937 l 0.0907,-3.4721 h 3.175 3.175 l 0.0927,2.46062 c 0.0847,2.24666 0.0397,2.46063 -0.51662,2.46063 -0.53105,0 -0.5894,-0.17705 -0.45407,-1.37775 0.13719,-1.21709 0.0536,-1.45774 -0.71681,-2.06375 -1.74154,-1.36989 -3.96148,-0.43475 -3.96148,1.66874 0,1.18531 0.72579,2.07895 1.14179,1.40585 0.1352,-0.21877 0.25508,-0.83292 0.26639,-1.3648 0.0183,-0.85825 0.12772,-0.96704 0.97307,-0.96704 0.84344,0 0.9525,0.10742 0.9525,0.93819 0,0.66883 -0.18231,0.98787 -0.635,1.11125 -0.61922,0.16876 -1.00225,1.28431 -0.44097,1.28431 0.15522,0 0.28222,0.50006 0.28222,1.11125 v 1.11125 h -1.59746 c -1.02675,0 -1.65468,-0.14908 -1.75759,-0.41728 z m 2.1986,-1.36828 c 0.30177,-0.63281 0.46962,-1.22961 0.373,-1.32623 -0.25079,-0.25078 -2.07405,1.56008 -2.07405,2.05994 0,0.89234 1.16534,0.3897 1.70105,-0.73371 z m -1.38355,0.51556 c 0,-0.17463 0.14288,-0.3175 0.3175,-0.3175 0.17463,0 0.3175,0.14287 0.3175,0.3175 0,0.17462 -0.14287,0.3175 -0.3175,0.3175 -0.17462,0 -0.3175,-0.14288 -0.3175,-0.3175 z m 2.2225,-3.81 c 0,-0.17463 -0.063,-0.3175 -0.14001,-0.3175 -0.077,0 -0.22832,0.14287 -0.33624,0.3175 -0.10792,0.17462 -0.0449,0.3175 0.14001,0.3175 0.18493,0 0.33624,-0.14288 0.33624,-0.3175 z m 0.9525,0.17749 c 0,-0.077 -0.14287,-0.22832 -0.3175,-0.33624 -0.17462,-0.10792 -0.3175,-0.0449 -0.3175,0.14001 0,0.18493 0.14288,0.33624 0.3175,0.33624 0.17463,0 0.3175,-0.063 0.3175,-0.14001 z"
         style="fill:#c7c7c7;stroke-width:0.3175" />
      <path
         id="path1680"
         d="m 178.3975,237.03412 c -0.50198,-0.60484 -0.32504,-2.48326 0.25178,-2.6729 0.26737,-0.0879 0.35377,-0.004 0.21939,0.21367 -0.1432,0.2317 0.0726,0.35869 0.60954,0.35869 0.4733,0 0.74673,-0.13672 0.635,-0.3175 -0.10792,-0.17463 -0.0371,-0.3175 0.15741,-0.3175 0.22379,0 0.3181,0.55372 0.25686,1.50812 -0.087,1.35588 -0.17965,1.51776 -0.9177,1.60356 -0.45151,0.0525 -0.99704,-0.11678 -1.21228,-0.37614 z m -4.02059,-0.61282 c -0.0881,-0.2295 -0.11931,-1.97972 -0.0694,-3.88937 l 0.0907,-3.4721 h 3.175 3.175 l 0.0927,2.46062 c 0.0847,2.24666 0.0397,2.46063 -0.51662,2.46063 -0.53105,0 -0.5894,-0.17705 -0.45407,-1.37775 0.13719,-1.21709 0.0536,-1.45774 -0.71681,-2.06375 -1.74154,-1.36989 -3.96148,-0.43475 -3.96148,1.66874 0,1.18531 0.72579,2.07895 1.14179,1.40585 0.1352,-0.21877 0.25508,-0.83292 0.26639,-1.3648 0.0183,-0.85825 0.12772,-0.96704 0.97307,-0.96704 0.84344,0 0.9525,0.10742 0.9525,0.93819 0,0.66883 -0.18231,0.98787 -0.635,1.11125 -0.61922,0.16876 -1.00225,1.28431 -0.44097,1.28431 0.15522,0 0.28222,0.50006 0.28222,1.11125 v 1.11125 h -1.59746 c -1.02675,0 -1.65468,-0.14908 -1.75759,-0.41728 z m 2.20526,-1.38224 c 0.2981,-0.62513 0.45987,-1.21874 0.35947,-1.31913 -0.34626,-0.34626 -2.16414,1.77301 -1.96532,2.29115 0.28479,0.74213 0.99279,0.31357 1.60585,-0.97202 z m -1.39021,0.52952 c 0,-0.17463 0.14288,-0.3175 0.3175,-0.3175 0.17463,0 0.3175,0.14287 0.3175,0.3175 0,0.17462 -0.14287,0.3175 -0.3175,0.3175 -0.17462,0 -0.3175,-0.14288 -0.3175,-0.3175 z m 2.2225,-3.81 c 0,-0.17463 -0.063,-0.3175 -0.14001,-0.3175 -0.077,0 -0.22832,0.14287 -0.33624,0.3175 -0.10792,0.17462 -0.0449,0.3175 0.14001,0.3175 0.18493,0 0.33624,-0.14288 0.33624,-0.3175 z m 0.9525,0.17749 c 0,-0.077 -0.14287,-0.22832 -0.3175,-0.33624 -0.17462,-0.10792 -0.3175,-0.0449 -0.3175,0.14001 0,0.18493 0.14288,0.33624 0.3175,0.33624 0.17463,0 0.3175,-0.063 0.3175,-0.14001 z"
         style="fill:#c6c6c6;stroke-width:0.3175" />
      <path
         id="path1678"
         d="m 178.3975,237.03412 c -0.50198,-0.60484 -0.32504,-2.48326 0.25178,-2.6729 0.26737,-0.0879 0.35377,-0.004 0.21939,0.21367 -0.1432,0.2317 0.0726,0.35869 0.60954,0.35869 0.4733,0 0.74673,-0.13672 0.635,-0.3175 -0.10792,-0.17463 -0.0371,-0.3175 0.15741,-0.3175 0.22379,0 0.3181,0.55372 0.25686,1.50812 -0.087,1.35588 -0.17965,1.51776 -0.9177,1.60356 -0.45151,0.0525 -0.99704,-0.11678 -1.21228,-0.37614 z m -4.02059,-0.61282 c -0.0881,-0.2295 -0.11931,-1.97972 -0.0694,-3.88937 l 0.0907,-3.4721 h 3.175 3.175 l 0.0927,2.46062 c 0.0851,2.25835 0.0419,2.46063 -0.52541,2.46063 -0.53891,0 -0.59609,-0.16442 -0.44611,-1.28261 0.14049,-1.04746 0.0375,-1.42583 -0.56181,-2.06375 -0.92222,-0.98166 -2.57571,-1.05108 -3.48065,-0.14614 -0.74429,0.74429 -0.85428,2.59776 -0.18702,3.15154 0.57458,0.47686 0.93147,-0.0401 0.9602,-1.39075 0.0183,-0.85825 0.12772,-0.96704 0.97307,-0.96704 0.84344,0 0.9525,0.10742 0.9525,0.93819 0,0.66883 -0.18231,0.98787 -0.635,1.11125 -0.61922,0.16876 -1.00225,1.28431 -0.44097,1.28431 0.15522,0 0.28222,0.50006 0.28222,1.11125 v 1.11125 h -1.59746 c -1.02675,0 -1.65468,-0.14908 -1.75759,-0.41728 z m 2.20526,-1.38224 c 0.2981,-0.62513 0.45987,-1.21874 0.35947,-1.31913 -0.34626,-0.34626 -2.16414,1.77301 -1.96532,2.29115 0.28479,0.74213 0.99279,0.31357 1.60585,-0.97202 z m 0.83229,-2.32798 c 0,-0.17463 -0.14287,-0.3175 -0.3175,-0.3175 -0.17462,0 -0.3175,0.14287 -0.3175,0.3175 0,0.17462 0.14288,0.3175 0.3175,0.3175 0.17463,0 0.3175,-0.14288 0.3175,-0.3175 z m 0.9525,0 c 0,-0.17463 -0.14287,-0.3175 -0.3175,-0.3175 -0.17462,0 -0.3175,0.14287 -0.3175,0.3175 0,0.17462 0.14288,0.3175 0.3175,0.3175 0.17463,0 0.3175,-0.14288 0.3175,-0.3175 z m -0.9525,-0.9525 c 0,-0.17463 -0.14287,-0.3175 -0.3175,-0.3175 -0.17462,0 -0.3175,0.14287 -0.3175,0.3175 0,0.17462 0.14288,0.3175 0.3175,0.3175 0.17463,0 0.3175,-0.14288 0.3175,-0.3175 z m 0.9525,0 c 0,-0.17463 -0.14287,-0.3175 -0.3175,-0.3175 -0.17462,0 -0.3175,0.14287 -0.3175,0.3175 0,0.17462 0.14288,0.3175 0.3175,0.3175 0.17463,0 0.3175,-0.14288 0.3175,-0.3175 z"
         style="fill:#bfbfbf;stroke-width:0.3175" />
      <path
         id="path1676"
         d="m 178.3975,237.03412 c -0.50198,-0.60484 -0.32504,-2.48326 0.25178,-2.6729 0.26737,-0.0879 0.35377,-0.004 0.21939,0.21367 -0.1432,0.2317 0.0726,0.35869 0.60954,0.35869 0.4733,0 0.74673,-0.13672 0.635,-0.3175 -0.10792,-0.17463 -0.0371,-0.3175 0.15741,-0.3175 0.22379,0 0.3181,0.55372 0.25686,1.50812 -0.087,1.35588 -0.17965,1.51776 -0.9177,1.60356 -0.45151,0.0525 -0.99704,-0.11678 -1.21228,-0.37614 z m -4.02059,-0.61282 c -0.0881,-0.2295 -0.11931,-1.97972 -0.0694,-3.88937 l 0.0907,-3.4721 h 3.175 3.175 l 0.0927,2.46062 c 0.0851,2.25835 0.0419,2.46063 -0.52541,2.46063 -0.53891,0 -0.59609,-0.16442 -0.44611,-1.28261 0.14049,-1.04746 0.0375,-1.42583 -0.56181,-2.06375 -0.92222,-0.98166 -2.57571,-1.05108 -3.48065,-0.14614 -0.74429,0.74429 -0.85428,2.59776 -0.18702,3.15154 0.57458,0.47686 0.93147,-0.0401 0.9602,-1.39075 0.0183,-0.85825 0.12772,-0.96704 0.97307,-0.96704 0.84344,0 0.9525,0.10742 0.9525,0.93819 0,0.66883 -0.18231,0.98787 -0.635,1.11125 -0.61922,0.16876 -1.00225,1.28431 -0.44097,1.28431 0.15522,0 0.28222,0.50006 0.28222,1.11125 v 1.11125 h -1.59746 c -1.02675,0 -1.65468,-0.14908 -1.75759,-0.41728 z m 2.10075,-1.20099 c 0.36498,-0.71542 0.57761,-1.38675 0.47252,-1.49184 -0.35519,-0.35519 -2.17554,1.75703 -1.9718,2.28796 0.3195,0.8326 0.79799,0.57852 1.49928,-0.79612 z m 0.9368,-2.50923 c 0,-0.17463 -0.14287,-0.3175 -0.3175,-0.3175 -0.17462,0 -0.3175,0.14287 -0.3175,0.3175 0,0.17462 0.14288,0.3175 0.3175,0.3175 0.17463,0 0.3175,-0.14288 0.3175,-0.3175 z m 0.9525,0 c 0,-0.17463 -0.14287,-0.3175 -0.3175,-0.3175 -0.17462,0 -0.3175,0.14287 -0.3175,0.3175 0,0.17462 0.14288,0.3175 0.3175,0.3175 0.17463,0 0.3175,-0.14288 0.3175,-0.3175 z m -0.9525,-0.9525 c 0,-0.17463 -0.14287,-0.3175 -0.3175,-0.3175 -0.17462,0 -0.3175,0.14287 -0.3175,0.3175 0,0.17462 0.14288,0.3175 0.3175,0.3175 0.17463,0 0.3175,-0.14288 0.3175,-0.3175 z m 0.9525,0 c 0,-0.17463 -0.14287,-0.3175 -0.3175,-0.3175 -0.17462,0 -0.3175,0.14287 -0.3175,0.3175 0,0.17462 0.14288,0.3175 0.3175,0.3175 0.17463,0 0.3175,-0.14288 0.3175,-0.3175 z"
         style="fill:#bebebe;stroke-width:0.3175" />
      <path
         id="path1674"
         d="m 178.5932,237.27649 c -0.12443,-0.12443 -0.21496,-0.88109 -0.20117,-1.68145 0.0138,-0.80037 0.0971,-1.27662 0.1852,-1.05834 0.0881,0.21829 0.51386,0.39688 0.94618,0.39688 0.44317,0 0.70043,-0.13849 0.5898,-0.3175 -0.10792,-0.17463 -0.0371,-0.3175 0.15741,-0.3175 0.22379,0 0.3181,0.55372 0.25686,1.50812 -0.0865,1.34787 -0.18238,1.51811 -0.9024,1.60208 -0.4431,0.0517 -0.90744,-0.008 -1.03188,-0.13229 z m -4.01658,-4.40666 0.0481,-3.96875 h 2.93768 2.93768 l 0.0612,2.54 c 0.0492,2.0407 -0.0297,2.54 -0.40134,2.54 -0.35713,0 -0.42335,-0.29233 -0.29052,-1.28261 0.22253,-1.65908 -0.75765,-2.84489 -2.35155,-2.84489 -1.60961,0 -2.57228,1.17892 -2.33336,2.8575 0.15455,1.08581 0.6767,1.28885 1.60837,0.62544 0.55246,-0.39338 0.97089,-0.51333 1.09428,-0.31369 0.10988,0.17779 -0.0185,0.32325 -0.28525,0.32325 -0.31835,0 -0.4236,0.19093 -0.30628,0.55562 0.15039,0.46754 0.12513,0.48012 -0.15938,0.0794 -0.28717,-0.4045 -0.48976,-0.32508 -1.34481,0.52722 -0.63807,0.63602 -0.9358,1.18827 -0.81306,1.50813 0.29563,0.7704 0.82079,0.60539 1.41897,-0.44584 0.7364,-1.29413 1.33461,-1.22388 1.33461,0.15674 v 1.11125 h -1.60171 -1.60172 z m 2.0034,-0.635 c 0.0473,-0.8314 0.17359,-0.9525 0.99319,-0.9525 0.8196,0 0.94588,0.1211 0.99319,0.9525 0.0298,0.52387 -0.0148,0.77391 -0.0991,0.55562 -0.0843,-0.21828 -0.48666,-0.39687 -0.89412,-0.39687 -0.40746,0 -0.80981,0.17859 -0.89412,0.39687 -0.0843,0.21829 -0.12889,-0.0317 -0.0991,-0.55562 z m 0.83444,-0.47625 c 0,-0.17463 -0.14287,-0.3175 -0.3175,-0.3175 -0.17462,0 -0.3175,0.14287 -0.3175,0.3175 0,0.17462 0.14288,0.3175 0.3175,0.3175 0.17463,0 0.3175,-0.14288 0.3175,-0.3175 z m 0.9525,0 c 0,-0.17463 -0.14287,-0.3175 -0.3175,-0.3175 -0.17462,0 -0.3175,0.14287 -0.3175,0.3175 0,0.17462 0.14288,0.3175 0.3175,0.3175 0.17463,0 0.3175,-0.14288 0.3175,-0.3175 z"
         style="fill:#b7b7b7;stroke-width:0.3175" />
      <path
         id="path1672"
         d="m 178.5932,237.27649 c -0.12443,-0.12443 -0.21496,-0.88109 -0.20117,-1.68145 0.0138,-0.80037 0.0971,-1.27662 0.1852,-1.05834 0.0881,0.21829 0.51386,0.39688 0.94618,0.39688 0.44317,0 0.70043,-0.13849 0.5898,-0.3175 -0.10792,-0.17463 -0.0371,-0.3175 0.15741,-0.3175 0.22379,0 0.3181,0.55372 0.25686,1.50812 -0.0865,1.34787 -0.18238,1.51811 -0.9024,1.60208 -0.4431,0.0517 -0.90744,-0.008 -1.03188,-0.13229 z m -4.01658,-4.40666 0.0481,-3.96875 h 2.93768 2.93768 l 0.0612,2.54 c 0.0492,2.0407 -0.0297,2.54 -0.40134,2.54 -0.35713,0 -0.42335,-0.29233 -0.29052,-1.28261 0.22253,-1.65908 -0.75765,-2.84489 -2.35155,-2.84489 -1.60961,0 -2.57228,1.17892 -2.33336,2.8575 0.15455,1.08581 0.6767,1.28885 1.60837,0.62544 0.55246,-0.39338 0.97089,-0.51333 1.09428,-0.31369 0.10988,0.17779 -0.0185,0.32325 -0.28525,0.32325 -0.31835,0 -0.4236,0.19093 -0.30628,0.55562 0.15039,0.46754 0.12513,0.48012 -0.15938,0.0794 -0.28717,-0.4045 -0.48976,-0.32508 -1.34481,0.52722 -0.63807,0.63602 -0.9358,1.18827 -0.81306,1.50813 0.29563,0.7704 0.82079,0.60539 1.41897,-0.44584 0.7364,-1.29413 1.33461,-1.22388 1.33461,0.15674 v 1.11125 h -1.60171 -1.60172 z m 1.97725,-0.635 c 0,-0.52388 0.0627,-0.77391 0.13925,-0.55563 0.0766,0.21829 0.28551,0.39688 0.46427,0.39688 0.17875,0 0.24277,-0.21431 0.14225,-0.47625 -0.1102,-0.28719 -0.002,-0.47625 0.27357,-0.47625 0.27518,0 0.38377,0.18906 0.27357,0.47625 -0.10052,0.26194 -0.0365,0.47625 0.14225,0.47625 0.17876,0 0.38768,-0.17859 0.46427,-0.39688 0.0766,-0.21828 0.13925,0.0317 0.13925,0.55563 0,0.52387 -0.0627,0.77391 -0.13925,0.55562 -0.18096,-0.51571 -1.57922,-0.51571 -1.76018,0 -0.0766,0.21829 -0.13925,-0.0317 -0.13925,-0.55562 z"
         style="fill:#b6b6b6;stroke-width:0.3175" />
      <path
         id="path1670"
         d="m 178.5932,237.27649 c -0.12443,-0.12443 -0.22624,-0.75412 -0.22624,-1.3993 0,-1.09282 0.0566,-1.16223 0.82752,-1.01486 0.50563,0.0967 0.94065,-0.0131 1.11835,-0.28216 0.19137,-0.28975 0.26126,0.10255 0.20435,1.14716 -0.0782,1.43618 -0.16326,1.59646 -0.8921,1.68145 -0.4431,0.0517 -0.90744,-0.008 -1.03188,-0.13229 z m -4.01658,-4.40666 0.0481,-3.96875 3.06176,0.005 c 2.09408,0.003 2.91123,0.10214 2.5855,0.31264 -0.3175,0.20518 -0.34396,0.3094 -0.0794,0.31264 0.27923,0.003 0.39687,0.66362 0.39687,2.22736 0,1.69698 -0.10547,2.2225 -0.44604,2.2225 -0.33783,0 -0.4043,-0.31115 -0.274,-1.28261 0.14049,-1.04746 0.0375,-1.42583 -0.56181,-2.06375 -0.72575,-0.77253 -1.90999,-0.99842 -3.01374,-0.57487 -0.84218,0.32317 -1.40385,1.96611 -1.03443,3.02583 0.36521,1.04765 0.35984,1.04612 1.36227,0.3893 0.42482,-0.27835 0.95557,-0.43251 1.17945,-0.34257 0.25922,0.10415 0.20887,0.17264 -0.13861,0.1886 -0.37181,0.0171 -0.48871,0.2021 -0.36692,0.58069 0.15039,0.46754 0.12513,0.48012 -0.15938,0.0794 -0.28717,-0.4045 -0.48976,-0.32508 -1.34481,0.52722 -0.63807,0.63602 -0.9358,1.18827 -0.81306,1.50813 0.29563,0.7704 0.82079,0.60539 1.41897,-0.44584 0.7364,-1.29413 1.33461,-1.22388 1.33461,0.15674 v 1.11125 h -1.60171 -1.60172 z m 1.96273,-0.92526 c -0.0359,-0.47707 0.0233,-0.53683 0.21867,-0.22069 0.14737,0.23846 0.41692,0.34148 0.599,0.22895 0.18209,-0.11254 0.41071,-0.0757 0.50805,0.0818 0.0973,0.1575 -0.15003,0.34888 -0.54972,0.42529 -0.5571,0.10649 -0.73822,-0.0138 -0.776,-0.51532 z m 0.81558,-0.72038 c 0.22919,-0.0917 0.50304,-0.0804 0.60854,0.0251 0.1055,0.1055 -0.082,0.18054 -0.41672,0.16676 -0.36987,-0.0152 -0.4451,-0.0905 -0.19182,-0.19183 z"
         style="fill:#afafaf;stroke-width:0.3175" />
      <path
         id="path1668"
         d="m 178.5932,237.27649 c -0.12443,-0.12443 -0.22624,-0.75412 -0.22624,-1.3993 0,-1.09282 0.0566,-1.16223 0.82752,-1.01486 0.50563,0.0967 0.94065,-0.0131 1.11835,-0.28216 0.19137,-0.28975 0.26126,0.10255 0.20435,1.14716 -0.0782,1.43618 -0.16326,1.59646 -0.8921,1.68145 -0.4431,0.0517 -0.90744,-0.008 -1.03188,-0.13229 z m -4.01658,-4.40666 0.0481,-3.96875 3.06176,0.005 c 2.09408,0.003 2.91123,0.10214 2.5855,0.31264 -0.3175,0.20518 -0.34396,0.3094 -0.0794,0.31264 0.27923,0.003 0.39687,0.66362 0.39687,2.22736 0,1.69698 -0.10547,2.2225 -0.44604,2.2225 -0.33783,0 -0.4043,-0.31115 -0.274,-1.28261 0.14049,-1.04746 0.0375,-1.42583 -0.56181,-2.06375 -0.72575,-0.77253 -1.90999,-0.99842 -3.01374,-0.57487 -0.84218,0.32317 -1.40385,1.96611 -1.03443,3.02583 0.36276,1.04061 0.36642,1.04181 1.30543,0.42654 0.6664,-0.43664 0.71921,-0.42055 0.76853,0.23412 0.0415,0.55096 -0.0106,0.60086 -0.24115,0.23074 -0.24413,-0.392 -0.46517,-0.30173 -1.30081,0.53122 -0.63807,0.63602 -0.9358,1.18827 -0.81306,1.50813 0.29563,0.7704 0.82079,0.60539 1.41897,-0.44584 0.7364,-1.29413 1.33461,-1.22388 1.33461,0.15674 v 1.11125 h -1.60171 -1.60172 z m 1.96273,-0.92526 c -0.0359,-0.47707 0.0233,-0.53683 0.21867,-0.22069 0.14737,0.23846 0.41692,0.34148 0.599,0.22895 0.18209,-0.11254 0.41071,-0.0757 0.50805,0.0818 0.0973,0.1575 -0.15003,0.34888 -0.54972,0.42529 -0.5571,0.10649 -0.73822,-0.0138 -0.776,-0.51532 z m 0.81558,-0.72038 c 0.22919,-0.0917 0.50304,-0.0804 0.60854,0.0251 0.1055,0.1055 -0.082,0.18054 -0.41672,0.16676 -0.36987,-0.0152 -0.4451,-0.0905 -0.19182,-0.19183 z"
         style="fill:#aeaeae;stroke-width:0.3175" />
      <path
         id="path1666"
         d="m 178.5932,237.27649 c -0.12443,-0.12443 -0.22624,-0.73821 -0.22624,-1.36395 0,-1.09134 0.0459,-1.13771 1.12563,-1.13771 1.11719,0 1.12492,0.01 1.03187,1.27 -0.0807,1.09352 -0.2057,1.28306 -0.89938,1.36395 -0.4431,0.0517 -0.90744,-0.008 -1.03188,-0.13229 z m -4.03624,-4.08916 c 0,-2.70674 0.10266,-3.65251 0.39688,-3.65611 0.26458,-0.003 0.23812,-0.10746 -0.0794,-0.31264 -0.32485,-0.20993 0.53309,-0.30778 2.69875,-0.30778 2.16566,0 3.0236,0.0978 2.69875,0.30778 -0.3175,0.20518 -0.34396,0.3094 -0.0794,0.31264 0.27923,0.003 0.39687,0.66362 0.39687,2.22736 0,1.67578 -0.10756,2.2225 -0.43725,2.2225 -0.32868,0 -0.3983,-0.34553 -0.28039,-1.39164 0.18857,-1.67299 -0.63267,-2.73586 -2.11389,-2.73586 -1.37252,0 -1.90021,0.28956 -2.44398,1.34108 -0.40036,0.77422 -0.42012,1.11417 -0.10848,1.86652 0.44279,1.069 0.42519,1.06316 1.3594,0.45104 0.6664,-0.43664 0.71921,-0.42055 0.76853,0.23412 0.0386,0.51278 -0.021,0.58338 -0.22026,0.26092 -0.3847,-0.62246 -2.24701,0.84605 -2.14979,1.6952 0.11391,0.99486 0.82259,0.94215 1.41888,-0.10553 0.75019,-1.31805 1.34973,-1.26013 1.34973,0.1304 v 1.11125 h -1.5875 -1.5875 z"
         style="fill:#a7a7a7;stroke-width:0.3175" />
      <path
         id="path1664"
         d="m 178.5932,237.27649 c -0.12443,-0.12443 -0.22624,-0.73821 -0.22624,-1.36395 0,-1.09134 0.0459,-1.13771 1.12563,-1.13771 1.11719,0 1.12492,0.01 1.03187,1.27 -0.0807,1.09352 -0.2057,1.28306 -0.89938,1.36395 -0.4431,0.0517 -0.90744,-0.008 -1.03188,-0.13229 z m -4.03624,-4.08916 c 0,-2.70674 0.10266,-3.65251 0.39688,-3.65611 0.26458,-0.003 0.23812,-0.10746 -0.0794,-0.31264 -0.32485,-0.20993 0.53309,-0.30778 2.69875,-0.30778 2.16566,0 3.0236,0.0978 2.69875,0.30778 -0.3175,0.20518 -0.34396,0.3094 -0.0794,0.31264 0.27923,0.003 0.39687,0.66362 0.39687,2.22736 0,1.67578 -0.10756,2.2225 -0.43725,2.2225 -0.32868,0 -0.3983,-0.34553 -0.28039,-1.39164 0.12687,-1.12559 0.0284,-1.52013 -0.51525,-2.06375 -0.7147,-0.7147 -2.21659,-0.8874 -3.18944,-0.36674 -0.88329,0.47272 -1.3821,1.95808 -0.99737,2.97 0.37621,0.9895 0.44221,1.00763 1.39511,0.38327 0.6664,-0.43664 0.71921,-0.42055 0.76853,0.23412 0.0386,0.51278 -0.021,0.58338 -0.22026,0.26092 -0.3847,-0.62246 -2.24701,0.84605 -2.14979,1.6952 0.11391,0.99486 0.82259,0.94215 1.41888,-0.10553 0.75019,-1.31805 1.34973,-1.26013 1.34973,0.1304 v 1.11125 h -1.5875 -1.5875 z"
         style="fill:#a6a6a6;stroke-width:0.3175" />
      <path
         id="path1662"
         d="m 178.57863,237.26191 c -0.11642,-0.11641 -0.21167,-0.72363 -0.21167,-1.34937 0,-1.08857 0.048,-1.13771 1.11125,-1.13771 1.06664,0 1.11125,0.0464 1.11125,1.15666 0,0.76182 -0.17143,1.22244 -0.50222,1.34937 -0.65663,0.25198 -1.24508,0.24459 -1.50861,-0.0189 z m -4.02167,-4.07458 c 0,-2.70674 0.10266,-3.65251 0.39688,-3.65611 0.26458,-0.003 0.23812,-0.10746 -0.0794,-0.31264 -0.32485,-0.20993 0.53309,-0.30778 2.69875,-0.30778 2.16566,0 3.0236,0.0978 2.69875,0.30778 -0.3175,0.20518 -0.34396,0.3094 -0.0794,0.31264 0.27923,0.003 0.39687,0.66362 0.39687,2.22736 0,1.67578 -0.10756,2.2225 -0.43725,2.2225 -0.32868,0 -0.3983,-0.34553 -0.28039,-1.39164 0.12687,-1.12559 0.0284,-1.52013 -0.51525,-2.06375 -0.7147,-0.7147 -2.21659,-0.8874 -3.18944,-0.36674 -0.88329,0.47272 -1.3821,1.95808 -0.99737,2.97 0.377,0.99158 0.44085,1.00852 1.4092,0.37404 0.63375,-0.41525 0.72967,-0.41709 0.72967,-0.014 0,0.25527 -0.116,0.39243 -0.25778,0.30481 -0.48431,-0.29932 -2.20656,1.25036 -2.11001,1.89857 0.1493,1.00242 0.84266,0.95649 1.44139,-0.0955 0.75019,-1.31805 1.34973,-1.26013 1.34973,0.1304 v 1.11125 h -1.5875 -1.5875 z"
         style="fill:#9f9f9f;stroke-width:0.3175" />
      <path
         id="path1660"
         d="m 178.57863,237.26191 c -0.11642,-0.11641 -0.21167,-0.72363 -0.21167,-1.34937 0,-1.08857 0.048,-1.13771 1.11125,-1.13771 1.06664,0 1.11125,0.0464 1.11125,1.15666 0,0.76182 -0.17143,1.22244 -0.50222,1.34937 -0.65663,0.25198 -1.24508,0.24459 -1.50861,-0.0189 z m -4.02167,-4.04061 c 0,-4.15572 -0.11529,-4.00272 3.01625,-4.00272 2.98384,0 3.01625,0.0276 3.01625,2.57397 0,1.64693 -0.10821,2.18853 -0.43725,2.18853 -0.32868,0 -0.3983,-0.34553 -0.28039,-1.39164 0.12687,-1.12559 0.0284,-1.52013 -0.51525,-2.06375 -0.7147,-0.7147 -2.21659,-0.8874 -3.18944,-0.36674 -0.88329,0.47272 -1.3821,1.95808 -0.99737,2.97 0.377,0.99158 0.44085,1.00852 1.4092,0.37404 0.63375,-0.41525 0.72967,-0.41709 0.72967,-0.014 0,0.25527 -0.116,0.39243 -0.25778,0.30481 -0.48431,-0.29932 -2.20656,1.25036 -2.11001,1.89857 0.14612,0.98108 0.81648,0.9581 1.43225,-0.0491 0.68687,-1.12349 1.35887,-0.99035 1.35887,0.26923 0,0.89958 -0.0454,0.92604 -1.5875,0.92604 h -1.5875 z"
         style="fill:#9e9e9e;stroke-width:0.3175" />
      <path
         id="path1658"
         d="m 178.76384,237.26331 c -0.21829,-0.0881 -0.39688,-0.68402 -0.39688,-1.32431 0,-1.11881 0.0433,-1.16417 1.11125,-1.16417 1.06664,0 1.11125,0.0464 1.11125,1.15666 0,1.33762 -0.64505,1.80819 -1.82562,1.33182 z m -4.20688,-1.07847 c 0,-0.18493 0.14288,-0.24793 0.3175,-0.14001 0.17463,0.10792 0.3175,0.25923 0.3175,0.33624 0,0.077 -0.14287,0.14001 -0.3175,0.14001 -0.17462,0 -0.3175,-0.15131 -0.3175,-0.33624 z m 1.82613,-0.58131 c 0.60376,-1.05197 1.34887,-0.96482 1.34887,0.15777 0,0.62987 -0.16033,0.75978 -0.93773,0.75978 h -0.93774 z m -1.82613,-3.01723 c 0,-3.43966 -0.0644,-3.36772 3.01625,-3.36772 2.98384,0 3.01625,0.0276 3.01625,2.57397 0,1.99122 -0.19236,2.52534 -0.71959,1.9981 -0.10474,-0.10473 -0.0432,-0.51355 0.13674,-0.90849 0.45215,-0.99235 -0.38519,-2.5437 -1.60188,-2.96784 -0.72848,-0.25395 -1.16313,-0.20912 -1.97512,0.2037 -1.34813,0.68542 -1.77663,1.92482 -1.12031,3.24045 0.45053,0.9031 0.44099,1.01678 -0.13358,1.59135 -0.61335,0.61335 -0.61876,0.59268 -0.61876,-2.36352 z"
         style="fill:#979797;stroke-width:0.3175" />
      <path
         id="path1656"
         d="m 178.76384,237.26331 c -0.21829,-0.0881 -0.39688,-0.68402 -0.39688,-1.32431 0,-1.11881 0.0433,-1.16417 1.11125,-1.16417 1.06664,0 1.11125,0.0464 1.11125,1.15666 0,1.33762 -0.64505,1.80819 -1.82562,1.33182 z m -4.20688,-1.07847 c 0,-0.18493 0.14288,-0.24793 0.3175,-0.14001 0.17463,0.10792 0.3175,0.25923 0.3175,0.33624 0,0.077 -0.14287,0.14001 -0.3175,0.14001 -0.17462,0 -0.3175,-0.15131 -0.3175,-0.33624 z m 1.82613,-0.58131 c 0.60376,-1.05197 1.34887,-0.96482 1.34887,0.15777 0,0.62987 -0.16033,0.75978 -0.93773,0.75978 h -0.93774 z m -1.82613,-3.01723 c 0,-3.43966 -0.0644,-3.36772 3.01625,-3.36772 2.98384,0 3.01625,0.0276 3.01625,2.57397 0,1.99122 -0.19236,2.52534 -0.71959,1.9981 -0.10474,-0.10473 -0.0432,-0.51355 0.13674,-0.90849 0.45215,-0.99235 -0.38519,-2.5437 -1.60188,-2.96784 -2.1519,-0.75015 -4.2999,1.73361 -3.09266,3.57609 0.49462,0.7549 0.48819,0.83487 -0.11569,1.43875 l -0.63942,0.63942 z"
         style="fill:#969696;stroke-width:0.3175" />
      <path
         id="path1654"
         d="m 178.76384,237.26331 c -0.21829,-0.0881 -0.39688,-0.68402 -0.39688,-1.32431 0,-1.11881 0.0433,-1.16417 1.11125,-1.16417 1.06664,0 1.11125,0.0464 1.11125,1.15666 0,1.33762 -0.64505,1.80819 -1.82562,1.33182 z m -4.20688,-1.07847 c 0,-0.18493 0.14288,-0.24793 0.3175,-0.14001 0.17463,0.10792 0.3175,0.25923 0.3175,0.33624 0,0.077 -0.14287,0.14001 -0.3175,0.14001 -0.17462,0 -0.3175,-0.15131 -0.3175,-0.33624 z m 1.82613,-0.58131 c 0.60376,-1.05197 1.34887,-0.96482 1.34887,0.15777 0,0.62987 -0.16033,0.75978 -0.93773,0.75978 h -0.93774 z m -1.82613,-2.98206 c 0,-3.47929 -0.0677,-3.40289 3.01625,-3.40289 2.98384,0 3.01625,0.0276 3.01625,2.57397 0,1.99122 -0.19236,2.52534 -0.71959,1.9981 -0.10474,-0.10473 -0.0416,-0.51717 0.1404,-0.91652 0.46097,-1.01171 -0.26167,-2.39328 -1.51831,-2.90277 -2.12121,-0.86003 -4.35549,1.43317 -3.25855,3.34447 0.4625,0.80587 0.45593,0.92467 -0.0884,1.59687 -0.58211,0.71888 -0.58806,0.69568 -0.58806,-2.29123 z"
         style="fill:#8f8f8f;stroke-width:0.3175" />
      <path
         id="path1652"
         d="m 178.76384,237.26331 c -0.21829,-0.0881 -0.39688,-0.63267 -0.39688,-1.2102 0,-0.96369 0.0914,-1.06073 1.11125,-1.17979 1.09278,-0.12757 1.11125,-0.11024 1.11125,1.04255 0,1.35373 -0.63978,1.82593 -1.82562,1.34744 z m -2.38075,-1.65978 c 0.60376,-1.05197 1.34887,-0.96482 1.34887,0.15777 0,0.62987 -0.16033,0.75978 -0.93773,0.75978 h -0.93774 z m -1.82613,-2.98206 c 0,-3.47929 -0.0677,-3.40289 3.01625,-3.40289 2.98384,0 3.01625,0.0276 3.01625,2.57397 0,1.39347 -0.12818,2.18853 -0.35283,2.18853 -0.22519,0 -0.28445,-0.37333 -0.1638,-1.03188 0.24737,-1.35028 -0.35002,-2.47492 -1.58087,-2.97611 -2.11995,-0.86323 -4.35599,1.43058 -3.25855,3.34274 0.4625,0.80587 0.45593,0.92467 -0.0884,1.59687 -0.58211,0.71888 -0.58806,0.69568 -0.58806,-2.29123 z"
         style="fill:#8e8e8e;stroke-width:0.3175" />
      <path
         id="path1650"
         d="m 178.92259,237.22861 c -0.39357,-0.0844 -0.55563,-0.42628 -0.55563,-1.17232 0,-0.96732 0.0906,-1.06382 1.11125,-1.18297 1.09231,-0.12752 1.11125,-0.10981 1.11125,1.03948 0,1.21042 -0.46096,1.57429 -1.66687,1.31581 z m -2.5395,-1.62508 c 0.60376,-1.05197 1.34887,-0.96482 1.34887,0.15777 0,0.62987 -0.16033,0.75978 -0.93773,0.75978 h -0.93774 z m -1.82613,-3.12677 c 0,-3.31624 -0.0538,-3.25818 3.01625,-3.25818 2.99202,0 3.01625,0.0211 3.01625,2.62689 0,1.23279 -0.10716,2.13435 -0.23812,2.00347 -0.13097,-0.13089 -0.24708,-0.80262 -0.25801,-1.49273 -0.0259,-1.63265 -0.91771,-2.55156 -2.5205,-2.59699 -2.06455,-0.0585 -3.37291,2.16503 -2.2322,3.79362 0.41976,0.59929 0.40395,0.72187 -0.15875,1.23111 -0.61719,0.55855 -0.62492,0.53 -0.62492,-2.30719 z"
         style="fill:#888888;stroke-width:0.3175" />
      <path
         id="path1648"
         d="m 178.92259,237.22861 c -0.39357,-0.0844 -0.55563,-0.42628 -0.55563,-1.17232 0,-0.96732 0.0906,-1.06382 1.11125,-1.18297 1.09231,-0.12752 1.11125,-0.10981 1.11125,1.03948 0,1.21042 -0.46096,1.57429 -1.66687,1.31581 z m -2.5395,-1.62508 c 0.60376,-1.05197 1.34887,-0.96482 1.34887,0.15777 0,0.62987 -0.16033,0.75978 -0.93773,0.75978 h -0.93774 z m -1.82613,-3.12677 c 0,-3.31624 -0.0538,-3.25818 3.01625,-3.25818 2.99202,0 3.01625,0.0211 3.01625,2.62689 0,1.23279 -0.10716,2.13435 -0.23812,2.00347 -0.13097,-0.13089 -0.24708,-0.80262 -0.25801,-1.49273 -0.0259,-1.63265 -0.91771,-2.55156 -2.5205,-2.59699 -2.06455,-0.0585 -3.37291,2.16503 -2.2322,3.79362 0.41976,0.59929 0.40395,0.72187 -0.15875,1.23111 -0.61719,0.55855 -0.62492,0.53 -0.62492,-2.30719 z"
         style="fill:#878787;stroke-width:0.3175" />
      <path
         id="path1646"
         d="m 178.92259,237.22861 c -0.3979,-0.0853 -0.55563,-0.42793 -0.55563,-1.20706 0,-1.03173 0.0574,-1.08797 1.11125,-1.08797 1.05104,0 1.11125,0.0582 1.11125,1.07422 0,1.11076 -0.49363,1.47229 -1.66687,1.22081 z m -2.40286,-1.50128 c 0.19891,-0.43656 0.55304,-0.79375 0.78694,-0.79375 0.24198,0 0.42529,0.34214 0.42529,0.79375 0,0.63317 -0.1592,0.79375 -0.78694,0.79375 -0.72418,0 -0.7581,-0.0633 -0.42529,-0.79375 z m -1.96277,-3.25057 c 0,-3.31624 -0.0538,-3.25818 3.01625,-3.25818 2.98678,0 3.01625,0.0253 3.01625,2.59271 0,1.43447 -0.11457,2.13646 -0.32724,2.00502 -0.1855,-0.11465 -0.24288,-0.65195 -0.13247,-1.24048 0.46111,-2.45791 -2.84121,-3.90588 -4.50269,-1.9743 -0.86173,1.00183 -0.95789,1.99267 -0.28643,2.95131 0.41976,0.59929 0.40395,0.72187 -0.15875,1.23111 -0.61719,0.55855 -0.62492,0.53 -0.62492,-2.30719 z"
         style="fill:#7f7f7f;stroke-width:0.3175" />
    </g>
  </g>
</svg>
