<?xml version="1.0" encoding="UTF-8" standalone="no"?>
<svg
   xmlns:dc="http://purl.org/dc/elements/1.1/"
   xmlns:cc="http://creativecommons.org/ns#"
   xmlns:rdf="http://www.w3.org/1999/02/22-rdf-syntax-ns#"
   xmlns:svg="http://www.w3.org/2000/svg"
   xmlns="http://www.w3.org/2000/svg"
   width="130mm"
   height="130mm"
   viewBox="0 0 179.13222 179.13222"
   version="1.1"
   id="svg1756">
  <defs
     id="defs1750" />
  <metadata
     id="metadata1753">
    <rdf:RDF>
      <cc:Work
         rdf:about="">
        <dc:format>image/svg+xml</dc:format>
        <dc:type
           rdf:resource="http://purl.org/dc/dcmitype/StillImage" />
        <dc:title></dc:title>
      </cc:Work>
    </rdf:RDF>
  </metadata>
  <path
     id="path952"
     d="m 140.79466,178.6067 c -12.12967,-2.92416 -17.97019,-17.62696 -11.07841,-27.88859 8.07209,-12.01904 25.95661,-10.9435 32.00539,1.92477 6.57135,13.97989 -5.99012,29.56471 -20.92698,25.96382 z M 89.675149,158.30709 c -7.036964,-1.54081 -16.763402,-5.30707 -16.348212,-6.33034 0.20108,-0.49557 3.374086,-6.15231 7.05113,-12.57053 l 6.685526,-11.66949 4.253642,1.44586 c 14.989415,5.09507 32.078925,0.87378 43.802965,-10.81978 7.23055,-7.21176 10.119,-12.66455 12.64128,-23.864122 0.49124,-2.181233 0.54875,-2.199075 7.07734,-2.194973 3.62015,0.0023 10.02832,0.232391 14.24038,0.511352 l 7.65827,0.507209 -0.69741,4.486617 c -2.16836,13.949057 -7.63432,26.048747 -16.76724,37.116597 l -1.85028,2.24231 -3.19871,-1.36563 c -5.1232,-2.18728 -14.17004,-1.88881 -19.71656,0.65047 -7.63105,3.49362 -12.98985,10.03192 -15.10419,18.4287 -0.78183,3.10494 -1.25724,3.68985 -3.33724,4.10585 -4.12393,0.82479 -21.57125,0.37516 -26.390691,-0.6801 z M 53.962211,138.88066 c -7.346079,-7.3749 -13.250573,-15.98299 -16.124522,-23.50775 l -1.724602,-4.51545 3.228844,-3.32711 c 6.06394,-6.24848 8.746188,-14.776999 7.228853,-22.985008 -1.110035,-6.004736 -3.20991,-9.988675 -7.555247,-14.334009 -1.948891,-1.948894 -3.543441,-3.844334 -3.543441,-4.212087 0,-2.092227 5.4174,-13.236532 9.192458,-18.910094 3.755557,-5.644257 15.473269,-17.9639 17.086195,-17.9639 0.289877,0 3.875699,5.374053 7.968526,11.94234 l 7.441496,11.94234 -3.300796,3.300795 c -4.520678,4.520675 -9.019358,11.689251 -10.86173,17.307992 -2.157615,6.580139 -2.157615,21.185486 0,27.765631 1.841326,5.61554 6.401928,12.88646 10.701674,17.06156 l 3.132608,3.0418 -6.851416,12.19505 c -3.768282,6.70728 -7.345896,12.19505 -7.950253,12.19505 -0.604361,0 -4.235251,-3.14872 -8.068647,-6.99715 z M 15.291533,106.69717 C -0.44868035,101.95771 -2.2674384,79.545643 12.529102,72.656482 23.635342,67.485496 36.100531,73.466106 38.61056,85.169973 41.526532,98.766672 28.596353,110.70329 15.291533,106.69717 Z M 147.97866,81.30405 c -0.18811,-0.329866 -0.59552,-2.039172 -0.90537,-3.798457 C 145.93561,71.045946 141.11025,62.631827 135.11166,56.647747 123.28931,44.853992 107.38118,40.898202 91.567731,45.819901 l -4.831669,1.503786 -6.839616,-12.002026 c -3.761794,-6.601113 -6.839624,-12.289247 -6.839624,-12.640298 0,-0.723811 7.000639,-3.460097 13.582681,-5.30896 4.74061,-1.331612 23.810327,-2.355625 28.273877,-1.51826 2.6511,0.497351 2.71472,0.604337 3.13856,5.278598 0.82289,9.074907 6.19563,16.719039 14.69047,20.901035 4.55192,2.240905 6.04492,2.575789 11.36181,2.548503 4.79942,-0.02479 7.0992,-0.472031 10.65009,-2.071857 l 4.52886,-2.040436 1.54866,1.724626 c 2.92649,3.259032 6.75043,9.450802 9.46452,15.32507 2.71605,5.878556 5.90237,17.338615 5.91294,21.266817 0.006,2.031971 -0.14852,2.092578 -6.59172,2.594151 -8.98548,0.699475 -21.22106,0.656164 -21.63891,-0.07661 z m -9.17113,-45.357348 c -10.8535,-3.389163 -15.92437,-15.241126 -11.02403,-25.76607 5.9929,-12.8715474 24.87943,-13.7345014 32.06966,-1.4653124 6.22713,10.6257974 1.16225,23.7592214 -10.51841,27.2745824 -4.51832,1.359813 -6.05438,1.353508 -10.52722,-0.0432 z"
     style="fill:#333e44;stroke-width:0.79967499;fill-opacity:1" />
</svg>
