<svg xmlns="http://www.w3.org/2000/svg" viewBox="0 0 80 80" width="50px" height="50px"><path fill="#4e7ab5" d="M40 1H42V79H40z"/><path fill="#4e7ab5" d="M41 16.9L32.1 8 33.5 6.6 41 14 48.5 6.6 49.9 8zM48.5 73.4L41 66 33.5 73.4 32.1 72 41 63.1 49.9 72z"/><path fill="#4e7ab5" d="M40 1H42V79H40z" transform="rotate(-60 41 40.001)"/><path fill="#4e7ab5" d="M8.8 31.7L8.3 29.7 18.5 27 15.8 16.8 17.7 16.3 21 28.4zM64.3 63.7L61 51.6 73.2 48.3 73.7 50.3 63.5 53 66.2 63.2z"/><path fill="#4e7ab5" d="M2 39H80V41H2z" transform="rotate(-29.991 41.004 40)"/><path fill="#4e7ab5" d="M15 39H67V41H15zM17.7 63.7L15.8 63.2 18.5 53 8.3 50.3 8.8 48.3 21 51.6zM73.2 31.7L61 28.4 64.3 16.3 66.2 16.8 63.5 27 73.7 29.7z"/><path fill="#4e7ab5" d="M61.7 45.7L56 40 61.7 34.3 63.2 35.7 58.8 40 63.2 44.3zM20.3 45.7L18.8 44.3 23.2 40 18.8 35.7 20.3 34.3 26 40z"/><path fill="#4e7ab5" d="M15 39H67V41H15z" transform="rotate(-60.007 40.998 39.999)"/><path fill="#4e7ab5" d="M48.5 27L46.4 19.2 48.3 18.6 49.9 24.6 55.8 23 56.3 24.9zM33.7 61.4L32.1 55.4 26.2 57 25.7 55.1 33.5 53 35.6 60.8z"/><path fill="#4e7ab5" d="M40 14H42V66H40z" transform="rotate(-30 40.997 40.001)"/><path fill="#4e7ab5" d="M33.5 27L25.7 24.9 26.2 23 32.1 24.6 33.7 18.6 35.6 19.2zM48.3 61.4L46.4 60.8 48.5 53 56.3 55.1 55.8 57 49.9 55.4z"/></svg>