<svg xmlns="http://www.w3.org/2000/svg" viewBox="0 0 40 40" width="50px" height="50px"><path fill="none" stroke="#a3b7cc" stroke-miterlimit="10" d="M21.039,33.5h-7.078C9.84,33.5,6.5,30.16,6.5,26.039V7"/><path fill="#8bb7f0" d="M6.5,10.5c-2.206,0-4-1.794-4-4s1.794-4,4-4s4,1.794,4,4S8.706,10.5,6.5,10.5z"/><path fill="#4e7ab5" d="M6.5,3C8.43,3,10,4.57,10,6.5S8.43,10,6.5,10S3,8.43,3,6.5S4.57,3,6.5,3 M6.5,2 C4.015,2,2,4.014,2,6.5C2,8.985,4.015,11,6.5,11S11,8.985,11,6.5C11,4.014,8.985,2,6.5,2L6.5,2z"/><path fill="#e1ebf2" d="M20.5 30L25.167 33.5 20.5 37z"/><path fill="#a3b7cc" d="M21,31l3.333,2.5L21,36V31 M20,29v9l6-4.5L20,29L20,29z"/><path fill="none" stroke="#a3b7cc" stroke-miterlimit="10" d="M18.961,6.5h7.078c4.121,0,7.461,3.34,7.461,7.461V33"/><g><path fill="#8bb7f0" d="M33.5,37.5c-2.206,0-4-1.794-4-4s1.794-4,4-4s4,1.794,4,4S35.706,37.5,33.5,37.5z"/><path fill="#4e7ab5" d="M33.5,30c1.93,0,3.5,1.57,3.5,3.5S35.43,37,33.5,37S30,35.43,30,33.5S31.57,30,33.5,30 M33.5,29 c-2.485,0-4.5,2.015-4.5,4.5c0,2.486,2.015,4.5,4.5,4.5s4.5-2.014,4.5-4.5C38,31.015,35.985,29,33.5,29L33.5,29z"/></g><g><path fill="#e1ebf2" d="M14.833 6.5L19.5 3 19.5 10z"/><path fill="#a3b7cc" d="M19,4v5l-3.333-2.5L19,4 M20,2l-6,4.5l6,4.5V2L20,2z"/></g></svg>