<svg xmlns="http://www.w3.org/2000/svg" viewBox="0 0 100 100" width="50px" height="50px"><path fill="#c8ede6" d="M87.214,55.674c0.3-0.616,0.566-1.264,0.796-1.943c2.633-7.77-1.349-17.078-9.733-19.325C77.37,23.023,69.37,15.214,60.335,13.881c-10.341-1.525-19.814,5.044-22.966,15.485c-3.799-1.346-7.501-1.182-10.99,0.857c-1.583,0.732-3.031,1.812-4.33,3.233c-1.907,2.086-3.147,4.719-3.652,7.495c-0.748,0.118-1.483,0.236-2.176,0.484c-4.04,1.449-6.589,4.431-7.288,8.923c-0.435,2.797,0.443,5.587,0.933,6.714c1.935,4.455,6.422,6.98,10.981,6.312c0.227-0.033,0.557,0.069,0.752,0.233c0.241,7.12,3.698,13.417,8.884,17.014c8.321,5.772,19.027,3.994,25.781-3.921c2.894,2.96,6.338,4.398,10.384,3.876c4.023-0.519,7.147-2.739,9.426-6.349c1.053,0.283,2.051,0.691,3.083,0.804c4.042,0.442,7.297-1.184,9.732-4.8c0.083-0.124,0.203-0.219,0.306-0.328c0.348-0.798,0.696-1.596,1.044-2.394c0.155-1.211,0.429-2.423,0.443-3.632C90.722,60.631,89.39,57.664,87.214,55.674z"/><path fill="#fff" d="M26.86 33.771H16.83c-.276 0-.5-.224-.5-.5s.224-.5.5-.5h10.03c.276 0 .5.224.5.5S27.136 33.771 26.86 33.771zM29.742 33.771h-1.446c-.276 0-.5-.224-.5-.5s.224-.5.5-.5h1.446c.276 0 .5.224.5.5S30.018 33.771 29.742 33.771zM33.796 33.771h-2.546c-.276 0-.5-.224-.5-.5s.224-.5.5-.5h2.546c.276 0 .5.224.5.5S34.073 33.771 33.796 33.771zM33.796 35.636H24.18c-.276 0-.5-.224-.5-.5s.224-.5.5-.5h9.616c.276 0 .5.224.5.5S34.073 35.636 33.796 35.636zM22.448 35.636h-.58c-.276 0-.5-.224-.5-.5s.224-.5.5-.5h.58c.276 0 .5.224.5.5S22.724 35.636 22.448 35.636zM20.072 35.636h-1.457c-.276 0-.5-.224-.5-.5s.224-.5.5-.5h1.457c.276 0 .5.224.5.5S20.348 35.636 20.072 35.636zM29.208 31.906H24.18c-.276 0-.5-.224-.5-.5s.224-.5.5-.5h5.027c.276 0 .5.224.5.5S29.484 31.906 29.208 31.906zM29.208 30.042H27.95c-.276 0-.5-.224-.5-.5s.224-.5.5-.5h1.258c.276 0 .5.224.5.5S29.484 30.042 29.208 30.042zM25.938 37.501H24.18c-.276 0-.5-.224-.5-.5s.224-.5.5-.5h1.758c.276 0 .5.224.5.5S26.214 37.501 25.938 37.501z"/><path fill="#fdfcef" d="M36.435,65.163c1.883,0,3.517,0,3.54,0c2.11,0,3.821-1.674,3.821-3.739c0-1.802-1.302-3.305-3.035-3.66c0.02-0.158,0.034-0.317,0.034-0.48c0-2.139-1.772-3.873-3.957-3.873c-1.29,0-2.433,0.607-3.155,1.543c-0.185-2.381-2.358-4.218-4.9-3.913c-1.859,0.223-3.397,1.629-3.739,3.431c-0.11,0.578-0.098,1.139,0.011,1.665c-0.498-0.525-1.208-0.856-1.998-0.856c-1.446,0-2.627,1.102-2.72,2.494c-0.657-0.142-1.371-0.133-2.123,0.143c-1.438,0.528-2.462,1.853-2.522,3.356c-0.085,2.133,1.657,3.889,3.818,3.889c0.164,0,0.741,0,0.874,0h7.934 M29.958,65.163h0.36"/><path fill="#472b29" d="M39.975,65.663h-3.54c-0.276,0-0.5-0.224-0.5-0.5s0.224-0.5,0.5-0.5h3.54c1.831,0,3.32-1.453,3.32-3.239c0-1.524-1.108-2.857-2.636-3.169c-0.255-0.053-0.428-0.293-0.396-0.552c0.017-0.138,0.029-0.276,0.029-0.419c0-1.86-1.551-3.373-3.457-3.373c-1.092,0-2.098,0.491-2.76,1.349c-0.126,0.164-0.343,0.23-0.538,0.174c-0.198-0.06-0.34-0.234-0.355-0.44c-0.079-1.02-0.565-1.944-1.369-2.604c-0.828-0.68-1.886-0.979-2.973-0.854c-1.646,0.197-3.007,1.442-3.308,3.028c-0.094,0.496-0.091,0.99,0.009,1.471c0.046,0.219-0.06,0.441-0.258,0.545c-0.197,0.102-0.439,0.063-0.595-0.1c-0.427-0.451-1.008-0.699-1.635-0.699c-1.169,0-2.145,0.891-2.221,2.027c-0.01,0.146-0.082,0.279-0.198,0.366c-0.116,0.088-0.265,0.121-0.407,0.089c-0.636-0.137-1.239-0.098-1.844,0.125c-1.262,0.463-2.145,1.631-2.195,2.906c-0.035,0.874,0.282,1.707,0.895,2.344c0.635,0.66,1.496,1.024,2.424,1.024h8.807c0.276,0,0.5,0.224,0.5,0.5s-0.224,0.5-0.5,0.5h-8.807c-1.186,0-2.332-0.485-3.146-1.332c-0.802-0.834-1.218-1.927-1.173-3.076c0.068-1.675,1.213-3.204,2.85-3.806c0.612-0.224,1.242-0.308,1.881-0.244c0.345-1.396,1.629-2.424,3.135-2.424c0.5,0,0.98,0.11,1.414,0.318c0.009-0.239,0.036-0.48,0.082-0.721c0.381-2.01,2.096-3.587,4.171-3.835c1.37-0.169,2.686,0.219,3.726,1.072c0.748,0.613,1.278,1.409,1.546,2.302c0.791-0.648,1.786-1.007,2.843-1.007c2.458,0,4.457,1.962,4.457,4.373c0,0.034-0.001,0.068-0.002,0.103c1.765,0.554,3.004,2.188,3.004,4.037C44.295,63.761,42.357,65.663,39.975,65.663z M30.317,65.663h-0.359c-0.276,0-0.5-0.224-0.5-0.5s0.224-0.5,0.5-0.5h0.359c0.276,0,0.5,0.224,0.5,0.5S30.593,65.663,30.317,65.663z"/><path fill="#472b29" d="M38.267 59.86c-.018 0-.036-.002-.055-.006-.135-.03-.22-.164-.189-.299.037-.166.095-.327.171-.479.604-1.224 2.272-1.675 3.721-1.006.126.058.181.206.122.331-.058.126-.208.179-.331.122-1.205-.556-2.579-.209-3.063.774-.06.117-.103.24-.131.367C38.485 59.781 38.382 59.86 38.267 59.86zM33.109 65.663h-1.107c-.276 0-.5-.224-.5-.5s.224-.5.5-.5h1.107c.276 0 .5.224.5.5S33.385 65.663 33.109 65.663z"/><path fill="#fff" d="M72.67 29.837H62.639c-.276 0-.5-.224-.5-.5s.224-.5.5-.5H72.67c.276 0 .5.224.5.5S72.947 29.837 72.67 29.837zM75.551 29.837h-1.446c-.276 0-.5-.224-.5-.5s.224-.5.5-.5h1.446c.276 0 .5.224.5.5S75.828 29.837 75.551 29.837zM79.606 29.837H77.06c-.276 0-.5-.224-.5-.5s.224-.5.5-.5h2.546c.276 0 .5.224.5.5S79.882 29.837 79.606 29.837zM77.58 26.108h-9.616c-.276 0-.5-.224-.5-.5s.224-.5.5-.5h9.616c.276 0 .5.224.5.5S77.856 26.108 77.58 26.108zM66.232 26.108h-.58c-.276 0-.5-.224-.5-.5s.224-.5.5-.5h.58c.276 0 .5.224.5.5S66.508 26.108 66.232 26.108zM63.855 26.108h-1.456c-.276 0-.5-.224-.5-.5s.224-.5.5-.5h1.456c.276 0 .5.224.5.5S64.131 26.108 63.855 26.108zM75.017 27.973H69.99c-.276 0-.5-.224-.5-.5s.224-.5.5-.5h5.027c.276 0 .5.224.5.5S75.294 27.973 75.017 27.973z"/><path fill="#fff" d="M75.017 26.108h-1.258c-.276 0-.5-.224-.5-.5s.224-.5.5-.5h1.258c.276 0 .5.224.5.5S75.294 26.108 75.017 26.108zM68.534 27.973h-1.758c-.276 0-.5-.224-.5-.5s.224-.5.5-.5h1.758c.276 0 .5.224.5.5S68.81 27.973 68.534 27.973z"/><path fill="#78a0cf" d="M52.605,62.904c6.811,0,12.957,2.835,17.335,7.383c4.164-4.326,6.729-10.202,6.729-16.681c0-13.29-10.774-24.064-24.064-24.064S28.541,40.315,28.541,53.605c0,6.479,2.565,12.355,6.729,16.681C39.648,65.738,45.794,62.904,52.605,62.904z"/><path fill="#472b29" d="M69.94,70.987c-0.19,0-0.372-0.078-0.504-0.215c-4.449-4.622-10.427-7.168-16.831-7.168s-12.382,2.546-16.831,7.168c-0.264,0.273-0.744,0.273-1.008,0c-4.466-4.639-6.925-10.735-6.925-17.167c0-13.654,11.109-24.764,24.764-24.764c13.655,0,24.765,11.109,24.765,24.764c0,6.431-2.46,12.527-6.926,17.167C70.312,70.909,70.13,70.987,69.94,70.987z M52.605,62.204c6.543,0,12.664,2.506,17.32,7.073c3.903-4.308,6.044-9.844,6.044-15.672c0-12.883-10.481-23.363-23.364-23.363s-23.363,10.48-23.363,23.363c0,5.828,2.141,11.365,6.043,15.672C39.941,64.71,46.062,62.204,52.605,62.204z"/><path fill="#fdfcee" d="M56.595,53.69h16.49c-0.297-11.512-9.349-20.751-20.48-20.751c-11.131,0-20.183,9.239-20.48,20.751h14.832"/><path fill="#472b29" d="M73.086,54.04h-16.49c-0.193,0-0.35-0.156-0.35-0.35s0.156-0.35,0.35-0.35h16.128c-0.47-11.272-9.241-20.052-20.118-20.052S32.957,42.068,32.488,53.34h14.47c0.193,0,0.35,0.156,0.35,0.35s-0.156,0.35-0.35,0.35H32.126c-0.095,0-0.185-0.038-0.251-0.105c-0.065-0.067-0.102-0.159-0.099-0.253c0.305-11.827,9.454-21.092,20.829-21.092s20.524,9.265,20.83,21.092c0.003,0.094-0.033,0.186-0.099,0.253C73.27,54.002,73.18,54.04,73.086,54.04z"/><path fill="#ee3e54" d="M53.154,58.603L53.154,58.603c-1.567,0.564-2.835-0.666-2.847-1.524L47.54,39.043c-0.165-0.786,0.239-1.542,0.898-1.681h0c0.66-0.139,1.335,0.39,1.5,1.176l4.739,17.621C54.842,56.945,54.543,58.247,53.154,58.603z"/><path fill="#472b29" d="M52.363 59.094c-.513 0-1.012-.153-1.443-.452-.576-.399-.954-1.011-.961-1.558l-2.765-17.988c-.104-.493-.015-1.021.252-1.429.222-.34.548-.57.92-.648.419-.084.855.02 1.224.309.349.273.595.678.691 1.138l4.734 17.604c.188.896-.128 2.441-1.758 2.869C52.962 59.043 52.66 59.094 52.363 59.094zM48.65 37.69c-.047 0-.094.005-.14.015-.242.051-.394.216-.479.345-.165.254-.22.59-.149.922l2.771 18.056c.008.308.216.729.664 1.04.293.202.903.498 1.719.207.01-.004.021-.007.031-.01 1.171-.301 1.398-1.406 1.267-2.032L49.6 38.629c-.067-.318-.223-.577-.442-.75C48.999 37.754 48.823 37.69 48.65 37.69zM52.504 36.875c-.138 0-.25-.112-.25-.25v-3.589c0-.138.112-.25.25-.25s.25.112.25.25v3.589C52.754 36.762 52.641 36.875 52.504 36.875zM72.797 51.566h-3.59c-.138 0-.25-.112-.25-.25s.112-.25.25-.25h3.59c.138 0 .25.112.25.25S72.935 51.566 72.797 51.566zM35.904 51.566h-3.589c-.138 0-.25-.112-.25-.25s.112-.25.25-.25h3.589c.138 0 .25.112.25.25S36.042 51.566 35.904 51.566zM66.19 41.572c-.077 0-.152-.035-.201-.103-.082-.111-.058-.268.054-.349l1.629-1.194c.108-.083.267-.06.349.054.082.111.058.268-.054.349l-1.629 1.194C66.294 41.556 66.242 41.572 66.19 41.572zM40.08 39.802c-.07 0-.141-.03-.19-.088l-.824-.968c-.09-.105-.077-.263.028-.353.104-.089.263-.076.353.028l.824.968c.09.105.077.263-.028.353C40.195 39.783 40.137 39.802 40.08 39.802z"/><path fill="#fdfcef" d="M74.763,74.583h10.151c0.171,0,0.908,0,1.118,0c2.765,0,4.993-2.295,4.885-5.085c-0.077-1.964-1.387-3.696-3.227-4.387c-0.963-0.361-1.877-0.373-2.717-0.188c-0.119-1.82-1.63-3.261-3.48-3.261c-1.011,0-1.919,0.432-2.557,1.119c0.14-0.688,0.154-1.422,0.014-2.177c-0.438-2.356-2.405-4.195-4.784-4.486c-3.253-0.398-6.033,2.004-6.27,5.116c-0.924-1.223-2.386-2.017-4.037-2.017c-2.796,0-5.063,2.267-5.063,5.063c0,0.213,0.017,0.422,0.043,0.628c-2.218,0.463-3.884,2.429-3.884,4.784c0,2.7,2.189,4.889,4.888,4.889c0.071,0,11.762,0,11.762,0"/><path fill="#472b29" d="M86.032,75.084h-11.27c-0.276,0-0.5-0.224-0.5-0.5s0.224-0.5,0.5-0.5h11.27c1.204,0,2.327-0.479,3.163-1.347c0.835-0.868,1.269-2.012,1.222-3.219c-0.067-1.729-1.234-3.312-2.903-3.938c-0.794-0.298-1.59-0.352-2.434-0.167c-0.139,0.032-0.29,0.001-0.407-0.089c-0.117-0.087-0.189-0.222-0.199-0.367c-0.103-1.566-1.412-2.793-2.98-2.793c-0.839,0-1.616,0.341-2.19,0.959c-0.153,0.164-0.398,0.207-0.595,0.105c-0.199-0.103-0.306-0.325-0.262-0.545c0.133-0.651,0.137-1.319,0.013-1.986c-0.397-2.138-2.187-3.815-4.353-4.081c-1.409-0.173-2.777,0.221-3.859,1.108c-1.072,0.878-1.747,2.172-1.852,3.55c-0.017,0.207-0.159,0.383-0.358,0.441c-0.198,0.059-0.414-0.013-0.54-0.178c-0.872-1.155-2.198-1.818-3.637-1.818c-2.517,0-4.563,2.047-4.563,4.562c0,0.193,0.017,0.381,0.039,0.566c0.032,0.259-0.14,0.498-0.394,0.551c-2.021,0.423-3.486,2.229-3.486,4.296c0,2.42,1.969,4.389,4.389,4.389h11.762c0.276,0,0.5,0.224,0.5,0.5s-0.224,0.5-0.5,0.5H59.844c-2.972,0-5.389-2.417-5.389-5.389c0-2.387,1.594-4.491,3.848-5.165c-0.005-0.082-0.007-0.164-0.007-0.248c0-3.067,2.496-5.562,5.563-5.562c1.395,0,2.701,0.51,3.713,1.426c0.322-1.243,1.035-2.372,2.04-3.194c1.296-1.062,2.935-1.539,4.614-1.327c2.595,0.317,4.738,2.328,5.214,4.891c0.072,0.386,0.108,0.773,0.107,1.159c0.59-0.33,1.26-0.51,1.944-0.51c1.908,0,3.527,1.359,3.904,3.182c0.842-0.1,1.668-0.002,2.468,0.299c2.041,0.766,3.468,2.709,3.552,4.835c0.058,1.481-0.476,2.885-1.501,3.951C88.889,74.497,87.51,75.084,86.032,75.084z"/><path fill="#fdfcef" d="M74.439,63.814c1.808-0.119,3.365,1.13,3.476,2.789c0.014,0.206,0.005,0.409-0.025,0.606c0.349-0.394,0.865-0.661,1.458-0.7c1.085-0.071,2.022,0.645,2.158,1.62c0.197-0.054,0.403-0.09,0.616-0.104c1.582-0.104,2.944,0.989,3.042,2.441"/><path fill="#472b29" d="M85.164,70.715c-0.131,0-0.24-0.102-0.249-0.233c-0.089-1.312-1.331-2.294-2.776-2.208c-0.186,0.013-0.376,0.045-0.567,0.097c-0.068,0.018-0.144,0.008-0.203-0.032s-0.1-0.104-0.11-0.175c-0.117-0.85-0.941-1.462-1.893-1.405c-0.5,0.033-0.97,0.258-1.287,0.617c-0.074,0.082-0.193,0.107-0.294,0.061s-0.157-0.155-0.141-0.265c0.027-0.18,0.035-0.365,0.023-0.551c-0.102-1.519-1.538-2.645-3.211-2.558c-0.156,0.028-0.258-0.096-0.266-0.232c-0.01-0.138,0.095-0.257,0.232-0.266c1.975-0.132,3.623,1.229,3.742,3.022c0.002,0.019,0.003,0.036,0.004,0.055c0.34-0.222,0.737-0.354,1.163-0.382c1.108-0.08,2.091,0.6,2.365,1.568c0.138-0.026,0.274-0.045,0.409-0.053c1.722-0.112,3.201,1.087,3.307,2.673c0.01,0.138-0.095,0.257-0.232,0.266C85.174,70.715,85.17,70.715,85.164,70.715z"/><path fill="#fdfcef" d="M57.865,65.483c1.699-0.801,3.664-0.234,4.389,1.267c0.09,0.186,0.157,0.379,0.201,0.574"/><path fill="#472b29" d="M62.455,67.573c-0.114,0-0.217-0.078-0.243-0.193c-0.042-0.181-0.104-0.356-0.184-0.521c-0.662-1.374-2.481-1.892-4.057-1.148c-0.123,0.057-0.273,0.006-0.333-0.12c-0.059-0.125-0.005-0.273,0.12-0.333c1.821-0.857,3.938-0.237,4.721,1.385c0.096,0.198,0.169,0.409,0.219,0.625c0.031,0.135-0.053,0.27-0.187,0.3C62.492,67.571,62.473,67.573,62.455,67.573z"/><path fill="#8e9db5" d="M47.502,67.335c-2.976,0-5.388,2.412-5.388,5.388s2.412,5.388,5.388,5.388c2.976,0,5.388-2.412,5.388-5.388S50.478,67.335,47.502,67.335z M49.16,75.594h-3.315l-1.657-2.87l1.657-2.87h3.315l1.657,2.87L49.16,75.594z"/><path fill="#472b29" d="M47.503,78.612c-3.247,0-5.889-2.642-5.889-5.889c0-3.246,2.642-5.888,5.889-5.888s5.889,2.642,5.889,5.888C53.391,75.97,50.75,78.612,47.503,78.612z M47.503,67.836c-2.695,0-4.889,2.192-4.889,4.888s2.193,4.889,4.889,4.889s4.889-2.193,4.889-4.889S50.198,67.836,47.503,67.836z"/><path fill="#472b29" d="M49.16,75.844h-3.314c-0.089,0-0.172-0.048-0.217-0.125l-1.657-2.871c-0.044-0.077-0.044-0.173,0-0.25l1.657-2.87c0.045-0.077,0.128-0.125,0.217-0.125h3.314c0.089,0,0.172,0.048,0.217,0.125l1.657,2.87c0.044,0.077,0.044,0.173,0,0.25l-1.657,2.871C49.332,75.796,49.249,75.844,49.16,75.844z M45.99,75.344h3.025l1.513-2.621l-1.513-2.62H45.99l-1.513,2.62L45.99,75.344z"/><path fill="#7c8ba2" d="M79.521,58.621l0.199,0.206c0.291,0.301,0.284,0.785-0.017,1.077L61.438,77.589c-0.301,0.291-0.785,0.284-1.077-0.017l-0.199-0.206c-0.291-0.301-0.284-0.785,0.017-1.077l18.265-17.685C78.745,58.312,79.23,58.32,79.521,58.621z"/><path fill="#472b29" d="M60.909,78.052c-0.265,0-0.529-0.104-0.728-0.308l-0.199-0.205c-0.188-0.193-0.288-0.449-0.283-0.72c0.004-0.271,0.113-0.523,0.307-0.711l18.266-17.686c0.193-0.188,0.47-0.302,0.72-0.283c0.271,0.004,0.522,0.113,0.71,0.307l0,0l0.199,0.206c0.188,0.193,0.288,0.449,0.283,0.72c-0.004,0.271-0.113,0.522-0.307,0.71L61.612,77.768C61.416,77.958,61.163,78.052,60.909,78.052z M78.974,58.64c-0.134,0-0.26,0.05-0.355,0.143L60.353,76.468c-0.098,0.095-0.152,0.222-0.154,0.359c-0.003,0.138,0.048,0.267,0.143,0.364l0.199,0.205c0.196,0.201,0.521,0.207,0.724,0.012l18.265-17.686c0.098-0.095,0.152-0.222,0.154-0.358c0.003-0.138-0.048-0.267-0.143-0.364l-0.199-0.206c-0.095-0.098-0.222-0.152-0.358-0.154C78.98,58.64,78.977,58.64,78.974,58.64z"/><path fill="#ee3e54" d="M76.618,65.665l8.423-8.156c1.286-1.245,1.709-3.13,0.845-4.35c-1.032-1.456-3.306-1.365-4.822,0.102l-8.493,8.224L76.618,65.665z"/><path fill="#472b29" d="M76.618,66.041c-0.002,0-0.004,0-0.006,0c-0.1-0.002-0.194-0.043-0.264-0.114L72.3,61.746c-0.144-0.148-0.14-0.386,0.009-0.53l8.493-8.224c0.911-0.883,2.135-1.345,3.264-1.239c0.886,0.082,1.641,0.505,2.125,1.189c0.953,1.344,0.57,3.424-0.89,4.837l-8.423,8.156C76.808,66.003,76.715,66.041,76.618,66.041z M73.1,61.494l3.526,3.642l8.153-7.896c1.177-1.139,1.528-2.837,0.8-3.864c-0.457-0.646-1.113-0.833-1.583-0.877c-0.908-0.085-1.916,0.301-2.673,1.032L73.1,61.494z"/><path fill="#8e9db5" d="M60.612 78.547L59.179 77.067 62.087 73.193 63.299 73.194 64.558 74.494 64.578 75.765z"/><path fill="#472b29" d="M60.612,78.797c-0.065,0-0.131-0.025-0.18-0.076L59,77.242c-0.085-0.088-0.094-0.226-0.021-0.324l2.908-3.875c0.048-0.062,0.121-0.1,0.2-0.1l0,0l1.212,0.001c0.067,0,0.133,0.027,0.18,0.076l1.259,1.3c0.044,0.046,0.069,0.106,0.07,0.17l0.02,1.271c0.001,0.083-0.039,0.161-0.106,0.209l-3.966,2.782C60.712,78.783,60.662,78.797,60.612,78.797z M59.507,77.047l1.136,1.173l3.683-2.584l-0.016-1.04l-1.117-1.152l-0.98-0.001L59.507,77.047z"/><path fill="#aa172f" d="M83.723,56.145l0.148,0.153c0.216,0.223,0.21,0.583-0.013,0.799L77.5,63.253c-0.223,0.216-0.583,0.21-0.799-0.013l-0.148-0.153c-0.216-0.223-0.21-0.583,0.013-0.799l6.358-6.156C83.147,55.916,83.507,55.922,83.723,56.145z"/><path fill="#472b29" d="M77.107,63.512c-0.174,0-0.348-0.067-0.478-0.202l-0.148-0.153c-0.123-0.126-0.189-0.294-0.187-0.473s0.074-0.345,0.202-0.468l6.358-6.156c0.263-0.255,0.684-0.248,0.94,0.016l0,0l0.147,0.152c0.123,0.127,0.189,0.295,0.187,0.474c-0.003,0.178-0.074,0.344-0.202,0.468l-6.358,6.156C77.441,63.45,77.274,63.512,77.107,63.512z M83.317,56.074c-0.116,0-0.232,0.043-0.323,0.131l-6.358,6.156c-0.089,0.086-0.139,0.201-0.141,0.326s0.044,0.242,0.13,0.331l0.148,0.153c0.178,0.184,0.474,0.189,0.657,0.01l6.358-6.156c0.089-0.086,0.139-0.202,0.141-0.327c0.002-0.124-0.044-0.242-0.131-0.331l-0.147-0.152C83.56,56.121,83.439,56.074,83.317,56.074z"/><path fill="#aa172f" d="M81.082,54.801l0.285-0.276c0.223-0.216,0.583-0.21,0.799,0.013l0.148,0.153c0.216,0.223,0.21,0.583-0.013,0.799l-6.358,6.156c-0.223,0.216-0.583,0.21-0.799-0.013l-0.148-0.153c-0.216-0.223-0.21-0.583,0.013-0.799l5.057-4.896"/><path fill="#472b29" d="M75.55 61.904c-.004 0-.007 0-.011 0-.179-.003-.345-.074-.468-.202l-.147-.152c-.123-.127-.189-.296-.187-.474s.075-.344.202-.467l5.057-4.896c.039-.039.101-.038.142.003.038.039.037.103-.003.142l-5.057 4.896c-.089.085-.139.201-.141.325-.002.125.044.243.131.332l.147.152c.086.089.201.139.326.141.118-.001.242-.044.331-.13l6.358-6.157c.089-.085.139-.201.141-.325.002-.125-.044-.243-.131-.332l-.147-.152c-.086-.089-.202-.139-.327-.141-.002 0-.005 0-.007 0-.122 0-.237.046-.324.131l-.285.275c-.04.037-.104.037-.142-.003s-.037-.103.003-.142l.285-.275c.263-.255.685-.248.941.016l.147.152c.123.127.189.296.187.474s-.075.344-.202.467l-6.358 6.156C75.888 61.837 75.724 61.904 75.55 61.904zM35.633 44.64c-.025 0-.051-.008-.072-.023l-.915-.65c-.057-.04-.069-.118-.029-.174.04-.058.118-.069.174-.029l.915.65c.057.04.069.118.029.174C35.711 44.622 35.672 44.64 35.633 44.64zM70.051 45.956c-.039 0-.077-.019-.102-.053-.04-.056-.027-.134.029-.174l.915-.65c.054-.041.134-.027.174.029.04.056.027.134-.029.174l-.915.65C70.102 45.948 70.077 45.956 70.051 45.956zM45.14 35.828c-.049 0-.095-.028-.115-.075L44.65 34.88c-.027-.063.002-.138.065-.165.065-.026.139.003.165.065l.375.872c.027.063-.002.138-.065.165C45.173 35.825 45.157 35.828 45.14 35.828zM61.374 36.469c-.017 0-.033-.003-.05-.01-.063-.027-.093-.102-.065-.165l.375-.872c.028-.062.1-.092.165-.065.063.027.093.102.065.165l-.375.872C61.468 36.441 61.422 36.469 61.374 36.469z"/></svg>