<svg xmlns="http://www.w3.org/2000/svg" viewBox="0 0 172 172" width="50px" height="50px"><g style="mix-blend-mode:normal" fill="none" stroke-miterlimit="10" font-family="none" font-size="none" font-weight="none" text-anchor="none"><path d="M0,172v-172h172v172z"/><path fill="#3498db" d="M94.0625,18.8125c1.47812,0 2.6875,1.20938 2.6875,2.6875v40.3125h18.8125c1.47812,0 2.6875,1.20938 2.6875,2.6875v18.8125h0.26245c0.13706,0.00806 5.62191,0.08877 9.86816,-3.13892c-2.6445,-4.70581 -7.05229,-16.74237 3.93152,-33.28931c0.39506,-0.59663 1.00974,-1.00454 1.71118,-1.14429c0.69606,-0.14244 1.42694,0.00374 2.02087,0.40418c0.63156,0.42463 13.55315,9.2463 12.98608,21.55774c5.60612,-1.74419 13.75534,-1.61565 22.03015,5.50623c0.84387,0.72563 1.1531,1.89927 0.77685,2.9447c-0.0645,0.17469 -6.41914,17.10669 -27.48913,15.42163c-0.12045,0.30039 -0.25549,0.63068 -0.40548,0.98888c-1.56915,-0.9606 -3.43838,-1.3604 -5.35683,-1.09524c0.95263,-2.20164 1.40835,-3.53818 1.43711,-3.62569c0.40312,-1.22819 1.61515,-1.9961 2.91321,-1.82141c14.68181,1.96725 20.99265,-6.29333 23.04321,-9.99939c-10.43287,-7.71581 -18.7252,-1.61006 -19.0907,-1.33325c-0.95944,0.72831 -2.30021,0.73625 -3.25964,0.00525c-0.95944,-0.731 -1.32271,-2.00773 -0.87658,-3.12842c3.37012,-8.471 -3.69292,-15.98029 -7.49036,-19.24292c-9.47881,16.37225 -1.39569,26.47624 -1.30701,26.58105c0.86,1.04006 0.81939,2.55678 -0.09973,3.54309c-5.99044,6.44462 -15.02657,6.24672 -15.42163,6.23059h-2.81873c-0.01848,0.00038 -0.03392,0.0105 -0.05249,0.0105h-109.73083c-0.731,5.49056 -1.67729,20.71979 7.62683,33.40479c8.43337,11.49712 23.1285,18.22515 43.67713,19.99353c2.71975,0.23381 5.37009,0.34375 7.93127,0.34643c15.30158,0.00146 27.80817,-3.98682 37.91265,-9.80805c0.38281,0.76109 0.88932,1.46417 1.50911,2.08396l2.06234,2.06234c-10.9498,6.52238 -24.60472,11.042 -41.42111,11.042c-2.73856,0 -5.5483,-0.12006 -8.45618,-0.37268c-22.19069,-1.90813 -38.2029,-9.3863 -47.58765,-22.21912c-12.95106,-17.71331 -8.35855,-38.9189 -8.15698,-39.81384c0.2795,-1.2255 1.36945,-2.09436 2.62451,-2.09436h1.82141v-18.8125c0,-1.47812 1.20938,-2.6875 2.6875,-2.6875h18.8125v-18.8125c0,-1.47812 1.20937,-2.6875 2.6875,-2.6875h40.3125v-18.8125c0,-1.47812 1.20937,-2.6875 2.6875,-2.6875zM75.25,40.3125h16.125v-16.125h-16.125zM32.25,61.8125h16.125v-8.0625c0,-1.4835 1.204,-2.6875 2.6875,-2.6875c1.4835,0 2.6875,1.204 2.6875,2.6875v8.0625h16.125v-16.125h-37.625zM75.25,61.8125h8.0625c1.47813,0 2.6875,1.20938 2.6875,2.6875c0,1.47813 -1.20937,2.6875 -2.6875,2.6875h-8.0625v16.125h16.125v-37.625h-16.125zM10.75,83.3125h16.125v-16.125h-16.125zM32.25,83.3125h16.125v-16.125h-16.125zM53.75,83.3125h16.125v-16.125h-16.125zM96.75,83.3125h16.125v-16.125h-16.125zM40.3125,108.84375c0,3.71066 -3.00809,6.71875 -6.71875,6.71875c-3.71066,0 -6.71875,-3.00809 -6.71875,-6.71875c0,-3.71066 3.00809,-6.71875 6.71875,-6.71875c3.71066,0 6.71875,3.00809 6.71875,6.71875zM115.60449,104.12488l4.09949,3.47485c0.08889,0.07538 0.17165,0.15531 0.24823,0.23916l-3.80252,3.80252l-4.02005,-3.41704c-1.13144,-0.95944 -1.27438,-2.65567 -0.31494,-3.78979c0.47972,-0.56437 1.14626,-0.88246 1.83191,-0.93957c0.68565,-0.05711 1.39082,0.14882 1.95789,0.62988zM106.64966,113.60986l3.37063,4.16095l-3.78324,3.78324c-0.13682,-0.11314 -0.26433,-0.24174 -0.37999,-0.38559l-3.38037,-4.17822c-0.93525,-1.15294 -0.75926,-2.84149 0.39368,-3.77405c0.57512,-0.46762 1.28442,-0.65945 1.96838,-0.58789c0.68397,0.07155 1.34329,0.4051 1.81091,0.98157zM96.09912,121.16846l2.43555,4.78711c0.67188,1.32225 0.14916,2.94201 -1.17578,3.61658c-0.38968,0.19619 -0.80659,0.2887 -1.21777,0.28869c-0.97825,0 -1.92055,-0.5346 -2.39356,-1.46448l-2.4408,-4.79236c-0.67187,-1.32225 -0.14916,-2.94202 1.17578,-3.61658c0.33056,-0.16931 0.68065,-0.264 1.02881,-0.2887c1.04447,-0.07407 2.08185,0.47804 2.58777,1.46973zM84.19434,126.27051l1.34375,5.20703c0.37087,1.43781 -0.49383,2.90452 -1.93164,3.27539c-0.22306,0.05912 -0.44881,0.08398 -0.67187,0.08398c-1.19594,0 -2.28383,-0.80356 -2.59827,-2.01562l-1.34375,-5.20703c-0.37087,-1.43781 0.48858,-2.89927 1.92639,-3.27014c0.35878,-0.09205 0.72038,-0.10926 1.06555,-0.05774c1.03553,0.15457 1.93168,0.90779 2.20984,1.98413zM71.43396,128.72705l0.2782,5.36975c0.07525,1.4835 -1.06753,2.74348 -2.55103,2.81873c-0.04569,0 -0.09079,0.00525 -0.13647,0.00525c-1.42169,0 -2.60969,-1.1159 -2.68225,-2.55103l-0.27295,-5.36975c-0.07525,-1.4835 1.06228,-2.74348 2.54578,-2.81873c1.45663,-0.06719 2.74348,1.06228 2.81873,2.54578z"/><path fill="#3498db" d="M141.643,97.55236l29.56938,29.53713c0.50537,0.50268 0.78762,1.18546 0.78762,1.9005c0,0.71235 -0.28225,1.39783 -0.78762,1.9005l-10.7525,10.7525c-1.04837,1.04837 -2.75264,1.04837 -3.80101,0l-6.16387,-6.16387v33.83275c0,1.48385 -1.20428,2.68813 -2.68813,2.68813h-16.12875c-1.48385,0 -2.68813,-1.20428 -2.68813,-2.68813v-33.83275l-6.16387,6.16387c-1.04837,1.04837 -2.75264,1.04837 -3.80101,0l-10.73637,-10.73637c-1.04837,-1.04837 -1.04837,-2.75264 0,-3.80101l29.55325,-29.55325c0.52418,-0.52687 1.21234,-0.78762 1.9005,-0.78762c0.68816,0 1.37632,0.26075 1.9005,0.78762zM120.92561,135.94148l8.852,-8.852c0.7688,-0.7688 1.92201,-0.99998 2.93006,-0.58332c1.00267,0.41397 1.65857,1.39783 1.65857,2.48383v37.63376h10.7525v-37.63376c0,-1.086 0.6559,-2.06986 1.65857,-2.48383c1.00536,-0.41666 2.15856,-0.18548 2.93006,0.58332l8.852,8.852l6.94881,-6.95149l-25.76569,-25.73612l-25.75493,25.75224z"/></g></svg>