<svg xmlns="http://www.w3.org/2000/svg" viewBox="0 0 172 172" width="50px" height="50px"><g style="mix-blend-mode:normal" fill="none" stroke-miterlimit="10" font-family="none" font-size="none" font-weight="none" text-anchor="none"><path d="M0,172v-172h172v172z"/><path fill="#3498db" d="M94.0625,18.8125c1.47812,0 2.6875,1.20938 2.6875,2.6875v40.3125h18.8125c1.47812,0 2.6875,1.20938 2.6875,2.6875v18.8125h0.26245c0.13706,0.00806 5.62191,0.08877 9.86816,-3.13892c-2.6445,-4.70581 -7.05229,-16.74237 3.93152,-33.28931c0.39506,-0.59663 1.00974,-1.00454 1.71118,-1.14429c0.69606,-0.14244 1.42694,0.00374 2.02087,0.40418c0.63156,0.42463 13.55315,9.2463 12.98608,21.55774c5.60612,-1.74419 13.75534,-1.61565 22.03015,5.50623c0.84387,0.72563 1.1531,1.89927 0.77685,2.9447c-0.05872,0.15903 -5.33079,14.20675 -22.1734,15.4516c-0.59636,-0.14111 -1.21808,-0.2158 -1.8569,-0.2158h-9.18681c0.92925,-2.15431 1.37437,-3.45978 1.40278,-3.54622c0.40312,-1.22819 1.61515,-1.9961 2.91321,-1.82141c14.68181,1.96725 20.99265,-6.29333 23.04321,-9.99939c-10.43287,-7.71581 -18.7252,-1.61006 -19.0907,-1.33325c-0.95944,0.72831 -2.30021,0.73625 -3.25964,0.00525c-0.95944,-0.731 -1.32271,-2.00773 -0.87658,-3.12842c3.37012,-8.471 -3.69292,-15.98029 -7.49036,-19.24292c-9.47881,16.37225 -1.39569,26.47624 -1.30701,26.58105c0.86,1.04006 0.81939,2.55678 -0.09973,3.54309c-5.99044,6.44462 -15.02657,6.24672 -15.42163,6.23059h-2.81873c-0.01848,0.00038 -0.03392,0.0105 -0.05249,0.0105h-109.73083c-0.731,5.49056 -1.67729,20.71979 7.62683,33.40479c8.43337,11.49712 23.1285,18.22515 43.67713,19.99353c2.71975,0.23381 5.37009,0.34375 7.93127,0.34643c20.33066,0.00194 35.7272,-7.03941 47.11111,-16.06516l-7.68937,7.68937c-1.39324,1.39324 -2.21371,3.20427 -2.34436,5.14974c-10.1453,5.18498 -22.38324,8.60629 -37.01439,8.60629c-2.73856,0 -5.5483,-0.12006 -8.45618,-0.37268c-22.19069,-1.90813 -38.2029,-9.3863 -47.58765,-22.21912c-12.95106,-17.71331 -8.35855,-38.9189 -8.15698,-39.81384c0.2795,-1.2255 1.36945,-2.09436 2.62451,-2.09436h1.82141v-18.8125c0,-1.47812 1.20938,-2.6875 2.6875,-2.6875h18.8125v-18.8125c0,-1.47812 1.20937,-2.6875 2.6875,-2.6875h40.3125v-18.8125c0,-1.47812 1.20937,-2.6875 2.6875,-2.6875zM75.25,40.3125h16.125v-16.125h-16.125zM32.25,61.8125h16.125v-8.0625c0,-1.4835 1.204,-2.6875 2.6875,-2.6875c1.4835,0 2.6875,1.204 2.6875,2.6875v8.0625h16.125v-16.125h-37.625zM75.25,61.8125h8.0625c1.47813,0 2.6875,1.20938 2.6875,2.6875c0,1.47813 -1.20937,2.6875 -2.6875,2.6875h-8.0625v16.125h16.125v-37.625h-16.125zM10.75,83.3125h16.125v-16.125h-16.125zM32.25,83.3125h16.125v-16.125h-16.125zM53.75,83.3125h16.125v-16.125h-16.125zM96.75,83.3125h16.125v-16.125h-16.125zM40.3125,108.84375c0,3.71066 -3.00809,6.71875 -6.71875,6.71875c-3.71066,0 -6.71875,-3.00809 -6.71875,-6.71875c0,-3.71066 3.00809,-6.71875 6.71875,-6.71875c3.71066,0 6.71875,3.00809 6.71875,6.71875zM115.60449,104.12488l4.09949,3.47485c1.13144,0.95944 1.26913,2.65567 0.30969,3.7898c-0.53481,0.62619 -1.28912,0.95007 -2.05237,0.95007c-0.61544,0 -1.23218,-0.20782 -1.73743,-0.63513l-4.09424,-3.4801c-1.13144,-0.95944 -1.27438,-2.65567 -0.31494,-3.78979c0.47972,-0.56437 1.14626,-0.88246 1.83191,-0.93957c0.68565,-0.05711 1.39082,0.14882 1.95789,0.62988zM106.64966,113.60986l3.38037,4.17297c0.93525,1.15294 0.75926,2.84673 -0.39368,3.7793c-0.49988,0.40581 -1.09625,0.60364 -1.69018,0.60364c-0.78206,0 -1.55967,-0.33887 -2.08911,-0.99731l-3.38037,-4.17822c-0.93525,-1.15294 -0.75926,-2.84149 0.39368,-3.77405c0.57512,-0.46762 1.28442,-0.65945 1.96838,-0.58789c0.68397,0.07155 1.34329,0.4051 1.81091,0.98157zM96.09912,121.16846l2.43555,4.78711c0.67188,1.32225 0.14916,2.94201 -1.17578,3.61658c-0.38968,0.19619 -0.80659,0.2887 -1.21777,0.28869c-0.97825,0 -1.92055,-0.5346 -2.39356,-1.46448l-2.4408,-4.79236c-0.67187,-1.32225 -0.14916,-2.94202 1.17578,-3.61658c0.33056,-0.16931 0.68065,-0.264 1.02881,-0.2887c1.04447,-0.07407 2.08185,0.47804 2.58777,1.46973zM84.19434,126.27051l1.34375,5.20703c0.37087,1.43781 -0.49383,2.90452 -1.93164,3.27539c-0.22306,0.05912 -0.44881,0.08398 -0.67187,0.08398c-1.19594,0 -2.28383,-0.80356 -2.59827,-2.01562l-1.34375,-5.20703c-0.37087,-1.43781 0.48858,-2.89927 1.92639,-3.27014c0.35878,-0.09205 0.72038,-0.10926 1.06555,-0.05774c1.03553,0.15457 1.93168,0.90779 2.20984,1.98413zM71.43396,128.72705l0.2782,5.36975c0.07525,1.4835 -1.06753,2.74348 -2.55103,2.81873c-0.04569,0 -0.09079,0.00525 -0.13647,0.00525c-1.42169,0 -2.60969,-1.1159 -2.68225,-2.55103l-0.27295,-5.36975c-0.07525,-1.4835 1.06228,-2.74348 2.54578,-2.81873c1.45663,-0.06719 2.74348,1.06228 2.81873,2.54578zM123.6143,121.41444c-0.85212,-0.30106 -1.758,-0.45697 -2.68808,-0.45697c-1.17775,0 -2.3177,0.25093 -3.35782,0.72772c2.19574,-2.08321 4.20785,-4.2205 6.04589,-6.35936z"/><path fill="#3498db" d="M139.74309,172c-0.68815,0 -1.37629,-0.26343 -1.90047,-0.78761l-29.55271,-29.55271c-1.05104,-1.05104 -1.05104,-2.7499 0,-3.80094l10.73618,-10.73618c1.05104,-1.05104 2.7499,-1.05104 3.80094,0l6.16376,6.16376v-33.83212c0,-1.48651 1.20426,-2.68808 2.68808,-2.68808h16.12846c1.48382,0 2.68808,1.20157 2.68808,2.68808v33.83212l6.16376,-6.16376c1.05104,-1.05104 2.7499,-1.05104 3.80094,0l10.7523,10.7523c0.50536,0.50267 0.78761,1.18813 0.78761,1.90047c0,0.71503 -0.28225,1.3978 -0.78761,1.90047l-29.56884,29.53658c-0.52417,0.52686 -1.21232,0.78761 -1.90047,0.78761zM113.99132,139.75922l25.75177,25.75177l25.76521,-25.73564l-6.94868,-6.95136l-8.85183,8.85183c-0.77148,0.76879 -1.92466,0.99996 -2.93,0.58331c-1.00265,-0.41396 -1.65854,-1.3978 -1.65854,-2.48378v-37.63306h-10.7523v37.63306c0,1.08598 -0.65589,2.06982 -1.65854,2.48378c-1.00803,0.41665 -2.16121,0.18548 -2.93,-0.58331l-8.85183,-8.85183z"/></g></svg>