<svg xmlns="http://www.w3.org/2000/svg" viewBox="0 0 80 80" width="50px" height="50px"><path fill="#e1ebf2" d="M20.5 2.5H51.5V15.5H20.5z"/><path fill="#788b9c" d="M51,3v12H21V3H51 M52,2H20v14h32V2L52,2z"/><path fill="#e1ebf2" d="M8.5 8.5H63.5V77.5H8.5z"/><path fill="#788b9c" d="M63,9v68H9V9H63 M64,8H8v70h56V8L64,8z"/><path fill="#8bb7f0" d="M30.5 52.5H41.5V57.5H30.5z"/><path fill="#4e7ab5" d="M41,53v4H31v-4H41 M42,52H30v6h12V52L42,52z"/><path fill="#8bb7f0" d="M30.5 40.5H41.5V45.5H30.5z"/><path fill="#4e7ab5" d="M41,41v4H31v-4H41 M42,40H30v6h12V40L42,40z"/><path fill="#8bb7f0" d="M30.5 28.5H41.5V33.5H30.5z"/><path fill="#4e7ab5" d="M41,29v4H31v-4H41 M42,28H30v6h12V28L42,28z"/><path fill="#8bb7f0" d="M30.5 16.5H41.5V21.5H30.5z"/><path fill="#4e7ab5" d="M41,17v4H31v-4H41 M42,16H30v6h12V16L42,16z"/><path fill="#8bb7f0" d="M46.5 28.5H57.5V33.5H46.5z"/><path fill="#4e7ab5" d="M57,29v4H47v-4H57 M58,28H46v6h12V28L58,28z"/><path fill="#8bb7f0" d="M46.5 16.5H57.5V21.5H46.5z"/><path fill="#4e7ab5" d="M57,17v4H47v-4H57 M58,16H46v6h12V16L58,16z"/><g><path fill="#8bb7f0" d="M14.5 52.5H25.5V57.5H14.5z"/><path fill="#4e7ab5" d="M25,53v4H15v-4H25 M26,52H14v6h12V52L26,52z"/></g><g><path fill="#8bb7f0" d="M14.5 64.5H25.5V69.5H14.5z"/><path fill="#4e7ab5" d="M25,65v4H15v-4H25 M26,64H14v6h12V64L26,64z"/></g><g><path fill="#8bb7f0" d="M14.5 40.5H25.5V45.5H14.5z"/><path fill="#4e7ab5" d="M25,41v4H15v-4H25 M26,40H14v6h12V40L26,40z"/></g><g><path fill="#8bb7f0" d="M14.5 28.5H25.5V33.5H14.5z"/><path fill="#4e7ab5" d="M25,29v4H15v-4H25 M26,28H14v6h12V28L26,28z"/></g><g><path fill="#8bb7f0" d="M14.5 16.5H25.5V21.5H14.5z"/><path fill="#4e7ab5" d="M25,17v4H15v-4H25 M26,16H14v6h12V16L26,16z"/></g><g><path fill="#f78f8f" d="M27.093,77.5C25.604,75.614,24.5,72.439,24.5,70c0-4.048,3.011-8.547,5.004-10.774 c0.035,3.385,0.35,7.274,3.202,7.274c0.663,0,1.256-0.259,1.762-0.77c1.393-1.404,2.076-4.68,2.032-9.735l-0.005-0.519 c-0.096-10.372-0.238-25.897,16.536-36.163c-1.545,3.722-1.638,9.379-1.531,12.702l0.034,1.084C51.726,39.359,51.821,42.5,56,42.5 c1.983,0,3.328-2.103,3.996-6.25c0.416-2.583,0.489-5.401,0.502-7.148C63.031,31.521,67.5,37.306,67.5,42 c0,2.735-0.532,5.159-1.046,7.503c-0.508,2.31-0.986,4.492-0.986,6.911c0,1.665,0,6.086,2.532,6.086c1.799,0,2.4-1.147,2.488-5.178 C72.063,59.018,75.5,63.272,75.5,68c0,5.347-4.834,8.932-5.653,9.5H27.093z"/><path fill="#c74343" d="M52.083,20.51c-1.113,3.72-1.178,8.546-1.082,11.522l0.034,1.083C51.222,39.279,51.336,43,56,43 c2.266,0,3.776-2.244,4.49-6.67c0.336-2.087,0.451-4.32,0.49-6.031C63.487,32.973,67,37.923,67,42c0,2.68-0.526,5.077-1.035,7.396 c-0.49,2.235-0.998,4.545-0.998,7.018c0,1.801,0,6.586,3.033,6.586c2.073,0,2.754-1.379,2.94-4.408C72.595,60.584,75,64.144,75,68 c0,4.868-4.27,8.248-5.313,9H27.34C25.988,75.177,25,72.261,25,70c0-3.242,2.143-7.017,4.04-9.441 C29.18,63.708,29.817,67,32.706,67c0.79,0,1.522-0.317,2.117-0.918c1.49-1.503,2.222-4.898,2.176-10.091l-0.005-0.52 C36.903,45.471,36.765,30.629,52.083,20.51 M54.286,18C35.449,28.552,35.904,45.1,36,56c0.057,6.507-1.137,10-3.294,10 C30.105,66,30,61.732,30,58c-2.121,1.957-6,7.363-6,12c0,2.528,1.142,5.96,2.856,8H70c0,0,6-3.847,6-10 c0-6.293-5.901-11.872-6.008-11.872c-0.003,0-0.001,0.006,0.008,0.017C70,61.347,69.357,62,68,62c-1.92,0-2.033-3.669-2.033-5.586 C65.967,51.551,68,47.429,68,42c0-5.404-5.625-12.134-8-14c0,2.714,0.071,14-4,14c-3.902,0-3.774-2.988-4-10 C51.822,26.475,52.376,20.827,54.286,18L54.286,18z"/></g><path fill="#ffeea3" d="M36,77c8.821-0.509,8-18.016,8-21c0-4.197,4-8,4-8s-1.159,12,4,12c3.732,0,2-6,2-6s4,2.904,4,6	c0,1.361-1.027,16.152,10,17H36z"/></svg>