<svg xmlns="http://www.w3.org/2000/svg" viewBox="0 0 40 40" width="50px" height="50px"><path fill="#dff0fe" d="M10.5 1.5H25.5V7.5H10.5z"/><path fill="#4788c7" d="M25,2v5H11V2H25 M26,1H10v7h16V1L26,1z"/><path fill="#dff0fe" d="M4.5 4.5H31.5V38.5H4.5z"/><path fill="#4788c7" d="M31,5v33H5V5H31 M32,4H4v35h28V4L32,4z"/><path fill="#98ccfd" d="M15 26H21V29H15zM15 20H21V23H15zM15 14H21V17H15zM15 8H21V11H15zM23 14H29V17H23zM23 8H29V11H23zM7 26H13V29H7zM7 32H13V35H7zM7 20H13V23H7zM7 14H13V17H7zM7 8H13V11H7z"/><g><path fill="#b6dcfe" d="M13.67,38.5c-0.676-0.912-1.17-2.37-1.17-3.5c0-1.621,1.071-3.509,2.02-4.721 c0.07,1.575,0.389,3.221,1.834,3.221c0.395,0,0.761-0.159,1.059-0.458c0.744-0.751,1.11-2.449,1.088-5.046l-0.002-0.259 c-0.047-5-0.115-12.422,7.543-17.481c-0.556,1.86-0.589,4.272-0.541,5.761l0.018,0.544c0.094,3.081,0.15,4.94,2.482,4.94 c1.133,0,1.889-1.122,2.245-3.334c0.168-1.043,0.226-2.16,0.245-3.016c1.254,1.337,3.01,3.812,3.01,5.851 c0,1.34-0.263,2.539-0.518,3.698c-0.245,1.117-0.499,2.272-0.499,3.509c0,0.9,0,3.293,1.517,3.293c1.036,0,1.377-0.689,1.47-2.204 c0.828,0.996,2.03,2.776,2.03,4.704c0,2.444-2.133,4.125-2.655,4.5H13.67z"/><path fill="#4788c7" d="M25.256,11.421c-0.266,1.524-0.3,3.207-0.255,4.611l0.017,0.541C25.113,19.724,25.183,22,28,22 c1.415,0,2.337-1.264,2.739-3.755c0.097-0.599,0.158-1.22,0.196-1.802C31.956,17.749,33,19.526,33,21 c0,1.286-0.257,2.458-0.506,3.591c-0.251,1.143-0.51,2.326-0.51,3.616c0,0.938,0,3.793,2.016,3.793c1.056,0,1.555-0.607,1.79-1.438 C36.414,31.516,37,32.753,37,34c0,2.04-1.705,3.529-2.321,4H13.932C13.392,37.169,13,35.939,13,35c0-1.072,0.536-2.304,1.168-3.334 C14.405,32.929,14.977,34,16.353,34c0.531,0,1.02-0.21,1.414-0.607c0.854-0.862,1.257-2.629,1.233-5.402l-0.002-0.26 C18.952,22.812,18.892,16.257,25.256,11.421 M27.143,9C17.724,14.276,17.952,22.55,18,28c0.029,3.254-0.569,5-1.647,5 C15.053,33,15,30.866,15,29c-1.061,0.979-3,3.682-3,6c0,1.264,0.571,2.98,1.428,4H35c0,0,3-1.923,3-5 c0-3.147-2.951-5.936-3.004-5.936c-0.002,0,0,0.003,0.004,0.009C35,30.674,34.679,31,34,31c-0.96,0-1.016-1.835-1.016-2.793 C32.984,25.775,34,23.714,34,21c0-2.702-2.813-6.067-4-7c0,1.357,0.036,7-2,7c-1.951,0-1.887-1.494-2-5 C25.911,13.238,26.188,10.414,27.143,9L27.143,9z"/></g><path fill="#fff" d="M18,38c4.411-0.254,4-8.508,4-10c0-2.099,2-4,2-4s-0.58,6,2,6c1.866,0,1-3,1-3s2,1.452,2,3 c0,0.68-0.513,7.576,5,8H18z"/></svg>