<svg xmlns="http://www.w3.org/2000/svg" viewBox="0 0 80 80" width="50px" height="50px"><path fill="#c2e8ff" d="M78,40c0,21.155-17.236,38-38,38C19.238,78,2,61.155,2,40S18.845,2,40,2S78,18.845,78,40z"/><path fill="#8bb7f0" d="M54.247 53.902c.864.43 1.727.43 2.161 1.293 1.293 1.297 1.293 3.456 1.727 4.752.43 1.727.864 3.454 1.727 5.182.432 2.161 1.296 4.32 1.727 6.045.282-.219.613-.425.927-.636C71.855 63.645 78 52.605 78 40c0-11.195-4.747-21.15-12.323-28.074-.918-.301-1.86-.331-2.791.084-1.295.434-2.159 2.161-3.023 3.025-.864 1.295-1.727 2.591-2.591 3.886-.434.432-.864 1.296-.434 1.727 0 .432.434.432.864.432.864.434 1.298.434 2.161.864.432 0 .864.434.432.863 0 0 0 .434-.432.434-2.161 2.159-4.318 3.886-6.477 6.043-.432.432-.864 1.295-.864 1.727 0 .432.432.432.432.863 0 .434-.432.434-.863.864-.864.434-1.727.864-2.159 1.298-.432.864 0 2.159-.432 3.023-.432 2.159-1.729 3.886-2.593 6.045-.864 1.293-1.293 2.591-2.157 3.886 0 1.727-.434 3.023.43 4.318C47.341 54.331 51.225 52.604 54.247 53.902zM53.451 4.421C49.277 2.863 44.751 2 40 2c-.781 0-1.553.037-2.322.083-.54.839-.97 1.665-1.133 2.155-.432 2.159 1.296 1.727 3.023 2.159 0 0 .432 3.454.432 3.886.432 2.161-.864 3.454-.864 5.613 0 1.296 0 3.454.864 4.318h.432c.432 0 .864-.432 1.727-.864 1.295-.864 2.593-2.159 3.886-3.023 1.298-.864 2.593-2.159 3.456-3.023 1.296-.864 2.159-2.591 2.591-3.888.432-.864 1.913-3.408 1.479-4.703C53.537 4.646 53.493 4.527 53.451 4.421zM2.864 41.805c1.296 2.591 3.886 5.184 6.477 6.909 1.727 1.295 5.182 1.295 6.909 3.454 1.296 1.729.864 3.886.864 6.045 0 2.591 1.727 4.75 2.591 6.907.432 1.298.864 3.025 1.295 4.32 0 .432.432 3.023.432 3.454.139.069.251.229.354.423 2.306 1.264 4.757 2.28 7.313 3.048.032.002.075-.024.105-.015.432 0 2.159-2.593 2.159-3.025 1.295-1.296 2.159-3.023 3.454-3.886.864-.432 1.727-.864 2.591-1.729.864-.864 1.296-2.591 1.727-3.886.432-.862.864-2.589.432-3.884-.273-.819-.432-1.295-1.296-1.727-2.591-.864-5.182-.864-7.341-3.025-.432-.864-.432-1.727-.864-2.591-.864-.864-3.023-1.295-4.318-1.727h-5.614-3.023c-1.295-.432-2.159-2.159-3.023-3.454 0-.432 0-1.298-.864-1.298-.864-.43-1.727.434-2.591 0-.432-.43-.432-.864-.432-1.293 0-1.298.864-2.593 1.727-3.456 1.296-.864 2.591.432 3.886.432.432 0 .432 0 .864.432 1.295.432 1.727 2.159 1.727 3.456v.864c0 .432.432.432.863.432.432-2.159.432-4.32.864-6.477 0-2.591 2.591-5.184 4.75-6.045.864-.43 1.295.434 2.159 0 2.591-.864 9.068-3.454 7.773-6.907-.864-3.025-3.454-6.043-6.909-5.613-.864.434-1.295.864-2.159 1.298-1.296.864-3.886 3.454-5.182 3.454-2.159-.432-2.159-3.454-1.727-4.752.432-1.727 4.318-7.339 6.909-6.475.432.432 1.295 1.296 1.727 1.727.864.432 2.159.432 3.454.432.432 0 .864 0 1.296-.432.432-.432.432-.432.432-.864 0-1.295-1.295-2.593-2.159-3.456-.864-.864-2.159-1.727-3.454-2.157-2.761-.829-8.591.153-13.345 1.757C6.479 19.37 2 29.107 2 40c0 .182.017.36.02.541C2.329 40.978 2.624 41.405 2.864 41.805z"/><path fill="#7496c4" d="M40,3c9.964,0,19.278,3.826,26.226,10.774S77,30.036,77,40c0,20.402-16.598,37-37,37S3,60.402,3,40 c0-9.964,3.826-19.278,10.774-26.226S30.036,3,40,3 M40,2C18.845,2,2,18.845,2,40s17.238,38,38,38c20.764,0,38-16.845,38-38 S61.155,2,40,2L40,2z"/><path fill="#7496c4" d="M3 45H77V46H3zM3 34H77V35H3zM6 56H74V57H6zM14.5 67H65.5V68H14.5zM6 23H74V24H6zM14 12H66V13H14z"/><g><path fill="#7496c4" d="M39.991,3c4.257,0,9,15.195,9,37s-4.743,37-9,37s-9-15.195-9-37S35.734,3,39.991,3 M39.991,2 c-5.523,0-10,17.013-10,38s4.477,38,10,38c5.523,0,10-17.013,10-38S45.514,2,39.991,2L39.991,2z"/><path fill="#7496c4" d="M39.991,3c13.785,0,25,16.598,25,37s-11.215,37-25,37s-25-16.598-25-37S26.206,3,39.991,3 M39.991,2c-14.359,0-26,17.013-26,38s11.641,38,26,38c14.359,0,26-17.013,26-38S54.351,2,39.991,2L39.991,2z"/></g></svg>