<svg xmlns="http://www.w3.org/2000/svg" viewBox="0 0 40 40" width="50px" height="50px"><path fill="#dff0fe" d="M19.707,24.815L25,19.522l12.793,12.793H32.5v5.293L19.707,24.815z"/><path fill="#4788c7" d="M32.5,38.107c-0.13,0-0.258-0.051-0.354-0.146L19.354,25.168c-0.195-0.195-0.195-0.512,0-0.707 l5.293-5.293c0.195-0.195,0.512-0.195,0.707,0l12.793,12.793c0.143,0.143,0.186,0.358,0.108,0.545 c-0.077,0.187-0.26,0.309-0.462,0.309H33v4.793c0,0.202-0.122,0.385-0.309,0.462C32.629,38.095,32.564,38.107,32.5,38.107z M20.414,24.814L32,36.4v-4.086c0-0.276,0.224-0.5,0.5-0.5h4.086L25,20.229L20.414,24.814z"/><path fill="#dff0fe" d="M7.5,32.315H2.207L15,19.522l5.293,5.293L7.5,37.608V32.315z"/><path fill="#4788c7" d="M7.5,38.107c-0.064,0-0.129-0.012-0.191-0.038C7.122,37.992,7,37.81,7,37.607v-4.793H2.207 c-0.202,0-0.385-0.122-0.462-0.309c-0.078-0.187-0.035-0.402,0.108-0.545l12.793-12.793c0.195-0.195,0.512-0.195,0.707,0 l5.293,5.293c0.195,0.195,0.195,0.512,0,0.707L7.854,37.961C7.758,38.057,7.63,38.107,7.5,38.107z M3.414,31.814H7.5 c0.276,0,0.5,0.224,0.5,0.5V36.4l11.586-11.586L15,20.229L3.414,31.814z"/><g><path fill="#98ccfd" d="M20,31.237c-0.128,0-0.249-0.043-0.349-0.124l-2.682-2.196l-3.403,0.696 c-0.04,0.009-0.077,0.013-0.114,0.013c-0.217,0-0.413-0.133-0.501-0.338l-1.356-3.192l-3.333-0.962 c-0.248-0.072-0.414-0.313-0.393-0.572l0.283-3.458l-2.505-2.402c-0.188-0.18-0.223-0.469-0.084-0.688l1.859-2.93l-1.104-3.291 c-0.082-0.246,0.022-0.518,0.247-0.648l3.007-1.734l0.553-3.424c0.042-0.257,0.26-0.451,0.519-0.462l3.467-0.137l2.081-2.777 c0.103-0.137,0.268-0.219,0.44-0.219c0.082,0,0.16,0.018,0.234,0.053l3.135,1.491l3.134-1.491 c0.075-0.035,0.153-0.053,0.235-0.053c0.172,0,0.337,0.082,0.44,0.22l2.08,2.776l3.467,0.137c0.259,0.01,0.478,0.204,0.521,0.462 l0.552,3.423l3.007,1.734c0.225,0.129,0.328,0.403,0.246,0.649l-1.102,3.289l1.857,2.93c0.139,0.22,0.104,0.509-0.085,0.689 l-2.504,2.402l0.283,3.459c0.02,0.258-0.145,0.499-0.395,0.571l-3.333,0.962l-1.356,3.193c-0.086,0.201-0.287,0.336-0.502,0.336 c-0.037,0-0.074-0.005-0.111-0.013l-3.405-0.697l-2.685,2.197C20.248,31.194,20.128,31.237,20,31.237z"/><path fill="#4788c7" d="M20,31.737c-0.244,0-0.473-0.082-0.663-0.235l-2.5-2.047l-3.17,0.648 c-0.063,0.015-0.137,0.023-0.214,0.023c-0.416,0-0.793-0.251-0.96-0.64l-1.265-2.975l-3.104-0.896 c-0.476-0.139-0.792-0.598-0.753-1.092l0.263-3.222L5.3,19.063c-0.358-0.344-0.426-0.897-0.16-1.317l1.731-2.73l-1.028-3.064 c-0.156-0.472,0.042-0.993,0.471-1.24l2.801-1.615L9.63,5.907c0.079-0.491,0.497-0.862,0.992-0.881l3.23-0.128l1.938-2.586 c0.291-0.387,0.847-0.528,1.289-0.317l2.919,1.388l2.919-1.389c0.451-0.211,1.001-0.067,1.291,0.318l1.937,2.585l3.23,0.128 c0.495,0.02,0.913,0.389,0.995,0.878l0.514,3.191l2.801,1.615c0.429,0.246,0.628,0.768,0.472,1.24l-1.027,3.065l1.73,2.73 c0.266,0.421,0.197,0.976-0.162,1.318L32.367,21.3l0.263,3.222c0.039,0.496-0.278,0.955-0.754,1.093l-3.105,0.896l-1.262,2.974 c-0.191,0.449-0.677,0.725-1.176,0.618l-3.169-0.649l-2.5,2.046C20.474,31.655,20.245,31.737,20,31.737z M17.102,28.379L20,30.737 c0.012,0,0.02-0.003,0.029-0.01l2.869-2.349l3.638,0.745l1.5-3.442l3.562-1.027l-0.267-3.746l2.675-2.567l-1.976-3.192 l1.178-3.515l-3.235-1.91l-0.59-3.658l-3.752-0.188l-2.223-2.966L19.999,4.49L16.65,2.897l-2.282,2.981l-3.706,0.146l-0.635,3.701 l-3.212,1.853l1.156,3.572l-1.986,3.131l2.684,2.626l-0.301,3.695l3.595,1.079l1.45,3.411L17.102,28.379z"/><g><polygon fill="#fff" points="18.803,21.949 13.894,16.908 16.043,14.815 18.803,17.649 24.925,11.363 27.075,13.456"/></g></g></svg>