<svg xmlns="http://www.w3.org/2000/svg" viewBox="0 0 40 40" width="50px" height="50px"><path fill="#98ccfd" d="M20,38.5c-0.593,0-1.149-0.23-1.568-0.649L2.149,21.568c-0.864-0.865-0.864-2.271,0-3.137 L18.432,2.149C18.851,1.73,19.407,1.5,20,1.5s1.149,0.23,1.568,0.649l16.282,16.282C38.27,18.851,38.5,19.407,38.5,20 s-0.23,1.149-0.649,1.568L21.568,37.851C21.149,38.27,20.593,38.5,20,38.5z"/><path fill="#4788c7" d="M20,2c0.459,0,0.89,0.179,1.215,0.503l16.282,16.282c0.67,0.67,0.67,1.76,0,2.43L21.215,37.497 C20.89,37.821,20.459,38,20,38s-0.89-0.179-1.215-0.503L2.503,21.215c-0.67-0.67-0.67-1.76,0-2.43L18.785,2.503 C19.11,2.179,19.541,2,20,2 M20,1c-0.696,0-1.391,0.265-1.922,0.796L1.796,18.078c-1.062,1.062-1.062,2.783,0,3.844l16.282,16.282 C18.609,38.735,19.304,39,20,39s1.391-0.265,1.922-0.796l16.282-16.282c1.062-1.062,1.062-2.783,0-3.844L21.922,1.796 C21.391,1.265,20.696,1,20,1L20,1z"/><path fill="#fff" d="M20 25.5A1.5 1.5 0 1 0 20 28.5 1.5 1.5 0 1 0 20 25.5zM19 10H21V23H19z"/></svg>