<svg xmlns="http://www.w3.org/2000/svg" viewBox="0 0 40 40" width="50px" height="50px"><path fill="#98ccfd" d="M1.5 1.5H38.5V38.5H1.5z"/><path fill="#4788c7" d="M38,2v36H2V2H38 M39,1H1v38h38V1L39,1z"/><path fill="#fff" d="M19.5 16A3.5 3.5 0 1 0 19.5 23 3.5 3.5 0 1 0 19.5 16zM19.5 6A2.5 2.5 0 1 0 19.5 11 2.5 2.5 0 1 0 19.5 6zM30.5 14A2.5 2.5 0 1 0 30.5 19 2.5 2.5 0 1 0 30.5 14zM8.5 14A2.5 2.5 0 1 0 8.5 19 2.5 2.5 0 1 0 8.5 14zM26.5 28A2.5 2.5 0 1 0 26.5 33 2.5 2.5 0 1 0 26.5 28zM12.5 28A2.5 2.5 0 1 0 12.5 33 2.5 2.5 0 1 0 12.5 28z"/><path fill="none" stroke="#fff" stroke-miterlimit="10" d="M12.5 30.5L19.5 19.5 26.5 30.5"/><path fill="none" stroke="#fff" stroke-miterlimit="10" d="M8.5 16.5L19.5 19.667 30.5 16.5M19.5 8.786L19.5 20"/></svg>