<svg xmlns="http://www.w3.org/2000/svg" viewBox="0 0 40 40" width="50px" height="50px"><path fill="#8bb7f0" d="M1.5 38.5L1.5 29 5.434 1.5 34.566 1.5 38.505 29.071 38.5 38.5z"/><path fill="#4e7ab5" d="M34.133,2L38,29.071V38H2v-8.929L5.867,2H34.133 M35,1H5L1,29v10h38V29L35,1L35,1z"/><path fill="#c2e8ff" d="M37.951 29L2.01 29 5.803 2 34.073 2z"/><path fill="#fff" d="M33.5 32A1.5 1.5 0 1 0 33.5 35 1.5 1.5 0 1 0 33.5 32zM10.5 32A1.5 1.5 0 1 0 10.5 35 1.5 1.5 0 1 0 10.5 32zM14.5 32A1.5 1.5 0 1 0 14.5 35 1.5 1.5 0 1 0 14.5 32zM6.5 32A1.5 1.5 0 1 0 6.5 35 1.5 1.5 0 1 0 6.5 32z"/><path fill="#4e7ab5" d="M20 7A4 4 0 1 0 20 15 4 4 0 1 0 20 7zM27 24c0-3.866-3.134-7-7-7-3.866 0-7 3.134-7 7H27z"/></svg>