<svg xmlns="http://www.w3.org/2000/svg" viewBox="0 0 40 40" width="50px" height="50px"><path fill="#dff0fe" d="M6.5 37.5L6.5 2.5 24.793 2.5 33.5 11.207 33.5 37.5z"/><path fill="#4788c7" d="M24.586,3L33,11.414V37H7V3H24.586 M25,2H6v36h28V11L25,2L25,2z"/><path fill="#fff" d="M24.5 11.5L24.5 2.5 24.793 2.5 33.5 11.207 33.5 11.5z"/><path fill="#4788c7" d="M25 3.414L32.586 11H25V3.414M25 2h-1v10h10v-1L25 2 25 2zM10.953 18.233h1.571v5.506c0 2.326-1.127 2.674-2.267 2.674-.324 0-.624-.048-.792-.12l.132-1.318c.145.048.313.06.516.06.456 0 .84-.18.84-1.224V18.233zM13.941 24.71c.324.181.888.313 1.332.313.731 0 1.103-.384 1.103-.912 0-.588-.359-.875-1.043-1.319-1.104-.671-1.523-1.522-1.523-2.255 0-1.295.864-2.374 2.543-2.374.54 0 1.043.144 1.271.287l-.252 1.355c-.229-.144-.576-.275-1.02-.275-.672 0-.995.407-.995.84 0 .479.239.731 1.103 1.259 1.08.647 1.464 1.463 1.464 2.314 0 1.476-1.092 2.447-2.663 2.447-.647 0-1.271-.168-1.547-.324L13.941 24.71zM23.923 22.132c0 3.046-1.079 4.281-2.614 4.281-1.835 0-2.555-1.942-2.555-4.161 0-2.207.875-4.114 2.675-4.114C23.371 18.138 23.923 20.285 23.923 22.132zM20.385 22.275c0 1.835.348 2.771.983 2.771.672 0 .924-1.199.924-2.842 0-1.416-.216-2.699-.936-2.699C20.732 19.505 20.385 20.536 20.385 22.275zM25.222 26.317v-8.084h1.438l1.248 3.167c.251.623.635 1.667.863 2.362h.023c-.048-.852-.155-2.255-.155-3.742v-1.787h1.379v8.084h-1.439l-1.235-3.07c-.275-.684-.636-1.715-.827-2.435h-.024c.049.815.108 2.063.108 3.694v1.811H25.222z"/></svg>