<svg xmlns="http://www.w3.org/2000/svg" viewBox="0 0 50 50" width="50px" height="50px"><path d="M 9 0 C 7.90625 0 7 0.90625 7 2 L 7 48 C 7 49.09375 7.90625 50 9 50 L 35 50 C 35.550781 50 36 49.550781 36 49 L 36 48 L 41 48 C 42.09375 48 43 47.09375 43 46 L 43 27 C 43 26.449219 42.550781 26 42 26 L 40 26 C 39.4375 26 39 25.5625 39 25 C 39 24.4375 39.4375 24 40 24 L 42 24 C 42.550781 24 43 23.550781 43 23 L 43 4 C 43 2.90625 42.09375 2 41 2 L 36 2 L 36 1 C 36 0.449219 35.550781 0 35 0 Z M 9 2 L 34 2 L 34 48 L 9 48 Z M 14.8125 4 C 14.335938 4.089844 13.992188 4.511719 14 5 L 14 12 C 14 12.550781 14.449219 13 15 13 L 28 13 C 28.550781 13 29 12.550781 29 12 L 29 5 C 29 4.449219 28.550781 4 28 4 L 15 4 C 14.96875 4 14.9375 4 14.90625 4 C 14.875 4 14.84375 4 14.8125 4 Z M 36 4 L 41 4 L 41 22 L 40 22 C 38.355469 22 37 23.355469 37 25 C 37 26.644531 38.355469 28 40 28 L 41 28 L 41 46 L 36 46 L 36 44 L 39 44 L 39 42 L 36 42 L 36 40 L 39 40 L 39 38 L 36 38 L 36 36 L 39 36 L 39 34 L 36 34 L 36 32 L 39 32 L 39 30 L 36 30 L 36 20 L 39 20 L 39 18 L 36 18 L 36 16 L 39 16 L 39 14 L 36 14 L 36 12 L 39 12 L 39 10 L 36 10 L 36 8 L 39 8 L 39 6 L 36 6 Z M 16 6 L 27 6 L 27 11 L 16 11 Z M 14.8125 15 C 14.335938 15.089844 13.992188 15.511719 14 16 L 14 23 C 14 23.550781 14.449219 24 15 24 L 28 24 C 28.550781 24 29 23.550781 29 23 L 29 16 C 29 15.449219 28.550781 15 28 15 L 15 15 C 14.96875 15 14.9375 15 14.90625 15 C 14.875 15 14.84375 15 14.8125 15 Z M 16 17 L 27 17 L 27 22 L 16 22 Z M 14.8125 26 C 14.335938 26.089844 13.992188 26.511719 14 27 L 14 34 C 14 34.550781 14.449219 35 15 35 L 28 35 C 28.550781 35 29 34.550781 29 34 L 29 27 C 29 26.449219 28.550781 26 28 26 L 15 26 C 14.96875 26 14.9375 26 14.90625 26 C 14.875 26 14.84375 26 14.8125 26 Z M 16 28 L 27 28 L 27 33 L 16 33 Z M 14.8125 37 C 14.335938 37.089844 13.992188 37.511719 14 38 L 14 45 C 14 45.550781 14.449219 46 15 46 L 28 46 C 28.550781 46 29 45.550781 29 45 L 29 38 C 29 37.449219 28.550781 37 28 37 L 15 37 C 14.96875 37 14.9375 37 14.90625 37 C 14.875 37 14.84375 37 14.8125 37 Z M 16 39 L 27 39 L 27 44 L 16 44 Z"/></svg>