<svg xmlns="http://www.w3.org/2000/svg" viewBox="0 0 40 40" width="50px" height="50px"><path fill="#b6dcfe" d="M34.16,6.5c1.287,0,2.34,1.089,2.34,2.42V33.08c0,1.331-1.053,2.42-2.34,2.42H5.84 c-1.287,0-2.34-1.089-2.34-2.42V8.92c0-1.331,1.053-2.42,2.34-2.42H34.16z"/><path fill="#4788c7" d="M34.16,36H5.84C4.274,36,3,34.69,3,33.08V8.92C3,7.31,4.274,6,5.84,6H34.16 C35.726,6,37,7.31,37,8.92v24.16C37,34.69,35.726,36,34.16,36z M5.84,7C4.826,7,4,7.861,4,8.92v24.16C4,34.139,4.826,35,5.84,35 H34.16c1.015,0,1.84-0.861,1.84-1.92V8.92C36,7.861,35.174,7,34.16,7H5.84z"/><path fill="#98ccfd" d="M21.5,5.5h11v4h-11V5.5z"/><path fill="#4788c7" d="M32.5,10h-11C21.224,10,21,9.776,21,9.5v-4C21,5.224,21.224,5,21.5,5h11C32.776,5,33,5.224,33,5.5v4 C33,9.776,32.776,10,32.5,10z M22,9h10V6H22V9z"/><path fill="#dff0fe" d="M7.5,5.5h5v4h-5V5.5z"/><path fill="#4788c7" d="M12.5,10h-5C7.224,10,7,9.776,7,9.5v-4C7,5.224,7.224,5,7.5,5h5C12.776,5,13,5.224,13,5.5v4 C13,9.776,12.776,10,12.5,10z M8,9h4V6H8V9z"/><path fill="#dff0fe" d="M15.5,5.5h2v4h-2V5.5z"/><path fill="#4788c7" d="M17.5,10h-2C15.224,10,15,9.776,15,9.5v-4C15,5.224,15.224,5,15.5,5h2C17.776,5,18,5.224,18,5.5v4 C18,9.776,17.776,10,17.5,10z M16,9h1V6h-1V9z"/><path fill="#fff" d="M20.5,12.5h12v12h-12V12.5z"/><path fill="#fff" d="M32.5,25h-12c-0.276,0-0.5-0.224-0.5-0.5v-12c0-0.276,0.224-0.5,0.5-0.5h12 c0.276,0,0.5,0.224,0.5,0.5v12C33,24.776,32.776,25,32.5,25z M21,24h11V13H21V24z"/><rect width="9" height="9" x="22" y="14" fill="#4788c7"/><path fill="#dff0fe" d="M23.5,6h7v0.865C30.5,7.492,29.907,8,29.176,8h-4.352C24.093,8,23.5,7.492,23.5,6.865V6z"/><circle cx="10.5" cy="29.5" r="3" fill="#fff"/><path fill="#fff" d="M10.5,33C8.57,33,7,31.43,7,29.5S8.57,26,10.5,26s3.5,1.57,3.5,3.5S12.43,33,10.5,33z M10.5,27 C9.122,27,8,28.121,8,29.5S9.122,32,10.5,32s2.5-1.121,2.5-2.5S11.878,27,10.5,27z"/><path fill="#fff" d="M16.5,13h1c0.276,0,0.5,0.224,0.5,0.5v10c0,0.276-0.224,0.5-0.5,0.5h-1c-0.276,0-0.5-0.224-0.5-0.5	v-10C16,13.224,16.224,13,16.5,13z"/><path fill="#fff" d="M8.5,13h1c0.276,0,0.5,0.224,0.5,0.5v10c0,0.276-0.224,0.5-0.5,0.5h-1C8.224,24,8,23.776,8,23.5v-10	C8,13.224,8.224,13,8.5,13z"/><path fill="#fff" d="M12.5,13h1c0.276,0,0.5,0.224,0.5,0.5v10c0,0.276-0.224,0.5-0.5,0.5h-1c-0.276,0-0.5-0.224-0.5-0.5	v-10C12,13.224,12.224,13,12.5,13z"/><path fill="#fff" d="M33,31.5v1c0,0.276-0.224,0.5-0.5,0.5h-14c-0.276,0-0.5-0.224-0.5-0.5v-1c0-0.276,0.224-0.5,0.5-0.5	h14C32.776,31,33,31.224,33,31.5z"/><path fill="#fff" d="M33,27.5v1c0,0.276-0.224,0.5-0.5,0.5h-14c-0.276,0-0.5-0.224-0.5-0.5v-1c0-0.276,0.224-0.5,0.5-0.5	h14C32.776,27,33,27.224,33,27.5z"/><path fill="#4788c7" d="M5.65,8.45C5.236,8.45,4.9,8.786,4.9,9.2s0.336,0.75,0.75,0.75S6.4,9.614,6.4,9.2	S6.064,8.45,5.65,8.45z M34.437,8.45c-0.414,0-0.75,0.336-0.75,0.75s0.336,0.75,0.75,0.75c0.414,0,0.75-0.336,0.75-0.75	S34.852,8.45,34.437,8.45z"/><path fill="#4788c7" d="M5.65,32.075c-0.414,0-0.75,0.336-0.75,0.75c0,0.414,0.336,0.75,0.75,0.75s0.75-0.336,0.75-0.75	C6.4,32.411,6.064,32.075,5.65,32.075z M34.437,32.075c-0.414,0-0.75,0.336-0.75,0.75c0,0.414,0.336,0.75,0.75,0.75	c0.414,0,0.75-0.336,0.75-0.75C35.187,32.411,34.852,32.075,34.437,32.075z"/></svg>