<svg xmlns="http://www.w3.org/2000/svg" viewBox="0 0 40 40" width="50px" height="50px"><path fill="#ffeea3" d="M8.5 1.5H10.5V38.5H8.5z"/><path fill="#f5c276" d="M10,2v36H9V2H10 M11,1H8v38h3V1L11,1z"/><path fill="#ffeea3" d="M12.5 1.5H14.5V38.5H12.5z"/><path fill="#f5c276" d="M14,2v36h-1V2H14 M15,1h-3v38h3V1L15,1z"/><path fill="#ffeea3" d="M16.5 1.5H18.5V38.5H16.5z"/><path fill="#f5c276" d="M18,2v36h-1V2H18 M19,1h-3v38h3V1L19,1z"/><path fill="#ffeea3" d="M20.5 1.5H22.5V38.5H20.5z"/><path fill="#f5c276" d="M22,2v36h-1V2H22 M23,1h-3v38h3V1L23,1z"/><path fill="#ffeea3" d="M24.5 1.5H26.5V38.5H24.5z"/><path fill="#f5c276" d="M26,2v36h-1V2H26 M27,1h-3v38h3V1L27,1z"/><path fill="#ffeea3" d="M28.5 1.5H30.5V38.5H28.5z"/><path fill="#f5c276" d="M30,2v36h-1V2H30 M31,1h-3v38h3V1L31,1z"/><path fill="#ffeea3" d="M1.5 9.5H38.5V11.5H1.5z"/><path fill="#f5c276" d="M38,10v1H2v-1H38 M39,9H1v3h38V9L39,9z"/><path fill="#ffeea3" d="M1.5 13.5H38.5V15.5H1.5z"/><path fill="#f5c276" d="M38,14v1H2v-1H38 M39,13H1v3h38V13L39,13z"/><path fill="#ffeea3" d="M1.5 17.5H38.5V19.5H1.5z"/><path fill="#f5c276" d="M38,18v1H2v-1H38 M39,17H1v3h38V17L39,17z"/><g><path fill="#ffeea3" d="M1.5 21.5H38.5V23.5H1.5z"/><path fill="#f5c276" d="M38,22v1H2v-1H38 M39,21H1v3h38V21L39,21z"/></g><g><path fill="#ffeea3" d="M1.5 25.5H38.5V27.5H1.5z"/><path fill="#f5c276" d="M38,26v1H2v-1H38 M39,25H1v3h38V25L39,25z"/></g><g><path fill="#ffeea3" d="M1.5 29.5H38.5V31.5H1.5z"/><path fill="#f5c276" d="M38,30v1H2v-1H38 M39,29H1v3h38V29L39,29z"/></g><g><path fill="#4b6477" d="M7,34.5c-0.827,0-1.5-0.673-1.5-1.5V7c0-0.827,0.673-1.5,1.5-1.5h26c0.827,0,1.5,0.673,1.5,1.5v26 c0,0.827-0.673,1.5-1.5,1.5H7z"/><path fill="#36404d" d="M33,6c0.551,0,1,0.449,1,1v26c0,0.551-0.449,1-1,1H7c-0.551,0-1-0.449-1-1V7c0-0.551,0.449-1,1-1 H33 M33,5H7C5.895,5,5,5.895,5,7v26c0,1.105,0.895,2,2,2h26c1.105,0,2-0.895,2-2V7C35,5.895,34.105,5,33,5L33,5z"/></g><g><path fill="#bdccd4" d="M10.5 9A1.5 1.5 0 1 0 10.5 12A1.5 1.5 0 1 0 10.5 9Z"/></g><g><path fill="#bdccd4" d="M29.5 9A1.5 1.5 0 1 0 29.5 12A1.5 1.5 0 1 0 29.5 9Z"/></g><g><path fill="#bdccd4" d="M29.5 28A1.5 1.5 0 1 0 29.5 31A1.5 1.5 0 1 0 29.5 28Z"/></g><g><path fill="#bdccd4" d="M10.5 28A1.5 1.5 0 1 0 10.5 31A1.5 1.5 0 1 0 10.5 28Z"/></g></svg>