<svg xmlns="http://www.w3.org/2000/svg" viewBox="0 0 80 80" width="50px" height="50px"><path fill="#e1ebf2" d="M16,55.5C7.453,55.5,0.5,48.547,0.5,40c0-7.098,4.811-13.271,11.699-15.01l0.406-0.103 l-0.042-0.579C12.532,23.875,12.5,23.441,12.5,23c0-11.304,9.196-20.5,20.5-20.5c9.6,0,17.807,6.534,19.96,15.891l0.111,0.481 l0.482-0.104C54.37,18.59,55.193,18.5,56,18.5c5.694,0,10.466,4.084,11.347,9.712l0.058,0.37l0.371,0.049 C74.459,29.511,79.5,35.258,79.5,42c0,7.444-6.056,13.5-13.5,13.5H16z"/><path fill="#b0c1d4" d="M33,3c9.365,0,17.372,6.375,19.473,15.503l0.221,0.962l0.965-0.209C54.441,19.086,55.229,19,56,19 c5.446,0,10.01,3.907,10.853,9.289l0.116,0.739l0.742,0.098C74.146,29.974,79,35.508,79,42c0,7.168-5.832,13-13,13H16 C7.729,55,1,48.271,1,40c0-6.868,4.655-12.842,11.321-14.526l0.812-0.205l-0.059-0.835l-0.012-0.167C13.03,23.829,13,23.416,13,23 C13,11.972,21.972,3,33,3 M33,2c-11.598,0-21,9.402-21,21c0,0.508,0.041,1.006,0.076,1.505C5.14,26.257,0,32.52,0,40 c0,8.837,7.163,16,16,16h50c7.732,0,14-6.268,14-14c0-7.107-5.299-12.962-12.159-13.865C66.943,22.395,61.991,18,56,18 c-0.877,0-1.729,0.1-2.552,0.278C51.303,8.958,42.972,2,33,2L33,2z"/><path fill="#8bb7f0" d="M19,77.5c-2.481,0-4.5-2.019-4.5-4.5c0-3.743,5.36-8.564,7.197-10.107C22.189,65,23.5,70.82,23.5,73 C23.5,75.481,21.481,77.5,19,77.5z"/><path fill="#4e7ab5" d="M21.394,63.802C21.965,66.3,23,71.098,23,73c0,2.206-1.794,4-4,4s-4-1.794-4-4 C15,70.032,18.899,65.987,21.394,63.802 M22,62c0,0-8,6.208-8,11c0,2.761,2.239,5,5,5s5-2.239,5-5S22,62,22,62L22,62z"/><g><path fill="#8bb7f0" d="M37,63.5c-2.481,0-4.5-2.019-4.5-4.5c0-3.743,5.36-8.564,7.197-10.107C40.189,51,41.5,56.82,41.5,59 C41.5,61.481,39.481,63.5,37,63.5z"/><path fill="#4e7ab5" d="M39.394,49.802C39.965,52.3,41,57.098,41,59c0,2.206-1.794,4-4,4s-4-1.794-4-4 C33,56.032,36.899,51.987,39.394,49.802 M40,48c0,0-8,6.208-8,11c0,2.761,2.239,5,5,5s5-2.239,5-5S40,48,40,48L40,48z"/></g><g><path fill="#8bb7f0" d="M51,77.5c-2.481,0-4.5-2.019-4.5-4.5c0-3.743,5.36-8.564,7.197-10.107C54.189,65,55.5,70.82,55.5,73 C55.5,75.481,53.481,77.5,51,77.5z"/><path fill="#4e7ab5" d="M53.394,63.802C53.965,66.3,55,71.098,55,73c0,2.206-1.794,4-4,4s-4-1.794-4-4 C47,70.032,50.899,65.987,53.394,63.802 M54,62c0,0-8,6.208-8,11c0,2.761,2.239,5,5,5s5-2.239,5-5S54,62,54,62L54,62z"/></g></svg>