<svg xmlns="http://www.w3.org/2000/svg" viewBox="0 0 40 40" width="50px" height="50px"><path fill="#98ccfd" d="M20,38.5C9.799,38.5,1.5,30.201,1.5,20S9.799,1.5,20,1.5S38.5,9.799,38.5,20S30.201,38.5,20,38.5z"/><path fill="#4788c7" d="M20,2c9.925,0,18,8.075,18,18s-8.075,18-18,18S2,29.925,2,20S10.075,2,20,2 M20,1 C9.507,1,1,9.507,1,20s8.507,19,19,19s19-8.507,19-19S30.493,1,20,1L20,1z"/><path fill="#fff" d="M20,16L20,16c-0.552,0-1-0.448-1-1v-5c0-0.552,0.448-1,1-1h0c0.552,0,1,0.448,1,1v5 C21,15.552,20.552,16,20,16z"/><path fill="#fff" d="M15 11L20 6 25 11zM20 24L20 24c.552 0 1 .448 1 1v5c0 .552-.448 1-1 1h0c-.552 0-1-.448-1-1v-5C19 24.448 19.448 24 20 24z"/><path fill="#fff" d="M25 29L20 34 15 29zM35 20L35 20c0 .552-.448 1-1 1h-5c-.552 0-1-.448-1-1v0c0-.552.448-1 1-1h5C34.552 19 35 19.448 35 20z"/><path fill="#fff" d="M30 25L25 20 30 15zM5 20L5 20c0-.552.448-1 1-1h5c.552 0 1 .448 1 1v0c0 .552-.448 1-1 1H6C5.448 21 5 20.552 5 20z"/><path fill="#fff" d="M10 15L15 20 10 25z"/></svg>