<svg xmlns="http://www.w3.org/2000/svg" viewBox="0 0 80 80" width="50px" height="50px"><path fill="#e1ebf2" d="M16,55.6c-8.5,0-15.5-7-15.5-15.5c0-7.1,4.8-13.3,11.7-15l0.4-0.1l0-0.6c0-0.4-0.1-0.9-0.1-1.3 c0-11.3,9.2-20.5,20.5-20.5c9.6,0,17.8,6.5,20,15.9l0.1,0.5l0.5-0.1c0.8-0.2,1.6-0.3,2.4-0.3c5.7,0,10.5,4.1,11.3,9.7l0.1,0.4 l0.4,0c6.7,0.9,11.7,6.6,11.7,13.4c0,7.4-6.1,13.5-13.5,13.5H16z"/><path fill="#b0c1d4" d="M33,3.1c9.4,0,17.4,6.4,19.5,15.5l0.2,1l1-0.2c0.8-0.2,1.6-0.3,2.3-0.3c5.4,0,10,3.9,10.9,9.3 l0.1,0.7l0.7,0.1C74.1,30.1,79,35.6,79,42.1c0,7.2-5.8,13-13,13H16c-8.3,0-15-6.7-15-15c0-6.9,4.7-12.8,11.3-14.5l0.8-0.2 l-0.1-0.8l0-0.2c0-0.4-0.1-0.9-0.1-1.3C13,12.1,22,3.1,33,3.1 M33,2.1c-11.6,0-21,9.4-21,21c0,0.5,0,1,0.1,1.5 C5.1,26.3,0,32.6,0,40.1c0,8.8,7.2,16,16,16h50c7.7,0,14-6.3,14-14c0-7.1-5.3-13-12.2-13.9C66.9,22.5,62,18.1,56,18.1 c-0.9,0-1.7,0.1-2.6,0.3C51.3,9,43,2.1,33,2.1L33,2.1z"/><path fill="#4e7ab5" d="M30 54.1H46V56.1H30z"/><path fill="#4e7ab5" d="M37 47.1H39V63.1H37z" transform="rotate(-33.561 37.996 55.082)"/><path fill="#4e7ab5" d="M30 54.1H46V56.1H30z" transform="rotate(-56.448 38.002 55.083)"/><path fill="#4e7ab5" d="M12 70.1H28V72.1H12z"/><path fill="#4e7ab5" d="M19 63.1H21V79.1H19z" transform="rotate(-33.561 19.995 71.078)"/><path fill="#4e7ab5" d="M12 70.1H28V72.1H12z" transform="rotate(-56.448 20.002 71.084)"/><path fill="#4e7ab5" d="M44 70.1H60V72.1H44z"/><path fill="#4e7ab5" d="M51 63.1H53V79.1H51z" transform="rotate(-33.561 51.991 71.08)"/><path fill="#4e7ab5" d="M44 70.1H60V72.1H44z" transform="rotate(-56.435 51.996 71.08)"/></svg>