<svg xmlns="http://www.w3.org/2000/svg" viewBox="0 0 80 80" width="50px" height="50px"><path fill="#b0c1d4" d="M14,55.5C6.556,55.5,0.5,49.444,0.5,42c0-5.186,3.041-9.974,7.747-12.198l0.271-0.128l0.014-0.301 C8.865,22.154,14.78,16.5,22,16.5c0.622,0,1.27,0.054,2.036,0.17l0.514,0.078l0.059-0.515C25.498,8.404,32.114,2.5,40,2.5 c5.574,0,10.746,3.025,13.497,7.895l0.166,0.293l0.334-0.043C54.756,10.546,55.393,10.5,56,10.5c8.547,0,15.5,6.953,15.5,15.5 l-0.006,0.294l0.248,0.292C76.527,29.354,79.5,34.495,79.5,40c0,8.547-6.953,15.5-15.5,15.5H14z"/><path fill="#788b9c" d="M40,3c5.395,0,10.4,2.928,13.062,7.64l0.331,0.586l0.668-0.086C54.8,11.045,55.416,11,56,11 c8.271,0,15,6.729,14.999,15.006c-0.003,0.046-0.006,0.092-0.007,0.138l-0.005,0.583l0.505,0.292C76.123,29.698,79,34.672,79,40 c0,8.271-6.729,15-15,15H14C6.832,55,1,49.168,1,42c0-4.994,2.928-9.604,7.46-11.746l0.544-0.257l0.028-0.601 C9.352,22.445,15.048,17,22,17c0.597,0,1.221,0.052,1.961,0.165l1.026,0.156l0.117-1.031C25.966,8.713,32.369,3,40,3 M40,2 c-8.219,0-14.982,6.2-15.889,14.176C23.421,16.071,22.72,16,22,16c-7.512,0-13.625,5.922-13.967,13.35C3.29,31.591,0,36.405,0,42 c0,7.732,6.268,14,14,14h50c8.837,0,16-7.163,16-16c0-5.922-3.226-11.08-8.008-13.847C71.993,26.102,72,26.052,72,26 c0-8.837-7.163-16-16-16c-0.702,0-1.389,0.061-2.068,0.148C51.187,5.288,45.981,2,40,2L40,2z"/><path fill="#e1ebf2" d="M77.949,41C77.433,48.253,71.382,54,64,54H14C7.383,54,2,48.617,2,42H1c0,7.168,5.832,13,13,13h50	c7.934,0,14.431-6.195,14.949-14H77.949z"/><g><path fill="#ffeea3" d="M30.77 77.5L38.77 59.5 28.75 59.5 38.333 36.5 53.146 36.5 44.146 52.5 52.922 52.5 31.769 77.5z"/><path fill="#c29653" d="M52.29,37l-8.162,14.51L43.29,53H45h6.844L31.542,76.994l7.372-16.587L39.539,59H38h-8.5l9.167-22 H52.29 M54,36H38L28,60h10l-8,18h2l22-26h-9L54,36L54,36z"/></g></svg>