<svg xmlns="http://www.w3.org/2000/svg" viewBox="0 0 80 80" width="50px" height="50px"><path fill="#ffeea3" d="M33.842 70.957L25.012 76.186 22.37 65.874 12.066 67.934 14.206 57.235 3.503 55.118 9.349 46.388 0.833 40 9.043 33.842 3.814 25.012 14.126 22.37 12.066 12.066 22.765 14.206 24.882 3.503 33.612 9.349 40 0.833 46.158 9.043 54.988 3.814 57.63 14.126 67.934 12.066 65.794 22.765 76.497 24.882 70.651 33.612 79.167 40 70.957 46.158 76.186 54.988 65.874 57.63 67.934 67.934 57.235 65.794 55.118 76.497 46.388 70.651 40 79.167z"/><path fill="#ba9b48" d="M40,1.667l5.489,7.318l0.538,0.717l0.771-0.457l7.871-4.661l2.359,9.207l0.235,0.918l0.93-0.186 l9.104-1.821l-1.894,9.472l-0.197,0.983l0.983,0.195l9.476,1.875l-5.166,7.714l-0.528,0.788l0.758,0.569L78.333,40l-7.318,5.489 l-0.717,0.538l0.457,0.771l4.661,7.871l-9.207,2.359l-0.918,0.235l0.186,0.93l1.821,9.104l-9.472-1.894l-0.983-0.197l-0.195,0.983 l-1.875,9.476l-7.714-5.166l-0.788-0.528l-0.569,0.758L40,78.333l-5.489-7.318l-0.538-0.717l-0.771,0.457l-7.871,4.661 l-2.359-9.207l-0.235-0.918l-0.93,0.186l-9.104,1.821l1.894-9.472l0.197-0.983l-0.983-0.195l-9.476-1.875l5.166-7.714l0.528-0.788 L9.27,45.703L1.667,40l7.318-5.489l0.717-0.538l-0.457-0.772L4.585,25.33l9.207-2.359l0.918-0.235l-0.186-0.93l-1.821-9.104 l9.472,1.894l0.983,0.197l0.195-0.983l1.875-9.476l7.714,5.166l0.788,0.528l0.569-0.758L40,1.667 M40,0l-6.503,8.67l-8.96-6.001 l-2.166,10.948l-10.943-2.189l2.115,10.574l-10.499,2.69l5.34,9.019L0,40l8.67,6.503l-6.001,8.96l10.948,2.166l-2.189,10.943 l10.574-2.115l2.69,10.499l9.019-5.34L40,80l6.503-8.67l8.96,6.001l2.166-10.948l10.943,2.189l-2.115-10.574l10.499-2.69 l-5.34-9.019L80,40l-8.67-6.503l6.001-8.96l-10.948-2.166l2.189-10.943l-10.574,2.115l-2.69-10.499l-9.019,5.34L40,0L40,0z"/><path fill="#f5ce85" d="M40 18A22 22 0 1 0 40 62A22 22 0 1 0 40 18Z"/></svg>