<svg xmlns="http://www.w3.org/2000/svg" viewBox="0 0 40 40" width="50px" height="50px"><path fill="#dff0fe" d="M16.986 35.149L12.666 37.708 11.369 32.646 6.352 33.648 7.397 28.421 2.168 27.387 5.014 23.136 0.833 20 4.851 16.986 2.292 12.666 7.354 11.369 6.352 6.352 11.579 7.397 12.613 2.168 16.864 5.014 20 0.833 23.014 4.851 27.334 2.292 28.631 7.354 33.648 6.352 32.603 11.579 37.832 12.613 34.986 16.864 39.167 20 35.149 23.014 37.708 27.334 32.646 28.631 33.648 33.648 28.421 32.603 27.387 37.832 23.136 34.986 20 39.167z"/><path fill="#4788c7" d="M20,1.667l2.344,3.126l0.538,0.717l0.772-0.457l3.362-1.991L28.03,7.02l0.235,0.918l0.93-0.186 l3.816-0.763l-0.8,4.001l-0.197,0.983l0.983,0.194L37,12.959l-2.166,3.234l-0.527,0.788l0.758,0.569L38.333,20l-3.126,2.344 l-0.717,0.538l0.457,0.772l1.991,3.362L32.98,28.03l-0.918,0.235l0.186,0.93l0.763,3.816l-4.001-0.8l-0.983-0.197l-0.194,0.983 L27.041,37l-3.234-2.166l-0.788-0.527l-0.569,0.758L20,38.333l-2.344-3.126l-0.538-0.717l-0.772,0.457l-3.362,1.991L11.97,32.98 l-0.235-0.918l-0.93,0.186l-3.816,0.763l0.8-4.001l0.197-0.983l-0.983-0.194L3,27.041l2.166-3.234l0.527-0.788l-0.758-0.569 L1.667,20l3.126-2.344l0.717-0.538l-0.457-0.772l-1.991-3.362L7.02,11.97l0.918-0.235l-0.186-0.93L6.989,6.989l4.001,0.8 l0.983,0.197l0.194-0.983L12.959,3l3.234,2.166l0.788,0.527l0.569-0.758L20,1.667 M20,0l-3.251,4.335l-4.48-3l-1.083,5.474 L5.714,5.714l1.057,5.287l-5.249,1.345l2.67,4.509L0,20l4.335,3.251l-3,4.48l5.474,1.083l-1.094,5.471l5.287-1.057l1.345,5.249 l4.509-2.67L20,40l3.251-4.335l4.48,3l1.083-5.474l5.471,1.094l-1.057-5.287l5.249-1.345l-2.67-4.509L40,20l-4.335-3.251l3-4.48 l-5.474-1.083l1.094-5.471l-5.287,1.057l-1.345-5.249l-4.509,2.67L20,0L20,0z"/><path fill="#fff" d="M20,29.5c-5.238,0-9.5-4.262-9.5-9.5s4.262-9.5,9.5-9.5s9.5,4.262,9.5,9.5S25.238,29.5,20,29.5z"/><path fill="#4788c7" d="M20,11c4.963,0,9,4.037,9,9s-4.037,9-9,9s-9-4.037-9-9S15.037,11,20,11 M20,10 c-5.523,0-10,4.477-10,10s4.477,10,10,10s10-4.477,10-10S25.523,10,20,10L20,10z"/></svg>