<svg xmlns="http://www.w3.org/2000/svg" viewBox="0 0 40 40" width="50px" height="50px"><path fill="#98ccfd" d="M1.5 6.5H38.5V33.5H1.5z"/><path fill="#4788c7" d="M38,7v26H2V7H38 M39,6H1v28h38V6L39,6z"/><path fill="#fff" d="M16.452 14.298l-3.928 11.403h-2.91L5.733 14.298H8.5l2.378 7.936c.127.429.204.808.231 1.137h.048c.037-.355.119-.745.247-1.169l2.362-7.904H16.452zM21.946 25.702h-2.568V14.298h2.568V25.702zM28.502 21.773v3.928h-2.568V14.298h4.024c2.873 0 4.31 1.211 4.31 3.634 0 1.145-.412 2.071-1.237 2.779-.824.708-1.926 1.062-3.304 1.062H28.502zM28.502 16.271v3.555h1.01c1.368 0 2.052-.599 2.052-1.797 0-1.172-.684-1.757-2.052-1.757H28.502z"/></svg>