<svg xmlns="http://www.w3.org/2000/svg" viewBox="0 0 80 80" width="50px" height="50px"><path fill="#b5ddf5" d="M11,41.5c-1.379,0-2.5-1.121-2.5-2.5s1.121-2.5,2.5-2.5h50.463c5.514,0,10-4.486,10-10 s-4.486-10-10-10c-3.782,0-7.199,2.096-8.918,5.47c-0.429,0.842-1.283,1.365-2.23,1.365c-0.396,0-0.776-0.092-1.132-0.273 c-1.229-0.626-1.718-2.135-1.093-3.363c2.576-5.057,7.7-8.198,13.373-8.198c8.271,0,15,6.729,15,15 c0,8.203-6.673,14.932-14.874,14.999l0.004,0.001H11z"/><path fill="#7496c4" d="M61.463,12c7.995,0,14.5,6.505,14.5,14.5c0,7.93-6.45,14.434-14.37,14.5H11c-1.103,0-2-0.897-2-2 s0.897-2,2-2h50.463c5.79,0,10.5-4.71,10.5-10.5S67.253,16,61.463,16c-3.971,0-7.559,2.2-9.364,5.743 c-0.343,0.674-1.026,1.092-1.784,1.092c-0.316,0-0.621-0.074-0.906-0.219c-0.982-0.501-1.374-1.707-0.874-2.69 C51.026,15.037,55.979,12,61.463,12 M61.463,11c-5.861,0-11.156,3.246-13.818,8.472c-0.752,1.477-0.165,3.283,1.311,4.035 c0.436,0.222,0.901,0.328,1.36,0.328c1.092,0,2.146-0.598,2.675-1.638C54.623,18.991,57.87,17,61.463,17 c5.238,0,9.5,4.262,9.5,9.5s-4.262,9.5-9.5,9.5H11c-1.657,0-3,1.343-3,3s1.343,3,3,3h50.593v-0.001 c8.487-0.069,15.37-6.995,15.37-15.499C76.963,17.953,70.01,11,61.463,11L61.463,11z"/><path fill="#b5ddf5" d="M42.5,72.5c-4.916,0-9.356-2.724-11.59-7.106c-0.625-1.229-0.135-2.736,1.093-3.362 c0.356-0.182,0.736-0.273,1.133-0.273c0.945,0,1.8,0.523,2.229,1.366C36.74,65.823,39.474,67.5,42.5,67.5c4.411,0,8-3.589,8-8 s-3.589-8-8-8H16c-1.379,0-2.5-1.121-2.5-2.5s1.121-2.5,2.5-2.5h26.609c7.106,0.058,12.891,5.889,12.891,13 C55.5,66.668,49.668,72.5,42.5,72.5z"/><path fill="#7496c4" d="M42.605,47C49.44,47.057,55,52.664,55,59.5C55,66.393,49.393,72,42.5,72 c-4.727,0-8.997-2.619-11.144-6.834c-0.5-0.983-0.108-2.189,0.876-2.69c0.284-0.145,0.588-0.219,0.904-0.219 c0.757,0,1.441,0.419,1.784,1.094C36.38,66.219,39.285,68,42.5,68c4.687,0,8.5-3.813,8.5-8.5S47.187,51,42.5,51H16 c-1.103,0-2-0.897-2-2s0.897-2,2-2H42.605 M42.609,46H16c-1.657,0-3,1.343-3,3s1.343,3,3,3h26.5c4.136,0,7.5,3.364,7.5,7.5 S46.636,67,42.5,67c-2.837,0-5.4-1.572-6.689-4.103c-0.53-1.041-1.583-1.64-2.675-1.64c-0.458,0-0.923,0.106-1.359,0.328 c-1.477,0.752-2.063,2.558-1.312,4.034C32.783,70.172,37.395,73,42.5,73C49.944,73,56,66.944,56,59.5 C56,52.093,50.003,46.06,42.609,46L42.609,46z"/><g><path fill="#b5ddf5" d="M6,31.5c-1.379,0-2.5-1.121-2.5-2.5s1.121-2.5,2.5-2.5h18.5c2.757,0,5-2.243,5-5s-2.243-5-5-5 c-1.892,0-3.601,1.048-4.46,2.735c-0.429,0.842-1.283,1.365-2.229,1.366c-0.396,0-0.776-0.093-1.133-0.273 c-1.228-0.625-1.719-2.133-1.094-3.362c1.717-3.371,5.134-5.466,8.916-5.466c5.514,0,10,4.486,10,10c0,5.473-4.452,9.959-9.925,10 H6z"/><path fill="#7496c4" d="M24.5,12c5.238,0,9.5,4.262,9.5,9.5c0,5.2-4.23,9.461-9.422,9.5H6c-1.103,0-2-0.897-2-2 s0.897-2,2-2h18.5c3.033,0,5.5-2.467,5.5-5.5S27.533,16,24.5,16c-2.081,0-3.961,1.153-4.906,3.008 c-0.343,0.674-1.026,1.093-1.783,1.093c-0.316,0-0.621-0.074-0.906-0.219c-0.982-0.5-1.375-1.706-0.875-2.689 C17.661,13.99,20.907,12,24.5,12 M24.5,11c-3.972,0-7.559,2.199-9.361,5.739c-0.751,1.477-0.164,3.283,1.313,4.034 c0.436,0.222,0.901,0.328,1.359,0.328c1.092,0,2.145-0.598,2.675-1.639C21.259,17.943,22.797,17,24.5,17 c2.481,0,4.5,2.019,4.5,4.5S26.981,26,24.5,26H6c-1.657,0-3,1.343-3,3s1.343,3,3,3h18.578C30.332,31.957,35,27.264,35,21.5 C35,15.71,30.29,11,24.5,11L24.5,11z"/></g></svg>